<svg xmlns="http://www.w3.org/2000/svg" width="24" height="24" viewBox="0 0 24 24"><g transform="translate(-676 -2308)"><circle cx="12" cy="12" r="12" transform="translate(676 2308)" fill="#00a2be"/><path d="M5.681.174c2.753,0,4.761-1.56,4.749-3.7a2.913,2.913,0,0,0-2.809-3v-.1A2.729,2.729,0,0,0,9.951-9.379c.012-1.945-1.66-3.524-4.233-3.524-2.5,0-4.438,1.467-4.488,3.6H3.425a2.05,2.05,0,0,1,2.281-1.734,1.818,1.818,0,0,1,2.039,1.79c0,1.113-.945,1.865-2.3,1.865H4.314v1.765H5.445c1.66,0,2.648.82,2.642,1.97.006,1.125-1.007,1.9-2.412,1.9-1.324,0-2.343-.671-2.4-1.7H.963C1.026-1.305,2.965.174,5.681.174Z" transform="translate(683 2326)" fill="#fff"/></g></svg>