<svg xmlns="http://www.w3.org/2000/svg" width="24" height="24" viewBox="0 0 24 24"><g transform="translate(-544 -2308)"><circle cx="12" cy="12" r="12" transform="translate(544 2308)" fill="#00a2be"/><path d="M9.9,0V-1.914H4.245v-.093L6.5-4.251C9.006-6.613,9.7-7.776,9.7-9.218,9.7-11.349,7.943-12.9,5.352-12.9,2.8-12.9.988-11.337,1-8.925H3.176A1.986,1.986,0,0,1,5.32-11.039,1.985,1.985,0,0,1,7.515-9.1C7.508-8.037,6.837-7.278,5.55-5.992L1.057-1.66,1.063,0Z" transform="translate(551 2326)" fill="#fff"/></g></svg>