<svg xmlns="http://www.w3.org/2000/svg" width="30" height="30" viewBox="0 0 30 30"><g transform="translate(-16 -61)"><g opacity="0"><rect width="30" height="30" transform="translate(16 61)"/><path d="M1,1V29H29V1H1M0,0H30V30H0Z" transform="translate(16 61)" fill="#707070"/></g><g transform="translate(-6 7.5)"><g transform="translate(22 53.5)"><g opacity="0"><rect width="28.549" height="28.549" transform="translate(0.968 0.968)" fill="#fff"/><path d="M1,1V27.549H27.549V1H1M0,0H28.549V28.549H0Z" transform="translate(0.968 0.968)" fill="#707070"/></g><path d="M30,30H0V0H30Z" fill="none"/><g transform="translate(0.968 0)"><path d="M0,0H29.032V29.032H0Z" fill="none"/><g transform="translate(7.661 7.621)"><path d="M12.47,13.53l-13-13L.53-.53l13,13Z" transform="translate(0.372 0.379)"/><path d="M.53,13.53-.53,12.47l13-13L13.53.53Z" transform="translate(0.372 0.379)"/></g></g></g></g></g></svg>