<svg xmlns="http://www.w3.org/2000/svg" xmlns:xlink="http://www.w3.org/1999/xlink" width="76" height="76" viewBox="0 0 76 76"><defs><clipPath id="a"><rect width="64" height="63" transform="translate(-0.095 -0.143)" fill="#fff" stroke="#707070" stroke-width="1"/></clipPath><clipPath id="b"><rect width="37.216" height="4.751" fill="none"/></clipPath></defs><g transform="translate(-5209 11905)"><circle cx="38" cy="38" r="38" transform="translate(5209 -11905)" fill="#00a2be"/><g transform="translate(5215.095 -11897.857)" clip-path="url(#a)"><g transform="translate(-0.727 -0.489)"><path d="M0,0H63.661V63.661H0Z" fill="none"/><rect width="63.661" height="63.661" fill="none"/><g transform="translate(10.056 12.728)"><rect width="43.55" height="38.007" transform="translate(0 0.198)" fill="#fff" stroke="#000" stroke-linecap="round" stroke-linejoin="round" stroke-width="2"/><rect width="43.55" height="5.543" fill="#00a2be" stroke="#000" stroke-linecap="round" stroke-linejoin="round" stroke-width="2"/><line x2="0.792" transform="translate(31.673 2.771)" fill="#00a2be" stroke="#000" stroke-linecap="round" stroke-linejoin="round" stroke-width="2"/><line x2="0.792" transform="translate(35.632 2.771)" fill="#00a2be" stroke="#000" stroke-linecap="round" stroke-linejoin="round" stroke-width="2"/><line x2="0.792" transform="translate(39.591 2.771)" fill="#00a2be" stroke="#000" stroke-linecap="round" stroke-linejoin="round" stroke-width="2"/><g transform="translate(6.503 11.389)"><circle cx="2.984" cy="2.984" r="2.984" fill="#9be0e8" stroke="#000" stroke-miterlimit="10" stroke-width="2"/><line x2="20.564" transform="translate(10.941 0.995)" fill="#9be0e8" stroke="#000" stroke-miterlimit="10" stroke-width="2"/><line x2="20.564" transform="translate(10.941 4.973)" fill="#9be0e8" stroke="#000" stroke-miterlimit="10" stroke-width="2"/></g><g transform="translate(6.503 21.682)"><circle cx="2.984" cy="2.984" r="2.984" fill="#9be0e8" stroke="#000" stroke-miterlimit="10" stroke-width="2"/><line x2="20.564" transform="translate(10.941 0.995)" fill="#9be0e8" stroke="#000" stroke-miterlimit="10" stroke-width="2"/><line x2="20.564" transform="translate(10.941 4.973)" fill="#9be0e8" stroke="#000" stroke-miterlimit="10" stroke-width="2"/></g><g transform="translate(3.167 30.287)"><g clip-path="url(#b)"><g transform="translate(3.335 1.689)"><circle cx="2.984" cy="2.984" r="2.984" fill="#9be0e8" stroke="#000" stroke-miterlimit="10" stroke-width="2"/><line x2="20.564" transform="translate(10.941 0.995)" fill="#9be0e8" stroke="#000" stroke-miterlimit="10" stroke-width="2"/><line x2="20.564" transform="translate(10.941 4.973)" fill="#9be0e8" stroke="#000" stroke-miterlimit="10" stroke-width="2"/></g></g></g></g></g></g></g></svg>