<svg xmlns="http://www.w3.org/2000/svg" xmlns:xlink="http://www.w3.org/1999/xlink" width="76" height="76" viewBox="0 0 76 76"><defs><clipPath id="a"><rect width="63" height="63" transform="translate(0 -0.143)" fill="#fff" stroke="#707070" stroke-width="1"/></clipPath></defs><g transform="translate(-4998 11905)"><circle cx="38" cy="38" r="38" transform="translate(4998 -11905)" fill="#00a2be"/><g transform="translate(5004 -11897.857)" clip-path="url(#a)"><g transform="translate(5.485 11.651)"><path d="M-16958.67-14975.617h-39.947l-1.74,2.216v29.089l-2.785.838-.842,2.011v3.219l2.686.986h47.111l1.537-2.3v-3.916l-4.291-1.506V-14974Z" transform="translate(17004.512 14976.053)" fill="#fff"/><path d="M369.592,189.035a.513.513,0,0,1-.513-.513V159.243a1.582,1.582,0,0,0-1.582-1.581H328.6a1.582,1.582,0,0,0-1.582,1.581v29.279a.513.513,0,0,1-1.026,0V159.243a2.611,2.611,0,0,1,2.608-2.607h38.9a2.611,2.611,0,0,1,2.608,2.607v29.279A.513.513,0,0,1,369.592,189.035Z" transform="translate(-321.891 -156.636)" fill="#212121" stroke="#212121" stroke-width="1"/><path d="M354.8,184.412h-28.3a.513.513,0,0,1,0-1.026h28.3a.513.513,0,1,1,0,1.026Z" transform="translate(-321.891 -155.945)" fill="#212121" stroke="#212121" stroke-width="1"/><path d="M364.632,184.412h-4.958a.513.513,0,1,1,0-1.026h4.958a.513.513,0,0,1,0,1.026Z" transform="translate(-321.034 -155.945)" fill="#212121" stroke="#212121" stroke-width="1"/><path d="M-16954.424-14944.966h-18.426l-2.711,2.737-6.17-.509-2.594-2.229h-18.775l-1.193,2.229,1.193,3.6,5.154,1.1h43.521l1.875-2.637v-3.308Z" transform="translate(17004.506 14976.844)" fill="#9be0e8"/><path d="M371.7,194.913H324.6a2.611,2.611,0,0,1-2.608-2.608v-2.478a2.611,2.611,0,0,1,2.608-2.608h17.839a2.38,2.38,0,0,1,2.079,1.222l.3.53a1.36,1.36,0,0,0,1.185.7h4.3a1.357,1.357,0,0,0,1.184-.695l.3-.532a2.386,2.386,0,0,1,2.08-1.221H371.7a2.611,2.611,0,0,1,2.608,2.608v2.478A2.611,2.611,0,0,1,371.7,194.913Zm-47.1-6.668a1.583,1.583,0,0,0-1.582,1.582v2.478a1.583,1.583,0,0,0,1.582,1.582h47.1a1.583,1.583,0,0,0,1.582-1.582v-2.478a1.583,1.583,0,0,0-1.582-1.582H353.865a1.36,1.36,0,0,0-1.185.7l-.3.531a2.381,2.381,0,0,1-2.079,1.221H346a2.386,2.386,0,0,1-2.08-1.221l-.3-.532a1.357,1.357,0,0,0-1.184-.694Z" transform="translate(-321.994 -155.846)" fill="#212121" stroke="#212121" stroke-width="1"/><rect width="4.008" height="8.617" transform="translate(14.468 15.916)" fill="#00a2be" stroke="#000" stroke-linecap="round" stroke-linejoin="round" stroke-width="2"/><rect width="4.008" height="16.356" transform="translate(20.878 8.177)" fill="#00a2be" stroke="#000" stroke-linecap="round" stroke-linejoin="round" stroke-width="2"/><rect width="4.008" height="7.235" transform="translate(27.287 17.299)" fill="#00a2be" stroke="#000" stroke-linecap="round" stroke-linejoin="round" stroke-width="2"/><rect width="4.008" height="18.383" transform="translate(33.698 6.151)" fill="#00a2be" stroke="#000" stroke-linecap="round" stroke-linejoin="round" stroke-width="2"/><line x2="27.777" transform="translate(12.198 24.534)" fill="#2b2e5e" stroke="#000" stroke-linecap="round" stroke-linejoin="round" stroke-width="2"/></g></g></g></svg>