<svg xmlns="http://www.w3.org/2000/svg" xmlns:xlink="http://www.w3.org/1999/xlink" width="76" height="76" viewBox="0 0 76 76"><defs><clipPath id="a"><rect width="63" height="63" transform="translate(-0.429 -0.143)" fill="#fff" stroke="#707070" stroke-width="1"/></clipPath></defs><g transform="translate(-5101 11905)"><circle cx="38" cy="38" r="38" transform="translate(5101 -11905)" fill="#00a2be"/><g transform="translate(5108.429 -11899.857)" clip-path="url(#a)"><g transform="translate(7.662 4.262)"><g transform="translate(0 0)"><path d="M586.642,246.19V228.775s3.986-5.735,7.833-6.084,10,6.993,10,6.993v9.162a4.569,4.569,0,0,1-2.238,4.266v4.825Z" transform="translate(-584.872 -200.761)" fill="#fff" stroke="#000" stroke-linecap="round" stroke-linejoin="round" stroke-width="2"/><path d="M609.307,172.61l-10.676,10.676V208.1H626.8V172.61Z" transform="translate(-591.613 -172.61)" fill="#fff" stroke="#000" stroke-linecap="round" stroke-linejoin="round" stroke-width="2"/><path d="M609.308,183.286V172.61l-10.676,10.676Z" transform="translate(-591.613 -172.61)" fill="#fff" stroke="#000" stroke-linecap="round" stroke-linejoin="round" stroke-width="2"/><ellipse cx="3.311" cy="2.966" rx="3.311" ry="2.966" transform="translate(4.449 33.115)" fill="#fff"/><path d="M595.019,235.468l9.489-8.7s1.878-1.483,3.064.395-.791,4.547-.791,4.547l-4.449,4.745s2.372,1.483.89,6.721" transform="translate(-589.582 -202.748)" fill="#fff" stroke="#000" stroke-linecap="round" stroke-linejoin="round" stroke-width="2"/><path d="M582.6,284.729v-8.471h19.177v8.471Z" transform="translate(-582.599 -230.885)" fill="#00a2be" stroke="#000" stroke-linecap="round" stroke-linejoin="round" stroke-width="2"/><line x2="15.52" transform="translate(13.444 13.74)" fill="none" stroke="#000" stroke-width="2"/><line x2="15.52" transform="translate(13.444 16.903)" fill="none" stroke="#000" stroke-width="2"/><line x2="9.094" transform="translate(13.444 20.067)" fill="none" stroke="#000" stroke-width="2"/><line y2="1.581" transform="translate(3.064 48.635)" fill="none" stroke="#000" stroke-width="2"/></g><g transform="translate(24.382 28.938)"><path d="M638.3,238.714v16.9a5.294,5.294,0,0,0,3.257,4.887h16.7V238.714Z" transform="translate(-638.296 -238.714)" fill="#fff" stroke="#000" stroke-linecap="round" stroke-linejoin="round" stroke-width="2"/><g transform="translate(5.04 16.539)"><path d="M653.067,276.494v.364a5.294,5.294,0,0,1-3.258,4.887h15.273a5.294,5.294,0,0,0,3.259-4.887v-.364Z" transform="translate(-649.809 -276.494)" fill="#fff" stroke="#000" stroke-linecap="round" stroke-linejoin="round" stroke-width="2"/></g><rect width="2.444" height="2.444" transform="translate(2.851 2.647)" fill="#00a2be"/><line x2="11.2" transform="translate(6.312 3.869)" fill="#fff" stroke="#000" stroke-linejoin="round" stroke-width="2"/><rect width="2.444" height="2.443" transform="translate(2.851 6.72)" fill="#00a2be"/><line x2="11.2" transform="translate(6.312 7.942)" fill="#fff" stroke="#000" stroke-linejoin="round" stroke-width="2"/><rect width="2.444" height="2.444" transform="translate(2.851 10.793)" fill="#00a2be"/><line x2="11.2" transform="translate(6.312 12.015)" fill="#fff" stroke="#000" stroke-linejoin="round" stroke-width="2"/></g></g></g></g></svg>