<svg xmlns="http://www.w3.org/2000/svg" xmlns:xlink="http://www.w3.org/1999/xlink" width="582" height="289" viewBox="0 0 582 289"><defs><clipPath id="a"><rect width="582" height="289" transform="translate(-3140 -13597)" fill="#fff" stroke="#707070" stroke-width="1"/></clipPath></defs><g transform="translate(3088 13597)"><g transform="translate(52)" clip-path="url(#a)"><g transform="translate(-3076 -13588.552)"><g transform="translate(-23.38 21.692)" opacity="0.3"><g transform="translate(0 0)"><g transform="translate(5.908 5.908)"><path d="M448.961,249.717a23.893,23.893,0,0,0,2.209-47.682c-.745-.07-1.5-.106-2.247-.106a23.894,23.894,0,0,0-2.206,47.683C447.463,249.682,448.217,249.717,448.961,249.717Zm-.037-31.833c.251,0,.508.012.76.035a7.938,7.938,0,0,1-.723,15.841c-.249,0-.5-.012-.756-.034a7.938,7.938,0,0,1,.719-15.842Z" transform="translate(-425.048 -201.929)" fill="#9be0e8"/></g><path d="M453.436,255.407a29.624,29.624,0,0,0,9.688-3.008l-6.355-12.433a15.677,15.677,0,0,1-5.132,1.6ZM437.279,253l5.763-12.717a15.777,15.777,0,0,1-4.453-3.026L428.9,247.307A29.639,29.639,0,0,0,437.279,253Zm37.8-11.731a29.6,29.6,0,0,0,3.693-9.455l-13.684-2.779a15.612,15.612,0,0,1-1.954,5Zm-54.394-8.089,13.532-3.435a15.779,15.779,0,0,1-.482-3.873c0-.5.023-1,.07-1.5l.01-.132-4.647-.345-9.249-1-.016.18h0c-.085.929-.132,1.87-.132,2.8A29.667,29.667,0,0,0,420.687,233.184Zm43.755-12.81,13.095-4.841a29.849,29.849,0,0,0-5.077-8.767l-10.723,8.942A15.921,15.921,0,0,1,464.442,220.374Zm-27.461-4.126a15.9,15.9,0,0,1,3.961-3.67l-7.622-11.7a29.9,29.9,0,0,0-7.427,6.884Zm17.588-5.429,4.384-13.258a30.051,30.051,0,0,0-6.6-1.378,30.8,30.8,0,0,0-3.4-.126l.262,13.961.334,0c.5,0,1,.023,1.5.07A15.96,15.96,0,0,1,454.569,210.818Z" transform="translate(-419.773 -196.052)" fill="#9be0e8"/></g><g transform="translate(26.728 39.17)"><path d="M378.677,276.051a37.293,37.293,0,0,1-.251-4.3c0-1.151.055-2.321.157-3.42l.024-.235,6.785.74a30.365,30.365,0,0,1,1.512-7.007l-6.438-2.233a36.766,36.766,0,0,1,3.318-7.044l5.807,3.53a29.937,29.937,0,0,1,4.387-5.63l-4.8-4.781a37.139,37.139,0,0,1,6.032-4.9l3.7,5.68a29.82,29.82,0,0,1,6.41-3.145l-2.266-6.41a36.781,36.781,0,0,1,7.578-1.8l.864,6.768a30.667,30.667,0,0,1,3.816-.244c.941,0,1.893.045,2.834.134.163.015.322.039.48.055l.746-6.789a37.143,37.143,0,0,1,7.592,1.651l-2.144,6.48a29.76,29.76,0,0,1,6.453,3.028l3.616-5.784a37.068,37.068,0,0,1,6.123,4.791l-4.749,4.9a31.2,31.2,0,0,1,2.249,2.421,30.775,30.775,0,0,1,2.253,3.108l5.764-3.658a36.964,36.964,0,0,1,3.453,6.974L443.59,261.3a29.8,29.8,0,0,1,1.648,6.936l6.779-.782a36.728,36.728,0,0,1,.243,4.226c0,1.153-.052,2.321-.162,3.478l-.018.181-5.609-.651-1.173-.1a30.607,30.607,0,0,1-1.495,6.961l6.442,2.217a36.754,36.754,0,0,1-3.308,7.052l-5.813-3.519a29.882,29.882,0,0,1-4.377,5.638l4.809,4.771a37.041,37.041,0,0,1-6.023,4.911l-3.709-5.672a29.97,29.97,0,0,1-6.4,3.157l2.279,6.4a36.743,36.743,0,0,1-7.574,1.818l-.879-6.768a30.635,30.635,0,0,1-3.877.251c-.94,0-1.892-.045-2.831-.134-.143-.013-.283-.031-.424-.049l-.733,6.79a37.1,37.1,0,0,1-7.6-1.634l2.134-6.487a29.669,29.669,0,0,1-6.461-3.014l-3.6,5.792a37.1,37.1,0,0,1-6.129-4.782l4.738-4.911a29.871,29.871,0,0,1-4.51-5.52l-5.761,3.666a37.139,37.139,0,0,1-3.463-6.964l6.391-2.378a29.756,29.756,0,0,1-1.666-6.935Zm36.693,15.693a20.028,20.028,0,0,0,1.839-39.969c-.631-.058-1.269-.089-1.9-.089a20.027,20.027,0,0,0-1.835,39.966C414.106,291.712,414.745,291.744,415.371,291.744Z" transform="translate(-378.426 -235.019)" fill="#9be0e8"/></g></g><g transform="translate(126.898 27.061)"><g transform="translate(7.556 12.297)"><g transform="translate(0)"><g transform="translate(0)"><path d="M3.734,0h98.617a3.733,3.733,0,0,1,3.733,3.733v32.1a3.733,3.733,0,0,1-3.733,3.733H3.733A3.733,3.733,0,0,1,0,35.833V3.734A3.734,3.734,0,0,1,3.734,0Z" fill="#9be0e8"/></g></g><g transform="translate(95.542 35.659)"><g transform="translate(0)"><path d="M322.286,238.563V251.17L311.743,242Z" transform="translate(-311.743 -238.563)" fill="#9be0e8"/></g></g></g><g transform="translate(0 0)"><g transform="translate(0)"><path d="M3.734,0h98.617a3.733,3.733,0,0,1,3.733,3.733v32.1a3.735,3.735,0,0,1-3.735,3.735H3.733A3.733,3.733,0,0,1,0,35.833V3.734A3.734,3.734,0,0,1,3.734,0Z" fill="#fff"/></g><g transform="translate(95.542 35.659)"><g transform="translate(0)"><path d="M329.506,225.017v12.607l-10.543-9.17Z" transform="translate(-318.963 -225.017)" fill="#fff"/></g></g></g><g transform="translate(15.365 12.298)"><g transform="translate(0)"><rect width="31.591" height="0.935" fill="#00a2be"/></g></g><g transform="translate(51.591 12.298)"><g transform="translate(0)"><rect width="39.131" height="0.935" transform="translate(0)" fill="#00a2be"/></g></g><g transform="translate(15.365 19.314)"><g transform="translate(0)"><rect width="13.817" height="0.935" fill="#00a2be"/></g></g><g transform="translate(32.119 19.314)"><g transform="translate(0)"><rect width="33.843" height="0.935" fill="#00a2be"/></g></g><g transform="translate(69.827 19.314)"><g transform="translate(0)"><rect width="20.895" height="0.935" fill="#00a2be"/></g></g><g transform="translate(53.041 26.331)"><g transform="translate(0)"><rect width="37.681" height="0.935" fill="#00a2be"/></g></g></g><g transform="translate(1.764 100.439)"><g transform="translate(0 0)"><g transform="translate(1.38)"><path d="M355.692,407.685l151.619,5.8a6.432,6.432,0,0,0,6.432-6.432v-120.6a6.432,6.432,0,0,0-6.432-6.432l-151.619,9.541a6.433,6.433,0,0,0-6.432,6.433V401.253A6.432,6.432,0,0,0,355.692,407.685Z" transform="translate(-349.26 -280.014)" fill="#fff"/></g><g transform="translate(0)"><path d="M357.167,407.685l151.619,5.8a6.432,6.432,0,0,0,6.432-6.432v-120.6a6.432,6.432,0,0,0-6.432-6.432l-151.619,9.541a6.433,6.433,0,0,0-6.432,6.433V401.253A6.432,6.432,0,0,0,357.167,407.685Z" transform="translate(-350.735 -280.014)" fill="#9be0e8"/></g><g transform="translate(51.503 64.887)" opacity="0.23"><path d="M414.248,350.29l.463-.68,38.975-.222,14.137,66.073-33.837-2.193Z" transform="translate(-414.248 -349.388)" fill="#009ead"/></g><g transform="translate(32.997 65.48)"><path d="M441.9,350.022l-37.283.309L387.4,428.974s-7.519,22.557,13.786,27.571h83.325v-.695a4.318,4.318,0,0,0-4.318-4.318H448.479s-15.978-1.252-14.412-24.437Z" transform="translate(-386.111 -350.022)" fill="#6bc5d0"/></g><g transform="translate(18.713 4.465)" opacity="0.23"><path d="M497.18,284.79a1.363,1.363,0,0,1,1.408,1.066h0l-115.651,7.275h0a2.308,2.308,0,0,1,1.9-1.2Z" transform="translate(-382.936 -284.788)" fill="#00a2be"/></g></g><g transform="translate(146.794 118.211)" opacity="0.23"><ellipse cx="3.656" cy="3.656" rx="3.656" ry="3.656" transform="translate(0)" fill="#00a2be"/></g></g><g transform="translate(179.352 76.31)"><g transform="translate(0)"><g transform="translate(50.998 95.613)"><path d="M316.065,356.442S311.3,359.124,311,363.3a316.259,316.259,0,0,0-2.47,54.8l-.231,6.688s-4.449,6.741-7.131,7.635l2.682,21.154,20.857.6S332.75,394.581,316.065,356.442Z" transform="translate(-301.167 -356.442)" fill="#003daa"/></g><g transform="translate(52.31 232.119)"><path d="M202.919,565.521h81.014A32.916,32.916,0,0,0,316.85,532.6v2.7a32.916,32.916,0,0,0-32.916-32.916H202.919A32.916,32.916,0,0,0,170,535.3v-2.7A32.916,32.916,0,0,0,202.919,565.521Z" transform="translate(-170.003 -502.386)" fill="#003daa"/></g><g transform="translate(72.411)"><path d="M266.776,278c1.006,3.463,7.3,33.424,11.163,42.3,6.945,15.97,9.091,37.9,13.04,49.3,2.584,7.463-5.416,17.672-6.945,24.241-2.335,10.034,10.02,19.061,13.978,28.572.69,1.66,1.349,3.808.054,5.054a3.213,3.213,0,0,1-1.483.813c-8.075,1.868,2.492,1.659-3.181-.793-3.144-1.359-4.219-9.154-7.1-11.013-8.945-5.783-20.237-6.66-29.706-11.538-10.29-5.3-17.587-14.828-25.415-23.353-8-8.714-17.073-16.93-21.766-27.79-2.689-6.222-5.849-2.025-6.922-8.717-1.265-7.882-.471-26.826.173-34.783.48-5.922,2.014-11.733,2.3-17.667.326-6.877-1-14.051,1.472-20.477,3.356-8.729,14.5-15.248,23.259-17.425,8.945-2.224,20.112,3.233,26.912,8.673A29.662,29.662,0,0,1,266.776,278Z" transform="translate(-201.826 -254.217)"/></g><g transform="translate(11.155 213.675)"><path d="M354.954,487.655S366.8,523.2,356.2,538.787c0,0-11.224,20.889-43.648,25.565H210.289s0-23.695,11.848-37.413c0,0,44.9-41.154,54.873-44.272C277.01,482.667,295.093,489.526,354.954,487.655Z" transform="translate(-210.289 -482.667)" fill="#0085ce"/></g><g transform="translate(88.405 43.889)"><path d="M285.757,329.552a6.626,6.626,0,0,1,.3,2.856,5.223,5.223,0,0,1-.8,1.795c-2.086,3.253-5.36,5.525-8.548,7.71a21.062,21.062,0,0,1-3.541,2.1,19.023,19.023,0,0,1-4.606,1.158,34.207,34.207,0,0,1-9.614.412,7.259,7.259,0,0,1-4.669-2.039,6.27,6.27,0,0,1-1.186-4.847,42.519,42.519,0,0,1,1.2-4.992,22.074,22.074,0,0,0-.409-11.762,17.861,17.861,0,0,0,6.9-2.073c6.245-3.112,11.367-7.978,16.17-12.95,1.236-1.28,4.628-8.689,5.433-4.524.356,1.845.02,6.982.13,8.874.113,1.929.428,4.607.653,6.525A85.523,85.523,0,0,0,285.757,329.552Z" transform="translate(-253.031 -301.141)" fill="#ffcbcb"/></g><g transform="translate(78.548 76.314)"><path d="M271.676,347.792c6.423-2.246,12.906-4.52,18.679-8.121,1.917-1.2,3.741-2.53,5.564-3.863a31.041,31.041,0,0,1-1.179,4.86c-6.725,22.163-2.718,120.432-10.31,142.313-1.247,3.591-23.973-.189-30.58-1.888-2.284-5.015-.695-6.661-1.7-12.081-1.053-5.685,9.619-79.3,9.3-85.074-.735-13.332-1.468-26.762.333-39.992.069-.512.222-1.12.714-1.277s.977.264,1.329.649C266.213,345.917,267.756,349.163,271.676,347.792Z" transform="translate(-252.078 -335.808)" fill="#fff"/></g><g transform="translate(89.046 43.456)"><path d="M281.774,316.995c-1.439,1.943-3.186,3.647-4.542,5.648-1.707,2.518-2.754,5.446-4.542,7.906a24.018,24.018,0,0,1-5.675,5.3,9.993,9.993,0,0,1-3.995,1.936,3.924,3.924,0,0,1-3.957-1.482c-.888-1.395-.457-3.2-.463-4.855-.009-3.369-1.951-6.514-1.925-9.883,4.111.877,8.45-.624,11.827-3.127s5.947-5.923,8.374-9.355q2.4-3.4,4.686-6.872a4.225,4.225,0,0,1,1.067-1.24,1.422,1.422,0,0,1,1.547-.11,1.846,1.846,0,0,1,.583.774C287.1,306.533,284.778,312.936,281.774,316.995Z" transform="translate(-256.675 -300.678)" fill="#eaa9a9"/></g><g transform="translate(78.873 9.142)"><path d="M256.37,287.486c.2,2.864.741,5.7.823,8.574.065,2.316-.166,4.639.039,6.947a33.531,33.531,0,0,0,1.624,7.061,31.225,31.225,0,0,0,3.233,7.61,11.869,11.869,0,0,0,6.3,5.126c4.276,1.29,8.817-.737,12.617-3.085,5.492-3.392,10.724-7.885,12.835-13.985a31.141,31.141,0,0,0,1.287-6.1c1.258-9.431,1.3-19.478-3.1-27.915a13.889,13.889,0,0,0-3.7-4.753,13.1,13.1,0,0,0-4.179-2,23.213,23.213,0,0,0-14.723.473,24.742,24.742,0,0,0-10.637,8.111C255.927,277.105,256.056,283.106,256.37,287.486Z" transform="translate(-256.211 -263.991)" fill="#ffcbcb"/></g><g transform="translate(76.62 0.023)"><path d="M287.151,286.015a39,39,0,0,1-2.225,5.136c-.266.51-.756,1.1-1.291.888.131-2.428-.052-5-1.375-7.04a16.659,16.659,0,0,0-3.748-3.614c-3.486-2.818-7.332-4.134-9.91-7.8-.921-1.31-3.453-4.939-4.834-5.752a3.558,3.558,0,0,0-3.241.1,3.009,3.009,0,0,0-3.191-.646c-3.2,1.6-4.953,4.178-6.409,7.348-.757,1.649-3.844,7.6-3.8,10.082-2.286-3.477-2.171-9.755-.783-13.677a22.253,22.253,0,0,1,7.479-9.787c5.25-4.124,13-7.745,19.616-6.879A24.536,24.536,0,0,1,285.015,259c6.049,4.32,11.455,12.4,12.353,19.774a47.551,47.551,0,0,1-1.2,11.3c-.987,3.947-7.559,14.883-8.844,13.875-2.134-1.678.442-16.679-1.331-14.991" transform="translate(-245.349 -254.242)"/></g><g transform="translate(116.284 29.593)"><path d="M255.116,286.079a3.293,3.293,0,0,1,1.189.846,7.1,7.1,0,0,1,1.423,6.449,16.228,16.228,0,0,1-3.2,6.03,4.577,4.577,0,0,1-2.208,1.83,3.192,3.192,0,0,1-3.525-2.024C247.525,296.244,249.845,284.071,255.116,286.079Z" transform="translate(-248.452 -285.856)" fill="#ffcbcb"/></g><g transform="translate(118.088 31.076)"><g transform="translate(0)"><path d="M252.667,288.261a2.416,2.416,0,0,1,2.291,1.008,3.342,3.342,0,0,1,.416,1.828,6.819,6.819,0,0,1-1.449,4.3,4.939,4.939,0,0,1-4.056,1.844.357.357,0,0,0-.2.023.233.233,0,0,0-.03.34.611.611,0,0,0,.34.173,4.916,4.916,0,0,0,4.931-2.008,7.813,7.813,0,0,0,1.262-5.374,2.828,2.828,0,0,0-.563-1.632,4.987,4.987,0,0,0-1.777-1.28,3.689,3.689,0,0,0-3.29,1.424c-.181.212-.454.346-.523.628.444.271.849-.426,1.162-.658A3.129,3.129,0,0,1,252.667,288.261Z" transform="translate(-249.578 -287.442)" fill="#eaa9a9"/></g><g transform="translate(1.629 1.905)"><path d="M253.029,290.29a.434.434,0,0,0-.211.055.366.366,0,0,0-.134.26.889.889,0,0,0,.461.891c.187.1.444.167.47.375s-.233.347-.446.4a1.3,1.3,0,0,1-.679.025,1.176,1.176,0,0,1-.686-.942,1.521,1.521,0,0,1,.579-1.667,1.655,1.655,0,0,1,.491-.151,2.484,2.484,0,0,1,1.28.057.869.869,0,0,1,.52.427c.209.478-.217.631-.556.531-.1-.03-.191-.206-.312-.252A2.024,2.024,0,0,0,253.029,290.29Z" transform="translate(-251.761 -289.479)" fill="#eaa9a9"/></g><g transform="translate(0.24 5.215)"><path d="M254.2,293.325a.265.265,0,0,1,.014-.16.254.254,0,0,1,.181-.1,1.723,1.723,0,0,1,1.149.127,1.258,1.258,0,0,1,.679.909,1.852,1.852,0,0,1-.724,1.516,1.925,1.925,0,0,1-.973.556.859.859,0,0,1-.94-.468,1.106,1.106,0,0,1-.051-.418.223.223,0,0,1,.042-.152.28.28,0,0,1,.149-.062C254.518,294.883,254.262,293.879,254.2,293.325Z" transform="translate(-253.533 -293.018)" fill="#eaa9a9"/></g></g><g transform="translate(90.125 74.545)"><path d="M281.3,494.075c-8.724,3.313-18.315,3.016-27.6,2.392-13.617-.914-25.44.755-38.928-1.366-1.729-.272-5.255.2-5.53-1.57-1.938-12.44-2.9-28.429-3.936-40.245-1.292-14.689,1.94-29.763,3.016-44.47,1.018-13.924,6.44-27.059,11.791-39.9,0,0,5.606-10.984,10.119-20.64,3.663-7.837,6.358-14.794,6.723-14.334,2.894,3.656,5.132,4.131,7.282,7.533,11.192,17.7,20.3,37.821,19.854,58.9-.147,6.879-1.311,13.7-1.677,20.566C261.028,446.9,274.211,469.843,281.3,494.075Z" transform="translate(-205.004 -333.917)" fill="#003daa"/></g><g transform="translate(63.804 78.493)"><path d="M286.8,351.868c-2.292,1.376-4.78,2.782-5.977,5.172-1.125,2.249-.87,4.918-.5,7.407,2.29,15.6,7.817,30.569,10.226,46.147a117.985,117.985,0,0,1-7.849,63.513c-.992,2.352-2.061,5.068-.912,7.347a7.571,7.571,0,0,0,2.289,2.46c6.3,4.827,15.5,10.324,23.406,9.712a1.076,1.076,0,0,0,.972-1.2c-1-8.6,8.223-19.1,1.611-29.149-4.019-6.106-1.741-14.295-.813-21.545a173.866,173.866,0,0,0,1.138-20.418q.2-20.921-1.327-41.81c-.937-12.8-3.4-27.975-3.858-41.364C299.248,342.176,293.135,348.067,286.8,351.868Z" transform="translate(-280.012 -338.138)" fill="#003daa"/></g><g transform="translate(4.279 168.68)"><g transform="translate(0)"><g transform="translate(0 3.655)"><path d="M338.354,441.195a19.243,19.243,0,0,0-3.353.587,21.63,21.63,0,0,0-4.135,1.874c-3.276,1.772-6.788,3.8-8.187,7.252-.924,2.278-.767,4.832-.595,7.284.044.638.2,1.42.81,1.6a1.4,1.4,0,0,0,1.76-.65,23.271,23.271,0,0,0,1.082-4.648,13.624,13.624,0,0,0-.143,6.834,2.513,2.513,0,0,0,.657,1.34c1.136,1.01,2.163-.67,2.427-2.166a15.432,15.432,0,0,1,1.281-4.289l-.383,5.1a2.069,2.069,0,0,0,.27,1.5c.541.655,1.671.365,2.2-.3a7.759,7.759,0,0,0,.964-2.339,6.693,6.693,0,0,1,7.187-4.186,11.753,11.753,0,0,0-2.66,3.915c-1.5,2.781.939,3.372,2.018,3.522a27.02,27.02,0,0,1,4.42-3.656c3.783-2.133,7.338-2.478,7.966-3.106,2.179-2.178,8.517-5.411,11.594-5.261s6.211.715,9.2-.013a2.619,2.619,0,0,0,1.63-.921,2.833,2.833,0,0,0,.332-1.6,32.9,32.9,0,0,0-.969-7.886,3.606,3.606,0,0,0-.934-1.906,3.785,3.785,0,0,0-2.663-.6C359.6,438.779,348.837,440.055,338.354,441.195Z" transform="translate(-321.953 -438.469)" fill="#ffcbcb"/><g transform="translate(3.84 8.73)"><path d="M363.572,456.821a6.992,6.992,0,0,1,2.522-4.492s6.17-3.677,7.054-3.635c0,0,.707-.937-1.038-.89,0,0-4.52,2.366-6.508,3.67,0,0-1.894,1.085-2.845,4.765,0,0-1.1,7.347-3.35,6.069,0,0,.7,2.772,2.468.227C361.874,462.535,362.581,461.575,363.572,456.821Z" transform="translate(-359.406 -447.802)" fill="#eaa9a9"/></g><g transform="translate(0.941 5.888)"><path d="M364.961,457.637a21.362,21.362,0,0,1,1.416-7.068s2.144-2.682,9.54-5.033c0,0,1.21-.759-.208-.772,0,0-7.479,1.895-9.647,5.187a12.538,12.538,0,0,0-1.379,3.554s.079,6.649-2.013,6.7C362.671,460.2,364.782,461.108,364.961,457.637Z" transform="translate(-362.671 -444.764)" fill="#eaa9a9"/></g></g><g transform="translate(37.69)"><path d="M320.363,438.991c1.006.8,6.724,8.749,1.3,12.567.976,1.7,6.545,4.765,7.1,4.572,1.492-.519,5.956-1.076,6.982-2.276.561-.657.855-5.419.909-6.182a6.644,6.644,0,0,0-.778-3.05l-2.782-6.4c-.713-1.642-1.757-3.529-3.541-3.655a9.556,9.556,0,0,0-2.726.366c-2.788.983-8.858,1.464-10.369,3.907C317.73,438.6,319.047,437.95,320.363,438.991Z" transform="translate(-316.456 -434.561)" fill="#fff"/></g></g><g transform="translate(13.63 15.498)"><path d="M363.023,451.483a.2.2,0,0,0-.215-.335,45.176,45.176,0,0,0-5.382,2.429,15.651,15.651,0,0,0-4.348,4.157c2.019-1.535,3.817-.426,5.35-1.5C359.716,455.338,361.446,452.961,363.023,451.483Z" transform="translate(-353.077 -451.13)" fill="#eaa9a9"/></g></g><g transform="translate(101.591 75.882)"><path d="M256.185,352.8a17.11,17.11,0,0,1,5.485,3.746c2.952,3.437,2.714,8.467,2.756,13,.123,13.164,3.961,26.075,4.173,39.239.1,5.933-.546,11.882-.019,17.791.458,5.134,1.786,10.394.372,15.351-1.189,4.166-4.2,7.619-5.447,11.768-1.166,3.878-.952,8.6-4.045,11.209-2.527,2.136-6.226,1.906-9.516,1.55-14.2-1.537-28.44-3.262-42.194-7.1a8.382,8.382,0,0,1-4.346-2.247,8.045,8.045,0,0,1-1.463-4.029,60.277,60.277,0,0,1-.53-14.086,7.638,7.638,0,0,1,1.246-4.206c1.575-1.991,4.507-2.056,7.046-2.082a72.2,72.2,0,0,0,24.048-4.389c-1.272-14.5,1.9-29.426-1.757-43.52-1.31-5.054-3.467-9.844-5.1-14.8-2.436-7.421-3.675-15.172-4.9-22.885a50.067,50.067,0,0,1-.748-10.941c.252-3.011,8.383,3.193,10.424,4.227C239.676,344.442,247.791,349.652,256.185,352.8Z" transform="translate(-201.221 -335.347)" fill="#003daa"/></g><g transform="translate(90.009 81.643)"><path d="M269.6,364.509c-.3.367-.791.766-1.194.512a.949.949,0,0,1-.326-.48c-1.487-3.741-.5-11.346-2.693-14.72-.391-.6-3.1.532-4.783.242-1.04-.18-.6-.9-1.476-.788-1.312.173-1.613,7.767-3.064,10.38-.277-3.188-.833-3.75-.779-6.95a7.934,7.934,0,0,1,.716-3.769,2.879,2.879,0,0,1,3.227-1.528c.893.309,1.55,1.2,2.489,1.3,1.2.129,2.07-1.052,3.016-1.8a4.959,4.959,0,0,1,4.919-.668c1.426.605,2.659,1.911,4.206,1.819a4.988,4.988,0,0,0,2.2-.889c2.185-1.324,6.421-4.339,8.606-5.662-.58.351-5.643,11.084-7.151,12.367C273.209,357.535,272.883,360.522,269.6,364.509Z" transform="translate(-255.279 -341.506)" fill="#eee"/></g><g transform="translate(95.329 68.527)"><path d="M277.915,328.736a2.157,2.157,0,0,0-.561-1.142c-.769-.644-.217,1.686-.857,2.481a48.082,48.082,0,0,1-20.163,14.037c-1.411.506-3.754,2.525-3.8,4.133,1.949-.332,5.182-1.355,6.414.329a6.6,6.6,0,0,1,.931,3.059l.315,10.17a.874.874,0,0,0,1.577.4c1.4-1.947,4.256-7.267,4.875-8.044,2.026-2.541,4.131-5,6.116-7.585a57.459,57.459,0,0,0,5.243-7.88C280.041,334.9,279,332.827,277.915,328.736Z" transform="translate(-252.539 -327.483)" fill="#fff"/></g><g transform="translate(86.653 75.788)"><path d="M287.763,344.924c.876,1.166,1.982,2.367,1.92,3.825-.662-.847-2.117-.546-2.785.3a5.784,5.784,0,0,0-.9,3.049,54.943,54.943,0,0,1-1.461,7.928c-.088.334-.239.726-.58.786-.417.074-.7-.408-.829-.811a28.857,28.857,0,0,1-1.036-6.082l-1.019-10.43a4.784,4.784,0,0,1,.218-2.557,9.971,9.971,0,0,1,1.461-1.765c.863-1.056.659-2.238.9-3.82.038-.247.931.021,1.011.4.21.974.266,2.658.5,3.65A15.1,15.1,0,0,0,287.763,344.924Z" transform="translate(-281.006 -335.246)" fill="#fff"/></g><g transform="translate(94.481 91.147)"><path d="M281.579,351.667s-1.375,35.854-1.031,48.481C280.548,400.148,282.495,351.822,281.579,351.667Z" transform="translate(-280.493 -351.667)" fill="#eee"/></g><g transform="translate(96.518 96.104)"><ellipse cx="1.076" cy="1.076" rx="1.076" ry="1.076" transform="translate(0)" fill="#eee"/></g><g transform="translate(96.518 114.264)"><ellipse cx="1.076" cy="1.076" rx="1.076" ry="1.076" transform="translate(0)" fill="#eee"/></g><g transform="translate(11.149 248.642)" opacity="0.06"><path d="M312.244,520.07c1.57,9.027,7.4,13.95,14.1,17.535,11.763,6.294,25.123,8.841,37.579,13.619.722.277,1.524.646,1.762,1.381.485,1.495-1.651,2.407-3.222,2.391-5.09-.051-9.977-1.832-14.843-3.327a138.024,138.024,0,0,0-20.511-4.621c-9.157-1.341-19.315-1.514-26.721,4.034a20.474,20.474,0,0,0-8.04,14.811l-.124.881h-2.385s-.657-21.39,11.51-37.383C301.353,529.39,312.159,519.577,312.244,520.07Z" transform="translate(-289.837 -520.052)"/></g><g transform="translate(116.429 104.647)"><path d="M233.574,430.541q-.807-14.354-1.3-28.724c-.278-8.066-.471-16.242,1.38-24.1a47.268,47.268,0,0,1,4.418-11.619,88.172,88.172,0,0,0-4.476,26.276c-.061,3.614.1,7.229.264,10.84l1.249,27.772a2.949,2.949,0,0,0,.464,1.766,3.044,3.044,0,0,0,1.8.828,29.115,29.115,0,0,1,11.566,5.015,17.119,17.119,0,0,1,6.668,10.468c-3.008-1.863-3.242-6.216-5.589-8.864a11.73,11.73,0,0,0-3.554-2.507,40.339,40.339,0,0,0-12.2-3.929A25.9,25.9,0,0,1,245.81,443.79l-11.886-8.6a5.467,5.467,0,0,0-5.3-1.316q-4.578.724-9.157,1.448c-1.252.2-7.187,2.486-4.192.244C216.781,434.445,233.574,431.7,233.574,430.541Z" transform="translate(-214.445 -366.1)" fill="#003697"/></g><g transform="translate(93.856 76.043)"><path d="M279.848,350.859a.755.755,0,0,1,.117.471c-.053.262-.348.384-.6.465l-6.755,2.124a2.651,2.651,0,0,0-1.059.517c-.873.82-.263,2.334.655,3.1s2.121,1.27,2.707,2.315c.967,1.726-.255,3.821-1.446,5.4a309.8,309.8,0,0,1-24.283,28.458,23.821,23.821,0,0,0-3,4.143c-.6,1.035-.843,1.518-1.4,2.574a18.064,18.064,0,0,1-2.57,3.485c1.323-8.242,26.023-35.3,27.513-36.77,1.638-1.621,2.579-4.033,3.9-5.923-2.474-3.178-3.362-3.086-4.209-5.612a1.979,1.979,0,0,1-.081-1.388,2.088,2.088,0,0,1,.807-.826c2.741-1.877,4.592-2.263,7.848-2.93-1.464.3-5.923-13.251-6.236-14.809C271.394,333.9,279.1,349.356,279.848,350.859Z" transform="translate(-242.207 -335.518)" fill="#fff"/></g><g transform="translate(71.54 112.017)"><path d="M302.225,392.2c-.627,3.739-1.537,7.5-1.213,11.275.31,3.61,1.726,7.016,2.772,10.484a52.556,52.556,0,0,1,1.291,24.972c-.27-5.5.469-11.082-.585-16.489-1.6-8.2-6.067-15.273-4.433-23.466.67-3.359,1.352-7.057,1.946-10.429.718-4.068-.476-8.232-.294-12.358.11-2.471.962-2.766.782-1.4-.353,2.677.409,5.753.364,7.35A70.109,70.109,0,0,1,302.225,392.2Z" transform="translate(-299.704 -373.98)" fill="#003697"/></g><g transform="translate(51.249 171.311)"><g transform="translate(0)"><g transform="translate(0)"><path d="M284.51,437.474a21.683,21.683,0,0,0-3.841-.023,24.352,24.352,0,0,0-4.97,1.25c-3.993,1.309-8.3,2.855-10.551,6.405-1.484,2.345-1.824,5.212-2.127,7.97-.08.717-.066,1.616.577,1.944a1.574,1.574,0,0,0,2.086-.368,26.249,26.249,0,0,0,2.137-4.943,15.381,15.381,0,0,0-1.535,7.562,2.838,2.838,0,0,0,.459,1.62c1.058,1.351,2.537-.308,3.132-1.917a17.4,17.4,0,0,1,2.286-4.505l-1.453,5.591a2.34,2.34,0,0,0,0,1.715c.469.835,1.783.742,2.506.113a8.763,8.763,0,0,0,1.542-2.4,7.558,7.558,0,0,1,8.824-3.2,10.627,10.627,0,0,0-5.242,2.394c-2,1.779-2.845,6.291-1.677,6.675,1.047.585,2.021-1.7,2.764-2.641,1.84-2.333,5.242-2.606,8.207-2.42s11.273-2.45,12.713-3.447c2.858-1.981,6.691-1.741,10.079-.955s6.753,2.044,10.224,1.838a2.955,2.955,0,0,0,2-.694,3.2,3.2,0,0,0,.69-1.712,37.054,37.054,0,0,0,.512-8.953,4.062,4.062,0,0,0-.654-2.3,4.271,4.271,0,0,0-2.836-1.208C308.586,439.066,296.382,438.319,284.51,437.474Z" transform="translate(-262.986 -437.374)" fill="#ffcbcb"/><g transform="translate(8.685 15.229)"><path d="M303.374,454.431a10.506,10.506,0,0,1,1.716-.29,29.8,29.8,0,0,1,8.307-.339,8.443,8.443,0,0,1,4.124,1.264,36.4,36.4,0,0,0-12.8,2.885,14.645,14.645,0,0,1,5.133-2.747c-.807.238-2.1-.148-3.006,0a13.47,13.47,0,0,0-3.624,1.17c-.355.2-1.854,3.068-3.37,4.643-.824.856-1.518.658-1.573.3C298.161,460.525,302.737,454.732,303.374,454.431Z" transform="translate(-298.279 -453.656)" fill="#eaa9a9"/></g><g transform="translate(3.446 8.291)"><path d="M309.908,453.041s1.009-3.283,3.7-4.481c0,0,8.312-1.348,9.286-1.123,0,0,.974-.9-.974-1.2,0,0-6.215.224-8.686,1.273,0,0-2.321.824-4.119,4.719,0,0-2.7,7.938-4.942,6.066,0,0,.224,3.22,2.7.749C306.872,459.045,307.851,458.12,309.908,453.041Z" transform="translate(-304.177 -446.238)" fill="#eaa9a9"/></g><g transform="translate(0.611 3.124)"><path d="M310.971,452.845s.974-4.718,2.995-7.563c0,0,2.921-2.547,11.608-3.67,0,0,1.5-.6-.075-.9,0,0-8.687.6-11.758,3.819a14.156,14.156,0,0,0-2.247,3.669s-1.251,7.4-3.583,7.033C307.912,455.235,310.072,456.665,310.971,452.845Z" transform="translate(-307.912 -440.714)" fill="#eaa9a9"/></g></g><g transform="translate(21.936 14.532)"><path d="M285.652,457.055a22.645,22.645,0,0,1-12.705,2.256s9.024-1.069,14.486-4.037c0,0,5.105-4.512,15.2-1.069,0,0-1.565,1.465-2.979,1.207a14.158,14.158,0,0,0-9.133-.614S286.483,456.818,285.652,457.055Z" transform="translate(-272.947 -452.911)" fill="#eaa9a9"/></g><g transform="translate(48.642 1.963)"><path d="M261.166,442.48c.667,1.286,3.132,10.646-4.218,12.064.216,2.2,4.529,7.934,5.187,7.993,1.776.156,6.628,1.652,8.24.892.882-.415,3.391-5.182,3.8-5.942a7.51,7.51,0,0,0,.613-3.5l.1-7.874c.026-2.019-.173-4.446-1.952-5.4a5.416,5.416,0,0,0-2.138-.487c-3.324-.28-10.87-1.64-13.558.175C258.663,440.744,260.294,440.8,261.166,442.48Z" transform="translate(-256.948 -439.473)" fill="#fff"/></g></g><g transform="translate(50.884 15.995)"><g transform="translate(7.372)"><ellipse cx="1.076" cy="1.076" rx="1.076" ry="1.076" transform="translate(0)" fill="#eee"/></g><g transform="translate(0 0.053)"><path d="M266.576,461.158c-1.624-1.119-6.244-3.992-7.677-5.384a1.379,1.379,0,0,1-.409-.572.6.6,0,0,1,.21-.671c1.651,1.859,6.669,5.024,8.793,6.2,1.419.783,2.467,1.193,5.236-1.183.266.721-2.373,2.379-2.9,2.537A3.839,3.839,0,0,1,266.576,461.158Z" transform="translate(-258.463 -454.531)" fill="#eee"/></g></g></g><g transform="translate(0 193.913)"><g transform="translate(0 0.606)"><rect width="84.133" height="3.358" rx="1.679" fill="#00a2be"/></g><g transform="translate(3.62)"><g transform="translate(0)"><rect width="5.962" height="0.917" fill="#fff"/></g><g transform="translate(8.866)"><rect width="5.962" height="0.917" transform="translate(0)" fill="#fff"/></g><g transform="translate(17.733)"><rect width="5.962" height="0.917" transform="translate(0)" fill="#fff"/></g><g transform="translate(26.599)"><rect width="5.962" height="0.917" transform="translate(0)" fill="#fff"/></g><g transform="translate(35.465)"><rect width="5.962" height="0.917" transform="translate(0)" fill="#fff"/></g><g transform="translate(44.331)"><rect width="5.962" height="0.917" transform="translate(0)" fill="#fff"/></g><g transform="translate(53.198)"><rect width="5.962" height="0.917" transform="translate(0)" fill="#fff"/></g><g transform="translate(62.064)"><rect width="5.962" height="0.917" transform="translate(0)" fill="#fff"/></g><g transform="translate(70.93)"><rect width="5.962" height="0.917" transform="translate(0)" fill="#fff"/></g></g></g><g transform="translate(58.183 163.461)"><path d="M319.846,435.174a7.6,7.6,0,0,0-4.949-2.743c-1.9-.367-3.861-.4-5.729-.907-.95-.258-2.669-1.276-1.76-2.292.611-.683,3.913.224,4.668.432A13.889,13.889,0,0,1,319.846,435.174Z" transform="translate(-307.151 -428.981)" fill="#003697"/></g><g transform="translate(79.667 81.17)"><path d="M283.979,352.364a4.435,4.435,0,0,0-.44,1.981,4.091,4.091,0,0,0,.713,1.736,27.556,27.556,0,0,0,4.935,5.9c.257.233.543.516.51.862s-.35.56-.638.737L285.3,365.9a1.48,1.48,0,0,0-.76.8,1.452,1.452,0,0,0,.077.744c1.382,4.843,2.983,9.621,4.583,14.4l7.533,22.482a201.562,201.562,0,0,1-13.754-37.552,1.194,1.194,0,0,1,.618-1.668l4.146-2.678a22.725,22.725,0,0,1-4.808-5.876,5.861,5.861,0,0,1-.955-2.9,6.3,6.3,0,0,1,.607-2.282A41.614,41.614,0,0,1,288.418,341C287.032,344.819,285.462,348.582,283.979,352.364Z" transform="translate(-281.982 -341)" fill="#fff"/></g><g transform="translate(93.11 142.668)"><path d="M281.4,419.919a49.825,49.825,0,0,0,1.042,13.974l-.325-6.248c-.292-5.61-.577-11.313.507-16.791a24.818,24.818,0,0,0,.628-4.1C281.13,408,281.522,417.263,281.4,419.919Z" transform="translate(-281.312 -406.75)" fill="#003697"/></g><g transform="translate(141.728 237.833)" opacity="0.06"><path d="M221.879,515.8c-1.855-2.336-3.31-4.967-5.166-7.3.046,4.86,3.288,9.151,7.066,12.208a10.337,10.337,0,0,0,4.329,2.387c1.76.307,3.331-.54,1.581-2.113-.782-.7-2.826-.81-3.832-1.438A16.166,16.166,0,0,1,221.879,515.8Z" transform="translate(-216.713 -508.495)"/></g><g transform="translate(79.666 31.645)"><g transform="translate(0)"><path d="M296.175,288.226a5.035,5.035,0,0,0-2.949.083s-.744.248-.882.8c0,0-.044.531,1.011.318a3.7,3.7,0,0,1,3.14.032.562.562,0,0,0,.89-.292S297.659,288.644,296.175,288.226Z" transform="translate(-292.344 -288.051)" fill="#0d0b0f"/></g></g><g transform="translate(93.723 31.483)"><g transform="translate(0)"><path d="M277.365,287.877a10.376,10.376,0,0,1,3.781.766s1.165.577,1.054,1.132a2.342,2.342,0,0,1-1.937-.068,6.089,6.089,0,0,0-4.541-.06s-1.183-.065-1-.78C274.725,288.867,275.269,288,277.365,287.877Z" transform="translate(-274.705 -287.877)" fill="#0d0b0f"/></g></g><g transform="translate(95.404 37.328)"><g transform="translate(0)"><path d="M277.84,296.3a1.5,1.5,0,0,0,1.805,1.267,1.756,1.756,0,0,0,1.028-2.118,1.5,1.5,0,0,0-1.8-1.273A1.761,1.761,0,0,0,277.84,296.3Z" transform="translate(-277.788 -294.127)" fill="#0d0b0f"/></g></g><g transform="translate(81.53 37.588)"><g transform="translate(0)"><path d="M293.267,296.211c.124.821.743,1.356,1.381,1.2a1.543,1.543,0,0,0,.93-1.775c-.126-.824-.745-1.359-1.383-1.2A1.544,1.544,0,0,0,293.267,296.211Z" transform="translate(-293.245 -294.405)" fill="#0d0b0f"/></g></g><g transform="translate(83.885 35.025)"><g transform="translate(0)"><path d="M291.023,306.691a.67.67,0,0,0,.3-1.3,2.751,2.751,0,0,1-1.643-1.419c-.41-.807.39-1.635.4-1.643,3.95-4,2.653-9.9,2.6-10.145a.671.671,0,0,0-1.308.3c.013.054,1.183,5.438-2.24,8.9a2.762,2.762,0,0,0-.672,3.123h0a4.034,4.034,0,0,0,2.425,2.147A.609.609,0,0,0,291.023,306.691Z" transform="translate(-288.196 -291.665)" fill="#eaa9a9"/></g></g><g transform="translate(86.364 52.315)"><g transform="translate(0)"><g transform="translate(0)"><g transform="translate(0.156 0.346)"><path d="M280.584,311.379s7.167-.555,9.2-.86c0,0,.409,4.888-4.292,5.538C285.49,316.057,280.769,316.8,280.584,311.379Z" transform="translate(-280.584 -310.519)" fill="#eaa9a9"/></g><path d="M284.377,316.332h0a4.706,4.706,0,0,0,1.179-.007,5.053,5.053,0,0,0,4.365-5.622.607.607,0,0,0-.227-.423.6.6,0,0,0-.464-.123c-1.783.267-8.159.762-8.223.768a.6.6,0,0,0-.556.621C280.585,315.493,283.242,316.207,284.377,316.332Zm4.334-4.892a3.767,3.767,0,0,1-4.2,3.694,3.049,3.049,0,0,1-2.81-3.055C283.144,311.964,286.8,311.665,288.712,311.44Z" transform="translate(-280.451 -310.149)" fill="#eaa9a9"/></g></g></g></g></g><g transform="translate(2.314 272.499)"><g transform="translate(8.886 9.38)"><path d="M513.42,474.313l-30.242,89.454H468.836L500.326,474Z" transform="translate(-468.836 -474)" fill="#9be0e8"/></g><g transform="translate(39.84 10.597)" opacity="0.23"><path d="M482.492,475.3H469.24l9.274,11.272Z" transform="translate(-469.24 -475.301)" fill="#9be0e8"/></g><g transform="translate(377.241 9.38)"><path d="M75.012,474.313l30.242,89.454H119.6L88.106,474Z" transform="translate(-75.012 -474)" fill="#9be0e8"/></g><g transform="translate(0)"><g transform="translate(8.167 2.559)"><path d="M80.742,474.748H484.375a2.5,2.5,0,0,0,2.5-2.5l1.88-3.035c0-1.382-3-2.5-4.382-2.5H80.742c-1.382,0-4.382,1.12-4.382,2.5l1.879,3.035A2.5,2.5,0,0,0,80.742,474.748Z" transform="translate(-76.36 -466.707)" fill="#9be0e8"/></g><rect width="428.73" height="8.604" rx="2.663" fill="#9be0e8"/></g><g transform="translate(377.619 10.597)" opacity="0.23"><path d="M103.713,475.3h13.251l4.109,12.442Z" transform="translate(-103.713 -475.301)" fill="#9be0e8"/></g></g><g transform="translate(256.777 77.871)"><g transform="translate(0)"><g transform="translate(0)"><path d="M297.176,278.905l-2.085.327A25.369,25.369,0,0,0,278.1,258.9c-7.976-2.545-16.687-1.3-21.2,7.467-1.234.988-1.6,3.073-2.753,4.255,3.31-14.809,18.03-17.825,29.051-11.859A27.543,27.543,0,0,1,297.176,278.905Z" transform="translate(-254.147 -255.886)" fill="#fff"/></g></g><g transform="translate(14.6 43.296)"><g transform="translate(0)"><path d="M256,324.307q-1.173,0-2.41-.093l.107-1.4a25.665,25.665,0,0,0,27.459-20.636l1.388.229a27.3,27.3,0,0,1-8.327,14.882A26.2,26.2,0,0,1,256,324.307Z" transform="translate(-253.585 -302.176)" fill="#fff"/></g></g><g transform="translate(37.496 22.377)"><path d="M251.22,303.941c4.543-.072,8.14-5.532,8.035-12.195s-3.873-12.007-8.416-11.935S246.677,304.013,251.22,303.941Z" transform="translate(-247.617 -279.81)" fill="#00a2be"/></g><g transform="translate(8.077 62.036)"><ellipse cx="4.311" cy="2.487" rx="4.311" ry="2.487" transform="translate(0)" fill="#00a2be"/></g></g><g transform="matrix(0.899, 0.438, -0.438, 0.899, 359.821, 196.988)"><g transform="translate(0 0)"><path d="M12.305,5.27l2.982-3.765L18.273,5.27,21.26,1.505l2.987,3.764L27.238,1.5l2.625,3.3.733-.582L27.238,0,24.246,3.766,21.26,0,18.273,3.765,15.288,0,12.305,3.765,9.32,0,6.335,3.765,3.35,0,0,4.227l.733.581,2.617-3.3L6.335,5.27,9.32,1.505Z" fill="#00a2be"/></g></g><g transform="translate(430.112 127.103)"><g transform="translate(0)"><g transform="translate(21.473 21.027)"><path d="M76.93,336.98a1.091,1.091,0,1,0,1.492.395h0a1.089,1.089,0,0,0-1.49-.394Z" transform="translate(-76.388 -336.832)" fill="#9be0e8"/></g><g transform="translate(27.21 17.687)"><path d="M70.8,333.409a1.09,1.09,0,1,0,1.491.393A1.089,1.089,0,0,0,70.8,333.409Z" transform="translate(-70.256 -333.26)" fill="#9be0e8"/></g><g transform="translate(15.74 24.367)"><path d="M83.061,340.551a1.09,1.09,0,1,0,1.49.394h0a1.087,1.087,0,0,0-1.486-.4Z" transform="translate(-82.52 -340.402)" fill="#9be0e8"/></g><g transform="translate(18.041 15.136)"><path d="M80.6,330.682a1.09,1.09,0,1,0,1.491.393,1.09,1.09,0,0,0-1.491-.393Z" transform="translate(-80.06 -330.533)" fill="#9be0e8"/></g><g transform="translate(12.309 18.469)"><path d="M86.73,334.245a1.09,1.09,0,1,0,1.49.394h0a1.088,1.088,0,0,0-1.488-.395Z" transform="translate(-86.188 -334.096)" fill="#9be0e8"/></g><g transform="translate(14.607 9.234)"><path d="M84.271,324.371a1.09,1.09,0,1,0,1.491.394h0A1.09,1.09,0,0,0,84.271,324.371Z" transform="translate(-83.729 -324.222)" fill="#9be0e8"/></g><g transform="translate(8.875 12.574)"><path d="M90.4,327.943a1.09,1.09,0,1,0,1.491.394,1.089,1.089,0,0,0-1.491-.394Z" transform="translate(-89.86 -327.794)" fill="#9be0e8"/></g><g transform="translate(23.778 11.793)"><path d="M74.468,327.107a1.09,1.09,0,1,0,1.49.393,1.091,1.091,0,0,0-1.49-.393Z" transform="translate(-73.926 -326.958)" fill="#9be0e8"/></g><g transform="translate(20.343 5.896)"><path d="M78.14,320.8a1.09,1.09,0,1,0,1.491.395,1.09,1.09,0,0,0-1.491-.395Z" transform="translate(-77.598 -320.654)" fill="#9be0e8"/></g><g transform="translate(11.176 3.339)"><path d="M87.941,318.069a1.09,1.09,0,1,0,1.49.393,1.089,1.089,0,0,0-1.49-.393Z" transform="translate(-87.399 -317.92)" fill="#9be0e8"/></g><g transform="translate(5.439 6.677)"><path d="M94.074,321.637a1.09,1.09,0,1,0,1.49.394h0A1.091,1.091,0,0,0,94.074,321.637Z" transform="translate(-93.533 -321.489)" fill="#9be0e8"/></g><g transform="translate(10.301 27.535)"><path d="M88.878,343.937a1.09,1.09,0,1,0,1.489.394h0A1.089,1.089,0,0,0,88.878,343.937Z" transform="translate(-88.335 -343.789)" fill="#9be0e8"/></g><g transform="translate(6.868 21.639)"><path d="M92.546,337.634a1.09,1.09,0,1,0,1.491.393,1.091,1.091,0,0,0-1.491-.393Z" transform="translate(-92.005 -337.485)" fill="#9be0e8"/></g><g transform="translate(3.434 15.742)"><path d="M96.219,331.329a1.09,1.09,0,1,0,1.49.395,1.09,1.09,0,0,0-1.49-.395Z" transform="translate(-95.677 -331.181)" fill="#9be0e8"/></g><g transform="translate(0 9.845)"><path d="M99.888,325.026a1.09,1.09,0,1,0,1.492.394h0a1.088,1.088,0,0,0-1.488-.395Z" transform="translate(-99.346 -324.876)" fill="#9be0e8"/></g><g transform="translate(16.911)"><path d="M81.81,314.5a1.089,1.089,0,1,0,1.49.394h0A1.089,1.089,0,0,0,81.81,314.5Z" transform="translate(-81.268 -314.35)" fill="#9be0e8"/></g></g></g><g transform="matrix(0.985, 0.174, -0.174, 0.985, 343.903, 37.198)"><g transform="translate(2.467 14.444)"><g transform="translate(3.993 42.854)"><path d="M.9,0,.113,2.765A2.962,2.962,0,0,0,2.155,6.424h0a2.965,2.965,0,0,0,3.66-2.042L6.6,1.614Z" transform="translate(0 0)" fill="#9be0e8"/></g><g transform="translate(0 0)"><path d="M.594,11.318A15.557,15.557,0,1,0,19.806.594,15.556,15.556,0,0,0,.594,11.318Z" fill="#fff"/></g><g transform="translate(0.247 13.455)"><path d="M29.3,8.172c-1.063,4.795-5.529,6.818-8.25,9.04a27.921,27.921,0,0,0-5.251,6.9l-3.886-1.1-4.41-1.251-3.885-1.1a27.926,27.926,0,0,0-.847-8.627C1.618,8.71-1.116,4.634.5,0" transform="translate(0 0)" fill="#fff"/></g><g transform="translate(6.071 11.89)"><path d="M6.085,25.038a.469.469,0,0,0,.394-.215L17.6,7.5a.468.468,0,0,0-.46-.716l-5.9.846-1.3-4.1a.467.467,0,0,0-.653-.278L5.692,5.03,1.939.182A.468.468,0,0,0,1.1.444L0,22.452a.468.468,0,0,0,.934.047L1.972,1.754,5.187,5.906a.465.465,0,0,0,.577.133l3.444-1.7,1.258,3.955a.475.475,0,0,0,.513.322l5.284-.757L5.691,24.317a.469.469,0,0,0,.394.721Z" transform="translate(0 0)" fill="#00a2be"/></g><g transform="translate(1.901 32.233)"><path d="M2.057,0,.259,6.321a6.763,6.763,0,0,0,4.66,8.352h0a6.763,6.763,0,0,0,8.355-4.654l0-.006L15.066,3.7Z" transform="translate(0 0)" fill="#9be0e8"/></g><g transform="translate(1.23 40.311)"><path d="M13.143,4.532a.468.468,0,0,0,.127-.918L.6.017a.468.468,0,1,0-.255.9l12.674,3.6A.511.511,0,0,0,13.143,4.532Z" transform="translate(0 0)" fill="#fff"/></g><g transform="translate(2.045 37.431)"><path d="M13.145,4.531a.468.468,0,0,0,.126-.918L.6.018a.468.468,0,1,0-.255.9l12.676,3.6A.5.5,0,0,0,13.145,4.531Z" transform="translate(0 0)" fill="#fff"/></g><g transform="translate(2.863 34.55)"><path d="M13.143,4.532a.468.468,0,0,0,.127-.919L.6.017A.473.473,0,0,0,.018.339.468.468,0,0,0,.34.917l12.675,3.6A.511.511,0,0,0,13.143,4.532Z" transform="translate(0 0)" fill="#fff"/></g></g><g transform="matrix(0.966, 0.259, -0.259, 0.966, 4.423, 0)"><g transform="translate(0 10.528) rotate(-9)"><g transform="translate(0 0)"><path d="M2.532,3.93a.31.31,0,0,1-.1-.089L.057.491A.311.311,0,1,1,.564.131l2.377,3.35a.311.311,0,0,1-.409.449Z" fill="#9be0e8"/></g></g><g transform="translate(20.867 0) rotate(7)"><g transform="translate(0 0)"><path d="M.53,4.591A.378.378,0,0,1,.342,4.3L0,.412A.379.379,0,1,1,.756.346L1.1,4.231a.378.378,0,0,1-.566.361Z" fill="#9be0e8"/></g></g><g transform="translate(39.042 11.89) rotate(21)"><g transform="translate(0 0)"><path d="M.19,4.232.155,4.21a.379.379,0,0,1-.081-.53L2.664.153A.383.383,0,0,1,3.193.072.378.378,0,0,1,3.274.6L.684,4.128A.379.379,0,0,1,.19,4.232Z" fill="#9be0e8"/></g></g></g></g><g transform="translate(416.354 65.935)"><g transform="translate(0 30.593)"><g transform="translate(0)"><path d="M106.3,232.9l1.315,14.974,12.312-8.628L106.3,232.9m-.8-1.137,1.091.508,13.628,6.347,1.091.509-14.281,10.009-.106-1.2-1.317-14.976Z" transform="translate(-105.505 -231.765)" fill="#fff"/></g></g><g transform="translate(7.039)"><g transform="translate(0)"><path d="M107.519,201.417l3.869,5.4,2.507-7.276-6.376,1.873m-.547-.189.51-.15,6.377-1.872.511-.15-2.908,8.439-.31-.432-3.871-5.4Z" transform="translate(-106.972 -199.057)" fill="#fff"/></g></g></g><g transform="translate(364.263 125.571)"><g transform="translate(0 3.879)"><g transform="translate(0)"><rect width="8.69" height="0.935" fill="#9be0e8"/></g></g><g transform="translate(3.877)"><g transform="translate(0)"><rect width="0.935" height="8.69" fill="#9be0e8"/></g></g></g></g></g></g></svg>