<svg xmlns="http://www.w3.org/2000/svg" width="139" height="129" viewBox="0 0 139 129"><g transform="translate(-633.131 -1992.946)"><rect width="113.047" height="87.334" rx="5.139" transform="translate(653.729 2023.457)" fill="#9be0e8"/><path d="M5.139,0H107.908a5.139,5.139,0,0,1,5.139,5.139V82.195a5.14,5.14,0,0,1-5.14,5.14H5.139A5.139,5.139,0,0,1,0,82.2V5.139A5.139,5.139,0,0,1,5.139,0Z" transform="translate(646.108 2028.792)" fill="#fff"/><path d="M4.361,0h87.1a4.36,4.36,0,0,1,4.36,4.36V72.809a4.36,4.36,0,0,1-4.36,4.36H4.36A4.36,4.36,0,0,1,0,72.809V4.361A4.361,4.361,0,0,1,4.361,0Z" transform="translate(654.723 2036.998)" fill="#9be0e8"/><path d="M4.1,0H86.815a4.1,4.1,0,0,1,4.1,4.1V68.493a4.1,4.1,0,0,1-4.1,4.1H4.1a4.1,4.1,0,0,1-4.1-4.1V4.1A4.1,4.1,0,0,1,4.1,0Z" transform="translate(659.987 2041.571)" fill="#fff"/><g transform="translate(644.532 2027.216)"><path d="M763.745,2142H656.789a4.643,4.643,0,0,1-4.62-4.653v-81.179a4.643,4.643,0,0,1,4.62-4.654H763.745a4.642,4.642,0,0,1,4.62,4.654v81.179A4.642,4.642,0,0,1,763.745,2142Zm-106.957-87.335a1.5,1.5,0,0,0-1.492,1.5v81.179a1.5,1.5,0,0,0,1.492,1.5H763.745a1.5,1.5,0,0,0,1.492-1.5v-81.179a1.5,1.5,0,0,0-1.492-1.5Z" transform="translate(-652.168 -2051.515)" fill="#212121"/></g><g transform="translate(653.147 2035.423)"><path d="M761.369,2145.538H670.705a4.175,4.175,0,0,1-4.152-4.187V2069.4a4.175,4.175,0,0,1,4.152-4.187h90.664a4.175,4.175,0,0,1,4.152,4.187v71.946A4.175,4.175,0,0,1,761.369,2145.538Zm-90.664-77.169a1.033,1.033,0,0,0-1.028,1.036v71.946a1.033,1.033,0,0,0,1.028,1.037h90.664a1.033,1.033,0,0,0,1.027-1.037V2069.4a1.033,1.033,0,0,0-1.027-1.036Z" transform="translate(-666.553 -2065.218)" fill="#212121"/></g><g transform="translate(681.923 2005.773)"><path d="M721.02,2048.594a20.45,20.45,0,0,1-3.073-10.863,20.737,20.737,0,1,1,38.406,10.854h0c-2.146,3.672-8.755,11.656-8.755,16.666H729.732c0-5.009-6.563-12.984-8.712-16.656Z" transform="translate(-716.371 -2015.419)" fill="#fff"/><g transform="translate(20.39 1.575)"><path d="M752.256,2016.994a20.94,20.94,0,0,0-2.893.205,20.733,20.733,0,0,1,14.776,31.386c-2.148,3.672-8.756,11.656-8.756,16.666h5.788c0-5.009,6.608-12.993,8.756-16.666a20.739,20.739,0,0,0-17.671-31.591Z" transform="translate(-749.363 -2016.994)" fill="#9be0e8"/></g><path d="M755.159,2102.574l.324-5H737.63l.325,5Z" transform="translate(-724.267 -2047.741)" fill="#00a2be"/><path d="M738.421,2105.922a8.5,8.5,0,0,0,16.907,0Z" transform="translate(-724.584 -2051.089)" fill="#00a2be"/><path d="M746.542,2065.771H728.677a1.575,1.575,0,0,1-1.575-1.576c0-3.3-3.746-8.775-6.225-12.4-.922-1.349-1.717-2.512-2.272-3.459a22.312,22.312,0,1,1,38.034.021c-.541.928-1.352,2.109-2.291,3.478-2.482,3.617-6.231,9.082-6.231,12.361A1.575,1.575,0,0,1,746.542,2065.771Zm-16.443-3.151h15.02c.735-3.977,3.968-8.69,6.629-12.568.9-1.318,1.685-2.456,2.188-3.317a19.161,19.161,0,1,0-32.635-.026c.52.886,1.286,2.008,2.175,3.307C726.136,2053.906,729.367,2058.632,730.1,2062.621Z" transform="translate(-715.316 -2014.364)" fill="#212121"/><g transform="translate(11.788 48.26)"><path d="M754.1,2103.1H736.9a1.576,1.576,0,0,1-1.572-1.473l-.325-5a1.576,1.576,0,0,1,1.572-1.678h17.852a1.575,1.575,0,0,1,1.572,1.677l-.323,5A1.576,1.576,0,0,1,754.1,2103.1Zm-15.727-3.151h14.251l.119-1.847h-14.49Z" transform="translate(-735 -2094.946)" fill="#212121"/></g><g transform="translate(12.262 53.258)"><path d="M745.82,2114.1a10.076,10.076,0,0,1-10.018-9.037,1.578,1.578,0,0,1,1.564-1.768h16.907a1.576,1.576,0,0,1,1.563,1.768A10.075,10.075,0,0,1,745.82,2114.1Zm-6.464-7.654a6.89,6.89,0,0,0,12.927,0Z" transform="translate(-735.79 -2103.292)" fill="#212121"/></g><g transform="translate(8.766 10.159)"><path d="M0,0H27.092V27.092H0Z" fill="none"/><path d="M10.82,16.357,21.2,5.979l1.6,1.6L10.82,19.549,3.636,12.365l1.6-1.6Z" transform="translate(0.469 0.77)" fill="#00a2be"/><path d="M10.82,20.256,2.929,12.365l2.3-2.3,5.588,5.588L21.2,5.272l2.3,2.3ZM4.343,12.365l6.477,6.477L22.087,7.575l-.89-.889L10.82,17.064,5.232,11.476Z" transform="translate(0.469 0.77)" fill="#00a2be"/></g></g><path d="M704.485,2190.4a9.01,9.01,0,0,1-8.692-8.074H637.75c.625,7.566,3.73,13.518,10.959,13.518H760.26c7.227,0,10.334-5.952,10.958-13.518H713.173A9.007,9.007,0,0,1,704.485,2190.4Z" transform="translate(-1.853 -76.769)" fill="#00a2be"/><g transform="translate(633.131 2102.689)"><path d="M770.822,2177.931H710.337a1.275,1.275,0,0,0-1.231,1.316,6.332,6.332,0,1,1-12.635,0,1.275,1.275,0,0,0-1.23-1.316H634.756a1.276,1.276,0,0,0-1.231,1.316c0,9.632,4.475,17.469,13.476,17.469H758.578c9,0,13.475-7.837,13.475-17.469A1.275,1.275,0,0,0,770.822,2177.931Zm-12.244,16.151H647c-7.23,0-10.336-5.952-10.961-13.518H694.1a8.716,8.716,0,0,0,17.384,0h58.057C768.913,2188.13,765.807,2194.082,758.578,2194.082Z" transform="translate(-633.289 -2177.694)" fill="#212121"/><path d="M758.421,2196.793H646.842c-8.33,0-13.711-6.949-13.711-17.7a1.513,1.513,0,0,1,1.466-1.553h60.486a1.513,1.513,0,0,1,1.465,1.553,6.1,6.1,0,1,0,12.166,0,1.512,1.512,0,0,1,1.465-1.553h60.486a1.513,1.513,0,0,1,1.466,1.553C772.131,2189.844,766.75,2196.793,758.421,2196.793ZM634.6,2178.008a1.043,1.043,0,0,0-1,1.081c0,10.468,5.2,17.232,13.242,17.232H758.421c8.044,0,13.241-6.764,13.241-17.232a1.043,1.043,0,0,0-1-1.081H710.179a1.042,1.042,0,0,0-1,1.081,6.566,6.566,0,1,1-13.1,0,1.043,1.043,0,0,0-1-1.081Zm123.824,16.152H646.842c-6.487,0-10.464-4.877-11.2-13.734a.234.234,0,0,1,.234-.255h58.058a.236.236,0,0,1,.233.2,8.481,8.481,0,0,0,16.919,0,.235.235,0,0,1,.233-.2h58.058a.235.235,0,0,1,.173.075.24.24,0,0,1,.061.18C768.885,2189.282,764.909,2194.159,758.421,2194.159Zm-122.284-13.517c.545,6.013,2.86,13.045,10.706,13.045H758.421c7.846,0,10.161-7.032,10.7-13.045h-57.6a8.937,8.937,0,0,1-17.791,0Z" transform="translate(-633.131 -2177.536)" fill="#212121"/></g><rect width="34.767" height="3.541" transform="translate(663.983 2083.463)" fill="#9be0e8"/><rect width="34.767" height="3.541" transform="translate(663.983 2073.79)" fill="#9be0e8"/><rect width="66.192" height="3.541" transform="translate(663.879 2092.789)" fill="#9be0e8"/><g transform="translate(709.902 1992.946)"><path d="M763.2,2001.012a.914.914,0,0,1-.914-.915v-6.238a.914.914,0,0,1,1.828,0v6.238A.915.915,0,0,1,763.2,2001.012Z" transform="translate(-762.284 -1992.946)" fill="#00a2be"/><path d="M787.928,2012.278a.915.915,0,0,1-.646-1.562l4.411-4.409a.915.915,0,0,1,1.292,1.294l-4.41,4.408A.912.912,0,0,1,787.928,2012.278Z" transform="translate(-772.203 -1998.198)" fill="#00a2be"/><path d="M804.55,2039.818h-6.237a.914.914,0,0,1,0-1.828h6.237a.914.914,0,1,1,0,1.828Z" transform="translate(-776.369 -2011.014)" fill="#00a2be"/></g></g></svg>