<svg xmlns="http://www.w3.org/2000/svg" width="1920" height="533" viewBox="0 0 1920 533">
    <defs>
        <clipPath id="mcjc89090a">
            <path fill="#fff" stroke="#707070" d="M0 0H1920V533H0z" transform="translate(0 5201)"/>
        </clipPath>
    </defs>
    <g clip-path="url(#mcjc89090a)" transform="translate(0 -5201)">
        <g fill="none" stroke="#bdbdbd" stroke-dasharray="1 20" stroke-linecap="round" stroke-linejoin="round" stroke-width="8px" opacity="0.2">
            <path d="M355.289 1976.169c610.271 246.261 1332.985 881.451 2120.766-517.5" opacity="0.1" transform="translate(-146.261 3371.324) translate(-138.198)"/>
            <path d="M340.313 1995.368c630.687 248.969 1320.009 828.964 2125.82-504.3" opacity="0.128" transform="translate(-146.261 3371.324) translate(-133.88 -9.341)"/>
            <path d="M325.336 2014.566c651.1 251.677 1307.035 776.476 2130.874-491.108" opacity="0.156" transform="translate(-146.261 3371.324) translate(-129.561 -18.682)"/>
            <path d="M310.359 2033.764c671.522 254.385 1294.061 723.989 2135.928-477.913" opacity="0.184" transform="translate(-146.261 3371.324) translate(-125.242 -28.023)"/>
            <path d="M295.383 2052.962c691.939 257.092 1281.086 671.5 2140.981-464.718" opacity="0.213" transform="translate(-146.261 3371.324) translate(-120.923 -37.364)"/>
            <path d="M280.406 2072.16c712.355 259.8 1268.111 619.014 2146.035-451.524" opacity="0.241" transform="translate(-146.261 3371.324) translate(-116.605 -46.704)"/>
            <path d="M265.43 2091.359c732.772 262.507 1255.137 566.526 2151.089-438.33" opacity="0.269" transform="translate(-146.261 3371.324) translate(-112.286 -56.045)"/>
            <path d="M250.453 2110.556c753.189 265.216 1242.162 514.044 2156.147-425.134" opacity="0.297" transform="translate(-146.261 3371.324) translate(-107.967 -65.386)"/>
            <path d="M235.477 2129.755c773.606 267.923 1229.187 461.551 2161.2-411.94" opacity="0.325" transform="translate(-146.261 3371.324) translate(-103.649 -74.727)"/>
            <path d="M220.5 2148.953c794.023 270.631 1216.213 409.064 2166.25-398.746" opacity="0.353" transform="translate(-146.261 3371.324) translate(-99.33 -84.068)"/>
            <path d="M205.524 2168.151c814.44 273.338 1203.238 356.577 2171.3-385.552" opacity="0.381" transform="translate(-146.261 3371.324) translate(-95.011 -93.409)"/>
            <path d="M190.547 2187.349C1025.4 2463.4 1380.81 2491.438 2366.9 1814.993" opacity="0.409" transform="translate(-146.261 3371.324) translate(-90.693 -102.75)"/>
            <path d="M175.57 2206.548c855.274 278.754 1177.289 251.6 2181.411-359.162" opacity="0.438" transform="translate(-146.261 3371.324) translate(-86.374 -112.091)"/>
            <path d="M160.594 2225.745c875.69 281.462 1164.314 199.115 2186.465-345.967" opacity="0.466" transform="translate(-146.261 3371.324) translate(-82.055 -121.431)"/>
            <path d="M145.617 2244.944c896.108 284.169 1151.339 146.627 2191.519-332.773" opacity="0.494" transform="translate(-146.261 3371.324) translate(-77.736 -130.772)"/>
            <path d="M130.641 2264.142c916.524 286.877 1138.364 94.14 2196.572-319.578" opacity="0.522" transform="translate(-146.261 3371.324) translate(-73.418 -140.113)"/>
            <path d="M115.664 2283.34c936.942 289.585 1125.39 41.653 2201.626-306.384" opacity="0.55" transform="translate(-146.261 3371.324) translate(-69.099 -149.454)"/>
            <path d="M100.688 2302.538c957.358 292.293 1112.415-10.835 2206.679-293.189" opacity="0.578" transform="translate(-146.261 3371.324) translate(-64.781 -158.795)"/>
            <path d="M85.711 2321.736c977.775 295 1099.44-63.323 2211.733-279.994" opacity="0.606" transform="translate(-146.261 3371.324) translate(-60.462 -168.136)"/>
            <path d="M70.734 2340.935c998.193 297.708 1086.466-115.81 2216.787-266.8" opacity="0.634" transform="translate(-146.261 3371.324) translate(-56.143 -177.477)"/>
            <path d="M55.758 2360.132c1018.609 300.416 1073.491-168.3 2221.841-253.605" opacity="0.663" transform="translate(-146.261 3371.324) translate(-51.824 -186.817)"/>
            <path d="M40.781 2379.331c1039.026 303.124 1060.517-220.785 2226.9-240.411" opacity="0.691" transform="translate(-146.261 3371.324) translate(-47.506 -196.158)"/>
            <path d="M25.805 2397.465c1059.443 305.831 1047.541-273.272 2231.948-227.217" opacity="0.719" transform="translate(-146.261 3371.324) translate(-43.187 -204.435)"/>
            <path d="M10.828 2412.309c1079.86 308.54 1034.568-325.759 2237-214.021" opacity="0.747" transform="translate(-146.261 3371.324) translate(-38.868 -209.422)"/>
            <path d="M-4.148 2424.905c1100.276 311.247 1021.592-378.247 2242.056-200.827" opacity="0.775" transform="translate(-146.261 3371.324) translate(-34.55 -212.16)"/>
            <path d="M-19.125 2435.991c1120.693 313.955 1008.618-430.734 2247.11-187.632" opacity="0.803" transform="translate(-146.261 3371.324) translate(-30.231 -213.389)"/>
            <path d="M-34.1 2446.022c1141.11 316.662 995.643-483.222 2252.163-174.438" opacity="0.831" transform="translate(-146.261 3371.324) translate(-25.912 -213.563)"/>
            <path d="M-49.078 2455.291c1161.527 319.37 982.669-535.709 2257.217-161.242" opacity="0.859" transform="translate(-146.261 3371.324) translate(-21.594 -212.976)"/>
            <path d="M-64.055 2463.994c1181.945 322.077 969.694-588.2 2262.271-148.049" opacity="0.887" transform="translate(-146.261 3371.324) translate(-17.275 -211.821)"/>
            <path d="M-79.031 2472.266c1202.361 324.786 956.719-640.684 2267.324-134.854" opacity="0.916" transform="translate(-146.261 3371.324) translate(-12.956 -210.236)"/>
            <path d="M-94.008 2480.2c1222.778 327.5 943.745-693.167 2272.379-121.655" opacity="0.944" transform="translate(-146.261 3371.324) translate(-8.637 -208.316)"/>
            <path d="M-108.984 2487.877c1243.194 330.2 930.77-745.658 2277.432-108.465" opacity="0.972" transform="translate(-146.261 3371.324) translate(-4.319 -206.132)"/>
            <path d="M-123.961 2495.338c1263.612 332.909 917.8-798.146 2282.486-95.271" transform="translate(-146.261 3371.324) translate(0 -203.735)"/>
        </g>
    </g>
</svg>
