<svg xmlns="http://www.w3.org/2000/svg" width="30" height="30" viewBox="0 0 30 30">
    <g>
        <path fill="#212121" fill-rule="evenodd" d="M3.5 7.289a.717.717 0 0 0 .624.789h20.248A.721.721 0 0 0 25 7.289a.717.717 0 0 0-.624-.789H4.124a.721.721 0 0 0-.624.789zm0 7.887a.717.717 0 0 0 .624.789h20.248a.81.81 0 0 0 0-1.577H4.124a.721.721 0 0 0-.624.788zm8.652 7.887a.717.717 0 0 0 .624.789h11.6a.81.81 0 0 0 0-1.577h-11.6a.721.721 0 0 0-.624.787z" transform="translate(-16 -61) translate(17 61)"/>
    </g>
</svg>
