<svg xmlns="http://www.w3.org/2000/svg" xmlns:xlink="http://www.w3.org/1999/xlink" width="80" height="80" viewBox="0 0 80 80"><defs><clipPath id="a"><rect width="80" height="80" transform="translate(549 1878)" fill="#fff" stroke="#707070" stroke-width="1"/></clipPath></defs><g transform="translate(-549 -1878)" clip-path="url(#a)"><g transform="translate(527.946 1868.108)"><path d="M79.943,51.611a9.568,9.568,0,1,0-5.273,5.053h0A9.483,9.483,0,0,0,79.943,51.611Zm-6.335,2.328a6.617,6.617,0,1,1,3.657-3.5,6.573,6.573,0,0,1-3.657,3.5Z" transform="translate(5.889 3.277)" fill="#00a2be"/><path d="M91.094,77.63c.99.268,2.218-.723,1.8-1.8q-1.234-3.168-2.467-6.336c1.751-.054,3.4-.344,4.575-1.936a5.7,5.7,0,0,0,.96-3.509c.036-2.863,0-5.729,0-8.591V28.734c0-1.9.14-3.863-.021-5.761-.294-3.436-3.142-4.54-6.105-4.54H32.888c-2.485,0-5,.131-6.24,2.774-.861,1.832-.472,4.445-.472,6.4V63.518c0,3.124,1.4,5.832,4.916,5.989,2.57.113,5.17,0,7.742,0H63.55q-1.231,3.161-2.463,6.324c-.418,1.076.809,2.067,1.8,1.8l4.839-1.308q1.327,2.1,2.655,4.2a1.483,1.483,0,0,0,2.673-.35l3.937-10.11,3.937,10.11a1.484,1.484,0,0,0,2.673.35l2.655-4.2Zm1.942-13.023c-.212,2.159-2.107,1.987-3.745,1.977q-.9-2.325-1.809-4.647l.376-.006c1.49-.019,3.177-.038,4.035-1.377s.175-2.9-.432-4.268a7,7,0,0,1-.582-1.614,7.023,7.023,0,0,1,1.286-1.1c.289-.214.586-.436.871-.669v5.547C93.035,60.466,93.234,62.6,93.035,64.607ZM77.742,62.355a5.581,5.581,0,0,0-3.167,1.81,10.5,10.5,0,0,1-1.184.964,10.113,10.113,0,0,1-.565-1.441,5.548,5.548,0,0,0-1.853-3.117,3.648,3.648,0,0,0-2.012-.492,15.259,15.259,0,0,0-1.568.111,9.866,9.866,0,0,1-1.559.086,10.5,10.5,0,0,1,.379-1.444,5.637,5.637,0,0,0,.333-3.676,5.64,5.64,0,0,0-2.731-2.483,10.578,10.578,0,0,1-1.258-.808,10.084,10.084,0,0,1,1.209-.991,5.5,5.5,0,0,0,2.378-2.7,5.53,5.53,0,0,0-.742-3.549,10.253,10.253,0,0,1-.558-1.443,10.342,10.342,0,0,1,1.525-.091,5.583,5.583,0,0,0,3.557-.808,5.441,5.441,0,0,0,1.451-3.251,9.246,9.246,0,0,1,.427-1.575,9.3,9.3,0,0,1,1.378.872,5.44,5.44,0,0,0,3.267,1.413,5.588,5.588,0,0,0,3.168-1.81,10.171,10.171,0,0,1,1.184-.964,10.254,10.254,0,0,1,.564,1.441,5.552,5.552,0,0,0,1.853,3.117,5.509,5.509,0,0,0,3.578.38,10.044,10.044,0,0,1,1.562-.086,10.689,10.689,0,0,1-.38,1.445,5.637,5.637,0,0,0-.333,3.676,5.638,5.638,0,0,0,2.732,2.483,10.655,10.655,0,0,1,1.256.808,10.2,10.2,0,0,1-1.209.992,5.5,5.5,0,0,0-2.378,2.7,5.546,5.546,0,0,0,.742,3.55,10.252,10.252,0,0,1,.558,1.443,10.342,10.342,0,0,1-1.525.091,5.585,5.585,0,0,0-3.557.808,5.438,5.438,0,0,0-1.451,3.251,9.233,9.233,0,0,1-.427,1.573,9.122,9.122,0,0,1-1.377-.871A5.452,5.452,0,0,0,77.742,62.355ZM47.294,66.583H35.43c-1.959,0-5.94.783-6.33-1.891a37.166,37.166,0,0,1,0-5.2V25.1c0-1.742-.15-3.582,2.191-3.738,1.818-.121,3.685,0,5.5,0H84.4c2.034,0,4.085-.076,6.118,0,1.1.041,2.084.179,2.428,1.486a6.442,6.442,0,0,1,.087,1.655V47.631c-.383-.268-.8-.507-1.192-.738a6.879,6.879,0,0,1-1.467-.994,6.107,6.107,0,0,1,.393-1.763c.439-1.409.938-3.007-.056-4.223C89.689,38.662,87.99,38.839,86.49,39a7.015,7.015,0,0,1-1.692.059,7,7,0,0,1-.662-1.583c-.479-1.42-1.021-3.028-2.568-3.436s-2.795.721-3.9,1.716A7.164,7.164,0,0,1,76.3,36.819a7.038,7.038,0,0,1-1.421-.872c-1.176-.837-2.64-1.88-4.163-1.287s-1.9,2.352-2.2,3.765a7.233,7.233,0,0,1-.452,1.594,6.978,6.978,0,0,1-1.732.147c-1.49.019-3.177.038-4.035,1.377s-.175,2.9.432,4.268a7,7,0,0,1,.582,1.614,7.041,7.041,0,0,1-1.287,1.1c-1.211.9-2.584,1.916-2.491,3.529.09,1.568,1.537,2.408,2.815,3.148a6.982,6.982,0,0,1,1.467,1,6.116,6.116,0,0,1-.394,1.763c-.439,1.409-.938,3.006.056,4.223A3.114,3.114,0,0,0,66,63.21q-.657,1.685-1.314,3.373Zm24.04,9.979-1.689-2.671a1.511,1.511,0,0,0-.457-.467,1.34,1.34,0,0,0-1.195-.205l-3.092.837q2.15-5.521,4.3-11.042a.878.878,0,0,1,.191.028,7.027,7.027,0,0,1,.663,1.583c.478,1.42,1.02,3.028,2.568,3.436a2.505,2.505,0,0,0,.645.084,3.092,3.092,0,0,0,1.523-.455Q73.062,72.124,71.334,76.562Zm7.217-10.511,0-.006a1.527,1.527,0,0,0,.09-.359c.238.156.48.329.669.463,1.177.839,2.641,1.882,4.164,1.288A3.617,3.617,0,0,0,85.436,64.7q1.822,4.675,3.642,9.35l-3.093-.837a1.342,1.342,0,0,0-1.19.2,1.5,1.5,0,0,0-.462.47l-1.689,2.671Q80.6,71.307,78.551,66.051Z" transform="translate(0 0)" fill="#212121"/><path d="M43.025,27.858h31.66a1.463,1.463,0,0,0,0-2.924H43.025A1.463,1.463,0,0,0,43.025,27.858Z" transform="translate(2.57 1.076)" fill="#00a2be"/><path d="M55.845,32.033H36.38a1.463,1.463,0,0,0,0,2.924H55.845A1.463,1.463,0,0,0,55.845,32.033Z" transform="translate(1.47 2.251)" fill="#00a2be"/><path d="M55.845,38.227H36.38a1.464,1.464,0,0,0,0,2.926H55.845A1.464,1.464,0,0,0,55.845,38.227Z" transform="translate(1.47 3.277)" fill="#00a2be"/><path d="M55.845,44.423H36.38a1.462,1.462,0,0,0,0,2.923H55.845A1.462,1.462,0,0,0,55.845,44.423Z" transform="translate(1.47 4.302)" fill="#00a2be"/><path d="M55.845,50.617H36.38a1.463,1.463,0,0,0,0,2.924H55.845A1.463,1.463,0,0,0,55.845,50.617Z" transform="translate(1.47 5.328)" fill="#00a2be"/></g></g></svg>