<svg xmlns="http://www.w3.org/2000/svg" width="76" height="76" viewBox="0 0 76 76"><g transform="translate(-833 -2680)"><g transform="translate(397 -90)"><circle cx="38" cy="38" r="38" transform="translate(436 2770)" fill="#00a2be"/></g><g transform="translate(231.476 -16.959)"><path d="M192.532,493.287c0,8.689-6.669,15.733-14.894,15.733s-14.894-7.044-14.894-15.733,6.668-15.732,14.894-15.732S192.532,484.6,192.532,493.287Z" transform="translate(461.227 2237.89)" fill="#fff"/><path d="M177.638,476.555a15.115,15.115,0,0,1,6.205,1.323,15.823,15.823,0,0,1,5.052,3.6,17.364,17.364,0,0,1,0,23.623,15.823,15.823,0,0,1-5.052,3.6,15.211,15.211,0,0,1-12.411,0,15.822,15.822,0,0,1-5.053-3.6,17.365,17.365,0,0,1,0-23.623,15.823,15.823,0,0,1,5.053-3.6A15.118,15.118,0,0,1,177.638,476.555Zm0,31.465c7.661,0,13.894-6.609,13.894-14.733s-6.233-14.732-13.894-14.732-13.894,6.609-13.894,14.732S169.977,508.019,177.638,508.019Z" transform="translate(461.227 2237.89)"/><path d="M188.442,512.33v11.387a8.538,8.538,0,0,1-8.538,8.539h0a8.539,8.539,0,0,1-8.539-8.539V512.33Z" transform="translate(458.969 2230.514)" fill="#fff"/><path d="M171.364,511.33h17.078a1,1,0,0,1,1,1v11.387a9.539,9.539,0,0,1-19.078,0V512.33A1,1,0,0,1,171.364,511.33Zm16.078,2H172.364v10.387a7.539,7.539,0,0,0,15.078,0Z" transform="translate(458.969 2230.514)"/><path d="M3.617,6.424a1,1,0,0,1-.833-.445L-.832.555A1,1,0,0,1-.555-.832,1,1,0,0,1,.832-.555L4.448,4.87a1,1,0,0,1-.831,1.555Z" transform="translate(620.022 2714.891)"/><path d="M6.37,2.392a1,1,0,0,1-.214-.023L-.214.977A1,1,0,0,1-.977-.214,1,1,0,0,1,.214-.977L6.582.415A1,1,0,0,1,6.37,2.392Z" transform="translate(615.029 2724.829)"/><path d="M0,6.424a1,1,0,0,1-.554-.168A1,1,0,0,1-.832,4.87L2.784-.555A1,1,0,0,1,4.171-.832,1,1,0,0,1,4.448.555L.832,5.979A1,1,0,0,1,0,6.424Z" transform="translate(654.402 2714.891)"/><path d="M0,2.392a1,1,0,0,1-.976-.787A1,1,0,0,1-.214.415L6.155-.977a1,1,0,0,1,1.19.763A1,1,0,0,1,6.582.977L.214,2.369A1,1,0,0,1,0,2.392Z" transform="translate(656.641 2724.829)"/><path d="M181.6,504.676c-.051-2.716,2.6-4.643,5.022-4.988a26.114,26.114,0,0,1,5.273-.021,13.447,13.447,0,0,0-1.49,1.566c-.487.634-.94,1.294-1.453,1.908-.973,1.16-2.052,2.619-3.607,3a3.343,3.343,0,0,1-1.781-.047C183.152,505.966,181.605,505.169,181.6,504.676Z" transform="translate(457.072 2233.536)" fill="#00a2be"/><path d="M184.529,507.242a4.206,4.206,0,0,1-1.268-.191,7.127,7.127,0,0,1-1.366-.682c-.6-.377-1.285-.909-1.3-1.675-.06-3.22,2.943-5.577,5.881-5.995a17.135,17.135,0,0,1,2.427-.159c.852,0,1.642.047,2.406.093l.634.037a1,1,0,0,1,.588,1.765,12.608,12.608,0,0,0-1.339,1.409c-.167.217-.336.447-.5.669-.309.419-.629.852-.978,1.27-.091.108-.182.218-.274.33-.949,1.148-2.131,2.576-3.86,3A4.4,4.4,0,0,1,184.529,507.242Zm-1.927-2.819a5.52,5.52,0,0,0,1.263.721,2.207,2.207,0,0,0,.664.1,2.4,2.4,0,0,0,.575-.069,6.157,6.157,0,0,0,2.8-2.335c.1-.115.189-.229.282-.339.31-.37.6-.76.9-1.173.169-.229.344-.467.524-.7l.057-.073c-.25-.008-.5-.013-.761-.013a15.159,15.159,0,0,0-2.146.139C184.8,500.957,182.722,502.452,182.6,504.423Z" transform="translate(457.072 2233.536)"/><path d="M179.553,504.676c.05-2.716-2.6-4.643-5.023-4.988a26.114,26.114,0,0,0-5.273-.021,13.448,13.448,0,0,1,1.49,1.566c.486.634.94,1.294,1.453,1.908.973,1.16,2.052,2.619,3.607,3a3.343,3.343,0,0,0,1.781-.047C178,505.966,179.544,505.169,179.553,504.676Z" transform="translate(459.519 2233.536)" fill="#00a2be"/><path d="M176.621,507.242h0a4.4,4.4,0,0,1-1.054-.127c-1.729-.426-2.91-1.854-3.86-3-.092-.112-.183-.222-.273-.329-.351-.419-.67-.852-.979-1.271-.164-.222-.333-.452-.5-.67a12.61,12.61,0,0,0-1.338-1.407,1,1,0,0,1,.588-1.765l.634-.037c.764-.046,1.554-.093,2.406-.093a17.132,17.132,0,0,1,2.427.159c2.938.418,5.941,2.775,5.882,6-.014.766-.7,1.3-1.3,1.673a7.134,7.134,0,0,1-1.364.681A4.2,4.2,0,0,1,176.621,507.242Zm-5.138-6.69.056.071c.18.235.355.473.525.7.3.413.592.8.9,1.174.092.11.186.223.281.339a6.158,6.158,0,0,0,2.8,2.335,2.4,2.4,0,0,0,.575.069h0a2.2,2.2,0,0,0,.665-.1,5.523,5.523,0,0,0,1.263-.721c-.121-1.971-2.2-3.466-4.159-3.744a15.156,15.156,0,0,0-2.146-.139C171.987,500.539,171.733,500.544,171.483,500.552Z" transform="translate(459.519 2233.536)"/><path d="M0,5.575a1,1,0,0,1-1-1V0A1,1,0,0,1,0-1,1,1,0,0,1,1,0V4.575A1,1,0,0,1,0,5.575Z" transform="translate(638.868 2738.061)"/><path d="M22.67,1H0A1,1,0,0,1-1,0,1,1,0,0,1,0-1H22.67a1,1,0,0,1,1,1A1,1,0,0,1,22.67,1Z" transform="translate(627.767 2748.849)"/><path d="M22.67,1H0A1,1,0,0,1-1,0,1,1,0,0,1,0-1H22.67a1,1,0,0,1,1,1A1,1,0,0,1,22.67,1Z" transform="translate(627.767 2754.226)"/></g></g></svg>