<svg xmlns="http://www.w3.org/2000/svg" width="76" height="76" viewBox="0 0 76 76"><g transform="translate(-923 -2768)"><circle cx="38" cy="38" r="38" transform="translate(923 2768)" fill="#00a2be"/><g transform="translate(849.709 2571.932)"><g transform="translate(86.683 215.894)"><path d="M86.683,237.388A20.821,20.821,0,1,1,107.5,258.209,20.821,20.821,0,0,1,86.683,237.388Z" transform="translate(-86.683 -216.567)" fill="#fff"/><path d="M107.5,259.209A21.755,21.755,0,1,1,116,257.494,21.686,21.686,0,0,1,107.5,259.209Zm0-41.642a19.821,19.821,0,1,0,19.821,19.822A19.844,19.844,0,0,0,107.5,217.567Z" transform="translate(-86.683 -216.567)" fill="#212121"/><path d="M127.79,250.492a5.9,5.9,0,0,1,2.563-11.2,6.013,6.013,0,0,1,1.175.116A14.3,14.3,0,0,1,128.54,249.9Z" transform="translate(-90.946 -219.131)" fill="#9be0e8"/><path d="M91.439,250.492a5.9,5.9,0,0,0-2.564-11.2,6.027,6.027,0,0,0-1.175.116A14.3,14.3,0,0,0,90.69,249.9Z" transform="translate(-86.787 -219.131)" fill="#9be0e8"/><g transform="translate(8.012 22.694)"><path d="M109.5,254.365c9.949,0,11.765-10.389,11.765-10.389.134-2.751-1.883-1.582-1.883-1.582-3.295,2-10.555,1.927-10.555,1.927h-.672s-7.26.068-10.555-1.927c0,0-2.017-1.169-1.883,1.582,0,0,1.816,10.389,11.765,10.389Z" transform="translate(-95.714 -242.148)" fill="#fff"/><path d="M109.5,255.365h-2.017a11.976,11.976,0,0,1-10.451-5.647,16.4,16.4,0,0,1-2.3-5.569l-.011-.061,0-.062a2.993,2.993,0,0,1,.635-2.307,1.847,1.847,0,0,1,1.373-.57,2.963,2.963,0,0,1,1.375.382l.017.01c2.324,1.407,7.348,1.783,9.951,1.783h.845c2.6,0,7.627-.375,9.951-1.783l.016-.01a2.962,2.962,0,0,1,1.375-.382,1.847,1.847,0,0,1,1.373.57,2.993,2.993,0,0,1,.635,2.307l0,.062-.011.061a16.4,16.4,0,0,1-2.3,5.569A11.976,11.976,0,0,1,109.5,255.365Zm-12.787-11.5a14.724,14.724,0,0,0,2.028,4.818,9.929,9.929,0,0,0,8.741,4.687H109.5a9.934,9.934,0,0,0,8.777-4.741,14.588,14.588,0,0,0,1.993-4.762,2,2,0,0,0-.067-.709,1.137,1.137,0,0,0-.319.109c-3.262,1.961-9.708,2.061-10.969,2.061h-.845c-1.261,0-7.707-.1-10.969-2.061a1.138,1.138,0,0,0-.32-.109A2,2,0,0,0,96.716,243.86Z" transform="translate(-95.714 -242.148)" fill="#212121"/><path d="M108.788,249.832q-1.414,0-2.828-.112a36.6,36.6,0,0,1-9.581-2.089,1,1,0,0,1,.682-1.88,34.25,34.25,0,0,0,16.389,1.756,26.3,26.3,0,0,0,6.628-1.725,1,1,0,0,1,.834,1.818,27.945,27.945,0,0,1-7.184,1.888A35.521,35.521,0,0,1,108.788,249.832Z" transform="translate(-95.827 -242.66)" fill="#212121"/></g><path d="M121.176,237.5l-.071,0a1,1,0,0,1-.929-1.041.523.523,0,0,0-.649-.047,1,1,0,0,1-1.992-.173,2.339,2.339,0,0,1,4.638.334A1,1,0,0,1,121.176,237.5Z" transform="translate(-90.277 -218.683)" fill="#212121"/><path d="M99.085,237.5a1,1,0,0,1-1-.93,2.338,2.338,0,0,1,4.637-.334,1,1,0,0,1-1.992.173.451.451,0,0,0-.333-.089.445.445,0,0,0-.315.137,1,1,0,0,1-.929,1.042Z" transform="translate(-88.082 -218.683)" fill="#212121"/></g><path d="M107.957,213.022c5.891-5.07,12.805-1.618,15.1,5.2.98,3.536,3.479,3.844,5.09,4.414a.3.3,0,0,1,.036.2c-6.6,4.538-17.089,1.883-20.423-4.636h-.485c-3.333,6.52-13.825,9.174-20.423,4.636a.3.3,0,0,1,.036-.2c1.611-.57,4.11-.878,5.09-4.414,2.3-6.818,10.012-10.27,15.9-5.2" transform="translate(-0.019)" fill="#00a2be"/><path d="M94.558,226.1a16.207,16.207,0,0,1-2.2-.148,13.93,13.93,0,0,1-6.069-2.292,1,1,0,0,1-.422-.674,1.3,1.3,0,0,1,.157-.845,1,1,0,0,1,.534-.446c.223-.079.449-.149.689-.224,1.505-.469,3.062-.954,3.772-3.515q.007-.026.016-.052A12.954,12.954,0,0,1,94.2,212.81a11.256,11.256,0,0,1,4.875-2.851,9.982,9.982,0,0,1,8.845,1.806,9.455,9.455,0,0,1,8.358-1.846c3.476.952,6.365,3.936,7.73,7.983q.009.026.016.052c.71,2.561,2.266,3.046,3.771,3.515.24.075.466.145.689.224a1,1,0,0,1,.534.446,1.3,1.3,0,0,1,.157.845,1,1,0,0,1-.422.674,13.93,13.93,0,0,1-6.068,2.292,17.058,17.058,0,0,1-6.438-.382,16.408,16.408,0,0,1-5.5-2.519,12.76,12.76,0,0,1-3.225-3.29,12.756,12.756,0,0,1-3.225,3.29,16.407,16.407,0,0,1-5.5,2.52A17.354,17.354,0,0,1,94.558,226.1Zm-5.47-3.149a14.122,14.122,0,0,0,9.219.681,12.382,12.382,0,0,0,8.083-5.887,1,1,0,0,1,.89-.545h.485a1,1,0,0,1,.89.545,12.384,12.384,0,0,0,8.084,5.887,14.123,14.123,0,0,0,9.217-.681,6.19,6.19,0,0,1-3.851-4.433c-1.155-3.4-3.529-5.894-6.355-6.668a7.6,7.6,0,0,0-7.141,1.932,1.1,1.1,0,0,1-1.375,0,8.152,8.152,0,0,0-7.63-1.892,10.168,10.168,0,0,0-6.665,6.629A6.19,6.19,0,0,1,89.088,222.95Z" transform="translate(-0.019)" fill="#212121"/><path d="M136.281,253.081c5.1,0,4.64,5.672,4.64,5.672h.053s-.465-5.672,4.64-5.672v-.207c-5.1,0-4.64-5.67-4.64-5.67h-.053s.464,5.67-4.64,5.67Z" transform="translate(-5.597 -4.13)" fill="#fff"/><path d="M140.974,259.752h-.053a1,1,0,0,1-1-1.082,5.474,5.474,0,0,0-1.066-3.625,3.313,3.313,0,0,0-2.577-.965,1,1,0,0,1-1-1v-.207a1,1,0,0,1,1-1,3.313,3.313,0,0,0,2.577-.965,5.472,5.472,0,0,0,1.066-3.626,1,1,0,0,1,1-1.079h.053a1,1,0,0,1,1,1.082,5.47,5.47,0,0,0,1.065,3.622,3.313,3.313,0,0,0,2.578.966,1,1,0,0,1,1,1v.207a1,1,0,0,1-1,1,3.313,3.313,0,0,0-2.577.966,5.474,5.474,0,0,0-1.065,3.627,1,1,0,0,1-1,1.079Zm-1.472-6.775a4.8,4.8,0,0,1,.833.72,5.123,5.123,0,0,1,.612.818,5.123,5.123,0,0,1,.612-.818,4.8,4.8,0,0,1,.833-.72,4.8,4.8,0,0,1-.833-.721,5.122,5.122,0,0,1-.612-.817,5.126,5.126,0,0,1-.612.817A4.8,4.8,0,0,1,139.5,252.977Z" transform="translate(-5.597 -4.13)" fill="#212121"/></g></g></svg>