<svg xmlns="http://www.w3.org/2000/svg" width="76" height="76" viewBox="0 0 76 76"><g transform="translate(-1233 -2517)"><circle cx="38" cy="38" r="38" transform="translate(1233 2517)" fill="#00a2be"/><g transform="translate(292 340.963)"><path d="M305.317,809.615v28.464a3.869,3.869,0,0,1-3.806,3.929H269.123a3.869,3.869,0,0,1-3.806-3.929V805.688a3.868,3.868,0,0,1,3.806-3.928" transform="translate(694.683 1394.564)" fill="#fff"/><path d="M301.511,843.007H269.123a4.874,4.874,0,0,1-4.806-4.929V805.688a4.874,4.874,0,0,1,4.806-4.928,1,1,0,0,1,0,2,2.872,2.872,0,0,0-2.806,2.928v32.391a2.873,2.873,0,0,0,2.806,2.929h32.388a2.873,2.873,0,0,0,2.806-2.929V809.615a1,1,0,0,1,2,0v28.464A4.874,4.874,0,0,1,301.511,843.007Z" transform="translate(694.683 1394.564)"/><path d="M302.051,802.912c0,3.832,5.376,6.939,1.973,6.939H271.48c-3.4,0-6.163-3.107-6.163-6.939h0c0-3.834,2.76-6.941,6.163-6.941h32.544c3.4,0-1.973,3.107-1.973,6.941Z" transform="translate(694.683 1395.531)" fill="#fff"/><path d="M304.024,810.851H271.48c-3.95,0-7.163-3.562-7.163-7.939a8.358,8.358,0,0,1,2.058-5.573,6.785,6.785,0,0,1,5.105-2.369h32.544c.421,0,1.539,0,1.981.874a1.821,1.821,0,0,1-.177,1.7,12.564,12.564,0,0,1-.842,1.237c-.862,1.174-1.935,2.636-1.935,4.135s1.073,2.958,1.935,4.132a12.568,12.568,0,0,1,.842,1.237,1.822,1.822,0,0,1,.177,1.7C305.563,810.851,304.445,810.851,304.024,810.851Zm-32.544-13.88c-2.847,0-5.163,2.665-5.163,5.941s2.316,5.939,5.163,5.939h32.343c-.143-.206-.308-.431-.449-.623-.98-1.335-2.323-3.164-2.323-5.316s1.343-3.983,2.323-5.318c.141-.192.306-.417.448-.623Z" transform="translate(694.683 1395.531)"/><path d="M35.854,1H0A1,1,0,0,1-1,0,1,1,0,0,1,0-1H35.854a1,1,0,0,1,1,1A1,1,0,0,1,35.854,1Z" transform="translate(960.782 2196.323)"/><path d="M35.854,1H0A1,1,0,0,1-1,0,1,1,0,0,1,0-1H35.854a1,1,0,0,1,1,1A1,1,0,0,1,35.854,1Z" transform="translate(960.782 2200.696)"/><path d="M0,35.84a1,1,0,0,1-1-1V0A1,1,0,0,1,0-1,1,1,0,0,1,1,0V34.84A1,1,0,0,1,0,35.84Z" transform="translate(967.649 2201.73)"/><rect width="23.827" height="7.953" rx="3.976" transform="translate(969.504 2210.365)" fill="#00a2be"/><path d="M3.976-1H19.85a4.976,4.976,0,0,1,0,9.953H3.976A4.976,4.976,0,0,1,3.976-1ZM19.85,6.953A2.976,2.976,0,0,0,19.85,1H3.976a2.976,2.976,0,0,0,0,5.953Z" transform="translate(969.504 2210.365)"/></g></g></svg>