<svg xmlns="http://www.w3.org/2000/svg" width="76" height="76" viewBox="0 0 76 76"><g transform="translate(-436 -2681)"><g transform="translate(0 -89)"><circle cx="38" cy="38" r="38" transform="translate(436 2770)" fill="#00a2be"/></g><g transform="translate(450.678 2694.5)"><path d="M377.6,637.726l-5.588-5.589,4.976-6.924,7.535,7.535Z" transform="translate(-372.011 -595.081)" fill="#fff"/><path d="M377.6,638.726a1,1,0,0,1-.708-.293l-5.588-5.589a1,1,0,0,1-.1-1.291l4.976-6.924a1,1,0,0,1,1.519-.123l7.535,7.535a1,1,0,0,1-.123,1.519l-6.923,4.978A1,1,0,0,1,377.6,638.726Zm-4.28-6.7,4.386,4.388,5.277-3.795-5.87-5.871Z" transform="translate(-372.011 -595.081)" fill="#212121"/><path d="M384.489,632.352l-8.407-8.405,7.485-10.41,11.33,11.33Z" transform="translate(-372.708 -593.082)" fill="#fff"/><path d="M384.489,633.352a1,1,0,0,1-.707-.293l-8.407-8.405a1,1,0,0,1-.1-1.291l7.485-10.41a1,1,0,0,1,1.519-.123l11.33,11.33a1,1,0,0,1-.123,1.519l-10.408,7.485A1,1,0,0,1,384.489,633.352Zm-7.1-9.512,7.205,7.2,8.763-6.3-9.666-9.666Z" transform="translate(-372.708 -593.082)" fill="#212121"/><path d="M383.084,633.758l-8.408-8.406,7.486-10.409,11.33,11.33Z" transform="translate(-372.468 -593.323)" fill="#fff"/><path d="M383.084,634.758a1,1,0,0,1-.707-.293l-8.408-8.406a1,1,0,0,1-.1-1.291l7.486-10.409a1,1,0,0,1,1.519-.123l11.33,11.33a1,1,0,0,1-.123,1.519l-10.408,7.485A1,1,0,0,1,383.084,634.758Zm-7.1-9.512,7.206,7.2,8.763-6.3-9.666-9.666Z" transform="translate(-372.468 -593.323)" fill="#212121"/><path d="M414.549,603.471c2.174-2.523,1.095-7.343-2.53-10.968s-8.443-4.7-10.967-2.53l-.017-.017L377.92,613.074l13.53,13.53,23.116-23.116Z" transform="translate(-373.023 -588.857)" fill="#fff"/><path d="M404.365,587.857h0a12.466,12.466,0,0,1,8.361,3.939,13.563,13.563,0,0,1,3.707,6.381,6.717,6.717,0,0,1-.976,5.763,1,1,0,0,1-.185.255l-23.116,23.116a1,1,0,0,1-1.414,0l-13.53-13.53a1,1,0,0,1,0-1.414l23.116-23.116a1,1,0,0,1,.255-.185A6.033,6.033,0,0,1,404.365,587.857Zm9.341,15.076a1,1,0,0,1,.086-.115c1.819-2.111.707-6.421-2.479-9.608a10.455,10.455,0,0,0-6.947-3.354h0a4,4,0,0,0-2.659.875,1.01,1.01,0,0,1-.114.085l-22.257,22.257L391.45,625.19Z" transform="translate(-373.023 -588.857)" fill="#212121"/><g transform="translate(10.894 9.928)"><path d="M384.557,612.58a22.234,22.234,0,0,1,12.57,13.581l9-9.286c-.393-3.62-1.205-10.62-12-13.428Z" transform="translate(-384.557 -603.589)" fill="#00a2be"/><path d="M394.127,602.446a1,1,0,0,1,.252.032c4.918,1.279,8.45,3.582,10.5,6.846a16.872,16.872,0,0,1,2.246,7.442,1,1,0,0,1-.276.8l-9,9.286a1,1,0,0,1-1.67-.391,21.421,21.421,0,0,0-12.029-12.974,1,1,0,0,1-.279-1.635l9.57-9.133A1,1,0,0,1,394.127,602.446Zm10.954,14.07c-.4-3.486-1.425-9.346-10.672-11.957l-8.117,7.747a25.027,25.027,0,0,1,6.523,4.759,22.029,22.029,0,0,1,4.71,7.248Z" transform="translate(-384.557 -603.589)" fill="#212121"/></g><path d="M415.554,641.3a1,1,0,0,1-.251-.032l-8.838-2.283-8.838,2.283a1,1,0,1,1-.5-1.936l8.338-2.154V620.3a1,1,0,0,1,2,0v16.872l8.338,2.154a1,1,0,0,1-.249,1.968Z" transform="translate(-376.354 -594.24)" fill="#212121"/></g></g></svg>