<svg xmlns="http://www.w3.org/2000/svg" xmlns:xlink="http://www.w3.org/1999/xlink" width="624" height="274" viewBox="0 0 624 274"><defs><clipPath id="a"><rect width="624" height="274" transform="translate(996 4053)" fill="#fff" stroke="#707070" stroke-width="1"/></clipPath><clipPath id="b"><path d="M790.795,276.384c-.545-3.1-.127-6.593-2.985-8.557-5.978,6.42-21.314.87-21.314.87-3.025-.5-2.6,19.98-1.444,30.221a19.191,19.191,0,0,1-.323,6.742c-.387,2.011-1,2.938.317,5.015-2.364.376-1.923,2.886-1.414,4.622-5.178,1.823-6.507,8.963-8.462,10.59-3.061,2.546-.849,11.132-.348,15.07,1.46,11.492,5.428,23.625,13.945,33.386,6.395-6.685,15.221-23.7,19.131-33.37,4.584-11.337,3.995-23.739,4.574-35.689A159.359,159.359,0,0,0,790.795,276.384Z" transform="translate(-753.582 -267.827)" fill="#e0e0e0"/></clipPath><clipPath id="c"><path d="M594.785,278.079c.545-3.1,2.969-16.508,5.827-18.471,5.978,6.421,23.279,5.609,23.279,5.609,3.024-.5-1.087,15.614-2.245,25.856-.328,2.9-1.271,5.678-.833,7.952.387,2.011-.529,1.328-1.842,3.406,2.364.376,1.924,2.886,1.414,4.622,5.178,1.823,9.852,14.226,11.808,15.852,3.061,2.546.849,11.132.348,15.07-1.461,11.492-1.743,26.187-10.261,35.948-5.092-1.907-18.906-26.261-22.816-35.931a95.827,95.827,0,0,1-7.539-33.1C591.542,296.969,593.417,285.865,594.785,278.079Z" transform="translate(-591.874 -259.608)" fill="#e0e0e0"/></clipPath><clipPath id="d"><path d="M667.862,365.748c-3.9-3.71-12.08-3.984-17.247-4.913-1.606,4.741-4.452,9.262-6.251,14.052-6.289,16.74-4.956,45.733-3.857,63.558,1.684,27.3,2.6,34.222,6.038,69.847h72.306s3.41-26.279,6.024-60.629c1.765-23.183,10.461-63.668-11.083-88.7L698.618,366.7l-10.256-2.067-2.254,8.556-3.7-8.28Z" transform="translate(-639.579 -358.967)" fill="#e0e0e0"/></clipPath><clipPath id="e"><rect width="9.126" height="9.955" transform="translate(2.358) rotate(13.703)" fill="none"/></clipPath><clipPath id="f"><path d="M688.2,447.064c-.679-.087-2.839.316-3.126.736-1,1.471-.652,4.129-.966,5.879-.481,2.68-.556,3.371-1.063,6.9l6.993,1.705s.95-2.462,2.012-5.722c.717-2.2,3.709-5.9,2.291-7.18a14.4,14.4,0,0,0-2.283-1.4l-.638.126-.943-.442-.42.775-.162-.888Z" transform="translate(-683.047 -447.052)" fill="none"/></clipPath><clipPath id="g"><path d="M513.887,374.157c-.236-2.611-4.64-38.068-5.832-46.388.1-.037.2-.079.338-.134,1.228-.5.732-2.538.97-3.864.107-.6.163-3.17-.44-3.764-.887-.873-1.468-.963-3.941-.987-1.633-.016-4.61-.282-5.121,1.966a8.088,8.088,0,0,0,.155,3.021c.142.75.053,2.5.466,2.934a2.852,2.852,0,0,0,.62.448c-1.326,9.742-3.162,45.154-2.99,46.767.32,3.017,5.121,11.113,8.48,14.2C508.715,386.186,514.1,376.466,513.887,374.157Z" transform="translate(-498.101 -319.004)" fill="#fff"/></clipPath><clipPath id="h"><path d="M540.4,357.7c-1.681-4.532-3.3-9.152-5.368-13.527-1.891-4-3.769-8.421-7.623-10.934-4.977-3.246-11.875-2.881-17.512-4.073-9.612-2.033-19.048-5.752-26.863-11.778-.724-.558-.97-.459-.97-.459.867,5.022,1.528,5.116,1.853,12.242.922,20.238-20.119,56.559-20.119,56.559s-25.256-35.286-24.427-54.366a56.773,56.773,0,0,1,1.621-12.232s-.6-.267-1.684,2.259c-1.573,3.663-7.336,9.87-12.877,15.072-12.232,11.483-32.753,22.158-36.246,28.663,0,0-7.467,11.276-8.078,47.263-.241,14.159-1.4,25.633,1.455,80.787h21.324l6.162-52.664,10.131,52.664h92.291c5.052-21.79,10.6-49.464,13.214-64.945Z" transform="translate(-381.667 -316.924)" fill="none"/></clipPath><clipPath id="i"><rect width="9.126" height="9.955" fill="none"/></clipPath><clipPath id="j"><path d="M511.631,439.225c-.022-.247-.44-3.608-.553-4.4l.032-.013c.116-.047.069-.24.092-.366.01-.057.015-.3-.041-.357-.084-.083-.14-.091-.374-.094-.155,0-.437-.026-.485.187a.768.768,0,0,0,.015.287c.013.071.005.236.045.278a.251.251,0,0,0,.059.043c-.125.923-.3,4.28-.284,4.432a3.393,3.393,0,0,0,.8,1.347A3.813,3.813,0,0,0,511.631,439.225Z" transform="translate(-510.135 -433.998)" fill="none"/></clipPath><clipPath id="k"><rect width="9.466" height="10.326" transform="translate(0 2.306) rotate(-14.099)" fill="none"/></clipPath></defs><g transform="translate(-996 -4053)" clip-path="url(#a)"><g transform="translate(-30)"><g transform="translate(930.561 3889.57)"><g transform="translate(447.429 163.321)"><g transform="translate(106.936 2.78)"><path d="M767.726,242.431c-1.878-8.806,1.449-44.2,1.449-44.2a66.567,66.567,0,0,1-6.442-7.7c-2.575-4.106-4.823-4.563-.787-11.329-1.339-7.467-1.774-9.194,5.091-10.7,3.635-.8,16.457-1.449,17.208.285,2.649,6.122,2.779,9.723,2.223,15.22-.387,3.831-1.8,11.54-1.8,11.54,2.961,26.209,7.153,31.909,6.523,45.255-.45,9.515-3.834,12.542-9.661,13.317C776.5,254.784,768.712,247.059,767.726,242.431Z" transform="translate(-759.738 -167.685)" fill="#fcc"/><path d="M782.591,177.989a.505.505,0,0,0-.585.075,11.76,11.76,0,0,0-1.663,1.571.636.636,0,1,0,1,.775c.141-.189.9-1.51,1.162-1.484.8.078.819,2.194.807,2.769-.036,1.776-2.8,2.725-4.278,1.7a.915.915,0,0,0-.278-.259c-.773-.9-.873-2.885-1.033-3.924-.338-2.2-.3-4.389-.422-6.6-.027-.477-.812-.654-.889-.12-.346,2.368-.84,8.345,1.11,11.1-.478.659-1.708.792-2.4.924l-.867.168a2.931,2.931,0,0,0,.11-2.855,2.29,2.29,0,0,0-1.645-.838,21.729,21.729,0,0,0-.224-2.267,19.144,19.144,0,0,1,.355-5.684.5.5,0,0,0-.964-.266,21.049,21.049,0,0,0-.543,5.749,15.568,15.568,0,0,0,.04,2.381c-.442,0-.863,0-1.206-.027-.617-.05-1.228-.107-1.839-.155.036-.666-.08-1.416-.08-2,0-1.846.089-3.687.116-5.531.008-.522-.859-.671-.938-.127a40.172,40.172,0,0,0-.294,5.445c0,.607-.118,1.414-.069,2.126a18.151,18.151,0,0,0-2.812.056.6.6,0,0,0,0,1.189c1.983.092,3.938.161,5.917.316,1.388.108,3.64-.1,2.533,2.11a3.849,3.849,0,0,1-3.868,1.888.653.653,0,0,0-.5,1.187c1.022.782,2.637.306,3.8-.366,1.843.231,4.285-.052,4.334,2.349.047,2.254-1.21,4.015-1.921,6.035-.167.475.469,1,.894.687,1.862-1.381,2.83-5.3,2.363-7.489-.494-2.327-2.528-2.426-4.478-2.518.057-.063.113-.127.169-.2a14.993,14.993,0,0,0,2.487-.244,5.3,5.3,0,0,0,2.712-.978,3.228,3.228,0,0,0,1.619.366c1.644-.036,3.747-.449,4.088-2.268C784.74,181,784.228,178.883,782.591,177.989Z" transform="translate(-761.173 -169.309)" fill="#eaa9a9"/></g><path d="M790.795,276.384c-.545-3.1-.127-6.593-2.985-8.557-5.978,6.42-21.314.87-21.314.87-3.025-.5-2.6,19.98-1.444,30.221a19.191,19.191,0,0,1-.323,6.742c-.387,2.011-1,2.938.317,5.015-2.364.376-1.923,2.886-1.414,4.622-5.178,1.823-6.507,8.963-8.462,10.59-3.061,2.546-.849,11.132-.348,15.07,1.46,11.492,5.428,23.625,13.945,33.386,6.395-6.685,15.221-23.7,19.131-33.37,4.584-11.337,3.995-23.739,4.574-35.689A159.359,159.359,0,0,0,790.795,276.384Z" transform="translate(-650.567 -201.252)" fill="#fff"/><g transform="translate(103.015 66.575)"><g clip-path="url(#b)"><g transform="translate(-4.782 2.81)"><path d="M763.175,282.458c-.846,3.071-.312,6.191-.011,9.308.345,3.567.233,7.141.7,10.7.674,5.11,1.828,9.184-.118,14.174a6.8,6.8,0,0,0,.025,6.023l.513-.893c-3.784-.234-5.258,4.677-6.481,7.418-2.739,6.135-8.346,10.453-11.646,16.271a.6.6,0,0,0,1.031.6c3.008-5,7.385-8.965,10.423-13.924,1.536-2.509,3-9.408,6.673-9.18a.6.6,0,0,0,.513-.894c-1.535-3.464,1.035-6.148,1.368-9.489.34-3.4-.749-6.91-1.186-10.254s-.362-6.7-.681-10.044c-.3-3.171-.975-6.408-.129-9.547a.517.517,0,0,0-1-.275Z" transform="translate(-746.076 -275.815)" fill="#e0e0e0"/><path d="M770.121,288.032a126.383,126.383,0,0,0,1.242,19.108c.578,3.9,1.368,8.392.27,12.285-.319,1.131-.975,2.136-1.2,3.3a18.8,18.8,0,0,0,.039,3.643c-.022,3.669-2.748,5.751-4.872,8.362a53.21,53.21,0,0,0-4.717,6.979,96.439,96.439,0,0,0-7.114,15.318c-.2.559.729.961.969.409,2.553-5.867,4.856-11.826,8.264-17.272a65.843,65.843,0,0,1,6.108-7.865,9.058,9.058,0,0,0,2.5-4.681c.162-1.194-.232-2.365-.157-3.553.126-1.965,1.139-3.62,1.511-5.515a29.082,29.082,0,0,0-.177-9.061,177.828,177.828,0,0,1-1.732-21.463.47.47,0,0,0-.939,0Z" transform="translate(-748.858 -277.806)" fill="#e0e0e0"/><path d="M776.374,287.187c-1.807,5.128-.01,11,.388,16.247a83.9,83.9,0,0,1-1.5,23.2c-.678,3.393-.949,6.938-2.016,10.24-1.254,3.881-3.461,7.62-5.381,11.2-3.718,6.934-8.057,13.458-12.029,20.237-.42.715.628,1.292,1.094.639A176.965,176.965,0,0,0,769,348.735a102.935,102.935,0,0,0,4.74-9.765c1.39-3.491,1.605-7.166,2.255-10.827,1.254-7.076,2.318-13.6,2.028-20.838-.248-6.19-2.66-13.852-.74-19.868.186-.584-.711-.819-.911-.251Z" transform="translate(-749.584 -277.546)" fill="#e0e0e0"/><path d="M782.856,284.049c-.148,17.128,1.619,34.1-1.012,51.16a61.744,61.744,0,0,1-7.729,22.691c-3.931,6.525-9.282,12.158-12.95,18.83a.7.7,0,0,0,1.2.7c4.588-6.5,9.514-13.005,13.458-19.917a63.57,63.57,0,0,0,7.239-21.969c2.658-17.2,1.1-34.217.8-51.5a.5.5,0,0,0-1,0Z" transform="translate(-751.516 -276.35)" fill="#e0e0e0"/><path d="M791.36,272.76c1.331,17.237,3.219,34.954.478,52.142-1.43,8.962-3.524,17.939-7.19,26.27-3.591,8.161-8.817,15.434-13.252,23.133a.664.664,0,0,0,1.146.67c4.829-7.717,10.16-15.092,13.8-23.485a108.121,108.121,0,0,0,7.136-26.133c2.786-17.469.817-35.142-1.033-52.6-.073-.685-1.143-.706-1.089,0Z" transform="translate(-755.231 -272.238)" fill="#e0e0e0"/></g></g></g><g transform="translate(7.308)"><path d="M626.536,239.028c2.968-8.5,4.109-44.032,4.109-44.032a66.6,66.6,0,0,0,7.358-6.83c3.069-3.751,5.357-3.922,2.2-11.141,2.265-7.24,2.914-8.9-3.707-11.26-3.506-1.25-16.145-3.5-17.107-1.876-3.4,5.74-3.977,9.3-4.117,14.82-.1,3.85.336,11.675.336,11.675-6.228,25.629-11.1,30.759-12.151,44.078-.749,9.5,2.23,12.924,7.913,14.425C616.279,250.182,624.976,243.5,626.536,239.028Z" transform="translate(-603.346 -163.321)" fill="#fcc"/><path d="M648.414,178.742a19.484,19.484,0,0,0-2.886-.422c.106-.591.106-1.242.17-1.768a41.036,41.036,0,0,0,.444-5.724.478.478,0,0,0-.956,0c-.2,1.837-.347,3.678-.58,5.512-.073.573-.263,1.257-.313,1.9-.627-.031-1.257-.054-1.89-.081-.334-.015-.743-.072-1.179-.123a15.338,15.338,0,0,0,.364-2.483,20.944,20.944,0,0,0,.157-5.707c-.076-.552-1.049-.427-.982.133a19.435,19.435,0,0,1-.377,5.871,21.491,21.491,0,0,0-.477,2.1,2.192,2.192,0,0,0-1.8.7,2.865,2.865,0,0,0-.292,2.735l-.643-.208c-.644-.207-2.046-.519-2.376-1.247a6.611,6.611,0,0,0,.979-1.94,25.448,25.448,0,0,0,1.528-8.875c-.012-.489-.791-.641-.889-.12-.554,2.949-.639,6.849-2.251,9.513-1.166,1.925-4.684,1.272-4.882-.947a2.47,2.47,0,0,1,.872-2.26c.825-.458.874.32,1.3,1.065.406.719,1.555.042,1.1-.645a12.549,12.549,0,0,0-1.538-1.882.477.477,0,0,0-.47-.124c-1.75.667-2.367,2.437-2.446,4.2-.09,2.011,1.735,2.683,3.487,3.027a3.678,3.678,0,0,0,1.918-.059,5.733,5.733,0,0,0,2.654,1.305,14.2,14.2,0,0,0,2.33.519c.048.07.1.14.15.209-1.935-.154-3.974-.28-4.736,1.919-.707,2.041-.326,6.171,1.338,7.7a.613.613,0,0,0,1.017-.592c-.412-2.018-1.331-3.7-1.161-5.862.209-2.663,2.633-2.049,4.582-2.07,1.187.991,2.669,1.477,3.835.8a.655.655,0,0,0-.327-1.211,4.014,4.014,0,0,1-3.519-1.921c-.57-1.085-.719-2.139.55-2.337a7.569,7.569,0,0,1,1.554.1c2.169.138,4.315.283,6.483.463C648.926,179.965,649.062,178.893,648.414,178.742Z" transform="translate(-612.331 -165.265)" fill="#eaa9a9"/></g><g transform="translate(0 61.339)"><path d="M594.785,278.079c.545-3.1,2.969-16.508,5.827-18.471,5.978,6.421,23.279,5.609,23.279,5.609,3.024-.5-1.087,15.614-2.245,25.856-.328,2.9-1.271,5.678-.833,7.952.387,2.011-.529,1.328-1.842,3.406,2.364.376,1.924,2.886,1.414,4.622,5.178,1.823,9.852,14.226,11.808,15.852,3.061,2.546.849,11.132.348,15.07-1.461,11.492-1.743,26.187-10.261,35.948-5.092-1.907-18.906-26.261-22.816-35.931a95.827,95.827,0,0,1-7.539-33.1C591.542,296.969,593.417,285.865,594.785,278.079Z" transform="translate(-591.874 -259.608)" fill="#fff"/><g clip-path="url(#c)"><g transform="translate(2.926 4.23)"><path d="M631.942,286.7c.806,2.977-.261,7.092-.69,10.088-.44,3.067-.9,6.13-1.31,9.2a40.068,40.068,0,0,0-.528,6.624c.084,2.5,1.41,3.111,1.894,5.563a5.843,5.843,0,0,0,1.907,3.775c1.77,1.983,2.293,4.585,3.794,6.795,1.672,2.461,3.884,4.5,5.514,6.993,1.774,2.719,2.817,5.818,4.548,8.557a.6.6,0,0,0,1.041-.608,83.2,83.2,0,0,0-4.578-8.539c-1.631-2.5-3.852-4.526-5.518-6.992-1.36-2.012-1.63-4.587-3.241-6.4-1.328-1.493-1.952-2.075-2.307-4.316a6.68,6.68,0,0,0-.211-1.609c-.322-.83-.484-.575-.907-1.3a4.254,4.254,0,0,1-.784-2.956,70.622,70.622,0,0,1,.92-8.55c.448-3.323.924-6.637,1.308-9.967.255-2.21.768-4.45.126-6.63a.506.506,0,0,0-.975.269Z" transform="translate(-608.422 -273.445)" fill="#e0e0e0"/><path d="M624.206,285.129c.053,8.585-.139,17.211-.25,25.794A32.477,32.477,0,0,0,627.62,326c2.685,5.426,5.611,10.545,7.85,16.2,1.044,2.634,2,5.663,3.884,7.83,2.094,2.4,4.7,2.947,5.461,6.464.138.637,1.234.509,1.156-.157a6.3,6.3,0,0,0-2.256-4.592c-.9-.736-1.97-1.242-2.811-2.055a16.75,16.75,0,0,1-3.188-5.182c-2.636-5.685-5.038-11.319-7.978-16.863-2.627-4.955-4.76-10.518-4.692-16.136.105-8.766.362-17.617.166-26.381a.5.5,0,0,0-1.006,0Z" transform="translate(-606.444 -272.925)" fill="#e0e0e0"/><path d="M613.069,281.5c-.311,17.71,1.028,35.962,5,53.266,1.518,6.621,3.627,12.657,7.433,18.326,2.239,3.336,4.545,7.142,7.6,9.79,2.948,2.553,5.6,3.7,7.494,7.4a.689.689,0,0,0,1.254-.529,11.191,11.191,0,0,0-4.813-5.993,36.519,36.519,0,0,1-9.335-9.631,51.909,51.909,0,0,1-8.278-19.188c-4.075-17.512-4.87-35.537-5.247-53.442a.553.553,0,0,0-1.105,0Z" transform="translate(-602.478 -271.588)" fill="#e0e0e0"/><path d="M607.406,266.6c-2.813,10.275-1.78,21.443-1.7,31.976a135.312,135.312,0,0,0,1.43,21.319c2.263,13.529,5.892,27.633,13.062,39.451a36.2,36.2,0,0,0,6.786,8.445c3.436,3.029,7.574,3.688,10.216,7.685a.637.637,0,0,0,1.1-.642c-2.214-3.877-5.328-4.455-8.761-6.848-3.951-2.753-6.848-7.054-9.207-11.17-4.691-8.189-7.611-17.456-9.856-26.581a114.072,114.072,0,0,1-3.3-20.98c-.387-6.986-.287-13.988-.385-20.981-.1-7.221.01-14.325,1.576-21.408a.5.5,0,0,0-.964-.266Z" transform="translate(-599.73 -266.248)" fill="#e0e0e0"/><path d="M598.829,272.5c-.149,6.184-1.243,12.255-1.648,18.418s-.545,12.405-.678,18.586c-.2,9.435.422,18.961,2.954,28.089,4.918,17.728,15.734,31.93,28.435,44.85.478.486,1.185-.239.743-.743-6.162-7.014-12.827-13.442-17.79-21.426a88.528,88.528,0,0,1-10.489-23.816c-2.49-9.41-2.955-19.209-2.632-28.9.2-5.976.234-12,.708-17.965.452-5.7,1.584-11.355,1.424-17.092a.514.514,0,0,0-1.028,0Z" transform="translate(-596.468 -268.338)" fill="#e0e0e0"/></g></g></g><g transform="translate(33.822 91.815)"><path d="M726.75,391.306c1.7,11-23.572,18.863-33.313,23.472-8.628,4.081-17.619.884-24.621-4.886-5.391-4.444-27.8-4.794-23.241-10.693,5.394-6.973,14.443-17.472,17.982-23.54,5.7-9.777,6.735-19.335,6.609-21.514,2.653,2.763,9.978,5.092,13.444,6.734,4.207,1.99,14.051,1.337,19.853,0a29.2,29.2,0,0,0,5.622,12.926C718.062,384.655,726.048,386.727,726.75,391.306Z" transform="translate(-644.966 -324.397)" fill="#fcc"/><path d="M714.006,314.553c1.018,4.736.546,8.436.72,12.944a93.158,93.158,0,0,0,2.17,17.715c-7.609,2.449-15.985,2.976-20.672,1.3-3.61-1.293-9.981-4.556-12.625-8.035-.3-5.265-.354-15.45-1.624-20.4,2.668-3.678,10.5-4.921,15.257-6.3A19.279,19.279,0,0,1,714.006,314.553Z" transform="translate(-658.398 -308.727)" fill="#eaa9a9"/><path d="M714.189,311.45a5.225,5.225,0,0,1,.742,1.823,19.279,19.279,0,0,0-16.775-2.779c-4.76,1.382-9.488,7.3-12.156,10.978-.553-2.155-1.082-7.567-1.477-9.628,2.242-3.007,10.341-4.389,14.249-4.4C703.059,307.44,711.734,307.78,714.189,311.45Z" transform="translate(-659.324 -307.448)" fill="#ffdbc7"/></g><path d="M667.862,365.748c-3.9-3.71-12.08-3.984-17.247-4.913-1.606,4.741-4.452,9.262-6.251,14.052-6.289,16.74-4.956,45.733-3.857,63.558,1.684,27.3,2.6,34.222,6.038,69.847h72.306s3.41-26.279,6.024-60.629c1.765-23.183,10.461-63.668-11.083-88.7L698.618,366.7l-10.256-2.067-2.254,8.556-3.7-8.28Z" transform="translate(-609.189 -234.332)" fill="#fff"/><path d="M673.436,293.049c2.437,14.57,2.921,28.727,16.962,36.94,6.246,3.653,12.405,2.926,18.309-1.238,8.385-5.913,8.213-16.394,10.321-25.453" transform="translate(-621.478 -210.407)" fill="none"/><path d="M664.832,291.481c0-3.421,4.717-3.684,6.605-1.519-3.992-28.385,21.163-24.991,21.163-24.991,20.831-3.066,27.032,20.393,22.254,26.2,2.249-3.875,6.986-3.875,6.414,2.292-.373,4.019-2.512,12.349-7.75,9.973-1.41,8.357-14.253,19.167-19.844,19.167-5.021,0-18.679-8.385-22-18.22C668.151,304.8,664.832,297.658,664.832,291.481Z" transform="translate(-618.355 -200.116)" fill="#fcc"/><path d="M687.617,293.5a20.529,20.529,0,0,0,3.958.854c1.455.309,2.889.783,4.36,1a1.373,1.373,0,0,0,.729-2.646c-2.481-.763-6.6-2.1-9.047-.8a.928.928,0,0,0,0,1.593Z" transform="translate(-626.461 -209.792)" fill="#212121"/><path d="M726.481,291.9c-2.452-1.305-6.569.035-9.048.8a1.374,1.374,0,0,0,.73,2.646c1.47-.215,2.9-.689,4.359-1a20.522,20.522,0,0,0,3.958-.854.928.928,0,0,0,0-1.593Z" transform="translate(-637.09 -209.792)" fill="#212121"/><path d="M668.419,310.56c-.14-.741-.673-3.017-.065-3.595,1.312-1.247,2.621,2.66,2.834,3.376.318,1.071.657,4.162.128,3.62a2.393,2.393,0,0,1-.45-.934c-.14-.479-.045-1.009-.345-1.43a.919.919,0,0,0-1.208-.317l-.141.061a1.031,1.031,0,0,0-.52.906c-.018,1.47,1.747,5.313,3.728,3.778,1.543-1.2.208-4.663-.258-6.145-.455-1.446-1.623-4.707-3.74-4.108-2.027.573-.938,3.648-.465,4.926a.261.261,0,0,0,.5-.139Z" transform="translate(-619.213 -214.999)" fill="#eaa9a9"/><path d="M747.223,310.7c.475-1.283,1.526-4.168-.343-4.877-2.152-.816-3.406,2.613-3.862,4.059-.464,1.474-1.747,4.8-.356,6.07,1.948,1.777,3.844-2.234,3.826-3.7a1.033,1.033,0,0,0-.521-.906l-.141-.061a.918.918,0,0,0-1.208.317c-.28.392-.183.812-.29,1.258-.077.32-.654,1.4-.743.964a7.541,7.541,0,0,1,.366-3.478c.25-.849,1.247-4.117,2.605-3.5.864.393.312,2.932.163,3.717a.262.262,0,0,0,.5.139Z" transform="translate(-646.375 -214.997)" fill="#eaa9a9"/><path d="M689.349,247.793c-3.623-3.583-11.118-2.191-15.156-.248-5.43,2.611-9.665,8.01-11.562,13.625a18.9,18.9,0,0,0-1.327,8.319,29.117,29.117,0,0,0,2.125,7.011c1.134,2.86.859,4.212-1.1,6.277a7.783,7.783,0,0,0,3.383.143c.031.879-.816,1.426-1.37,1.982a13.228,13.228,0,0,0,3.914.774c1.4-.09,7.013.462,10.254-4.4,2.756-4.137,4.551-20.759,12.162-16.515,1.234-2.342,3.894-2.655,6.63-1.557,3.075,1.233,3.508,6.113,4.8,8.9,2.205,4.765,7.285,12.445,14.232,10.582a9.178,9.178,0,0,1-1.088-2.037c1.681.452,2.844.822,4.624.334a3.478,3.478,0,0,1-1.358-3.276c.147-2.381.947-4.889,1.273-7.293a24.187,24.187,0,0,0-13-24.919C702.654,243.427,692.943,243.337,689.349,247.793Z" transform="translate(-617.048 -192.649)" fill="#212121"/><path d="M713.11,327.161c-1.552-.882-3.3.368-4.687,1.01-.98.454-2.5,1.423-3.7.922a14.72,14.72,0,0,1-1.967-.884,10.438,10.438,0,0,0-3.285-1.533,2.18,2.18,0,0,0-2.444,3.1c1.107,2.855,5.277,4.354,8.115,4.485,2.386.11,6.388-.955,8.108-2.943C714.306,330.1,714.776,328.107,713.11,327.161Z" transform="translate(-629.972 -222.594)" fill="#fff"/><path d="M718.331,301.117h-.991a7.7,7.7,0,0,0-15.258-.59,3.8,3.8,0,0,0-3.9.068,7.7,7.7,0,0,0-15.269.522h-.939v1.422h.939a7.7,7.7,0,0,0,15.377-.711c0-.011,0-.021,0-.032a2.829,2.829,0,0,1,3.678-.022c0,.018,0,.036,0,.053a7.7,7.7,0,0,0,15.377.711h.991Zm-27.748,7.351a6.64,6.64,0,1,1,6.641-6.64A6.647,6.647,0,0,1,690.583,308.468Zm19.086,0a6.64,6.64,0,1,1,6.64-6.64A6.648,6.648,0,0,1,709.669,308.468Z" transform="translate(-624.577 -210.796)" fill="#fff"/><path d="M695.127,306.773c-.022-.845-.434-2.428.56-2.891.534-.249,1.428-.182,1.661.422.282.731-.009,1.558.22,2.3a.8.8,0,0,0,1.527,0,4.352,4.352,0,0,0-.614-3.194,2.811,2.811,0,0,0-2.943-.85c-1.865.492-2.056,2.808-1.562,4.366a.589.589,0,0,0,1.151-.156Z" transform="translate(-628.849 -213.821)" fill="#212121"/><path d="M719.275,306.713c.068-1.18-.284-3.251,1.593-2.877,1.419.283.685,2.091,1.014,3a.783.783,0,0,0,1.411.184,3.935,3.935,0,0,0-.089-3.323,2.667,2.667,0,0,0-4.728-.183,5.21,5.21,0,0,0-.315,3.348c.142.65,1.078.462,1.113-.15Z" transform="translate(-637.662 -213.718)" fill="#212121"/><path d="M713.527,329.593c-.6.3-1.2.568-1.8.806a11.276,11.276,0,0,0-.722-1.4c-.136-.217-.521-.071-.427.187.178.485.38.956.577,1.431a15.041,15.041,0,0,1-6.269,1,4.012,4.012,0,0,0,.066-.766.187.187,0,0,0-.347-.089,2.87,2.87,0,0,0-.355.79,12.7,12.7,0,0,1-2.682-.627c.193-.464.383-.931.6-1.384.159-.334-.333-.619-.5-.285-.243.477-.459.968-.676,1.458a15.514,15.514,0,0,1-2.912-1.564c-.254-.172-.537.219-.319.424a10.462,10.462,0,0,0,2.874,1.894,3.516,3.516,0,0,0-.435,1.282.265.265,0,0,0,.45.18,3.74,3.74,0,0,0,.61-1.2,12.441,12.441,0,0,0,2.788.7c-.055.266-.11.531-.187.781-.108.352.433.485.55.143.091-.268.184-.555.271-.847a14.069,14.069,0,0,0,6.776-1.117,3.22,3.22,0,0,0,.4.778c.132.178.495.141.466-.133a3.17,3.17,0,0,0-.27-.915,12.009,12.009,0,0,0,1.753-1.064A.267.267,0,0,0,713.527,329.593Z" transform="translate(-630.277 -223.417)" fill="#eee"/><g transform="translate(30.39 124.635)"><g clip-path="url(#d)"><g transform="translate(5.973 -6.322)"><path d="M662.108,352.22c-6.446,9.333-8.777,21.17-10.426,32.188a246.537,246.537,0,0,0-2.711,39.337c.318,28.387,4.185,56.6,6.353,84.855a.742.742,0,0,0,1.483,0c.613-6.677-.339-13.544-1.116-20.178-.787-6.716-1.634-13.415-2.227-20.152-1.221-13.9-2.39-27.816-2.673-41.774a257.2,257.2,0,0,1,2.274-39.513c1.6-11.91,4.018-23.646,10.051-34.175a.584.584,0,0,0-1.007-.589Z" transform="translate(-648.955 -350.099)" fill="#e0e0e0"/><path d="M674.47,356.605c-2.516,4.606-3.27,9.691-3.971,14.827-.8,5.891-1.9,11.734-2.691,17.628a376.255,376.255,0,0,0-2.868,40.226c-.35,13.522.078,26.99,1,40.481.944,13.821,1.14,27.625,1.58,41.463a.851.851,0,0,0,1.7,0c.767-26.414-3.042-52.725-2.606-79.153.214-12.976.783-26.026,2.282-38.922.713-6.136,1.8-12.2,2.641-18.32.814-5.9,1.053-12.312,3.826-17.707.3-.589-.571-1.108-.892-.522Z" transform="translate(-654.713 -351.694)" fill="#e0e0e0"/><path d="M687.98,364.316c-1.275,4.671-1.442,9.533-1.651,14.347-.252,5.784-.68,11.549-1.165,17.318-1.036,12.32-1.981,24.617-2.416,36.976-.429,12.184-.494,24.373-.5,36.564,0,5.981-.159,11.978.235,17.95s.993,11.9.807,17.9c-.041,1.346,1.99,1.324,2.078,0,.382-5.758-.317-11.5-.729-17.238-.429-5.956-.34-11.943-.368-17.911-.055-11.953-.034-23.913.282-35.864.315-11.9,1.155-23.752,2.093-35.615.893-11.288.276-23.014,2.3-34.163.115-.631-.8-.907-.975-.269Z" transform="translate(-661.028 -354.455)" fill="#e0e0e0"/><path d="M701.7,370.906c-.535,10.895-2.538,21.555-2.573,32.493-.036,11.492.313,22.983-.08,34.471-.823,24.053-.76,48.176-.215,72.238a1.034,1.034,0,0,0,2.066,0c.511-24.076-.545-48.149.136-72.238.325-11.488-.038-22.981-.127-34.471-.085-10.884,2.237-21.647,1.948-32.493a.578.578,0,0,0-1.156,0Z" transform="translate(-666.909 -356.776)" fill="#e0e0e0"/><path d="M710.81,352.5c2,20.969,2.1,42.02,1.95,63.069-.1,14.977-.562,29.949-1.191,44.912-.314,7.471-.755,14.937-1.049,22.408-.289,7.365-.98,15.251-.1,22.577a.876.876,0,0,0,1.75,0c.69-5.777.115-11.824.231-17.644.116-5.848.471-11.688.743-17.53.543-11.694.984-23.392,1.244-35.1.408-18.406.469-36.875-.141-55.279-.3-9.177-.555-18.53-2.154-27.591-.126-.717-1.352-.561-1.282.173Z" transform="translate(-671.107 -350.067)" fill="#e0e0e0"/><path d="M727.322,367.438c1.052,11.554,2.093,22.945,2.142,34.568.046,11.066.007,22.19-.405,33.249-.445,11.906-1.756,23.76-2.247,35.662-.5,12.09-.233,24.439.4,36.521a.992.992,0,0,0,1.983,0c.572-12.148-.762-24.35-.261-36.521.5-12.131,1.85-24.212,2.265-36.348.385-11.262.424-22.59.322-33.858-.1-11.046-.189-22.674-2.885-33.451-.178-.712-1.379-.585-1.309.177Z" transform="translate(-677.119 -355.485)" fill="#e0e0e0"/><path d="M738.1,357.011a161.629,161.629,0,0,1,5.084,23.192,139.09,139.09,0,0,1,2,28.762c-.935,19.893-.7,39.813-1.784,59.7-.629,11.559-2.237,23.4-1.617,34.978a.987.987,0,0,0,1.972,0c1.087-20.994,2.37-42.035,2.651-63.061.251-18.748,2.037-37.662-.757-56.275-1.39-9.259-3.033-18.843-6.483-27.593-.255-.646-1.286-.4-1.066.294Z" transform="translate(-681.298 -351.692)" fill="#e0e0e0"/><path d="M747.759,349.918c1.559,4.74,4.029,9.1,5.368,13.916,1.287,4.629,2.209,9.378,3.038,14.107,1.969,11.229,2.354,22.728,2.179,34.109-.3,19.766-2.6,39.444-3.4,59.192-.43,10.651-1.562,21.2-2.365,31.823-.085,1.121,1.823,1.4,1.986.269,2.432-16.875,2.195-33.97,3.47-50.935,1.777-23.626,4.3-47.8.712-71.383a148.843,148.843,0,0,0-3.453-16.41c-1.454-5.387-4.12-10.112-6.277-15.218-.3-.717-1.5-.205-1.259.531Z" transform="translate(-684.805 -349.043)" fill="#e0e0e0"/></g></g></g><g transform="translate(35.806 263.361)"><rect width="74.968" height="10.626" transform="translate(0.326)" fill="#474854"/><path d="M653.943,580.247h-5.862V586.4h5.905C653.97,584.344,653.942,582.3,653.943,580.247Z" transform="translate(-648.081 -578.008)" fill="#6d5356"/><path d="M669.056,580.247h-8.583c0,2.048.028,4.1.046,6.148h8.6C669.071,584.346,669.035,582.3,669.056,580.247Z" transform="translate(-652.579 -578.008)" fill="#6d5356"/><path d="M716.412,580.247H677.136c-.02,2.049.015,4.1.059,6.148h39.168C716.386,584.346,716.412,582.3,716.412,580.247Z" transform="translate(-658.624 -578.008)" fill="#6d5356"/><path d="M750.507,580.247h-8.549c0,2.049-.026,4.1-.049,6.148h8.559C750.486,584.346,750.5,582.3,750.507,580.247Z" transform="translate(-682.137 -578.008)" fill="#6d5356"/><path d="M758.574,580.247q-.016,3.074-.036,6.148h5.208v-6.148Z" transform="translate(-688.172 -578.008)" fill="#6d5356"/><path d="M711.562,579.295h-9.5a1.969,1.969,0,0,0-1.963,1.964v3.433a1.97,1.97,0,0,0,1.963,1.964h9.5a1.97,1.97,0,0,0,1.964-1.964v-3.433A1.97,1.97,0,0,0,711.562,579.295Zm.073,4.347c0,1-.422,1.816-1.5,1.816H703.5a1.637,1.637,0,0,1-1.646-1.816v-1.333a1.637,1.637,0,0,1,1.646-1.816h6.637c1.08,0,1.5.817,1.5,1.816Z" transform="translate(-666.963 -577.663)" fill="#eec078"/><path d="M717.7,583.917h-2.843a.664.664,0,1,0,0,1.328H717.7a.664.664,0,1,0,0-1.328Z" transform="translate(-672.078 -579.341)" fill="#ffd498"/></g><path d="M713.858,394.737a1.292,1.292,0,1,1-1.292-1.292A1.292,1.292,0,0,1,713.858,394.737Z" transform="translate(-635.211 -246.846)" fill="#515c72"/><path d="M713.858,422.085a1.292,1.292,0,1,1-1.292-1.293A1.292,1.292,0,0,1,713.858,422.085Z" transform="translate(-635.211 -256.772)" fill="#515c72"/><path d="M697.42,387.771c0,5.035-1.289,9.407-2.764,14.212a78.6,78.6,0,0,1-5.521,13.8c-2.212,4.2-4.061,6.188-6.474,10.272-1.355,2.294-3.9,4.244-3.625,6.862.252,2.38.61,10.151,2.134,12.148a53.455,53.455,0,0,0,7.505-3.787,33.773,33.773,0,0,0,4.713-3.332c1.338-1.1,2-3.69,2.615-5.414,1.287-3.6,1.747-6.476,2.72-10.175,3.583-13.62,5.6-31,4.791-35.445-.332-1.81-1.3-.429-3.137-.317a6.251,6.251,0,0,0-2.935.8C697.417,387.593,697.39,387.833,697.42,387.771Z" transform="translate(-623.503 -244.14)" fill="#003daa"/><g transform="translate(54.214 127.649)"><path d="M677.074,365.112c.039,1.4-2.261,29.557,13.461,40.526a3.18,3.18,0,0,0,.4.14.914.914,0,0,0,.164-.448c-2.105-1.315-4.968-5.826-7.7-12.311-5.344-12.689-2.815-28.79-2.822-28.8S677.072,365.082,677.074,365.112Z" transform="translate(-676.977 -363.889)" fill="#00a2be"/><g transform="translate(1.312 41.221)"><path d="M1.05,0H17.711a1.051,1.051,0,0,1,1.051,1.051V12.759a1.05,1.05,0,0,1-1.05,1.05H1.05A1.05,1.05,0,0,1,0,12.759V1.05A1.05,1.05,0,0,1,1.05,0Z" transform="translate(0.824 19.26) rotate(-76.297)" fill="#fff"/><rect width="10.758" height="0.482" transform="translate(3.783 13.565) rotate(13.703)" fill="#4368ae"/><rect width="8.082" height="2.382" transform="translate(4.791 15.078) rotate(13.702)" fill="#363133"/><g transform="translate(4.823 3.072)"><g clip-path="url(#e)"><rect width="9.126" height="9.955" transform="translate(2.358) rotate(13.703)" fill="#acc8ea"/><g transform="translate(-2.387 1.572)"><g transform="translate(2.269 3.912)"><path d="M694.557,450.878c-.1,1.1-2.725,1.268-3.775,1.485a2.281,2.281,0,0,1-2.266-1.053c-.417-.557-2.576-1.119-2-1.582.686-.547,1.809-1.349,2.295-1.853a4.654,4.654,0,0,0,1.146-1.924,5.515,5.515,0,0,0,1.142.968,3.988,3.988,0,0,0,1.92.469,2.907,2.907,0,0,0,.239,1.382C693.873,450.03,694.6,450.418,694.557,450.878Z" transform="translate(-686.422 -443.329)" fill="#ffd2bd"/><path d="M695.482,443.064a6.715,6.715,0,0,1-.236,1.269,9.225,9.225,0,0,0-.208,1.765,3.648,3.648,0,0,1-2.03-.362,3.191,3.191,0,0,1-1.031-1.075,14.049,14.049,0,0,0,.324-2.011c.345-.293,1.131-.229,1.624-.25A1.919,1.919,0,0,1,695.482,443.064Z" transform="translate(-688.438 -442.04)" fill="#dea49f"/><path d="M695.746,442.666a.519.519,0,0,1,.029.194,1.919,1.919,0,0,0-1.557-.664,2.921,2.921,0,0,0-1.435.775c0-.221.074-.757.085-.966a2.252,2.252,0,0,1,1.481-.089C694.764,442.016,695.595,442.253,695.746,442.666Z" transform="translate(-688.73 -441.836)" fill="#ffdbc7"/></g><path d="M691.159,439.732c.081-.331.543-.245.675.009.283-2.839,2.635-1.918,2.635-1.918A1.987,1.987,0,0,1,696,440.881c.309-.322.767-.21.566.373-.131.38-.534,1.135-.984.782a3.314,3.314,0,0,1-2.419,1.567,3.6,3.6,0,0,1-1.65-2.462C691.166,441.1,691.014,440.329,691.159,439.732Z" transform="translate(-685.852 -436.416)" fill="#ffd2bd"/><path d="M696.269,438.894a1.059,1.059,0,0,1,.8-.008.045.045,0,0,0,.041-.076.681.681,0,0,0-.848.07c-.007.007,0,.018.011.013Z" transform="translate(-687.722 -436.783)" fill="#454a56"/><path d="M696.5,439.02a1.072,1.072,0,0,1,.739.313c.04.029.078-.027.06-.062a.683.683,0,0,0-.8-.268c-.009,0-.008.018,0,.017Z" transform="translate(-687.809 -436.882)" fill="#454a56"/><path d="M693.687,440.186a2.028,2.028,0,0,0,.362.176c.133.064.261.144.4.2a.137.137,0,0,0,.133-.239c-.222-.132-.589-.359-.856-.29a.092.092,0,0,0-.038.154Z" transform="translate(-686.779 -437.265)" fill="#454a56"/><path d="M697.466,441a1.368,1.368,0,0,0-.894-.136.136.136,0,0,0,.008.273c.147.014.3,0,.445.006a1.987,1.987,0,0,0,.4.011.093.093,0,0,0,.038-.154Z" transform="translate(-687.791 -437.567)" fill="#454a56"/><path d="M691.413,441.375c0-.075.006-.308.079-.349.156-.09.19.319.194.393a.8.8,0,0,1-.041.326c-.015.041.007.092-.032.027a.239.239,0,0,1-.021-.1c0-.05.019-.1,0-.147a.092.092,0,0,0-.11-.059l-.015,0a.1.1,0,0,0-.072.076c-.036.141.044.555.271.453.178-.079.13-.446.12-.6s-.046-.494-.264-.485-.177.331-.161.465a.026.026,0,0,0,.052,0Z" transform="translate(-685.941 -437.588)" fill="#dea49f"/><path d="M698.945,443.28c.076-.113.246-.367.082-.48-.189-.129-.391.173-.469.3s-.282.423-.178.578c.147.218.425-.126.457-.268a.1.1,0,0,0-.029-.1l-.012-.01a.092.092,0,0,0-.125,0c-.036.031-.036.075-.057.115a.287.287,0,0,1-.075.095c-.049.031-.021.025-.02-.02a.749.749,0,0,1,.118-.327c.044-.076.217-.369.334-.277.074.059-.039.291-.072.364a.026.026,0,0,0,.045.025Z" transform="translate(-688.483 -438.262)" fill="#dea49f"/><path d="M694.493,436.117c-.266-.432-1.024-.475-1.46-.382a2.372,2.372,0,0,0-1.44,1.045,1.882,1.882,0,0,0-.324.773,2.9,2.9,0,0,0,.04.728.483.483,0,0,1-.254.582.786.786,0,0,0,.324.094c-.018.085-.113.118-.18.159a1.326,1.326,0,0,0,.361.167,1.139,1.139,0,0,0,1.1-.184c.364-.335.93-1.9,1.566-1.31a.484.484,0,0,1,.678.006c.268.192.195.674.254.975.1.513.411,1.375,1.127,1.359a.887.887,0,0,1-.057-.223.771.771,0,0,0,.439.141.346.346,0,0,1-.054-.348c.071-.227.207-.45.295-.675a2.408,2.408,0,0,0-.669-2.717A1.692,1.692,0,0,0,694.493,436.117Z" transform="translate(-685.835 -435.695)" fill="#454a56"/><path d="M693.549,441.881a.767.767,0,1,1,.928-.564A.767.767,0,0,1,693.549,441.881Zm.338-1.387a.661.661,0,1,0,.486.8A.662.662,0,0,0,693.887,440.494Z" transform="translate(-686.527 -437.391)" fill="#fff"/><path d="M696.446,442.588a.767.767,0,1,1,.927-.564A.769.769,0,0,1,696.446,442.588Zm.338-1.387a.661.661,0,1,0,.485.8A.662.662,0,0,0,696.785,441.2Z" transform="translate(-687.579 -437.648)" fill="#fff"/><g transform="translate(0.119 7.235)"><path d="M688.2,447.064c-.679-.087-2.839.316-3.126.736-1,1.471-.652,4.129-.966,5.879-.481,2.68-.556,3.371-1.063,6.9l6.993,1.705s.95-2.462,2.012-5.722c.717-2.2,3.695-5.887,2.291-7.18a13.872,13.872,0,0,0-2.283-1.4l-.638.126-.943-.442-.42.775-.162-.888Z" transform="translate(-683.047 -447.052)" fill="#fff"/><g clip-path="url(#f)"><g transform="translate(0.487 -1.738)"><path d="M686.619,444.352a6.591,6.591,0,0,0-.734,2.428c-.163,1.041-.254,2.091-.413,3.134-.321,2.109-.77,4.2-1.1,6.3-.1.618-.163,1.24-.243,1.86-.083.645-.213,1.279-.319,1.92a.074.074,0,0,0,.144.035,10.431,10.431,0,0,0,.384-2.112c.083-.694.166-1.388.278-2.078.212-1.316.466-2.625.7-3.937s.43-2.625.583-3.948a10.508,10.508,0,0,1,.819-3.55.058.058,0,0,0-.1-.057Z" transform="translate(-683.811 -444.323)" fill="#e3e3eb"/><path d="M687.461,445.087a28.087,28.087,0,0,1-.469,4.552c-.392,2.29-1.02,4.533-1.416,6.822-.234,1.359-.54,2.7-.824,4.048a.085.085,0,0,0,.164.039c.649-2.367.933-4.825,1.462-7.22a51.276,51.276,0,0,0,1.036-5.684,20.5,20.5,0,0,0,.15-2.562.052.052,0,0,0-.1,0Z" transform="translate(-684.152 -444.582)" fill="#e3e3eb"/><path d="M688.963,445.253a28.211,28.211,0,0,1-.36,4.647c-.3,2.443-1,4.785-1.493,7.187-.2.957-.338,1.931-.606,2.872-.036.129.161.175.2.049a22.334,22.334,0,0,0,.548-2.574c.212-1.1.5-2.184.754-3.278a43.479,43.479,0,0,0,.973-6.285,13.128,13.128,0,0,0,.084-2.621c-.008-.063-.1-.063-.1,0Z" transform="translate(-684.787 -444.643)" fill="#e3e3eb"/><path d="M690.4,446.868a8.089,8.089,0,0,1-.108,1.467c-.091.836-.2,1.671-.315,2.5-.254,1.848-.557,3.68-.966,5.5-.351,1.56-.781,3.1-1.127,4.664a.1.1,0,0,0,.2.049c.647-2.423,1.257-4.886,1.662-7.362.276-1.687.5-3.385.677-5.085a7.186,7.186,0,0,0,.094-1.74c-.011-.071-.121-.072-.115,0Z" transform="translate(-685.288 -445.226)" fill="#e3e3eb"/><path d="M692.715,446.443c-.3,2.077-.808,4.106-1.3,6.145-.338,1.414-.63,2.841-.978,4.253-.176.714-.378,1.42-.58,2.127a14.317,14.317,0,0,0-.542,2.181.087.087,0,0,0,.169.041c.2-.542.29-1.141.438-1.7s.321-1.114.471-1.674c.294-1.1.538-2.2.782-3.312.392-1.779.849-3.544,1.221-5.328a19.57,19.57,0,0,0,.442-2.72c0-.072-.118-.086-.128-.013Z" transform="translate(-685.81 -445.075)" fill="#e3e3eb"/><path d="M694,448.276c-.177,1.194-.292,2.381-.552,3.562s-.571,2.379-.922,3.551c-.33,1.1-.672,2.2-.994,3.31-.3,1.026-.641,2.063-.845,3.114a.1.1,0,0,0,.192.047c.307-1.029.558-2.078.858-3.111.327-1.128.677-2.249,1.012-3.374q.531-1.784.923-3.606a16.211,16.211,0,0,0,.458-3.48c0-.073-.12-.09-.131-.014Z" transform="translate(-686.308 -445.74)" fill="#e3e3eb"/><path d="M695.906,447.9a9.383,9.383,0,0,1-.315,2.5c-.208.958-.486,1.894-.763,2.833-.548,1.855-1.079,3.715-1.647,5.565a29.237,29.237,0,0,0-.912,3.117.1.1,0,0,0,.191.047q.869-2.894,1.718-5.8c.531-1.825,1.143-3.646,1.542-5.5a8.377,8.377,0,0,0,.3-2.768c-.009-.069-.114-.069-.11,0Z" transform="translate(-686.88 -445.602)" fill="#e3e3eb"/><path d="M697.213,449.19a27.467,27.467,0,0,1-.652,3.93c-.385,1.339-.943,2.618-1.427,3.922-.329.887-.594,1.789-.856,2.7-.292,1.019-.654,2.012-.979,3.021-.034.106.143.178.186.073.757-1.867,1.156-3.855,1.852-5.742.482-1.3,1.04-2.584,1.423-3.923a17.318,17.318,0,0,0,.588-3.964c0-.076-.125-.091-.136-.015Z" transform="translate(-687.253 -446.071)" fill="#e3e3eb"/></g></g></g><path d="M695.414,442.185a1.947,1.947,0,0,0,.313.592l.057-.149c-.159.064-.3.162-.447.236s0,.336.14.231.282-.183.408-.3a.1.1,0,0,0,0-.143,1.044,1.044,0,0,1-.4-.488.037.037,0,0,0-.071.021Z" transform="translate(-687.365 -438.034)" fill="#dea49f"/><path d="M695.278,441.785l-.049-.094a.389.389,0,0,1,.529.131l-.09.055A.292.292,0,0,0,695.278,441.785Z" transform="translate(-687.35 -437.853)" fill="#fff"/><rect width="0.142" height="0.143" transform="translate(6.354 3.61) rotate(-76.311)" fill="#fff"/><rect width="0.142" height="0.143" transform="matrix(0.237, -0.971, 0.971, 0.237, 9.731, 4.434)" fill="#fff"/><path d="M691.527,446.139l1.325,1,.118.978.407-.869,1.526-.283.12.657-1.59,1.156-.065-1.344-.4.8-.217-.928-.613,1.176-1.067-1.827Z" transform="translate(-685.839 -439.486)" fill="#e3e3eb"/><g transform="translate(0 19.706)"><rect width="1.058" height="7.463" transform="translate(0 1.028) rotate(-76.297)" fill="#474854"/><path d="M683.606,467.1l-.567-.138-.145.594.571.14C683.512,467.492,683.557,467.293,683.606,467.1Z" transform="translate(-682.872 -466.748)" fill="#6d5356"/><path d="M685.07,467.452l-.83-.2c-.048.2-.094.4-.141.6l.831.2C684.974,467.848,685.02,467.649,685.07,467.452Z" transform="translate(-683.31 -466.854)" fill="#6d5356"/><path d="M689.651,468.568l-3.8-.926c-.05.2-.095.4-.139.6l3.788.923C689.551,468.964,689.6,468.766,689.651,468.568Z" transform="translate(-683.896 -466.997)" fill="#6d5356"/><path d="M692.945,469.372l-.827-.2c-.048.2-.1.4-.15.594l.828.2C692.846,469.769,692.895,469.57,692.945,469.372Z" transform="translate(-686.166 -467.552)" fill="#6d5356"/><path d="M693.724,469.563q-.074.3-.148.594l.5.123.145-.6Z" transform="translate(-686.75 -467.694)" fill="#6d5356"/><path d="M689.207,468.385l-.918-.224a.2.2,0,0,0-.236.143l-.081.333a.2.2,0,0,0,.143.236l.919.224a.2.2,0,0,0,.236-.143l.081-.333A.2.2,0,0,0,689.207,468.385Zm-.1.422c-.023.1-.083.166-.188.14l-.641-.156a.163.163,0,0,1-.117-.215l.031-.129a.163.163,0,0,1,.2-.137l.642.157c.1.025.126.114.1.211Z" transform="translate(-684.714 -467.183)" fill="#eec078"/><path d="M689.758,468.961l-.275-.068a.066.066,0,0,0-.031.129l.275.067a.066.066,0,0,0,.031-.128Z" transform="translate(-685.234 -467.45)" fill="#ffd498"/></g><path d="M693.838,450.582a.129.129,0,1,1-.094-.155A.128.128,0,0,1,693.838,450.582Z" transform="translate(-686.753 -441.041)" fill="#515c72"/><path d="M693.193,453.227a.129.129,0,1,1-.094-.155A.129.129,0,0,1,693.193,453.227Z" transform="translate(-686.518 -442.001)" fill="#515c72"/><path d="M692.582,455.73a.129.129,0,1,1-.095-.155A.129.129,0,0,1,692.582,455.73Z" transform="translate(-686.297 -442.909)" fill="#515c72"/><path d="M691.737,449.818a4.7,4.7,0,0,1-.6,1.309,7.821,7.821,0,0,1-.859,1.205c-.313.354-.539.5-.868.84-.185.19-.478.319-.512.578a3.836,3.836,0,0,0-.08,1.225,5.385,5.385,0,0,0,.815-.189,3.328,3.328,0,0,0,.534-.211c.155-.075.28-.31.381-.462.209-.318.322-.585.5-.92a13.088,13.088,0,0,0,1.3-3.315c.01-.183-.115-.072-.3-.1a.615.615,0,0,0-.3.008C691.741,449.8,691.733,449.824,691.737,449.818Z" transform="translate(-685.009 -440.8)" fill="#776490"/><path d="M694.18,448.847a.942.942,0,0,0-.94-.1c-.173.12-.058.448-.031.64.007.054,0,.182.042.22a3.79,3.79,0,0,0,.648.121c.134.024.189-.3.275-.5C694.3,448.954,694.274,448.926,694.18,448.847Z" transform="translate(-686.594 -440.402)" fill="#9f86b8"/><path d="M696.81,442.126a.106.106,0,0,0-.176-.043.3.3,0,0,0-.068.131.25.25,0,0,0-.009.1.1.1,0,0,0,.075.113c.022,0,.036-.01.054-.015l.014,0a.135.135,0,0,0,.068-.055s.01,0,.013-.01,0-.013,0-.018.014-.019.018-.031A.327.327,0,0,0,696.81,442.126Z" transform="translate(-687.831 -438.003)" fill="#343942"/><path d="M694.453,441.725c0-.011,0-.025,0-.038s0-.012,0-.018l0-.008a.186.186,0,0,0-.019-.085h0c0-.008,0-.017-.008-.024a.106.106,0,0,0-.18,0,.274.274,0,0,0-.024.283.1.1,0,0,0,.1.041h0l0,0c.021,0,.043,0,.059-.021a.2.2,0,0,0,.011-.02.242.242,0,0,0,.042-.081A.266.266,0,0,0,694.453,441.725Zm-.2-.069s0-.008,0,0S694.253,441.661,694.252,441.657Z" transform="translate(-686.974 -437.803)" fill="#343942"/><path d="M694.424,444.145c-.017.139.176.358.293.419a.539.539,0,0,0,.613-.171.059.059,0,0,0-.068-.085c-.146.048-.366.205-.515.1-.1-.07-.153-.2-.232-.291a.055.055,0,0,0-.092.026Z" transform="translate(-687.057 -438.747)" fill="#de908b"/></g></g></g><path d="M697.3,431.614l-4.14-1.009a1.993,1.993,0,0,0-3.836-.935l-4.14-1.01a1.634,1.634,0,0,0-1.973,1.2l-4.127,16.927a1.634,1.634,0,0,0,1.2,1.973l12.116,2.954a1.634,1.634,0,0,0,1.973-1.2l4.127-16.928A1.635,1.635,0,0,0,697.3,431.614Zm-5.763-2.689a.508.508,0,1,1-.614.373A.508.508,0,0,1,691.536,428.925Zm1.9,21.361a.67.67,0,0,1-.808.492l-12.116-2.954a.672.672,0,0,1-.492-.808l4.127-16.928a.672.672,0,0,1,.809-.492l12.116,2.955a.671.671,0,0,1,.491.808Z" transform="translate(-679.036 -428.405)" fill="#fff" opacity="0.5"/></g><path d="M725.17,363.7S722.805,374.06,710.9,392.98A42.946,42.946,0,0,1,698.63,405.3a1.23,1.23,0,0,1-.185.11c-.049.025-.206.026-.187.038a1.237,1.237,0,0,0,1.05.166c.448-.18,2.031-1,2.357-1.22,2.838-1.886,15.429-9.713,26.372-40.117Z" transform="translate(-684.7 -363.699)" fill="#00a2be"/><path d="M697.937,439.237l-13.89,4.385-.845,3.542,13.81-4.274Z" transform="translate(-679.236 -391.116)" fill="#fff" opacity="0.5"/><path d="M696.778,445.882l-13.89,4.385-.2,1,13.81-4.274Z" transform="translate(-679.048 -393.528)" fill="#fff" opacity="0.5"/></g><path d="M681.28,356.429l15.3,6.559,3.477,9.27,1.9-9.448,14.217-6.4,2.735,6.124L706.138,377.6l-3.829-12.959-2.036,8.8-4.325-8.539-3.181,12.934-14.76-15.294Z" transform="translate(-623.137 -233.406)" fill="#eee"/><path d="M713.273,376.412c-2.364-1.182-7.46-.908-9.4,1.287-1.4,1.581.5,4.51,1.216,6.319.2.507.413,1.783.938,2.055.663.344,5.793-.318,6.618-.366,1.361-.079,1.123-3.424,1.5-5.487C714.692,377.173,714.377,376.964,713.273,376.412Z" transform="translate(-632.343 -240.413)" fill="#003daa"/><path d="M595.5,276.3l30.311,4.659.891-15.971-25.546-5.244Z" transform="translate(-593.19 -198.319)" fill="#eee"/><path d="M769.7,265.256l-.949,16.236,29.332-2.635-3.614-15.1Z" transform="translate(-656.074 -199.773)" fill="#eee"/><path d="M715.635,312.42c-2.112-1-3.686-1.757-5.05-3.819a.373.373,0,0,0-.643.376c.725,1.677,2.291,2.966,3.659,4.248-.957.831-1.823,1.754-2.793,2.558-1.353,1.121.806,3.272,1.917,1.917,1.073-1.309,2.321-2.462,3.274-3.893A1.019,1.019,0,0,0,715.635,312.42Z" transform="translate(-634.715 -215.986)" fill="#eaa9a9"/></g><g transform="translate(313.517 175.476)"><g transform="translate(38.745 42.368)"><path d="M524.756,333.264c1.707,11.062-23.712,18.975-33.51,23.612-8.679,4.106-17.724.889-24.767-4.915-5.424-4.47-27.97-4.822-23.379-10.756,5.426-7.014,13.705-18.137,18.089-23.68,2.707-3.415,6.776-19.449,6.648-21.641,2.668,2.779,10.037,5.122,13.523,6.774,4.233,2,14.135,1.344,19.971,0a29.372,29.372,0,0,0,5.655,13C516.016,326.574,524.049,328.659,524.756,333.264Z" transform="translate(-442.487 -265.959)" fill="#fcc"/><path d="M511.936,256.056c1.024,4.764.55,8.487.724,13.021a93.693,93.693,0,0,0,2.182,17.82c-7.654,2.465-16.08,2.994-20.794,1.307-3.632-1.3-10.04-4.583-12.7-8.083-.3-5.3-.356-15.541-1.634-20.52,2.684-3.7,10.56-4.95,15.348-6.339A19.391,19.391,0,0,1,511.936,256.056Z" transform="translate(-455.999 -250.196)" fill="#eaa9a9"/><path d="M512.12,252.935a5.246,5.246,0,0,1,.747,1.834,19.391,19.391,0,0,0-16.874-2.795c-4.788,1.389-9.545,7.342-12.229,11.042-.555-2.168-1.088-7.612-1.485-9.684,2.255-3.025,10.4-4.415,14.333-4.423C500.924,248.9,509.651,249.243,512.12,252.935Z" transform="translate(-456.93 -248.909)" fill="#ffdbc7"/></g><path d="M517.735,232.372c-1.444-1.93-3.858-3.1-5.758-.924,5.229-7.75,1.833-14.079-2.284-19.783-5.3-7.345-18.277-6.732-26.576-5.439-6.491,1.012-13.075,3.888-15.632,9.636-2.206,4.957-4.273,10.825.534,16.665-3.373-2.586-7.52.621-7.173,5.518.288,4.05,5.723,11.78,8.971,7.551.555,5.985,2.427,10.172,5.392,12.614,7.258,5.977,10.7,7.911,16.326,7.911,5.051,0,10.767-3.976,16.264-9.461,2.279-2.274,2.793-7.323,3.124-11.009,4.062,2.247,6.626-1.546,7.63-4.694C519.363,238.416,519.324,234.494,517.735,232.372Z" transform="translate(-410.398 -190.76)" fill="#fcc"/><path d="M464.109,255.442c.254-.721.226-2.751,1.176-2.926.84-.154,1.668,1.182,2.034,1.76a8.271,8.271,0,0,1,1.014,2.294c.111.423.228,1.17-.376,1.012-.412-.109-.644-.5-1.114-.582a.761.761,0,0,0-.908.516c-.62,1.947,2.383,2.753,3.514,1.481,1.28-1.439,0-3.646-.806-4.978-.685-1.135-1.865-2.85-3.392-2.706-1.878.177-2.191,2.7-1.752,4.129a.32.32,0,0,0,.611,0Z" transform="translate(-411.304 -207.41)" fill="#eaa9a9"/><path d="M546.132,252.974c.4-1.393-.584-3.28-2.205-3.007a2.847,2.847,0,0,0-1.821,1.419,12.488,12.488,0,0,0-1.59,3.166c-.408,1.412.359,4.154,2.3,3.671a2.77,2.77,0,0,0,1.693-3.562.64.64,0,0,0-1.184.32c.024.494-.176,1.48-.687,1.719-.558.261-.777-.58-.858-1.045a3.427,3.427,0,0,1,.467-2.09,7.089,7.089,0,0,1,1.368-2.362c1.34-1.165,1.77.892,1.986,1.772a.278.278,0,0,0,.531,0Z" transform="translate(-439.284 -206.915)" fill="#eaa9a9"/><path d="M541.754,394.461c-.462-30.257-20.414-45.313-20.414-45.313-11.009-8.383-20.929-20.119-20.929-20.119a53.9,53.9,0,0,1-6.34-12.242L474,316.527l-20.338.648a48.064,48.064,0,0,1-6.075,11.853s-9.92,11.736-20.929,20.119c0,0-11.436,10.3-11.9,40.559l19.583,103.328h89.611C538.78,415.134,541.754,394.461,541.754,394.461Z" transform="translate(-393.677 -231.083)" fill="#f1f1f1"/><g transform="translate(74.174 87.021)"><path d="M501.343,329.541c-1.332,6.728-3.412,46.558-3.23,48.271.32,3.017,5.121,11.113,8.48,14.2,2.122-2.173,7.5-11.893,7.294-14.2-.253-2.8-5.3-43.36-6.038-47.746C507.659,328.94,502.193,328.777,501.343,329.541Z" transform="translate(-498.101 -322.658)" fill="#00a2be"/><path d="M500.811,320.987a8.088,8.088,0,0,0,.155,3.021c.142.75.053,2.5.466,2.934a5.452,5.452,0,0,0,1.978,1.029,13.513,13.513,0,0,0,3.883.122,5.594,5.594,0,0,0,2.05-.458c1.228-.5.732-2.538.97-3.864.107-.6.163-3.17-.44-3.764-.887-.873-1.468-.963-3.941-.987C504.3,319.005,501.322,318.739,500.811,320.987Z" transform="translate(-499.052 -319.004)" fill="#00a2be"/><g clip-path="url(#g)"><path d="M513.54,414.637c-3.371-.048-6.882-2.107-9.7-3.76l-.108-.064c-5.228-3.064-9.665-7.781-13.68-12.422l.742-.643c3.96,4.577,8.329,9.226,13.435,12.219l.108.063c2.722,1.6,6.111,3.581,9.222,3.626Z" transform="translate(-495.178 -347.584)" fill="#fff"/><path d="M517.691,405.665a12.555,12.555,0,0,0-3.218-1.254c-.6-.177-1.173-.344-1.695-.54a31.3,31.3,0,0,1-7.322-3.883,57.7,57.7,0,0,1-8.125-6.873c-.25-.255-.541-.6-.856-.974a10.131,10.131,0,0,0-2.112-2.094l.487-.852a10.509,10.509,0,0,1,2.377,2.314c.3.353.57.678.805.919a56.734,56.734,0,0,0,7.987,6.756,30.393,30.393,0,0,0,7.1,3.769c.493.185,1.051.348,1.626.515a13.263,13.263,0,0,1,3.48,1.375Z" transform="translate(-496.745 -344.48)" fill="#fff"/><path d="M517.776,394.85c-.825-.372-1.7-.671-2.546-.962-.583-.2-1.166-.4-1.743-.624a36.9,36.9,0,0,1-8.591-4.915,59.668,59.668,0,0,1-8.322-7.683l-.3-.32a6.284,6.284,0,0,1-1.119-1.419l.871-.453a5.453,5.453,0,0,0,.956,1.192l.318.336a58.719,58.719,0,0,0,8.185,7.56,35.486,35.486,0,0,0,8.362,4.789c.564.219,1.135.415,1.705.61.867.3,1.764.605,2.63,1Z" transform="translate(-497.031 -340.588)" fill="#fff"/><path d="M516.094,380.555a37.87,37.87,0,0,1-14.111-6.3,45.419,45.419,0,0,1-6.455-6.165l-.525-.564a4.545,4.545,0,0,1-.982-1.324l.9-.4a3.75,3.75,0,0,0,.793,1.042l.538.578a44.708,44.708,0,0,0,6.309,6.035,36.917,36.917,0,0,0,13.753,6.135Z" transform="translate(-496.621 -335.992)" fill="#fff"/><path d="M514.51,369.117c-6.256-1.172-12.742-5.556-19.278-13.031l.738-.647c6.388,7.3,12.686,11.582,18.721,12.712Z" transform="translate(-497.06 -332.228)" fill="#fff"/><path d="M514.619,358.23c-6.241-2.686-14.439-7.421-18.053-14.727l.88-.436c3.665,7.41,12.575,12.116,17.559,14.261Z" transform="translate(-497.544 -327.738)" fill="#fff"/><path d="M515.773,347.069c-8.016-1.778-13.562-8.569-18.132-14.795l.792-.581c4.464,6.082,9.87,12.713,17.552,14.417Z" transform="translate(-497.935 -323.609)" fill="#fff"/><path d="M515.3,335.709a29.746,29.746,0,0,1-4.656-1.7,34.9,34.9,0,0,1-13.622-12.455l.841-.506a33.817,33.817,0,0,0,13.2,12.074,28.86,28.86,0,0,0,4.506,1.647Z" transform="translate(-497.71 -319.745)" fill="#fff"/><path d="M513.273,327.426a26.491,26.491,0,0,1-10.312-7.692c-.19-.22-.4-.458-.626-.709a16.982,16.982,0,0,1-3.348-4.713l.922-.338a16.4,16.4,0,0,0,3.158,4.4c.227.254.442.495.636.719a25.231,25.231,0,0,0,9.947,7.429Z" transform="translate(-498.423 -317.178)" fill="#fff"/><path d="M514.86,322.976a22.279,22.279,0,0,1-6.078-4.685c-.438-.425-.869-.844-1.3-1.243-.29-.27-.6-.542-.912-.819a12.911,12.911,0,0,1-3.457-4.025l.9-.4a12.014,12.014,0,0,0,3.211,3.693c.32.283.635.56.931.836.434.4.871.828,1.313,1.258a21.555,21.555,0,0,0,5.795,4.493Z" transform="translate(-499.921 -316.389)" fill="#fff"/></g></g><path d="M540.4,357.7c-1.681-4.532-3.3-9.152-5.368-13.527-1.891-4-3.769-8.421-7.623-10.934-4.977-3.246-11.875-2.881-17.512-4.073-9.612-2.033-19.048-5.752-26.863-11.778-.724-.558-.97-.459-.97-.459.867,5.022,1.528,5.116,1.853,12.242.922,20.238-20.119,56.559-20.119,56.559s-25.256-35.286-24.427-54.366a56.773,56.773,0,0,1,1.621-12.232s-.6-.267-1.684,2.259c-1.573,3.663-7.336,9.87-12.877,15.072-12.232,11.483-32.753,22.158-36.246,28.663,0,0-7.467,11.276-8.078,47.263-.241,14.159-1.4,25.633,1.455,80.787h21.324l6.162-52.664,10.131,52.664h92.291c5.052-21.79,10.6-49.464,13.214-64.945Z" transform="translate(-381.667 -231.227)" fill="#003daa"/><g transform="translate(0 85.697)"><g clip-path="url(#h)"><g transform="translate(44.165 -3.682)"><path d="M459.888,327.551c-2.065,11-5.66,21.852-8.87,32.562a.607.607,0,0,0,.414.729c2.125.813,4.262,1.614,6.348,2.526,1.6.7,3.071,1.583,4.623,2.357a14.634,14.634,0,0,0,1.637.7c.527.183,1.266.884.868.181-.465-.821-.391,1.237-.424,1.464a13.211,13.211,0,0,1-.458,1.933,41.221,41.221,0,0,1-2.1,5.115c-.856,1.88-1.677,3.775-2.528,5.656a.609.609,0,0,0,.212.809c9.163,5.738,17.893,12.3,27.414,17.387.5.269,1.12-.428.64-.829-7.649-6.374-16.707-11.1-25.243-16.218-.422-.253-2.36-1.692-2.086-.97s.353-.306.592-.744a19.663,19.663,0,0,0,.782-1.825c1.716-4.085,3.479-8.036,5.384-12.012a1.4,1.4,0,0,0-.822-2.021c-4.131-1.634-8.576-2.443-12.768-4-.54-.2-1.117-.37-1.641-.612.574.265.1,1.007.436.215a37.562,37.562,0,0,0,1.2-4.127c2.648-9.207,5.744-18.574,7.141-28.072.071-.484-.656-.705-.75-.207Z" transform="translate(-450.994 -316.998)" fill="#fff"/><path d="M530.832,311.663c4.865,11.265,9.3,22.733,13.991,34.073a5.384,5.384,0,0,0,.629,1.526c.72.731-.374.415.484-.353-1.07.957-2.276,1.778-3.4,2.674-3.689,2.947-7.434,5.856-10.966,8.993a1.211,1.211,0,0,0-.184,1.428c2.247,5.226,6.714,9.156,10.126,13.589l.354-1.352c-5.687,3.84-11.6,7.373-17.337,11.144q-5.528,3.632-10.989,7.365c-2.446,1.678-5.138,3.307-7.171,5.492-.613.659.175,1.789.99,1.282,6.331-3.935,12.327-8.5,18.59-12.561q8.467-5.5,16.916-11.015a1,1,0,0,0,.354-1.352c-2.511-3.343-5.649-6.271-7.889-9.81-.154-.242-1.768-2.864-1.779-2.825.08-.3.786-.634,1-.859a32.271,32.271,0,0,1,2.906-2.466c3.307-2.785,6.615-5.576,9.97-8.3a.987.987,0,0,0,.264-1c-5.1-12.166-10.59-24.111-16.271-36.013-.19-.4-.754-.05-.585.341Z" transform="translate(-471.014 -311.145)" fill="#fff"/><path d="M507.542,425.809c1.544-5.427,2.291-10.835,4.346-16.165,2.237-5.8,5.552-11.638,6.738-17.766.219-1.131-1.351-1.96-1.96-.826-3.066,5.716-5.27,12.318-7.506,18.418-1.826,4.983-3.941,10.978-2.947,16.34.129.694,1.153.617,1.328,0Z" transform="translate(-470.944 -339.952)" fill="#464364"/></g></g></g><path d="M516.172,222.791c1.305-5.489,2.19-8.593,2.323-12.687.166-5.115-.377-11.69-3.434-15.869-2.909-3.975-5.532-6.759-11.973-6.521,0,0-5.08-8.345-22.931-4.118-8.3,1.966-14.074,8.524-17.994,16.058-3.036,5.835-1.631,17.847,1.73,23.667,0,0,3.579-1.356,5.961,4.9,0,0-6.761-25.043,12.214-30.054l.914.752,1.012-1.14a29.742,29.742,0,0,1,5.763-.134s25.288-2.435,20.926,28.182c0,0,.893-4.391,3.905-3.881Z" transform="translate(-410.276 -182.401)" fill="#212121"/><path d="M469.144,228.364c6.635,1.186,8.654-6.894,9.649-11.659,1.085-5.2,2.237-7.742,6.791-10.58-.69-1.061-1.16-3.324-2.348-3.69-3.626-1.116-6.63.456-8.985,3.246-4.1,4.854-5.655,12.139-4.7,18.344C469.777,225.516,470.31,227.43,469.144,228.364Z" transform="translate(-413.417 -189.541)" fill="#212121"/><path d="M497.822,200.485c-.513.885-1.021,1.886-1.455,2.8,4.2-1.635,10.176.592,12.353,4.639,1.72,3.2.689,5.963,1.557,9.369.472,1.852,2.708,4.09,4.968,4.115-1.486-1.954-2.426-3.516-2.449-5.849a17.107,17.107,0,0,0-.764-5.761,8.053,8.053,0,0,1,2.16,3.829c.977,3.167,1.145,5.449,3.678,8a10.222,10.222,0,0,0,8.684,2.556c1.254-.208,1.033-.01.939-1.115-.1-1.211-.7-2.564-.919-3.79q-.43-2.429-.81-4.868c-.575-3.654-1.259-7.05-3.332-10.212-2.214-3.379-5.661-8.433-9.765-9.677a12.356,12.356,0,0,0-12.484,2.992A15.1,15.1,0,0,0,497.822,200.485Z" transform="translate(-423.298 -186.587)" fill="#212121"/><path d="M519.673,247.348a1.067,1.067,0,0,0-1.818,0,3.013,3.013,0,0,0-.352,1.435,2.543,2.543,0,0,0,.12,1.039,1.06,1.06,0,0,0,1.041.923c.943-.036,1.324-.863,1.352-1.693A3.2,3.2,0,0,0,519.673,247.348Z" transform="translate(-430.966 -205.79)" fill="#212121"/><path d="M495.7,249.068a4.734,4.734,0,0,0-.073-.518c0-.016,0-.032-.006-.048-.011-.046-.026-.094-.04-.141a1.712,1.712,0,0,0-.526-.936,1.07,1.07,0,0,0-1.756.464,2.746,2.746,0,0,0,.439,2.818,1.054,1.054,0,0,0,1.64-.211c0-.008.006-.018.01-.026A2.081,2.081,0,0,0,495.7,249.068Z" transform="translate(-422.112 -205.898)" fill="#212121"/><path d="M485.457,236.727c2.549-.609,5.394-.978,7.738.5,1.157.73,2.237-1.119,1.071-1.832-2.8-1.714-6.452-1.237-9.239.311a.561.561,0,0,0,.43,1.021Z" transform="translate(-419.083 -201.242)" fill="#212121"/><path d="M522.7,235.707c-2.788-1.547-6.435-2.025-9.239-.311-1.165.712-.087,2.563,1.071,1.832,2.344-1.479,5.189-1.11,7.738-.5a.561.561,0,0,0,.431-1.021Z" transform="translate(-429.319 -201.242)" fill="#212121"/><path d="M509.425,242.118c-3.4,5.968,1.844,11.571-.322,17.522-.283.779.808,1.069,1.229.518a6.3,6.3,0,0,0,.819-6.368c-1.314-3.9-2.26-7.274-1.035-11.381a.38.38,0,0,0-.691-.291Z" transform="translate(-427.608 -204.01)" fill="#eaa9a9"/><path d="M499.353,275.662c.509,1.429,3.3,2.588,4.7,2.846,2.186.4,5.488-.671,6.7-2.6.345-.547-.311-1.015-.8-.8-1.856.8-3.906,2.372-6.03,1.888-1.372-.313-2.523-1.338-3.759-1.95-.392-.194-.981.134-.808.621Z" transform="translate(-424.371 -216.005)" fill="#eaa9a9"/><g transform="translate(128.804 61.862)"><path d="M592.405,426.671c-4.394-11.824-1.9-27.674-1.961-40.192-.132-26.5,1.3-36.668,1.3-36.668,12.094-9.114,25.982-3.646,25.982-3.646a366.439,366.439,0,0,1,8.679,48.706c1.475,14.9,6.246,33.517-9.252,42.951a13.92,13.92,0,0,1-7.825,2.19c-4.859-.243-9.419-2.138-12.154-5.94C595.287,431.439,593.473,429.543,592.405,426.671Z" transform="translate(-586.012 -303.112)" fill="#0d44a7"/><path d="M595.336,344.424l-.416,8.61s4.422,4.751,13.031,4.234a15.818,15.818,0,0,0,11.436-6.423l-1.8-9.09a17.4,17.4,0,0,0-12.446-1.807S596.553,341.37,595.336,344.424Z" transform="translate(-587.872 -301.3)" fill="#fff"/><path d="M608.949,313.161a1.587,1.587,0,0,1-.245-.965c.456-4.675,1.662-8.324,2.138-12.984.287-2.817,2.379-8.5.592-10.489-2.711-3.025-5.477-6.637-9.5-8.769l-.838-.251c-5.292-.926-17.293,1.656-16.359,3.723a10.259,10.259,0,0,0,1.688,2.51c-.247.155-.1.06-.283.234-1.679,1.581-2.563,1.9,1.227,6.233-.345-.226-3.492,3-3.508,5.156-.024,3.325,6.658,15,10.395,15.929l.782,12.2c7.552,3.831,12.373.144,15.6-1.7C609.585,316.014,609.729,314.633,608.949,313.161Z" transform="translate(-583.857 -279.51)" fill="#fcc"/><g transform="translate(2.334 3.689)"><path d="M598.779,302.411c2.037-.266,5.553-1.377,5.675-3.318.19-3.042-5.246-3.045-6.849-1.98-.608.4-.026,1.394.571.979a4.343,4.343,0,0,1,3.146-1.024,2.157,2.157,0,0,1,1.882,2.075c-.157.529-1.68,1.161-2.125,1.428-3.094,1.853-5.833,1.768-7.22-2.429-1.262-3.818.819-5.715,3.863-7.409,1.672-.93,3.483-1.577,5.16-2.488.347-.188.1-.68-.257-.609a20.589,20.589,0,0,0-5.973,2.591c-1.379.8-3.745,2.118-4.355,3.744a7.046,7.046,0,0,0,.456,4.54,12.662,12.662,0,0,0,.508,2.328c.393,1.073,1.259,2.349,1.359,3.472.252,2.82-3.6,2.219-4.928,1.026-1.361-1.222-1.393-2.761-1.063-4.44a.423.423,0,0,0-.814-.224c-1.349,3.416,2.164,7.936,5.946,6.76a2.94,2.94,0,0,0,2-3.8,17.785,17.785,0,0,0-.842-1.878,5.392,5.392,0,0,0,2.99.722,10.613,10.613,0,0,0-1.9,5.463,8.488,8.488,0,0,0,1.772,6.257c.624.677,1.513-.183,1.186-.915-.853-1.916-1.8-3.123-1.826-5.342a8.579,8.579,0,0,1,1.607-5.441A.273.273,0,0,0,598.779,302.411Z" transform="translate(-587.521 -286.146)" fill="#eaa9a9"/><path d="M591.807,294.748c-3.334-5.617,6.153-8.165,10.058-8.9.364-.068.2-.6-.15-.547-3.88.54-15.543,3.875-10.378,9.807C591.563,295.371,591.979,295.036,591.807,294.748Z" transform="translate(-588.435 -285.301)" fill="#eaa9a9"/></g></g><g transform="translate(57.686 86.917)"><path d="M472.219,335.478c3.4,11.881,11.826,37.371,24.4,47.254a2.055,2.055,0,0,0,.424.04.918.918,0,0,0,.054-.473c-2.357-.78-7.029-9.171-9.723-15.671C481.494,352.438,474.4,331.2,473,327a39.458,39.458,0,0,0-.57,4.613C472.332,332.973,472.219,335.478,472.219,335.478Z" transform="translate(-472.219 -321.803)" fill="#00a2be"/><g transform="translate(16.778 60.392)"><path d="M1.051,0H12.759a1.051,1.051,0,0,1,1.051,1.051V17.711a1.051,1.051,0,0,1-1.051,1.051H1.05A1.05,1.05,0,0,1,0,17.711V1.051A1.051,1.051,0,0,1,1.051,0Z" transform="translate(0.964 2.679)" fill="#fff"/><rect width="10.758" height="0.482" transform="translate(2.489 15.207)" fill="#4368ae"/><rect width="8.082" height="2.382" transform="translate(3.827 16.438)" fill="#363133"/><g transform="translate(3.305 4.208)"><g clip-path="url(#i)"><rect width="9.126" height="9.955" fill="#97d6dd"/><g transform="translate(-2.342 0.511)"><g transform="translate(3.055 4.016)"><path d="M512.662,435.349c.162,1.049-2.247,1.8-3.176,2.239a2.185,2.185,0,0,1-2.348-.466c-.514-.424-2.651-.457-2.216-1.019.514-.665,1.3-1.719,1.714-2.245a6.918,6.918,0,0,0,.631-2.051,5.274,5.274,0,0,0,1.282.642,3.816,3.816,0,0,0,1.893,0,2.791,2.791,0,0,0,.536,1.232C511.833,434.715,512.6,434.913,512.662,435.349Z" transform="translate(-504.864 -428.97)" fill="#fcc"/><path d="M511.447,428.031a6.461,6.461,0,0,1,.069,1.234,8.879,8.879,0,0,0,.206,1.689,3.494,3.494,0,0,1-1.971.124,3.045,3.045,0,0,1-1.2-.766,13.355,13.355,0,0,0-.155-1.945c.255-.351,1-.47,1.455-.6A1.836,1.836,0,0,1,511.447,428.031Z" transform="translate(-506.144 -427.476)" fill="#dea49f"/><path d="M511.464,427.736a.494.494,0,0,1,.071.174,1.836,1.836,0,0,0-1.6-.265,2.8,2.8,0,0,0-1.159,1.047c-.052-.206-.1-.722-.14-.918a2.16,2.16,0,0,1,1.358-.419C510.4,427.353,511.23,427.385,511.464,427.736Z" transform="translate(-506.233 -427.354)" fill="#ffdbc7"/></g><path d="M512,425.786c-.137-.183-.366-.294-.546-.087a1.484,1.484,0,0,0-.217-1.875c-.5-.7-1.732-.638-2.519-.515a1.852,1.852,0,0,0-1.482.914,1.38,1.38,0,0,0,.05,1.579c-.32-.245-.713.059-.68.523.027.384.543,1.117.85.716a1.686,1.686,0,0,0,.511,1.2c.688.566,1.015.75,1.547.75a2.521,2.521,0,0,0,1.542-.9,1.864,1.864,0,0,0,.3-1.043c.385.213.628-.147.723-.445A1.011,1.011,0,0,0,512,425.786Z" transform="translate(-502.44 -421.841)" fill="#fcc"/><path d="M506.913,427.973c.024-.068.021-.261.112-.277s.158.112.192.167a.762.762,0,0,1,.1.217c.011.04.022.111-.036.1-.039-.011-.061-.048-.106-.055a.072.072,0,0,0-.086.049c-.059.185.226.261.333.14.122-.136,0-.345-.076-.471-.065-.108-.176-.271-.322-.257-.178.017-.208.256-.166.391a.03.03,0,0,0,.058,0Z" transform="translate(-502.525 -423.42)" fill="#dea49f"/><path d="M514.688,427.739c.038-.133-.055-.311-.209-.285a.271.271,0,0,0-.173.134,1.2,1.2,0,0,0-.151.3c-.038.134.034.393.219.348a.263.263,0,0,0,.161-.338.06.06,0,0,0-.112.03c0,.047-.017.141-.066.163s-.073-.055-.081-.1a.326.326,0,0,1,.044-.2.672.672,0,0,1,.13-.224c.127-.11.167.085.188.168a.026.026,0,0,0,.05,0Z" transform="translate(-505.178 -423.373)" fill="#dea49f"/><path d="M507.836,434a5.43,5.43,0,0,0-.154,1.159,4.053,4.053,0,0,0,.3,1.477h3.653a5.334,5.334,0,0,0,.273-1.686,5.608,5.608,0,0,0-.175-1.16l-1.9-.025-1.928.062s-.021.066-.063.171Z" transform="translate(-502.831 -425.664)" fill="#f1f1f1"/><path d="M511.848,424.878a5.761,5.761,0,0,0,.22-1.2,2.545,2.545,0,0,0-.326-1.5,1.183,1.183,0,0,0-1.135-.618s-.482-.791-2.174-.391a2.724,2.724,0,0,0-1.706,1.523,2.9,2.9,0,0,0,.164,2.243s.339-.129.565.465c0,0-.641-2.374,1.158-2.849l.087.071.1-.108a2.865,2.865,0,0,1,.547-.013s2.4-.231,1.984,2.672c0,0,.084-.417.37-.368Z" transform="translate(-502.428 -421.049)" fill="#212121"/><path d="M507.391,425.406c.629.112.82-.654.914-1.105a1.266,1.266,0,0,1,.644-1c-.066-.1-.11-.315-.223-.35a.776.776,0,0,0-.852.308,2.258,2.258,0,0,0-.445,1.738C507.451,425.136,507.5,425.318,507.391,425.406Z" transform="translate(-502.726 -421.726)" fill="#212121"/><path d="M510.109,422.763c-.048.084-.1.179-.138.266a1.019,1.019,0,0,1,1.171.44c.163.3.065.565.148.888a.56.56,0,0,0,.471.39.877.877,0,0,1-.233-.554,1.626,1.626,0,0,0-.072-.547.769.769,0,0,1,.2.363,1.494,1.494,0,0,0,.348.758.967.967,0,0,0,.823.242c.119-.019.1,0,.089-.105s-.066-.243-.087-.359q-.04-.23-.076-.462a2.347,2.347,0,0,0-.316-.968c-.21-.32-.536-.8-.926-.917a1.171,1.171,0,0,0-1.183.284A1.442,1.442,0,0,0,510.109,422.763Z" transform="translate(-503.662 -421.446)" fill="#212121"/><path d="M512.2,427.4a.315.315,0,0,0,.01-.032.308.308,0,0,0-.032-.162.1.1,0,0,0-.173,0,.288.288,0,0,0-.033.136.233.233,0,0,0,.015.1.1.1,0,0,0,.095.087c.022,0,.031-.017.047-.025l.012-.006a.129.129,0,0,0,.05-.066c0-.005.008-.007.01-.012S512.2,427.405,512.2,427.4Z" transform="translate(-504.389 -423.266)" fill="#343942"/><path d="M509.908,427.369c0-.015-.006-.031-.008-.046s0-.005,0-.008l0-.008a.162.162,0,0,0-.05-.094.1.1,0,0,0-.166.044.26.26,0,0,0,.041.267.1.1,0,0,0,.1.015h0l0,0c.019-.008.039-.013.05-.033,0-.005,0-.011,0-.017A.2.2,0,0,0,509.908,427.369Zm-.2-.018s-.006-.006,0,0S509.708,427.354,509.706,427.35Z" transform="translate(-503.55 -423.277)" fill="#343942"/><path d="M508.937,426.2a.945.945,0,0,1,.733.048c.11.069.212-.106.1-.174a.885.885,0,0,0-.876.03.053.053,0,0,0,.041.1Z" transform="translate(-503.263 -422.835)" fill="#966"/><path d="M512.467,426.1a.885.885,0,0,0-.876-.03c-.11.068-.008.243.1.174a.946.946,0,0,1,.734-.048.053.053,0,0,0,.041-.1Z" transform="translate(-504.233 -422.835)" fill="#966"/><path d="M511.208,426.71c-.322.566.175,1.1-.03,1.661-.027.074.076.1.116.049a.6.6,0,0,0,.078-.6,1.668,1.668,0,0,1-.1-1.079.036.036,0,0,0-.066-.027Z" transform="translate(-504.071 -423.098)" fill="#dea49f"/><path d="M510.254,429.89c.048.136.312.245.445.27a.693.693,0,0,0,.636-.247c.032-.052-.029-.1-.076-.076-.176.076-.37.225-.571.179a1.749,1.749,0,0,1-.356-.185c-.038-.018-.093.013-.076.059Z" transform="translate(-503.764 -424.235)" fill="#de908b"/><g transform="translate(8.801 8.123)"><path d="M513.884,436.647h5.229c-.037-.088-.07-.178-.111-.264a2.326,2.326,0,0,0-.722-1.036,4.8,4.8,0,0,0-1.66-.386,6.28,6.28,0,0,1-2.546-1.116c-.069-.053-.092-.043-.092-.043a5.608,5.608,0,0,1,.175,1.16A5.334,5.334,0,0,1,513.884,436.647Z" transform="translate(-513.884 -433.801)" fill="#595c72"/></g><g transform="translate(0 8.123)"><path d="M505.3,436.647h-5.229c.038-.088.071-.178.112-.264a2.326,2.326,0,0,1,.722-1.036,4.8,4.8,0,0,1,1.66-.386,6.28,6.28,0,0,0,2.546-1.116c.069-.053.092-.043.092-.043a5.648,5.648,0,0,0-.176,1.16A5.336,5.336,0,0,0,505.3,436.647Z" transform="translate(-500.068 -433.801)" fill="#595c72"/></g><g transform="translate(6.413 8.249)"><path d="M510.443,435c-.127.638-.324,4.413-.306,4.575a3.394,3.394,0,0,0,.8,1.347,3.813,3.813,0,0,0,.691-1.347c-.024-.265-.5-4.11-.572-4.526C511.041,434.94,510.523,434.924,510.443,435Z" transform="translate(-510.135 -434.344)" fill="#753643"/><path d="M510.392,434.186a.768.768,0,0,0,.015.287c.013.071.005.236.045.278a.509.509,0,0,0,.187.1,1.274,1.274,0,0,0,.368.011.537.537,0,0,0,.194-.043c.116-.047.069-.24.092-.366.01-.057.015-.3-.041-.357-.084-.083-.14-.091-.374-.094C510.723,434,510.44,433.973,510.392,434.186Z" transform="translate(-510.225 -433.998)" fill="#923643"/><g clip-path="url(#j)"><path d="M511.6,443.063a2.038,2.038,0,0,1-.919-.357l-.011-.006a5.475,5.475,0,0,1-1.3-1.177l.07-.061a5.41,5.41,0,0,0,1.273,1.158l.01.006a1.985,1.985,0,0,0,.875.344Z" transform="translate(-509.858 -436.707)" fill="#d4a77c"/><path d="M511.992,442.212a1.215,1.215,0,0,0-.305-.119c-.057-.017-.111-.032-.161-.051a2.959,2.959,0,0,1-.694-.368,5.439,5.439,0,0,1-.77-.651c-.024-.025-.052-.057-.082-.092a.948.948,0,0,0-.2-.2l.046-.081a1,1,0,0,1,.226.219c.028.034.054.064.076.087a5.368,5.368,0,0,0,.757.64,2.871,2.871,0,0,0,.673.357c.047.018.1.033.154.049a1.265,1.265,0,0,1,.33.13Z" transform="translate(-510.007 -436.413)" fill="#d4a77c"/><path d="M512,441.187c-.078-.036-.161-.064-.241-.091-.055-.019-.11-.038-.165-.059a3.5,3.5,0,0,1-.814-.466,5.629,5.629,0,0,1-.789-.728l-.029-.031a.578.578,0,0,1-.106-.134l.082-.043a.507.507,0,0,0,.091.113l.03.032a5.565,5.565,0,0,0,.776.717,3.356,3.356,0,0,0,.793.454c.053.02.108.039.162.057.082.029.167.057.249.095Z" transform="translate(-510.034 -436.044)" fill="#d4a77c"/><path d="M511.841,439.832a3.6,3.6,0,0,1-1.338-.6,4.313,4.313,0,0,1-.612-.585l-.05-.053a.422.422,0,0,1-.093-.125l.085-.038a.351.351,0,0,0,.075.1l.051.055a4.217,4.217,0,0,0,.6.572,3.5,3.5,0,0,0,1.3.582Z" transform="translate(-509.995 -435.608)" fill="#d4a77c"/><path d="M511.691,438.748a3.425,3.425,0,0,1-1.828-1.235l.07-.061a3.334,3.334,0,0,0,1.775,1.2Z" transform="translate(-510.036 -435.251)" fill="#d4a77c"/><path d="M511.7,437.716a3.363,3.363,0,0,1-1.711-1.4l.083-.041a3.356,3.356,0,0,0,1.665,1.352Z" transform="translate(-510.083 -434.826)" fill="#d4a77c"/><path d="M511.811,436.658a3.175,3.175,0,0,1-1.719-1.4l.075-.055a3.1,3.1,0,0,0,1.663,1.366Z" transform="translate(-510.12 -434.434)" fill="#d4a77c"/><path d="M511.766,435.581a2.812,2.812,0,0,1-.441-.161,3.309,3.309,0,0,1-1.291-1.18l.08-.048a3.2,3.2,0,0,0,1.252,1.145,2.707,2.707,0,0,0,.427.156Z" transform="translate(-510.098 -434.068)" fill="#d4a77c"/><path d="M511.573,434.8a2.512,2.512,0,0,1-.977-.729l-.06-.067a1.619,1.619,0,0,1-.317-.447l.087-.032a1.553,1.553,0,0,0,.3.417l.061.068a2.394,2.394,0,0,0,.943.7Z" transform="translate(-510.166 -433.825)" fill="#d4a77c"/><path d="M511.724,434.374a2.118,2.118,0,0,1-.576-.444l-.123-.118-.087-.078a1.217,1.217,0,0,1-.327-.382l.085-.038a1.14,1.14,0,0,0,.3.35l.088.08c.041.038.083.078.125.119a2.041,2.041,0,0,0,.549.426Z" transform="translate(-510.308 -433.75)" fill="#d9ac6a"/></g></g><path d="M508.236,432.593l1.654.667,1.639-.7.3.759-1.311,1.195-.63-1.083-.475,1.08-1.555-.974Z" transform="translate(-502.897 -425.226)" fill="#fff"/></g></g></g><path d="M512.659,415.357H508.4a1.994,1.994,0,0,0-3.948,0h-4.261a1.635,1.635,0,0,0-1.633,1.633v17.424a1.635,1.635,0,0,0,1.633,1.633h12.471a1.635,1.635,0,0,0,1.633-1.633V416.989A1.635,1.635,0,0,0,512.659,415.357Zm-6.235-1.247a.508.508,0,1,1-.508.508A.508.508,0,0,1,506.424,414.109Zm6.9,20.3a.671.671,0,0,1-.669.67H500.189a.672.672,0,0,1-.67-.67V416.989a.671.671,0,0,1,.67-.669h12.471a.671.671,0,0,1,.669.669Z" transform="translate(-498.556 -413.641)" fill="#fff" opacity="0.5"/></g><path d="M529.051,318.84s-3.69,29.221-10.417,45.98a66.52,66.52,0,0,1-7.787,14.716,1.013,1.013,0,0,1-.153.151c-.042.035-.194.073-.173.082a1.238,1.238,0,0,0,1.06-.088,10.947,10.947,0,0,0,1.561-1.268c10.71-14.158,13.691-28.168,17.526-48.823,0,0-.215-3.789-.513-5.562C529.746,321.6,529.051,318.84,529.051,318.84Z" transform="translate(-486.12 -318.84)" fill="#00a2be"/><path d="M513.638,422.289l-12.456,7.55.018,3.642,12.405-7.423Z" transform="translate(-482.731 -356.388)" fill="#fff" opacity="0.5"/><path d="M513.732,429.106l-12.456,7.55.039,1.021,12.4-7.423Z" transform="translate(-482.765 -358.862)" fill="#fff" opacity="0.5"/></g><path d="M478.063,304.184l17.454,7.041,17.294-7.428,3.2,8.007-13.836,12.6-6.643-11.425-5.015,11.4-16.4-10.277Z" transform="translate(-415.222 -226.463)" fill="#fff"/></g><g transform="translate(193.906 222.762)"><g transform="translate(124.059 13.647)"><path d="M408.163,324.319c-2.433-7.22-5.569-17.917-5.569-17.917a57.593,57.593,0,0,1-7.574-4.345c-3.313-2.567-5.336-2.283-3.813-8.915-3.2-5.639-4.052-6.907,1.318-10.12,2.843-1.7,13.477-5.949,14.592-4.766a21.433,21.433,0,0,1,6.105,11.639c.739,3.2,1.691,9.838,1.691,9.838,2.038,4.221,6.044,14.688,7.806,18.728C425.973,325.914,409.455,328.155,408.163,324.319Z" transform="translate(-388.649 -278.05)" fill="#ffcbcb"/><path d="M411.129,290.731c-.341-1.484-1.247-2.983-2.863-3.222a.534.534,0,0,0-.565.23,9.379,9.379,0,0,0-.982,1.725.661.661,0,1,0,1.212.512c.08-.241.331-1.52.551-1.572.534-.124,1.187,1.607,1.3,1.981a1.2,1.2,0,0,1-.3,1.5,3.873,3.873,0,0,1-2.567.97c-1.217-.255-2.036-2.272-2.581-3.32-.817-1.573-1.335-3.251-2.047-4.868-.233-.527-.933-.116-.859.362a19.589,19.589,0,0,0,2.668,6.918,7,7,0,0,0,1.253,1.628c-.02.036-.041.074-.064.108a2.537,2.537,0,0,1-.388.461,6.843,6.843,0,0,1-1.291.811c-.114.064-.228.131-.342.2a2.359,2.359,0,0,0-.882-2.2,2.064,2.064,0,0,0-1.61-.244c-.2-.566-.6-1.17-.777-1.6a15.471,15.471,0,0,1-1.291-4.657c-.051-.659-1.075-.672-1.038,0a17.6,17.6,0,0,0,1.179,4.973,16.315,16.315,0,0,0,.592,1.657c-.44.151-.852.305-1.194.391-.414.1-.827.205-1.237.312-.163-.5-.438-1.019-.584-1.439-.514-1.489-.942-3.006-1.451-4.494a.5.5,0,0,0-.957.264,30.876,30.876,0,0,0,1.344,4.7c.126.372.232.869.4,1.318a16.161,16.161,0,0,0-2.39.908c-.638.308-.187,1.312.475,1.128,1.753-.486,3.487-1.02,5.244-1.5,1.127-.3,2.775-1.05,2.414.894a3.474,3.474,0,0,1-2.745,2.542.681.681,0,0,0,0,1.3c1.159.424,2.428-.312,3.327-1.447,1.578-.363,3.5-1.164,4.092.777a8.511,8.511,0,0,1,.281,2.658c-.019.849-.318,1.7-.267,2.539a.64.64,0,0,0,1.078.447c1.315-1.479.924-5.1.062-6.727-.947-1.791-2.57-1.549-4.175-1.1a11.886,11.886,0,0,0,1.622-.736,5.538,5.538,0,0,0,2.106-1.541,3.314,3.314,0,0,0,1.446-.239C409.768,293.494,411.527,292.46,411.129,290.731Z" transform="translate(-390.251 -280.363)" fill="#eaa9a9"/></g><path d="M402.731,317.154l-17.338,7.154c3.1,10.468,5.472,28.669,3.036,32.835-3.571,6.107-9.039,5.482-17.832,6.874-6.953,1.1-14.594,2.346-24.6,1.458l3.032,6.293c.751.968.765,2.524,1.008,3.866,1.152,6.374,2.2,12.836,3.887,19.134,2.129,7.929,4.357,11.044,14.85,11.251,8.794.174,34.423-.685,46.454-26.281C419.6,370.441,424.309,350.366,402.731,317.154Z" transform="translate(-249.109 -278.597)" fill="#fff"/><path d="M280.248,262.192c-1.754-4.6-5.127-4.875-9.14-5.414a23.079,23.079,0,0,0-18.084,6.239c-10.064,10.409-9.549,24.418-5.328,37.445,2.2,6.792,6.838,14.14,3.318,21.108-1.628,3.223-5.142,3.8-8.413,3.878,4.24,4.7,14.273,4.764,19.128,2.511,10.969-5.089,14.277-20,16.685-31.44,1.626-7.722-1.225-15.023-.628-22.878C278.063,270,280.58,266.453,280.248,262.192Z" transform="translate(-211.58 -256.628)" fill="#212121"/><g transform="translate(42.785 47.347)"><path d="M322.254,396.966c1.588,10.284-14.949,25.034-24.06,29.346-8.069,3.817-16.478.827-23.027-4.57-5.043-4.156-13.267-13.112-14.042-20.044-.871-7.84,8.476-10.395,12.551-15.548,2.518-3.175,6.017-6.726,6.651-10.7a28.738,28.738,0,0,0,.273-6.158A29.678,29.678,0,0,0,289,375.9c3.934,1.861,10.971,3.381,16.4,2.133a50.182,50.182,0,0,0,3.426,5.356C312.236,387.6,321.6,392.684,322.254,396.966Z" transform="translate(-261.069 -344.866)" fill="#ffcbcb"/><path d="M314.407,337.6c.952,4.429-2.761,11.354-2.6,15.57.236,6.017.952,8.239,3.13,12.152-5.426,1.248-12.669.364-16.6-1.5-3.241-1.536-5.721-4-8.195-7.253-.28-4.924-1.6-9.759-2.79-14.389,2.5-3.44,6.917-5.891,11.369-7.183A18.028,18.028,0,0,1,314.407,337.6Z" transform="translate(-270.608 -332.148)" fill="#eaa9a9"/><path d="M312.926,334.7a4.876,4.876,0,0,1,.694,1.705,18.028,18.028,0,0,0-15.688-2.6c-4.452,1.292-8.874,3.743-11.369,7.183-.517-2.015-1.012-3.994-1.381-5.921,2.1-2.813,9.672-4.105,13.326-4.112C302.517,330.944,310.631,331.262,312.926,334.7Z" transform="translate(-269.821 -330.952)" fill="#ffdbc7"/></g><path d="M317.619,302c-1.419-1.83-3.755-2.915-5.544-.792.659-9-.788-15.226-4.836-20.636-5.212-6.966-14.883-8.241-22.832-6.863-6.217,1.078-10.749,6.151-13.112,11.713-2.037,4.8-1.417,8.45-1.591,12.816,0,1.544.057,3.128.172,4.727-3.281-2.427-7.211.72-6.8,5.417.342,3.885,5.688,9.725,8.738,5.612,2.5,8.231,7.559,15.214,17,17.046,12.25,2.378,19.646-7.466,22.481-17.667,3.937,2.092,6.338-1.594,7.25-4.633C319.281,306.281,319.178,304.009,317.619,302Z" transform="translate(-219.002 -262.648)" fill="#ffcbcb"/><path d="M266.22,326.4c.263-.729.156-2.3.912-2.7.794-.424,1.721.982,2.081,1.532a6.848,6.848,0,0,1,1.043,2.317c.106.54.106.944-.453.654a2.435,2.435,0,0,0-1.133-.443.789.789,0,0,0-.74.563c-.778,1.93,2.4,2.7,3.491,1.453,1.265-1.451-.07-3.627-.9-4.933-.7-1.106-1.95-2.784-3.472-2.458-1.686.361-1.939,2.667-1.462,4.015a.332.332,0,0,0,.634,0Z" transform="translate(-219.845 -280.479)" fill="#dea49f"/><path d="M344.968,322.674c.4-1.364-.62-3.178-2.184-2.9a2.757,2.757,0,0,0-1.761,1.4,12.167,12.167,0,0,0-1.488,3.072c-.389,1.4.419,4.064,2.319,3.569a2.7,2.7,0,0,0,1.612-3.523.665.665,0,0,0-1.229.333c.02.42-.14,1.448-.614,1.624s-.665-.5-.753-.945a3.157,3.157,0,0,1,.392-1.979,6.975,6.975,0,0,1,1.263-2.287c1.235-1.133,1.66.827,1.891,1.636a.289.289,0,0,0,.552,0Z" transform="translate(-246.728 -279.538)" fill="#dea49f"/><path d="M272.036,265.94c-5.879,4.064-11.618,10.478-10.993,18.088.371,4.519.842,7.943,3.272,11.707a12.818,12.818,0,0,0,9.567,5.533c-2.953-4.434-.759-10.314,1.6-13.8,3.684-5.438,5.878-6.572,10.923-10.568-.446,2.948-.265,4.277-1.941,6.877a25.192,25.192,0,0,1-8.113,7c4.736.332,6.614-.077,10.451-3.186,7.135-5.782,5.537-11.319,5.537-11.32,1.246.666,1.981,1,2.279,1.158a39.233,39.233,0,0,1,10.472,7.994c3.148,3.49,4.817,7.569,4.231,12.224,6.49-2.691,8.922-10.372,7.932-16.808-1.17-7.6-5.22-15.1-11.877-19.21C296.428,256.116,279.541,256.835,272.036,265.94Z" transform="translate(-218.257 -257.177)" fill="#212121"/><path d="M324.522,519.17c2.106-28.154,7.081-53.676,6.387-68.185-.906-18.911-4.4-49.341-29-62.106,0,0-9.891-.838-15.515.092l-1.907,6.014-2.988-5.522-16.933,2.666c-4.787,3.306-21.113,13.084-26.688,27.5-7.118,18.4,15.444,79.808,16.257,99.542Z" transform="translate(-209.364 -304.504)" fill="#9be0e8"/><g transform="translate(31.021 139.235)"><path d="M328.795,489l-5.37.75-2.212-3.178-9.871,1.479-2.963,3.879-42.743,6.133-9.3,43.781,56.693-1.016Z" transform="translate(-247.585 -479.323)" fill="#e0e0e0"/><path d="M325.583,489.574,260.412,498.9l-1.505,43.042,52.8-2.591Z" transform="translate(-248.519 -480.413)" fill="#fff"/><path d="M254.431,497.281l67.878-9.529L308.98,538.858l-46.392,1.784Z" transform="translate(-246.895 -479.751)" fill="#eee"/><path d="M248.494,490.72l7.715,44.178,51.455-.745,5.114-54.316Z" transform="translate(-244.74 -476.879)" fill="#fff"/><path d="M304.019,485.307l-4.494.665-3.248-4.2-10.306,1.569-1.8,4.9L242.6,494.393l8.748,45.709,56.693-1.016Z" transform="translate(-242.601 -477.581)" fill="#e0e0e0"/><g transform="translate(62.923)"><path d="M344.067,486.809l-2.692.3c.08-1.093.131-2.118.156-3.054l2.788-.436C344.23,485.649,344.067,486.809,344.067,486.809Z" transform="translate(-341.375 -478.253)" fill="#eee"/><path d="M344.354,480.563l-2.788.436a51.994,51.994,0,0,0-.095-5.355l2.888-.452C344.442,477.325,344.415,479.152,344.354,480.563Z" transform="translate(-341.41 -475.193)" fill="#0090a9"/></g><path d="M318.355,508.693l-8.886,1.143L313,540.656l8.729.22Z" transform="translate(-266.871 -487.352)" fill="#fff"/><g transform="translate(34.684 29.735)"><path d="M305.284,537.864l-1.928-15.734a.313.313,0,0,0-.313-.26l-5.745.693a.24.24,0,0,0-.25.265l1.879,15.413a.313.313,0,0,0,.313.26l5.794-.372A.24.24,0,0,0,305.284,537.864Z" transform="translate(-297.046 -521.87)" fill="#fff"/><path d="M299.692,537.945l-1.8-14.356a.344.344,0,0,1,.36-.382l4.537-.54a.451.451,0,0,1,.451.375l1.746,14.6a.345.345,0,0,1-.36.382l-4.485.3A.451.451,0,0,1,299.692,537.945Zm3.3-14.9a.174.174,0,0,0-.175-.145l-4.538.54a.134.134,0,0,0-.139.148l1.8,14.355a.174.174,0,0,0,.175.145l4.485-.3a.134.134,0,0,0,.139-.148Z" transform="translate(-297.353 -522.159)" fill="#0090a9"/></g></g><g transform="translate(62.75 189.502)"><path d="M334.524,579.281c6.154.59,12.066-2.827,16.314-7.059,2.775-2.765-4.248-.529-5.114-.309-2.765.7-5.671,1.472-8.387,2.332-.945.3-3.173.926-3.682,1.842C333.258,576.8,334.028,578.823,334.524,579.281Z" transform="translate(-307.339 -560.18)" fill="#eaa9a9"/><path d="M333.665,569.033c2.182-.445,4.3-2.134,6.18-3.246,1.553-.921,3.214-1.71,4.719-2.706,1.674-1.107,2.734-3.147,4.515-4.075,2.813-1.466-.8,4.542-1.194,5.183a20.765,20.765,0,0,1-4.507,5.1c-1.3,1.076-4.231,3.325-6.054,3.143-1.391-.138-1.758-1.671-2.618-2.509C334.353,569.581,333.934,569.435,333.665,569.033Z" transform="translate(-307.383 -555.798)" fill="#eaa9a9"/><path d="M302.222,558.086c1.447.254,4.5,3.29,5.942,2.907,1.487-.4,1.981-1.709,3.007-2.713a16.877,16.877,0,0,1,5.43-3.041c.989-.416,3.459-1.333,4.127-1.1,3.188,1.1-4.268,5.168-4.028,6.676a2.326,2.326,0,0,0,2.544,1.175c1.893-.432,3.318-.912,5.168-1.477a8.676,8.676,0,0,0,3.66-2.553c.856-.936,1.573-2.44,2.69-3.088.433-.251.848-.262.914.312a7.652,7.652,0,0,1-1.014,4.954,20.573,20.573,0,0,1-3.4,3.775,16.071,16.071,0,0,1-4.22,2.8,3.78,3.78,0,0,1,1.832,3.313,2.019,2.019,0,0,1,.379,2.648s-10.634,3.584-32.839-4.084" transform="translate(-292.408 -554.1)" fill="#ffcbcb"/></g><path d="M231.52,473.147c-4.844-9.222,4.688-40.357,5.214-52.194.122-2.743.064-13.124.064-13.124-7.289,4.034-20,12.608-31.623,31.046-6.244,9.9-13.844,27.718-10.414,42.67,8.39,36.579,66.72,40.406,66.72,40.406l11.5-18.47S236.692,482.994,231.52,473.147Z" transform="translate(-193.906 -311.508)" fill="#fff"/><path d="M319.867,317.555a1.107,1.107,0,0,0-1.887,0,3.113,3.113,0,0,0-.366,1.489,2.647,2.647,0,0,0,.124,1.078,1.1,1.1,0,0,0,1.082.958c.979-.037,1.374-.9,1.4-1.758A3.323,3.323,0,0,0,319.867,317.555Z" transform="translate(-238.804 -278.551)" fill="#212121"/><path d="M298.1,319.341a4.812,4.812,0,0,0-.075-.538c0-.017,0-.033-.007-.05-.011-.048-.027-.1-.041-.146a1.777,1.777,0,0,0-.547-.971,1.111,1.111,0,0,0-1.823.481,2.851,2.851,0,0,0,.455,2.926,1.1,1.1,0,0,0,1.7-.22c0-.009.006-.018.011-.027A2.158,2.158,0,0,0,298.1,319.341Z" transform="translate(-230.744 -278.663)" fill="#212121"/><path d="M311.586,317.893a6.611,6.611,0,0,0,.733,4.773c.287.469,1.558,1.487,1.487,2.033-.089.677-1.259,1.4-1.566,2.1-.15.343.2.881.592.592.888-.657,2.576-1.935,2.158-3.245-.278-.873-1.427-1.467-1.871-2.267-.688-1.24-.658-2.638-.954-3.985a.3.3,0,0,0-.578,0Z" transform="translate(-236.564 -278.787)" fill="#eaa9a9"/><path d="M292.579,306.389a18.759,18.759,0,0,1,2.686.679,8.883,8.883,0,0,0,2.481.643c.483.011.856-.7.429-1.034a10.289,10.289,0,0,0-5.412-1.648c-.768-.05-.958,1.231-.184,1.359Z" transform="translate(-229.541 -274.195)" fill="#212121"/><path d="M315.291,307.732c1.486-.946,3.128-1.542,4.609-.21a.515.515,0,0,0,.806-.622c-1.119-2.436-4.68-2.092-6.218-.21-.445.544.12,1.477.8,1.042Z" transform="translate(-237.615 -274.249)" fill="#212121"/><path d="M305.2,337.332c-1.249-.879-2.237-1.052-2.951-.342-1.252,1.245.119,3.369.957,4.476.92,1.215,2.242,2.474,3.529,1.149a8.655,8.655,0,0,0,2.5-4.015c.3-1.572-.981-2.584-2.215-1.9C306.571,336.954,305.927,337.844,305.2,337.332Z" transform="translate(-233.047 -285.613)" fill="#eaa9a9"/><circle cx="1.384" cy="1.384" r="1.384" transform="translate(73.743 97.324)" fill="#212121"/><path d="M313.225,422.232a1.384,1.384,0,1,1-1.384-1.384A1.384,1.384,0,0,1,313.225,422.232Z" transform="translate(-236.209 -316.233)" fill="#212121"/><path d="M313.93,434.328a1.384,1.384,0,1,1-1.384-1.384A1.384,1.384,0,0,1,313.93,434.328Z" transform="translate(-236.465 -320.624)" fill="#212121"/><g transform="translate(55.448 81.483)"><path d="M280.945,390.276c.417,1.388,3.776,22.965,22.417,29.668a3.484,3.484,0,0,0,.44.031,3.937,3.937,0,0,0,.355-.931c-2.455-.745-7.288-3.815-11.761-9.547-8.752-11.218-9.235-22.349-9.243-22.354S280.936,390.247,280.945,390.276Z" transform="translate(-280.945 -385.482)" fill="#00a2be"/><g transform="translate(15.484 33.693)"><rect width="14.323" height="19.46" rx="1.09" transform="translate(0.851 4.511) rotate(-14.099)" fill="#fff"/><rect width="11.159" height="0.5" transform="matrix(0.97, -0.244, 0.244, 0.97, 5.551, 16.728)" fill="#4368ae"/><rect width="8.383" height="2.47" transform="translate(7.208 17.628) rotate(-14.099)" fill="#363133"/><g transform="translate(3.593 3.151)"><g clip-path="url(#k)"><rect width="9.466" height="10.326" transform="translate(0 2.306) rotate(-14.099)" fill="#97d6dd"/><g transform="translate(1.814 1.822)"><path d="M316.641,445.968a1.018,1.018,0,0,0-1.029-.437,2.335,2.335,0,0,0-1.5,1.156,3.437,3.437,0,0,0,.382,3.634c.366.585.973,1.164.808,1.9-.076.341-.392.478-.7.562a1.847,1.847,0,0,0,1.851-.215c.908-.735.868-2.21.824-3.339a16.386,16.386,0,0,0-.6-2.129C316.621,446.751,316.773,446.36,316.641,445.968Z" transform="translate(-313.739 -445.338)" fill="#212121"/><g transform="translate(2.751 4.345)"><path d="M323.727,457.81c.391.927-.812,2.7-1.565,3.316a2.07,2.07,0,0,1-2.265.114,3.884,3.884,0,0,1-1.788-1.548c-.266-.714.55-1.173.81-1.753a2.56,2.56,0,0,0,.371-1.159,2.792,2.792,0,0,0-.119-.584,2.867,2.867,0,0,0,.943.422,2.744,2.744,0,0,0,1.587-.186,4.891,4.891,0,0,0,.447.421C322.568,457.168,323.565,457.425,323.727,457.81Z" transform="translate(-318.057 -453.557)" fill="#ffdbc7"/><path d="M321.293,452.44c.194.393.009,1.129.123,1.521a2.136,2.136,0,0,0,.58,1.065,2.824,2.824,0,0,1-1.591.25,2.179,2.179,0,0,1-.938-.487,7.354,7.354,0,0,0-.6-1.283,2.083,2.083,0,0,1,.9-.94A1.74,1.74,0,0,1,321.293,452.44Z" transform="translate(-318.35 -452.149)" fill="#dea49f"/><path d="M321.035,452.2a.464.464,0,0,1,.105.143,1.74,1.74,0,0,0-1.531.126,2.083,2.083,0,0,0-.9.94c-.1-.176-.189-.35-.268-.522.13-.313.81-.612,1.152-.7C319.971,452.094,320.739,451.933,321.035,452.2Z" transform="translate(-318.198 -452.053)" fill="#ffdbc7"/></g><path d="M321.1,448.871c-.176-.138-.42-.185-.538.056a2.762,2.762,0,0,0-.939-1.82,2.245,2.245,0,0,0-2.3-.106,1.79,1.79,0,0,0-.953,1.407,3.012,3.012,0,0,0,.152,1.238c.036.145.079.292.127.439-.364-.15-.659.237-.51.668.124.355.762.777.951.32a2.149,2.149,0,0,0,1.994,1.2c1.2-.066,1.665-1.162,1.691-2.185.419.1.557-.3.57-.6A.679.679,0,0,0,321.1,448.871Z" transform="translate(-314.596 -445.779)" fill="#ffdbc7"/><path d="M316.437,452.747c.008-.075-.039-.218.022-.275s.184.052.231.095a.654.654,0,0,1,.152.192c.022.048.032.085-.027.071a.234.234,0,0,0-.117-.015.077.077,0,0,0-.057.071c-.027.2.289.2.362.054.085-.166-.092-.338-.2-.441-.092-.087-.248-.215-.383-.148s-.119.3-.043.411a.032.032,0,0,0,.059-.015Z" transform="translate(-314.673 -447.81)" fill="#dea49f"/><path d="M323.765,450.524c.006-.138-.133-.284-.273-.22a.265.265,0,0,0-.132.173,1.172,1.172,0,0,0-.068.323c0,.141.135.371.3.28a.262.262,0,0,0,.068-.369.065.065,0,0,0-.108.06c.012.039.021.139-.019.166-.1.069-.112-.212-.1-.265a.669.669,0,0,1,.064-.245c.089-.135.175.039.216.109a.028.028,0,0,0,.052-.013Z" transform="translate(-317.206 -447.068)" fill="#dea49f"/><path d="M315.838,446.514a2.084,2.084,0,0,0-.6,1.954,2.21,2.21,0,0,0,.582,1.02,1.238,1.238,0,0,0,1.026.294,1.252,1.252,0,0,1-.175-1.331,3.8,3.8,0,0,1,.775-1.247,1.307,1.307,0,0,1-.02.69,2.428,2.428,0,0,1-.6.847,1.147,1.147,0,0,0,.9-.545c.533-.71.252-1.191.252-1.191.132.033.209.047.241.055a3.783,3.783,0,0,1,1.17.5,1.449,1.449,0,0,1,.684,1.045,1.481,1.481,0,0,0,.347-1.761,2.643,2.643,0,0,0-1.565-1.521A2.743,2.743,0,0,0,315.838,446.514Z" transform="translate(-314.255 -445.233)" fill="#212121"/><path d="M326.869,468.594c-.465-2.688-.6-5.2-1.006-6.54-.53-1.751-1.573-4.52-4.179-5.138a8.009,8.009,0,0,0-1.452.374l-.022.643-.425-.482-1.524.648a6.552,6.552,0,0,0-1.854,3.2c-.233,1.893,3.326,7.116,3.867,8.945Z" transform="translate(-314.703 -449.473)" fill="#e2e0e3"/><path d="M319.508,457.039l1.292.054.4.539-.016-.649.9-.714.625.38-.69,1.474-.657-.874-.142.449-.4-.311-.1,1.039-1.535-.6Z" transform="translate(-315.715 -449.239)" fill="#fff"/><path d="M317.413,466.772c-.671-.75-.51-3.892-.74-5.014-.054-.26-.3-1.231-.3-1.231a8.449,8.449,0,0,0-2.233,3.654,6.046,6.046,0,0,0,.029,4.243c1.647,3.23,7.2,2.216,7.2,2.216l.643-2S318.13,467.572,317.413,466.772Z" transform="translate(-313.747 -450.784)" fill="#fff"/><path d="M328.108,463.766c.237-.978-1.389-3.671-1.717-4.768-.076-.254-.315-1.228-.315-1.228a8.448,8.448,0,0,1,3.694,2.165,6.046,6.046,0,0,1,1.981,3.753c.075,3.625-5.3,5.357-5.3,5.357l-1.512-1.46S327.855,464.811,328.108,463.766Z" transform="translate(-317.803 -449.783)" fill="#fff"/><path d="M321.321,450.893c0-.006.006-.009.006-.015s0-.012-.005-.018a.32.32,0,0,0,0-.035.324.324,0,0,0-.075-.158.108.108,0,0,0-.178.045.3.3,0,0,0,0,.148.242.242,0,0,0,.041.1.1.1,0,0,0,.12.065c.022-.007.028-.025.042-.039l.01-.01A.135.135,0,0,0,321.321,450.893Z" transform="translate(-316.397 -447.194)" fill="#343942"/><path d="M319.25,451.476a.212.212,0,0,0,0-.129.456.456,0,0,0-.02-.045s0-.006,0-.008l-.006-.007a.172.172,0,0,0-.076-.084.108.108,0,0,0-.16.088.276.276,0,0,0,.112.264.1.1,0,0,0,.108-.01h0l0,0c.017-.012.038-.023.043-.046C319.254,451.488,319.249,451.483,319.25,451.476Zm-.213-.095s-.007-.005,0,0S319.04,451.384,319.037,451.381Z" transform="translate(-315.642 -447.395)" fill="#343942"/><path d="M320.47,450.907a.639.639,0,0,0,.181.43c.038.037.181.1.187.155s-.085.161-.1.234c-.006.036.039.078.069.041.068-.083.2-.242.125-.355-.047-.075-.168-.1-.229-.169a1.325,1.325,0,0,1-.183-.351.029.029,0,0,0-.054.014Z" transform="translate(-316.182 -447.282)" fill="#dea49f"/><path d="M322.741,459.578a.134.134,0,1,1-.162-.1A.134.134,0,0,1,322.741,459.578Z" transform="translate(-316.91 -450.403)" fill="#515c72"/><path d="M323.084,460.631a.134.134,0,1,1-.162-.1A.133.133,0,0,1,323.084,460.631Z" transform="translate(-317.035 -450.785)" fill="#515c72"/><path d="M323.435,461.748a.134.134,0,1,1-.162-.1A.134.134,0,0,1,323.435,461.748Z" transform="translate(-317.162 -451.191)" fill="#515c72"/><path d="M320.416,453.256a.393.393,0,0,0,.355.133.5.5,0,0,0,.268-.3.1.1,0,0,0-.156-.094c-.034.039-.055.106-.092.14-.1.095-.178.028-.257-.03s-.2.08-.119.152Z" transform="translate(-316.152 -448.04)" fill="#de908b"/><path d="M320.711,449.9a.746.746,0,0,1,.314-.125c.085-.018.06-.133-.016-.143a.462.462,0,0,0-.387.149c-.059.057.02.171.089.118Z" transform="translate(-316.23 -446.829)" fill="#363133"/><path d="M319.01,450.2a.461.461,0,0,0-.412.052c-.061.044-.031.157.053.133a.753.753,0,0,1,.336-.038c.085.013.1-.124.022-.147Z" transform="translate(-315.491 -447.027)" fill="#363133"/></g></g></g><path d="M319.077,437.648l-4.287,1.077a2.068,2.068,0,0,0-3.971,1l-4.287,1.077a1.7,1.7,0,0,0-1.229,2.055l4.4,17.528a1.7,1.7,0,0,0,2.055,1.23l12.545-3.151a1.7,1.7,0,0,0,1.23-2.055l-4.4-17.528A1.7,1.7,0,0,0,319.077,437.648Zm-6.588.32a.527.527,0,1,1-.383.64A.528.528,0,0,1,312.489,437.968Zm12.076,18.681a.7.7,0,0,1-.5.842l-12.545,3.151a.7.7,0,0,1-.842-.5l-4.4-17.528a.7.7,0,0,1,.5-.842l12.546-3.151a.7.7,0,0,1,.842.5Z" transform="translate(-305.251 -437.426)" fill="#fff" opacity="0.5"/></g><path d="M327.976,384.536s-.406,8.743-4.75,21.41c-1.749,5.1-3.025,7.583-6.762,12.8a1.09,1.09,0,0,1-.155.16c-.042.038-.2.081-.176.089a1.28,1.28,0,0,0,1.093-.117,16.33,16.33,0,0,0,1.581-1.35c2.323-2.646,7.667-7.463,11.471-30.915Z" transform="translate(-293.716 -384.536)" fill="#00a2be"/><path d="M321.743,440.984l-10.582,10.7.935,3.645,10.562-10.565Z" transform="translate(-291.912 -405.024)" fill="#fff" opacity="0.5"/><path d="M323.554,447.792l-10.582,10.7.3,1.013,10.562-10.565Z" transform="translate(-292.569 -407.495)" fill="#fff" opacity="0.5"/></g><path d="M284.355,381.159l12.839,3.8,2.7,6.429,1.477-6.552,10.8-4.9,5.314,5.386-10.643,13.053-4.395-10.43-2.388,4.27-3.431-4.258L293,398.12l-13.9-9.844Z" transform="translate(-224.827 -301.381)" fill="#fff"/></g></g><g transform="translate(506.727 4007.033)"><ellipse cx="1.31" cy="7.616" rx="1.31" ry="7.616" transform="translate(573.696 136.967)" fill="#00a2be"/><ellipse cx="5.733" cy="1.351" rx="5.733" ry="1.351" transform="translate(569.274 143.232)" fill="#00a2be"/><ellipse cx="3.98" cy="23.135" rx="3.98" ry="23.135" transform="translate(614.331 149.446)" fill="#003daa"/><ellipse cx="17.413" cy="4.105" rx="17.413" ry="4.105" transform="translate(600.897 168.477)" fill="#003daa"/></g><g transform="matrix(0.788, 0.616, -0.616, 0.788, 1052.626, 3554.604)"><path d="M756.626,137.627a1.25,1.25,0,0,1-.888-2.13c6.456-6.507,13.265-12.827,20.236-18.782a1.249,1.249,0,0,1,1.623,1.9c-6.918,5.912-13.676,12.184-20.083,18.643A1.25,1.25,0,0,1,756.626,137.627Z" fill="#003daa"/><path d="M769.62,159.8a1.25,1.25,0,0,1-.4-2.434,165.794,165.794,0,0,0,21.747-9.153,1.25,1.25,0,0,1,1.133,2.228,167.985,167.985,0,0,1-22.078,9.292A1.245,1.245,0,0,1,769.62,159.8Z" fill="#00a2be"/><path d="M735.612,129.738a1.253,1.253,0,0,1-1.212-1.561l6.317-24.618a1.25,1.25,0,1,1,2.422.621L736.822,128.8A1.251,1.251,0,0,1,735.612,129.738Z" fill="#00a2be"/><path d="M715.545,128.012h-.024a1.251,1.251,0,0,1-1.226-1.274,97.7,97.7,0,0,0-1.066-16.354,1.25,1.25,0,0,1,2.473-.371,100.457,100.457,0,0,1,1.093,16.773A1.251,1.251,0,0,1,715.545,128.012Z" fill="#003daa"/></g><g transform="translate(466.594 3998.902)"><path d="M632.6,287.543c0,4.207-.586,7.617-1.31,7.617s-1.31-3.41-1.31-7.617.587-7.616,1.31-7.616S632.6,283.337,632.6,287.543Z" fill="#00a2be"/><path d="M631.286,288.895c-3.166,0-5.732-.6-5.732-1.352s2.566-1.351,5.732-1.351,5.733.605,5.733,1.351S634.452,288.895,631.286,288.895Z" fill="#00a2be"/><ellipse cx="2.471" cy="14.363" rx="2.471" ry="14.363" transform="translate(604.747 251.097)" fill="#9be0e8"/><path d="M607.218,268.009c-5.971,0-10.811-1.141-10.811-2.548s4.84-2.549,10.811-2.549,10.811,1.141,10.811,2.549S613.189,268.009,607.218,268.009Z" fill="#9be0e8"/></g></g></g></svg>