<svg xmlns="http://www.w3.org/2000/svg" width="76" height="76" viewBox="0 0 76 76"><g transform="translate(-923 -2681)"><g transform="translate(0 -87)"><circle cx="38" cy="38" r="38" transform="translate(923 2768)" fill="#00a2be"/></g><g transform="translate(936.806 2697.932)"><path d="M528.518,397.791a2.4,2.4,0,0,1-2.4,2.2H487.356a2.4,2.4,0,0,1-2.4-2.2l-1.311-20.61a2.123,2.123,0,0,1,2.186-2.2h41.818a2.123,2.123,0,0,1,2.185,2.2Z" transform="translate(-483.638 -369.456)" fill="#fff"/><path d="M526.114,399.987a2.4,2.4,0,0,0,2.4-2.2l1.311-20.61a2.123,2.123,0,0,0-2.185-2.2H485.826a2.123,2.123,0,0,0-2.186,2.2l1.311,20.61a2.4,2.4,0,0,0,2.4,2.2h38.758m0,2H487.356a4.442,4.442,0,0,1-3-1.169,4.24,4.24,0,0,1-1.4-2.911l-1.312-20.626a4.016,4.016,0,0,1,1.112-3,4.25,4.25,0,0,1,3.071-1.3h41.818a4.249,4.249,0,0,1,3.071,1.3,4.016,4.016,0,0,1,1.112,3l0,.027-1.31,20.6a4.24,4.24,0,0,1-1.4,2.912A4.443,4.443,0,0,1,526.114,401.987Z" transform="translate(-483.638 -369.456)"/><path d="M516.071,368.5a27.186,27.186,0,0,0-8.671,1.175,27.188,27.188,0,0,0-8.672-1.175c-5.846,0-10.585,1.23-10.585,2.747h0l2.15,23.147a28.039,28.039,0,0,1,8.435-1.092,27.189,27.189,0,0,1,8.672,1.174,27.187,27.187,0,0,1,8.671-1.174,28.044,28.044,0,0,1,8.436,1.092l2.149-23.147h0C526.656,369.729,521.918,368.5,516.071,368.5Z" transform="translate(-484.303 -368.499)" fill="#fff"/><path d="M498.729,367.5a29.151,29.151,0,0,1,8.672,1.115,29.148,29.148,0,0,1,8.671-1.115,32.19,32.19,0,0,1,7.736.837,9.535,9.535,0,0,1,2.54.989,2.273,2.273,0,0,1,1.309,1.921c0,.031,0,.062,0,.093L525.5,394.486a1,1,0,0,1-1.32.854,27.412,27.412,0,0,0-8.111-1.038,26.408,26.408,0,0,0-8.323,1.112,1,1,0,0,1-.7,0,26.41,26.41,0,0,0-8.324-1.112,27.41,27.41,0,0,0-8.111,1.038,1,1,0,0,1-1.32-.854l-2.15-23.147q0-.046,0-.092a2.273,2.273,0,0,1,1.309-1.922,9.538,9.538,0,0,1,2.54-.989A32.19,32.19,0,0,1,498.729,367.5Zm8.672,3.175a1,1,0,0,1-.348-.062,26.407,26.407,0,0,0-8.324-1.113,31.712,31.712,0,0,0-6.765.659,5.779,5.779,0,0,0-2.811,1.14l2.025,21.8a32.533,32.533,0,0,1,7.551-.794,29.154,29.154,0,0,1,8.672,1.114,29.152,29.152,0,0,1,8.671-1.114,32.538,32.538,0,0,1,7.552.794l2.024-21.8a5.777,5.777,0,0,0-2.811-1.14,31.714,31.714,0,0,0-6.765-.659,26.4,26.4,0,0,0-8.323,1.113A1,1,0,0,1,507.4,370.674Z" transform="translate(-484.303 -368.499)"/><path d="M6.393,1H0A1,1,0,0,1-1,0,1,1,0,0,1,0-1H6.393a1,1,0,0,1,1,1A1,1,0,0,1,6.393,1Z" transform="translate(9.467 8.538)"/><path d="M10.868,1H0A1,1,0,0,1-1,0,1,1,0,0,1,0-1H10.868a1,1,0,0,1,1,1A1,1,0,0,1,10.868,1Z" transform="translate(9.328 13.739)"/><path d="M10.868,1H0A1,1,0,0,1-1,0,1,1,0,0,1,0-1H10.868a1,1,0,0,1,1,1A1,1,0,0,1,10.868,1Z" transform="translate(9.328 18.939)"/></g><path d="M519.382,421.412H505.957l1.7-12.308h10.016Z" transform="translate(447.233 2320.297)" fill="#fff"/><path d="M520.53,422.412H504.809l1.982-14.308h11.758Zm-13.425-2h11.129L516.806,410.1h-8.273Z" transform="translate(447.233 2320.297)"/><path d="M522.813,424.962c-.17-4.977-4.978-8.982-10.863-8.982-5.992,0-10.868,4.152-10.868,9.254a1.7,1.7,0,0,0,1.7,1.7h18.342a1.7,1.7,0,0,0,1.7-1.7A1.609,1.609,0,0,0,522.813,424.962Z" transform="translate(447.952 2318.343)" fill="#fff"/><path d="M521.123,427.94H502.787a2.708,2.708,0,0,1-2.7-2.7c0-5.654,5.324-10.254,11.868-10.254a12.857,12.857,0,0,1,8.213,2.854,9.629,9.629,0,0,1,3.647,7.032,2.648,2.648,0,0,1,.024.368,2.708,2.708,0,0,1-2.668,2.7Zm-.155-2h.162a.706.706,0,0,0,.7-.7.633.633,0,0,0-.007-.1l-.012-.067,0-.068c-.151-4.42-4.575-8.016-9.863-8.016-5.441,0-9.868,3.7-9.868,8.254a.706.706,0,0,0,.7.7Z" transform="translate(447.952 2318.343)"/><path d="M519.113,386.545a1.051,1.051,0,0,1-1.921-.515l-1.458-5.437c-.281-1.057.351-1.688,1.407-1.4l5.436,1.455a1.052,1.052,0,0,1,.515,1.922Z" transform="translate(443.448 2325.771)" fill="#fff"/><path d="M518.185,388a2.076,2.076,0,0,1-1.959-1.713l-1.458-5.437a2.25,2.25,0,0,1,.3-1.992,1.949,1.949,0,0,1,1.591-.739,2.851,2.851,0,0,1,.737.1l5.436,1.455a2.036,2.036,0,0,1,.964,3.594l-3.98,3.98A2.3,2.3,0,0,1,518.185,388Zm-1.518-7.881a.884.884,0,0,0,.033.215l1.457,5.435a.136.136,0,1,0,.25.065l3.978-3.978a.135.135,0,1,0-.067-.249l-5.436-1.455A.873.873,0,0,0,516.667,380.12Z" transform="translate(443.448 2325.771)"/><g transform="translate(961.692 2707.465)"><rect width="7.99" height="10.867" transform="matrix(0.707, -0.707, 0.707, 0.707, -0.211, 5.437)" fill="#00a2be"/><path d="M0-1H7.99a1,1,0,0,1,1,1V10.867a1,1,0,0,1-1,1H0a1,1,0,0,1-1-1V0A1,1,0,0,1,0-1ZM6.99,1H1V9.867H6.99Z" transform="matrix(0.707, -0.707, 0.707, 0.707, -0.211, 5.437)"/></g><path d="M531.34,392.494a1.426,1.426,0,0,0,.379-.805l.081-2.009a.406.406,0,0,0-.427-.427l-2.011.081a1.42,1.42,0,0,0-.8.378L526.262,392a1.414,1.414,0,0,0-.38.806l-.081,2.008a.4.4,0,0,0,.428.426l2.009-.082a1.4,1.4,0,0,0,.8-.377Z" transform="translate(443.015 2325.342)" fill="#fff"/><path d="M526.21,396.246a1.418,1.418,0,0,1-1.02-.433,1.4,1.4,0,0,1-.388-1.037l.081-2.006a2.373,2.373,0,0,1,.673-1.473L527.85,389a2.413,2.413,0,0,1,1.472-.67l2.01-.081h.058a1.405,1.405,0,0,1,1.409,1.47l-.081,2.013a2.423,2.423,0,0,1-.672,1.468l-2.3,2.293a2.389,2.389,0,0,1-1.474.668l-2.006.082Zm.67-3.367-.054,1.342,1.348-.055a.557.557,0,0,0,.162-.086l2.3-2.294a.578.578,0,0,0,.087-.169l.054-1.34-1.344.054a.579.579,0,0,0-.169.09l-2.292,2.291A.573.573,0,0,0,526.88,392.879Z" transform="translate(443.015 2325.342)"/><path d="M516.087,381.873l-.355-1.315c-.274-1.032.343-1.649,1.374-1.371l1.316.351Z" transform="translate(443.541 2325.863)"/><path d="M516.087,382.373a.5.5,0,0,1-.483-.37l-.355-1.315a1.735,1.735,0,0,1,.214-1.532,1.437,1.437,0,0,1,1.176-.536,2.308,2.308,0,0,1,.6.083l1.315.351a.5.5,0,0,1,.225.837l-2.336,2.336A.5.5,0,0,1,516.087,382.373Zm.553-2.753a.476.476,0,0,0-.383.145.8.8,0,0,0-.041.664l.129.479,1.111-1.111-.478-.128A1.316,1.316,0,0,0,516.64,379.62Z" transform="translate(443.541 2325.863)"/></g></svg>