<svg xmlns="http://www.w3.org/2000/svg" xmlns:xlink="http://www.w3.org/1999/xlink" width="572" height="289" viewBox="0 0 572 289"><defs><clipPath id="a"><rect width="572" height="289" transform="translate(1048 2113)" fill="#eff7f8"/></clipPath><linearGradient id="b" x1="0.493" y1="1.236" x2="0.514" y2="-0.278" gradientUnits="objectBoundingBox"><stop offset="0" stop-color="#001462"/><stop offset="0.069" stop-color="#071e71"/><stop offset="0.252" stop-color="#183594"/><stop offset="0.437" stop-color="#2647b0"/><stop offset="0.623" stop-color="#3054c4"/><stop offset="0.81" stop-color="#365cd0"/><stop offset="1" stop-color="#385fd4"/></linearGradient><linearGradient id="c" x1="0.5" x2="0.535" y2="0.477" gradientUnits="objectBoundingBox"><stop offset="0" stop-color="#0085ce"/><stop offset="1" stop-color="#003daa"/></linearGradient><linearGradient id="d" x2="0.5" y2="1" xlink:href="#c"/><linearGradient id="e" x1="0.5" x2="0.5" y2="1" gradientUnits="objectBoundingBox"><stop offset="0" stop-color="#fff"/><stop offset="1" stop-color="#e8e8e8"/></linearGradient><linearGradient id="h" x1="2.266" y1="0.145" x2="0.035" y2="0.647" gradientUnits="objectBoundingBox"><stop offset="0" stop-color="#8cc6ff"/><stop offset="0.006" stop-color="#97c4f7"/><stop offset="0.016" stop-color="#b4bee2"/><stop offset="0.029" stop-color="#e4b6c1"/><stop offset="0.033" stop-color="#f6b3b5"/><stop offset="0.991" stop-color="#0060ff"/></linearGradient><linearGradient id="i" x1="2.889" y1="0.358" x2="-0.099" y2="0.57" xlink:href="#h"/><linearGradient id="j" x1="-2.16" y1="0.268" x2="5.982" y2="0.959" gradientUnits="objectBoundingBox"><stop offset="0.105" stop-color="#001462"/><stop offset="0.297" stop-color="#132e89"/><stop offset="0.49" stop-color="#2343aa"/><stop offset="0.675" stop-color="#2e52c1"/><stop offset="0.849" stop-color="#355bcf"/><stop offset="1" stop-color="#385fd4"/></linearGradient><linearGradient id="k" x1="0.36" y1="0.131" x2="0.5" y2="1" gradientUnits="objectBoundingBox"><stop offset="0" stop-color="#9be0e8"/><stop offset="1" stop-color="#00a2be"/></linearGradient><linearGradient id="l" x1="0.5" y1="0" xlink:href="#k"/><linearGradient id="m" x1="0.942" y1="0.819" x2="0.073" y2="0.111" gradientUnits="objectBoundingBox"><stop offset="0" stop-color="#fff"/><stop offset="1" stop-color="#9be0e8"/></linearGradient><linearGradient id="n" x1="-0.452" y1="0.578" x2="0.822" y2="0.597" xlink:href="#k"/></defs><g transform="translate(-1048 -2113)" clip-path="url(#a)"><g transform="translate(-6.566 1388.477)"><path d="M1311.776,839.093l.5.232.914.443c.6.293,1.135.59,1.7.886q1.624.9,3.143,1.86a68.587,68.587,0,0,1,5.794,4.094,78.739,78.739,0,0,1,10.156,9.509,87.551,87.551,0,0,1,8.347,10.939,97.415,97.415,0,0,1,6.505,11.968,105.874,105.874,0,0,1,4.765,12.6c.6,2.145,1.274,4.279,1.748,6.445l.761,3.239.625,3.254a136.328,136.328,0,0,1,1.985,16.066v-20.37a99.471,99.471,0,0,0-3.981-14.793c-2.9-8.685-7.192-18.743-11.953-29.622-3.9-8.9-7.237-16.723-10.326-23.073s-6.144-11.023-8.649-13.524c2.476,2.476,7.136,5.689,12.164,11.073a78.364,78.364,0,0,1,14.649,22.051,104.807,104.807,0,0,1,8.1,30.283V838.73a39.471,39.471,0,0,0-3.98-8.755c-2.9-4.983-6.9-10.5-10.916-16.839a110.1,110.1,0,0,1-7.5-14.379,70.84,70.84,0,0,0-4.6-9.376c1.253,1.859,4.393,3.785,7.994,6.761a51.774,51.774,0,0,1,11.352,12.413,54.537,54.537,0,0,1,7.649,19.667V811.4c-1.183-7.755-3.676-19.446-3.676-32.969,0-14.482,4.287-25.311,4.287-30.426,0,5.115,4.287,15.944,4.287,30.426,0,13.527-2.495,25.219-3.677,32.975v18.324a117.294,117.294,0,0,1,8.794-33.206,92.523,92.523,0,0,1,15.479-24.113,118.506,118.506,0,0,1,12.969-12.228c-2.912,2.542-6.106,7.731-9.412,14.618-3.336,6.9-6.913,15.474-11.18,25.158-5.125,11.885-9.62,22.865-12.646,32.341a105.259,105.259,0,0,0-4,16.239v28.284q.558-5.264,1.473-10.431a169.221,169.221,0,0,1,5.661-22.665,195.291,195.291,0,0,1,8.42-21.662c1.61-3.537,3.393-7.026,5.275-10.5a100.977,100.977,0,0,1,6.617-10.473c-3.078,4.156-3.5,8.489-3.124,12.651a34.376,34.376,0,0,0,1.314,6.055c.622,1.952,1.343,3.806,2.037,5.528,1.026,2.489.865,4.371.025,5.938a13.892,13.892,0,0,1-3.7,4.112c-2.868,2.486-5.91,4.829-3.788,8.27,2.058,3.412,4.574,6.615,4.373,10.326a10.86,10.86,0,0,1-2.537,6.215c-1.658,2.364-4.455,5.031-8.418,8.5a47.589,47.589,0,0,0-6.532,6.939,50.4,50.4,0,0,0-7.029,12.306c-.025.057-.045.108-.067.164v32.341c.115-.724,3.679-21.114,15.793-32.392,11.382-10.6,22.006-13.966,24.8-15.518-2.816,1.556-18.842,21.348-24.077,28.166-8.078,10.518-16.514,23.685-16.514,38.258V983.1h-1.221V927.355a19.819,19.819,0,0,0-1-3.732,24.938,24.938,0,0,0-3.345-5.9,37.308,37.308,0,0,0-4.516-4.794c-1.642-1.423-3.307-2.681-4.872-3.825a7.722,7.722,0,0,1-3.556-5.319,18.311,18.311,0,0,1,.385-5.953c.171-1.008.357-2.017.482-2.992a12.175,12.175,0,0,0,0-2.751,4.349,4.349,0,0,0-2.992-3.849c-3.893-1.459-7.918-2.274-10.413-5.18a9.187,9.187,0,0,1-1.654-2.623,17.027,17.027,0,0,1-1.158-3.732c-.6-2.966-.908-6.854-1.392-12.421A39.331,39.331,0,0,0,1318,846.17c-3.133-4.617-6.366-7.173-6.91-7.37Z" transform="matrix(0.951, 0.309, -0.309, 0.951, 479.672, -356.64)" fill="#212121" opacity="0.057"/><path d="M1125.362,938.41c2.383,10.07,5.888,21.374,9.525,32.037h60.329c1.359-4.386,2.711-9.094,4-14.093,7.411-28.867-.391-53.833-7.412-65.145s-13.068-24.772-2.357-41.272,11.719-29.336,11.719-29.336c-1.561-6.243-6.437-8.387-19.1-14.431,0,0-.755-.253-1.93-.65-2.681,10.894-8.343,19.556-18.369,21.322-13.065,2.3-24.857-5.669-30.822-19.658-5.751,1.7-12.157,3.508-15.208,5.224,0,0,15.993,34.718,19.043,54.35S1118.07,907.592,1125.362,938.41Z" transform="translate(57.318 46.026)" fill="#212121"/><path d="M1157.019,833.757c10.027-1.766,15.688-10.429,18.369-21.322-4.2-1.42-14.065-4.808-16.808-6.18-3.511-1.755-2.536-15.993-2.536-15.993l-18.538,5.289v13.825c0,1.295-5.3,2.948-11.31,4.723C1132.162,828.089,1143.954,836.057,1157.019,833.757Z" transform="translate(62.061 39.112)" fill="#efb0b0"/><path d="M1152.518,790.419l-18.538,5.291v11.749a37.8,37.8,0,0,1,19.609,26.435c9.966-1.8,15.6-10.442,18.273-21.3-4.2-1.42-14.065-4.808-16.808-6.18C1151.543,804.658,1152.518,790.419,1152.518,790.419Z" transform="translate(65.588 39.183)" fill="#eaa9a9"/><path d="M1170.561,850.14c-8.273,2.531-16.079,5.313-20.212,5.313-8.193,0-20.286-11.509-26.005-4.473s-6.568,11.689-2.091,14.81,18.734-1.171,25.56.195c3.047.609,13.438,1.139,24.478.969C1173.232,862.566,1173.1,854.543,1170.561,850.14Z" transform="translate(58.979 65.593)" fill="#ffcbcb"/><path d="M1179.252,816.579c-1.922-7.691-17.75,6.436-13.848,19.309,3.345,11.038,2.129,25.872,2.129,25.872l15.5,15.673C1188.3,871,1180.813,822.82,1179.252,816.579Z" transform="translate(79.548 50.049)" fill="#212121"/><path d="M1177.306,847.1c-5.993-.875-14.571,1.37-22.7,3.855,2.534,4.4,2.671,12.426,1.731,16.814,13.7-.212,28.39-1.5,31.306-5.066C1187.643,862.7,1194.665,849.635,1177.306,847.1Z" transform="translate(74.934 64.779)" fill="#212121"/><path d="M1131.62,776.555c-3.255,6.327-2.893,27.842,6.147,29.83,7.9,1.738,12.293-5.966,12.293-5.966v-14.27a10.431,10.431,0,0,1-5.063-7.786c-.487-4.372-3.073-4.836-3.073-4.836S1136.5,776.735,1131.62,776.555Z" transform="translate(63.67 31.529)" fill="#ffcbcb"/><path d="M1125.328,864.943c-4.082-8.216-6.794-18.577-9.182-24.423-4.511-11.034-5.243-26.417,1-29.927,11.507-5.892,16.384,14.373,17.164,20.255s2.339,19.627,6.631,24.555Z" transform="translate(55.905 47.843)" fill="#212121"/><path d="M1168.973,813.009c-7.8-4.875.894-31.766-12.188-42.112-10.771-8.518-27.949-2.113-27.949,13.975v38.556c4.259-1.33,7.475-2.556,7.475-3.565V808.538c-7.18-4.572-7.328-23.15-4.278-29.079,4.881.18,10.3-3.028,10.3-3.028s2.587.464,3.073,4.836a10.431,10.431,0,0,0,5.063,7.786v14.27c0,13.4,3.224,28.048,10.862,28.862s8.937-9.262,14.787-8.613C1176.122,823.572,1176.772,817.884,1168.973,813.009Z" transform="translate(63.257 28.625)" fill="#212121"/><path d="M1132.518,834.284c-4.26,5.823-10.933,10.913-11.156,19.447,3.624,7.287,8.323,12.889,14.833,12.155,9.6-1.081,12.916-12.371,14.05-22.707C1143.836,843.674,1135.672,838.6,1132.518,834.284Z" transform="translate(59.87 59.06)" fill="#212121"/><path d="M1143.527,798.131c-1.83.831-8.316,6.487-8.316,7.9s2.911,12.06,2.911,15.3-2.973,17.377-6.875,25.738a21.9,21.9,0,0,1-2.207,3.62c3.155,4.317,11.319,9.39,17.728,8.9a112.771,112.771,0,0,0,.577-12.206s.657-23.641,1.728-25.322c.979-1.533.971-4.062.971-6.217v-4.381s1.489-.1,1.575-2.655q0-.116,0-.236C1151.622,805.781,1145.358,797.3,1143.527,798.131Z" transform="translate(63.349 42.652)" fill="#ffcbcb"/><path d="M1248.038,811.125l-5.679,62.607s27.723,1.286,27.02.584,0-32.059,0-32.059Z" transform="translate(116.825 45.931)" fill="#fff"/><path d="M1283.7,859.24c1.9,12.917.714,27.634,0,33.194s-17.089,55.253-17.089,55.253h39.924l10.994-52.646-14.591-40.219Z" transform="translate(125.687 68.367)" fill="url(#b)"/><path d="M1284.716,859.24c1.9,12.917.714,27.634,0,33.194s-20.354,55.672-20.354,55.672h43.189l10.995-53.066-14.591-40.219Z" transform="translate(124.668 68.367)" fill="url(#c)"/><path d="M1323.469,848.44c5.881,18.433,32.237,24.394,24.966,54.17C1343.187,924.1,1332.48,951,1332.48,951h-49.826s15.627-46.859,15.627-53.066-9.812-38.1-9.812-38.1Z" transform="translate(132.957 65.474)" fill="url(#d)"/><path d="M1255.12,794.569c2.74,6.988-5.3,12.231-6.88,19.849a11.421,11.421,0,0,0,1,7.157c5.372,11.72,6.136,9.624,8.175,18.825s1.237,14.3,18.07,25.761,16.325,14.523,17.089,20.382,48.154,4.586,47.39-17.324.445-47.214-13.664-59.148S1255.12,794.569,1255.12,794.569Z" transform="translate(116.813 41.064)" fill="url(#e)"/><path d="M1248.548,775.9v65.77s23.878-12.814,23.666-25.348-10.8-40.422-10.8-40.422Z" transform="translate(117.503 32.603)" fill="#212121"/><path d="M1260.089,807.369s3.18,5.147,4.258,7.359-3.707,11.993-2.129,20.375,11.949,6.955,14.268,0c.7-2.1,2.553-16.968,2.553-16.968V793.54Z" transform="translate(122.732 40.597)" fill="#ffcbcb"/><path d="M1264.347,814.728c6.709-7.517,13.656,24.314,2.656,25.928.026.006.054.009.08.014l1.575.174a8.406,8.406,0,0,0,7.828-5.743c.7-2.1,2.553-16.968,2.553-16.968V793.54l-18.95,13.829S1263.269,812.516,1264.347,814.728Z" transform="translate(122.732 40.597)" fill="#eaa9a9"/><path d="M1250.832,780.224c-3.262,20.233.325,38.887,10.082,41.1s23.744-8.46,23.744-17.875,9.432-33.941-1.3-39.54S1252.912,767.33,1250.832,780.224Z" transform="translate(118.005 26.402)" fill="#ffcbcb"/><path d="M1259.536,779.248a85.687,85.687,0,0,1-8.835,6.5c-3.738,2.222-2.822-10.606,4.417-16.637s16.735-11.161,20.582-7.7c0,0,12.06-3.335,19.372,8.98s7.827,23.349,10.136,26.428,6.158,5,4.362,10.776c0,0,12.828-2.566,14.754,6.286s1.283,11.715,1.283,11.715-3.986-3.12-12.164-5.982c0,0-5.507,4.339-10.768,4.339s-11.887,21.222-21.124,21.222l-.077-50.537S1260.609,791.982,1259.536,779.248Z" transform="translate(117.503 25.533)" fill="#212121"/><path d="M1189.61,847.324c-24.238,25.241-45.119,102.232-45.119,102.232h34.8l21.749-51.117Z" transform="translate(70.351 64.969)" fill="#0085ce"/><path d="M1302.058,857.31c-5.07-5.763-32.082-24.725-66.522-22.663-30.369,1.816-54.931,11.2-59.719,18.493-3.5,5.337,4.169,41.359,9.506,55.7a125.79,125.79,0,0,1,7.671,42.692s85.883-.5,86.385,0,10.672-31.686,12.006-47.695S1289.718,870.15,1302.058,857.31Z" transform="translate(84.145 59.153)" fill="url(#d)"/><path d="M1240.94,814.031s.429,26.691,0,34.659-12.777,15.139-17.359,15.338-14.741-6.574-16.333-17.927V822Z" transform="translate(98.788 49.883)" fill="#ffcbcb"/><path d="M1241.1,828.532c-.054-7.735-.163-14.5-.163-14.5L1207.248,822v19.763c2.806,12.355,21.439,8.977,25.876-2.73C1235.667,832.32,1237.839,830.328,1241.1,828.532Z" transform="translate(98.788 49.883)" fill="#eaa9a9"/><path d="M1201.12,814.3c1.264,19.556,9.235,38.488,21.865,36.491,15.663-2.476,20.419-26.232,19.8-39.179s-8-21.041-19.226-21.052C1212.875,790.545,1200.048,797.74,1201.12,814.3Z" transform="translate(95.983 39.246)" fill="#ffcbcb"/><path d="M1234.126,813.725c-.837,3.9-2.735,6.857-4.237,6.606s-2.04-3.614-1.2-7.514,2.735-6.857,4.237-6.606S1234.964,809.826,1234.126,813.725Z" transform="translate(108.323 46.332)" fill="#eaa9a9"/><path d="M1202.033,818.409c-2.387-3.652-2.553-5.087-2.377-11.153s5.292-6.276,5.185-8.868,3.2-9.556,16.7-10.115,12.692,5.628,16.872,6.032,10.665,4.692,7.507,20.045c0,0-3.671.35-5.116,7.77a.665.665,0,0,1-1.177.222,9.72,9.72,0,0,1-1.236-2.844c-1.009-3.707-5.048,1.866-5.782-5.529-.523-5.268-13.379,4.4-22.916-4.147,0,0-1.417,1.886-5.48,1.766C1201.854,811.516,1202.033,818.409,1202.033,818.409Z" transform="translate(95.325 38.194)" fill="#212121"/><path d="M1210.477,837.91v-5.8c-5.035,2.212-9.7,4.082-10.214,6.962-1.006,5.647,3.527,22.059,10.214,27.852,0,0,1.112,1.421,3.188-1.748s9.178-10.429,11.641-9.479l-.012-.017C1220.3,854.638,1211.912,848.146,1210.477,837.91Z" transform="translate(95.559 58.073)" fill="#fff"/><path d="M1243.593,837.544c-1.393-3.152-5.913-5.714-8.228-6.808-.012,4.284-.064,8.1-.187,10.384-.372,6.929-9.758,13.253-15.213,14.916h0c2.575-1,12.039,9.079,13.68,11.823s3.668-.455,7-7.971C1244.03,852.237,1245.867,842.687,1243.593,837.544Z" transform="translate(104.551 57.452)" fill="#fff"/><path d="M-3219.073,21187.535l-.362-19.158,26.767-4.09c-.665-9.787-3.243-32.953-1.728-41.061,5.062-27.139,21.073-35.705,21.073-35.705,10.23,11.73,16.675,56.092,16.675,78.223,1.09,15.916-6.652,21.791-13.846,21.791Z" transform="translate(4559.525 -20171.061)" fill="url(#d)"/><path d="M-3170.493,21188.035h-49.07l-.379-20.086.433-.066,26.312-4.02c-.144-2.035-.359-4.564-.605-7.459-.964-11.33-2.283-26.846-1.083-33.27a69,69,0,0,1,5.469-17.152,52.825,52.825,0,0,1,7.074-11.107,33.6,33.6,0,0,1,8.786-7.795l.351-.187.261.3c2.459,2.82,4.821,7.607,7.019,14.23a166.484,166.484,0,0,1,5.27,21.217c2.738,14.518,4.508,31.428,4.51,43.086a32.657,32.657,0,0,1-.916,11.047,17.055,17.055,0,0,1-3.826,7.1A13,13,0,0,1-3170.493,21188.035Zm-48.089-1h48.089a12.02,12.02,0,0,0,8.874-3.842c3.453-3.7,5-9.721,4.473-17.416v-.033c0-11.6-1.763-28.449-4.493-42.918-3.217-17.057-7.4-29.328-11.792-34.66a35.29,35.29,0,0,0-8.183,7.4c-4.177,5-9.7,13.873-12.289,27.756-1.176,6.291.138,21.729,1.1,33,.266,3.121.495,5.814.639,7.934l.031.459-.455.068-26.335,4.023Z" transform="translate(4559.525 -20171.061)" fill="rgba(0,0,0,0)"/><path d="M1223.363,924.839l2.3-2.154,6.988,2.476a11.31,11.31,0,0,0,3.778.651h13.867s6.562-1.407,6.777-9.152-6.455-10-9.358-10h-15.206a11.1,11.1,0,0,1-2.267-.234l-10.813-2.26a6.652,6.652,0,0,0-4.678.744l-6.127,3.519a15.456,15.456,0,0,0-3.243,2.485l-11.12,11.144a2.2,2.2,0,0,0,1.558,3.756H1220.9A3.593,3.593,0,0,0,1223.363,924.839Z" transform="translate(92.61 90.661)" fill="#ffcbcb"/><path d="M1327.175,807.533c-10.415-6.019-28.666,11.1-24.74,31.338s-18.3,45.345-18.3,45.345-25.189,10.114-35.3,12.031a39.13,39.13,0,0,1,6.446,15.146c16.542-1.363,40.276-4.726,49.869-12.721,14.5-12.081,29.9-56.631,29.9-70.785C1335.058,811.416,1327.175,807.533,1327.175,807.533Z" transform="translate(117.634 46.384)" fill="#fff"/><path d="M1264.92,868.513h-32.566s-23.258,7.878-23.861,9.225-1.812,9.358,0,11.243,13.591,5.205,16.611,4.6,26.579-9.363,32.015-9.363c1.84,0,8.422-.176,16.88-.872a39.13,39.13,0,0,0-6.446-15.146A14.964,14.964,0,0,1,1264.92,868.513Z" transform="translate(98.919 74.429)" fill="#ffcbcb"/><path d="M1103.4,858.978s8.159,6.456,16.506,0,2.6-17.483,2.6-17.483l-19.1,10.176Z" transform="translate(51.733 62.327)" fill="url(#h)"/><path d="M1116.4,811.891v48.28h-15.7V814.533Z" transform="translate(50.508 48.913)" fill="url(#i)"/><path d="M1098.743,904.946c-1.511,8.055-10.1,19.372-15.557,35.709h31.2c2.992-19.628,5.7-45.971,1.43-69.387h-17.991C1099.486,879.16,1100.164,897.366,1098.743,904.946Z" transform="translate(42.571 75.819)"/><path d="M1073.3,903.2s3.611,17.531,6.079,37.456h8.286c5.461-16.338,14.046-27.655,15.557-35.709,1.421-7.579.742-25.786-.918-33.678h-28.259Z" transform="translate(38.092 75.819)" fill="url(#j)"/><path d="M1110.386,872.046a16.726,16.726,0,0,0-.686-2.495h-54.234c.747,26.1,2.8,52.082,4.041,71.882h36.24c5.461-16.338,14.046-27.655,15.557-35.709C1112.725,898.144,1112.047,879.938,1110.386,872.046Z" transform="translate(30.01 75.041)" fill="#212121"/><path d="M1098.872,783.117c-32.081-8.608-53.749,5.715-57.306,26.283-3.249,18.785,20.338,76.949,20.338,100.471,0,0,38.026,19.6,72.911,2.495,0,0-5.233-24.948,0-47.042s12.189-34.756,6.279-50.607C1135.931,800.87,1113.875,787.144,1098.872,783.117Z" transform="translate(23.572 34.72)" fill="url(#k)"/><path d="M1094.978,767.742s-12.108,15.227-17.215,20.079,4.317,14.783,11.47,19c4.724,2.784,14.685,5.875,11.749-2.809,0,0-1.661-4.854,6.385-11.749C1107.366,792.261,1098.427,765.571,1094.978,767.742Z" transform="translate(39.454 28.851)" fill="#ffcbcb"/><path d="M1102.368,790.682s-4.144-12.371-7.879-19.583l-3.944,1.861c-4.6,9.426-5.42,27.187,5.438,29.47C1095.983,802.431,1094.322,797.578,1102.368,790.682Z" transform="translate(44.452 30.429)" fill="#eaa9a9"/><path d="M1094.473,769.227c1.026-5.805-4.163-6.241-5.791-1.4-1.859,5.536.189,9.374,2.321,8.1,0,0-4.136,12.5,1.069,20.036s11.85,4.635,20.157-3.544c7.142-7.035,11.794-15.627,12.514-18.939,1.883-8.637-7.087-15.624-15.5-15.172C1098.939,758.862,1094.473,769.227,1094.473,769.227Z" transform="translate(44.733 24.623)" fill="#ffcbcb"/><path d="M1093.344,772.005c-.324,3.419.235,6.068,2.246,4.9s6.773-8.043,11.112-3.069,7.856,9.6,15.556,8.783c9.948-1.058,12.254-14.521,3.492-16.932,0,0,3.81-4.625-2.963-6.773-6.2-1.966-6.449-.747-10.788-5.615-2.5-2.8-17.468-1.308-21.55,14.074C1090.449,767.377,1093.849,766.679,1093.344,772.005Z" transform="translate(45.862 21.845)" fill="#212121"/><path d="M1067.369,855.833c.32-6.69,4.457-24.045,10.293-35.132s2.972-25.349-4.961-30.93c-7.878-5.544-18.924-4.56-24.156,3.162-14.068,20.764-9.983,67.45-2.4,83.206,1.505,3.129,5.137,5.162,10.064,6.384C1045.533,877.644,1056.243,853.289,1067.369,855.833Z" transform="translate(22.646 37.297)" fill="url(#l)"/><path d="M1087.186,855.587l21.075-25.5a3.622,3.622,0,0,1,3.755-1.184l35.756,9.852a1.159,1.159,0,0,1,.468,1.976l-27.044,24.413a2.343,2.343,0,0,1-2.113.542l-30.965-7.322A1.724,1.724,0,0,1,1087.186,855.587Z" transform="translate(44.204 56.562)" fill="#003daa"/><path d="M1130.108,843.122a11.794,11.794,0,0,0-6.769-6.711c-1.484-.424-12.513-.232-18.437-.1a12.751,12.751,0,0,0-6.5,1.94c-1.866,1.171-4.192,2.469-5.348,2.469h-18.624a65.017,65.017,0,0,0-10.99-6.529c-11.127-2.544-21.836,21.81-11.156,26.69,17.959,4.454,53.4-2.047,68.3-7.139a16.312,16.312,0,0,0,8.212-6.058C1129.863,846.154,1130.583,844.483,1130.108,843.122Z" transform="translate(26.573 58.935)" fill="#ffcbcb"/><path d="M1192.233,924.21h51.027a5.3,5.3,0,0,0,5.3-5.3h0a2.416,2.416,0,0,0-2.417-2.417h-53.908a2.415,2.415,0,0,0-2.415,2.417v2.881A2.416,2.416,0,0,0,1192.233,924.21Z" transform="translate(90.89 96.313)" fill="#9be0e8"/><path d="M1138.337,947.956H1244.92a6.23,6.23,0,0,0,6.006-7.879L1232.114,871.6a10.215,10.215,0,0,0-9.848-7.507H1115.684a6.227,6.227,0,0,0-6.006,7.877l18.811,68.48A10.214,10.214,0,0,0,1138.337,947.956Z" transform="translate(54.473 72.566)" fill="url(#m)"/><path d="M1354.826,885.319c-1.609.436-3.836,2.216-6.294,4.58a97.013,97.013,0,0,1-8.589,7.665c-2.062,1.593-4.1,3.037-6.071,4.442-1.925,1.436-3.836,2.776-5.489,4.149-3.363,2.69-5.929,5.342-6.812,7.334.883-1.971,1.26-5.63,2.937-10.064a32.541,32.541,0,0,1,3.563-6.927,29.11,29.11,0,0,1,6.156-6.5,23.49,23.49,0,0,1,12.464-4.471C1350.4,885.222,1353.232,885.756,1354.826,885.319Z" transform="translate(150.592 82.186)" fill="#fff"/><path d="M1321.3,919.957c.157-1.984-.814-5.172-1.456-9.373a39.986,39.986,0,0,1,.266-15.111,55.8,55.8,0,0,1,7.543-17.413c2.9-4.6,5.644-7.924,6.693-10.3-1.054,2.385-1.62,6.667-2.23,11.9a166.782,166.782,0,0,1-2.76,17.916,71.621,71.621,0,0,1-4.81,13.616C1322.857,914.955,1321.46,917.969,1321.3,919.957Z" transform="translate(149.542 74.227)" fill="#fff"/><path d="M1300.282,880.058c1.6.743,4.656.757,8.441,1.889a25.632,25.632,0,0,1,12.017,7.292,32.917,32.917,0,0,1,7.617,15.836c.959,4.945.686,8.842,1.17,11.092-.482-2.28-2.552-5.6-5.48-9.12-2.9-3.573-6.645-7.28-10.354-11.465-3.075-3.381-5.4-6.8-7.588-9.682C1303.957,883,1301.9,880.8,1300.282,880.058Z" transform="translate(140.945 79.802)" fill="#fff"/><path d="M1344.482,895.835h-31.462a2.784,2.784,0,0,0-2.765,3.114l3.838,32.167a2.785,2.785,0,0,0,2.765,2.456h23.786a2.785,2.785,0,0,0,2.765-2.456l3.838-32.167A2.784,2.784,0,0,0,1344.482,895.835Z" transform="translate(145.455 86.951)" fill="url(#n)"/><path d="M1309.188,896.372l1.421,11.911a1.311,1.311,0,0,0,1.3,1.155h34.638a1.31,1.31,0,0,0,1.3-1.155l1.421-11.911a1.311,1.311,0,0,0-1.3-1.466H1310.49A1.311,1.311,0,0,0,1309.188,896.372Z" transform="translate(144.976 86.53)" fill="url(#l)"/></g></g></svg>