<svg xmlns="http://www.w3.org/2000/svg" width="76" height="76" viewBox="0 0 76 76"><g transform="translate(-923 -2681)"><g transform="translate(0 -87)"><circle cx="38" cy="38" r="38" transform="translate(923 2768)" fill="#00a2be"/></g><g transform="translate(11.5 8.873)"><path d="M317.712,620.8a1,1,0,0,1-.913-1.406,53.553,53.553,0,0,0,2.771-8.853,49.583,49.583,0,0,0,.708-19.646,11.886,11.886,0,0,0-1.548-4.359,3.16,3.16,0,0,0-1.842-1.431c-1.835-.456-4.168,1.088-5.8,2.464a27.3,27.3,0,0,0-3.327,3.38,1,1,0,0,1-1.564-1.246,28.865,28.865,0,0,1,3.578-3.642c2.9-2.452,5.459-3.427,7.6-2.9,2.428.6,4.068,3.078,4.875,7.36a45.332,45.332,0,0,1,.639,11.039,58.167,58.167,0,0,1-1.374,9.469,54.389,54.389,0,0,1-2.882,9.173A1,1,0,0,1,317.712,620.8Z" transform="translate(648.757 2105.313)" fill="#212121"/><path d="M266.152,620.8a1,1,0,0,1-.914-.594,54.389,54.389,0,0,1-2.882-9.173,58.17,58.17,0,0,1-1.374-9.469,45.334,45.334,0,0,1,.639-11.039c.807-4.282,2.447-6.758,4.875-7.36,2.136-.53,4.692.445,7.6,2.9a28.857,28.857,0,0,1,3.577,3.642,1,1,0,0,1-1.564,1.246h0a27.311,27.311,0,0,0-3.327-3.38c-1.633-1.376-3.966-2.92-5.8-2.464a3.16,3.16,0,0,0-1.842,1.431,11.885,11.885,0,0,0-1.548,4.359,49.583,49.583,0,0,0,.708,19.646,53.557,53.557,0,0,0,2.771,8.854,1,1,0,0,1-.914,1.406Z" transform="translate(666.401 2105.313)" fill="#212121"/><path d="M270.588,625.485V598.4c0-8.888,5.346-16.093,11.94-16.093h3.582c6.594,0,11.94,7.205,11.94,16.093v27.09Z" transform="translate(665.18 2105.555)" fill="#fff"/><path d="M299.051,626.485H269.588V598.4a20.162,20.162,0,0,1,3.694-11.975,13.414,13.414,0,0,1,4.1-3.722,10.281,10.281,0,0,1,5.143-1.4h3.582a10.281,10.281,0,0,1,5.143,1.4,13.414,13.414,0,0,1,4.1,3.722,20.162,20.162,0,0,1,3.694,11.975Zm-27.463-2h25.463V598.4a18.155,18.155,0,0,0-3.3-10.784c-2.062-2.779-4.775-4.309-7.64-4.309h-3.582c-2.865,0-5.578,1.53-7.64,4.309a18.155,18.155,0,0,0-3.3,10.784Z" transform="translate(665.18 2105.555)" fill="#212121"/><path d="M306.643,632.454c0,4.748-2.419,8.6-6.261,8.6H264.9c-3.842,0-6.261-3.849-6.261-8.6V627.94c0-4.748,2.419-8.6,6.261-8.6h35.478c3.841,0,6.261,3.849,6.261,8.6Z" transform="translate(666.857 2091.346)" fill="#00a2be"/><path d="M300.382,642.05H264.9a6.481,6.481,0,0,1-5.391-2.946,11.712,11.712,0,0,1-1.869-6.651V627.94a11.712,11.712,0,0,1,1.869-6.651,6.481,6.481,0,0,1,5.391-2.946h35.478a6.481,6.481,0,0,1,5.391,2.946,11.712,11.712,0,0,1,1.87,6.651v4.513a11.711,11.711,0,0,1-1.87,6.651A6.481,6.481,0,0,1,300.382,642.05ZM264.9,620.344a4.518,4.518,0,0,0-3.751,2.09,9.714,9.714,0,0,0-1.51,5.507v4.513a9.714,9.714,0,0,0,1.51,5.507,4.518,4.518,0,0,0,3.751,2.09h35.478a4.518,4.518,0,0,0,3.751-2.09,9.713,9.713,0,0,0,1.51-5.507V627.94a9.713,9.713,0,0,0-1.51-5.507,4.518,4.518,0,0,0-3.751-2.09Z" transform="translate(666.857 2091.346)" fill="#212121"/><path d="M300.784,597.228c1.891,0,2.734,1.378,1.874,3.062,0,0-4.256,8.328-11.438,8.328s-11.437-8.328-11.437-8.328c-.861-1.684-.019-3.062,1.873-3.062Z" transform="translate(658.279 2100.718)" fill="#fff"/><path d="M281.657,596.228h19.127a2.921,2.921,0,0,1,2.765,4.517,21.152,21.152,0,0,1-3.189,4.4,15.966,15.966,0,0,1-3.838,3.052,10.563,10.563,0,0,1-10.6,0,15.968,15.968,0,0,1-3.838-3.052,21.155,21.155,0,0,1-3.188-4.395,2.92,2.92,0,0,1,2.764-4.517Zm9.564,11.39c2.678,0,5.252-1.283,7.649-3.813a19.493,19.493,0,0,0,2.9-3.971.972.972,0,0,0-.984-1.606H281.657a.972.972,0,0,0-.983,1.607,19.494,19.494,0,0,0,2.9,3.97C285.969,606.335,288.543,607.618,291.221,607.618Z" transform="translate(658.279 2100.718)" fill="#212121"/><rect width="8.124" height="7.608" rx="2.06" transform="translate(955.698 2718.856)" fill="#fff"/><path d="M2.06-1h4a3.063,3.063,0,0,1,3.06,3.06V5.549a3.063,3.063,0,0,1-3.06,3.06h-4A3.063,3.063,0,0,1-1,5.549V2.06A3.063,3.063,0,0,1,2.06-1Zm4,7.608a1.061,1.061,0,0,0,1.06-1.06V2.06A1.061,1.061,0,0,0,6.064,1h-4A1.061,1.061,0,0,0,1,2.06V5.549a1.061,1.061,0,0,0,1.06,1.06Z" transform="translate(955.698 2718.856)" fill="#212121"/><rect width="8.124" height="7.608" rx="2.06" transform="translate(935.219 2718.856)" fill="#fff"/><path d="M2.06-1h4a3.063,3.063,0,0,1,3.06,3.06V5.549a3.063,3.063,0,0,1-3.06,3.06h-4A3.063,3.063,0,0,1-1,5.549V2.06A3.063,3.063,0,0,1,2.06-1Zm4,7.608a1.061,1.061,0,0,0,1.06-1.06V2.06A1.061,1.061,0,0,0,6.064,1h-4A1.061,1.061,0,0,0,1,2.06V5.549a1.061,1.061,0,0,0,1.06,1.06Z" transform="translate(935.219 2718.856)" fill="#212121"/></g></g></svg>