<svg xmlns="http://www.w3.org/2000/svg" width="76" height="76" viewBox="0 0 76 76"><g transform="translate(-1409 -2681)"><circle cx="38" cy="38" r="38" transform="translate(1409 2681)" fill="#00a2be"/><g transform="translate(606.987 1848.059)"><g transform="translate(824.06 849.054)"><path d="M844.991,860.028V849.054H824.06v43.776h31.905v-32.8Z" transform="translate(-824.06 -849.054)" fill="#fff"/><path d="M824.06,848.054h20.931a1,1,0,0,1,1,1v9.974h9.974a1,1,0,0,1,1,1v32.8a1,1,0,0,1-1,1H824.06a1,1,0,0,1-1-1V849.054A1,1,0,0,1,824.06,848.054Zm19.931,2H825.06v41.776h29.905v-30.8h-9.974a1,1,0,0,1-1-1Z" transform="translate(-824.06 -849.054)" fill="#212121"/><path d="M876.713,860.028l-10.974-10.974v10.974Z" transform="translate(-844.808 -849.054)" fill="#00a2be"/><path d="M876.713,861.028H865.738a1,1,0,0,1-1-1V849.054a1,1,0,0,1,1.707-.707l10.974,10.974a1,1,0,0,1-.707,1.707Zm-9.974-2h7.56l-7.56-7.56Z" transform="translate(-844.808 -849.054)" fill="#212121"/><g transform="translate(3.914 15.663)"><rect width="4.378" height="4.378" fill="#fff"/><path d="M0-1H4.378a1,1,0,0,1,1,1V4.378a1,1,0,0,1-1,1H0a1,1,0,0,1-1-1V0A1,1,0,0,1,0-1ZM3.378,1H1V3.378H3.378Z" fill="#212121"/><g transform="translate(7.661 0.958)"><path d="M16.416,1H0V-1H16.416Z" fill="#212121"/><path d="M16.416,1H0V-1H16.416Z" transform="translate(0 2.462)" fill="#212121"/></g></g><g transform="translate(3.914 24.076)"><rect width="4.378" height="4.378" fill="#fff"/><path d="M0-1H4.378a1,1,0,0,1,1,1V4.378a1,1,0,0,1-1,1H0a1,1,0,0,1-1-1V0A1,1,0,0,1,0-1ZM3.378,1H1V3.378H3.378Z" fill="#212121"/><g transform="translate(7.661 0.958)"><path d="M16.416,1H0V-1H16.416Z" fill="#212121"/><path d="M16.416,1H0V-1H16.416Z" transform="translate(0 2.462)" fill="#212121"/></g></g></g><g transform="translate(827.975 881.543)"><rect width="4.378" height="4.377" transform="translate(0)" fill="#fff"/><path d="M0-1H4.378a1,1,0,0,1,1,1V4.377a1,1,0,0,1-1,1H0a1,1,0,0,1-1-1V0A1,1,0,0,1,0-1ZM3.378,1H1V3.377H3.378Z" transform="translate(0)" fill="#212121"/><g transform="translate(7.661 0.957)"><path d="M16.416,1H0V-1H16.416Z" fill="#212121"/><path d="M16.416,1H0V-1H16.416Z" transform="translate(0 2.463)" fill="#212121"/></g></g></g></g></svg>