<svg xmlns="http://www.w3.org/2000/svg" width="76" height="76" viewBox="0 0 76 76"><g transform="translate(-923 -2681)"><g transform="translate(0 -87)"><circle cx="38" cy="38" r="38" transform="translate(923 2768)" fill="#00a2be"/><g transform="translate(849.709 2571.932)"><g transform="translate(86.683 215.894)"><path d="M86.683,238.771c0-12.263,9.321-22.2,20.821-22.2s20.821,9.941,20.821,22.2-9.321,22.2-20.821,22.2S86.683,251.034,86.683,238.771Z" transform="translate(-86.683 -216.567)" fill="#fff"/><path d="M107.5,261.974a20.578,20.578,0,0,1-8.516-1.833,21.726,21.726,0,0,1-6.936-4.986,23.26,23.26,0,0,1-4.662-7.373,24.645,24.645,0,0,1,0-18.023,23.262,23.262,0,0,1,4.662-7.373,21.726,21.726,0,0,1,6.936-4.986,20.694,20.694,0,0,1,17.031,0,21.726,21.726,0,0,1,6.936,4.986,23.262,23.262,0,0,1,4.662,7.373,24.645,24.645,0,0,1,0,18.023,23.26,23.26,0,0,1-4.662,7.373,21.726,21.726,0,0,1-6.936,4.986A20.578,20.578,0,0,1,107.5,261.974Zm0-44.407c-10.929,0-19.821,9.512-19.821,21.2s8.891,21.2,19.821,21.2,19.821-9.512,19.821-21.2S118.433,217.567,107.5,217.567Z" transform="translate(-86.683 -216.567)" fill="#212121"/><path d="M127.79,250.492a5.9,5.9,0,0,1,2.563-11.2,6.013,6.013,0,0,1,1.175.116A14.3,14.3,0,0,1,128.54,249.9Z" transform="translate(-90.946 -217.3)" fill="#9be0e8"/><path d="M91.439,250.492a5.9,5.9,0,0,0-2.564-11.2,6.027,6.027,0,0,0-1.175.116A14.3,14.3,0,0,0,90.69,249.9Z" transform="translate(-86.787 -217.3)" fill="#9be0e8"/><g transform="translate(8.012 24.826)"><path d="M109.5,254.365c9.949,0,11.765-10.389,11.765-10.389.134-2.751-1.883-1.582-1.883-1.582-3.295,2-10.555,1.927-10.555,1.927h-.672s-7.26.068-10.555-1.927c0,0-2.017-1.169-1.883,1.582,0,0,1.816,10.389,11.765,10.389Z" transform="translate(-95.714 -242.148)" fill="#fff"/><path d="M109.5,255.365h-2.017a11.976,11.976,0,0,1-10.451-5.647,16.4,16.4,0,0,1-2.3-5.569l-.011-.061,0-.062a2.993,2.993,0,0,1,.635-2.307,1.847,1.847,0,0,1,1.373-.57,2.963,2.963,0,0,1,1.375.382l.017.01c2.324,1.407,7.348,1.783,9.951,1.783h.845c2.6,0,7.627-.375,9.951-1.783l.016-.01a2.962,2.962,0,0,1,1.375-.382,1.847,1.847,0,0,1,1.373.57,2.993,2.993,0,0,1,.635,2.307l0,.062-.011.061a16.4,16.4,0,0,1-2.3,5.569A11.976,11.976,0,0,1,109.5,255.365Zm-12.787-11.5a14.724,14.724,0,0,0,2.028,4.818,9.929,9.929,0,0,0,8.741,4.687H109.5a9.934,9.934,0,0,0,8.777-4.741,14.588,14.588,0,0,0,1.993-4.762,2,2,0,0,0-.067-.709,1.137,1.137,0,0,0-.319.109c-3.262,1.961-9.708,2.061-10.969,2.061h-.845c-1.261,0-7.707-.1-10.969-2.061a1.138,1.138,0,0,0-.32-.109A2,2,0,0,0,96.716,243.86Z" transform="translate(-95.714 -242.148)" fill="#212121"/><path d="M108.788,249.832q-1.414,0-2.828-.112a36.6,36.6,0,0,1-9.581-2.089,1,1,0,0,1,.682-1.88,34.25,34.25,0,0,0,16.389,1.756,26.3,26.3,0,0,0,6.628-1.725,1,1,0,0,1,.834,1.818,27.945,27.945,0,0,1-7.184,1.888A35.521,35.521,0,0,1,108.788,249.832Z" transform="translate(-95.827 -242.66)" fill="#212121"/></g><path d="M121.176,237.5l-.071,0a1,1,0,0,1-.929-1.041.523.523,0,0,0-.649-.047,1,1,0,0,1-1.992-.173,2.339,2.339,0,0,1,4.638.334A1,1,0,0,1,121.176,237.5Z" transform="translate(-90.277 -217.546)" fill="#212121"/><path d="M99.085,237.5a1,1,0,0,1-1-.93,2.338,2.338,0,0,1,4.637-.334,1,1,0,0,1-1.992.173.451.451,0,0,0-.333-.089.445.445,0,0,0-.315.137,1,1,0,0,1-.929,1.042Z" transform="translate(-88.082 -217.546)" fill="#212121"/></g><path d="M107.957,213.022c5.891-5.07,12.805-1.618,15.1,5.2.98,3.536,3.479,3.844,5.09,4.414a.3.3,0,0,1,.036.2c-6.6,4.538-17.089,1.883-20.423-4.636h-.485c-3.333,6.52-13.825,9.174-20.423,4.636a.3.3,0,0,1,.036-.2c1.611-.57,4.11-.878,5.09-4.414,2.3-6.818,10.012-10.27,15.9-5.2" transform="translate(-0.019 -2)" fill="#00a2be"/><path d="M94.558,226.1a16.207,16.207,0,0,1-2.2-.148,13.93,13.93,0,0,1-6.069-2.292,1,1,0,0,1-.422-.674,1.3,1.3,0,0,1,.157-.845,1,1,0,0,1,.534-.446c.223-.079.449-.149.689-.224,1.505-.469,3.062-.954,3.772-3.515q.007-.026.016-.052A12.954,12.954,0,0,1,94.2,212.81a11.256,11.256,0,0,1,4.875-2.851,9.982,9.982,0,0,1,8.845,1.806,9.455,9.455,0,0,1,8.358-1.846c3.476.952,6.365,3.936,7.73,7.983q.009.026.016.052c.71,2.561,2.266,3.046,3.771,3.515.24.075.466.145.689.224a1,1,0,0,1,.534.446,1.3,1.3,0,0,1,.157.845,1,1,0,0,1-.422.674,13.93,13.93,0,0,1-6.068,2.292,17.058,17.058,0,0,1-6.438-.382,16.408,16.408,0,0,1-5.5-2.519,12.76,12.76,0,0,1-3.225-3.29,12.756,12.756,0,0,1-3.225,3.29,16.407,16.407,0,0,1-5.5,2.52A17.354,17.354,0,0,1,94.558,226.1Zm-5.47-3.149a14.122,14.122,0,0,0,9.219.681,12.382,12.382,0,0,0,8.083-5.887,1,1,0,0,1,.89-.545h.485a1,1,0,0,1,.89.545,12.384,12.384,0,0,0,8.084,5.887,14.123,14.123,0,0,0,9.217-.681,6.19,6.19,0,0,1-3.851-4.433c-1.155-3.4-3.529-5.894-6.355-6.668a7.6,7.6,0,0,0-7.141,1.932,1.1,1.1,0,0,1-1.375,0,8.152,8.152,0,0,0-7.63-1.892,10.168,10.168,0,0,0-6.665,6.629A6.19,6.19,0,0,1,89.088,222.95Z" transform="translate(-0.019 -2)" fill="#212121"/><path d="M136.281,253.081c5.1,0,4.64,5.672,4.64,5.672h.053s-.465-5.672,4.64-5.672v-.207c-5.1,0-4.64-5.67-4.64-5.67h-.053s.464,5.67-4.64,5.67Z" transform="translate(-5.454 -31.366)" fill="#fff"/><path d="M140.974,259.752h-.053a1,1,0,0,1-1-1.082,5.474,5.474,0,0,0-1.066-3.625,3.313,3.313,0,0,0-2.577-.965,1,1,0,0,1-1-1v-.207a1,1,0,0,1,1-1,3.313,3.313,0,0,0,2.577-.965,5.472,5.472,0,0,0,1.066-3.626,1,1,0,0,1,1-1.079h.053a1,1,0,0,1,1,1.082,5.47,5.47,0,0,0,1.065,3.622,3.313,3.313,0,0,0,2.578.966,1,1,0,0,1,1,1v.207a1,1,0,0,1-1,1,3.313,3.313,0,0,0-2.577.966,5.474,5.474,0,0,0-1.065,3.627,1,1,0,0,1-1,1.079Zm-1.472-6.775a4.8,4.8,0,0,1,.833.72,5.123,5.123,0,0,1,.612.818,5.123,5.123,0,0,1,.612-.818,4.8,4.8,0,0,1,.833-.72,4.8,4.8,0,0,1-.833-.721,5.122,5.122,0,0,1-.612-.817,5.126,5.126,0,0,1-.612.817A4.8,4.8,0,0,1,139.5,252.977Z" transform="translate(-5.454 -31.366)" fill="#212121"/></g></g><g transform="translate(776.451 1679.031)"><path d="M180.212,1034.48a4,4,0,0,0-4.154-3.826H158.186a4,4,0,0,0-4.156,3.826v7.261c0,.049.014.094.016.141s-.016.117-.016.176c0,4.192,5.862,7.588,13.092,7.588s13.09-3.4,13.09-7.588c0-.059-.012-.117-.014-.176s.014-.092.014-.141Z" fill="#fff"/><path d="M158.186,1032.654a2.014,2.014,0,0,0-2.156,1.826v7.142c.006.05.011.109.014.175a2,2,0,0,1,0,.22c0,.044-.007.083-.01.115.04,1.243,1.069,2.536,2.836,3.561a18.421,18.421,0,0,0,16.507,0c1.771-1.026,2.8-2.323,2.836-3.568,0-.046-.01-.107-.012-.176q0-.076,0-.152c0-.061.007-.116.012-.16v-7.157a2.013,2.013,0,0,0-2.154-1.826H158.186m0-2h17.872a4,4,0,0,1,4.154,3.826v7.261c0,.049-.012.094-.014.141s.014.117.014.176c0,4.192-5.861,7.588-13.09,7.588s-13.092-3.4-13.092-7.588c0-.059.012-.117.016-.176s-.016-.092-.016-.141v-7.261A4,4,0,0,1,158.186,1030.654Z"/><path d="M213.069,1034.48a4,4,0,0,0-4.154-3.826H191.044a4,4,0,0,0-4.156,3.826v7.261c0,.049.013.094.015.141s-.015.117-.015.176c0,4.192,5.861,7.588,13.091,7.588s13.09-3.4,13.09-7.588c0-.059-.011-.117-.013-.176s.013-.092.013-.141Z" transform="translate(-5.366)" fill="#fff"/><path d="M191.044,1032.654a2.014,2.014,0,0,0-2.156,1.826v7.149c.006.05.011.105.013.168a1.994,1.994,0,0,1,0,.22c0,.041-.006.078-.009.109.036,1.245,1.065,2.541,2.836,3.568a18.42,18.42,0,0,0,16.507,0c1.774-1.028,2.8-2.328,2.836-3.574,0-.044-.009-.1-.011-.169q0-.076,0-.153c0-.058.007-.109.011-.151v-7.166a2.013,2.013,0,0,0-2.154-1.826H191.044m0-2h17.871a4,4,0,0,1,4.154,3.826v7.261c0,.049-.011.094-.013.141s.013.117.013.176c0,4.192-5.861,7.588-13.09,7.588s-13.091-3.4-13.091-7.588c0-.059.011-.117.015-.176s-.015-.092-.015-.141v-7.261A4,4,0,0,1,191.044,1030.654Z" transform="translate(-5.366)"/><path d="M8.3,1H0A1,1,0,0,1-1,0,1,1,0,0,1,0-1H8.3a1,1,0,0,1,1,1A1,1,0,0,1,8.3,1Z" transform="translate(176.716 1037.329)"/></g></g></svg>