<svg xmlns="http://www.w3.org/2000/svg" width="19" height="19" viewBox="0 0 19 19"><g transform="translate(-1513 -869)"><path d="M0,0H19V19H0Z" transform="translate(1513 869)" fill="none"/><path d="M12.338,6.568,7.861,11.047a.792.792,0,1,0,1.12,1.12l4.478-4.478A2.375,2.375,0,1,0,10.1,4.329L5.621,8.808a3.958,3.958,0,1,0,5.6,5.6L15.7,9.927l1.119,1.119-4.478,4.478A5.542,5.542,0,1,1,4.5,7.687L8.98,3.21a3.958,3.958,0,1,1,5.6,5.6L10.1,13.287A2.375,2.375,0,1,1,6.74,9.927l4.478-4.478Z" transform="translate(1513.122 868.951)" fill="#acacac"/></g></svg>