<svg xmlns="http://www.w3.org/2000/svg" width="76" height="76" viewBox="0 0 76 76"><g transform="translate(-377 -1637)"><circle cx="38" cy="38" r="38" transform="translate(377 1637)" fill="#fff"/><g transform="translate(116.833 1033.531)"><g transform="translate(274.166 621.569)"><g transform="translate(0 0)"><path d="M318.159,644.574A19.543,19.543,0,0,0,298.843,627.5c-8.042.064-16.708,3.918-18.461,14.16-.367,2.141-.014,4.468-.644,6.561-.62,2.061-3.408,2.538-4.183,4.439-.62,1.744,1.084,3.17,2.324,4.6,1.262,1.453,1.931,4.133,2.788,5.872,1.009,2.043,2.118,4.238,3.933,5.66,3.984,3.122,10.16,1.152,14.494-.082a45.123,45.123,0,0,0,7.136-2.572C314.131,662.17,319.4,653.927,318.159,644.574Z" transform="translate(-274.768 -626.846)" fill="#fff" stroke="#000" stroke-width="0.5"/><path d="M289.521,670.516h0A9.238,9.238,0,0,1,283.6,668.7c-1.974-1.547-3.161-3.952-4.115-5.885-.306-.62-.578-1.327-.866-2.075a13.069,13.069,0,0,0-1.83-3.658c-.183-.21-.377-.421-.571-.633-1.187-1.293-2.532-2.759-1.875-4.609a5.672,5.672,0,0,1,2.271-2.392,4.3,4.3,0,0,0,1.9-2.017,13.9,13.9,0,0,0,.408-3.607,20.517,20.517,0,0,1,.217-2.877c1.839-10.742,11.071-14.637,19.1-14.7h.159A20.187,20.187,0,0,1,318.2,643.89c1.212,9.152-3.609,17.877-12.283,22.228a46.151,46.151,0,0,1-7.25,2.616l-.586.168A32.321,32.321,0,0,1,289.521,670.516Zm8.873-42.964h-.148c-3.639.029-15.68,1.1-17.824,13.618a19.2,19.2,0,0,0-.2,2.693,15.09,15.09,0,0,1-.463,3.946,5.394,5.394,0,0,1-2.4,2.708,4.669,4.669,0,0,0-1.8,1.79c-.357,1.006.408,1.946,1.618,3.264.2.22.4.44.595.659a13.881,13.881,0,0,1,2.063,4.045c.277.72.54,1.4.819,1.968.895,1.813,2.009,4.07,3.75,5.435a7.993,7.993,0,0,0,5.12,1.536h0a31.331,31.331,0,0,0,8.2-1.564l.589-.169a45.013,45.013,0,0,0,7.032-2.532c8.16-4.093,12.7-12.293,11.565-20.886A18.88,18.88,0,0,0,298.394,627.552Z" transform="translate(-274.166 -626.248)" stroke="#000" stroke-width="0.5"/><g transform="translate(10.117 4.697)"><path d="M321.613,644.091c-.419-.568-1.5-1.127-1.963-.716,1.161-1.024-.019-2.79-.883-3.516-1.064-.895-2.795-.606-3.788-.194-.048-2.211-1.445-3.188-3.5-2.948a2.9,2.9,0,0,0-1.726.875c-.37.355-.349.354-.7-.038a2.6,2.6,0,0,0-1.583-1.025,1.93,1.93,0,0,0-1.87.724c-.11.155-.232.724-.413.763-.116.026-.516-.333-.653-.389a2.031,2.031,0,0,0-1.425-.045,1.308,1.308,0,0,0-.593.4c-.124.159-.2.629-.371.673s-.695-.415-.881-.479a2.678,2.678,0,0,0-2.294.2c-.9.605-.978,1.554-1.03,2.594a6.023,6.023,0,0,0-1.313.209,2.249,2.249,0,0,0-1.254.727,2.591,2.591,0,0,0-.244,2.875,2.864,2.864,0,0,0,2.616,1.067c-.808,2.449,2.052,3.233,3.621,1.867a3.617,3.617,0,0,0,2.31,3.687c1.734.464,2.778-.409,4.157-1.134-.08.042.651.889.721.95a2.664,2.664,0,0,0,1.187.614,2.621,2.621,0,0,0,1.9-.455c.355-.209,1.072-1.021,1.516-.833.306.129.566.614.808.848a2.623,2.623,0,0,0,.787.539,3.212,3.212,0,0,0,2.646-.053,3.31,3.31,0,0,0,2.023-3.273,3.139,3.139,0,0,0,2.253-1.518A2.643,2.643,0,0,0,321.613,644.091Z" transform="translate(-294.161 -635.853)" fill="#00a2be" stroke="#000" stroke-width="0.5"/><path d="M315.4,652.247h0a3.6,3.6,0,0,1-1.494-.319,3.275,3.275,0,0,1-.972-.663,3.519,3.519,0,0,1-.33-.388c-.063-.081-.157-.2-.228-.278a4.973,4.973,0,0,0-.526.4,3.832,3.832,0,0,1-.456.343,3.649,3.649,0,0,1-1.831.588,2.628,2.628,0,0,1-.54-.057,3.326,3.326,0,0,1-1.481-.762,5.572,5.572,0,0,1-.52-.57l-.1.059a5.732,5.732,0,0,1-2.883.987,4.313,4.313,0,0,1-1.109-.152,3.968,3.968,0,0,1-2.687-3.234,3.411,3.411,0,0,1-1.251.237,2.643,2.643,0,0,1-2.194-1.021,2.3,2.3,0,0,1-.418-1.554,3.015,3.015,0,0,1-2.385-1.34,3.256,3.256,0,0,1,.3-3.632,2.911,2.911,0,0,1,1.591-.94s.45-.108.861-.181a3.091,3.091,0,0,1,1.283-2.533,2.985,2.985,0,0,1,1.675-.476,3.668,3.668,0,0,1,1.2.2,1.81,1.81,0,0,1,.4.221,1.114,1.114,0,0,1,.123-.2,1.941,1.941,0,0,1,.883-.613,2.706,2.706,0,0,1,1.9.054,1.079,1.079,0,0,1,.161.084,1.235,1.235,0,0,1,.124-.231,2.53,2.53,0,0,1,2.082-1.025,2.79,2.79,0,0,1,.418.031,3.106,3.106,0,0,1,1.862,1.114,3.464,3.464,0,0,1,1.968-.929c2.234-.26,3.769.78,4.139,2.726a5.775,5.775,0,0,1,1.376-.177,3.46,3.46,0,0,1,2.266.741,4.385,4.385,0,0,1,1.6,2.919,2.179,2.179,0,0,1-.036.428,3.114,3.114,0,0,1,1.388,1,3.283,3.283,0,0,1,.08,3.765,11.9,11.9,0,0,0-4.541,5.007A4.126,4.126,0,0,1,315.4,652.247Zm-2.965-2.979a1.022,1.022,0,0,1,.4.079,2.122,2.122,0,0,1,.806.735,2.462,2.462,0,0,0,.2.244,1.975,1.975,0,0,0,.6.413,2.3,2.3,0,0,0,.958.2h0a2.878,2.878,0,0,0,1.155-.256,2.645,2.645,0,0,0,1.636-2.647.653.653,0,0,1,.548-.675,2.49,2.49,0,0,0,1.827-1.253,2,2,0,0,0-.069-2.234,1.643,1.643,0,0,0-1.013-.592.649.649,0,0,1-.917-.068.664.664,0,0,1,.061-.931h0a.718.718,0,0,0,.263-.591,3.152,3.152,0,0,0-1.135-1.936,2.158,2.158,0,0,0-1.427-.435,4.657,4.657,0,0,0-1.692.344.652.652,0,0,1-.9-.588c-.034-1.557-.794-2.345-2.259-2.345a4.469,4.469,0,0,0-.512.031,2.235,2.235,0,0,0-1.35.7,1.146,1.146,0,0,1-.8.443,1.067,1.067,0,0,1-.8-.486,2.038,2.038,0,0,0-1.222-.846,1.3,1.3,0,0,0-1.24.457,1.36,1.36,0,0,1-.046.135c-.125.333-.3.789-.76.889a.769.769,0,0,1-.151.016,1.352,1.352,0,0,1-.778-.354c-.056-.041-.108-.081-.148-.1a1.49,1.49,0,0,0-.916-.018.681.681,0,0,0-.3.191.558.558,0,0,1-.034.112,1.085,1.085,0,0,1-.693.793.866.866,0,0,1-.179.022,1.68,1.68,0,0,1-.889-.392,2.5,2.5,0,0,0-.217-.139,2.348,2.348,0,0,0-.736-.116,1.715,1.715,0,0,0-.948.255c-.616.413-.691,1.063-.743,2.086a.651.651,0,0,1-.59.616.662.662,0,0,1-.188-.009c-.233.027-.854.157-1.022.2a1.59,1.59,0,0,0-.917.514,1.954,1.954,0,0,0-.188,2.118c.31.508.965.755,2,.755h0a.7.7,0,0,1,.553.268.662.662,0,0,1,.118.588,1.348,1.348,0,0,0,.068,1.2,1.384,1.384,0,0,0,1.137.481,2.11,2.11,0,0,0,1.368-.507.652.652,0,0,1,1.08.5c-.007,1.232.562,2.714,1.827,3.053a3.785,3.785,0,0,0,3.013-.711c.218-.123.44-.249.672-.371h0a.653.653,0,0,1,.879.275.672.672,0,0,1,.048.12c.126.179.461.575.546.661a2,2,0,0,0,.872.448,1.933,1.933,0,0,0,1.438-.38,3.439,3.439,0,0,0,.285-.223A2.442,2.442,0,0,1,312.43,649.269Z" transform="translate(-293.566 -635.255)" stroke="#000" stroke-width="0.5"/></g></g><g transform="translate(9.644 22.141)"><path d="M296.607,671.709a4.388,4.388,0,0,1-3.857-2.023.652.652,0,0,1,1.124-.66,3.428,3.428,0,0,0,3.822,1.236.652.652,0,1,1,.334,1.259A5.523,5.523,0,0,1,296.607,671.709Z" transform="translate(-292.66 -668.704)" stroke="#000" stroke-width="0.5"/></g><g transform="translate(5.198 32.35)"><path d="M285.2,692.312a4.715,4.715,0,0,1-.479-.023.652.652,0,0,1,.134-1.3c1.48.151,4.081-.736,4.49-2.231a.652.652,0,1,1,1.257.344C290.032,691.183,287.194,692.312,285.2,692.312Z" transform="translate(-284.134 -688.281)" stroke="#000" stroke-width="0.5"/></g></g><g transform="translate(298.259 644.457)"><path d="M322.769,680.374a.652.652,0,0,1-.26-1.25,6.274,6.274,0,0,0,3.575-4.089c.337-1.424-.238-3.187-1.629-3.542-1.035-.261-2.177.518-2.846,1.944a.652.652,0,1,1-1.181-.554c.943-2.009,2.689-3.075,4.348-2.652,2.2.561,3.052,3.086,2.576,5.1a7.62,7.62,0,0,1-4.323,4.985A.658.658,0,0,1,322.769,680.374Z" transform="translate(-320.366 -670.138)" stroke="#000" stroke-width="0.5"/></g><g transform="translate(312.366 619.609)"><path d="M348.068,627.333a.652.652,0,0,1-.47-1.1l3.4-3.538a.652.652,0,1,1,.939.9l-3.4,3.538A.65.65,0,0,1,348.068,627.333Z" transform="translate(-347.416 -622.491)" stroke="#000" stroke-width="0.5"/></g><g transform="translate(316.577 625.303)"><path d="M356.143,636.937a.652.652,0,0,1-.329-1.215l3.81-2.224a.652.652,0,1,1,.658,1.125l-3.81,2.224A.65.65,0,0,1,356.143,636.937Z" transform="translate(-355.491 -633.409)" stroke="#000" stroke-width="0.5"/></g><g transform="translate(307.695 616.469)"><path d="M339.112,621.293a.652.652,0,0,1-.622-.847l1.106-3.52a.652.652,0,1,1,1.244.391l-1.106,3.52A.652.652,0,0,1,339.112,621.293Z" transform="translate(-338.46 -616.469)" stroke="#000" stroke-width="0.5"/></g></g></g></svg>