<svg xmlns="http://www.w3.org/2000/svg" width="170.538" height="133.554" viewBox="0 0 170.538 133.554"><g transform="translate(-209.502 -225.569)"><g transform="translate(364.814 347.669)"><rect width="5.935" height="5.935" transform="translate(1.083 5.283) rotate(-45.001)" fill="#9be0e8"/><path d="M290.777,295.874,285.5,290.6l5.279-5.283,5.281,5.283Zm-3.111-5.277,3.111,3.111,3.111-3.111-3.111-3.115Z" transform="translate(-285.498 -285.314)"/></g><g transform="translate(369.073 270.35)"><path d="M290.968,251.709H288.6a1.022,1.022,0,0,1,0-2.044h2.365a1.022,1.022,0,1,1,0,2.044Z" transform="translate(-287.582 -245.202)"/><path d="M294.174,251.709h-2.358a1.022,1.022,0,1,1,0-2.044h2.358a1.022,1.022,0,0,1,0,2.044Z" transform="translate(-284.23 -245.202)"/><path d="M290.787,251.889a1.021,1.021,0,0,1-1.022-1.022V248.5a1.022,1.022,0,0,1,2.044,0v2.365A1.024,1.024,0,0,1,290.787,251.889Z" transform="translate(-285.304 -247.481)"/><path d="M290.787,255.1a1.021,1.021,0,0,1-1.022-1.022v-2.365a1.022,1.022,0,0,1,2.044,0v2.365A1.024,1.024,0,0,1,290.787,255.1Z" transform="translate(-285.304 -244.128)"/></g><g transform="translate(232.741 341.313)"><path d="M224.257,286.432h-2.363a1.022,1.022,0,0,1,0-2.044h2.363a1.022,1.022,0,1,1,0,2.044Z" transform="translate(-220.873 -279.925)" fill="#00c9d8"/><path d="M227.468,286.432h-2.363a1.022,1.022,0,0,1,0-2.044h2.363a1.022,1.022,0,0,1,0,2.044Z" transform="translate(-217.522 -279.925)" fill="#00c9d8"/><path d="M224.078,286.61a1.02,1.02,0,0,1-1.022-1.022v-2.362a1.022,1.022,0,1,1,2.044,0v2.362A1.02,1.02,0,0,1,224.078,286.61Z" transform="translate(-218.595 -282.204)" fill="#00c9d8"/><path d="M224.078,289.821a1.02,1.02,0,0,1-1.022-1.022v-2.363a1.022,1.022,0,1,1,2.044,0V288.8A1.02,1.02,0,0,1,224.078,289.821Z" transform="translate(-218.595 -278.853)" fill="#00c9d8"/></g><g transform="translate(289.984 225.57)"><rect width="5.936" height="5.936" transform="translate(0.765 4.961) rotate(-44.986)" fill="#00c9d8"/><path d="M253.844,235.5h0a.77.77,0,0,1-.544-.225l-4.194-4.2a.767.767,0,0,1,0-1.083l4.194-4.2a.767.767,0,0,1,1.083,0l4.2,4.2a.762.762,0,0,1,0,1.083l-4.2,4.2A.771.771,0,0,1,253.844,235.5Zm-3.113-4.966,3.113,3.115,3.115-3.115-3.115-3.111Z" transform="translate(-248.882 -225.569)"/></g><g transform="translate(272.867 248.333)"><path d="M241.015,345.9h67.879s10.59,1.373,11.216-10.286V251.17s-1.157-11.651,8.753-13.962H249.421s-8.714.683-8.406,14.4V331.62" transform="translate(-239.985 -236.186)" fill="#00a2be"/><path d="M310.442,347.5a9.608,9.608,0,0,1-1.159-.059l-67.746.008a1.022,1.022,0,1,1,0-2.044h67.879a10.183,10.183,0,0,0,7.087-1.946c1.882-1.578,2.931-4.059,3.106-7.372V251.692c-.006-.02-.771-8.6,5.068-12.941H249.943c-.231.027-7.666.848-7.384,13.353v80.037a1.022,1.022,0,1,1-2.044,0V252.128c-.327-14.49,9.254-15.407,9.348-15.416l79.522,0a1.022,1.022,0,0,1,.233,2.017c-8.9,2.076-8.013,12.428-7.97,12.869l.006,84.545c-.211,3.971-1.508,6.945-3.857,8.9A11.632,11.632,0,0,1,310.442,347.5Z" transform="translate(-240.507 -236.708)"/></g><g transform="translate(267.163 248.333)"><path d="M238.224,345.9H306.1s10.586,1.373,11.212-10.286V251.17s-1.153-11.651,8.759-13.962H246.63s-8.716.683-8.406,14.4V331.62" transform="translate(-237.194 -236.186)" fill="#fff"/><path d="M307.647,347.5a9.5,9.5,0,0,1-1.155-.059l-67.746.008a1.022,1.022,0,1,1,0-2.044h67.879a10.175,10.175,0,0,0,7.083-1.946c1.886-1.576,2.933-4.059,3.111-7.372l0-84.394c0-.02-.768-8.6,5.074-12.941H247.152c-.231.027-7.668.848-7.384,13.353v80.037a1.022,1.022,0,1,1-2.044,0V252.128c-.329-14.49,9.254-15.407,9.348-15.416l79.524,0a1.022,1.022,0,0,1,.231,2.017c-8.9,2.076-8.015,12.428-7.97,12.869l0,84.545c-.213,3.971-1.508,6.947-3.859,8.9A11.613,11.613,0,0,1,307.647,347.5Z" transform="translate(-237.716 -236.708)"/></g><g transform="translate(256.035 344.346)"><path d="M239.188,296.871h75.281s-6.015,1.028-6.963-12.683H232.86S231.6,294.815,239.188,296.871Z" transform="translate(-231.738 -283.166)" fill="#00a2be"/><path d="M314.72,298.433c-.106,0-.233-.006-.374-.018H239.72a.991.991,0,0,1-.266-.037c-6.681-1.809-7.551-9.812-7.075-13.791a1.019,1.019,0,0,1,1.014-.9h74.646a1.024,1.024,0,0,1,1.02.95c.709,10.294,4.243,11.588,5.391,11.733H315a1.013,1.013,0,0,1,1.005.926,1.036,1.036,0,0,1-.836,1.1A2.516,2.516,0,0,1,314.72,298.433Zm-74.858-2.062h70.757c-1.537-1.731-3-4.895-3.523-10.64H234.352C234.268,288.172,234.55,294.83,239.861,296.371Z" transform="translate(-232.271 -283.688)"/></g><rect width="48.26" height="2.044" transform="translate(282.518 310.642)"/><rect width="28.043" height="2.044" transform="translate(282.518 319.765)"/><rect width="13.009" height="2.044" transform="translate(282.518 329.432)"/><rect width="30.592" height="2.044" transform="translate(300.187 329.432)"/><rect width="14.767" height="2.044" transform="translate(316.011 319.765)"/><rect width="10.524" height="30.268" transform="translate(319.428 265.702)" fill="#9be0e8"/><rect width="10.532" height="22.045" transform="translate(302.975 273.925)" fill="#9be0e8"/><path d="M244.108,235.913a42.536,42.536,0,0,0-6.076.484v83.9a42.414,42.414,0,1,0,6.076-84.386Z" transform="translate(29.776 10.795)" fill="#9be0e8" opacity="0.3" style="mix-blend-mode:multiply;isolation:isolate"/><g transform="translate(225.98 244.309)"><path d="M218.065,273.8a38.562,38.562,0,1,0,38.56-38.564A38.562,38.562,0,0,0,218.065,273.8Z" transform="translate(-217.043 -234.217)" fill="#00c9d8"/><path d="M257.147,313.91a39.585,39.585,0,1,1,39.586-39.584A39.628,39.628,0,0,1,257.147,313.91Zm0-77.127a37.542,37.542,0,1,0,37.543,37.543A37.584,37.584,0,0,0,257.147,236.783Z" transform="translate(-217.565 -234.739)"/></g><g transform="translate(235.158 253.491)"><path d="M222.556,269.114a29.382,29.382,0,1,0,29.382-29.382A29.382,29.382,0,0,0,222.556,269.114Z" transform="translate(-221.534 -238.71)" fill="#fff"/><path d="M252.46,300.038a30.4,30.4,0,1,1,30.4-30.4A30.436,30.436,0,0,1,252.46,300.038Zm0-58.762a28.359,28.359,0,1,0,28.36,28.36A28.393,28.393,0,0,0,252.46,241.276Z" transform="translate(-222.056 -239.232)"/></g><g transform="translate(244.345 262.674)"><path d="M227.051,264.425a20.2,20.2,0,1,0,20.2-20.2A20.194,20.194,0,0,0,227.051,264.425Z" transform="translate(-226.029 -243.203)" fill="#00c9d8"/><path d="M247.769,286.166a21.221,21.221,0,1,1,21.224-21.22A21.241,21.241,0,0,1,247.769,286.166Zm0-40.4a19.177,19.177,0,1,0,19.18,19.178A19.2,19.2,0,0,0,247.769,245.769Z" transform="translate(-226.551 -243.725)"/></g><g transform="translate(253.766 272.099)"><path d="M231.661,259.611a10.775,10.775,0,1,0,10.774-10.774A10.776,10.776,0,0,0,231.661,259.611Z" transform="translate(-230.639 -247.815)" fill="#fff"/><path d="M242.957,271.929a11.8,11.8,0,1,1,11.8-11.8A11.809,11.809,0,0,1,242.957,271.929Zm0-21.549a9.751,9.751,0,1,0,9.755,9.752A9.763,9.763,0,0,0,242.957,250.381Z" transform="translate(-231.161 -248.337)"/></g><path d="M262.54,271.127a1.03,1.03,0,0,1-.538-.151l-49.12-30.3a1.022,1.022,0,1,1,1.075-1.739l49.12,30.3a1.022,1.022,0,0,1-.538,1.892Z" transform="translate(3.023 13.791)"/><g transform="translate(216.281 244.673)"><path d="M226.7,251.408l-2.106-8.15-11.17-7.345.766,7.575Z" transform="translate(-212.189 -233.878)" fill="#00a2be"/><path d="M228.962,254.692l-15.109-9.566-1.034-10.208,13.294,8.743ZM215.784,243.93l9.91,6.272-1.361-5.267-9.047-5.949Z" transform="translate(-212.819 -234.917)"/></g><g transform="translate(209.502 253.581)"><path d="M229.763,247.765l-7,1.949L210.6,242.83l6.428-2.987Z" transform="translate(-208.361 -238.684)" fill="#00a2be"/><path d="M223.767,251.4,209.5,243.333l8.733-4.057,15.185,9.442Zm-9.8-7.891,10.065,5.7L228.39,248l-10.3-6.4Z" transform="translate(-209.502 -239.276)"/></g></g></svg>