<svg xmlns="http://www.w3.org/2000/svg" width="201" height="156" viewBox="0 0 201 156"><g transform="translate(-1169.242 -123.975)"><rect width="201" height="156" transform="translate(1169.242 123.975)" fill="#fff"/><g transform="translate(1312.342 245.407)"><circle cx="10.574" cy="10.574" r="10.574" transform="translate(0)" fill="#fff"/><line y1="3.501" transform="translate(10.574 3.539)" fill="#fff" stroke="#000" stroke-linecap="round" stroke-linejoin="round" stroke-width="2"/><line x1="2.476" y1="2.476" transform="translate(5.6 5.6)" fill="#fff" stroke="#000" stroke-linecap="round" stroke-linejoin="round" stroke-width="2"/><line x1="3.501" transform="translate(3.539 10.574)" fill="#fff" stroke="#000" stroke-linecap="round" stroke-linejoin="round" stroke-width="2"/><line x1="2.476" y2="2.476" transform="translate(5.6 13.073)" fill="#fff" stroke="#000" stroke-linecap="round" stroke-linejoin="round" stroke-width="2"/><line y2="3.501" transform="translate(10.574 14.108)" fill="#fff" stroke="#000" stroke-linecap="round" stroke-linejoin="round" stroke-width="2"/><line x2="2.476" y2="2.476" transform="translate(13.073 13.073)" fill="#fff" stroke="#000" stroke-linecap="round" stroke-linejoin="round" stroke-width="2"/><line x2="3.501" transform="translate(14.108 10.574)" fill="#fff" stroke="#000" stroke-linecap="round" stroke-linejoin="round" stroke-width="2"/><line y1="2.476" x2="2.476" transform="translate(13.073 5.6)" fill="#fff" stroke="#000" stroke-linecap="round" stroke-linejoin="round" stroke-width="2"/></g><path d="M1411.06,152.072a5.382,5.382,0,0,1-.435,2.125h-39.758a3.937,3.937,0,0,1-.023-.413,3.783,3.783,0,0,1,3.8-3.766,4.183,4.183,0,0,1,.543.042,7.161,7.161,0,0,1,7.178-6.782,7.313,7.313,0,0,1,2.218.348,10.025,10.025,0,0,1,19.147,3.284,5.438,5.438,0,0,1,1.811-.31A5.5,5.5,0,0,1,1411.06,152.072Z" transform="translate(-93.717 0.11)" fill="#9be0e8" stroke="#000" stroke-linecap="round" stroke-linejoin="round" stroke-width="2"/><g transform="translate(1189.218 143.906)"><rect width="8.131" height="32.507" transform="translate(0 24.37)" fill="#9be0e8" stroke="#000" stroke-linecap="round" stroke-linejoin="round" stroke-width="2"/><rect width="8.131" height="56.877" transform="translate(12.848 0)" fill="#9be0e8" stroke="#000" stroke-linecap="round" stroke-linejoin="round" stroke-width="2"/><rect width="8.131" height="41.641" transform="translate(25.695 15.237)" fill="#9be0e8" stroke="#000" stroke-linecap="round" stroke-linejoin="round" stroke-width="2"/><rect width="8.131" height="53.936" transform="translate(38.543 2.941)" fill="#9be0e8" stroke="#000" stroke-linecap="round" stroke-linejoin="round" stroke-width="2"/><rect width="8.131" height="50.775" transform="translate(51.39 6.103)" fill="#9be0e8" stroke="#000" stroke-linecap="round" stroke-linejoin="round" stroke-width="2"/></g><g transform="translate(1173.617 185.104)"><circle cx="29.664" cy="29.664" r="29.664" transform="translate(0 0)" fill="#fff" stroke="#000" stroke-linecap="round" stroke-linejoin="round" stroke-width="2"/><circle cx="24.735" cy="24.735" r="24.735" transform="translate(4.929 4.929)" fill="#fff" stroke="#000" stroke-linecap="round" stroke-linejoin="round" stroke-width="2"/><line y2="3.193" transform="translate(29.664 4.929)" fill="#fff" stroke="#000" stroke-linecap="round" stroke-linejoin="round" stroke-width="2"/><line x2="1.597" y2="2.765" transform="translate(17.297 8.243)" fill="#fff" stroke="#000" stroke-linecap="round" stroke-linejoin="round" stroke-width="2"/><line x2="2.765" y2="1.597" transform="translate(8.243 17.297)" fill="#fff" stroke="#000" stroke-linecap="round" stroke-linejoin="round" stroke-width="2"/><line x2="3.193" transform="translate(4.929 29.664)" fill="#fff" stroke="#000" stroke-linecap="round" stroke-linejoin="round" stroke-width="2"/><line y1="1.597" x2="2.765" transform="translate(8.243 40.435)" fill="#fff" stroke="#000" stroke-linecap="round" stroke-linejoin="round" stroke-width="2"/><line x1="5.932" y2="10.275" transform="translate(23.732 29.664)" fill="#fff" stroke="#000" stroke-linecap="round" stroke-linejoin="round" stroke-width="2"/><line y1="2.765" x2="1.597" transform="translate(17.297 48.32)" fill="#fff" stroke="#000" stroke-linecap="round" stroke-linejoin="round" stroke-width="2"/><line y1="3.193" transform="translate(29.664 51.206)" fill="#fff" stroke="#000" stroke-linecap="round" stroke-linejoin="round" stroke-width="2"/><line x1="1.597" y1="2.765" transform="translate(40.435 48.32)" fill="#fff" stroke="#000" stroke-linecap="round" stroke-linejoin="round" stroke-width="2"/><line x1="2.765" y1="1.597" transform="translate(48.32 40.435)" fill="#fff" stroke="#000" stroke-linecap="round" stroke-linejoin="round" stroke-width="2"/><line x1="3.193" transform="translate(51.206 29.664)" fill="#fff" stroke="#000" stroke-linecap="round" stroke-linejoin="round" stroke-width="2"/><line x1="2.765" y2="1.597" transform="translate(48.32 17.297)" fill="#fff" stroke="#000" stroke-linecap="round" stroke-linejoin="round" stroke-width="2"/><line x1="1.597" y2="2.765" transform="translate(40.435 8.243)" fill="#fff" stroke="#000" stroke-linecap="round" stroke-linejoin="round" stroke-width="2"/><line y1="15.732" transform="translate(29.664 13.342)" fill="#fff" stroke="#000" stroke-linecap="round" stroke-linejoin="round" stroke-width="2"/><circle cx="2.191" cy="2.191" r="2.191" transform="translate(27.473 27.473)" fill="#fff" stroke="#000" stroke-linecap="round" stroke-linejoin="round" stroke-width="2"/></g><g transform="translate(1198.471 144.048)"><ellipse cx="57.959" cy="57.559" rx="57.959" ry="57.559" transform="translate(11.143 11.143)" fill="#fff"/><path d="M52.627.108a52.844,52.844,0,0,1,.216,105.686A52.844,52.844,0,0,1,52.627.108Z" transform="translate(16.15 121.437) rotate(-90)" fill="#00c9d8"/><path d="M1320.5,285.3c-24.016,0-43.554-19.359-43.554-43.154s19.538-43.154,43.554-43.154a43.156,43.156,0,1,1,0,86.308Z" transform="translate(-1251.393 -173.441)" fill="#fff"/><path d="M1328.333,284.6a34.219,34.219,0,1,1,34.218-34.219A34.258,34.258,0,0,1,1328.333,284.6Z" transform="translate(-1259.231 -181.678)" fill="#00c9d8"/><path d="M1336.171,283.1a24.885,24.885,0,1,1,24.884-24.885A24.913,24.913,0,0,1,1336.171,283.1Z" transform="translate(-1267.069 -189.516)" fill="#fff"/><path d="M1344.009,281.606a15.55,15.55,0,1,1,15.55-15.55A15.568,15.568,0,0,1,1344.009,281.606Z" transform="translate(-1274.907 -197.354)" fill="#00c9d8"/><circle cx="6.216" cy="6.216" r="6.216" transform="translate(62.886 62.486)" fill="#fff" stroke="#000" stroke-linecap="round" stroke-linejoin="round" stroke-width="2"/><g transform="translate(66.927 0.806)"><path d="M1441.434,153.472l1.7,10.927-14.748,14.748-1.7-10.927Z" transform="translate(-1386.669 -153.472)" fill="#00c9d8" stroke="#000" stroke-linecap="round" stroke-linejoin="round" stroke-width="2"/><path d="M1461.149,180.933l-10.927-1.7-14.748,14.748,10.927,1.7Z" transform="translate(-1390.68 -165.229)" fill="#00c9d8" stroke="#000" stroke-linecap="round" stroke-linejoin="round" stroke-width="2"/><path d="M1409.534,173.574,1353.7,229.4a2.174,2.174,0,0,0,3.074,3.075l55.831-55.831Z" transform="translate(-1353.067 -162.647)" fill="#fff" stroke="#000" stroke-linecap="round" stroke-linejoin="round" stroke-width="2"/></g></g><g transform="translate(1190.372 126.975)"><path d="M1220.013,156.7l12.848-24.37,12.848,15.237,12.848-12.3,12.848,3.162" transform="translate(-1217.101 -129.42)" fill="none" stroke="#000" stroke-linecap="round" stroke-linejoin="round" stroke-width="2"/><g transform="translate(0)"><circle cx="2.912" cy="2.912" r="2.912" transform="translate(0 24.37)" fill="#fff" stroke="#000" stroke-linecap="round" stroke-linejoin="round" stroke-width="2"/><circle cx="2.912" cy="2.912" r="2.912" transform="translate(12.848)" fill="#fff" stroke="#000" stroke-linecap="round" stroke-linejoin="round" stroke-width="2"/><circle cx="2.912" cy="2.912" r="2.912" transform="translate(25.695 15.237)" fill="#fff" stroke="#000" stroke-linecap="round" stroke-linejoin="round" stroke-width="2"/><circle cx="2.912" cy="2.912" r="2.912" transform="translate(38.543 2.941)" fill="#fff" stroke="#000" stroke-linecap="round" stroke-linejoin="round" stroke-width="2"/><circle cx="2.912" cy="2.912" r="2.912" transform="translate(51.39 6.103)" fill="#fff" stroke="#000" stroke-linecap="round" stroke-linejoin="round" stroke-width="2"/></g></g><g transform="translate(1342.166 212.75)"><circle cx="6.752" cy="6.752" r="6.752" transform="translate(0 0)" fill="#fff"/><circle cx="2.435" cy="2.435" r="2.435" transform="translate(4.318 4.318)" fill="#fff" stroke="#000" stroke-linecap="round" stroke-linejoin="round" stroke-width="2"/></g><g transform="translate(1308.156 195.507)"><rect width="7.798" height="39.805" transform="translate(10.841 33.66) rotate(-135)" fill="#9be0e8" stroke="#000" stroke-linecap="round" stroke-linejoin="round" stroke-width="2"/><rect width="7.798" height="31.242" transform="translate(10.841 33.661) rotate(-135)" fill="#00c9d8" stroke="#000" stroke-linecap="round" stroke-linejoin="round" stroke-width="2"/><path d="M1437.051,305.732l5.514,5.514-5.609,3.2-3.742,2.131-1.487-1.487,2.132-3.742Z" transform="translate(-1431.726 -277.586)" fill="#fff" stroke="#000" stroke-linecap="round" stroke-linejoin="round" stroke-width="2"/><path d="M1433.858,316.059l3.1,3.1-3.742,2.131-1.487-1.487Z" transform="translate(-1431.726 -282.299)" fill="#00a2be" stroke="#000" stroke-linecap="round" stroke-linejoin="round" stroke-width="2"/><rect width="7.798" height="3.198" transform="translate(32.932 11.569) rotate(-135)" fill="#fff" stroke="#000" stroke-linecap="round" stroke-linejoin="round" stroke-width="2"/></g><g transform="translate(1169.243 171.324)"><circle cx="8.375" cy="8.375" r="8.375" transform="translate(0)" fill="#fff"/><g transform="translate(2.563 2.563)"><line y1="2.893" transform="translate(5.812)" fill="#fff" stroke="#000" stroke-linecap="round" stroke-linejoin="round" stroke-width="2"/><line x1="2.893" transform="translate(0 5.812)" fill="#fff" stroke="#000" stroke-linecap="round" stroke-linejoin="round" stroke-width="2"/><line y2="2.893" transform="translate(5.812 8.731)" fill="#fff" stroke="#000" stroke-linecap="round" stroke-linejoin="round" stroke-width="2"/><line x2="2.893" transform="translate(8.731 5.812)" fill="#fff" stroke="#000" stroke-linecap="round" stroke-linejoin="round" stroke-width="2"/></g></g><g transform="translate(1211.888 260.505)"><circle cx="5.931" cy="5.931" r="5.931" transform="translate(0)" fill="#fff"/><g transform="translate(1.815 1.815)"><line y1="2.049" transform="translate(4.116)" fill="#fff" stroke="#000" stroke-linecap="round" stroke-linejoin="round" stroke-width="2"/><line x1="2.049" transform="translate(0 4.116)" fill="#fff" stroke="#000" stroke-linecap="round" stroke-linejoin="round" stroke-width="2"/><line y2="2.049" transform="translate(4.116 6.184)" fill="#fff" stroke="#000" stroke-linecap="round" stroke-linejoin="round" stroke-width="2"/><line x2="2.049" transform="translate(6.183 4.116)" fill="#fff" stroke="#000" stroke-linecap="round" stroke-linejoin="round" stroke-width="2"/></g></g><g transform="translate(1184.49 238.09)"><path d="M1224.985,360.624l-13.062-9.836,13.062-9.836" transform="translate(-1207.526 -336.555)" fill="none" stroke="#000" stroke-linecap="round" stroke-linejoin="round" stroke-width="2"/><circle cx="4.397" cy="4.397" r="4.397" transform="translate(0 9.836)" fill="#9be0e8" stroke="#000" stroke-linecap="round" stroke-linejoin="round" stroke-width="2"/><circle cx="4.397" cy="4.397" r="4.397" transform="translate(13.062 0)" fill="#9be0e8" stroke="#000" stroke-linecap="round" stroke-linejoin="round" stroke-width="2"/><circle cx="4.397" cy="4.397" r="4.397" transform="translate(13.062 19.671)" fill="#9be0e8" stroke="#000" stroke-linecap="round" stroke-linejoin="round" stroke-width="2"/></g></g></svg>