<svg xmlns="http://www.w3.org/2000/svg" width="76" height="76" viewBox="0 0 76 76"><g transform="translate(-377 -1637)"><circle cx="38" cy="38" r="38" transform="translate(377 1637)" fill="#fff"/><g transform="translate(185.891 1262.322)"><g transform="translate(250.481 399.489)"><path d="M269.649,415.984a.532.532,0,0,1-.45-.816c.033-.053,3.3-5.388-.041-13.495a.531.531,0,1,1,.982-.405c3.561,8.646.106,14.236-.043,14.47A.53.53,0,0,1,269.649,415.984Z" transform="translate(-269.117 -400.939)" stroke="#000" stroke-width="1"/></g><g transform="translate(205.11 399.489)"><path d="M207.206,415.984a.532.532,0,0,1-.449-.247c-.149-.234-3.6-5.824-.043-14.47a.531.531,0,0,1,.982.405c-3.35,8.14-.076,13.442-.043,13.494a.532.532,0,0,1-.164.734A.523.523,0,0,1,207.206,415.984Z" transform="translate(-205.11 -400.939)" stroke="#000" stroke-width="1"/></g><g transform="translate(206.78 407.308)"><g transform="translate(0.537 0.532)"><path d="M251.027,416.815c-1.495-4.295-8.19-4.095-8.19-4.095H217.1s-6.693-.2-8.191,4.095a18.365,18.365,0,0,0-.308,8.725,9.867,9.867,0,0,0,6.824,7.908s6.825,1.5,9.135-2.247l2.944-5.216a2.347,2.347,0,0,1,2.195-1.225v.042a1.151,1.151,0,0,1,.24-.038H230a1.175,1.175,0,0,1,.241.038v-.042a2.349,2.349,0,0,1,2.195,1.225l2.943,5.216c2.309,3.745,9.135,2.247,9.135,2.247a9.869,9.869,0,0,0,6.824-7.908A18.355,18.355,0,0,0,251.027,416.815Z" transform="translate(-208.224 -412.719)" fill="#fff" stroke="#000" stroke-width="1"/></g><path d="M241.243,434.058h0c-3.149,0-5.411-.967-6.538-2.8l-2.954-5.233a1.805,1.805,0,0,0-1.577-.948.477.477,0,0,1-.281.021.632.632,0,0,0-.128-.022h-.033a.647.647,0,0,0-.126.022.528.528,0,0,1-.314-.018,1.788,1.788,0,0,0-1.523.9l-2.965,5.258c-1.138,1.847-3.4,2.813-6.549,2.813a16.183,16.183,0,0,1-3.163-.309,10.516,10.516,0,0,1-7.238-8.369,18.642,18.642,0,0,1,.332-8.952c1.48-4.245,7.387-4.459,8.555-4.459l.155,0,25.861,0c1.17,0,7.079.215,8.554,4.453a18.756,18.756,0,0,1,.327,9.008,10.484,10.484,0,0,1-7.186,8.308A16.031,16.031,0,0,1,241.243,434.058Zm-11.224-10.047h0a2.867,2.867,0,0,1,2.677,1.542l2.92,5.168c1.157,1.876,3.7,2.273,5.623,2.273a15.433,15.433,0,0,0,2.935-.284,9.228,9.228,0,0,0,6.409-7.448,18.118,18.118,0,0,0-.284-8.5c-1.264-3.628-6.908-3.733-7.548-3.733H216.738c-.639,0-6.282.1-7.549,3.739a18.02,18.02,0,0,0-.288,8.442,9.263,9.263,0,0,0,6.461,7.508h0a15.818,15.818,0,0,0,2.891.273c1.926,0,4.466-.4,5.633-2.291l2.933-5.2a2.859,2.859,0,0,1,2.654-1.495.622.622,0,0,1,.118.013c.038,0,.076-.007.112-.008a.275.275,0,0,1,.1,0c.033,0,.071,0,.111.008A.393.393,0,0,1,230.019,424.011Z" transform="translate(-207.466 -411.969)" stroke="#000" stroke-width="1"/></g><g transform="translate(225.326 395.959)"><path d="M239.366,402.465h-5a.532.532,0,0,1-.4-.885l4.047-4.558h-3.86a.532.532,0,0,1,0-1.063H239.2a.532.532,0,0,1,.4.885l-4.047,4.558h3.811a.532.532,0,1,1,0,1.063Z" transform="translate(-233.629 -395.959)" fill="#00a2be" stroke="#00a2be" stroke-width="0.5"/></g><g transform="translate(235.652 399.271)"><path d="M252.313,405.442h-3.439a.531.531,0,0,1-.4-.885l2.542-2.863h-2.29a.532.532,0,0,1,0-1.063H252.2a.531.531,0,0,1,.4.885l-2.542,2.863h2.257a.532.532,0,1,1,0,1.063Z" transform="translate(-248.197 -400.631)" fill="#00a2be" stroke="#00a2be" stroke-width="0.5"/></g><g transform="translate(215.716 409.791)"><path d="M246.6,416.536H245.59v-1.063H246.6Zm-3.137,0h-2.126v-1.063h2.126Zm-4.253,0h-2.127v-1.063h2.127Zm-4.253,0h-2.127v-1.063h2.127Zm-4.253,0h-2.127v-1.063H230.7Zm-4.253,0h-2.127v-1.063h2.127Zm-4.253,0h-2.127v-1.063H222.2Z" transform="translate(-220.072 -415.473)" fill="#00a2be"/></g><g transform="translate(236.953 415.872)"><path d="M254.664,434.806c-.15,0-.295-.006-.439-.016l.072-1.06a5.306,5.306,0,0,0,1.908-.223l.315,1.016A6.279,6.279,0,0,1,254.664,434.806ZM252,434.247a7.528,7.528,0,0,1-1.966-1.192l.71-.791a6.592,6.592,0,0,0,1.669,1Zm6.518-.916-.681-.816a8.128,8.128,0,0,0,1.361-1.455l.86.625A9.19,9.19,0,0,1,258.517,433.331Zm2.633-3.609-.985-.4a9.25,9.25,0,0,0,.551-1.928l1.048.183A10.434,10.434,0,0,1,261.15,429.722Zm-.271-4.352c0-.189-.007-.381-.017-.577s-.026-.422-.047-.637l1.058-.1c.023.233.039.461.052.685s.016.421.018.625Z" transform="translate(-250.033 -424.051)" fill="#00a2be"/></g></g></g></svg>