<svg xmlns="http://www.w3.org/2000/svg" width="76" height="76" viewBox="0 0 76 76"><g transform="translate(-377 -1637)"><circle cx="38" cy="38" r="38" transform="translate(377 1637)" fill="#fff"/><g transform="translate(-226.916 1105.905)"><g transform="translate(619.031 546.888)"><path d="M640.256,589.842a16.711,16.711,0,0,1-16.589-14.625,4.927,4.927,0,0,1-1.141.133,5,5,0,1,1,.11-9.995l-.231-2.006a.54.54,0,0,1,0-.066c0-.319.009-.637.022-.95a17.857,17.857,0,0,1,35.689.95.552.552,0,0,1,0,.066l-.233,2.023q.213-.019.423-.019a5,5,0,0,1,0,10,4.916,4.916,0,0,1-1.442-.214A16.787,16.787,0,0,1,640.256,589.842Z" transform="translate(-617.527 -545.428)" fill="#fff"/></g><g transform="translate(617.527 545.428)"><path d="M633.693,563.865c7.957,0,15-3.546,17.535-8.824a.692.692,0,0,1,.689-.359.646.646,0,0,1,.589.478c1.3,5.98,7.289,10.35,14.318,10.522l.2-1.781a.567.567,0,0,0,0-.068,18.408,18.408,0,0,0-36.789-.979c-.011.257-.016.519-.018.781.139.019.277.038.416.054A26.658,26.658,0,0,0,633.693,563.865Z" transform="translate(-624.139 -544.493)" fill="#00a2be"/><path d="M670.446,581.968a14.926,14.926,0,0,1-14.279-10.257c-2.962,5.065-9.327,8.368-16.412,8.368a22.794,22.794,0,0,1-2.95-.192c-.2-.026-.4-.055-.594-.086a.614.614,0,0,1,.193-1.213q.279.045.56.082a21.649,21.649,0,0,0,2.791.182c7.277,0,13.721-3.666,16.036-9.122a.614.614,0,0,1,1.169.123,13.636,13.636,0,0,0,13.486,10.887.614.614,0,0,1,0,1.228Z" transform="translate(-628.255 -559.558)" stroke="#000" stroke-width="1"/><path d="M641.75,592.76a17.81,17.81,0,0,1-17.68-15.586,5.252,5.252,0,0,1-1.216.142,5.326,5.326,0,1,1,.117-10.652l-.246-2.137a.562.562,0,0,1,0-.07c0-.339.009-.679.024-1.013a19.03,19.03,0,0,1,38.034,1.013.574.574,0,0,1,0,.07l-.248,2.156q.227-.02.45-.02a5.327,5.327,0,0,1,0,10.653,5.24,5.24,0,0,1-1.537-.228A17.891,17.891,0,0,1,641.75,592.76ZM624.6,575.748a.613.613,0,0,1,.612.564,16.591,16.591,0,0,0,33.079-.138.614.614,0,0,1,.883-.506,4.056,4.056,0,0,0,1.8.421,4.1,4.1,0,1,0-1-8.067.614.614,0,0,1-.76-.666l.338-2.933a17.8,17.8,0,0,0-35.578-.919c-.013.3-.022.609-.023.919l.329,2.86a.614.614,0,0,1-.715.676,4.1,4.1,0,1,0-.71,8.13,4.055,4.055,0,0,0,1.52-.3A.611.611,0,0,1,624.6,575.748Z" transform="translate(-617.527 -545.428)" stroke="#000" stroke-width="1"/></g><path d="M673.954,635.085a1.709,1.709,0,0,1-1.275-.582c-.194-.188-.252-.237-.42-.237s-.226.049-.42.237a1.685,1.685,0,0,1-2.548,0c-.194-.188-.252-.237-.42-.237s-.227.049-.422.237a1.687,1.687,0,0,1-2.55,0c-.195-.188-.253-.237-.422-.237s-.227.049-.422.237a1.711,1.711,0,0,1-1.275.582.614.614,0,0,1,0-1.228c.17,0,.228-.049.423-.237a1.688,1.688,0,0,1,2.55,0c.195.188.253.237.422.237s.227-.049.421-.237a1.686,1.686,0,0,1,2.549,0c.195.188.252.237.421.237s.226-.049.42-.237a1.685,1.685,0,0,1,2.548,0c.195.188.253.237.421.237a.614.614,0,0,1,0,1.228Z" transform="translate(-26.951 -51.737)" stroke="#000" stroke-width="1"/><g transform="translate(631.289 572.895)"><path d="M651.753,615.023a.614.614,0,0,1-.194-1.2l3.861-1.283a.614.614,0,0,1,.387,1.166l-3.861,1.283A.611.611,0,0,1,651.753,615.023Z" transform="translate(-651.138 -612.51)" stroke="#000" stroke-width="1"/><path d="M695.086,615.023a.616.616,0,0,1-.194-.032l-3.86-1.283a.614.614,0,1,1,.387-1.166l3.861,1.283a.614.614,0,0,1-.194,1.2Z" transform="translate(-674.448 -612.511)" stroke="#000" stroke-width="1"/></g><g transform="translate(636.071 563.656)"><path d="M663.429,599.147a.614.614,0,0,1-.614-.614v-3.439a.614.614,0,1,1,1.228,0v3.439A.614.614,0,0,1,663.429,599.147Z" transform="translate(-662.815 -591.561)" fill="#00c9d8"/><path d="M671.945,597.611a.614.614,0,0,1-.614-.614v-5.482a.614.614,0,0,1,1.228,0V597A.614.614,0,0,1,671.945,597.611Z" transform="translate(-667.844 -589.448)" fill="#00c9d8"/><path d="M680.462,593.9a.592.592,0,0,1-.614-.568v-7.027a.616.616,0,0,1,1.228,0v7.027A.593.593,0,0,1,680.462,593.9Z" transform="translate(-672.874 -585.738)" fill="#00c9d8"/><path d="M688.977,595.3a.587.587,0,0,1-.614-.555V589.7a.617.617,0,0,1,1.228,0v5.047A.587.587,0,0,1,688.977,595.3Z" transform="translate(-677.902 -587.75)" fill="#00c9d8"/></g></g></g></svg>