<svg xmlns="http://www.w3.org/2000/svg" xmlns:xlink="http://www.w3.org/1999/xlink" width="1440" height="504" viewBox="0 0 1440 504"><defs><filter id="a" x="271" y="42" width="424" height="424" filterUnits="userSpaceOnUse"><feOffset dy="3" input="SourceAlpha"/><feGaussianBlur stdDeviation="25" result="b"/><feFlood flood-color="#0033a9" flood-opacity="0.333"/><feComposite operator="in" in2="b"/><feComposite in="SourceGraphic"/></filter><filter id="c" x="748" y="42" width="424" height="424" filterUnits="userSpaceOnUse"><feOffset dy="3" input="SourceAlpha"/><feGaussianBlur stdDeviation="25" result="d"/><feFlood flood-color="#0090a9" flood-opacity="0.333"/><feComposite operator="in" in2="d"/><feComposite in="SourceGraphic"/></filter><filter id="e" x="1063" y="361" width="136" height="136" filterUnits="userSpaceOnUse"><feOffset dy="3" input="SourceAlpha"/><feGaussianBlur stdDeviation="10" result="f"/><feFlood flood-color="#014753" flood-opacity="0.271"/><feComposite operator="in" in2="f"/><feComposite in="SourceGraphic"/></filter><clipPath id="g"><rect width="45" height="45" fill="#fff" stroke="#707070" stroke-width="1"/></clipPath><filter id="h" x="1063" y="13" width="136" height="136" filterUnits="userSpaceOnUse"><feOffset dy="3" input="SourceAlpha"/><feGaussianBlur stdDeviation="10" result="i"/><feFlood flood-color="#014753" flood-opacity="0.271"/><feComposite operator="in" in2="i"/><feComposite in="SourceGraphic"/></filter><filter id="k" x="244" y="361" width="136" height="136" filterUnits="userSpaceOnUse"><feOffset dy="3" input="SourceAlpha"/><feGaussianBlur stdDeviation="10" result="l"/><feFlood flood-color="#014753" flood-opacity="0.271"/><feComposite operator="in" in2="l"/><feComposite in="SourceGraphic"/></filter><clipPath id="m"><rect width="45" height="45" transform="translate(1603.5 1776.5)" fill="#fff" stroke="#707070" stroke-width="1"/></clipPath><filter id="n" x="244" y="13" width="136" height="136" filterUnits="userSpaceOnUse"><feOffset dy="3" input="SourceAlpha"/><feGaussianBlur stdDeviation="10" result="o"/><feFlood flood-color="#014753" flood-opacity="0.271"/><feComposite operator="in" in2="o"/><feComposite in="SourceGraphic"/></filter><filter id="q" x="179" y="187" width="136" height="136" filterUnits="userSpaceOnUse"><feOffset dy="3" input="SourceAlpha"/><feGaussianBlur stdDeviation="10" result="r"/><feFlood flood-color="#014753" flood-opacity="0.271"/><feComposite operator="in" in2="r"/><feComposite in="SourceGraphic"/></filter></defs><g transform="translate(-240 -2484)"><path d="M0,0H1440V504H0Z" transform="translate(240 2484)" fill="#fff"/><path d="M0,0H634" transform="translate(478.5 2735.5)" fill="none" stroke="#97d6dd" stroke-linecap="round" stroke-width="2" stroke-dasharray="3 6"/><path d="M0,187,187,0" transform="translate(540.5 2740.5)" fill="none" stroke="#97d6dd" stroke-linecap="round" stroke-width="2" stroke-dasharray="3 6"/><path d="M187,187,0,0" transform="translate(1195.5 2740.5)" fill="none" stroke="#97d6dd" stroke-linecap="round" stroke-width="2" stroke-dasharray="3 6"/><path d="M0,0,192,191.5" transform="translate(535.5 2540.5)" fill="none" stroke="#97d6dd" stroke-linecap="round" stroke-width="2" stroke-dasharray="3 6"/><path d="M192,0,0,191.5" transform="translate(1195.5 2540.5)" fill="none" stroke="#97d6dd" stroke-linecap="round" stroke-width="2" stroke-dasharray="3 6"/><path d="M-163.558-9.834a30.733,30.733,0,0,1-.53,6.265l1.238.144a33.268,33.268,0,0,0,.519-6.409v-1.381h-9.79V-10.2h8.564Zm-3.735,3.149h-1.215v4.961h-4.961V-.7h12.663V-1.724h-6.486Zm18.287-2.431h-1.9v-3.227h-1.171v7.834h1.171v-3.58h1.9V-4.42h1.16v-8.188h-1.16Zm-4.541-2.475h-5.448v1.017h4.193c-.238,2.331-1.873,4.21-4.757,5.381l.608.928C-155.425-5.768-153.547-8.276-153.547-11.591Zm4.5,8.818V1.271h1.2v-5.05h-9.37v1.006Zm14-4.21v-5.635h-1.227V1.271h1.227V-5.923h2.32V-6.983Zm-6.088-4.431h-1.215v2.53A7.343,7.343,0,0,1-146-2.685l.773.983a7.851,7.851,0,0,0,3.5-4.641,7.552,7.552,0,0,0,3.42,4.376l.762-.983a6.97,6.97,0,0,1-3.591-5.934Zm19.9,4.53v-5.735h-1.215V1.271h1.215v-7.1h2.265v-1.05Zm-5.923,1.641a3.255,3.255,0,0,0,3.083-3.21c-.011-1.934-1.569-3.249-3.7-3.26-2.177.011-3.713,1.326-3.7,3.26a3.218,3.218,0,0,0,3.094,3.215v2.4c-1.343.039-2.635.044-3.757.05l.21,1.028a51.475,51.475,0,0,0,8.674-.508l-.088-.928c-1.21.16-2.514.254-3.812.315Zm-3.127-3.21a2.279,2.279,0,0,1,2.508-2.21,2.293,2.293,0,0,1,2.5,2.21,2.272,2.272,0,0,1-2.5,2.2A2.258,2.258,0,0,1-130.287-8.453Zm20.315.641a5.5,5.5,0,0,0,3.453,2.873l.586-.961c-2.055-.619-3.448-2.133-3.448-3.834v-.243h3.127v-.994h-3.1v-1.713H-110.6v1.713h-3.138v.994h3.138v.243a4.55,4.55,0,0,1-3.525,4.1l.608.961A5.6,5.6,0,0,0-109.972-7.812Zm6.713-1.282v-3.525h-1.227v8.232h1.227V-8.055h2.088V-9.094Zm0,10.177V-3.746h-8.773V1.083Zm-1.215-3.856V.077h-6.354V-2.773Zm14.486-6.74h-3.652a3.194,3.194,0,0,0-2.912-2.033c-2.055.011-3.492,1.89-3.481,4.84-.011,2.961,1.425,4.84,3.481,4.84a3.232,3.232,0,0,0,3-2.232h3.564V1.293h1.215V-12.619h-1.215Zm-6.564,6.552c-1.37,0-2.309-1.481-2.309-3.746s.939-3.735,2.309-3.746c1.359.011,2.309,1.492,2.309,3.746S-95.193-2.961-96.552-2.961Zm3.309-2.155a7.535,7.535,0,0,0,.16-1.591,7.421,7.421,0,0,0-.2-1.779h3.3v3.37ZM-75.7-7.006v-5.613h-1.227V1.271H-75.7V-5.956h2.32v-1.05Zm-6.055-3.16h3.127v-1.028h-7.558v1.028h3.227v1.812a7.273,7.273,0,0,1-3.724,5.978l.74.972a7.99,7.99,0,0,0,3.6-4.624,7.425,7.425,0,0,0,3.5,4.282l.707-.972a6.717,6.717,0,0,1-3.613-5.635Zm19.3-2.453V1.293h1.227V-12.619ZM-68.077-11.6c-2.188,0-3.757,1.326-3.746,3.26-.011,1.934,1.558,3.26,3.746,3.26s3.735-1.326,3.746-3.26C-64.343-10.276-65.89-11.6-68.077-11.6Zm0,1.072a2.292,2.292,0,0,1,2.541,2.188,2.292,2.292,0,0,1-2.541,2.188,2.28,2.28,0,0,1-2.541-2.188A2.28,2.28,0,0,1-68.077-10.53Zm-4.3,8.762a50.355,50.355,0,0,0,9.1-.608l-.1-.906a64.166,64.166,0,0,1-9.171.464Zm27.856,3.039h1.227v-13.89h-1.227ZM-48.066-10.1H-46.5v-1.017h-7.934V-10.1h1.569v6.862c-.68.011-1.331.011-1.934.011l.144,1.05a61.376,61.376,0,0,0,8.95-.53l-.066-.917c-.74.088-1.514.155-2.3.21Zm-1.2,0v6.757c-.807.039-1.613.066-2.4.083V-10.1ZM-38.1-5.945v-4.365h8.243v-1.017h-9.459v6.4h9.591V-5.945ZM-40.939-.63h12.718V-1.657H-40.939Zm24.464-8.365h-1.856v-3.348h-1.149v7.978h1.149V-7.978h1.856v3.7h1.16v-8.331h-1.16Zm-5.735-2.74v2.21H-25.3v-2.21h-1.16V-5.26h5.4v-6.475ZM-25.3-6.276V-8.552h3.094v2.276Zm8.785,3.856V1.271h1.2V-3.436h-9.359V-2.42ZM-6.95-7.547c3.094-.011,4.906-.862,4.906-2.431,0-1.547-1.812-2.4-4.906-2.4s-4.917.851-4.917,2.4C-11.867-8.409-10.044-7.558-6.95-7.547Zm0-3.9c2.309,0,3.657.552,3.657,1.47,0,.961-1.348,1.492-3.657,1.492s-3.646-.53-3.635-1.492C-10.6-10.9-9.249-11.448-6.95-11.448Zm-6.32,5.834H-.608v-.994H-13.271ZM-2.243-1.3v-3.1h-9.492v.939h8.287v1.26H-11.7V1.116h9.878V.144H-10.5V-1.3Zm-137.282,18.32h-2.8v1.028h2.8V21.7h1.227v-8.32h-1.227Zm-6.055.972a5.726,5.726,0,0,0,3.381,3.149l.641-.961a4.769,4.769,0,0,1-3.425-4.232v-.6h3.1V14.343h-7.481v1.006h3.138v.608a5.089,5.089,0,0,1-3.536,4.541l.641.972A5.949,5.949,0,0,0-145.58,17.989Zm6.055,5.459v3.823h1.227V22.442h-9.348v1.006Zm14.238-4.21a20.166,20.166,0,0,0,.359-4.221v-.961h-9.436v1.006h8.221a19.314,19.314,0,0,1-.376,4.177h-9.459v1.017h12.718V19.238Zm-.768,4.077v4h1.227V22.331h-9.8v.983Zm18.785-9.923H-108.5v10.2h1.227V18.63h2.088V17.591h-2.088Zm-5.017.994v2.343h-4.044V14.387h-1.2v6.862h6.464V14.387Zm-4.044,5.867V17.7h4.044v2.552Zm.365,2.343v4.365h9.337V25.945h-8.122V22.6Zm15.492-1.8a3.646,3.646,0,0,0,2.818-1.171h3.646v1.989h1.227V13.381h-1.227v2.011h-3.646a3.646,3.646,0,0,0-2.818-1.171,3.316,3.316,0,0,0-3.6,3.293A3.314,3.314,0,0,0-100.475,20.8Zm-2.431-3.282a2.239,2.239,0,0,1,2.431-2.232,2.238,2.238,0,0,1,2.409,2.232,2.251,2.251,0,0,1-2.409,2.232A2.252,2.252,0,0,1-102.906,17.514Zm8.9,1.094h-3.055a3.34,3.34,0,0,0,.182-1.094,3.331,3.331,0,0,0-.188-1.116h3.061Zm-3.381,3.326c-2.884,0-4.663.972-4.652,2.652-.011,1.68,1.768,2.652,4.652,2.652s4.652-.972,4.652-2.652S-94.519,21.934-97.392,21.934Zm0,4.32c-2.133,0-3.459-.63-3.448-1.669-.011-1.061,1.315-1.691,3.448-1.691s3.459.63,3.459,1.691C-93.934,25.624-95.26,26.254-97.392,26.254Zm11.713-11.16v-1.7H-86.9v1.7h-3.536V16.1h8.276V15.094Zm6.077-1.7h-1.227V23.8H-79.6v-4.8h2.088V17.967H-79.6Zm-3.348,6.066c-.011-1.58-1.359-2.6-3.337-2.6-2.011,0-3.359,1.017-3.348,2.6-.011,1.558,1.337,2.564,3.348,2.564C-84.309,22.022-82.961,21.017-82.95,19.459Zm-5.514,0c-.011-.994.862-1.635,2.177-1.635,1.293,0,2.166.641,2.177,1.635-.011.972-.884,1.6-2.177,1.591C-87.6,21.061-88.475,20.431-88.464,19.459Zm.166,3.5v4h9.337V25.945h-8.122V22.961Zm20.464-8.088V13.315H-69.05v1.558h-3.536v.994h8.276v-.994Zm6.077,2.365V13.381h-1.227v8.674h1.227v-3.79h2.088V17.238ZM-65.1,19.1c-.011-1.525-1.348-2.5-3.337-2.508-2.011.011-3.359.983-3.348,2.508-.011,1.514,1.337,2.5,3.348,2.5C-66.453,21.6-65.116,20.619-65.1,19.1Zm-5.514,0c-.011-.939.862-1.547,2.177-1.558,1.293.011,2.166.619,2.177,1.558-.011.928-.884,1.525-2.177,1.525C-69.757,20.63-70.63,20.033-70.619,19.1Zm7.635,4.729v3.436h1.227V22.829h-9.094v1.006Zm10.536-8.072c.878,1.547,2.994,2.646,5.144,2.967l.453-.972c-2.442-.32-4.972-1.856-4.972-3.569v-.652h-1.26v.652c0,1.768-2.508,3.227-4.983,3.569l.464.972C-55.459,18.409-53.331,17.326-52.448,15.762Zm-6.337,4.978h12.663V19.713H-58.785Zm2.829,2.6V21.713h-1.215v5.37h9.392v-5.37h-1.238v1.624Zm0,2.751V24.309h6.939v1.779Zm25.713,1.182h1.171V13.381h-1.171Zm-4.983-8.409V19.9h2.188v6.641h1.16V13.713h-1.16v5.149Zm-1.646-1.89h2.608V15.956h-2.6V13.89h-1.171v2.066h-2.641v1.017h2.641v.685a6.9,6.9,0,0,1-3.017,5.834l.74.928a7.018,7.018,0,0,0,2.873-4.182,6.419,6.419,0,0,0,2.884,3.873l.707-.917a6.34,6.34,0,0,1-3.028-5.536Zm20.486,10.3h1.171V13.381h-1.171Zm-4.928-10.022a11.5,11.5,0,0,0,.188-2.1H-26.5v1.028h4.155a9.03,9.03,0,0,1-4.773,7.2l.74.884a10.186,10.186,0,0,0,4.823-6H-19.2v2.464h-2.575v1.017H-19.2v4.818h1.182V13.757H-19.2v3.492Zm18.773,1.867V13.381H-3.757v13.89h1.215v-7.1H-.276v-1.05Zm-5.923,1.641a3.255,3.255,0,0,0,3.083-3.21c-.011-1.934-1.569-3.249-3.7-3.26-2.177.011-3.713,1.326-3.7,3.26a3.218,3.218,0,0,0,3.094,3.215v2.4c-1.343.039-2.635.044-3.757.05l.21,1.028a51.475,51.475,0,0,0,8.674-.508l-.088-.928c-1.21.16-2.514.254-3.812.315Zm-3.127-3.21a2.279,2.279,0,0,1,2.508-2.21,2.293,2.293,0,0,1,2.5,2.21,2.272,2.272,0,0,1-2.5,2.2A2.258,2.258,0,0,1-11.591,17.547ZM-125.878,53.293h1.227V39.381h-1.227Zm-5.282-12.707h-1.227v2.53a7.231,7.231,0,0,1-3.79,6.232l.773,1.028a7.755,7.755,0,0,0,3.641-4.674,7.584,7.584,0,0,0,3.608,4.4l.751-.972a6.943,6.943,0,0,1-3.757-6.011Zm15.188,2.8a7.7,7.7,0,0,0,5.2,4.017l.575-1.028c-2.42-.453-5.138-2.575-5.138-4.95V40.354h-1.282v1.072c-.011,2.387-2.707,4.486-5.116,4.95l.564,1.028A7.734,7.734,0,0,0-115.972,43.387Zm-6.293,7.994h12.718V50.354h-12.718ZM-97.8,47.746h1.16V39.381H-97.8Zm-1.536-.122v-8h-1.182v3.249H-102.4V43.89h1.878v3.735Zm-2.519-2.1a23.777,23.777,0,0,1-4.74.365V44h3.547v-.972H-106.6V41.315h4.11V40.287h-5.293v6.6h.873a25.222,25.222,0,0,0,5.182-.376Zm5.215,7.558V48.4h-9.171v4.685Zm-1.193-3.691v2.685H-104.6V49.392ZM-80.3,45.9v3.757h1.227V39.392H-80.3v2.177h-3.613a3.625,3.625,0,0,0-2.851-1.3,3.423,3.423,0,0,0-3.6,3.481,3.408,3.408,0,0,0,3.6,3.47A3.593,3.593,0,0,0-83.9,45.9Zm-8.9-2.155a2.334,2.334,0,0,1,2.431-2.387,2.341,2.341,0,0,1,2.409,2.387,2.328,2.328,0,0,1-2.409,2.387A2.322,2.322,0,0,1-89.193,43.746Zm8.9,1.138h-3.055a3.639,3.639,0,0,0,.182-1.138,3.6,3.6,0,0,0-.188-1.16H-80.3Zm-6.464,3.7h-1.227v4.376h9.3V51.945h-8.077Zm20.6-2.331a22.12,22.12,0,0,0,.4-4.751V40.287H-75.16V41.3h8.177v.2a20.533,20.533,0,0,1-.431,4.751h-9.337v1.017h5.691v6.022h1.227V47.271h5.746V46.254Zm4.022,4.685-.862,4.254h1.16l1.2-4.254Zm17.657-8.232H-47.4a3.336,3.336,0,0,0-3.547-2.674c-2.11-.011-3.613,1.315-3.6,3.2-.011,1.9,1.492,3.215,3.6,3.215A3.338,3.338,0,0,0-47.4,43.724h2.912v3.1h1.227V39.381h-1.227Zm-6.464,2.707a2.23,2.23,0,0,1-2.431-2.177,2.2,2.2,0,0,1,2.431-2.166,2.2,2.2,0,0,1,2.409,2.166A2.222,2.222,0,0,1-50.95,45.414Zm-.033,3.878V47.536H-52.21v5.547h8.95V47.536h-1.227v1.757Zm0,2.785v-1.8h6.5v1.8Zm20.74,1.193h1.193V39.381h-1.193ZM-36.1,44.685v1.028h3.039v6.829h1.171V39.713h-1.171v4.972Zm-3.1-2.575h4.044V41.094H-40.4v8.829h.884a24.409,24.409,0,0,0,5.193-.409l-.122-1.039a20.916,20.916,0,0,1-4.762.409Zm22.32-2.729V53.293h1.227V39.381Zm-6.155,1.072c-2.077.011-3.547,1.89-3.547,4.84s1.47,4.84,3.547,4.84c2.055,0,3.547-1.878,3.547-4.84S-20.983,40.464-23.039,40.453Zm0,1.094c1.392.011,2.354,1.492,2.354,3.746s-.961,3.746-2.354,3.746S-25.4,47.558-25.4,45.293-24.431,41.558-23.039,41.547Zm12.652,5.337V44.663h7.912v-.994h-7.912V41.6h8.21V40.586h-9.448v7.3h9.6V46.884Zm-2.884,4.575H-.552V50.431H-13.271Z" transform="translate(494 2890)" fill="#6b6b6b"/><path d="M10.785,1.271h1.227v-13.89H10.785ZM5.536-10.166h3.3v-1.028H1.017v1.028H4.3v1.812A7.231,7.231,0,0,1,.564-2.376l.729.972A7.9,7.9,0,0,0,4.934-6,7.272,7.272,0,0,0,8.608-1.746l.685-.972A6.548,6.548,0,0,1,5.536-8.354Zm15.188.055c.873,1.6,2.961,2.713,5.066,3.072l.5-.983c-2.453-.331-4.95-1.878-4.95-3.735v-.652H20.1v.652c0,1.856-2.486,3.4-4.939,3.735l.464.983C17.757-7.4,19.851-8.5,20.724-10.11Zm.6,2.331h-1.2v2.144H14.4v1.017h12.7V-5.635H21.326Zm2.928,5.5V1.271h1.238V-3.26H15.8v.983ZM38.519-8.983h-2.8v1.028h2.8V-4.3h1.227v-8.32H38.519Zm-6.055.972a5.726,5.726,0,0,0,3.381,3.149l.641-.961a4.769,4.769,0,0,1-3.425-4.232v-.6h3.1v-1.006H28.685v1.006h3.138v.608A5.089,5.089,0,0,1,28.287-5.5l.641.972A5.949,5.949,0,0,0,32.464-8.011Zm6.055,5.459V1.271h1.227V-3.558H30.4v1.006Zm13.79-10.055V-2.453h1.227V-12.608Zm-6.276,7.79a3.4,3.4,0,0,0,3.635-3.414,3.409,3.409,0,0,0-3.635-3.4,3.419,3.419,0,0,0-3.646,3.4A3.408,3.408,0,0,0,46.033-4.818ZM43.591-8.232a2.306,2.306,0,0,1,2.442-2.331,2.325,2.325,0,0,1,2.442,2.331A2.321,2.321,0,0,1,46.033-5.89,2.3,2.3,0,0,1,43.591-8.232Zm2.2,4.74H44.564V.961h9.4V-.055H45.79ZM70.077,1.293H71.3V-12.619H70.077ZM61.006-4.84a5.463,5.463,0,0,0,3.569-3.11,5.589,5.589,0,0,0,3.6,2.978l.575-.972c-2.05-.58-3.53-2.039-3.569-3.834h3.26V-10.8h-3.26v-1.724H63.967V-10.8H60.751v1.017h3.193c-.033,1.873-1.481,3.387-3.536,4ZM65.182-5.3H63.967v2.613c-1.442.05-2.818.055-3.978.061L60.155-1.6a52.355,52.355,0,0,0,9.1-.6l-.1-.917c-1.276.193-2.641.309-3.978.376Zm18.807-7.3V-2.42h1.227V-12.608ZM78.05-8.16a6.034,6.034,0,0,0,3.475,3.475l.641-.983a5.167,5.167,0,0,1-3.5-4.773v-1.392H77.414v1.392a5.5,5.5,0,0,1-3.525,5.05l.674.961A6.21,6.21,0,0,0,78.05-8.16Zm-.58,4.8H76.243V.961h9.4V-.055H77.47Zm24.343,4.652h1.227V-12.619h-1.227ZM96.53-11.414H95.3v2.53a7.231,7.231,0,0,1-3.79,6.232l.773,1.028A7.755,7.755,0,0,0,95.928-6.3a7.584,7.584,0,0,0,3.608,4.4l.751-.972A6.943,6.943,0,0,1,96.53-8.884Zm15.188,2.8a7.7,7.7,0,0,0,5.2,4.017l.575-1.028c-2.42-.453-5.138-2.575-5.138-4.95v-1.072h-1.282v1.072c-.011,2.387-2.707,4.486-5.116,4.95l.564,1.028A7.734,7.734,0,0,0,111.718-8.613ZM105.425-.619h12.718V-1.646H105.425Zm24.464-3.635h1.16v-8.365h-1.16Zm-1.536-.122v-8h-1.182v3.249h-1.878V-8.11h1.878v3.735Zm-2.519-2.1a23.778,23.778,0,0,1-4.74.365V-8h3.547v-.972h-3.547v-1.713h4.11v-1.028h-5.293v6.6h.873a25.222,25.222,0,0,0,5.182-.376Zm5.215,7.558V-3.6h-9.171V1.083Zm-1.193-3.691V.077h-6.762V-2.608Zm13.4-10.011V1.293h1.227V-12.619ZM137.635-11.6c-2.188,0-3.757,1.326-3.746,3.26-.011,1.934,1.558,3.26,3.746,3.26s3.735-1.326,3.746-3.26C141.37-10.276,139.823-11.6,137.635-11.6Zm0,1.072a2.292,2.292,0,0,1,2.541,2.188,2.292,2.292,0,0,1-2.541,2.188,2.28,2.28,0,0,1-2.541-2.188A2.28,2.28,0,0,1,137.635-10.53Zm-4.3,8.762a50.355,50.355,0,0,0,9.1-.608l-.1-.906a64.166,64.166,0,0,1-9.171.464Zm24.53-3.348h4.287V-6.11H153.79v-4.376h8.232v-1.006h-9.459v6.376h4.088v3.6h-5.713V-.486h12.718V-1.514h-5.79Zm17.149-7.5v7.448h1.227v-7.448Zm-6.276.674c-2.11-.011-3.646,1.293-3.646,3.193s1.536,3.193,3.646,3.182c2.111.011,3.635-1.293,3.635-3.182S170.851-11.956,168.74-11.945Zm0,1.039a2.216,2.216,0,0,1,2.442,2.155,2.231,2.231,0,0,1-2.442,2.166A2.219,2.219,0,0,1,166.3-8.751,2.2,2.2,0,0,1,168.74-10.906Zm-1.492,6.442V1.083h8.994V-4.464h-1.215v1.691h-6.575V-4.464Zm1.2,2.674h6.575V.077h-6.575Zm16.475-9.934c-2.9.011-5.072,1.525-5.072,3.823s2.177,3.823,5.072,3.812c2.906.011,5.083-1.5,5.083-3.812S187.834-11.713,184.928-11.724Zm0,1.006c2.232-.011,3.9,1.149,3.9,2.818s-1.669,2.807-3.9,2.807-3.912-1.127-3.9-2.807C181.017-9.569,182.7-10.729,184.928-10.718Zm-6.32,9.1V-.586h12.718V-1.613Zm20.762-2.5h4.508V-5.127h-8.63V-7.392h8.309v-4.2H194v1.017h8.343V-8.4h-8.309V-4.11h4.122v2.619h-5.713V-.453H205.16V-1.492h-5.79ZM10.851,16.707H7.934a3.336,3.336,0,0,0-3.547-2.674c-2.11-.011-3.613,1.315-3.6,3.2-.011,1.9,1.492,3.215,3.6,3.215a3.338,3.338,0,0,0,3.552-2.729h2.912v3.1h1.227V13.381H10.851ZM4.387,19.414a2.23,2.23,0,0,1-2.431-2.177,2.2,2.2,0,0,1,2.431-2.166A2.2,2.2,0,0,1,6.8,17.238,2.222,2.222,0,0,1,4.387,19.414Zm-.033,3.878V21.536H3.127v5.547h8.95V21.536H10.851v1.757Zm0,2.785v-1.8h6.5v1.8Zm20.74,1.193h1.193V13.381H25.094Zm-5.856-8.586v1.028h3.039v6.829h1.171V13.713H22.276v4.972Zm-3.1-2.575h4.044V15.094H14.939v8.829h.884a24.408,24.408,0,0,0,5.193-.409L20.9,22.475a20.916,20.916,0,0,1-4.762.409Zm22.32-2.729V27.293H39.68V13.381ZM32.3,14.453c-2.077.011-3.547,1.89-3.547,4.84s1.47,4.84,3.547,4.84c2.055,0,3.547-1.878,3.547-4.84S34.354,14.464,32.3,14.453Zm0,1.094c1.392.011,2.354,1.492,2.354,3.746s-.961,3.746-2.354,3.746-2.365-1.481-2.365-3.746S30.906,15.558,32.3,15.547ZM44.95,20.884V18.663h7.912v-.994H44.95V15.6h8.21V14.586H43.713v7.3h9.6V20.884Zm-2.884,4.575H54.785V24.431H42.066Zm28.011,1.834H71.3V13.381H70.077Zm-4.928-6.9h3.039V19.381H62.254V15.7h5.878v-.994H61.05V20.4h2.873v2.768c-1.381.039-2.724.05-3.934.05l.166,1.039a64.62,64.62,0,0,0,9.1-.508l-.1-.917c-1.287.149-2.652.238-4.011.3Zm11.536-2.807v-3.7H75.47v4.7h9.5v-.994ZM73.724,21.47H86.442v-.994H73.724Zm1.657,1.414v4.044h9.68V25.912H76.6V22.884Zm27.072-9.5h-1.227v7.934h1.227V17.757h2.088V16.718h-2.088Zm-10.265.95v5.934h6.42V14.331Zm1.193,4.939V15.326h4.033v3.945Zm9.315,3.856v-.994h-9.16v.994H97.47c-.149,1.519-2.182,2.773-4.475,3.138l.464.939a6.526,6.526,0,0,0,4.652-2.724,6.655,6.655,0,0,0,4.663,2.746l.464-.961c-2.271-.365-4.343-1.652-4.481-3.138Zm3.845-3.7c2.3-.238,4.365-1.044,5.21-2.425.84,1.381,2.906,2.188,5.221,2.425l.365-.928c-2.613-.238-4.823-1.276-4.912-2.829h4.37v-.983h-4.442V13.3h-1.2v1.381h-4.42v.983h4.348c-.1,1.552-2.3,2.591-4.912,2.829Zm11.547.829H105.425v.994h5.724v1.525h-4.177v4.309h9.558V22.773h-4.177V21.249h5.735Zm-9.9,5.823V23.768h7.149v2.309Zm15.68-11.138V13.26h-1.215v1.68h-3.381v.994h7.867v-.994Zm3.26,2.8h2.42v1.691h-2.431v1.017h2.431v1.923h1.227V13.381h-1.227v3.337h-2.42Zm-.707,1.492c-.011-1.558-1.315-2.575-3.171-2.575-1.878,0-3.16,1.017-3.149,2.575-.011,1.547,1.271,2.564,3.149,2.564C125.1,21.79,126.409,20.773,126.42,19.227Zm-5.171,0c-.011-.983.785-1.635,2-1.646,1.193.011,2.011.663,2.022,1.646-.011.972-.829,1.624-2.022,1.624C122.033,20.851,121.238,20.2,121.249,19.227ZM126.2,22.5c-2.917,0-4.674.862-4.674,2.376,0,1.492,1.757,2.365,4.674,2.365,2.9,0,4.652-.873,4.652-2.365C130.851,23.359,129.094,22.5,126.2,22.5Zm0,3.779c-2.11.011-3.4-.519-3.4-1.4,0-.906,1.293-1.414,3.4-1.414,2.077,0,3.359.508,3.359,1.414C129.558,25.757,128.276,26.287,126.2,26.276Zm20.851-9.945a28.242,28.242,0,0,1-.486,6.011l1.2.144a30.854,30.854,0,0,0,.5-6.155V14.785h-9.834V15.8h8.619Zm-2.133,3.37h-1.2v4.575H141.47V19.7h-1.227v4.575H137.1V25.3h12.663V24.276h-4.851Zm12.343-.685c3.017.011,4.906-.983,4.906-2.652s-1.889-2.663-4.906-2.652c-3.017-.011-4.917.983-4.917,2.652S154.243,19.028,157.26,19.017Zm0-4.32c2.232-.011,3.657.63,3.657,1.669s-1.425,1.691-3.657,1.691-3.657-.641-3.646-1.691C153.6,15.326,155.017,14.685,157.26,14.7Zm6.343,5.381H150.939v1.006H154.3v1.768h-1.956v.983H160.8v3.436h1.238v-4.42h-1.812V21.083H163.6Zm-8.077,2.773V21.083h3.492v1.768Zm23.547-3.89H175.8v1.028h3.271v7.282h1.215V13.381h-1.215Zm-3.227-4.133h-6.3v1.017h5.088a10.243,10.243,0,0,1-.459,2.459l-5.337.348.232,1.072,4.724-.448a10.183,10.183,0,0,1-4.989,4.757l.7.939C174.409,22.508,175.834,18.84,175.845,14.829Zm17.028,12.464h1.215V13.381h-1.215Zm-8.188-7.68h5.182V14.674H183.4v1.017h5.227v2.917h-5.2v5.315h1.16a42.169,42.169,0,0,0,7.061-.508l-.122-1.028a40.971,40.971,0,0,1-6.84.508Zm24.42-.7h-1.934a17.832,17.832,0,0,0,.331-3.89v-1.05h-9.436v.994h8.221v.055c0,.4,0,.818-.017,1.271l-8.536.254.155,1.006,8.32-.376a14.945,14.945,0,0,1-.271,1.735h-9.475v1.006h3.392v1.492h-1.912v.961h8.442v1.337h-8.409v3.37H208.1V26.1h-8.9V24.641h8.4V21.414h-1.9V19.923h3.4Zm-8.022,2.5V19.923h3.4v1.492Zm19.492-4.906h-2.652v1.017h2.652v4.022H221.8V13.392h-1.227ZM218.2,19.547a35.207,35.207,0,0,1-6.1.409V17.934h4.939V14.088h-6.188V15.1h4.994v1.878h-4.961v3.989h1.05a37.016,37.016,0,0,0,6.365-.4Zm3.6,7.536V22.32h-9.138v4.762Zm-1.215-3.8v2.8h-6.707v-2.8Zm9.856-9.006c-2.9.011-5.072,1.525-5.072,3.823s2.177,3.823,5.072,3.812c2.906.011,5.083-1.5,5.083-3.812S233.348,14.287,230.442,14.276Zm0,1.006c2.232-.011,3.9,1.149,3.9,2.818s-1.669,2.807-3.9,2.807-3.912-1.127-3.9-2.807C226.53,16.431,228.21,15.271,230.442,15.282Zm-6.32,9.1v1.028H236.84V24.387Zm20.762-2.5h4.508V20.873h-8.63V18.608h8.309v-4.2h-9.558v1.017h8.343V17.6h-8.309V21.89h4.122v2.619h-5.713v1.039h12.718V24.508h-5.79ZM10.807,39.381v7.2h1.2v-7.2ZM4.873,42.95A5.828,5.828,0,0,0,8.42,46.177l.619-.961a4.815,4.815,0,0,1-3.558-4.365V39.779H4.232v1.072A5.092,5.092,0,0,1,.663,45.47l.641.972A6.006,6.006,0,0,0,4.873,42.95Zm-.641,7.657h7.8V47.282H2.994v.983h7.823v1.392H3.039v3.459H12.53V52.11h-8.3Zm19.68-6.326a2.264,2.264,0,0,0,1.713-2.061c0-1.635-1.878-2.575-4.906-2.575s-4.917.939-4.917,2.575a2.279,2.279,0,0,0,1.735,2.072v1.961H14.4V47.26H27.061V46.254H23.912Zm-6.84-2.061c-.011-1.006,1.381-1.613,3.646-1.613s3.657.608,3.657,1.613-1.4,1.6-3.657,1.6S17.061,43.238,17.072,42.221Zm1.691,2.4a11.1,11.1,0,0,0,1.956.155,11.286,11.286,0,0,0,1.978-.16v1.641H18.762Zm1.956,3.713c-3.006-.011-4.8.862-4.8,2.442s1.79,2.464,4.8,2.464c2.983,0,4.773-.873,4.785-2.464C25.492,49.193,23.7,48.32,20.718,48.331Zm0,3.945c-2.221.011-3.558-.552-3.547-1.5-.011-.939,1.326-1.492,3.547-1.5,2.21.011,3.547.564,3.558,1.5C24.265,51.724,22.928,52.287,20.718,52.276Zm17.8-9.26h-2.8v1.028h2.8V47.7h1.227v-8.32H38.519Zm-6.055.972a5.726,5.726,0,0,0,3.381,3.149l.641-.961a4.769,4.769,0,0,1-3.425-4.232v-.6h3.1V40.343H28.685v1.006h3.138v.608A5.089,5.089,0,0,1,28.287,46.5l.641.972A5.949,5.949,0,0,0,32.464,43.989Zm6.055,5.459v3.823h1.227V48.442H30.4v1.006Zm13.79-10.055V49.547h1.227V39.392Zm-6.276,7.79a3.416,3.416,0,1,0,0-6.818,3.417,3.417,0,1,0,0,6.818Zm-2.442-3.414a2.444,2.444,0,1,1,2.442,2.343A2.306,2.306,0,0,1,43.591,43.768Zm2.2,4.74H44.564v4.453h9.4V51.945H45.79Zm24.066-6.177a28.242,28.242,0,0,1-.486,6.011l1.2.144a30.854,30.854,0,0,0,.5-6.155V40.785H61.238V41.8h8.619ZM67.724,45.7h-1.2v4.575H64.276V45.7H63.05v4.575H59.912V51.3H72.575V50.276H67.724Zm12.343-.685c3.017.011,4.906-.983,4.906-2.652s-1.89-2.663-4.906-2.652c-3.017-.011-4.917.983-4.917,2.652S77.05,45.028,80.066,45.017Zm0-4.32c2.232-.011,3.657.63,3.657,1.669s-1.425,1.691-3.657,1.691-3.657-.641-3.646-1.691C76.409,41.326,77.823,40.685,80.066,40.7Zm6.343,5.381H73.746v1.006H77.1v1.768H75.149v.983H83.6v3.436H84.84v-4.42H83.028V47.083h3.381Zm-8.077,2.773V47.083h3.492v1.768Zm23.978-3.657V39.381h-1.227v13.89h1.227V46.254h2.254V45.193Zm-3.425,1.956a35.294,35.294,0,0,0,.409-5.5v-.729H92.232v1.006h5.834a30.788,30.788,0,0,1-.409,5.127Zm-3.227-2.265H94.442v4.26c-1.066.028-2.083.033-2.994.039L91.6,50.21a57.438,57.438,0,0,0,8.674-.508l-.066-.928c-1.442.177-3.017.276-4.552.337Zm17.249-.862h2.807v3.635h1.227V39.381h-1.227v3.624h-2.807Zm-3.243-.044a5.765,5.765,0,0,0,3.376,3.16l.641-.983a4.746,4.746,0,0,1-3.425-4.232v-.508h3.1V40.4h-7.481v1.017h3.138v.519a5.157,5.157,0,0,1-3.536,4.619l.641.972A6.02,6.02,0,0,0,109.663,43.978Zm2.669,4.11c-2.9,0-4.663.95-4.652,2.586-.011,1.635,1.757,2.575,4.652,2.586,2.884-.011,4.652-.95,4.652-2.586S115.215,48.088,112.331,48.088Zm0,4.188c-2.133.011-3.448-.6-3.436-1.6-.011-1.017,1.3-1.624,3.436-1.624s3.436.608,3.436,1.624S114.453,52.287,112.331,52.276Zm21.635.994h1.171V39.381h-1.171Zm-5.138-8.884v1.006h2.343v7.149h1.16V39.713h-1.16v4.674Zm-1.481-2.354h2.541V41.017h-6.409v1.017h2.685v1.3a7.3,7.3,0,0,1-3.061,6.232l.773.917a7.276,7.276,0,0,0,2.9-4.414,6.758,6.758,0,0,0,2.829,4.083l.74-.906a6.8,6.8,0,0,1-2.994-5.912Zm19.58-.762a12.586,12.586,0,0,1-.376,3.547l1.2.133a12.993,12.993,0,0,0,.387-3.68V40.088h-9.525v1.006h8.309Zm-3.37,1.9h-1.2v2.685h-5.238v1.006h12.641V45.856h-6.2Zm-.177,4.983c-2.972,0-4.862.939-4.862,2.552,0,1.591,1.889,2.53,4.862,2.53s4.873-.939,4.884-2.53C148.254,49.094,146.365,48.155,143.381,48.155Zm0,4.11c-2.21,0-3.646-.6-3.635-1.558-.011-.994,1.425-1.6,3.635-1.613,2.221.011,3.646.619,3.657,1.613C147.028,51.669,145.6,52.265,143.381,52.265Z" transform="translate(1429 2890)" fill="#6b6b6b"/><path d="M-94.055-12.608V-2.42h1.227V-12.608ZM-99.89-7.6a5.8,5.8,0,0,0,3.525,3.155l.63-.972a4.73,4.73,0,0,1-3.558-4.232v-.807H-96.1v-1.006h-7.68v1.006h3.249v.807A5.029,5.029,0,0,1-104.1-5.138l.641.983A6,6,0,0,0-99.89-7.6Zm-.685,4.2H-101.8V.961h9.4V-.055h-8.177Zm20.74-4.42v3.989h1.16v-8.8h-1.16v3.79H-81.7v-3.514h-1.149V-4.32H-81.7V-7.812Zm-6.519-3.138v-1.569h-1.215v1.569h-2.972v.983h7.127v-.983Zm2.376,4.1C-83.989-8.3-85.2-9.227-86.972-9.227c-1.746,0-2.972.928-2.961,2.376-.011,1.436,1.215,2.365,2.961,2.365C-85.2-4.486-83.989-5.414-83.978-6.851Zm-4.862,0c0-.873.762-1.459,1.867-1.459s1.878.586,1.878,1.459S-85.856-5.4-86.972-5.4-88.84-5.989-88.84-6.851Zm5.58,3.26c-2.928,0-4.674.873-4.663,2.431-.011,1.525,1.735,2.4,4.663,2.4S-78.6.365-78.6-1.16C-78.6-2.718-80.343-3.591-83.26-3.591Zm0,3.867c-2.166.011-3.459-.53-3.448-1.436-.011-.95,1.282-1.481,3.448-1.47,2.155-.011,3.436.519,3.448,1.47C-79.823-.254-81.1.287-83.26.276Zm21.5-12.9h-1.227v8.331h1.227v-3.7h2.088V-9.006h-2.088Zm-3.79,1.028h-6.442v1.017h5.122C-67.116-8.16-69.249-6.238-72.6-5.26l.508.994C-68.044-5.459-65.547-8.055-65.547-11.591Zm-.6,7.459c-2.773,0-4.564,1.017-4.552,2.685-.011,1.68,1.779,2.685,4.552,2.685S-61.6.232-61.6-1.448-63.359-4.133-66.144-4.133Zm0,4.387c-2.044,0-3.348-.663-3.337-1.7-.011-1.05,1.293-1.7,3.337-1.691C-64.11-3.149-62.8-2.5-62.8-1.448S-64.11.254-66.144.254Zm18.111-7.238v-5.635H-49.26V1.271h1.227V-5.923h2.32V-6.983Zm-6.088-4.431h-1.215v2.53a7.343,7.343,0,0,1-3.646,6.2l.773.983a7.851,7.851,0,0,0,3.5-4.641,7.552,7.552,0,0,0,3.42,4.376l.762-.983a6.97,6.97,0,0,1-3.591-5.934Zm23.47.84h-3.6a3.605,3.605,0,0,0-2.867-1.249,3.333,3.333,0,0,0-3.6,3.315,3.328,3.328,0,0,0,3.6,3.326,3.625,3.625,0,0,0,2.873-1.249h3.591v1.989h1.227v-8.177h-1.227Zm-6.464,4.354a2.269,2.269,0,0,1-2.431-2.287,2.279,2.279,0,0,1,2.431-2.276,2.285,2.285,0,0,1,2.409,2.276A2.275,2.275,0,0,1-37.116-6.221Zm3.425-1.227a3.469,3.469,0,0,0,.166-1.061,3.424,3.424,0,0,0-.166-1.05h3.039v2.11Zm3.039,4.762V1.271h1.227V-3.669h-9.348v.983Zm16.508-7.757h-2.1v-2.166H-17.47V-4.2h1.227V-6.475h2.1V-7.514h-2.1V-9.4h2.1Zm-4.707,3.934a35.994,35.994,0,0,1-6.42.442V-8h5.05v-3.746h-6.3v1.006h5.094v1.779h-5.061v3.923H-25.4a36.427,36.427,0,0,0,6.674-.453ZM-20.707-3.8c-2.862,0-4.608.939-4.608,2.53s1.746,2.508,4.608,2.508c2.84,0,4.586-.917,4.586-2.508S-17.867-3.8-20.707-3.8Zm0,4.077c-2.122.011-3.414-.575-3.4-1.547-.011-.972,1.282-1.558,3.4-1.558s3.392.586,3.392,1.558S-18.6.287-20.707.276Zm18.155.994H-1.37v-13.89H-2.552ZM-7.133-7.2c-.155-2.619-1.3-4.243-2.989-4.243-1.8,0-2.972,1.867-2.972,4.818s1.171,4.84,2.972,4.829c1.718.011,2.873-1.68,2.994-4.387h1.79V.564h1.182V-12.32H-5.337V-7.2Zm-2.989,4.243c-1.116.011-1.834-1.414-1.823-3.669-.011-2.254.707-3.669,1.823-3.669,1.138,0,1.856,1.414,1.856,3.669S-8.983-2.95-10.122-2.961ZM-76.287,13.381V27.293h1.227V13.381ZM-81.912,14.4c-2.188,0-3.757,1.326-3.746,3.26-.011,1.934,1.558,3.26,3.746,3.26s3.735-1.326,3.746-3.26C-78.177,15.724-79.724,14.4-81.912,14.4Zm0,1.072a2.292,2.292,0,0,1,2.541,2.188,2.292,2.292,0,0,1-2.541,2.188,2.28,2.28,0,0,1-2.541-2.188A2.28,2.28,0,0,1-81.912,15.47Zm-4.3,8.762a50.355,50.355,0,0,0,9.1-.608l-.1-.906a64.166,64.166,0,0,1-9.171.464Zm14.829-4.685c2.249-.343,4.337-1.464,5.094-3.094.751,1.63,2.845,2.751,5.094,3.094l.475-.994c-2.453-.32-4.785-1.724-4.773-3.436v-.033h4.4V14.066H-71.459v1.017h4.376v.033c0,1.713-2.309,3.116-4.762,3.436Zm5.691-.994h-1.2v2.32h-5.724V21.89h12.7V20.873h-5.768Zm-5.293,4.464v3.945h9.613V25.945h-8.376V23.017Zm22.95-3.912V13.381h-1.215v13.89h1.215V20.133h2.32V19.1Zm-7.26-5.558v2.066h-3.569V16.63H-50.6V15.613h-3.47V13.547Zm.63,4.232a3.169,3.169,0,0,0-3.4,3.193,3.161,3.161,0,0,0,3.4,3.182,3.179,3.179,0,0,0,3.4-3.182A3.188,3.188,0,0,0-54.663,17.779Zm0,5.337A2.1,2.1,0,0,1-56.9,20.972a2.119,2.119,0,0,1,2.232-2.166,2.138,2.138,0,0,1,2.232,2.166A2.114,2.114,0,0,1-54.663,23.116Zm19.934,4.155H-33.5V13.381h-1.227Zm-5.249-11.436h3.3V14.807H-44.5v1.028h3.282v1.812a7.231,7.231,0,0,1-3.735,5.978l.729.972A7.9,7.9,0,0,0-40.58,20a7.272,7.272,0,0,0,3.674,4.254l.685-.972a6.548,6.548,0,0,1-3.757-5.635Zm23.735-2.453H-17.47V20.32h1.227V17.536h2.088V16.508h-2.088Zm-3.381,4a3.3,3.3,0,0,0-3.6-3.2c-2.077,0-3.624,1.326-3.613,3.2-.011,1.89,1.536,3.2,3.613,3.215A3.309,3.309,0,0,0-19.624,17.381Zm-6.011,0A2.235,2.235,0,0,1-23.227,15.2a2.241,2.241,0,0,1,2.409,2.177,2.252,2.252,0,0,1-2.409,2.2A2.245,2.245,0,0,1-25.635,17.381Zm6.685,3.282V21.89h-2.928v.961h7.028V21.89h-2.9V20.663Zm-5.481,1.16h-1.193V26.9h.663a11.271,11.271,0,0,0,3.58-.508l-.2-.983a10.513,10.513,0,0,1-2.851.475Zm6.066,1.492c-1.536,0-2.6.762-2.586,1.967-.011,1.2,1.05,1.956,2.586,1.956,1.514,0,2.586-.751,2.6-1.956C-15.779,24.077-16.851,23.315-18.365,23.315Zm0,3.039c-.873,0-1.492-.42-1.492-1.072s.619-1.072,1.492-1.083c.862.011,1.481.442,1.481,1.083S-17.5,26.354-18.365,26.354ZM-3.359,16.166a30.734,30.734,0,0,1-.53,6.265l1.238.144a33.268,33.268,0,0,0,.519-6.409V14.785h-9.79V15.8h8.564Zm-3.735,3.149H-8.309v4.961h-4.961V25.3H-.608V24.276H-7.094ZM-120.453,49.724V39.381h-1.227v2.652h-2.387V43.05h2.387v1.6h-2.387v1.039h2.387v4.033Zm-3.26-3.5c-.6.066-1.232.122-1.878.166V41.514h1.414V40.508h-7.37v1.006h1.4v5.033c-.635.011-1.238.017-1.79.017l.155,1.05a57.669,57.669,0,0,0,8.122-.475Zm-3.061-4.707v4.939c-.729.033-1.464.061-2.177.072V41.514Zm-1.392,7.348H-129.4v4.1h9.326V51.945h-8.088Zm20.276-1.967h1.227V39.381h-1.227Zm-5.851-3.276a5.7,5.7,0,0,0,3.564,3.066l.619-.961c-2.066-.63-3.569-2.243-3.569-4.055v-.354h3.193V40.309h-7.68v1.006h3.249v.354a4.794,4.794,0,0,1-3.591,4.287l.63.972A5.816,5.816,0,0,0-113.74,43.619Zm-.713,5.641V47.58h-1.2v5.5h8.994v-5.5h-1.215v1.68Zm0,2.818V50.243h6.575v1.834Zm20.442-9.061h-2.8v1.028h2.8V47.7h1.227v-8.32h-1.227Zm-6.055.972a5.726,5.726,0,0,0,3.381,3.149l.641-.961a4.769,4.769,0,0,1-3.425-4.232v-.6h3.1V40.343h-7.481v1.006h3.138v.608a5.089,5.089,0,0,1-3.536,4.541l.641.972A5.949,5.949,0,0,0-100.066,43.989Zm6.055,5.459v3.823h1.227V48.442h-9.348v1.006ZM-76.2,53.271h1.227V39.381H-76.2ZM-85.635,40.9v.994h5.3c-.271,3.315-2.188,5.989-5.945,7.768l.663,1.006c4.663-2.243,6.519-5.779,6.53-9.768Zm18.254-.243V39.293h-1.227v1.359h-3.481v.939h8.2v-.939Zm4.983,8.022h1.227v-9.26H-62.4Zm-1.16-1.856c-1.221.166-2.525.265-3.823.331v-.923c1.646-.144,2.718-.89,2.729-2.028-.011-1.282-1.348-2.077-3.326-2.066-2.011-.011-3.326.785-3.315,2.066-.011,1.133,1.033,1.878,2.685,2.028V47.2c-1.409.044-2.773.05-3.956.05l.188.983a57.137,57.137,0,0,0,8.906-.541ZM-70.133,44.2c0-.751.851-1.215,2.155-1.2,1.282-.011,2.144.453,2.144,1.2,0,.718-.862,1.193-2.144,1.182C-69.282,45.392-70.133,44.917-70.133,44.2Zm7.735,6.11v2.961h1.227V49.326h-9.37v.983Zm13.558-7.978a28.242,28.242,0,0,1-.486,6.011l1.2.144a30.854,30.854,0,0,0,.5-6.155V40.785h-9.834V41.8h8.619Zm-2.133,3.37h-1.2v4.575H-54.42V45.7h-1.227v4.575h-3.138V51.3h12.663V50.276h-4.851Zm12.343-.685c3.017.011,4.906-.983,4.906-2.652s-1.89-2.663-4.906-2.652c-3.017-.011-4.917.983-4.917,2.652S-41.646,45.028-38.63,45.017Zm0-4.32c2.232-.011,3.657.63,3.657,1.669s-1.425,1.691-3.657,1.691-3.657-.641-3.646-1.691C-42.287,41.326-40.873,40.685-38.63,40.7Zm6.343,5.381H-44.95v1.006h3.359v1.768h-1.956v.983h8.453v3.436h1.238v-4.42h-1.812V47.083h3.381Zm-8.077,2.773V47.083h3.492v1.768Zm23.481,4.42h1.227V39.381h-1.227Zm-5.249-11.436h3.3V40.807h-7.823v1.028h3.282v1.812A7.231,7.231,0,0,1-27.1,49.624l.729.972A7.9,7.9,0,0,0-22.735,46a7.272,7.272,0,0,0,3.674,4.254l.685-.972a6.548,6.548,0,0,1-3.757-5.635Zm21.779-.354H-2.409v-2.1H-3.635v8.243h1.227V45.47H-.354V44.431H-2.409V42.5H-.354Zm-5.359,2a3.33,3.33,0,0,0-3.646-3.26,3.318,3.318,0,0,0-3.646,3.26c-.011,1.934,1.536,3.26,3.646,3.271A3.351,3.351,0,0,0-5.713,43.481Zm-6.088,0A2.24,2.24,0,0,1-9.359,41.26a2.262,2.262,0,0,1,2.453,2.221,2.277,2.277,0,0,1-2.453,2.232A2.255,2.255,0,0,1-11.8,43.481Zm4.939,4.564c-2.84.011-4.608.961-4.608,2.608,0,1.624,1.768,2.586,4.608,2.586s4.575-.961,4.575-2.586C-2.287,49.006-4.033,48.055-6.862,48.044Zm0,4.2c-2.1,0-3.392-.586-3.381-1.591-.011-1.006,1.282-1.6,3.381-1.6s3.381.6,3.381,1.6S-4.762,52.243-6.862,52.243Z" transform="translate(429 2719)" fill="#6b6b6b"/><path d="M-104.3-10.729a12.586,12.586,0,0,1-.376,3.547l1.2.133a12.993,12.993,0,0,0,.387-3.68v-1.182h-9.525v1.006h8.309Zm-3.37,1.9h-1.2v2.685h-5.238v1.006h12.641V-6.144h-6.2Zm-.177,4.983c-2.972,0-4.862.939-4.862,2.552,0,1.591,1.89,2.53,4.862,2.53s4.873-.939,4.884-2.53C-102.972-2.906-104.862-3.845-107.845-3.845Zm0,4.11c-2.21,0-3.646-.6-3.635-1.558-.011-.994,1.425-1.6,3.635-1.613,2.221.011,3.646.619,3.657,1.613C-104.2-.331-105.624.265-107.845.265Zm14.486-7.646H-89.1v-.994H-97.47v-2.608h8.276v-.983h-9.492v4.586h4.133v1.624h-5.735v.994h12.674v-.994h-5.746Zm-.608,3.635c-2.994,0-4.8.906-4.8,2.5s1.8,2.5,4.8,2.508c2.983-.011,4.773-.906,4.785-2.508C-89.193-2.84-90.983-3.746-93.967-3.746Zm0,4.022c-2.221.011-3.558-.552-3.547-1.525-.011-.961,1.326-1.536,3.547-1.536s3.547.575,3.558,1.536C-90.42-.276-91.757.287-93.967.276Zm17.68-12.9V1.293h1.227V-12.619ZM-81.912-11.6c-2.188,0-3.757,1.326-3.746,3.26-.011,1.934,1.558,3.26,3.746,3.26s3.735-1.326,3.746-3.26C-78.177-10.276-79.724-11.6-81.912-11.6Zm0,1.072A2.292,2.292,0,0,1-79.37-8.343a2.292,2.292,0,0,1-2.541,2.188,2.28,2.28,0,0,1-2.541-2.188A2.28,2.28,0,0,1-81.912-10.53Zm-4.3,8.762a50.355,50.355,0,0,0,9.1-.608l-.1-.906a64.166,64.166,0,0,1-9.171.464Zm27.547-7.9a28.242,28.242,0,0,1-.486,6.011l1.2.144a30.854,30.854,0,0,0,.5-6.155v-1.547h-9.834V-10.2h8.619ZM-60.8-6.3H-62v4.575h-2.243V-6.3H-65.47v4.575h-3.138V-.7h12.663V-1.724H-60.8Zm12.343-.685c3.017.011,4.906-.983,4.906-2.652s-1.89-2.663-4.906-2.652c-3.017-.011-4.917.983-4.917,2.652S-51.47-6.972-48.453-6.983Zm0-4.32c2.232-.011,3.657.63,3.657,1.669s-1.425,1.691-3.657,1.691S-52.11-8.586-52.1-9.635C-52.11-10.674-50.7-11.315-48.453-11.3Zm6.343,5.381H-54.773v1.006h3.359v1.768H-53.37v.983h8.453V1.271h1.238v-4.42h-1.812V-4.917h3.381Zm-8.077,2.773V-4.917H-46.7v1.768ZM-34-7.337h4.1v-4.7h-9.4v4.7h4.088v1.768h-5.724v1.006h12.663V-5.569H-34Zm2.884-3.713v2.718H-38.1V-11.05Zm.033,8.928V1.271h1.238V-3.1h-9.691v.983Zm13.061-2.641h2.387V-5.779h-2.177v-4.53h2.21v-1.017H-25.978v1.017h2.2v4.53h-2.177v1.017h2.4v3.315H-27.1V-.431h12.718V-1.448h-3.635Zm-.994-5.547v4.53h-3.547v-4.53Zm-.232,5.547v3.315h-3.083V-4.762Zm7.613-5.4v2.95h9.669v-.9H-10.42V-9.326h8.21V-12.2h-9.47v.884h8.243v1.149ZM-13.293-5.2H-.575v-.961H-13.293ZM-2.166-1.138v-2.95h-9.591v.917h8.376v1.182h-8.354V1.083H-1.713v-.9h-8.8V-1.138ZM-79.6,13.381h-1.227v7.006H-79.6V17.348h2.088V16.32H-79.6Zm-2.751,4.994a29.174,29.174,0,0,1-6.265.475V15.193h4.961V14.188h-6.166v5.657h1.072a28.937,28.937,0,0,0,6.552-.486ZM-79.6,24.5V21.083h-8.862v.994h7.646v1.459h-7.613v3.547h9.337V26.077h-8.133V24.5Zm14.486-2.884V13.381h-1.227v2.972h-3.094V17.37h3.094v4.243Zm-7.32-3.84a5.727,5.727,0,0,0,3.343,3.166l.685-.961a4.772,4.772,0,0,1-3.448-4.409V14.177h-1.215v1.436a5.111,5.111,0,0,1-3.569,4.751l.663.994A5.924,5.924,0,0,0-72.436,17.773Zm2.713,4.238c-2.9,0-4.663.961-4.652,2.63-.011,1.657,1.757,2.6,4.652,2.6s4.652-.939,4.652-2.6S-66.84,22.011-69.724,22.011Zm0,4.243c-2.133,0-3.448-.608-3.436-1.613-.011-1.039,1.3-1.657,3.436-1.657s3.436.619,3.436,1.657C-66.287,25.646-67.6,26.254-69.724,26.254Zm11.713-11.613v-1.4h-1.215v1.4h-3.536v.983h8.276v-.983Zm6.077-1.315H-53.16v7.691h1.227V17.724h2.1V16.707h-2.1Zm-3.348,5.2c-.011-1.4-1.326-2.276-3.337-2.276-2.033,0-3.359.873-3.348,2.276-.011,1.414,1.315,2.276,3.348,2.276C-56.608,20.807-55.293,19.945-55.282,18.53Zm-5.514,0c-.011-.829.851-1.37,2.177-1.37,1.3,0,2.166.541,2.177,1.37-.011.84-.873,1.359-2.177,1.359C-59.945,19.89-60.807,19.37-60.8,18.53Zm8.862,6.287V21.735H-60.8v.928h7.646v1.249h-7.613v3.2h9.337v-.95h-8.133V24.818Zm13.326-8.409a7.242,7.242,0,0,0,5.193,3.271l.5-1.006c-2.508-.354-5.061-2.044-5.061-4v-.8h-1.271v.8c0,1.989-2.541,3.646-5.05,4l.508,1.006A7.187,7.187,0,0,0-38.608,16.409Zm-6.343,4.8v1.028h5.7v5.039h1.2V22.232h5.757V21.2Zm28.088-7.812v7.934h1.227V13.392Zm-6.276,7.282c2.11,0,3.635-1.315,3.635-3.227,0-1.934-1.525-3.249-3.635-3.249s-3.646,1.315-3.646,3.249C-26.785,19.359-25.249,20.674-23.138,20.674Zm0-5.425a2.236,2.236,0,0,1,2.442,2.2,2.257,2.257,0,0,1-2.442,2.21,2.245,2.245,0,0,1-2.442-2.21A2.224,2.224,0,0,1-23.138,15.249Zm5.945,6.685h-1.2V22.7a4.147,4.147,0,0,1-2.028,3.293A3.833,3.833,0,0,1-22.409,22.7v-.762h-1.182V22.7a4.046,4.046,0,0,1-2.829,3.47l.619.906a4.9,4.9,0,0,0,2.79-2.58,4.412,4.412,0,0,0,2.624,2.7,4.775,4.775,0,0,0,2.564-2.746,4.676,4.676,0,0,0,2.84,2.624l.619-.906a3.82,3.82,0,0,1-2.829-3.47Zm6.862-4.343v-3.7h-1.215v4.7h9.5v-.994Zm-2.961,3.878H-.575v-.994H-13.293Zm1.657,1.414v4.044h9.68V25.912H-10.42V22.884ZM-123.978,46.343c0-3.58-2.11-5.812-5.006-5.812s-5.006,2.232-5.006,5.812,2.1,5.812,5.006,5.812S-123.978,49.923-123.978,46.343Zm-1.37,0c0,2.917-1.591,4.5-3.635,4.5s-3.635-1.58-3.635-4.5,1.591-4.5,3.635-4.5S-125.348,43.425-125.348,46.343Zm4.6.564a2.08,2.08,0,0,1,2.144-2.3,1.852,1.852,0,0,1,1.923,2.1V52h1.348V46.608c0-2.155-1.149-3.2-2.873-3.2a2.5,2.5,0,0,0-2.475,1.448h-.11V43.514h-1.3V52h1.348Zm14.663.74c0-3.149-1.878-4.243-3.669-4.243-2.3,0-3.834,1.812-3.834,4.42s1.514,4.354,3.967,4.354a3.314,3.314,0,0,0,3.4-2.166h-1.436a2.149,2.149,0,0,1-1.967.972,2.544,2.544,0,0,1-2.613-2.773h6.149Zm-6.149-.586a2.508,2.508,0,0,1,2.492-2.464,2.272,2.272,0,0,1,2.287,2.464Zm17.431-3.547-2.32,6.729h-.088l-2.32-6.729h-1.459L-97.867,52h1.381l3.138-8.486Zm6.1,8.663c2.309,0,3.856-1.746,3.856-4.376,0-2.652-1.547-4.4-3.856-4.4s-3.867,1.746-3.867,4.4C-92.575,50.431-91.017,52.177-88.707,52.177Zm0-1.193c-1.724,0-2.519-1.492-2.519-3.182s.8-3.2,2.519-3.2S-86.2,46.11-86.2,47.8-86.994,50.983-88.707,50.983Zm6.287-8.873a.923.923,0,0,0,.939-.9.923.923,0,0,0-.939-.9.925.925,0,0,0-.95.9A.925.925,0,0,0-82.42,42.11Zm.663,9.89V43.514H-83.1V52Zm5.613.177A3.153,3.153,0,0,0-72.8,49.5h-1.337a1.949,1.949,0,0,1-2.011,1.47c-1.536,0-2.519-1.26-2.519-3.215,0-1.912,1.006-3.16,2.519-3.16a1.972,1.972,0,0,1,2.011,1.481H-72.8a3.166,3.166,0,0,0-3.37-2.674c-2.309,0-3.845,1.812-3.845,4.4C-80.011,50.343-78.541,52.177-76.144,52.177Zm12.111-4.53c0-3.149-1.878-4.243-3.669-4.243-2.3,0-3.834,1.812-3.834,4.42s1.514,4.354,3.967,4.354a3.314,3.314,0,0,0,3.4-2.166H-65.6a2.149,2.149,0,0,1-1.967.972,2.544,2.544,0,0,1-2.613-2.773h6.149Zm-6.149-.586A2.508,2.508,0,0,1-67.691,44.6,2.272,2.272,0,0,1-65.4,47.061Zm21.343-4.729a28.242,28.242,0,0,1-.486,6.011l1.2.144a30.854,30.854,0,0,0,.5-6.155V40.785h-9.834V41.8h8.619Zm-2.133,3.37h-1.2v4.575H-54.42V45.7h-1.227v4.575h-3.138V51.3h12.663V50.276h-4.851Zm12.343-.685c3.017.011,4.906-.983,4.906-2.652s-1.89-2.663-4.906-2.652c-3.017-.011-4.917.983-4.917,2.652S-41.646,45.028-38.63,45.017Zm0-4.32c2.232-.011,3.657.63,3.657,1.669s-1.425,1.691-3.657,1.691-3.657-.641-3.646-1.691C-42.287,41.326-40.873,40.685-38.63,40.7Zm6.343,5.381H-44.95v1.006h3.359v1.768h-1.956v.983h8.453v3.436h1.238v-4.42h-1.812V47.083h3.381Zm-8.077,2.773V47.083h3.492v1.768Zm24.773-2.287V39.381h-1.227v2.552h-3.094V42.95h3.094v3.613Zm-7.365-3.354a5.726,5.726,0,0,0,3.376,3.044l.663-.961a4.633,4.633,0,0,1-3.459-4.155V39.823h-1.2v1.315a4.867,4.867,0,0,1-3.536,4.475l.663.983A5.753,5.753,0,0,0-22.956,43.21Zm-.4,7.365h7.768v-3.3H-24.6v.983h7.79v1.381h-7.757v3.448h9.492v-.994h-8.287Zm20.807,2.7h1.171V39.381H-2.552ZM-7.481,43.249a11.5,11.5,0,0,0,.188-2.1h-5.37v1.028h4.155a9.03,9.03,0,0,1-4.773,7.2l.74.884a10.186,10.186,0,0,0,4.823-6H-5.37v2.464H-7.945v1.017H-5.37v4.818h1.182V39.757H-5.37v3.492Z" transform="translate(494 2542)" fill="#6b6b6b"/><path d="M10.508-9.669a28.242,28.242,0,0,1-.486,6.011l1.2.144a30.854,30.854,0,0,0,.5-6.155v-1.547H1.89V-10.2h8.619ZM8.376-6.3h-1.2v4.575H4.928V-6.3H3.7v4.575H.564V-.7H13.227V-1.724H8.376Zm12.343-.685c3.017.011,4.906-.983,4.906-2.652s-1.89-2.663-4.906-2.652C17.7-12.3,15.8-11.3,15.8-9.635S17.7-6.972,20.718-6.983Zm0-4.32c2.232-.011,3.657.63,3.657,1.669S22.95-7.945,20.718-7.945s-3.657-.641-3.646-1.691C17.061-10.674,18.475-11.315,20.718-11.3Zm6.343,5.381H14.4v1.006h3.359v1.768H15.8v.983h8.453V1.271h1.238v-4.42H23.68V-4.917h3.381ZM18.983-3.149V-4.917h3.492v1.768ZM42.961-6.807v-5.812H41.735V1.271h1.227V-5.746h2.254V-6.807ZM39.536-4.851a35.293,35.293,0,0,0,.409-5.5v-.729H32.884v1.006h5.834a30.787,30.787,0,0,1-.409,5.127ZM36.309-7.116H35.094v4.26c-1.066.028-2.083.033-2.994.039l.155,1.028A57.438,57.438,0,0,0,40.928-2.3l-.066-.928c-1.442.177-3.017.276-4.552.337Zm17.249-.862h2.807v3.635h1.227v-8.276H56.365v3.624H53.558Zm-3.243-.044a5.765,5.765,0,0,0,3.376,3.16l.641-.983a4.746,4.746,0,0,1-3.425-4.232v-.508h3.1V-11.6H46.53v1.017h3.138v.519a5.157,5.157,0,0,1-3.536,4.619l.641.972A6.02,6.02,0,0,0,50.315-8.022Zm2.669,4.11c-2.9,0-4.663.95-4.652,2.586C48.32.309,50.088,1.249,52.983,1.26c2.884-.011,4.652-.95,4.652-2.586S55.867-3.912,52.983-3.912Zm0,4.188c-2.133.011-3.448-.6-3.436-1.6-.011-1.017,1.3-1.624,3.436-1.624s3.436.608,3.436,1.624S55.1.287,52.983.276Zm21.8-12.9H73.558v8.453h1.227v-3.8h2.088V-8.994H74.785Zm-6.79,4.365a5.754,5.754,0,0,0,3.354,3.16l.663-.972a4.8,4.8,0,0,1-3.448-4.309V-11.9h-1.2v1.436a5.156,5.156,0,0,1-3.492,4.773l.663.983A5.94,5.94,0,0,0,67.994-8.254Zm2.337,4.442c-2.862,0-4.608.928-4.608,2.519,0,1.613,1.746,2.53,4.608,2.53s4.575-.917,4.575-2.53C74.906-2.884,73.182-3.812,70.331-3.812Zm0,4.077c-2.1-.011-3.392-.575-3.381-1.558-.011-.95,1.282-1.536,3.381-1.536s3.381.586,3.381,1.536C73.713-.309,72.431.254,70.331.265ZM88.619-9.215v-3.4H87.392V-4.74h1.227V-8.188h2.088V-9.215ZM85.867-7.039a29.092,29.092,0,0,1-6.232.464v-4.1h4.928V-11.68H78.42v6.122h1.072a30.375,30.375,0,0,0,6.53-.475Zm2.751,8.11V-4.011H79.845V1.072ZM87.4-3.017V.077H81.05V-3.017Zm14.906,4.287h1.182v-13.89h-1.182ZM97.729-7.2c-.155-2.619-1.3-4.243-2.989-4.243-1.8,0-2.972,1.867-2.972,4.818S92.939-1.79,94.74-1.8c1.718.011,2.873-1.68,2.994-4.387h1.79V.564h1.182V-12.32H99.525V-7.2ZM94.74-2.961c-1.116.011-1.834-1.414-1.823-3.669-.011-2.254.707-3.669,1.823-3.669,1.138,0,1.856,1.414,1.856,3.669S95.878-2.95,94.74-2.961Zm20.983-4.917h-3.293v1.006h3.293V1.293h1.215V-12.619h-1.215Zm-5.414-3.536h-1.238v2.53a7.355,7.355,0,0,1-3.657,6.232l.785.983a7.824,7.824,0,0,0,3.5-4.7,7.517,7.517,0,0,0,3.5,4.448l.74-.994a6.857,6.857,0,0,1-3.635-5.967Zm-99.492,38.7h1.2V13.392h-1.2ZM1.724,20.2A5.1,5.1,0,0,0,5.21,17.646a5.169,5.169,0,0,0,3.442,2.365l.508-.972C7.182,18.6,5.8,17.4,5.8,16v-.055H8.9v-.972H5.8V13.414H4.575v1.558H1.481v.972H4.575V16c0,1.481-1.381,2.773-3.381,3.227Zm8.066.564a75.574,75.574,0,0,1-9.26.42L.7,22.221c1.171,0,2.508-.011,3.912-.066v4.707H5.834V22.094a39.676,39.676,0,0,0,4.044-.436Zm14.9-4.055H21.768a3.336,3.336,0,0,0-3.547-2.674c-2.11-.011-3.613,1.315-3.6,3.2-.011,1.9,1.492,3.215,3.6,3.215a3.338,3.338,0,0,0,3.552-2.729h2.912v3.1h1.227V13.381H24.685Zm-6.464,2.707a2.23,2.23,0,0,1-2.431-2.177,2.2,2.2,0,0,1,2.431-2.166,2.2,2.2,0,0,1,2.409,2.166A2.222,2.222,0,0,1,18.221,19.414Zm-.033,3.878V21.536H16.961v5.547h8.95V21.536H24.685v1.757Zm0,2.785v-1.8h6.5v1.8ZM43.1,13.381H41.878v8.453H43.1v-3.8h2.088V17.006H43.1Zm-6.79,4.365a5.754,5.754,0,0,0,3.354,3.16l.663-.972a4.8,4.8,0,0,1-3.448-4.309V14.1h-1.2v1.436a5.156,5.156,0,0,1-3.492,4.773l.663.983A5.94,5.94,0,0,0,36.315,17.746Zm2.337,4.442c-2.862,0-4.608.928-4.608,2.519,0,1.613,1.746,2.53,4.608,2.53s4.575-.917,4.575-2.53C43.227,23.116,41.5,22.188,38.652,22.188Zm0,4.077c-2.1-.011-3.392-.575-3.381-1.558-.011-.95,1.282-1.536,3.381-1.536s3.381.586,3.381,1.536C42.033,25.691,40.751,26.254,38.652,26.265Zm18.287-9.481v-3.4H55.713V21.26h1.227V17.812h2.088V16.785Zm-2.751,2.177a29.092,29.092,0,0,1-6.232.464v-4.1h4.928V14.32H46.74v6.122h1.072a30.375,30.375,0,0,0,6.53-.475Zm2.751,8.11V21.989H48.166v5.083Zm-1.215-4.088v3.094H49.37V22.983Zm15.182-3.867V13.381H69.68v13.89h1.227V20.144h2.11V19.116ZM64.122,14.9H60.3v1.028h2.657a11.117,11.117,0,0,1-3.1,7.5l.994.7A12.869,12.869,0,0,0,64.122,14.9Zm.442,0v1.028H66.79a13.138,13.138,0,0,1-2.945,8.442l1.006.685c2.6-3.028,3.083-6.862,3.094-10.155Zm19.4,12.376h1.227V13.381H83.967ZM78.718,15.834h3.3V14.807H74.2v1.028h3.282v1.812a7.231,7.231,0,0,1-3.735,5.978l.729.972A7.9,7.9,0,0,0,78.116,20a7.272,7.272,0,0,0,3.674,4.254l.685-.972a6.548,6.548,0,0,1-3.757-5.635Zm9.58-1.149.11,8.122h1.315l.11-8.122Zm.773,11.4a1.006,1.006,0,1,0-1.006-1.006A1.009,1.009,0,0,0,89.072,26.088ZM5.348,40.862V39.271H4.133v1.591H.6v1.006H8.873V40.862Zm6.077,2.21V39.381H10.2v8.365h1.227V44.133h2.088V43.072ZM8.077,45.039c-.011-1.492-1.348-2.475-3.337-2.475-2.022,0-3.359.983-3.348,2.475-.011,1.5,1.326,2.475,3.348,2.475C6.729,47.514,8.066,46.541,8.077,45.039Zm-5.514,0c-.011-.917.862-1.525,2.177-1.525,1.293,0,2.166.608,2.177,1.525-.011.939-.884,1.525-2.177,1.536C3.425,46.564,2.552,45.978,2.564,45.039Zm8.862,8.044V48.541H2.652v4.541ZM10.21,49.525v2.552H3.856V49.525Zm14.95,3.746h1.182V39.381H25.16ZM20.724,44.84a31,31,0,0,0,.2-3.779H18.287v1.017h1.569c-.055,2.6-.392,5.768-2.309,8.221l.961.575a11.94,11.94,0,0,0,2.055-5.017h2.011v6.707h1.171V39.757H22.575V44.84Zm-2.878-3.779H14.707v1.017h2.072a12.056,12.056,0,0,1-2.348,7.315l.972.564C17.425,47.26,17.834,43.978,17.845,41.061Zm25.912,5.448V39.381H42.53V42.74H39.448v1.006H42.53v2.762Zm-4.42-6.442H33.182v1.017h4.845c-.249,2.232-2.243,3.912-5.564,4.718l.431,1.006C36.9,45.8,39.337,43.514,39.337,40.066ZM36,50.5h7.757V47.116H34.751v.994H42.53v1.448H34.785v3.58h9.448V52.133H36Zm20.376-5.812H53.26c-.193-2.6-1.558-4.221-3.448-4.232-2.055.011-3.492,1.89-3.481,4.84-.011,2.961,1.425,4.84,3.481,4.84,1.939,0,3.326-1.707,3.459-4.431h3.1v7.591h1.215V39.381H56.376Zm-6.564,4.354c-1.37,0-2.309-1.481-2.309-3.746s.939-3.735,2.309-3.746c1.359.011,2.309,1.492,2.309,3.746S51.171,49.039,49.812,49.039Zm20.851-4.011V39.381H69.436V53.26h1.227V46.066h2.254V45.028ZM60.652,40.873V41.9h5.171c-.276,3.3-2.232,5.972-5.823,7.757l.685.961c4.53-2.232,6.376-5.812,6.387-9.746Zm16.033,2.718v-3.7H75.47v4.7h9.5v-.994ZM73.724,47.47H86.442v-.994H73.724Zm1.657,1.414v4.044h9.68V51.912H76.6V48.884Zm26.84-9.5v10.4h1.16v-10.4ZM99.558,44.32v5.05h1.171V39.657H99.558V43.3H97.613V40.718H92.232v6.343h5.381V44.32Zm-6.177,1.768V41.7h3.083v4.387Zm2.122,2.4H94.276v4.475h9.536V51.945H95.5Zm16.862-.873h4.309V46.608h-8.365v-2.1h7.912v-.994h-7.912V41.536h8.21V40.519h-9.448v7.094h4.066v2.9h-5.713v1.017h12.718V50.508h-5.779Z" transform="translate(1429 2542)" fill="#6b6b6b"/><g transform="matrix(1, 0, 0, 1, 240, 2484)" filter="url(#a)"><path d="M137,0A137,137,0,1,1,0,137,137,137,0,0,1,137,0Z" transform="translate(346 114)" fill="#0085ce"/></g><g transform="matrix(1, 0, 0, 1, 240, 2484)" filter="url(#c)"><path d="M137,0A137,137,0,1,0,274,137,137,137,0,0,0,137,0Z" transform="translate(823 114)" fill="#00a8be"/></g><path d="M-100.117-6.874v3.345H-99.1v-7.5h-1.015v3.268h-1.624V-10.8h-1.006v6.884h1.006V-6.874Zm-3.171,1.537a3.641,3.641,0,0,1-2.5-3.287v-1.653h-1.035v1.653A4.223,4.223,0,0,1-109.409-5l.59.831a4.8,4.8,0,0,0,2.514-2.717,4.308,4.308,0,0,0,2.446,2.378Zm.174,2.079c-2.533,0-4.09.8-4.08,2.175-.01,1.363,1.547,2.166,4.08,2.166,2.514,0,4.08-.8,4.08-2.166S-100.6-3.258-103.115-3.258Zm0,3.5c-1.866.01-3.026-.493-3.017-1.325-.01-.841,1.151-1.344,3.017-1.344,1.847,0,3.007.5,3.017,1.344C-100.108-.251-101.268.251-103.115.242Zm15.18-6.468h-1.7V-10.78h-1.025V.493h1.025v-5.82h1.7V1.112H-86.9V-11.041h-1.035Zm-6.623-3.79c-1.576,0-2.6,1.634-2.6,4.215s1.025,4.235,2.6,4.225c1.586.01,2.62-1.634,2.63-4.225C-91.938-8.383-92.972-10.017-94.558-10.017Zm0,7.425c-.977.01-1.6-1.238-1.6-3.21-.01-1.972.619-3.21,1.6-3.21,1,0,1.624,1.238,1.624,3.21S-93.562-2.581-94.558-2.591Zm19.424-2.166v-6.285h-1.073v2.233h-2.707v.89h2.707v3.162Zm-6.444-2.934a5.011,5.011,0,0,0,2.954,2.664l.58-.841A4.054,4.054,0,0,1-81.07-9.5v-1.151h-1.054V-9.5a4.259,4.259,0,0,1-3.094,3.916l.58.86A5.034,5.034,0,0,0-81.578-7.691Zm-.353,6.444h6.8V-4.138h-7.88v.86H-76.2v1.209h-6.787V.948h8.305V.077h-7.251Zm18.206,2.359H-62.7V-11.041h-1.025Zm-4.312-8.769a10.065,10.065,0,0,0,.164-1.837h-4.7v.9h3.635a7.9,7.9,0,0,1-4.177,6.3l.648.773a8.913,8.913,0,0,0,4.22-5.25h2.055v2.156h-2.253v.89h2.253V.493h1.035V-10.713h-1.035v3.055Zm17.046.87h2.5v4.67h1.073v-8.914h-1.073v3.365h-2.5Zm-2.794.053a5.032,5.032,0,0,0,2.959,2.77l.561-.86a4.172,4.172,0,0,1-3-3.7v-.628h2.717v-.89h-6.546v.89h2.746v.628a4.412,4.412,0,0,1-3.094,3.974l.561.88A5.254,5.254,0,0,0-53.786-6.734Zm-.358,3.814h-1.073V.841h8.141v-.89h-7.068Zm10.191-7.532v4.235h8.228v-4.235ZM-42.9-7.077V-9.591h6.11v2.514Zm-2.5,3.142h5.115V-1.45h1.064V-3.935h4.95v-.89H-45.4Zm1.431,1.286V.841h8.46v-.89H-42.9v-2.6Zm20.1-3.452v-4.941h-1.073V1.1h1.073V-5.192H-21.9V-6.1Zm-8.76-3.635v.9h4.525c-.242,2.886-1.953,5.226-5.1,6.787l.6.841c3.964-1.953,5.579-5.086,5.588-8.528Zm14.01,1.924V-9.756h7.087v-.87h-8.16v3.693h8.286v-.88Zm-2.552,2.746h11.09v-.87h-11.09Zm9.649,3.906V-3.983H-19.83v.841h7.251v1.17H-19.8V.967h8.644V.1h-7.59V-1.16ZM-.174-11.041V1.131H.9V-11.041Zm-4.921.89c-1.914,0-3.287,1.16-3.278,2.852C-8.383-5.608-7.01-4.448-5.1-4.448S-1.827-5.608-1.818-7.3C-1.827-8.992-3.181-10.152-5.1-10.152Zm0,.938A2.006,2.006,0,0,1-2.872-7.3,2.006,2.006,0,0,1-5.1-5.385,2,2,0,0,1-7.319-7.3,2,2,0,0,1-5.1-9.214ZM-8.856-1.547A44.06,44.06,0,0,0-.89-2.079l-.087-.793A56.145,56.145,0,0,1-9-2.465ZM15.547-7.9h-2.7V-7h2.7v2.9H16.62v-6.932H15.547ZM12.82-10.249H7.309v.89h4.365c-.237,2.064-2.093,3.674-4.994,4.5l.454.841C10.635-5.018,12.811-7.2,12.82-10.249ZM16.62.938V-3.587H8.731V.938ZM15.557-2.727V.068H9.775V-2.727Zm4.109-3.268c2-.247,3.853-1.136,4.525-2.49.667,1.354,2.528,2.243,4.525,2.49l.4-.851c-2.156-.247-4.177-1.305-4.225-2.678h3.848v-.9H19.666v.9h3.829c-.058,1.383-2.1,2.432-4.215,2.678ZM18.651-4.37h11.08v-.89H18.651Zm5.53,1.064c-2.62,0-4.2.8-4.2,2.2s1.576,2.185,4.2,2.185S28.358.3,28.367-1.1C28.358-2.5,26.791-3.307,24.181-3.307Zm0,3.529c-1.943,0-3.113-.483-3.1-1.325-.01-.86,1.16-1.344,3.1-1.354,1.934.01,3.1.493,3.113,1.354C27.284-.261,26.115.222,24.181.222ZM39.7-11.032v9.088h1.073v-9.088Zm-1.015,6.3c-1.049.116-2.18.193-3.316.247v-1.7h2.456v-.88H33v-2.3h4.728v-.89H31.916v4.07h2.378v1.74c-1.223.039-2.422.053-3.49.058l.164.88a59.83,59.83,0,0,0,7.793-.435ZM33.956-2.572H32.883V.841h8.3v-.89H33.956ZM55.372-7.909v1.644H52.133v.89h3.239v1.644h1.073v-7.3H55.372v2.262H52.534a6.233,6.233,0,0,0,.15-1.363h-5.53v.9h4.37c-.222,2.108-2.059,3.761-4.989,4.622l.445.851c2.61-.769,4.486-2.185,5.284-4.148Zm-2.9,4.3c-2.494,0-4.07.87-4.07,2.32s1.576,2.34,4.07,2.34c2.456,0,4.041-.88,4.041-2.34S54.927-3.606,52.471-3.606Zm0,3.79c-1.837,0-3.007-.551-3.007-1.47s1.17-1.47,3.007-1.46c1.8-.01,2.968.541,2.978,1.46C55.439-.367,54.269.184,52.471.184ZM62.565-9.765v-1.392H61.511v1.392H58.485v.88h7.1v-.88Zm4.912,2.417H65.407v.9h2.069v2.775H68.55v-7.367H67.477Zm-2.62,1.257c-.01-1.276-1.17-2.166-2.823-2.166s-2.823.89-2.823,2.166c0,1.305,1.17,2.166,2.823,2.166S64.847-4.786,64.856-6.091Zm-4.612,0c-.01-.783.725-1.334,1.789-1.334s1.789.551,1.789,1.334c0,.8-.735,1.334-1.789,1.344C60.97-4.757,60.235-5.289,60.244-6.091ZM68.55.948V-3.026H60.6V.948ZM67.5-2.166V.068h-5.82V-2.166ZM76.111-6.6c2.707-.01,4.293-.754,4.293-2.127,0-1.354-1.586-2.1-4.293-2.1s-4.3.744-4.3,2.1C71.808-7.358,73.4-6.613,76.111-6.6Zm0-3.413c2.021,0,3.2.483,3.2,1.286,0,.841-1.18,1.305-3.2,1.305S72.92-7.89,72.93-8.731C72.92-9.533,74.1-10.017,76.111-10.017Zm-5.53,5.1H81.66v-.87H70.58Zm9.649,3.771V-3.858H71.924v.822h7.251v1.1H71.953V.977H80.6V.126h-7.59V-1.141ZM92.257-5.8h3.7v-.851H88.738V-7.86h6.826v-.822H88.738V-9.823h7.155v-.87H87.655V-5.8h3.529v1.209H86.175v.87h11.1v-.87H92.257Zm-.532,3c-2.688-.01-4.2.677-4.2,1.943s1.508,1.943,4.2,1.943c2.669,0,4.177-.667,4.186-1.943C95.9-2.127,94.394-2.814,91.725-2.8Zm0,3.055c-2,.01-3.123-.377-3.113-1.112-.01-.725,1.112-1.131,3.113-1.131s3.1.406,3.113,1.131C94.829-.126,93.717.261,91.725.251Zm15.9-6.169h-1.615v-4.834H105V.512h1.015v-5.54h1.615v6.14h1.025V-11.041H107.63Zm-6.836-4.757v1.731H98.271v.88h6.1v-.88h-2.5v-1.731Zm.532,3.432a2.579,2.579,0,0,0-2.611,2.756A2.593,2.593,0,0,0,101.326-1.7a2.613,2.613,0,0,0,2.63-2.785A2.6,2.6,0,0,0,101.326-7.242Zm0,4.6a1.69,1.69,0,0,1-1.663-1.847,1.72,1.72,0,0,1,1.663-1.856A1.727,1.727,0,0,1,103-4.486,1.7,1.7,0,0,1,101.326-2.64Zm-183.519,21.4V13.271h-1.74v14.11h1.74v-7.16h2.177V18.762Zm-5.994-2.674h2.95V14.663h-7.768v1.425h3.077v1.188a6.907,6.907,0,0,1-3.624,6.061l1.022,1.37a7.316,7.316,0,0,0,3.492-4.381,6.91,6.91,0,0,0,3.4,4.028l.972-1.37a6.449,6.449,0,0,1-3.525-5.707Zm19.271,11.293h1.646V13.271h-1.646ZM-73.624,18.7v1.431h1.851V26.7h1.63V13.536h-1.63V18.7ZM-75.1,17.138h2.359v-1.4h-2.365V13.768h-1.635v1.967h-2.409v1.4h2.409v.442a6.538,6.538,0,0,1-2.89,5.751l1.011,1.309a6.4,6.4,0,0,0,2.713-3.751,5.807,5.807,0,0,0,2.713,3.42l.967-1.276A6,6,0,0,1-75.1,17.58Zm19.613-.376h-2.4v1.425h2.4v3.5h1.735v-8.42h-1.735ZM-61.254,18.3a5.448,5.448,0,0,0,3.309,2.923l.867-1.348a4.51,4.51,0,0,1-3.32-4.188v-.177h2.923V14.122h-7.635v1.392h2.945v.193a4.773,4.773,0,0,1-3.453,4.453l.9,1.37A5.669,5.669,0,0,0-61.254,18.3Zm5.762,5.453v3.624h1.735V22.359h-9.63v1.4Zm10.166-9.7c-2.967.006-5.249,1.591-5.243,4-.006,2.425,2.276,4.011,5.243,4,2.972.011,5.265-1.575,5.265-4C-40.061,15.646-42.354,14.061-45.326,14.055Zm0,1.409c2.055-.006,3.558,1.017,3.558,2.591,0,1.591-1.5,2.58-3.558,2.58s-3.575-.989-3.564-2.58C-48.9,16.481-47.381,15.459-45.326,15.464Zm-6.425,8.729v1.414H-38.84V24.193Zm21.122-2.182h4.42v-1.42h-8.442V18.768h8.116V14.232h-9.873v1.4h8.155v1.757h-8.133v4.619h4.033v2.3h-5.564v1.436h12.912V24.315H-30.63Zm20.8-3.282h-1.519V13.646h-1.619V26.729h1.619V20.138h1.519v7.243h1.674V13.271H-9.829Zm-9.912-3.691v1.409h3.878a8.156,8.156,0,0,1-4.53,6.779l1.006,1.21c4.006-2.293,5.21-5.575,5.221-9.4ZM4.7,13.271H2.95v7.221H4.7V17.536H6.668V16.122H4.7Zm-5.652.619v1.8H-4.249v-1.8H-5.967v6.155H.779V13.89Zm-3.293,4.779V17.006H-.956v1.663ZM4.7,24.757v-3.7H-4.547v1.354H2.961V23.5H-4.525v3.768H5.138V25.884h-7.95V24.757ZM18.448,18.9V13.271H16.729v14.11h1.718V20.326h2.177V18.9Zm-7.8-5.425v1.961H7.309v1.4h8.331v-1.4h-3.26V13.47Zm.878,4.276a3.331,3.331,0,1,0,0,6.646,3.331,3.331,0,1,0,0-6.646Zm0,5.21a1.779,1.779,0,0,1-1.9-1.884,1.807,1.807,0,0,1,1.9-1.9,1.819,1.819,0,0,1,1.89,1.9A1.79,1.79,0,0,1,11.525,22.956ZM24.6,17.26V13.779H22.873v4.856h9.79V17.26Zm-3.4,4.392H34.116v-1.37H21.2ZM22.757,22.9v4.16h9.994V25.652h-8.26V22.9ZM48.7,16a31.352,31.352,0,0,1-.486,6.254l1.707.171A33.089,33.089,0,0,0,50.442,16V14.558H40.155v1.4H48.7Zm-1.724,3.635H45.271v4.508h-1.8V19.635H41.74v4.508H38.856v1.425H51.724V24.144H46.978Zm12.138-.558c3.094.006,5.083-1.044,5.083-2.762s-1.989-2.751-5.083-2.746-5.094,1.039-5.088,2.746S56.017,19.083,59.116,19.077Zm0-4.149c2.055-.006,3.3.5,3.3,1.387,0,.917-1.243,1.414-3.3,1.414-2.072,0-3.3-.5-3.287-1.414C55.818,15.425,57.044,14.923,59.116,14.928Zm6.442,5.006H52.691V21.32h3.166V22.8h-1.74v1.37h8.127v3.215h1.746V22.8H62.343V21.32h3.215ZM57.6,22.8V21.32H60.63V22.8Zm20-3.779V13.271H75.851v14.11H77.6v-6.9h2.044v-1.47ZM74.022,21.2a33.77,33.77,0,0,0,.4-5.47V14.729H67.149v1.4h5.541a31.733,31.733,0,0,1-.381,4.939Zm-3.177-2.431H69.138v4.215c-.972.022-1.9.028-2.74.033l.171,1.4a53.161,53.161,0,0,0,8.646-.525l-.1-1.293c-1.354.171-2.829.271-4.271.331Zm17.193-.564h2.414v3.453h1.735V13.271H90.453V16.79H88.039Zm-3.343.1A5.525,5.525,0,0,0,88,21.249l.867-1.376a4.506,4.506,0,0,1-3.32-4.193v-.088H88.47v-1.4H80.834v1.4h2.945v.1a4.853,4.853,0,0,1-3.464,4.547l.906,1.376A5.774,5.774,0,0,0,84.7,18.309Zm2.713,3.7c-2.983.006-4.812.994-4.807,2.691s1.823,2.685,4.807,2.691,4.818-.994,4.818-2.691S90.4,22.017,87.409,22.011Zm0,4.033c-1.967.011-3.088-.464-3.077-1.343-.011-.884,1.11-1.354,3.077-1.354s3.088.47,3.094,1.354S89.381,26.055,87.409,26.044Z" transform="translate(718 2731)" fill="#fff"/><path d="M-53.457-9.543v-1.5h-1.064v1.5h-2.959v.88H-50.6v-.88ZM-50.6-6.9h2.117V-5.25H-50.6v.87h2.117v2.62h1.073v-9.272h-1.073v3.239H-50.6Zm-.619,1.228C-51.233-7.068-52.374-8-54-8s-2.765.928-2.756,2.32c-.01,1.383,1.122,2.32,2.756,2.32S-51.233-4.293-51.224-5.675Zm-4.525,0c-.01-.87.706-1.46,1.75-1.47a1.572,1.572,0,0,1,1.76,1.47A1.56,1.56,0,0,1-54-4.206C-55.043-4.206-55.758-4.8-55.749-5.675Zm1.557,3.094h-1.083V.841h8.141v-.89h-7.058ZM-35.977-6.13H-37.64V-10.78h-1.015V.493h1.015v-5.7h1.663V1.112h1.035V-11.041h-1.035ZM-41.787-8.7h2.253v-.89H-45.22v.89h2.4v.977c0,2.465-.938,4.535-2.688,5.5l.677.822A5.8,5.8,0,0,0-42.28-5.173a5.386,5.386,0,0,0,2.5,3.355l.638-.831a5.472,5.472,0,0,1-2.649-5.076ZM-23.9,1.112h1.035V-11.041H-23.9ZM-27.908-6.3c-.135-2.291-1.136-3.713-2.615-3.713-1.576,0-2.6,1.634-2.6,4.215s1.025,4.235,2.6,4.225c1.5.01,2.514-1.47,2.62-3.838h1.566V.493H-25.3V-10.78h-1.035V-6.3Zm-2.615,3.713c-.977.01-1.6-1.238-1.6-3.21-.01-1.972.619-3.21,1.6-3.21,1,0,1.624,1.238,1.624,3.21S-29.528-2.581-30.523-2.591Zm22.363-8.46H-9.233v8.972H-8.16v-4.36h1.827v-.909H-8.16Zm-2.891,3.858a3,3,0,0,0-3.191-2.988,2.988,2.988,0,0,0-3.191,2.988,3,3,0,0,0,3.191,3A3.006,3.006,0,0,0-11.051-7.193Zm-5.327,0a2.031,2.031,0,0,1,2.137-2.05A2.044,2.044,0,0,1-12.1-7.193a2.044,2.044,0,0,1-2.146,2.05A2.031,2.031,0,0,1-16.378-7.193Zm.609,4.186V.841H-7.6v-.89h-7.106V-3.007ZM-4.486-5.153A6.19,6.19,0,0,0-.024-7.948,6.181,6.181,0,0,0,4.457-5.153L4.863-6C2.736-6.314.57-7.7.58-9.33v-.077H4.457v-.87H-4.515v.87h3.9v.077C-.628-7.7-2.794-6.314-4.9-6ZM-5.559-4.119v.89H-.57V1.1H.483V-3.229H5.521v-.89ZM15.953-6.033v-5.008H14.89V1.112h1.064V-5.134h2.03v-.9ZM9.6-10.9v1.808H6.478v.89H13.71v-.89H10.674V-10.9Zm.551,3.7A2.773,2.773,0,0,0,7.174-4.4a2.766,2.766,0,0,0,2.978,2.785A2.782,2.782,0,0,0,13.13-4.4,2.789,2.789,0,0,0,10.152-7.193Zm0,4.67A1.833,1.833,0,0,1,8.2-4.4a1.854,1.854,0,0,1,1.953-1.9A1.87,1.87,0,0,1,12.1-4.4,1.849,1.849,0,0,1,10.152-2.523ZM27.594,1.112h1.073V-11.041H27.594ZM23-8.9h2.891v-.9H19.047v.9h2.872v1.586a6.327,6.327,0,0,1-3.268,5.231l.638.851A6.915,6.915,0,0,0,22.474-5.25a6.363,6.363,0,0,0,3.215,3.722l.6-.851A5.73,5.73,0,0,1,23-7.309Zm20.768-2.146H42.7V-4.97h1.073V-7.406H45.6v-.9H43.769Zm-2.959,3.5a2.888,2.888,0,0,0-3.152-2.8,2.891,2.891,0,0,0-3.162,2.8,2.9,2.9,0,0,0,3.162,2.814A2.9,2.9,0,0,0,40.811-7.541Zm-5.26,0a1.956,1.956,0,0,1,2.108-1.9,1.961,1.961,0,0,1,2.108,1.9,1.97,1.97,0,0,1-2.108,1.924A1.965,1.965,0,0,1,35.551-7.541ZM41.4-4.67V-3.6H38.838v.841h6.149V-3.6H42.454V-4.67ZM36.6-3.655H35.561V.783h.58A9.862,9.862,0,0,0,39.273.338L39.1-.522A9.2,9.2,0,0,1,36.6-.106Zm5.308,1.305c-1.344,0-2.272.667-2.262,1.721-.01,1.054.919,1.711,2.262,1.711,1.325,0,2.262-.657,2.272-1.711C44.175-1.682,43.238-2.349,41.913-2.349Zm0,2.659c-.764,0-1.305-.367-1.305-.938s.541-.938,1.305-.948c.754.01,1.3.387,1.3.948S42.667.309,41.913.309Zm7.029-7.667V-10.6H47.878v4.109h8.315v-.87ZM46.351-3.964H57.479v-.87H46.351ZM47.8-2.727V.812h8.47v-.89H48.865V-2.727ZM-46.751,13.282V23.536h1.74V13.282Zm-5.5,5.464a5.571,5.571,0,0,0,3.409,2.923l.89-1.365A4.465,4.465,0,0,1-51.4,16.138v-.4h2.972v-1.4H-56.2v1.4h3.039v.4a4.746,4.746,0,0,1-3.5,4.436l.9,1.37A5.8,5.8,0,0,0-52.254,18.746Zm-.348,3.84h-1.751v4.53h9.74V25.707H-52.6Zm20.84-3.486V13.271h-1.746v14.11h1.746v-6.84h1.978V19.1Zm-5.983-4.2V13.326h-1.746V14.9H-42.84v1.376h8.42V14.9Zm0,7.221a2.729,2.729,0,0,0,2.575-2.558c-.011-1.586-1.431-2.646-3.436-2.646-2.033,0-3.431,1.061-3.425,2.646a2.674,2.674,0,0,0,2.541,2.552v1.326c-1.3.033-2.541.039-3.613.039l.249,1.431a50.261,50.261,0,0,0,8.707-.575l-.116-1.276c-1.11.155-2.3.254-3.481.315Zm-2.641-2.558c-.006-.818.707-1.315,1.779-1.315,1.055,0,1.768.5,1.768,1.315s-.713,1.3-1.768,1.293C-39.68,20.856-40.392,20.376-40.387,19.558Zm16.2-4.89V13.149h-1.729v1.519h-3.16v1.376h7.884V14.669Zm6.912,7.641V13.271h-1.735v3.193h-2.077v1.4h2.077v1.4h-2.1v1.4h2.1v1.646Zm-4.486-3.066c-.011-1.575-1.387-2.635-3.3-2.635-1.934,0-3.282,1.061-3.271,2.635-.011,1.575,1.337,2.619,3.271,2.619C-23.144,21.862-21.768,20.818-21.757,19.243Zm-4.956,0c-.006-.834.646-1.331,1.652-1.337.989.006,1.68.5,1.685,1.337s-.7,1.32-1.685,1.32C-26.066,20.564-26.718,20.077-26.713,19.243Zm4.7,3.221c-2.994,0-4.834.906-4.834,2.459,0,1.536,1.84,2.453,4.834,2.448,2.978.006,4.818-.912,4.818-2.448C-17.2,23.37-19.039,22.464-22.017,22.464Zm0,3.58c-1.912.011-3.011-.392-3.006-1.122-.006-.751,1.094-1.127,3.006-1.133,1.884.006,2.961.381,2.967,1.133C-19.055,25.652-20.133,26.055-22.017,26.044ZM-1.619,16A31.352,31.352,0,0,1-2.1,22.254l1.707.171A33.088,33.088,0,0,0,.122,16V14.558H-10.166v1.4h8.547Zm-1.724,3.635H-5.05v4.508h-1.8V19.635H-8.58v4.508h-2.884v1.425H1.4V24.144H-3.343ZM8.8,19.077c3.094.006,5.083-1.044,5.083-2.762S11.89,13.564,8.8,13.569,3.7,14.608,3.707,16.315,5.7,19.083,8.8,19.077Zm0-4.149c2.055-.006,3.3.5,3.3,1.387,0,.917-1.243,1.414-3.3,1.414-2.072,0-3.3-.5-3.287-1.414C5.5,15.425,6.724,14.923,8.8,14.928Zm6.442,5.006H2.37V21.32H5.536V22.8H3.8v1.37h8.127v3.215h1.746V22.8H12.022V21.32h3.215ZM7.282,22.8V21.32h3.028V22.8ZM26.2,27.414h1.751V13.271H26.2ZM21.541,14.4H19.785v2.26c-.011,2.718-1.387,5.42-3.729,6.436l1.061,1.448a7.1,7.1,0,0,0,3.569-4.42,6.928,6.928,0,0,0,3.47,4.094l1.033-1.392a6.634,6.634,0,0,1-3.646-6.166ZM36.42,17.718a7.371,7.371,0,0,0,5.227,3.823l.779-1.448c-2.956-.519-5.094-2.707-5.088-4.9V14.16H35.492V15.2c-.011,2.177-2.149,4.365-5.061,4.9l.762,1.448A7.49,7.49,0,0,0,36.42,17.718Zm-6.381,7.873H42.95V24.155H30.039ZM54.3,21.718H55.95V13.271H54.3Zm-1.133-.1V13.5H51.514v3.215H49.923v1.409h1.591v3.492Zm-2.785-2.265a24.738,24.738,0,0,1-4.249.326V18.215H49.3V16.878H46.133V15.547H49.84V14.138H44.464v6.923H45.4a26.368,26.368,0,0,0,5.155-.354Zm5.569,7.867V22.3H46.42v4.912Zm-1.718-3.53v2.127H48.149V23.685Z" transform="translate(1205 2731)" fill="#fff"/><g transform="translate(1333 2872)"><g transform="matrix(1, 0, 0, 1, -1093, -388)" filter="url(#e)"><circle cx="38" cy="38" r="38" transform="translate(1093 388)" fill="#fff"/></g><g transform="translate(15 16)" clip-path="url(#g)"><g transform="translate(-7273.023 -164.077)"><g transform="translate(7277.064 173.102)"><path d="M7288.018,202.52v-.481h15.389V175.414h-26.342V202.52a6.989,6.989,0,0,0,4.3,6.45h2.353A6.988,6.988,0,0,0,7288.018,202.52Z" transform="translate(-7277.064 -175.414)" fill="#00a2be"/><path d="M7312.629,218.291h.47a6.989,6.989,0,0,0,4.3-6.45v-.481h-4.771" transform="translate(-7286.287 -184.735)" fill="#9be0e8"/><g transform="translate(6.653 26.625)"><path d="M7305.735,211.36h-15.389v.481a6.989,6.989,0,0,1-4.3,6.45h19.689" transform="translate(-7286.046 -211.36)" fill="#9be0e8"/><path d="M7305.735,211.36h-15.389v.481a6.989,6.989,0,0,1-4.3,6.45h19.689" transform="translate(-7286.046 -211.36)" fill="#9be0e8"/></g></g><g transform="translate(7295.155 166.497)"><rect width="18.081" height="22.717" fill="#9be0e8"/><line x2="7.88" transform="translate(4.869 5.333)" fill="#fff" stroke="#00a2be" stroke-linecap="round" stroke-width="1"/><line x2="7.88" transform="translate(4.869 10.199)" fill="#fff" stroke="#00a2be" stroke-linecap="round" stroke-width="1"/><line x2="7.88" transform="translate(4.869 15.068)" fill="#fff" stroke="#00a2be" stroke-linecap="round" stroke-width="1"/></g></g></g></g><g transform="translate(1333 2524)"><g transform="matrix(1, 0, 0, 1, -1093, -40)" filter="url(#h)"><circle cx="38" cy="38" r="38" transform="translate(1093 40)" fill="#fff"/></g><g transform="translate(15 16)" clip-path="url(#g)"><g transform="translate(-448.414 -798.396)"><g transform="translate(453.892 808.739)"><g transform="translate(0.555 12.198)"><g transform="translate(27.94)"><g transform="translate(0.503 9.775)"><path d="M526.244,868.659a2.545,2.545,0,0,0,2.055,1.226,1.572,1.572,0,0,0,.974-.491c-.491,2.439-1.648,3.712-3,3.712-1.157,0-2.17-.942-2.745-2.749A2.72,2.72,0,0,0,526.244,868.659Z" transform="translate(-523.532 -868.659)" fill="#9be0e8"/></g><path d="M525.648,846.662c1.794,0,3.248,3.452,3.248,7.71a14.288,14.288,0,0,1-.252,2.8,1.572,1.572,0,0,1-.974.491,2.545,2.545,0,0,1-2.055-1.226,2.719,2.719,0,0,1-2.712,1.7,12.508,12.508,0,0,1-.5-3.763C522.4,850.114,523.853,846.662,525.648,846.662Z" transform="translate(-522.399 -846.662)" fill="#9be0e8"/></g><g transform="translate(0.253 9.775)"><path d="M463.119,868.659a2.546,2.546,0,0,1-2.055,1.226,1.571,1.571,0,0,1-.974-.491c.491,2.439,1.647,3.712,3,3.712,1.157,0,2.17-.942,2.745-2.749A2.719,2.719,0,0,1,463.119,868.659Z" transform="translate(-460.091 -868.659)" fill="#9be0e8"/></g><path d="M462.77,846.662c-1.794,0-3.248,3.452-3.248,7.71a14.28,14.28,0,0,0,.253,2.8,1.571,1.571,0,0,0,.974.491,2.546,2.546,0,0,0,2.055-1.226,2.719,2.719,0,0,0,2.712,1.7,12.522,12.522,0,0,0,.5-3.763C466.019,850.114,464.565,846.662,462.77,846.662Z" transform="translate(-459.522 -846.662)" fill="#9be0e8"/></g><g transform="translate(0 11.642)"><g transform="translate(27.94)"><path d="M524.952,860.745c-2.31,0-3.8-2.774-3.8-7.067,0-4.712,1.635-8.266,3.8-8.266s3.8,3.553,3.8,8.266C528.756,857.97,527.263,860.745,524.952,860.745Zm0-14.222c-1.273,0-2.692,2.938-2.692,7.155,0,4.114,1.352,5.956,2.692,5.956s2.693-1.842,2.693-5.956C527.646,849.461,526.226,846.523,524.952,846.523Z" transform="translate(-521.149 -845.412)" fill="#9be0e8"/></g><path d="M462.076,860.745c-2.311,0-3.8-2.774-3.8-7.067,0-4.712,1.636-8.266,3.8-8.266s3.8,3.553,3.8,8.266C465.88,857.97,464.387,860.745,462.076,860.745Zm0-14.222c-1.274,0-2.693,2.938-2.693,7.155,0,4.114,1.353,5.956,2.693,5.956s2.693-1.842,2.693-5.956C464.769,849.461,463.35,846.523,462.076,846.523Z" transform="translate(-458.272 -845.412)" fill="#9be0e8"/></g><g transform="translate(3.324)"><path d="M494.791,833.437s-.052-11.719-.052-11.8c0-.762-.435-1.288-1.216-1.153-3.652.622-7.3,1.243-10.962,1.829a15.756,15.756,0,0,0-3.326,0c-3.661-.586-7.312-1.208-10.965-1.829-.78-.135-1.211.391-1.214,1.153,0,.079-.053,11.8-.053,11.8a1.783,1.783,0,0,0,.058.469c-.036.4-.058.808-.058,1.225v2.861c0,10.388,6.221,10.835,13.893,10.835s13.9,0,13.9-10.835V835.13c0-.417-.021-.823-.059-1.225A1.78,1.78,0,0,0,494.791,833.437Z" transform="translate(-466.448 -819.908)" fill="#9be0e8"/><path d="M480.2,848.686c-6.772,0-14.449,0-14.449-11.391v-2.861c0-.381.017-.769.052-1.183a2.4,2.4,0,0,1-.052-.513s.053-11.681.053-11.8a1.557,1.557,0,0,1,1.535-1.729,1.927,1.927,0,0,1,.329.029c3.561.607,7.244,1.234,10.885,1.817a16.322,16.322,0,0,1,3.294,0c3.647-.585,7.327-1.211,10.886-1.817a1.547,1.547,0,0,1,1.864,1.7c0,.118.052,11.8.052,11.8a2.434,2.434,0,0,1-.052.513c.035.4.052.791.052,1.183V837.3C494.652,848.686,487.956,848.686,480.2,848.686Zm-12.861-28.362c-.28,0-.423.209-.424.621,0,.077-.053,11.8-.053,11.8a1.238,1.238,0,0,0,.039.322l.025.1-.008.1c-.037.416-.056.8-.056,1.175V837.3c0,9.564,5.281,10.28,13.338,10.28,7.744,0,13.34,0,13.34-10.28v-2.861c0-.387-.018-.771-.056-1.173l-.009-.1.026-.1a1.209,1.209,0,0,0,.039-.322s-.052-11.719-.052-11.8c0-.475-.208-.667-.566-.606-3.586.611-7.293,1.242-10.969,1.831l-.072.012-.073-.008a15.261,15.261,0,0,0-3.211,0l-.073.008-.072-.012c-3.67-.587-7.381-1.219-10.97-1.83A.853.853,0,0,0,467.341,820.324Z" transform="translate(-465.753 -819.212)" fill="#9be0e8"/></g><g transform="translate(13.49 13.033)"><path d="M488.654,848.542a4.4,4.4,0,0,0-.023.443,4.283,4.283,0,0,0,8.567,0,4.163,4.163,0,0,0-.023-.443Z" transform="translate(-488.631 -848.542)" fill="#fff"/></g><g transform="translate(6.629 4.419)"><path d="M484.167,834.645a5.488,5.488,0,1,1-5.489-5.489A5.488,5.488,0,0,1,484.167,834.645Z" transform="translate(-473.19 -829.156)" fill="#fff"/><g transform="translate(11.312)"><path d="M509.624,834.645a5.489,5.489,0,1,1-5.489-5.489A5.489,5.489,0,0,1,509.624,834.645Z" transform="translate(-498.646 -829.156)" fill="#fff"/></g><g transform="translate(3.534 3.535)"><path d="M485.053,839.065a1.955,1.955,0,1,1-1.956-1.954A1.955,1.955,0,0,1,485.053,839.065Z" transform="translate(-481.143 -837.111)" fill="#00a2be"/></g><g transform="translate(14.972 3.535)"><path d="M510.792,839.065a1.955,1.955,0,1,1-1.953-1.954A1.954,1.954,0,0,1,510.792,839.065Z" transform="translate(-506.883 -837.111)" fill="#00a2be"/></g></g><g transform="translate(14.323 8.754)"><path d="M494.8,839.157a1.587,1.587,0,0,0-1.695,0l-2.253,1.574a.676.676,0,0,0,0,1.185l2.253,1.574a1.588,1.588,0,0,0,1.695,0l2.253-1.574a.676.676,0,0,0,0-1.185Z" transform="translate(-490.505 -838.912)" fill="#9be0e8"/></g><g transform="translate(6.593 26.436)"><path d="M481.861,882.526a2.569,2.569,0,0,1-2.571,2.571h-2.361a2.569,2.569,0,0,1-2.57-2.571h0a2.571,2.571,0,0,1,2.57-2.571h2.361a2.571,2.571,0,0,1,2.571,2.571Z" transform="translate(-473.804 -879.4)" fill="#00a2be"/><path d="M478.6,884.957h-2.361a3.126,3.126,0,0,1,0-6.252H478.6a3.126,3.126,0,1,1,0,6.252Zm-2.361-5.141a2.015,2.015,0,0,0,0,4.03H478.6a2.015,2.015,0,1,0,0-4.03Z" transform="translate(-473.109 -878.705)" fill="#00a2be"/><g transform="translate(13.749)"><path d="M512.8,882.526a2.569,2.569,0,0,1-2.571,2.571h-2.36a2.569,2.569,0,0,1-2.571-2.571h0a2.571,2.571,0,0,1,2.571-2.571h2.36a2.571,2.571,0,0,1,2.571,2.571Z" transform="translate(-504.746 -879.4)" fill="#00a2be"/><path d="M509.537,884.957h-2.36a3.126,3.126,0,1,1,0-6.252h2.36a3.126,3.126,0,1,1,0,6.252Zm-2.36-5.141a2.015,2.015,0,1,0,0,4.03h2.36a2.015,2.015,0,1,0,0-4.03Z" transform="translate(-504.051 -878.705)" fill="#00a2be"/></g><g transform="translate(16.348 3.188)"><line y2="1.954" transform="translate(0.556 0.555)" fill="#f7d959"/><path d="M510.453,888.943a.555.555,0,0,1-.555-.555v-1.953a.555.555,0,0,1,1.111,0v1.953A.555.555,0,0,1,510.453,888.943Z" transform="translate(-509.898 -885.879)" fill="#00a2be"/><g transform="translate(2.224)"><line y2="1.954" transform="translate(0.556 0.555)" fill="#f7d959"/><path d="M515.457,888.943a.555.555,0,0,1-.555-.555v-1.953a.555.555,0,0,1,1.111,0v1.953A.555.555,0,0,1,515.457,888.943Z" transform="translate(-514.902 -885.879)" fill="#00a2be"/></g></g><g transform="translate(2.589 3.188)"><line y2="1.954" transform="translate(0.555 0.555)" fill="#f7d959"/><path d="M479.491,888.943a.555.555,0,0,1-.555-.555v-1.953a.555.555,0,0,1,1.111,0v1.953A.555.555,0,0,1,479.491,888.943Z" transform="translate(-478.936 -885.879)" fill="#00a2be"/><g transform="translate(2.223)"><line y2="1.954" transform="translate(0.556 0.555)" fill="#f7d959"/><path d="M484.494,888.943a.555.555,0,0,1-.555-.555v-1.953a.555.555,0,0,1,1.111,0v1.953A.555.555,0,0,1,484.494,888.943Z" transform="translate(-483.939 -885.879)" fill="#00a2be"/></g></g></g></g><g transform="translate(460.27 800.364)"><g transform="translate(3.915 4.743)"><g transform="translate(0.555 0.555)"><path d="M482.687,812.287v4.83h0c0,.9,3.22,1.637,7.191,1.637s7.191-.733,7.191-1.637h0v-4.83Z" transform="translate(-482.687 -812.287)" fill="#00a2be"/></g><path d="M489.184,818.615c-.793,0-7.747-.062-7.747-2.192v-4.83a.556.556,0,0,1,.555-.555h14.382a.556.556,0,0,1,.555.555v4.83C496.93,818.553,489.976,818.615,489.184,818.615Zm-6.636-2.235c.3.414,2.707,1.124,6.636,1.124s6.337-.71,6.636-1.124v-4.232H482.548Z" transform="translate(-481.437 -811.037)" fill="#00a2be"/></g><g transform="translate(21.017 4.358)"><line y1="2.775" transform="translate(0.555 0.555)" fill="#fff"/><path d="M520.478,814.058a.555.555,0,0,1-.555-.555v-2.775a.555.555,0,0,1,1.111,0V813.5A.556.556,0,0,1,520.478,814.058Z" transform="translate(-519.923 -810.172)" fill="#00a2be"/></g><path d="M496.089,805.577l-11.106,3.667-11.106-3.667,11.106-3.964Z" transform="translate(-473.32 -801.058)" fill="#00a2be"/><path d="M484.288,809.1a.556.556,0,0,1-.174-.028l-11.106-3.667a.556.556,0,0,1-.012-1.051L484.1,800.4a.566.566,0,0,1,.373,0l11.106,3.964a.556.556,0,0,1-.012,1.051l-11.106,3.667A.556.556,0,0,1,484.288,809.1Zm-9.4-4.243,9.4,3.1,9.4-3.1-9.4-3.354Z" transform="translate(-472.626 -800.364)" fill="#00a2be"/><g transform="translate(20.06 7.133)"><path d="M519.976,817.667a.957.957,0,0,0-.957.957v1.532h1.914v-1.532A.957.957,0,0,0,519.976,817.667Z" transform="translate(-518.464 -817.112)" fill="#00a2be"/><path d="M520.239,820.017h-1.914a.556.556,0,0,1-.555-.555V817.93a1.513,1.513,0,0,1,3.025,0v1.532A.555.555,0,0,1,520.239,820.017Zm-1.359-1.111h.8v-.976a.4.4,0,1,0-.8,0Z" transform="translate(-517.769 -816.417)" fill="#00a2be"/></g></g><g transform="translate(450.389 819.349)"><line x1="6.336" y1="12.524" transform="translate(0.556 0.556)" fill="#f7d959"/><path d="M457.281,856.724a.556.556,0,0,1-.5-.3l-6.337-12.525a.556.556,0,0,1,.991-.5l6.337,12.525a.555.555,0,0,1-.5.806Z" transform="translate(-450.389 -843.089)" fill="#00a2be"/></g></g></g></g><path d="M8,0l8,11H0Z" transform="translate(966 2727) rotate(90)" fill="#00adce"/><path d="M8,0l8,11H0Z" transform="translate(955 2727) rotate(90)" fill="#0085ce"/><path d="M8,0l8,11H0Z" transform="translate(977 2727) rotate(90)" fill="#00a8be"/><g transform="translate(-425 1235)"><g transform="matrix(1, 0, 0, 1, 665, 1249)" filter="url(#k)"><circle cx="38" cy="38" r="38" transform="translate(274 388)" fill="#fff"/></g><g transform="translate(-648.5 -123.5)" clip-path="url(#m)"><g transform="translate(-3788.958 -95.471)"><g transform="translate(5393.071 1876.03)"><path d="M5413.783,1890.128H5407.8v-9.87a4.229,4.229,0,0,1,4.229-4.228h23.041a4.229,4.229,0,0,1,4.229,4.228v15.855a4.229,4.229,0,0,1-4.229,4.228h-4.651v9.723l-10.243-9.723h-3.566v-7.383A2.831,2.831,0,0,0,5413.783,1890.128Z" transform="translate(-5395.526 -1876.03)" fill="#9be0e8"/><path d="M5395.9,1892.947h15.427a2.831,2.831,0,0,1,2.83,2.831v10.613a2.831,2.831,0,0,1-2.83,2.83h-5.454l-6.859,6.51v-6.51H5395.9a2.831,2.831,0,0,1-2.83-2.83v-10.613A2.83,2.83,0,0,1,5395.9,1892.947Z" transform="translate(-5393.071 -1878.849)" fill="#00a2be"/></g><line x1="6.348" transform="translate(5421.642 1883.069)" fill="#fff" stroke="#00a2be" stroke-linecap="round" stroke-width="1"/><line x1="6.348" transform="translate(5421.642 1889.623)" fill="#fff" stroke="#00a2be" stroke-linecap="round" stroke-width="1"/></g></g></g><g transform="translate(-425 887)"><g transform="matrix(1, 0, 0, 1, 665, 1597)" filter="url(#n)"><circle cx="38" cy="38" r="38" transform="translate(274 40)" fill="#fff"/></g><g transform="translate(-648.5 -123.5)" clip-path="url(#m)"><g transform="translate(1154.501 969.887)"><g transform="translate(455.499 809.9)"><path d="M481.164,849c0,2.118-5.745,3.835-12.832,3.835S455.5,851.12,455.5,849s5.746-3.834,12.833-3.834S481.164,846.884,481.164,849Z" transform="translate(-455.499 -814.411)" fill="#9be0e8" stroke="#9be0e8" stroke-linecap="round" stroke-linejoin="round" stroke-width="2.2"/><path d="M473.848,849.089c0,.835-1.908,1.512-4.258,1.512s-4.258-.677-4.258-1.512,1.908-1.51,4.258-1.51S473.848,848.255,473.848,849.089Z" transform="translate(-456.757 -814.72)" fill="#00a2be"/><path d="M469.707,843.9v-34l13.569,8.258L470.3,825.534" transform="translate(-457.316 -809.9)" fill="#00a2be" stroke="#00a2be" stroke-linecap="round" stroke-linejoin="round" stroke-width="1.5"/></g><g transform="translate(481.153 814.451)"><line y1="0.958" x2="3.48" transform="translate(2.867)" fill="none" stroke="#00a2be" stroke-linecap="round" stroke-linejoin="round" stroke-width="1"/><line x2="2.069" y2="3.094" transform="translate(0 9.313)" fill="none" stroke="#00a2be" stroke-linecap="round" stroke-linejoin="round" stroke-width="1"/><line x2="2.701" y2="0.945" transform="translate(2.377 5.66)" fill="none" stroke="#00a2be" stroke-linecap="round" stroke-linejoin="round" stroke-width="1"/></g></g></g></g><g transform="translate(-490 1061)"><g transform="matrix(1, 0, 0, 1, 730, 1423)" filter="url(#q)"><circle cx="38" cy="38" r="38" transform="translate(209 214)" fill="#fff"/></g><g transform="translate(-648.5 -123.5)" clip-path="url(#m)"><g transform="translate(-2181.933 -308.884)"><circle cx="3.379" cy="3.379" r="3.379" transform="translate(3804.555 2122.672)" fill="#00a2be"/><path d="M3818.4,2106.761a9.811,9.811,0,1,0-17.467,6.12,15.269,15.269,0,0,1,3.3,7.1l.283,1.777h8.151l.237-1.481a16.493,16.493,0,0,1,3.428-7.5A9.734,9.734,0,0,0,3818.4,2106.761Z" transform="translate(-0.654 -0.714)" fill="#9be0e8"/><rect width="11.154" height="3.818" rx="1.909" transform="translate(3802.356 2118.414)" fill="#00a2be" stroke="#00a2be" stroke-linecap="round" stroke-linejoin="round" stroke-width="0.5"/><rect width="11.154" height="3.818" rx="1.909" transform="translate(3802.356 2122.232)" fill="#00a2be" stroke="#00a2be" stroke-linecap="round" stroke-linejoin="round" stroke-width="0.5"/><line y1="3.138" transform="translate(3807.933 2086.34)" fill="#fff" stroke="#00a2be" stroke-linecap="round" stroke-linejoin="round" stroke-width="1"/><line x1="2.219" y1="2.219" transform="translate(3794.587 2091.869)" fill="#fff" stroke="#00a2be" stroke-linecap="round" stroke-linejoin="round" stroke-width="1"/><line x1="3.138" transform="translate(3789.059 2105.215)" fill="#fff" stroke="#00a2be" stroke-linecap="round" stroke-linejoin="round" stroke-width="1"/><line x1="2.219" y2="2.219" transform="translate(3794.587 2116.342)" fill="#fff" stroke="#00a2be" stroke-linecap="round" stroke-linejoin="round" stroke-width="1"/><line x2="2.219" y2="2.219" transform="translate(3819.061 2116.342)" fill="#fff" stroke="#00a2be" stroke-linecap="round" stroke-linejoin="round" stroke-width="1"/><line x2="3.138" transform="translate(3823.67 2105.215)" fill="#fff" stroke="#00a2be" stroke-linecap="round" stroke-linejoin="round" stroke-width="1"/><line y1="2.219" x2="2.219" transform="translate(3819.061 2091.869)" fill="#fff" stroke="#00a2be" stroke-linecap="round" stroke-linejoin="round" stroke-width="1"/><g transform="translate(3803.011 2107.881)"><path d="M820.233,841.829h-2.027l-1.292-10.548h4.612Z" transform="translate(-814.297 -828.664)" fill="none" stroke="#00a2be" stroke-linecap="round" stroke-linejoin="round" stroke-width="1"/><path d="M1.308,0h0A1.308,1.308,0,0,1,2.617,1.308V2.617a0,0,0,0,1,0,0H1.308A1.308,1.308,0,0,1,0,1.308v0A1.308,1.308,0,0,1,1.308,0Z" transform="translate(0)" fill="none" stroke="#00a2be" stroke-linecap="round" stroke-linejoin="round" stroke-width="1"/><path d="M1.308,0H2.617a0,0,0,0,1,0,0V1.308A1.308,1.308,0,0,1,1.308,2.617h0A1.308,1.308,0,0,1,0,1.308v0A1.308,1.308,0,0,1,1.308,0Z" transform="translate(9.845 2.617) rotate(180)" fill="none" stroke="#00a2be" stroke-linecap="round" stroke-linejoin="round" stroke-width="1"/></g></g></g></g></g></svg>