<svg xmlns="http://www.w3.org/2000/svg" xmlns:xlink="http://www.w3.org/1999/xlink" width="80" height="80" viewBox="0 0 80 80"><defs><clipPath id="a"><rect width="80" height="80" transform="translate(1087 1746)" fill="#fff" stroke="#707070" stroke-width="1"/></clipPath></defs><g transform="translate(-1087 -1746)" clip-path="url(#a)"><g transform="translate(682.788 625.208)"><g transform="translate(414.564 1128.912)"><line y2="6.63" transform="translate(3.315)" fill="none" stroke="#000" stroke-width="2"/><line x2="6.63" transform="translate(0 3.315)" fill="none" stroke="#000" stroke-width="2"/></g><g transform="translate(415.522 1140.962)"><path d="M457.451,1201.637h-20.7l3.27-11.862h14.164Z" transform="translate(-418.097 -1148.272)" fill="#fff" stroke="#000" stroke-linecap="round" stroke-linejoin="round" stroke-width="2"/><g transform="translate(0 0)"><path d="M473.656,1149.364a6.541,6.541,0,0,0-6.54-6.541h-44.93a6.54,6.54,0,0,0-6.538,6.541v27.01h58.008Z" transform="translate(-415.648 -1142.823)" fill="#00a2be" stroke="#000" stroke-linecap="round" stroke-linejoin="round" stroke-width="2"/><path d="M415.648,1180.779V1185a6.539,6.539,0,0,0,6.538,6.539h44.93a6.54,6.54,0,0,0,6.54-6.539v-4.217Z" transform="translate(-415.648 -1147.228)" fill="#fff" stroke="#000" stroke-linecap="round" stroke-linejoin="round" stroke-width="2"/></g></g><g transform="translate(429.002 1126.792)"><path d="M446.42,1126.792l-15.522,8.962,15.522,8.963,15.526-8.963Z" transform="translate(-430.898 -1126.792)" fill="#fff" stroke="#000" stroke-linecap="round" stroke-linejoin="round" stroke-width="2"/><path d="M463.984,1136.931l-15.526,8.963v17.925l15.526-8.964h0v-17.924Z" transform="translate(-432.936 -1127.969)" fill="#fff" stroke="#000" stroke-linecap="round" stroke-linejoin="round" stroke-width="2"/><path d="M430.9,1136.931v17.924l15.522,8.964v-17.925Z" transform="translate(-430.898 -1127.969)" fill="#fff" stroke="#000" stroke-linecap="round" stroke-linejoin="round" stroke-width="2"/></g><g transform="translate(423.262 1164.405)"><line y2="6.63" transform="translate(3.315 0)" fill="none" stroke="#000" stroke-width="2"/><line x2="6.63" transform="translate(0 3.315)" fill="none" stroke="#000" stroke-width="2"/><line x2="28.175" transform="translate(9.558 3.315)" fill="none" stroke="#000" stroke-width="2"/></g></g></g></svg>