<svg xmlns="http://www.w3.org/2000/svg" xmlns:xlink="http://www.w3.org/1999/xlink" width="80" height="80" viewBox="0 0 80 80"><defs><clipPath id="a"><rect width="80" height="80" transform="translate(1087 1746)" fill="#fff" stroke="#707070" stroke-width="1"/></clipPath></defs><g transform="translate(-1087 -1746)" clip-path="url(#a)"><g transform="translate(514.121 1579.39)"><g transform="translate(582.599 172.61)"><path d="M586.642,252.371V230.378s5.034-7.243,9.892-7.684,12.631,8.832,12.631,8.832V243.1a5.77,5.77,0,0,1-2.826,5.388v6.094Z" transform="translate(-584.407 -194.998)" fill="#fff" stroke="#000" stroke-linecap="round" stroke-linejoin="round" stroke-width="2"/><path d="M612.114,172.61l-13.482,13.483v31.335h35.579V172.61Z" transform="translate(-589.768 -172.61)" fill="#fff" stroke="#000" stroke-linecap="round" stroke-linejoin="round" stroke-width="2"/><path d="M612.115,186.093V172.61l-13.483,13.483Z" transform="translate(-589.768 -172.61)" fill="#fff" stroke="#000" stroke-linecap="round" stroke-linejoin="round" stroke-width="2"/><ellipse cx="4.182" cy="3.745" rx="4.182" ry="3.745" transform="translate(5.618 41.821)" fill="#fff"/><path d="M595.019,237.9,607,226.915s2.372-1.873,3.87.5-1,5.743-1,5.743l-5.618,5.992s3,1.873,1.124,8.488" transform="translate(-588.152 -196.578)" fill="#fff" stroke="#000" stroke-linecap="round" stroke-linejoin="round" stroke-width="2"/><path d="M582.6,286.956v-10.7h24.219v10.7Z" transform="translate(-582.599 -218.956)" fill="#00a2be" stroke="#000" stroke-linecap="round" stroke-linejoin="round" stroke-width="2"/><line x2="19.6" transform="translate(16.978 17.353)" fill="none" stroke="#000" stroke-width="2"/><line x2="19.6" transform="translate(16.978 21.347)" fill="none" stroke="#000" stroke-width="2"/><line x2="11.485" transform="translate(16.978 25.343)" fill="none" stroke="#000" stroke-width="2"/><line y2="1.997" transform="translate(3.87 61.422)" fill="none" stroke="#000" stroke-width="2"/></g><g transform="translate(613.391 209.156)"><path d="M638.3,238.714V260.06a6.686,6.686,0,0,0,4.114,6.172H663.5V238.714Z" transform="translate(-638.296 -238.714)" fill="#fff" stroke="#000" stroke-linecap="round" stroke-linejoin="round" stroke-width="2"/><g transform="translate(6.365 20.887)"><path d="M653.923,276.494v.459a6.686,6.686,0,0,1-4.114,6.172H669.1a6.686,6.686,0,0,0,4.115-6.172v-.459Z" transform="translate(-649.809 -276.494)" fill="#fff" stroke="#000" stroke-linecap="round" stroke-linejoin="round" stroke-width="2"/></g><rect width="3.087" height="3.086" transform="translate(3.6 3.342)" fill="#00a2be"/><line x2="14.144" transform="translate(7.972 4.886)" fill="#fff" stroke="#000" stroke-linejoin="round" stroke-width="2"/><rect width="3.087" height="3.085" transform="translate(3.6 8.487)" fill="#00a2be"/><line x2="14.144" transform="translate(7.972 10.03)" fill="#fff" stroke="#000" stroke-linejoin="round" stroke-width="2"/><rect width="3.087" height="3.086" transform="translate(3.6 13.631)" fill="#00a2be"/><line x2="14.144" transform="translate(7.972 15.174)" fill="#fff" stroke="#000" stroke-linejoin="round" stroke-width="2"/></g></g></g></svg>