<svg xmlns="http://www.w3.org/2000/svg" xmlns:xlink="http://www.w3.org/1999/xlink" width="80" height="80" viewBox="0 0 80 80"><defs><clipPath id="a"><rect width="80" height="80" transform="translate(433 2107)" fill="#fff" stroke="#707070" stroke-width="1"/></clipPath></defs><g transform="translate(-433 -2107)" clip-path="url(#a)"><g transform="translate(432 2107)"><path d="M0,0H80.4V80.4H0Z" fill="none"/><rect width="80.398" height="80.398" fill="none"/><g transform="translate(-3007.659 -1371)"><path d="M0-1H44a1,1,0,0,1,1,1V58a1,1,0,0,1-1,1H0a1,1,0,0,1-1-1V0A1,1,0,0,1,0-1ZM43,1H1V57H43Z" transform="translate(3025.659 1381)"/><rect width="18.825" height="6.644" transform="translate(3038.261 1378)" fill="#00a2be"/><path d="M0-1H18.825a1,1,0,0,1,1,1V6.644a1,1,0,0,1-1,1H0a1,1,0,0,1-1-1V0A1,1,0,0,1,0-1ZM17.825,1H1V5.644H17.825Z" transform="translate(3038.261 1378)"/><g transform="translate(3033.832 1393.503)"><circle cx="3.322" cy="3.322" r="3.322" fill="#9be0e8"/><path d="M3.322-1A4.322,4.322,0,1,1-1,3.322,4.327,4.327,0,0,1,3.322-1Zm0,6.644A2.322,2.322,0,1,0,1,3.322,2.325,2.325,0,0,0,3.322,5.644Z"/><path d="M15.511,1H0V-1H15.511Z" transform="translate(12.181 1.107)"/><path d="M15.511,1H0V-1H15.511Z" transform="translate(12.181 5.537)"/></g><g transform="translate(3033.832 1407.898)"><circle cx="3.322" cy="3.322" r="3.322" fill="#9be0e8"/><path d="M3.322-1A4.322,4.322,0,1,1-1,3.322,4.327,4.327,0,0,1,3.322-1Zm0,6.644A2.322,2.322,0,1,0,1,3.322,2.325,2.325,0,0,0,3.322,5.644Z"/><path d="M15.511,1H0V-1H15.511Z" transform="translate(12.181 1.107)"/><path d="M15.511,1H0V-1H15.511Z" transform="translate(12.181 5.537)"/></g><g transform="translate(3033.832 1422.293)"><circle cx="3.322" cy="3.322" r="3.322" fill="#9be0e8"/><path d="M3.322-1A4.322,4.322,0,1,1-1,3.322,4.327,4.327,0,0,1,3.322-1Zm0,6.644A2.322,2.322,0,1,0,1,3.322,2.325,2.325,0,0,0,3.322,5.644Z"/><path d="M15.511,1H0V-1H15.511Z" transform="translate(12.181 1.107)"/><path d="M15.511,1H0V-1H15.511Z" transform="translate(12.181 5.537)"/></g></g></g></g></svg>