<svg xmlns="http://www.w3.org/2000/svg" width="76" height="76" viewBox="0 0 76 76"><g transform="translate(-377 -1637)"><circle cx="38" cy="38" r="38" transform="translate(377 1637)" fill="#00a2be"/><path d="M-16959.812-14975.618h-38.937l-1.7,2.159v28.357l-2.719.817-.818,1.96v3.138l2.619.961h45.926l1.5-2.242v-3.816l-4.184-1.468v-28.285Z" transform="translate(17394 16632)" fill="#fff"/><path d="M368.494,188.219a.5.5,0,0,1-.5-.5V159.177a1.543,1.543,0,0,0-1.542-1.541H328.536a1.543,1.543,0,0,0-1.542,1.541v28.542a.5.5,0,0,1-1,0V159.177a2.545,2.545,0,0,1,2.542-2.541h37.916a2.545,2.545,0,0,1,2.542,2.541v28.542A.5.5,0,0,1,368.494,188.219Z" transform="translate(67.506 1499.322)" fill="#212121" stroke="#212121" stroke-width="1"/><path d="M347.494,180.083a9.771,9.771,0,1,1,3.353-18.952.5.5,0,0,1-.344.94,8.772,8.772,0,1,0,5.762,8.241.5.5,0,0,1,1,0A9.782,9.782,0,0,1,347.494,180.083Z" transform="translate(67.506 1499.322)" fill="#212121" stroke="#212121" stroke-width="1"/><path d="M355.511,166.153a.5.5,0,0,1-.433-.249,8.771,8.771,0,0,0-2.062-2.407.5.5,0,0,1,.63-.777,9.782,9.782,0,0,1,2.3,2.681.5.5,0,0,1-.432.752Z" transform="translate(67.506 1499.322)" fill="#212121" stroke="#212121" stroke-width="1"/><path d="M354.077,184.386H326.494a.5.5,0,0,1,0-1h27.583a.5.5,0,0,1,0,1Z" transform="translate(67.506 1499.322)" fill="#212121" stroke="#212121" stroke-width="1"/><path d="M364.494,184.386h-4.833a.5.5,0,0,1,0-1h4.833a.5.5,0,0,1,0,1Z" transform="translate(67.506 1499.322)" fill="#212121" stroke="#212121" stroke-width="1"/><path d="M-16981.912-14966.524v8.585l8.332-4.564Z" transform="translate(17394 16632)" fill="#00a2be"/><path d="M345.215,175.466a1.284,1.284,0,0,1-1.279-1.281v-7.747a1.278,1.278,0,0,1,1.917-1.107l6.71,3.874a1.278,1.278,0,0,1,0,2.214l-6.71,3.873A1.269,1.269,0,0,1,345.215,175.466Zm0-9.307a.3.3,0,0,0-.141.038.273.273,0,0,0-.139.241v7.747a.275.275,0,0,0,.14.242.268.268,0,0,0,.277,0l6.71-3.873a.278.278,0,0,0,0-.482h0l-6.71-3.874A.269.269,0,0,0,345.216,166.159Z" transform="translate(67.506 1499.322)" fill="#212121" stroke="#212121" stroke-width="1"/><path d="M-16955.676-14944.967h-17.965l-2.641,2.669-6.016-.5-2.525-2.174h-18.3l-1.166,2.174,1.166,3.511,5.023,1.07h42.428l1.828-2.569V-14944Z" transform="translate(17394 16632)" fill="#9be0e8"/><path d="M370.452,194.719H324.536a2.545,2.545,0,0,1-2.542-2.542v-2.416a2.545,2.545,0,0,1,2.542-2.542h17.39a2.32,2.32,0,0,1,2.027,1.191l.289.517a1.326,1.326,0,0,0,1.155.678h4.194a1.323,1.323,0,0,0,1.154-.677l.289-.519a2.326,2.326,0,0,1,2.028-1.19h17.39a2.545,2.545,0,0,1,2.542,2.542v2.416A2.545,2.545,0,0,1,370.452,194.719Zm-45.916-6.5a1.543,1.543,0,0,0-1.542,1.542v2.416a1.543,1.543,0,0,0,1.542,1.542h45.916a1.543,1.543,0,0,0,1.542-1.542v-2.416a1.543,1.543,0,0,0-1.542-1.542h-17.39a1.326,1.326,0,0,0-1.155.678l-.289.518a2.321,2.321,0,0,1-2.027,1.19H345.4a2.326,2.326,0,0,1-2.028-1.19l-.289-.519a1.323,1.323,0,0,0-1.154-.677Z" transform="translate(67.506 1499.322)" fill="#212121" stroke="#212121" stroke-width="1"/></g></svg>