<svg xmlns="http://www.w3.org/2000/svg" xmlns:xlink="http://www.w3.org/1999/xlink" width="80" height="80" viewBox="0 0 80 80"><defs><clipPath id="a"><rect width="80" height="80" transform="translate(549 1878)" fill="#fff" stroke="#707070" stroke-width="1"/></clipPath></defs><g transform="translate(-549 -1878)" clip-path="url(#a)"><g transform="translate(166.428 237.373)"><path d="M-16946.754-14975.617h-50.447l-2.2,2.8v36.737l-3.52,1.059-1.061,2.54v4.065l3.393,1.244h59.5l1.943-2.9v-4.945l-5.42-1.9v-36.645Z" transform="translate(17394.148 16632.125)" fill="#fff"/><path d="M381.054,197.553a.648.648,0,0,1-.648-.648V159.928a2,2,0,0,0-2-2H329.287a2,2,0,0,0-2,2v36.977a.648.648,0,0,1-1.3,0V159.928a3.3,3.3,0,0,1,3.293-3.292h49.122a3.3,3.3,0,0,1,3.293,3.292v36.977A.648.648,0,0,1,381.054,197.553Z" transform="translate(68.688 1499.322)" fill="#212121" stroke="#212121" stroke-width="1"/><path d="M362.377,184.682H326.642a.648.648,0,0,1,0-1.3h35.735a.648.648,0,1,1,0,1.3Z" transform="translate(68.688 1507.228)" fill="#212121" stroke="#212121" stroke-width="1"/><path d="M366.07,184.682h-6.261a.648.648,0,0,1,0-1.3h6.261a.648.648,0,0,1,0,1.3Z" transform="translate(78.49 1507.228)" fill="#212121" stroke="#212121" stroke-width="1"/><path d="M-16941.309-14944.965h-23.271l-3.422,3.456-7.795-.642-3.273-2.814h-23.711l-1.512,2.814,1.512,4.55,6.508,1.387h54.965l2.367-3.33v-4.176Z" transform="translate(17394.061 16641.182)" fill="#9be0e8"/><path d="M384.773,196.936H325.287a3.3,3.3,0,0,1-3.293-3.293v-3.13a3.3,3.3,0,0,1,3.293-3.293h22.529a3.005,3.005,0,0,1,2.626,1.543l.374.67a1.718,1.718,0,0,0,1.5.878h5.434a1.714,1.714,0,0,0,1.495-.877l.374-.672a3.013,3.013,0,0,1,2.627-1.542h22.529a3.3,3.3,0,0,1,3.293,3.293v3.13A3.3,3.3,0,0,1,384.773,196.936Zm-59.486-8.421a2,2,0,0,0-2,2v3.13a2,2,0,0,0,2,2h59.486a2,2,0,0,0,2-2v-3.13a2,2,0,0,0-2-2H362.244a1.718,1.718,0,0,0-1.5.878l-.374.671a3.007,3.007,0,0,1-2.626,1.542h-5.434a3.013,3.013,0,0,1-2.627-1.542l-.374-.672a1.714,1.714,0,0,0-1.5-.877Z" transform="translate(67.506 1508.361)" fill="#212121" stroke="#212121" stroke-width="1"/><rect width="5.062" height="10.883" transform="translate(407.771 1676.059)" fill="#00a2be" stroke="#000" stroke-linecap="round" stroke-linejoin="round" stroke-width="2"/><rect width="5.062" height="20.657" transform="translate(415.867 1666.286)" fill="#00a2be" stroke="#000" stroke-linecap="round" stroke-linejoin="round" stroke-width="2"/><rect width="5.062" height="9.137" transform="translate(423.962 1677.805)" fill="#00a2be" stroke="#000" stroke-linecap="round" stroke-linejoin="round" stroke-width="2"/><rect width="5.062" height="23.217" transform="translate(432.057 1663.726)" fill="#00a2be" stroke="#000" stroke-linecap="round" stroke-linejoin="round" stroke-width="2"/><line x2="35.08" transform="translate(404.905 1686.942)" fill="#2b2e5e" stroke="#000" stroke-linecap="round" stroke-linejoin="round" stroke-width="2"/></g></g></svg>