<svg xmlns="http://www.w3.org/2000/svg" width="76" height="76" viewBox="0 0 76 76"><g transform="translate(-939 -1637)"><circle cx="38" cy="38" r="38" transform="translate(939 1637)" fill="#00a2be"/><g transform="translate(720.199 1422.805)"><path d="M276.736,255.164a20.805,20.805,0,1,1-20.8-20.805A20.805,20.805,0,0,1,276.736,255.164Z" fill="#fff" stroke="#212121" stroke-linejoin="round" stroke-width="2"/><path d="M268.594,255.164A12.663,12.663,0,1,1,255.932,242.5,12.662,12.662,0,0,1,268.594,255.164Z" fill="none" stroke="#212121" stroke-linejoin="round" stroke-width="2"/><path d="M261.123,255.164a5.192,5.192,0,1,1-5.191-5.192A5.191,5.191,0,0,1,261.123,255.164Z" fill="#00a2be" stroke="#212121" stroke-linejoin="round" stroke-width="2"/><line y1="22.041" x2="22.041" transform="translate(256.121 232.736)" fill="none" stroke="#212121" stroke-linejoin="round" stroke-width="2"/><path d="M284.475,232.71h-6.285v-6.288l-6.572,6.57v6.288h6.289Z" fill="#9be0e8" stroke="#212121" stroke-linejoin="round" stroke-width="2"/></g></g></svg>