<svg xmlns="http://www.w3.org/2000/svg" width="76" height="76" viewBox="0 0 76 76"><g transform="translate(-1254 -1637)"><circle cx="38" cy="38" r="38" transform="translate(1254 1637)" fill="#00a2be"/><g transform="translate(0.459 5.836)"><path d="M-16091.746-14962.99l2.795-.84-.827,1.687,4.462,7.436-1.573,14.523h-12.118l-6.32-.682-1.28-2.187-2.772-.661v-17.087Z" transform="translate(17391.703 16628.553)" fill="#fff"/><g transform="translate(1267.296 1642.165)"><path d="M170.726,451.463a3.179,3.179,0,0,1-3,3.331h-7.454a3.179,3.179,0,0,1-3-3.331h0a3.18,3.18,0,0,1,3-3.332h7.454a3.18,3.18,0,0,1,3,3.332Z" transform="translate(-122.757 -427.425)" fill="#fff" stroke="#212121" stroke-width="2"/><path d="M171.6,462.884a3.179,3.179,0,0,1-3,3.331h-7.454a3.179,3.179,0,0,1-3-3.331h0a3.18,3.18,0,0,1,3-3.332H168.6a3.18,3.18,0,0,1,3,3.332Z" transform="translate(-123.111 -432.068)" fill="#fff" stroke="#212121" stroke-width="2"/><path d="M170.956,473.651a2.741,2.741,0,0,1-2.588,2.872h-6.426a2.741,2.741,0,0,1-2.589-2.872h0a2.742,2.742,0,0,1,2.589-2.872h6.426a2.741,2.741,0,0,1,2.588,2.872Z" transform="translate(-123.605 -436.633)" fill="#fff" stroke="#212121" stroke-width="2"/><path d="M168.514,483.717a2.742,2.742,0,0,1-2.588,2.872H159.5a2.742,2.742,0,0,1-2.588-2.872h0a2.742,2.742,0,0,1,2.588-2.872h6.426a2.742,2.742,0,0,1,2.588,2.872Z" transform="translate(-122.612 -440.725)" fill="#fff" stroke="#212121" stroke-width="2"/><path d="M117.491,434.982l3.865.828s9.456-2.485,10.491-9.111c.466-2.979-.276-13.459,1.795-13.459s5.867,4.317,6.177,15.755c0,0,.449,9.92-3.485,15.718s-8.7,5.384-8.7,5.384" transform="translate(-106.586 -413.24)" fill="#fff" stroke="#212121" stroke-width="2"/><path d="M115.048,484.767h5.108s2.554-.069,3.382,1.45,2.416,2.278,4.969,2.278h8.835" transform="translate(-105.592 -442.319)" fill="#fff" stroke="#212121" stroke-width="2"/><rect width="15.254" height="27.401" transform="translate(0 19.878)" fill="#9be0e8" stroke="#212121" stroke-linecap="round" stroke-linejoin="round" stroke-width="2"/><line y2="2.83" transform="translate(7.04 23.881)" fill="none" stroke="#212121" stroke-width="2"/></g></g></g></svg>