<svg xmlns="http://www.w3.org/2000/svg" xmlns:xlink="http://www.w3.org/1999/xlink" width="80" height="80" viewBox="0 0 80 80"><defs><clipPath id="a"><rect width="80" height="80" transform="translate(433 2107)" fill="#fff" stroke="#707070" stroke-width="1"/></clipPath><clipPath id="b"><rect width="47" height="6" transform="translate(3161 1423)" fill="none"/></clipPath></defs><g transform="translate(-433 -2107)" clip-path="url(#a)"><g transform="translate(432 2107)"><path d="M0,0H80.4V80.4H0Z" fill="none"/><rect width="80.398" height="80.398" fill="none"/><g transform="translate(-3144.3 -1368.676)"><rect width="55" height="48" transform="translate(3157 1385)" fill="none" stroke="#000" stroke-linecap="round" stroke-linejoin="round" stroke-width="2"/><rect width="55" height="7" transform="translate(3157 1384.75)" fill="#00a2be" stroke="#000" stroke-linecap="round" stroke-linejoin="round" stroke-width="2"/><line x2="1" transform="translate(3197 1388.25)" fill="#00a2be" stroke="#000" stroke-linecap="round" stroke-linejoin="round" stroke-width="2"/><line x2="1" transform="translate(3202 1388.25)" fill="#00a2be" stroke="#000" stroke-linecap="round" stroke-linejoin="round" stroke-width="2"/><line x2="1" transform="translate(3207 1388.25)" fill="#00a2be" stroke="#000" stroke-linecap="round" stroke-linejoin="round" stroke-width="2"/><circle cx="3.768" cy="3.768" r="3.768" transform="translate(3165.212 1399.133)" fill="#9be0e8" stroke="#000" stroke-miterlimit="10" stroke-width="2"/><line x2="25.97" transform="translate(3179.03 1400.389)" fill="#9be0e8" stroke="#000" stroke-miterlimit="10" stroke-width="2"/><line x2="25.97" transform="translate(3179.03 1405.414)" fill="#9be0e8" stroke="#000" stroke-miterlimit="10" stroke-width="2"/><circle cx="3.768" cy="3.768" r="3.768" transform="translate(3165.212 1412.133)" fill="#9be0e8" stroke="#000" stroke-miterlimit="10" stroke-width="2"/><line x2="25.97" transform="translate(3179.03 1413.389)" fill="#9be0e8" stroke="#000" stroke-miterlimit="10" stroke-width="2"/><line x2="25.97" transform="translate(3179.03 1418.414)" fill="#9be0e8" stroke="#000" stroke-miterlimit="10" stroke-width="2"/><g clip-path="url(#b)"><circle cx="3.768" cy="3.768" r="3.768" transform="translate(3165.212 1425.133)" fill="#9be0e8" stroke="#000" stroke-miterlimit="10" stroke-width="2"/><line x2="25.97" transform="translate(3179.03 1426.389)" fill="#9be0e8" stroke="#000" stroke-miterlimit="10" stroke-width="2"/><line x2="25.97" transform="translate(3179.03 1431.414)" fill="#9be0e8" stroke="#000" stroke-miterlimit="10" stroke-width="2"/></g></g></g></g></svg>