<svg xmlns="http://www.w3.org/2000/svg" width="109.2" height="109" viewBox="0 0 109.2 109"><g transform="translate(0)"><rect width="109" height="109" transform="translate(0.2)" fill="#fff"/><rect width="109" height="109" transform="translate(0.2)" fill="#fff"/><g transform="translate(0 12.073)"><rect width="83.95" height="109.2" rx="5.365" transform="translate(109.2 1.103) rotate(90)" fill="#00c9d8"/><rect width="48.118" height="70.985" transform="translate(6.483 7.586)" fill="#fff"/><path d="M0-.75H48.118a.75.75,0,0,1,.75.75V70.985a.75.75,0,0,1-.75.75H0a.75.75,0,0,1-.75-.75V0A.75.75,0,0,1,0-.75ZM47.368.75H.75V70.235H47.368Z" transform="translate(6.483 7.586)" fill="#0d0d0d"/><rect width="48.118" height="70.985" transform="translate(54.6 7.586)" fill="#fff"/><path d="M0-.75H48.118a.75.75,0,0,1,.75.75V70.985a.75.75,0,0,1-.75.75H0a.75.75,0,0,1-.75-.75V0A.75.75,0,0,1,0-.75ZM47.368.75H.75V70.235H47.368Z" transform="translate(54.6 7.586)" fill="#0d0d0d"/><path d="M315.482,325.428l-40.532,7.586V262.029l40.532-7.586Z" transform="translate(-220.35 -254.443)" fill="#fff"/><path d="M274.95,333.764a.75.75,0,0,1-.75-.75V262.029a.75.75,0,0,1,.612-.737l40.532-7.586a.75.75,0,0,1,.888.737v70.985a.75.75,0,0,1-.612.737l-40.532,7.586A.751.751,0,0,1,274.95,333.764Zm.75-71.112v69.459l39.032-7.3V255.347Z" transform="translate(-220.35 -254.443)" fill="#0d0d0d"/><g transform="translate(14.406 17.672)"><path d="M13.287.75H0A.75.75,0,0,1-.75,0,.75.75,0,0,1,0-.75H13.287a.75.75,0,0,1,.75.75A.75.75,0,0,1,13.287.75Z" transform="translate(0.129)" fill="#0d0d0d"/><path d="M4.67.75H0A.75.75,0,0,1-.75,0,.75.75,0,0,1,0-.75H4.67A.75.75,0,0,1,5.42,0,.75.75,0,0,1,4.67.75Z" transform="translate(0.129 17.19)" fill="#0d0d0d"/><path d="M3.734.75H0A.75.75,0,0,1-.75,0,.75.75,0,0,1,0-.75H3.734a.75.75,0,0,1,.75.75A.75.75,0,0,1,3.734.75Z" transform="translate(18.418)" fill="#0d0d0d"/><path d="M7.126.75H0A.75.75,0,0,1-.75,0,.75.75,0,0,1,0-.75H7.126a.75.75,0,0,1,.75.75A.75.75,0,0,1,7.126.75Z" transform="translate(26.693)" fill="#0d0d0d"/><path d="M23.429.75H0A.75.75,0,0,1-.75,0,.75.75,0,0,1,0-.75H23.429a.75.75,0,0,1,.75.75A.75.75,0,0,1,23.429.75Z" transform="translate(0.129 8.595)" fill="#00c9d8"/><path d="M5.034.75H0A.75.75,0,0,1-.75,0,.75.75,0,0,1,0-.75H5.034a.75.75,0,0,1,.75.75A.75.75,0,0,1,5.034.75Z" transform="translate(28.786 8.595)" fill="#0d0d0d"/><path d="M23,.75H0A.75.75,0,0,1-.75,0,.75.75,0,0,1,0-.75H23a.75.75,0,0,1,.75.75A.75.75,0,0,1,23,.75Z" transform="translate(10.822 17.19)" fill="#0d0d0d"/><path d="M9.6.75H0A.75.75,0,0,1-.75,0,.75.75,0,0,1,0-.75H9.6a.75.75,0,0,1,.75.75A.75.75,0,0,1,9.6.75Z" transform="translate(24.221 34.379)" fill="#00c9d8"/><path d="M24.985.75H0A.75.75,0,0,1-.75,0,.75.75,0,0,1,0-.75H24.985a.75.75,0,0,1,.75.75A.75.75,0,0,1,24.985.75Z" transform="translate(8.834 51.569)" fill="#0d0d0d"/><path d="M11.843.75H0A.75.75,0,0,1-.75,0,.75.75,0,0,1,0-.75H11.843a.75.75,0,0,1,.75.75A.75.75,0,0,1,11.843.75Z" transform="translate(0 34.379)" fill="#0d0d0d"/><path d="M33.691.75H0A.75.75,0,0,1-.75,0,.75.75,0,0,1,0-.75H33.691a.75.75,0,0,1,.75.75A.75.75,0,0,1,33.691.75Z" transform="translate(0.129 25.784)" fill="#0d0d0d"/><path d="M33.691.75H0A.75.75,0,0,1-.75,0,.75.75,0,0,1,0-.75H33.691a.75.75,0,0,1,.75.75A.75.75,0,0,1,33.691.75Z" transform="translate(0.129 42.974)" fill="#00c9d8"/><path d="M1.444.75H0A.75.75,0,0,1-.75,0,.75.75,0,0,1,0-.75H1.444a.75.75,0,0,1,.75.75A.75.75,0,0,1,1.444.75Z" transform="translate(16.974 34.379)" fill="#00c9d8"/><path d="M3.46.75H0A.75.75,0,0,1-.75,0,.75.75,0,0,1,0-.75H3.46A.75.75,0,0,1,4.21,0,.75.75,0,0,1,3.46.75Z" transform="translate(0 51.569)" fill="#0d0d0d"/></g></g></g></svg>