<svg xmlns="http://www.w3.org/2000/svg" width="109" height="109" viewBox="0 0 109 109"><g transform="translate(-0.2 0.199)"><rect width="109" height="109" transform="translate(0.2 -0.199)" fill="#fff"/><rect width="109" height="109" transform="translate(0.2 -0.199)" fill="#fff"/><g transform="translate(2.161 10.92)"><path d="M0,0H6.043a0,0,0,0,1,0,0V18.193a2.231,2.231,0,0,1-2.231,2.231H2.231A2.231,2.231,0,0,1,0,18.193V0A0,0,0,0,1,0,0Z" transform="matrix(0.853, 0.521, -0.521, 0.853, 22.147, 70.937)" fill="#fff"/><path d="M0-.75H6.043a.75.75,0,0,1,.75.75V18.193a2.984,2.984,0,0,1-2.981,2.981H2.231A2.984,2.984,0,0,1-.75,18.193V0A.75.75,0,0,1,0-.75ZM5.293.75H.75V18.193a1.482,1.482,0,0,0,1.481,1.481H3.812a1.482,1.482,0,0,0,1.481-1.481Z" transform="matrix(0.853, 0.521, -0.521, 0.853, 22.147, 70.937)" fill="#0d0d0d"/><path d="M2.231,0H3.812A2.231,2.231,0,0,1,6.043,2.231V20.423a0,0,0,0,1,0,0H0a0,0,0,0,1,0,0V2.231A2.231,2.231,0,0,1,2.231,0Z" transform="matrix(-0.853, 0.521, -0.521, -0.853, 74.19, 88.367)" fill="#fff"/><path d="M2.231-.75H3.812A2.984,2.984,0,0,1,6.793,2.231V20.423a.75.75,0,0,1-.75.75H0a.75.75,0,0,1-.75-.75V2.231A2.984,2.984,0,0,1,2.231-.75ZM5.293,19.673V2.231A1.482,1.482,0,0,0,3.812.75H2.231A1.482,1.482,0,0,0,.75,2.231V19.673Z" transform="matrix(-0.853, 0.521, -0.521, -0.853, 74.19, 88.367)" fill="#0d0d0d"/><path d="M438.8,341.176a42.846,42.846,0,1,1,42.847-42.847A42.894,42.894,0,0,1,438.8,341.176Z" transform="translate(-395.952 -255.483)" fill="#00c9d8"/><path d="M435.607,325.794a30.655,30.655,0,1,1,30.656-30.656A30.69,30.69,0,0,1,435.607,325.794Z" transform="translate(-392.761 -252.292)" fill="#fff"/><path d="M432.416,310.412a18.464,18.464,0,1,1,18.465-18.465A18.486,18.486,0,0,1,432.416,310.412Z" transform="translate(-389.57 -249.101)" fill="#00c9d8"/><circle cx="6.274" cy="6.274" r="6.274" transform="translate(36.572 36.572)" fill="#fff"/><path d="M6.274-.75A7.024,7.024,0,1,1-.75,6.274,7.032,7.032,0,0,1,6.274-.75Zm0,12.547A5.524,5.524,0,1,0,.75,6.274,5.53,5.53,0,0,0,6.274,11.8Z" transform="translate(36.572 36.572)" fill="#0d0d0d"/><path d="M49.628.75H0A.75.75,0,0,1-.75,0,.75.75,0,0,1,0-.75H49.628a.75.75,0,0,1,.75.75A.75.75,0,0,1,49.628.75Z" transform="translate(42.846 42.846)" fill="#0d0d0d"/><path d="M477.472,282.806H467.046l-5.213,5.835h10.426Z" transform="translate(-372.594 -245.796)" fill="#fff"/><path d="M467.046,282.056h10.426a.75.75,0,0,1,.559,1.25l-5.213,5.835a.75.75,0,0,1-.559.25H461.833a.75.75,0,0,1-.559-1.25l5.213-5.835A.75.75,0,0,1,467.046,282.056Zm8.75,1.5h-8.415l-3.873,4.335h8.415Z" transform="translate(-372.594 -245.796)" fill="#0d0d0d"/><path d="M477.472,292.949H467.046l-5.213-5.835h10.426Z" transform="translate(-372.594 -244.268)" fill="#fff"/><path d="M477.472,293.7H467.046a.75.75,0,0,1-.559-.25l-5.213-5.835a.75.75,0,0,1,.559-1.25h10.426a.75.75,0,0,1,.559.25l5.213,5.835a.75.75,0,0,1-.559,1.25Zm-10.09-1.5H475.8l-3.873-4.335h-8.415Z" transform="translate(-372.594 -244.268)" fill="#0d0d0d"/></g></g></svg>