<svg xmlns="http://www.w3.org/2000/svg" xmlns:xlink="http://www.w3.org/1999/xlink" width="335" height="199" viewBox="0 0 335 199">
  <defs>
    <clipPath id="clip-path">
      <rect id="사각형_348112" data-name="사각형 348112" width="335" height="199" rx="5" transform="translate(-12909 -24251)" fill="#003daa"/>
    </clipPath>
    <linearGradient id="linear-gradient" x1="0.555" y1="0.688" x2="0.091" y2="0.102" gradientUnits="objectBoundingBox">
      <stop offset="0" stop-color="#003daa"/>
      <stop offset="1" stop-color="#022a71"/>
    </linearGradient>
    <linearGradient id="linear-gradient-2" y1="0.5" x2="1" y2="0.5" gradientUnits="objectBoundingBox">
      <stop offset="0" stop-color="#009ead"/>
      <stop offset="1" stop-color="#003daa"/>
    </linearGradient>
    <linearGradient id="linear-gradient-3" x1="0.795" y1="0.11" x2="0.255" y2="1.2" gradientUnits="objectBoundingBox">
      <stop offset="0" stop-color="#0085ce"/>
      <stop offset="1" stop-color="#003daa"/>
    </linearGradient>
    <linearGradient id="linear-gradient-4" x1="0.766" y1="-0.016" x2="0.322" y2="0.845" xlink:href="#linear-gradient-3"/>
    <linearGradient id="linear-gradient-5" x1="0.766" y1="-0.016" x2="0.322" y2="0.845" gradientUnits="objectBoundingBox">
      <stop offset="0" stop-color="#009ead"/>
      <stop offset="0.483" stop-color="#0090a9"/>
      <stop offset="1" stop-color="#1b4692"/>
    </linearGradient>
    <linearGradient id="linear-gradient-6" x1="-0.155" y1="0.885" x2="0.565" y2="0.239" xlink:href="#linear-gradient-3"/>
    <linearGradient id="linear-gradient-7" x1="0.926" y1="0.075" x2="0.074" y2="0.927" gradientUnits="objectBoundingBox">
      <stop offset="0" stop-color="#b4bbe1" stop-opacity="0.102"/>
      <stop offset="0.627" stop-color="#b4bbe1" stop-opacity="0.239"/>
      <stop offset="1" stop-color="#b4bbe1" stop-opacity="0.302"/>
    </linearGradient>
    <linearGradient id="linear-gradient-9" x1="0.794" y1="0.214" x2="0.206" y2="0.786" xlink:href="#linear-gradient-7"/>
    <linearGradient id="linear-gradient-10" x1="0.5" x2="0.5" y2="1" gradientUnits="objectBoundingBox">
      <stop offset="0" stop-color="#e8fdff"/>
      <stop offset="1" stop-color="#9be0e8"/>
    </linearGradient>
    <linearGradient id="linear-gradient-11" x1="0.5" y1="1" x2="0.5" y2="0" xlink:href="#linear-gradient-7"/>
    <linearGradient id="linear-gradient-12" x1="0" y1="0.5" x2="1" y2="0.5" xlink:href="#linear-gradient-7"/>
    <linearGradient id="linear-gradient-13" x1="0.5" x2="0.5" y2="1" gradientUnits="objectBoundingBox">
      <stop offset="0" stop-color="#007cc7"/>
      <stop offset="1" stop-color="#0085ce"/>
    </linearGradient>
    <linearGradient id="linear-gradient-14" x1="0.5" x2="0.5" y2="1" gradientUnits="objectBoundingBox">
      <stop offset="0" stop-color="#efefef"/>
      <stop offset="1" stop-color="#fff"/>
    </linearGradient>
  </defs>
  <g id="마스크_그룹_2652" data-name="마스크 그룹 2652" transform="translate(12909 24251)" clip-path="url(#clip-path)">
    <rect id="사각형_348110" data-name="사각형 348110" width="500" height="199" transform="translate(-13074 -24251)" fill="url(#linear-gradient)"/>
    <path id="패스_855701" data-name="패스 855701" d="M3124.247,781.057a.172.172,0,0,1-.034.137" transform="translate(-15729.784 -25001.359)" fill="none"/>
    <ellipse id="타원_457" data-name="타원 457" cx="15.006" cy="15.006" rx="15.006" ry="15.006" transform="translate(-12958.675 -24205.338)" fill="#0085ce" opacity="0.099"/>
    <g id="그룹_461047" data-name="그룹 461047" transform="translate(-12559.468 -24264.543)" opacity="0.1">
      <path id="패스_855702" data-name="패스 855702" d="M3281.436-18.306a49.335,49.335,0,0,1-19.324-3.9,49.475,49.475,0,0,1-15.78-10.639,49.472,49.472,0,0,1-10.639-15.78,49.331,49.331,0,0,1-3.9-19.324,49.33,49.33,0,0,1,3.9-19.324,49.471,49.471,0,0,1,10.639-15.78,49.475,49.475,0,0,1,15.78-10.639,49.336,49.336,0,0,1,19.324-3.9,49.334,49.334,0,0,1,19.324,3.9,49.478,49.478,0,0,1,15.781,10.639,49.487,49.487,0,0,1,10.639,15.78,49.334,49.334,0,0,1,3.9,19.324,49.335,49.335,0,0,1-3.9,19.324,49.488,49.488,0,0,1-10.639,15.78,49.479,49.479,0,0,1-15.781,10.639A49.334,49.334,0,0,1,3281.436-18.306Zm0-98.77a49.18,49.18,0,0,0-49.125,49.124,49.18,49.18,0,0,0,49.125,49.125,49.18,49.18,0,0,0,49.124-49.125A49.18,49.18,0,0,0,3281.436-117.076Z" transform="translate(-3231.79 117.597)" fill="#1b4692"/>
    </g>
    <g id="그룹_461048" data-name="그룹 461048" transform="translate(-12673.965 -24074.158)" opacity="0.3">
      <path id="패스_855703" data-name="패스 855703" d="M418.56,2050.43a30.492,30.492,0,1,1,21.561-8.931A30.293,30.293,0,0,1,418.56,2050.43Zm0-60.392a29.9,29.9,0,1,0,29.9,29.9A29.934,29.934,0,0,0,418.56,1990.037Z" transform="translate(-388.068 -1989.445)" fill="#009ead"/>
    </g>
    <circle id="타원_458" data-name="타원 458" cx="56.141" cy="56.141" r="56.141" transform="translate(-12480.705 -24079.955) rotate(-132)" opacity="0.3" fill="url(#linear-gradient-2)"/>
    <path id="패스_855704" data-name="패스 855704" d="M1079.061,2222.356a59.839,59.839,0,0,1-84.5,4.561l79.942-89.063A59.839,59.839,0,0,1,1079.061,2222.356Z" transform="translate(-13835.313 -26240.734)" opacity="0.2" fill="url(#linear-gradient-3)"/>
    <path id="패스_855705" data-name="패스 855705" d="M-136.068,1242.446a56.717,56.717,0,0,0-56.717,56.717,56.717,56.717,0,0,0,56.717,56.717,56.717,56.717,0,0,0,56.717-56.717A56.717,56.717,0,0,0-136.068,1242.446Zm0,82.357a25.64,25.64,0,0,1-25.64-25.64,25.64,25.64,0,0,1,25.64-25.64,25.64,25.64,0,0,1,25.64,25.64A25.64,25.64,0,0,1-136.068,1324.8Z" transform="translate(-12807.471 -25386.377)" opacity="0.2" fill="url(#linear-gradient-4)"/>
    <path id="패스_855706" data-name="패스 855706" d="M16.193,0A16.193,16.193,0,1,0,32.386,16.193,16.193,16.193,0,0,0,16.193,0Zm0,23.513a7.32,7.32,0,1,1,7.32-7.32A7.32,7.32,0,0,1,16.193,23.513Z" transform="matrix(0.391, -0.921, 0.921, 0.391, -12572.458, -24092.234)" opacity="0.247" fill="url(#linear-gradient-5)"/>
    <g id="그룹_461050" data-name="그룹 461050" transform="translate(-12870.781 -24043.666)" opacity="0.5">
      <g id="그룹_461049" data-name="그룹 461049">
        <path id="패스_855707" data-name="패스 855707" d="M1255.282,2679.8a.638.638,0,1,1-.9,0A.638.638,0,0,1,1255.282,2679.8Z" transform="translate(-1251.455 -2668.422)" fill="#fcfdfc"/>
        <path id="패스_855708" data-name="패스 855708" d="M1227.569,2651.889a.638.638,0,1,1-.9,0A.638.638,0,0,1,1227.569,2651.889Z" transform="translate(-1226.479 -2643.263)" fill="#fcfdfc"/>
        <path id="패스_855709" data-name="패스 855709" d="M1283,2707.724a.638.638,0,1,1-.9,0A.637.637,0,0,1,1283,2707.724Z" transform="translate(-1276.433 -2693.585)" fill="#fcfdfc"/>
        <path id="패스_855710" data-name="패스 855710" d="M1283.983,2651.316a.638.638,0,1,1-.9,0A.638.638,0,0,1,1283.983,2651.316Z" transform="translate(-1277.323 -2642.746)" fill="#fcfdfc"/>
        <path id="패스_855711" data-name="패스 855711" d="M1311.7,2679.233a.638.638,0,1,1-.9,0A.637.637,0,0,1,1311.7,2679.233Z" transform="translate(-1302.299 -2667.907)" fill="#fcfdfc"/>
        <path id="패스_855712" data-name="패스 855712" d="M1312.687,2622.823a.638.638,0,1,1-.9,0A.638.638,0,0,1,1312.687,2622.823Z" transform="translate(-1303.193 -2617.066)" fill="#fcfdfc"/>
        <path id="패스_855713" data-name="패스 855713" d="M1340.4,2650.741a.638.638,0,1,1-.9,0A.638.638,0,0,1,1340.4,2650.741Z" transform="translate(-1328.169 -2642.227)" fill="#fcfdfc"/>
        <path id="패스_855714" data-name="패스 855714" d="M1256.27,2623.4a.638.638,0,1,1-.9,0A.637.637,0,0,1,1256.27,2623.4Z" transform="translate(-1252.346 -2617.584)" fill="#fcfdfc"/>
        <path id="패스_855715" data-name="패스 855715" d="M1284.971,2594.906a.638.638,0,1,1-.9,0A.637.637,0,0,1,1284.971,2594.906Z" transform="translate(-1278.213 -2591.905)" fill="#fcfdfc"/>
        <path id="패스_855716" data-name="패스 855716" d="M1341.386,2594.334a.638.638,0,1,1-.9,0A.638.638,0,0,1,1341.386,2594.334Z" transform="translate(-1329.058 -2591.389)" fill="#fcfdfc"/>
        <path id="패스_855717" data-name="패스 855717" d="M1369.1,2622.251a.638.638,0,1,1-.9,0A.638.638,0,0,1,1369.1,2622.251Z" transform="translate(-1354.037 -2616.55)" fill="#fcfdfc"/>
        <path id="패스_855718" data-name="패스 855718" d="M1309.28,2734.2a.638.638,0,1,1-.9,0A.637.637,0,0,1,1309.28,2734.2Z" transform="translate(-1300.123 -2717.448)" fill="#fcfdfc"/>
        <path id="패스_855719" data-name="패스 855719" d="M1337.981,2705.71a.638.638,0,1,1-.9,0A.637.637,0,0,1,1337.981,2705.71Z" transform="translate(-1325.99 -2691.77)" fill="#fcfdfc"/>
        <path id="패스_855720" data-name="패스 855720" d="M1366.681,2677.219a.638.638,0,1,1-.9,0A.637.637,0,0,1,1366.681,2677.219Z" transform="translate(-1351.857 -2666.091)" fill="#fcfdfc"/>
        <path id="패스_855721" data-name="패스 855721" d="M1395.38,2648.729a.638.638,0,1,1-.9,0A.638.638,0,0,1,1395.38,2648.729Z" transform="translate(-1377.722 -2640.415)" fill="#fcfdfc"/>
        <path id="패스_855722" data-name="패스 855722" d="M1313.673,2566.417a.638.638,0,1,1-.9,0A.637.637,0,0,1,1313.673,2566.417Z" transform="translate(-1304.082 -2566.228)" fill="#fcfdfc"/>
      </g>
    </g>
    <g id="그룹_461052" data-name="그룹 461052" transform="translate(-12846.269 -24085.893)" opacity="0.4">
      <g id="그룹_461051" data-name="그룹 461051" transform="translate(0 0)">
        <path id="패스_855723" data-name="패스 855723" d="M1546.544,1522.975a.8.8,0,1,1-.8.8A.8.8,0,0,1,1546.544,1522.975Z" transform="translate(-1540.885 -1507.975)" fill="#fcfdfc"/>
        <path id="패스_855724" data-name="패스 855724" d="M1497.337,1522.8a.8.8,0,1,1-.8.794A.8.8,0,0,1,1497.337,1522.8Z" transform="translate(-1496.536 -1507.819)" fill="#fcfdfc"/>
        <path id="패스_855725" data-name="패스 855725" d="M1595.75,1523.161a.8.8,0,1,1-.8.795A.8.8,0,0,1,1595.75,1523.161Z" transform="translate(-1585.234 -1508.143)" fill="#fcfdfc"/>
        <path id="패스_855726" data-name="패스 855726" d="M1546.727,1472.4a.8.8,0,1,1-.8.795A.8.8,0,0,1,1546.727,1472.4Z" transform="translate(-1541.049 -1462.391)" fill="#fcfdfc"/>
        <path id="패스_855727" data-name="패스 855727" d="M1595.934,1472.576a.8.8,0,1,1-.8.8A.8.8,0,0,1,1595.934,1472.576Z" transform="translate(-1585.4 -1462.552)" fill="#fcfdfc"/>
        <path id="패스_855728" data-name="패스 855728" d="M1546.917,1421.8a.8.8,0,1,1-.8.795A.8.8,0,0,1,1546.917,1421.8Z" transform="translate(-1541.221 -1416.791)" fill="#fcfdfc"/>
        <path id="패스_855729" data-name="패스 855729" d="M1596.117,1421.989a.8.8,0,1,1-.8.8A.8.8,0,0,1,1596.117,1421.989Z" transform="translate(-1585.564 -1416.959)" fill="#fcfdfc"/>
        <path id="패스_855730" data-name="패스 855730" d="M1497.525,1472.217a.8.8,0,1,1-.8.794A.8.8,0,0,1,1497.525,1472.217Z" transform="translate(-1496.706 -1462.228)" fill="#fcfdfc"/>
        <path id="패스_855731" data-name="패스 855731" d="M1497.714,1421.625a.8.8,0,1,1-.8.8A.8.8,0,0,1,1497.714,1421.625Z" transform="translate(-1496.876 -1416.631)" fill="#fcfdfc"/>
        <path id="패스_855732" data-name="패스 855732" d="M1547.1,1371.223a.8.8,0,1,1-.8.795A.8.8,0,0,1,1547.1,1371.223Z" transform="translate(-1541.388 -1371.205)" fill="#fcfdfc"/>
        <path id="패스_855733" data-name="패스 855733" d="M1596.309,1371.4a.8.8,0,1,1-.8.8A.8.8,0,0,1,1596.309,1371.4Z" transform="translate(-1585.738 -1371.366)" fill="#fcfdfc"/>
        <path id="패스_855734" data-name="패스 855734" d="M1642.418,1523.332a.8.8,0,1,1-.8.795A.8.8,0,0,1,1642.418,1523.332Z" transform="translate(-1627.295 -1508.297)" fill="#fcfdfc"/>
        <path id="패스_855735" data-name="패스 855735" d="M1642.606,1472.75a.8.8,0,1,1-.8.794A.8.8,0,0,1,1642.606,1472.75Z" transform="translate(-1627.463 -1462.709)" fill="#fcfdfc"/>
        <path id="패스_855736" data-name="패스 855736" d="M1642.793,1422.158a.8.8,0,1,1-.8.8A.8.8,0,0,1,1642.793,1422.158Z" transform="translate(-1627.633 -1417.111)" fill="#fcfdfc"/>
        <path id="패스_855737" data-name="패스 855737" d="M1642.977,1371.572a.8.8,0,1,1-.8.8A.8.8,0,0,1,1642.977,1371.572Z" transform="translate(-1627.798 -1371.52)" fill="#fcfdfc"/>
        <path id="패스_855738" data-name="패스 855738" d="M1497.9,1371.041a.8.8,0,1,1-.8.795A.8.8,0,0,1,1497.9,1371.041Z" transform="translate(-1497.042 -1371.041)" fill="#fcfdfc"/>
      </g>
    </g>
    <g id="그룹_461054" data-name="그룹 461054" transform="translate(-12525.796 -24211.797)" opacity="0.4">
      <g id="그룹_461053" data-name="그룹 461053" transform="translate(0 0)">
        <path id="패스_855739" data-name="패스 855739" d="M1546.544,1522.975a.8.8,0,1,1-.8.8A.8.8,0,0,1,1546.544,1522.975Z" transform="translate(-1540.885 -1507.975)" fill="#fcfdfc"/>
        <path id="패스_855740" data-name="패스 855740" d="M1497.337,1522.8a.8.8,0,1,1-.8.794A.8.8,0,0,1,1497.337,1522.8Z" transform="translate(-1496.536 -1507.819)" fill="#fcfdfc"/>
        <path id="패스_855741" data-name="패스 855741" d="M1595.75,1523.161a.8.8,0,1,1-.8.795A.8.8,0,0,1,1595.75,1523.161Z" transform="translate(-1585.234 -1508.143)" fill="#fcfdfc"/>
        <path id="패스_855742" data-name="패스 855742" d="M1546.727,1472.4a.8.8,0,1,1-.8.795A.8.8,0,0,1,1546.727,1472.4Z" transform="translate(-1541.049 -1462.391)" fill="#fcfdfc"/>
        <path id="패스_855743" data-name="패스 855743" d="M1595.934,1472.576a.8.8,0,1,1-.8.8A.8.8,0,0,1,1595.934,1472.576Z" transform="translate(-1585.4 -1462.552)" fill="#fcfdfc"/>
        <path id="패스_855744" data-name="패스 855744" d="M1546.917,1421.8a.8.8,0,1,1-.8.795A.8.8,0,0,1,1546.917,1421.8Z" transform="translate(-1541.221 -1416.791)" fill="#fcfdfc"/>
        <path id="패스_855745" data-name="패스 855745" d="M1596.117,1421.989a.8.8,0,1,1-.8.8A.8.8,0,0,1,1596.117,1421.989Z" transform="translate(-1585.564 -1416.959)" fill="#fcfdfc"/>
        <path id="패스_855746" data-name="패스 855746" d="M1497.525,1472.217a.8.8,0,1,1-.8.794A.8.8,0,0,1,1497.525,1472.217Z" transform="translate(-1496.706 -1462.228)" fill="#fcfdfc"/>
        <path id="패스_855747" data-name="패스 855747" d="M1497.714,1421.625a.8.8,0,1,1-.8.8A.8.8,0,0,1,1497.714,1421.625Z" transform="translate(-1496.876 -1416.631)" fill="#fcfdfc"/>
        <path id="패스_855748" data-name="패스 855748" d="M1547.1,1371.223a.8.8,0,1,1-.8.795A.8.8,0,0,1,1547.1,1371.223Z" transform="translate(-1541.388 -1371.205)" fill="#fcfdfc"/>
        <path id="패스_855749" data-name="패스 855749" d="M1596.309,1371.4a.8.8,0,1,1-.8.8A.8.8,0,0,1,1596.309,1371.4Z" transform="translate(-1585.738 -1371.366)" fill="#fcfdfc"/>
        <path id="패스_855750" data-name="패스 855750" d="M1642.418,1523.332a.8.8,0,1,1-.8.795A.8.8,0,0,1,1642.418,1523.332Z" transform="translate(-1627.295 -1508.297)" fill="#fcfdfc"/>
        <path id="패스_855751" data-name="패스 855751" d="M1642.606,1472.75a.8.8,0,1,1-.8.794A.8.8,0,0,1,1642.606,1472.75Z" transform="translate(-1627.463 -1462.709)" fill="#fcfdfc"/>
        <path id="패스_855752" data-name="패스 855752" d="M1642.793,1422.158a.8.8,0,1,1-.8.8A.8.8,0,0,1,1642.793,1422.158Z" transform="translate(-1627.633 -1417.111)" fill="#fcfdfc"/>
        <path id="패스_855753" data-name="패스 855753" d="M1642.977,1371.572a.8.8,0,1,1-.8.8A.8.8,0,0,1,1642.977,1371.572Z" transform="translate(-1627.798 -1371.52)" fill="#fcfdfc"/>
        <path id="패스_855754" data-name="패스 855754" d="M1497.9,1371.041a.8.8,0,1,1-.8.795A.8.8,0,0,1,1497.9,1371.041Z" transform="translate(-1497.042 -1371.041)" fill="#fcfdfc"/>
      </g>
    </g>
    <g id="그룹_461056" data-name="그룹 461056" transform="translate(-12740.087 -24226.391) rotate(45)" opacity="0.4">
      <g id="그룹_461055" data-name="그룹 461055" transform="translate(0 0)">
        <path id="패스_855755" data-name="패스 855755" d="M.426,0A.424.424,0,1,1,0,.423.424.424,0,0,1,.426,0Z" transform="translate(2.583 7.977)" fill="#fcfdfc"/>
        <path id="패스_855756" data-name="패스 855756" d="M.426,0A.424.424,0,1,1,0,.422.424.424,0,0,1,.426,0Z" transform="translate(0 7.967)" fill="#fcfdfc"/>
        <path id="패스_855757" data-name="패스 855757" d="M.426,0A.424.424,0,1,1,0,.423.424.424,0,0,1,.426,0Z" transform="translate(5.167 7.986)" fill="#fcfdfc"/>
        <path id="패스_855758" data-name="패스 855758" d="M.426,0A.424.424,0,1,1,0,.423.424.424,0,0,1,.426,0Z" transform="translate(2.593 5.321)" fill="#fcfdfc"/>
        <path id="패스_855759" data-name="패스 855759" d="M.426,0A.424.424,0,1,1,0,.423.424.424,0,0,1,.426,0Z" transform="translate(5.176 5.331)" fill="#fcfdfc"/>
        <path id="패스_855760" data-name="패스 855760" d="M.426,0A.424.424,0,1,1,0,.423.424.424,0,0,1,.426,0Z" transform="translate(2.603 2.665)" fill="#fcfdfc"/>
        <path id="패스_855761" data-name="패스 855761" d="M.426,0A.424.424,0,1,1,0,.423.424.424,0,0,1,.426,0Z" transform="translate(5.186 2.675)" fill="#fcfdfc"/>
        <path id="패스_855762" data-name="패스 855762" d="M.426,0A.424.424,0,1,1,0,.422.424.424,0,0,1,.426,0Z" transform="translate(0.01 5.312)" fill="#fcfdfc"/>
        <path id="패스_855763" data-name="패스 855763" d="M.426,0A.424.424,0,1,1,0,.423.424.424,0,0,1,.426,0Z" transform="translate(0.02 2.656)" fill="#fcfdfc"/>
        <path id="패스_855764" data-name="패스 855764" d="M.426,0A.424.424,0,1,1,0,.423.424.424,0,0,1,.426,0Z" transform="translate(2.613 0.01)" fill="#fcfdfc"/>
        <path id="패스_855765" data-name="패스 855765" d="M.426,0A.424.424,0,1,1,0,.423.425.425,0,0,1,.426,0Z" transform="translate(5.196 0.019)" fill="#fcfdfc"/>
        <path id="패스_855766" data-name="패스 855766" d="M.426,0A.424.424,0,1,1,0,.423.424.424,0,0,1,.426,0Z" transform="translate(7.617 7.995)" fill="#fcfdfc"/>
        <path id="패스_855767" data-name="패스 855767" d="M.426,0A.424.424,0,1,1,0,.422.424.424,0,0,1,.426,0Z" transform="translate(7.627 5.34)" fill="#fcfdfc"/>
        <path id="패스_855768" data-name="패스 855768" d="M.426,0A.424.424,0,1,1,0,.423.424.424,0,0,1,.426,0Z" transform="translate(7.637 2.684)" fill="#fcfdfc"/>
        <path id="패스_855769" data-name="패스 855769" d="M.426,0A.424.424,0,1,1,0,.423.424.424,0,0,1,.426,0Z" transform="translate(7.646 0.028)" fill="#fcfdfc"/>
        <path id="패스_855770" data-name="패스 855770" d="M.426,0A.424.424,0,1,1,0,.423.424.424,0,0,1,.426,0Z" transform="translate(0.03 0)" fill="#fcfdfc"/>
      </g>
    </g>
    <g id="그룹_461057" data-name="그룹 461057" transform="translate(-12555.051 -24148.143) rotate(-51)">
      <path id="패스_855771" data-name="패스 855771" d="M5.5.876,10.24,9.087H.759L5.5.876M5.5,0,5.12.657.379,8.868,0,9.525H11l-.379-.657L5.879.657,5.5,0Z" fill="#fff"/>
    </g>
    <g id="그룹_461058" data-name="그룹 461058" transform="translate(-12794.186 -24221.188)" opacity="0.4">
      <path id="패스_855772" data-name="패스 855772" d="M1897.839,257.46l2.876,4.982h-5.753l2.876-4.982m0-.531-.23.4-2.876,4.982-.23.4h6.673l-.23-.4-2.876-4.982-.23-.4Z" transform="translate(-1894.502 -256.929)" fill="#d9ebff"/>
    </g>
    <g id="그룹_461059" data-name="그룹 461059" transform="translate(-12795.577 -24213.527)" opacity="0.4">
      <path id="패스_855773" data-name="패스 855773" d="M1885.142,335.265l4.076,7.059h-8.151l4.075-7.059m0-.753-.326.565-4.075,7.059-.326.565h9.455l-.326-.565-4.076-7.059-.326-.565Z" transform="translate(-1880.414 -334.512)" fill="#d9ebff"/>
    </g>
    <g id="그룹_461060" data-name="그룹 461060" transform="translate(-12772.143 -24076.4)">
      <path id="패스_855774" data-name="패스 855774" d="M826.942,1800.673l4.275,7.4h-8.55l4.275-7.4m0-.79-.342.592-4.275,7.4-.342.592H831.9l-.342-.592-4.275-7.4-.342-.592Z" transform="translate(-821.983 -1799.883)" fill="#fff"/>
    </g>
    <path id="패스_855775" data-name="패스 855775" d="M1470.774-424.408a59.839,59.839,0,0,0,2.392,84.592l82.2-86.984A59.839,59.839,0,0,0,1470.774-424.408Z" transform="translate(-14307.364 -23856.391)" opacity="0.327" fill="url(#linear-gradient-6)"/>
    <rect id="사각형_348111" data-name="사각형 348111" width="315.817" height="221.072" transform="translate(-12927.632 -24293.746)" fill="none"/>
    <g id="그룹_461115" data-name="그룹 461115" transform="translate(-12748.738 -24252.078)">
      <g id="그룹_461062" data-name="그룹 461062" transform="translate(117.799 0)" opacity="0.19" style="mix-blend-mode: multiply;isolation: isolate">
        <g id="그룹_461061" data-name="그룹 461061">
          <path id="패스_855776" data-name="패스 855776" d="M526.47,148.66a1.022,1.022,0,0,1-.337-.124l-20.078-11.552a1.564,1.564,0,0,1-.8-1.317V117.686a.756.756,0,0,1,.409-.7.919.919,0,0,1,.863.059l20.047,11.535a1.564,1.564,0,0,1,.8,1.318v18.014a.736.736,0,0,1-.4.679A.81.81,0,0,1,526.47,148.66Z" transform="translate(-505.258 -116.907)" fill="#00a2be"/>
        </g>
      </g>
      <g id="그룹_461064" data-name="그룹 461064" transform="translate(131.633 22.94)" opacity="0.35" style="mix-blend-mode: multiply;isolation: isolate">
        <g id="그룹_461063" data-name="그룹 461063">
          <path id="패스_855777" data-name="패스 855777" d="M541.159,173.973a.748.748,0,0,1-.242-.089l-14.466-8.323a1.126,1.126,0,0,1-.574-.949V151.657a.545.545,0,0,1,.294-.5.661.661,0,0,1,.622.042l14.444,8.311a1.126,1.126,0,0,1,.575.949v12.979a.531.531,0,0,1-.286.489A.584.584,0,0,1,541.159,173.973Z" transform="translate(-525.876 -151.096)" fill="#00a2be"/>
        </g>
      </g>
      <g id="그룹_461065" data-name="그룹 461065" transform="translate(68.656 19.592)" opacity="0.19" style="mix-blend-mode: multiply;isolation: isolate">
        <path id="패스_855778" data-name="패스 855778" d="M442.5,161.8a.5.5,0,0,1-.166-.062l-9.921-5.708a.772.772,0,0,1-.394-.651v-8.885a.373.373,0,0,1,.2-.344.453.453,0,0,1,.427.029l9.906,5.7a.772.772,0,0,1,.394.651v8.9a.364.364,0,0,1-.2.335A.4.4,0,0,1,442.5,161.8Z" transform="translate(-432.017 -146.107)" fill="#00a2be"/>
      </g>
      <g id="그룹_461072" data-name="그룹 461072" transform="translate(156.921 52.676)">
        <g id="그룹_461067" data-name="그룹 461067" transform="translate(0 0)" opacity="0.25" style="mix-blend-mode: multiply;isolation: isolate">
          <g id="그룹_461066" data-name="그룹 461066">
            <path id="패스_855779" data-name="패스 855779" d="M586.3,229.456a1.124,1.124,0,0,1-.361-.133l-21.525-12.385a1.677,1.677,0,0,1-.855-1.412V196.25A.81.81,0,0,1,564,195.5a.982.982,0,0,1,.925.063l21.492,12.366a1.675,1.675,0,0,1,.855,1.412v19.312a.791.791,0,0,1-.426.728A.872.872,0,0,1,586.3,229.456Z" transform="translate(-563.564 -195.415)" fill="#00a2be"/>
          </g>
        </g>
        <g id="그룹_461071" data-name="그룹 461071" transform="translate(5.624 8.389)">
          <g id="그룹_461068" data-name="그룹 461068">
            <path id="패스_855780" data-name="패스 855780" d="M578.268,224.383c-1.771-.064-4.155-2.52-5.333-5.468-1.353-3.385-1.315-7.047.1-9.218,1.39-2.134,3.831-2.383,6.054-.563-.052.191-.1.378-.153.566-.511,1.885-1.038,3.755-1.518,5.665a4.539,4.539,0,0,0-.076,1.541c.26,2.258.566,4.524.855,6.787C578.223,223.925,578.243,224.155,578.268,224.383Z" transform="translate(-571.945 -207.917)" fill="#fff"/>
          </g>
          <g id="그룹_461069" data-name="그룹 461069" transform="translate(6.106 9.316)">
            <path id="패스_855781" data-name="패스 855781" d="M581.98,229.131c-.317-2.483-.621-4.865-.935-7.329l4.7,4.2C585,228.079,583.756,229.085,581.98,229.131Z" transform="translate(-581.045 -221.802)" fill="#fff"/>
          </g>
          <g id="그룹_461070" data-name="그룹 461070" transform="translate(6.114 1.844)">
            <path id="패스_855782" data-name="패스 855782" d="M582.769,210.666c2.5,2.26,4.029,7.349,3.222,10.729l-4.934-4.4Q581.916,213.818,582.769,210.666Z" transform="translate(-581.057 -210.666)" fill="#fff"/>
          </g>
        </g>
      </g>
      <g id="그룹_461073" data-name="그룹 461073" transform="translate(32.708 41.838)">
        <path id="패스_855783" data-name="패스 855783" d="M380.52,230.459l6.838,3.939,16.286-9.375-6.786-3.962Z" transform="translate(-380.52 -192.577)" fill="url(#linear-gradient-7)"/>
        <path id="패스_855784" data-name="패스 855784" d="M398.9,168.229l-15.216,8.764,5.162,2.971,10.911-8.888v-2.352A.571.571,0,0,0,398.9,168.229Z" transform="translate(-382.008 -167.694)" fill="#2875df"/>
        <path id="패스_855785" data-name="패스 855785" d="M383.68,178.644l15.131-8.716,5.447,3.143-15.127,8.713Z" transform="translate(-382.006 -168.529)" fill="#fff"/>
        <path id="패스_855786" data-name="패스 855786" d="M403.185,170.885a.622.622,0,0,0-.659-.063l-15.168,8.735-5.162-2.971,15.216-8.764a.56.56,0,0,1,.494-.032v0s-.53-.261-.739-.384a.618.618,0,0,0-.638-.046l-16.009,9.221v26.9l6-3.454v6.919l16.37-9.43a.988.988,0,0,0,.495-.856l.511-25.372S403.417,171.031,403.185,170.885Z" transform="translate(-380.52 -167.287)" fill="#003daa"/>
        <path id="패스_855787" data-name="패스 855787" d="M387.358,188.779l-6.838-3.939v26.9l6.838,3.939Z" transform="translate(-380.52 -175.542)" fill="#0085ce"/>
        <path id="패스_855788" data-name="패스 855788" d="M386.994,192.323l-5.272-3.037v2.057l5.272,3.037Z" transform="translate(-381.085 -177.633)" fill="#023daa"/>
        <path id="패스_855789" data-name="패스 855789" d="M386.994,197.45l-5.272-3.037v.712l5.272,3.037Z" transform="translate(-381.085 -180.045)" fill="#023daa"/>
        <path id="패스_855790" data-name="패스 855790" d="M386.994,199.952l-5.272-3.037v.712l5.272,3.037Z" transform="translate(-381.085 -181.221)" fill="#023daa"/>
        <path id="패스_855791" data-name="패스 855791" d="M386.994,233.755l-5.272-3.037v.712l5.272,3.037Z" transform="translate(-381.085 -197.119)" fill="#023daa"/>
        <path id="패스_855792" data-name="패스 855792" d="M409.439,174.8l-16.009,9.221v26.9l16.37-9.43a.989.989,0,0,0,.5-.857V175.294A.571.571,0,0,0,409.439,174.8Z" transform="translate(-386.592 -170.784)" fill="#003daa"/>
      </g>
      <g id="그룹_461074" data-name="그룹 461074" transform="translate(44.953 43.814)">
        <path id="패스_855793" data-name="패스 855793" d="M403.637,236.262l6.838,3.939,16.286-9.375-6.786-3.962Z" transform="translate(-403.637 -197.283)" fill="url(#linear-gradient-7)"/>
        <path id="패스_855794" data-name="패스 855794" d="M422.018,171.959,406.8,180.724l5.161,2.97,10.911-8.888v-2.351A.571.571,0,0,0,422.018,171.959Z" transform="translate(-405.125 -171.424)" fill="#0085ce"/>
        <path id="패스_855795" data-name="패스 855795" d="M406.8,182.374l15.131-8.716,5.447,3.143-15.127,8.713Z" transform="translate(-405.123 -172.26)" fill="#fff"/>
        <path id="패스_855796" data-name="패스 855796" d="M426.3,174.615a.622.622,0,0,0-.659-.063l-15.168,8.735-5.161-2.97,15.216-8.764a.557.557,0,0,1,.494-.032v0s-.53-.26-.739-.384a.618.618,0,0,0-.638-.046l-16.009,9.221v26.9l6-3.455v6.919L426,201.242a.989.989,0,0,0,.495-.857l.511-25.372S426.534,174.761,426.3,174.615Z" transform="translate(-403.637 -171.018)" fill="#9be0e8"/>
        <path id="패스_855797" data-name="패스 855797" d="M410.475,192.51l-6.838-3.939v26.9l6.838,3.939Z" transform="translate(-403.637 -179.273)" fill="#fff"/>
        <path id="패스_855798" data-name="패스 855798" d="M410.111,196.054l-5.272-3.037v2.057l5.272,3.037Z" transform="translate(-404.202 -181.364)" fill="#9be0e8"/>
        <path id="패스_855799" data-name="패스 855799" d="M410.111,201.181l-5.272-3.037v.712l5.272,3.037Z" transform="translate(-404.202 -183.775)" fill="#9be0e8"/>
        <path id="패스_855800" data-name="패스 855800" d="M410.111,203.682l-5.272-3.037v.712l5.272,3.037Z" transform="translate(-404.202 -184.952)" fill="#9be0e8"/>
        <path id="패스_855801" data-name="패스 855801" d="M410.111,237.485l-5.272-3.037v.712l5.272,3.037Z" transform="translate(-404.202 -200.85)" fill="#9be0e8"/>
        <path id="패스_855802" data-name="패스 855802" d="M432.556,178.53l-16.009,9.221v26.9l16.37-9.43a.988.988,0,0,0,.495-.856V179.025A.571.571,0,0,0,432.556,178.53Z" transform="translate(-409.708 -174.514)" fill="#0085ce"/>
      </g>
      <g id="그룹_461075" data-name="그룹 461075" transform="translate(0 75.075)">
        <path id="패스_855803" data-name="패스 855803" d="M355.539,262.994l18.717,10.952,3.942-2.483-18.717-10.952Z" transform="translate(-355.539 -242.752)" fill="url(#linear-gradient-9)"/>
        <path id="패스_855804" data-name="패스 855804" d="M387.375,250.366v15.589l-3.942,2.476V252.849Z" transform="translate(-364.717 -239.414)" fill="#003daa"/>
        <path id="패스_855805" data-name="패스 855805" d="M355.539,236.527l18.717,10.952L378.2,245l-18.717-10.952Z" transform="translate(-355.539 -234.044)" fill="#fff"/>
        <path id="패스_855806" data-name="패스 855806" d="M374.26,264.279l-18.717-10.952V237.744L374.26,248.7Z" transform="translate(-355.541 -235.261)" fill="#0085ce"/>
        <path id="패스_855807" data-name="패스 855807" d="M355.539,237.745l9.358,13.267,9.358-2.315Z" transform="translate(-355.539 -235.261)" fill="#fff"/>
        <path id="패스_855808" data-name="패스 855808" d="M374.374,240.053v3.068a.534.534,0,0,1-.511.525.49.49,0,0,1-.511-.5V240.08a.82.82,0,0,0-.4-.706l-4.685-2.742a.323.323,0,0,0-.341,0,.252.252,0,0,0-.068.049.084.084,0,0,1-.02.015.348.348,0,0,0-.082.233v2.319a.533.533,0,0,1-.321.479.468.468,0,0,1-.191.046.5.5,0,0,1-.511-.5v-2.319a1.37,1.37,0,0,1,.7-1.2,1.1,1.1,0,0,1,.334-.139,1.292,1.292,0,0,1,1.037.13l4.685,2.741A1.807,1.807,0,0,1,374.374,240.053Z" transform="translate(-359.221 -234.543)" fill="#0c85ce"/>
        <path id="패스_855809" data-name="패스 855809" d="M370.894,256.655v1.592l-.353.222v-1.591Z" transform="translate(-360.475 -241.483)" fill="#023daa"/>
        <path id="패스_855810" data-name="패스 855810" d="M367.694,255.213l1.91,1.117.353-.222-1.91-1.116Z" transform="translate(-359.538 -240.936)" fill="#0c85ce"/>
        <path id="패스_855811" data-name="패스 855811" d="M369.6,258.03l-1.91-1.118v-1.59l1.91,1.117Z" transform="translate(-359.538 -241.045)" fill="#fff"/>
        <path id="패스_855812" data-name="패스 855812" d="M374.879,240.053v3.068a.522.522,0,0,1-.334.486v-3.076c0-1.119-.376-1.395-.376-1.395l-5.9-3.521a1.292,1.292,0,0,1,1.037.13l4.685,2.741A1.807,1.807,0,0,1,374.879,240.053Z" transform="translate(-359.726 -234.543)" fill="#023daa"/>
        <path id="패스_855813" data-name="패스 855813" d="M368.18,237.257a.348.348,0,0,0-.082.233v2.319a.533.533,0,0,1-.321.479v-2.36A.815.815,0,0,1,368.18,237.257Z" transform="translate(-359.566 -235.101)" fill="#023daa"/>
      </g>
      <g id="그룹_461079" data-name="그룹 461079" transform="translate(35.071 27.758)">
        <path id="패스_855814" data-name="패스 855814" d="M432.822,258.49l72.834,42.051-50.892,28.9a3.8,3.8,0,0,1-3.772-.013l-68.077-39.3a1.9,1.9,0,0,1,.012-3.3Z" transform="translate(-381.963 -191.25)" fill="#003daa" opacity="0.6"/>
        <path id="패스_855815" data-name="패스 855815" d="M532.68,201.486v54.437l-1.708.948-71.125-43-.94-54.492s1.169-.638,1.6-.888a1.427,1.427,0,0,1,1.455-.028L530.782,198.2A3.8,3.8,0,0,1,532.68,201.486Z" transform="translate(-407.279 -158.278)" fill="#9be0e8"/>
        <path id="패스_855816" data-name="패스 855816" d="M530.595,202.9v54.436l-72.834-42.05v-54.19a1.407,1.407,0,0,1,2.111-1.219L528.7,199.611A3.794,3.794,0,0,1,530.595,202.9Z" transform="translate(-406.902 -158.74)" fill="#fff"/>
        <path id="패스_855817" data-name="패스 855817" d="M528.089,203.79V253.52l-67.184-38.7V165.092Z" transform="translate(-407.937 -160.52)" fill="#212121"/>
        <path id="패스_855818" data-name="패스 855818" d="M527.307,208v5.228l-38.049-21.917v-5.228Z" transform="translate(-417.265 -167.426)" fill="#9be0e8"/>
        <path id="패스_855819" data-name="패스 855819" d="M490.821,191.421V189.1l35.952,20.709v2.319Z" transform="translate(-417.78 -168.42)" fill="#00a2be"/>
        <g id="그룹_461077" data-name="그룹 461077" transform="translate(97.616 48.94)">
          <path id="패스_855820" data-name="패스 855820" d="M528.01,248.2l13.091,7.595a.771.771,0,0,0,1.237-.617V239.884a1.117,1.117,0,0,0-.563-.934l-13.091-7.595a.772.772,0,0,0-1.238.617v15.293A1.117,1.117,0,0,0,528.01,248.2Z" transform="translate(-527.446 -231.216)" fill="#0085ce" opacity="0.45"/>
          <g id="그룹_461076" data-name="그룹 461076" transform="translate(0.991 3.003)" opacity="0.102">
            <line id="선_600" data-name="선 600" x1="12.911" y1="7.463" fill="none" stroke="#fff" stroke-linecap="round" stroke-miterlimit="10" stroke-width="0.846"/>
            <line id="선_601" data-name="선 601" x1="12.911" y1="7.463" transform="translate(0 1.612)" fill="none" stroke="#fff" stroke-linecap="round" stroke-miterlimit="10" stroke-width="0.846"/>
            <line id="선_602" data-name="선 602" x1="12.911" y1="7.463" transform="translate(0 3.225)" fill="none" stroke="#fff" stroke-linecap="round" stroke-miterlimit="10" stroke-width="0.846"/>
            <line id="선_603" data-name="선 603" x1="12.911" y1="7.463" transform="translate(0 4.837)" fill="none" stroke="#fff" stroke-linecap="round" stroke-miterlimit="10" stroke-width="0.846"/>
            <line id="선_604" data-name="선 604" x1="12.911" y1="7.463" transform="translate(0 6.449)" fill="none" stroke="#fff" stroke-linecap="round" stroke-miterlimit="10" stroke-width="0.846"/>
            <line id="선_605" data-name="선 605" x1="12.911" y1="7.463" transform="translate(0 8.062)" fill="none" stroke="#fff" stroke-linecap="round" stroke-miterlimit="10" stroke-width="0.846"/>
            <line id="선_606" data-name="선 606" x1="12.911" y1="7.463" transform="translate(0 9.674)" fill="none" stroke="#fff" stroke-linecap="round" stroke-miterlimit="10" stroke-width="0.846"/>
            <line id="선_607" data-name="선 607" x1="9.604" y1="5.551" transform="translate(3.308 13.198)" fill="none" stroke="#fff" stroke-linecap="round" stroke-miterlimit="10" stroke-width="0.846"/>
          </g>
        </g>
        <path id="패스_855821" data-name="패스 855821" d="M432.821,245.658l72.834,39.963v2.087l-50.892,28.9a3.793,3.793,0,0,1-3.772-.013l-68.077-39.3a1.883,1.883,0,0,1-.95-1.636c0-.648,0-2.1,0-2.1Z" transform="translate(-381.963 -187.028)" fill="#11a2be"/>
        <path id="패스_855822" data-name="패스 855822" d="M432.822,242.548l72.834,42.05-50.892,28.9a3.8,3.8,0,0,1-3.772-.013l-68.077-39.3a1.9,1.9,0,0,1,.012-3.3Z" transform="translate(-381.963 -186.005)" fill="url(#linear-gradient-10)"/>
        <path id="패스_855823" data-name="패스 855823" d="M483.856,278.263l-2.5-1.444,3.009-1.708,2.5,1.444Zm12.106,8.385-52.475-30.3-3.009,1.708,52.475,30.3ZM483.635,274.69l-2.5-1.444-3.009,1.708,2.5,1.444Zm-3.229-1.865-2.5-1.445L474.9,273.09l2.5,1.444Zm-29.068-16.782-3.629-2.1-3.009,1.709,3.629,2.095Zm41.987,24.241-2.5-1.444-3.009,1.709,2.5,1.444Zm3.229,1.865-2.5-1.444-3.009,1.709,2.5,1.444Zm-6.459-3.729-2.5-1.444-3.009,1.708,2.5,1.445Zm-32.3-18.647-2.5-1.444-3.009,1.708,2.5,1.445Zm3.229,1.865-2.5-1.444-3.009,1.708,2.5,1.445Zm16.149,9.323-2.5-1.444-3.009,1.709,2.5,1.444Zm-25.109-14.5-3.009,1.708,2.5,1.444,3.009-1.708Zm12.19,7.038-2.5-1.444-3.009,1.709,2.5,1.444Zm3.229,1.865-2.5-1.444-3.009,1.709,2.5,1.444Zm6.459,3.729-2.5-1.444-3.009,1.709,2.5,1.444Zm-3.229-1.865-2.5-1.444-3.009,1.709,2.5,1.444Zm29.474,17.017-2.907-1.678-3.009,1.709,2.907,1.678ZM479.006,296.3l-2.944,1.671,4.889,2.822,3.009-1.708-5.018-2.9Zm-.687-1.868,6.853,3.957,3.009-1.709-6.853-3.957Zm-49.374-27.11-2.342-1.353-3.009,1.709,2.343,1.353ZM480.58,290.9l8.813,5.089,3.009-1.709-8.814-5.089Zm-2.237,4.946-2.834-1.635-3.009,1.708,2.833,1.636Zm22.576-11.174-3.009,1.709,4.148,2.395,3.009-1.709Zm-7.237,4.11,4.155,2.4,3.009-1.709-4.154-2.4Zm-6.6,1.033,6.529,3.77,3.009-1.708-6.529-3.77ZM435.85,274.756l3.009-1.708-9.186-5.3-3.009,1.709Zm6.532.325-2.794-1.613-3.009,1.708,2.795,1.614Zm46.984,12.6-50.1-28.926-3.009,1.709,50.1,28.925ZM480.6,292.3l-49.776-28.738-3.009,1.708,49.776,28.738Zm2.261-3.536-47.816-27.607-3.009,1.709,47.816,27.606Zm-11.683,2.938-21.02-12.136-3.009,1.709,21.02,12.136ZM445.9,277.115,443.11,275.5l-3.009,1.709,2.794,1.613Zm28.876,16.672-2.875-1.661-3.009,1.709,2.876,1.66Zm-25.353-14.638-2.795-1.614-3.009,1.709,2.8,1.614Z" transform="translate(-395.66 -189.756)" fill="#00a2be"/>
        <g id="그룹_461078" data-name="그룹 461078" transform="translate(28.561 88.49)">
          <path id="패스_855824" data-name="패스 855824" d="M434.639,290.33l15.57,8.989a.422.422,0,0,1,0,.733l-8.632,4.9a1.272,1.272,0,0,1-1.264,0l-15.57-8.989a.422.422,0,0,1,0-.733l8.632-4.9A1.272,1.272,0,0,1,434.639,290.33Z" transform="translate(-424.53 -290.16)" fill="#f7f5fa"/>
          <path id="패스_855825" data-name="패스 855825" d="M450.211,299.62l-15.57-8.989a1.272,1.272,0,0,0-1.264,0l-8.632,4.9a.41.41,0,0,0-.183.216.419.419,0,0,1,.183-.517l8.632-4.9a1.272,1.272,0,0,1,1.264,0l15.57,8.989a.418.418,0,0,1,.18.516A.411.411,0,0,0,450.211,299.62Z" transform="translate(-424.531 -290.16)" fill="#b4bbe1"/>
        </g>
        <line id="선_608" data-name="선 608" x2="4.461" y2="2.576" transform="translate(86.56 21.98)" fill="none" stroke="#9be0e8" stroke-linecap="round" stroke-miterlimit="10" stroke-width="1"/>
        <path id="패스_855826" data-name="패스 855826" d="M520.337,196.117c.1.234,0,.425-.236.425a.746.746,0,0,1-.614-.425c-.1-.235,0-.425.235-.425A.745.745,0,0,1,520.337,196.117Z" transform="translate(-427.198 -170.588)" fill="#9be0e8"/>
      </g>
      <g id="그룹_461082" data-name="그룹 461082" transform="translate(65.482 49.738)">
        <path id="패스_855827" data-name="패스 855827" d="M506.1,212.853l12.3,5.329v47.67l-38.972,22.969-10.911-13.25Z" transform="translate(-440.853 -198.214)" fill="url(#linear-gradient-11)" style="mix-blend-mode: multiply;isolation: isolate"/>
        <path id="패스_855828" data-name="패스 855828" d="M499.147,289.22l13.623,7.987.021-.174a3.008,3.008,0,0,1-1.248-2.478v-1.991c0-1.422-.684-3.835-1.684-4.53a4,4,0,0,0-.544-.318l-.015-.007a4.1,4.1,0,0,0-4.054.293C504.364,288.573,499.869,288.484,499.147,289.22Z" transform="translate(-450.93 -222.711)" fill="#212121"/>
        <path id="패스_855829" data-name="패스 855829" d="M504.837,210.8l-34.283-19.768-6.565,3.759h0a4.031,4.031,0,0,0-2.105,3.537v39.928a7.11,7.11,0,0,1-.878,3.407l-8.9-5.172a3.531,3.531,0,0,0-.588-.338l-.015-.011a4.065,4.065,0,0,0-1.866-.382,4.2,4.2,0,0,0-2.154.693,14.143,14.143,0,0,0-6.472,11.788v.107a13.523,13.523,0,0,1-5.7,10.954l-8.03,5.723L461.4,284.869l8.03-5.723a13.35,13.35,0,0,0,5.705-10.954v-.1a13.917,13.917,0,0,1,1.592-6.438A14.3,14.3,0,0,1,481.6,256.3a4.1,4.1,0,0,1,4.054-.293l.015.007a2.591,2.591,0,0,1,.566.378,5.621,5.621,0,0,1,1.663,4.469v1.991a3.074,3.074,0,0,0,4.846,2.507h0c2.787-1.739,3.251-4.865,3.251-7.253V218.173a4.032,4.032,0,0,1,2.273-3.621v.01Z" transform="translate(-427.286 -191.035)" fill="#fff"/>
        <path id="패스_855830" data-name="패스 855830" d="M504.837,210.8l-34.283-19.768-6.565,3.759h0a4.031,4.031,0,0,0-2.105,3.537v39.928a7.11,7.11,0,0,1-.878,3.407l-8.9-5.172a3.531,3.531,0,0,0-.588-.338l-.015-.011a4.065,4.065,0,0,0-1.866-.382,4.2,4.2,0,0,0-2.154.693,14.143,14.143,0,0,0-6.472,11.788v.107a13.523,13.523,0,0,1-5.7,10.954l-8.03,5.723L461.4,284.869l8.03-5.723a13.35,13.35,0,0,0,5.705-10.954v-.1a13.917,13.917,0,0,1,1.592-6.438A14.3,14.3,0,0,1,481.6,256.3a4.1,4.1,0,0,1,4.054-.293l.015.007a2.591,2.591,0,0,1,.566.378,5.621,5.621,0,0,1,1.663,4.469v1.991a3.074,3.074,0,0,0,4.846,2.507h0c2.787-1.739,3.251-4.865,3.251-7.253V218.173a4.032,4.032,0,0,1,2.273-3.621v.01Z" transform="translate(-427.286 -191.035)" fill="rgba(255,255,255,0.1)" opacity="0.35"/>
        <path id="패스_855831" data-name="패스 855831" d="M480.5,277.056l-1.563-.907A3.062,3.062,0,0,0,480.5,277.056Z" transform="translate(-444.28 -219.04)" fill="#fff"/>
        <path id="패스_855832" data-name="패스 855832" d="M427.286,301.308v.334L461.4,321.464v-.314Z" transform="translate(-427.286 -227.318)" fill="#c5c8e8"/>
        <path id="패스_855833" data-name="패스 855833" d="M516.695,283.817h0Z" transform="translate(-456.704 -221.563)" fill="#ebf6f7"/>
        <g id="그룹_461080" data-name="그룹 461080" transform="translate(11.598 15.792)">
          <path id="패스_855834" data-name="패스 855834" d="M511.58,240.144l10.638,6.172a.242.242,0,0,0,.358-.212v-12.8a.628.628,0,0,0-.311-.546l-10.76-6.241a.194.194,0,0,0-.287.17v12.82A.729.729,0,0,0,511.58,240.144Z" transform="translate(-466.5 -218.495)" fill="#0085ce"/>
          <path id="패스_855835" data-name="패스 855835" d="M480.2,218.671l19.9,11.56a.108.108,0,0,0,.16-.1v-.713a.184.184,0,0,0-.091-.16L480.263,217.7a.111.111,0,0,0-.165.1v.691A.214.214,0,0,0,480.2,218.671Z" transform="translate(-456.261 -215.595)" fill="#9be0e8"/>
          <path id="패스_855836" data-name="패스 855836" d="M480.2,215.56l19.9,11.56a.108.108,0,0,0,.16-.1v-.713a.185.185,0,0,0-.091-.16l-19.906-11.565a.111.111,0,0,0-.165.1v.691A.214.214,0,0,0,480.2,215.56Z" transform="translate(-456.261 -214.571)" fill="#9be0e8"/>
          <path id="패스_855837" data-name="패스 855837" d="M480.2,221.782l19.9,11.559a.108.108,0,0,0,.16-.095v-.714a.184.184,0,0,0-.091-.16l-19.906-11.566a.112.112,0,0,0-.165.1v.691A.214.214,0,0,0,480.2,221.782Z" transform="translate(-456.261 -216.618)" fill="#9be0e8"/>
          <path id="패스_855838" data-name="패스 855838" d="M480.2,224.893l19.9,11.559a.108.108,0,0,0,.16-.095v-.714a.184.184,0,0,0-.091-.16l-19.906-11.566a.112.112,0,0,0-.165.1v.691A.214.214,0,0,0,480.2,224.893Z" transform="translate(-456.261 -217.642)" fill="#9be0e8"/>
          <path id="패스_855839" data-name="패스 855839" d="M480.2,228l19.9,11.56a.108.108,0,0,0,.16-.1v-.713a.186.186,0,0,0-.091-.16l-19.906-11.565a.111.111,0,0,0-.165.1v.691A.213.213,0,0,0,480.2,228Z" transform="translate(-456.261 -218.665)" fill="#9be0e8"/>
          <path id="패스_855840" data-name="패스 855840" d="M507,263.485,500.975,260a.089.089,0,0,0-.132.078v.717a.233.233,0,0,0,.116.2l5.966,3.458a.109.109,0,0,0,.16-.1v-.714A.192.192,0,0,0,507,263.485Z" transform="translate(-463.086 -229.514)" fill="#9be0e8"/>
          <path id="패스_855841" data-name="패스 855841" d="M480.1,248.057v.69a.217.217,0,0,0,.1.187l12.816,7.457a.112.112,0,0,0,.166-.1v-.686a.225.225,0,0,0-.112-.2l-12.808-7.451A.111.111,0,0,0,480.1,248.057Z" transform="translate(-456.261 -225.552)" fill="#9be0e8"/>
          <path id="패스_855842" data-name="패스 855842" d="M480.2,245.822l21.243,12.349a.108.108,0,0,0,.16-.1v-.713a.186.186,0,0,0-.091-.16l-21.253-12.355a.112.112,0,0,0-.165.1v.691A.214.214,0,0,0,480.2,245.822Z" transform="translate(-456.261 -224.528)" fill="#9be0e8"/>
          <path id="패스_855843" data-name="패스 855843" d="M480.2,242.711l19.9,11.56a.108.108,0,0,0,.16-.1v-.713a.184.184,0,0,0-.091-.16l-19.906-11.565a.111.111,0,0,0-.165.1v.691A.214.214,0,0,0,480.2,242.711Z" transform="translate(-456.261 -223.505)" fill="#9be0e8"/>
          <path id="패스_855844" data-name="패스 855844" d="M480.2,239.6l19.9,11.56a.108.108,0,0,0,.16-.1v-.713a.185.185,0,0,0-.091-.16l-19.906-11.565a.111.111,0,0,0-.165.1v.691A.214.214,0,0,0,480.2,239.6Z" transform="translate(-456.261 -222.481)" fill="#9be0e8"/>
          <path id="패스_855845" data-name="패스 855845" d="M480.2,260.916l19.9,11.56a.108.108,0,0,0,.16-.1v-.713a.185.185,0,0,0-.091-.16l-19.906-11.565a.111.111,0,0,0-.165.1v.691A.214.214,0,0,0,480.2,260.916Z" transform="translate(-456.261 -229.495)" fill="#9be0e8"/>
          <path id="패스_855846" data-name="패스 855846" d="M479.991,263.738,503.2,277.171c.085.051.112,0,.122-.038v0c.01-.16.017-.323.017-.486v-.272a.212.212,0,0,0-.068-.168l-.013-.01L480.069,262.77a.1.1,0,0,0-.153.087c-.017.188-.041.376-.071.56A.312.312,0,0,0,479.991,263.738Z" transform="translate(-456.176 -230.425)" fill="#9be0e8"/>
          <path id="패스_855847" data-name="패스 855847" d="M479.254,266.145l23.29,13.483a.176.176,0,0,0,.254-.1c.052-.169.1-.34.137-.513a.21.21,0,0,0-.1-.229l-23.32-13.5a.121.121,0,0,0-.174.07q-.08.246-.181.484A.238.238,0,0,0,479.254,266.145Z" transform="translate(-455.945 -231.254)" fill="#9be0e8"/>
          <path id="패스_855848" data-name="패스 855848" d="M480.2,257.805l19.9,11.56a.108.108,0,0,0,.16-.095v-.714a.184.184,0,0,0-.091-.16l-19.906-11.566a.112.112,0,0,0-.165.1v.691A.212.212,0,0,0,480.2,257.805Z" transform="translate(-456.261 -228.471)" fill="#9be0e8"/>
          <path id="패스_855849" data-name="패스 855849" d="M480.2,254.695l19.9,11.559a.108.108,0,0,0,.16-.095v-.714a.184.184,0,0,0-.091-.16L480.263,253.72a.112.112,0,0,0-.165.1v.691A.214.214,0,0,0,480.2,254.695Z" transform="translate(-456.261 -227.448)" fill="#9be0e8"/>
          <path id="패스_855850" data-name="패스 855850" d="M505.937,265.517l-8.207-4.753a.073.073,0,0,0-.108.064v.8a.144.144,0,0,0,.072.125l8.171,4.736a.107.107,0,0,0,.16-.094v-.713A.183.183,0,0,0,505.937,265.517Z" transform="translate(-462.026 -229.767)" fill="#9be0e8"/>
          <path id="패스_855851" data-name="패스 855851" d="M480.1,250.706v.693a.214.214,0,0,0,.1.183l10.682,6.219a.092.092,0,0,0,.136-.081v-.761a.152.152,0,0,0-.076-.134l-10.68-6.218A.112.112,0,0,0,480.1,250.706Z" transform="translate(-456.261 -226.424)" fill="#9be0e8"/>
          <path id="패스_855852" data-name="패스 855852" d="M513.2,268.055l9.622,5.592a.108.108,0,0,0,.16-.095v-.714a.183.183,0,0,0-.091-.16l-9.632-5.6a.111.111,0,0,0-.165.1v.691A.213.213,0,0,0,513.2,268.055Z" transform="translate(-467.117 -231.843)" fill="#9be0e8"/>
          <path id="패스_855853" data-name="패스 855853" d="M513.2,264.945l9.622,5.592a.108.108,0,0,0,.16-.1v-.713a.184.184,0,0,0-.091-.16l-9.632-5.6a.112.112,0,0,0-.165.1v.691A.214.214,0,0,0,513.2,264.945Z" transform="translate(-467.117 -230.82)" fill="#9be0e8"/>
          <path id="패스_855854" data-name="패스 855854" d="M513.2,260.9l9.622,5.592a.108.108,0,0,0,.16-.1v-3.368a.183.183,0,0,0-.091-.16l-9.632-5.6a.111.111,0,0,0-.165.1v3.345A.214.214,0,0,0,513.2,260.9Z" transform="translate(-467.117 -228.616)" fill="#9be0e8"/>
          <path id="패스_855855" data-name="패스 855855" d="M513.2,280.039l8.3,4.832a.108.108,0,0,0,.16-.095v-.714a.183.183,0,0,0-.091-.16l-8.314-4.838a.111.111,0,0,0-.165.1v.691A.214.214,0,0,0,513.2,280.039Z" transform="translate(-467.117 -235.787)" fill="#9be0e8"/>
          <path id="패스_855856" data-name="패스 855856" d="M513.2,276.928l9.622,5.592a.108.108,0,0,0,.16-.095v-.714a.183.183,0,0,0-.091-.16l-9.632-5.6a.111.111,0,0,0-.165.1v.691A.214.214,0,0,0,513.2,276.928Z" transform="translate(-467.117 -234.763)" fill="#9be0e8"/>
          <path id="패스_855857" data-name="패스 855857" d="M513.2,273.818l9.622,5.592a.109.109,0,0,0,.16-.1V278.6a.184.184,0,0,0-.091-.16l-9.632-5.6a.112.112,0,0,0-.165.1v.691A.214.214,0,0,0,513.2,273.818Z" transform="translate(-467.117 -233.739)" fill="#9be0e8"/>
          <path id="패스_855858" data-name="패스 855858" d="M513.2,270.707l9.622,5.592a.108.108,0,0,0,.16-.1v-.713a.184.184,0,0,0-.091-.16l-9.632-5.6a.112.112,0,0,0-.165.1v.691A.214.214,0,0,0,513.2,270.707Z" transform="translate(-467.117 -232.716)" fill="#9be0e8"/>
          <path id="패스_855859" data-name="패스 855859" d="M480.1,232.147v.693a.216.216,0,0,0,.1.183l17.741,10.334a.144.144,0,0,0,.213-.126v-.61a.257.257,0,0,0-.127-.223l-17.765-10.35A.112.112,0,0,0,480.1,232.147Z" transform="translate(-456.261 -220.317)" fill="#9be0e8"/>
          <path id="패스_855860" data-name="패스 855860" d="M480.2,236.421l31.973,18.611a.108.108,0,0,0,.16-.1v-.713a.185.185,0,0,0-.091-.16l-31.983-18.618a.112.112,0,0,0-.165.1v.691A.214.214,0,0,0,480.2,236.421Z" transform="translate(-456.261 -221.435)" fill="#9be0e8"/>
          <path id="패스_855861" data-name="패스 855861" d="M515.244,286.977c.934.7,1.589,3.04,1.6,4.408v1.182a.134.134,0,0,0,.068.12c.479.276,3.333,1.922,3.849,2.224a.153.153,0,0,0,.156-.009,7.234,7.234,0,0,0,1.526-1.43,6.283,6.283,0,0,0,.452-.627s0-.007.007-.01a8.966,8.966,0,0,0,.693-4.808l-7.145-4.144a.4.4,0,0,0-.2-.068c-.085.008-.173.034-.193.269,0,.013,0,.023,0,.034v0A7.259,7.259,0,0,1,515.244,286.977Z" transform="translate(-467.825 -237.354)" fill="#9be0e8"/>
          <path id="패스_855862" data-name="패스 855862" d="M517.623,297.8v.173a3.121,3.121,0,0,0,.034.475l2.489,1.408a.981.981,0,0,0,.872.036c.052-.022.1-.046.155-.072Z" transform="translate(-468.607 -241.956)" fill="#9be0e8"/>
          <path id="패스_855863" data-name="패스 855863" d="M477.387,283.061l13.072,7.625a.456.456,0,0,0,.661-.269,14.175,14.175,0,0,1,5.909-7.916,4.3,4.3,0,0,1,1.092-.513.239.239,0,0,0,.056-.432l-2.075-1.214-7.153-4.177-3.643-2.127a1.289,1.289,0,0,0-.927-.155,4.232,4.232,0,0,0-1.4.595,14.3,14.3,0,0,0-4.876,5.356,13.94,13.94,0,0,0-1.012,2.489A.642.642,0,0,0,477.387,283.061Z" transform="translate(-455.264 -234.077)" fill="#0085ce"/>
          <path id="패스_855864" data-name="패스 855864" d="M459.361,259.745l12.343,7.2,4.01,2.334a.236.236,0,0,0,.241-.012c.075-.054.153-.1.232-.154a3.129,3.129,0,0,1,.4-.228.078.078,0,0,1,.017-.014c.054-.033.017-.069,0-.082l-.011-.006-4.937-2.872-11.361-6.626a4.094,4.094,0,0,0-.9.443Z" transform="translate(-449.438 -229.282)" fill="#9be0e8"/>
          <path id="패스_855865" data-name="패스 855865" d="M457.2,261.369a.124.124,0,0,0,.015.2l13.807,8.046,2.411,1.4a.243.243,0,0,0,.284-.033q.144-.128.292-.253a.243.243,0,0,0-.022-.4l-3.009-1.75-13.048-7.608a.248.248,0,0,0-.276.02C457.5,261.117,457.347,261.24,457.2,261.369Z" transform="translate(-448.712 -229.83)" fill="#9be0e8"/>
          <path id="패스_855866" data-name="패스 855866" d="M455.366,263.6l16.1,9.379a.278.278,0,0,0,.348-.064c.09-.1.18-.205.274-.307a.194.194,0,0,0-.038-.3l-.911-.527L455.91,262.9a.3.3,0,0,0-.359.051q-.121.124-.24.252A.254.254,0,0,0,455.366,263.6Z" transform="translate(-448.083 -230.461)" fill="#9be0e8"/>
          <path id="패스_855867" data-name="패스 855867" d="M453.578,265.684l16.195,9.439a.283.283,0,0,0,.376-.1c.067-.1.135-.2.2-.3a.219.219,0,0,0-.062-.319l-16.166-9.417a.282.282,0,0,0-.366.078c-.082.111-.162.223-.24.336A.192.192,0,0,0,453.578,265.684Z" transform="translate(-447.504 -231.15)" fill="#9be0e8"/>
          <path id="패스_855868" data-name="패스 855868" d="M452.12,267.932s0,0,.007.007l16.295,9.49a.259.259,0,0,0,.354-.114c.041-.087.089-.176.133-.263l.061-.114a.165.165,0,0,0-.041-.223l-.013-.01-16.387-9.541a.113.113,0,0,0-.153.039c-.105.177-.207.361-.3.544a.02.02,0,0,0,0,.013A.144.144,0,0,0,452.12,267.932Z" transform="translate(-447.036 -231.87)" fill="#9be0e8"/>
          <path id="패스_855869" data-name="패스 855869" d="M451.008,270.4l16.511,9.618a.091.091,0,0,0,.132-.053q.1-.321.226-.637a.11.11,0,0,0-.046-.136l-16.474-9.6a.108.108,0,0,0-.152.054q-.129.312-.242.629A.1.1,0,0,0,451.008,270.4Z" transform="translate(-446.673 -232.669)" fill="#9be0e8"/>
          <path id="패스_855870" data-name="패스 855870" d="M449.9,274.873a.288.288,0,0,0,.141.282l31.43,18.278a.108.108,0,0,0,.16-.095v-.713a.178.178,0,0,0-.091-.16l-31.362-18.239a.139.139,0,0,0-.2.1C449.949,274.507,449.924,274.69,449.9,274.873Z" transform="translate(-446.325 -234.193)" fill="#9be0e8"/>
          <path id="패스_855871" data-name="패스 855871" d="M449.729,278.577a.225.225,0,0,0,.111.213l31.578,18.365a.086.086,0,0,0,.058.015.109.109,0,0,0,.1-.109v-.713a.181.181,0,0,0-.027-.095.168.168,0,0,0-.064-.066l-31.54-18.342a.128.128,0,0,0-.189.111C449.753,278.165,449.743,278.371,449.729,278.577Z" transform="translate(-446.268 -235.385)" fill="#9be0e8"/>
          <path id="패스_855872" data-name="패스 855872" d="M449.2,282.022a.243.243,0,0,0,.111.272l31.359,18.234a.14.14,0,0,0,.2-.082c.054-.189.105-.381.149-.57a.183.183,0,0,0-.085-.2L449.53,281.411a.147.147,0,0,0-.215.1C449.281,281.684,449.242,281.854,449.2,282.022Z" transform="translate(-446.092 -236.557)" fill="#9be0e8"/>
          <path id="패스_855873" data-name="패스 855873" d="M448.162,285.159a.254.254,0,0,0,.1.323l31.272,18.188a.135.135,0,0,0,.19-.061c.085-.166.16-.338.235-.507a.189.189,0,0,0-.078-.238L448.57,284.654a.167.167,0,0,0-.237.089C448.278,284.882,448.221,285.021,448.162,285.159Z" transform="translate(-445.746 -237.623)" fill="#9be0e8"/>
          <path id="패스_855874" data-name="패스 855874" d="M446.594,288.116a.163.163,0,0,0,.052.232l31.265,18.183a.147.147,0,0,0,.191-.048c.109-.156.217-.317.323-.476a.152.152,0,0,0-.048-.213L447.112,287.61a.184.184,0,0,0-.25.071C446.776,287.828,446.686,287.972,446.594,288.116Z" transform="translate(-445.228 -238.595)" fill="#9be0e8"/>
          <path id="패스_855875" data-name="패스 855875" d="M444.613,290.753a.153.153,0,0,0,.032.237l31.185,18.139a.16.16,0,0,0,.187-.027c.136-.14.272-.285.4-.432a.152.152,0,0,0-.034-.233l-31.164-18.125a.221.221,0,0,0-.28.055C444.836,290.5,444.725,290.627,444.613,290.753Z" transform="translate(-444.572 -239.483)" fill="#9be0e8"/>
          <path id="패스_855876" data-name="패스 855876" d="M466.836,307.43a.167.167,0,0,0,.013.276l14.531,8.447a.168.168,0,0,0,.177-.009c.173-.129.343-.257.513-.392a.13.13,0,0,0-.013-.213l-14.555-8.46a.245.245,0,0,0-.283.03Q467.031,307.274,466.836,307.43Z" transform="translate(-451.875 -244.998)" fill="#9be0e8"/>
        </g>
        <path id="패스_855877" data-name="패스 855877" d="M515,224.255a4.022,4.022,0,0,0-2.273,3.609V267.8c0,3.731-1.229,5.912-3.254,7.253a3.074,3.074,0,0,1-4.846-2.507v-1.992a5.692,5.692,0,0,0-1.084-3.832,3.873,3.873,0,0,0-3.217-1.361,5.92,5.92,0,0,0-2.862,1.264,13.565,13.565,0,0,0-5.162,7.962c-.563,2.589-.36,5.332-1.219,7.838-.984,2.868-3.257,5.105-5.674,6.936-1.488,1.127-7.281,5.206-7.281,5.206l.022.262s4.734-3.292,7.062-5,4.7-3.921,5.844-6.572c1.429-3.326.855-7.016,2.018-10.445a12.467,12.467,0,0,1,5.041-6.3,4.236,4.236,0,0,1,3.353-.912,3.631,3.631,0,0,1,2.212,2.047,10.308,10.308,0,0,1,.729,4.336,3.574,3.574,0,0,0,1.147,3.056,3.267,3.267,0,0,0,3.97.28,5.889,5.889,0,0,0,2.287-2.345c1.286-2.046,1.119-5.617,1.119-5.617s.062-39.031.062-39.529A3.821,3.821,0,0,1,515,224.494l6.565-3.792V220.5Z" transform="translate(-444.014 -200.728)" fill="#00a2be"/>
        <g id="그룹_461081" data-name="그룹 461081" transform="translate(57.78 29.357)">
          <path id="패스_855878" data-name="패스 855878" d="M516.723,235.809a3.65,3.65,0,0,0,1.765,2.78c.975.561,1.765.225,1.765-.749a3.651,3.651,0,0,0-1.765-2.781C517.513,234.5,516.723,234.834,516.723,235.809Z" transform="translate(-514.493 -234.788)" fill="#fff"/>
          <path id="패스_855879" data-name="패스 855879" d="M513.4,242.492l7.988,4.595a8.26,8.26,0,0,0-3.994-6.274,3.251,3.251,0,0,0-2.823-.454A2.115,2.115,0,0,0,513.4,242.492Z" transform="translate(-513.399 -236.569)" fill="#fff"/>
        </g>
        <path id="패스_855880" data-name="패스 855880" d="M512.942,249.283l.378.986.846.612-.612.243.145.926-.757-.835-.757-.039.145-.759-.612-.951.846.366Z" transform="translate(-455.066 -210.2)" fill="#00a2be"/>
        <path id="패스_855881" data-name="패스 855881" d="M517.841,252.125l.378.986.846.612-.612.243.145.926-.757-.835-.757-.039.145-.759-.612-.951.846.366Z" transform="translate(-456.678 -211.135)" fill="#00a2be"/>
        <path id="패스_855882" data-name="패스 855882" d="M522.741,254.968l.378.986.846.612-.612.243.145.926-.757-.835-.757-.039.145-.759-.612-.951.846.366Z" transform="translate(-458.29 -212.071)" fill="#00a2be"/>
      </g>
      <g id="그룹_461084" data-name="그룹 461084" transform="translate(98.51 11.959)">
        <g id="그룹_461083" data-name="그룹 461083" opacity="0.75">
          <path id="패스_855883" data-name="패스 855883" d="M491.793,157.608a.752.752,0,0,1-.243-.089L477.084,149.2a1.126,1.126,0,0,1-.574-.949V135.292a.543.543,0,0,1,.294-.5.661.661,0,0,1,.622.042l14.444,8.311a1.128,1.128,0,0,1,.575.949v12.979a.531.531,0,0,1-.287.489A.584.584,0,0,1,491.793,157.608Z" transform="translate(-476.51 -134.731)" fill="#00a2be" opacity="0.35" style="mix-blend-mode: multiply;isolation: isolate"/>
        </g>
        <path id="패스_855884" data-name="패스 855884" d="M486.243,145.768l1.1,2.876,2.47,1.785-1.788.71.422,2.7-2.21-2.437-2.21-.114.422-2.217-1.788-2.775,2.47,1.067Z" transform="translate(-478.536 -138.362)" fill="#fff"/>
      </g>
      <path id="패스_855885" data-name="패스 855885" d="M553.923,197.21c.372.836,0,1.514-.84,1.514a2.657,2.657,0,0,1-2.188-1.514c-.372-.836,0-1.514.84-1.514A2.657,2.657,0,0,1,553.923,197.21Z" transform="translate(-402.427 -142.831)" fill="none" stroke="#fff" stroke-miterlimit="10" stroke-width="1"/>
      <path id="패스_855886" data-name="패스 855886" d="M595.021,297.16c.372.836,0,1.514-.84,1.514a2.655,2.655,0,0,1-2.187-1.514c-.372-.836,0-1.514.839-1.514A2.657,2.657,0,0,1,595.021,297.16Z" transform="translate(-415.95 -175.717)" fill="none" stroke="#fff" stroke-miterlimit="10" stroke-width="1"/>
      <path id="패스_855887" data-name="패스 855887" d="M448.9,161.253c.372.836,0,1.514-.839,1.514a2.657,2.657,0,0,1-2.188-1.514c-.372-.837,0-1.514.84-1.514A2.655,2.655,0,0,1,448.9,161.253Z" transform="translate(-367.872 -131)" fill="none" stroke="#fff" stroke-miterlimit="10" stroke-width="1"/>
      <g id="그룹_461085" data-name="그룹 461085" transform="translate(119.468 28.87)">
        <line id="선_609" data-name="선 609" y2="2.767" transform="translate(1.297)" fill="none" stroke="#fff" stroke-linecap="round" stroke-linejoin="round" stroke-width="1"/>
        <line id="선_610" data-name="선 610" x1="2.595" y1="1.493" transform="translate(0 0.552)" fill="none" stroke="#fff" stroke-linecap="round" stroke-linejoin="round" stroke-width="1"/>
      </g>
      <g id="그룹_461086" data-name="그룹 461086" transform="translate(161.818 42.984)">
        <line id="선_611" data-name="선 611" y2="2.767" transform="translate(1.297)" fill="none" stroke="#fff" stroke-linecap="round" stroke-linejoin="round" stroke-width="1"/>
        <line id="선_612" data-name="선 612" x1="2.595" y1="1.493" transform="translate(0 0.552)" fill="none" stroke="#fff" stroke-linecap="round" stroke-linejoin="round" stroke-width="1"/>
      </g>
      <g id="그룹_461087" data-name="그룹 461087" transform="translate(88.223 18.209)">
        <line id="선_613" data-name="선 613" y2="2.767" transform="translate(1.297)" fill="none" stroke="#fff" stroke-linecap="round" stroke-linejoin="round" stroke-width="1"/>
        <line id="선_614" data-name="선 614" x1="2.595" y1="1.493" transform="translate(0 0.552)" fill="none" stroke="#fff" stroke-linecap="round" stroke-linejoin="round" stroke-width="1"/>
      </g>
      <g id="그룹_461088" data-name="그룹 461088" transform="translate(186.681 115.546)">
        <line id="선_615" data-name="선 615" y2="2.767" transform="translate(1.297)" fill="none" stroke="#fff" stroke-linecap="round" stroke-linejoin="round" stroke-width="1"/>
        <line id="선_616" data-name="선 616" x1="2.595" y1="1.493" transform="translate(0 0.552)" fill="none" stroke="#fff" stroke-linecap="round" stroke-linejoin="round" stroke-width="1"/>
      </g>
      <g id="그룹_461089" data-name="그룹 461089" transform="translate(174.374 93.615)">
        <line id="선_617" data-name="선 617" y2="2.767" transform="translate(1.297 0)" fill="none" stroke="#fff" stroke-linecap="round" stroke-linejoin="round" stroke-width="1"/>
        <line id="선_618" data-name="선 618" x1="2.595" y1="1.493" transform="translate(0 0.552)" fill="none" stroke="#fff" stroke-linecap="round" stroke-linejoin="round" stroke-width="1"/>
      </g>
      <g id="그룹_461106" data-name="그룹 461106" transform="translate(143.278 134.248)">
        <path id="패스_855888" data-name="패스 855888" d="M563.929,333.122l26.4,15.243a1.558,1.558,0,0,1,0,2.7l-39.055,22.549a4.636,4.636,0,0,1-4.608.016L520.028,358.5a1.558,1.558,0,0,1-.009-2.7l39.273-22.674A4.639,4.639,0,0,1,563.929,333.122Z" transform="translate(-519.237 -324.366)" fill="#003daa" opacity="0.529"/>
        <path id="패스_855889" data-name="패스 855889" d="M563.93,322.587l27.18,15.525v1.066a1.544,1.544,0,0,1-.779,1.349l-39.055,22.548a4.637,4.637,0,0,1-4.608.017L520.03,347.965a1.541,1.541,0,0,1-.788-1.315c-.013-.537,0-1.1,0-1.1l40.051-22.967A4.635,4.635,0,0,1,563.93,322.587Z" transform="translate(-519.236 -320.899)" fill="#9be0e8"/>
        <path id="패스_855890" data-name="패스 855890" d="M563.929,321l26.4,15.243a1.558,1.558,0,0,1,0,2.7l-39.055,22.549a4.637,4.637,0,0,1-4.608.016l-26.638-15.127a1.558,1.558,0,0,1-.009-2.7L559.292,321A4.639,4.639,0,0,1,563.929,321Z" transform="translate(-519.237 -320.377)" fill="#fff"/>
        <path id="패스_855891" data-name="패스 855891" d="M563.456,324.584l25.465,14.7L553.1,359.97,527.42,345.389Z" transform="translate(-521.929 -321.761)" fill="#212121"/>
        <g id="그룹_461091" data-name="그룹 461091" transform="translate(16.164 12.278)">
          <g id="그룹_461090" data-name="그룹 461090" transform="translate(0 0)">
            <ellipse id="타원_459" data-name="타원 459" cx="8.576" cy="15.159" rx="8.576" ry="15.159" transform="translate(0 16.983) rotate(-81.949)" fill="#fff" opacity="0.11"/>
            <path id="패스_855892" data-name="패스 855892" d="M557.106,346.191c4.72-1.265,10.972.136,13.964,3.129s1.592,6.443-3.128,7.707-10.972-.136-13.965-3.128S552.386,347.455,557.106,346.191Z" transform="translate(-546.313 -340.995)" fill="#fff" opacity="0.15"/>
            <path id="패스_855893" data-name="패스 855893" d="M560.982,349.291c2.958-.792,6.875.085,8.75,1.961s1,4.037-1.961,4.83-6.875-.085-8.75-1.96S558.024,350.083,560.982,349.291Z" transform="translate(-548.166 -342.072)" fill="#fff" opacity="0.25"/>
          </g>
          <path id="패스_855894" data-name="패스 855894" d="M562.692,350.331l2.672,1.247,2.473-.618-.281,1.914,2.23,1.653-2.845-.063-1.095,1.639-1.478-1.954-2.907-.64,1.932-1.144Z" transform="translate(-549.294 -342.51)" fill="#9be0e8"/>
        </g>
        <g id="그룹_461093" data-name="그룹 461093" transform="translate(8.584 13.604)">
          <path id="패스_855895" data-name="패스 855895" d="M538.62,364v-1.067l5.862-3.6a.717.717,0,0,0,.166-.108,1,1,0,0,0,.323-.441,1.432,1.432,0,0,0,.075-.613l1.969-1.227a1.017,1.017,0,0,0,.1-.059.536.536,0,0,0,.075-.081,10.507,10.507,0,0,0,4.326.742c3.778-.113,6.807-1.948,6.914-4.143l.005.005-.005-.194v-.005l-.038-1.221v-.065l-.005.011c-.107-2.261-3.293-3.988-7.151-3.875-3.886.113-6.98,2.056-6.915,4.332l.038,1.233a3.111,3.111,0,0,0,1.292,2.292l-1.485.926a1.08,1.08,0,0,0-.586-.113,1.008,1.008,0,0,0-.3.081c-.016.011-.032.016-.048.027l-.059.038a.075.075,0,0,0-.021.016c-.011.005-.011.011-.021.016l-7.262,4.464v1.068Z" transform="translate(-533.291 -343.086)" fill="#b4bbe1" opacity="0.55" style="mix-blend-mode: multiply;isolation: isolate"/>
          <path id="패스_855896" data-name="패스 855896" d="M547.3,346.648a2.612,2.612,0,0,0,.1.64c.589,2.054,3.68,3.551,7.357,3.443s6.675-1.784,7.142-3.87c.048-.211.062-1.958.062-1.958s-1.925-3.832-7.457-3.755c-3.347.046-7.2,4.187-7.2,4.187S547.283,346.236,547.3,346.648Zm1.165-.034a2.411,2.411,0,0,1,.481-1.477c.919-1.3,3.06-2.247,5.578-2.321s4.712.747,5.705,1.989a2.416,2.416,0,0,1,.568,1.446c.058,2-2.654,2.772-6.06,2.872S548.519,348.611,548.46,346.614Z" transform="translate(-537.051 -340.814)" fill="#9be0e8"/>
          <g id="그룹_461092" data-name="그룹 461092" transform="translate(11.126 0.637)">
            <path id="패스_855897" data-name="패스 855897" d="M548.612,345.484c.06,2.038,2.984,3.606,6.531,3.5s6.374-1.842,6.315-3.88-2.984-3.607-6.531-3.5S548.553,343.446,548.612,345.484Z" transform="translate(-548.612 -341.6)" opacity="0.2" fill="url(#linear-gradient-12)" style="mix-blend-mode: screen;isolation: isolate"/>
            <path id="패스_855898" data-name="패스 855898" d="M552.68,342.353c6.4.14,8.322,3.289,8.857,5.071a2.875,2.875,0,0,0,1.261-2.284c-.062-2.037-2.967-3.533-6.514-3.429A10.711,10.711,0,0,0,552.68,342.353Z" transform="translate(-549.95 -341.634)" fill="#fff" opacity="0.2"/>
            <path id="패스_855899" data-name="패스 855899" d="M549.558,347.265c.053,1.8,2.641,3.191,5.782,3.1s5.641-1.629,5.588-3.435a1.516,1.516,0,0,0-.011-.156c-.174,1.693-2.583,3.09-5.576,3.179-3.046.092-5.572-1.212-5.77-2.936A1.527,1.527,0,0,0,549.558,347.265Z" transform="translate(-548.923 -343.302)" fill="#fff" opacity="0.4"/>
          </g>
          <path id="패스_855900" data-name="패스 855900" d="M548.069,344.065l1.663-1.729,4.8-1.187,4.861.9,1.762,1.628.458,1.015-.7.244s-.821-3.3-6.367-3.139-6.172,3.508-6.172,3.508l-.708-.2Z" transform="translate(-537.176 -340.815)" fill="#00a2be"/>
          <path id="패스_855901" data-name="패스 855901" d="M547.3,345.172a2.611,2.611,0,0,0,.1.64c.589,2.054,3.68,3.551,7.357,3.443s6.675-1.784,7.142-3.87a2.6,2.6,0,0,0,.062-.645c-.07-2.375-3.408-4.2-7.457-4.084S547.228,342.8,547.3,345.172Zm1.165-.034a2.411,2.411,0,0,1,.481-1.477c.919-1.3,3.06-2.247,5.578-2.322s4.712.748,5.705,1.989a2.416,2.416,0,0,1,.568,1.446c.058,2-2.654,3.7-6.06,3.8S548.521,347.135,548.462,345.138Z" transform="translate(-537.053 -340.651)" fill="#81c5e8"/>
          <path id="패스_855902" data-name="패스 855902" d="M547.3,345.172a2.611,2.611,0,0,0,.1.64c.589,2.054,3.68,3.551,7.357,3.443s6.675-1.784,7.142-3.87a2.6,2.6,0,0,0,.062-.645c-.07-2.375-3.408-4.2-7.457-4.084S547.228,342.8,547.3,345.172Zm1.165-.034a2.411,2.411,0,0,1,.481-1.477c.919-1.3,3.06-2.247,5.578-2.322s4.712.748,5.705,1.989a2.416,2.416,0,0,1,.568,1.446c.058,2-2.654,3.7-6.06,3.8S548.521,347.135,548.462,345.138Z" transform="translate(-537.053 -340.651)" fill="#fff"/>
          <path id="패스_855903" data-name="패스 855903" d="M545.988,354.033l.14.207h0l.628.93.162.239,2.754-1.718h0a.473.473,0,0,0,.1-.063.6.6,0,0,0,.191-.264.809.809,0,0,0,.042-.17h0a.968.968,0,0,0-.091-.546.932.932,0,0,0-.472-.466.642.642,0,0,0-.312-.049.527.527,0,0,0-.179.05l-.03.015-.037.023-.013.009Z" transform="translate(-536.622 -344.428)" fill="#9be0e8"/>
          <path id="패스_855904" data-name="패스 855904" d="M545.988,354.033l.14.207h0l3.315-2.058a.642.642,0,0,0-.312-.049.527.527,0,0,0-.179.05l-.03.015-.037.023-.013.009Z" transform="translate(-536.622 -344.428)" fill="#fff"/>
          <path id="패스_855905" data-name="패스 855905" d="M547.135,355.693l.162.239,2.754-1.718h0a.476.476,0,0,0,.1-.063.6.6,0,0,0,.191-.264.805.805,0,0,0,.042-.17Z" transform="translate(-537 -344.95)" fill="#00a2be"/>
          <path id="패스_855906" data-name="패스 855906" d="M532.919,359.5l.4.705,1.029,1.812,8.384-5.182h0a.9.9,0,0,0,.174-.109,1.037,1.037,0,0,0,.333-.46,1.606,1.606,0,0,0-.084-1.247,1.762,1.762,0,0,0-.283-.425v0a1.307,1.307,0,0,0-1.083-.47.908.908,0,0,0-.311.086.369.369,0,0,0-.052.026l-.064.041a.147.147,0,0,0-.023.015l-.017.014Z" transform="translate(-532.322 -345.08)" fill="#212121"/>
          <path id="패스_855907" data-name="패스 855907" d="M532.919,359.5l.4.705,1.008-.3,8.549-5.3v-.005a1.307,1.307,0,0,0-1.083-.47.908.908,0,0,0-.311.086.369.369,0,0,0-.052.026l-.064.041a.147.147,0,0,0-.023.015l-.017.014Z" transform="translate(-532.322 -345.08)" fill="#3a3a3a"/>
          <path id="패스_855908" data-name="패스 855908" d="M532.2,363.907a1.334,1.334,0,0,0,1.677.811h0a.89.89,0,0,0,.174-.109,1.044,1.044,0,0,0,.332-.46,1.605,1.605,0,0,0-.083-1.247,1.444,1.444,0,0,0-1.367-.9.9.9,0,0,0-.311.087.467.467,0,0,0-.051.026l-.065.042a.111.111,0,0,0-.023.015A1.389,1.389,0,0,0,532.2,363.907Z" transform="translate(-532.029 -347.675)" fill="#4b4c4c"/>
        </g>
        <g id="그룹_461094" data-name="그룹 461094" transform="translate(33.492 9.832)">
          <path id="패스_855909" data-name="패스 855909" d="M569.151,336.374l8.351,4.8c2.656-2.03,2.208-3.626.407-4.861C575.072,334.37,571.811,334.831,569.151,336.374Z" transform="translate(-569.151 -335.03)" fill="#fff"/>
        </g>
        <g id="그룹_461105" data-name="그룹 461105" transform="translate(42.571 13.936)" opacity="0.35">
          <g id="그룹_461096" data-name="그룹 461096" transform="translate(0 2.152)">
            <g id="그룹_461095" data-name="그룹 461095">
              <path id="패스_855910" data-name="패스 855910" d="M591.139,349.648a.253.253,0,0,1-.128-.034l-8.2-4.782a.256.256,0,1,1,.256-.444l8.2,4.781a.256.256,0,0,1-.128.478Z" transform="translate(-582.682 -344.354)" fill="#b4bbe1"/>
            </g>
          </g>
          <g id="그룹_461098" data-name="그룹 461098" transform="translate(0.939 1.614)">
            <g id="그룹_461097" data-name="그룹 461097">
              <path id="패스_855911" data-name="패스 855911" d="M592.538,348.846a.255.255,0,0,1-.128-.034l-8.2-4.782a.256.256,0,1,1,.256-.444l8.2,4.781a.256.256,0,0,1-.128.478Z" transform="translate(-584.081 -343.551)" fill="#b4bbe1"/>
            </g>
          </g>
          <g id="그룹_461100" data-name="그룹 461100" transform="translate(1.878 1.076)">
            <g id="그룹_461099" data-name="그룹 461099">
              <path id="패스_855912" data-name="패스 855912" d="M593.938,348.044a.254.254,0,0,1-.128-.034l-8.2-4.782a.256.256,0,0,1,.256-.444l8.2,4.781a.257.257,0,0,1-.128.478Z" transform="translate(-585.481 -342.75)" fill="#b4bbe1"/>
            </g>
          </g>
          <g id="그룹_461102" data-name="그룹 461102" transform="translate(2.817 0.538)">
            <g id="그룹_461101" data-name="그룹 461101">
              <path id="패스_855913" data-name="패스 855913" d="M595.337,347.242a.253.253,0,0,1-.128-.034l-8.2-4.781a.256.256,0,0,1,.256-.444l8.2,4.782a.256.256,0,0,1-.128.478Z" transform="translate(-586.88 -341.948)" fill="#b4bbe1"/>
            </g>
          </g>
          <g id="그룹_461104" data-name="그룹 461104" transform="translate(3.755)">
            <g id="그룹_461103" data-name="그룹 461103">
              <path id="패스_855914" data-name="패스 855914" d="M596.736,346.441a.256.256,0,0,1-.128-.035l-8.2-4.781a.256.256,0,0,1,.256-.444l8.2,4.782a.256.256,0,0,1-.128.478Z" transform="translate(-588.28 -341.146)" fill="#b4bbe1"/>
            </g>
          </g>
        </g>
        <path id="패스_855915" data-name="패스 855915" d="M585.012,331.72a3.068,3.068,0,0,0-3.309.527,1.389,1.389,0,0,0,.479,2.356,3.068,3.068,0,0,0,3.309-.527A1.389,1.389,0,0,0,585.012,331.72Z" transform="translate(-539.635 -324.021)" fill="#fff"/>
      </g>
      <g id="그룹_461108" data-name="그룹 461108" transform="translate(150.62 97.476)">
        <path id="패스_855916" data-name="패스 855916" d="M573.265,272.53v16.677l-1.128.613L556.6,278.136,554.173,262.8l1.128-.613Z" transform="translate(-554.173 -262.182)" fill="#9be0e8"/>
        <path id="패스_855917" data-name="패스 855917" d="M574.455,277.6v16.677l-1.128.613L557.788,283.21l15.539-4.993Z" transform="translate(-555.362 -267.256)" fill="#0294ad"/>
        <path id="패스_855918" data-name="패스 855918" d="M572.137,273.443V290.12l-17.964-10.347V263.1Z" transform="translate(-554.173 -262.483)" fill="#00a2be"/>
        <g id="그룹_461107" data-name="그룹 461107" transform="translate(2.233 6.105)">
          <path id="패스_855919" data-name="패스 855919" d="M557.5,271.281v1.391l6.492,7.278,6.506.155v-1.384Z" transform="translate(-557.501 -271.281)" fill="#fff"/>
          <path id="패스_855920" data-name="패스 855920" d="M563.992,281.836l-6.492-7.278v7.11l13,7.44v-7.117Z" transform="translate(-557.501 -272.359)" fill="#fff"/>
        </g>
      </g>
      <g id="그룹_461109" data-name="그룹 461109" transform="translate(76.125 46.477)">
        <path id="패스_855921" data-name="패스 855921" d="M457.049,193.463v11.744l-1.25.694-10.942-8.228-1.708-10.8,1.25-.694Z" transform="translate(-443.148 -186.176)" fill="#9be0e8"/>
        <path id="패스_855922" data-name="패스 855922" d="M457.886,197.036V208.78l-1.25.694-10.942-8.228,10.942-3.516Z" transform="translate(-443.986 -189.749)" fill="#0f94ad"/>
        <path id="패스_855923" data-name="패스 855923" d="M455.8,194.5v11.744l-12.651-7.287V187.21Z" transform="translate(-443.148 -186.516)" fill="#11a2be"/>
        <path id="패스_855924" data-name="패스 855924" d="M447.887,199.408,449.6,202.8l4.933-3.611" transform="translate(-444.707 -190.457)" fill="none" stroke="#fff" stroke-linecap="round" stroke-linejoin="round" stroke-width="2.757"/>
      </g>
      <g id="그룹_461114" data-name="그룹 461114" transform="translate(26.286 83.85)">
        <g id="그룹_461110" data-name="그룹 461110" transform="translate(27.35)">
          <path id="패스_855925" data-name="패스 855925" d="M410.134,306.487s1.517.276,1.849.019,1.79-1.657,1.99-1.861a19.127,19.127,0,0,1,3.317-.9c.24,0,1.272.11,1.253.258a23.236,23.236,0,0,1-2.025,2.007c-.205.168-.857.7-.961,1.034s-1.046,1.451-1.728,1.492a5.511,5.511,0,0,1-.835-.046l-3.364.479" transform="translate(-409.631 -262.231)" fill="#ffcbcb"/>
          <path id="패스_855926" data-name="패스 855926" d="M422.194,300.073a4.484,4.484,0,0,1-1.01.816,2.4,2.4,0,0,1-.535.1,8.314,8.314,0,0,0-2.348.677,6.3,6.3,0,0,0-1.381,1.6.2.2,0,0,0-.022.1.156.156,0,0,0,.057.094c.329.3.766-.021,1.01-.267.136-.137.6-.519.667-.412a3.811,3.811,0,0,1-.758,2.158c-.47.531-1.788,1.115-1.559,1.375.09.1.354.181.851.065a3.883,3.883,0,0,0,1.912-.333,6.932,6.932,0,0,0,1.459-1.445c.312-.35.56-.81,1.007-1.251a15.977,15.977,0,0,1,1.62-1.068Z" transform="translate(-411.821 -261.024)" fill="#ffcbcb"/>
          <path id="패스_855927" data-name="패스 855927" d="M427.123,258.122c-2.9.264-3.714,1.706-4.218,2.757-1.006,2.1-.512,5.079-.476,6.288.127,4.312.554,8.609.98,12.9l.817,8.225a1.4,1.4,0,0,0,.119.515.966.966,0,0,0,1.412.155,2.7,2.7,0,0,0,.77-1.4,19.439,19.439,0,0,0,1.081-6.874c-.153-2.422-1.046-4.731-1.459-7.122-.543-3.148-.257-6.437-1.2-9.488" transform="translate(-413.792 -247.221)" fill="#fff"/>
          <path id="패스_855928" data-name="패스 855928" d="M426.987,270.029c.155.724-2.75-.729-2.619,0,.115.634.654,9.008.767,10.03.189,1.7-.418,3.941-.273,5.642a12.474,12.474,0,0,0,.5,2.832,1.238,1.238,0,0,0,.635.851.89.89,0,0,0,.526.005c.729-.192,1.15-.933,1.489-1.6" transform="translate(-414.478 -251.069)" fill="#e8ecf7"/>
          <path id="패스_855929" data-name="패스 855929" d="M442.9,356.813c-1.937-4.025-6.481-6.446-10.4-8.149a22.062,22.062,0,0,0-5.987-1.541c-2.016-.256-4.214-.272-5.9.868s-2.412,3.821-.954,5.236a10.618,10.618,0,0,0,2.413,1.343c1.6.89,2.619,2.52,3.708,3.993a19.03,19.03,0,0,0,5.553,5.253,10.859,10.859,0,0,0,7.387,1.473,5.581,5.581,0,0,0,4.174-8.477Z" transform="translate(-412.675 -276.458)" fill="rgba(180,187,225,0.1)"/>
          <path id="패스_855930" data-name="패스 855930" d="M446.979,357.462s-.206.819-.325,1.511-.155,1.577-.234,2.308a9.921,9.921,0,0,1-1.074,2.911,2.834,2.834,0,0,1-1.53,1.089,4.947,4.947,0,0,1-2.356-.047,1.135,1.135,0,0,1-.6-.6" transform="translate(-419.905 -279.906)" fill="#6b6b6b"/>
          <path id="패스_855931" data-name="패스 855931" d="M423.107,352.522c0,.455.678.772,1.375.829a6.98,6.98,0,0,0,2.255-.315,11.221,11.221,0,0,0,1.75-.661,2.253,2.253,0,0,1,1.285-.114s0,.076,0,.161a5.909,5.909,0,0,0,3.133-.526s0,0,.009,0a6.613,6.613,0,0,0-.009-.668c-.014-.266-.062-.654-.062-.654l-9.741,1.626Z" transform="translate(-414.065 -277.638)" fill="#6b6b6b"/>
          <path id="패스_855932" data-name="패스 855932" d="M440.442,363.635c.009.085.023.171.038.252a1.223,1.223,0,0,0,.839.986,3.652,3.652,0,0,0,3.441-.758,8.486,8.486,0,0,0,1.426-4.631,6.208,6.208,0,0,1,.73-2.683h-3.792a.941.941,0,0,0-.091.123,23.226,23.226,0,0,0-2.521,5.517A5.356,5.356,0,0,0,440.442,363.635Z" transform="translate(-419.765 -279.689)" fill="#fff"/>
          <path id="패스_855933" data-name="패스 855933" d="M440.442,363.7a.189.189,0,0,0,.038-.095,18.841,18.841,0,0,1,1.493-3.57c.46-.919,1.318-2.593,1.318-2.593s-.114-.2-.256-.455a23.226,23.226,0,0,0-2.521,5.517A5.356,5.356,0,0,0,440.442,363.7Z" transform="translate(-419.765 -279.749)" fill="#fff"/>
          <path id="패스_855934" data-name="패스 855934" d="M440.5,363.884a1.223,1.223,0,0,0,.839.986,3.652,3.652,0,0,0,3.441-.758,8.486,8.486,0,0,0,1.427-4.631,6.207,6.207,0,0,1,.73-2.683H445.4l-.123.8a15.3,15.3,0,0,1-.811,4.84,3.1,3.1,0,0,1-2.787,1.9c-.612-.043-1-.123-1.171-.446A0,0,0,0,0,440.5,363.884Z" transform="translate(-419.789 -279.688)" fill="#fff"/>
          <path id="패스_855935" data-name="패스 855935" d="M423.1,351.643a.6.6,0,0,0,.342.488,5.4,5.4,0,0,0,2.777,0c.811-.2,2.318-.91,3.115-1s2.346-.223,2.735-.331a1.1,1.1,0,0,0,.882-1.076,2.414,2.414,0,0,0-.294-1.37l-.626.038-3.688.237-.085,0-1.882.673a6.749,6.749,0,0,0-2.683,1.171,2.6,2.6,0,0,0-.332.37l0,0A1.133,1.133,0,0,0,423.1,351.643Z" transform="translate(-414.061 -276.911)" fill="#fff"/>
          <path id="패스_855936" data-name="패스 855936" d="M423.492,350.986a8.3,8.3,0,0,1,2.892-1.166c1.038-.27,2.048-.592,2.048-.592s.023-.2.042-.46l-.085,0-1.882.673a6.749,6.749,0,0,0-2.683,1.171A2.594,2.594,0,0,0,423.492,350.986Z" transform="translate(-414.192 -277.046)" fill="#fff"/>
          <path id="패스_855937" data-name="패스 855937" d="M423.1,351.64a.6.6,0,0,0,.342.488,5.4,5.4,0,0,0,2.777,0c.811-.2,2.318-.911,3.115-1s2.346-.223,2.735-.331a1.1,1.1,0,0,0,.882-1.076,2.414,2.414,0,0,0-.294-1.37l-.626.038.019.2s.578.8.194,1.408-1.82.517-2.7.621-2.133.815-3.347,1.024-2.668.384-3.1,0Z" transform="translate(-414.064 -276.91)" fill="#fff"/>
          <path id="패스_855938" data-name="패스 855938" d="M426.731,311.5c.152.617.275,1.219.38,1.8a.151.151,0,0,1,0,.033c.1.569.18,1.114.256,1.626,0,.019,0,.034.009.052.009.057.024.147.043.28s.038.26.057.384c.161,1.047.455,3.209.711,6.148a.315.315,0,0,1,0,.066c.1.976.195,2.3.27,3.7.019.322.038.649.052.981.09,1.834.161,3.707.2,5.077a.955.955,0,0,0,.507.815,1.721,1.721,0,0,0,.8.213,5.784,5.784,0,0,0,1.972-.26,4.176,4.176,0,0,0,1.109-.564,1.051,1.051,0,0,0,.422-.886c-.033-1.161-.1-4.238.019-7.314.152-3.9.455-11.244.455-11.244l-1.374-12.31-2.555-.569c.133-.715.275-1.535.374-2.114.076-.446.128-.75.128-.75h-5s0,.071-.009.209A57.8,57.8,0,0,0,426.731,311.5Z" transform="translate(-414.857 -259.901)" fill="url(#linear-gradient-13)"/>
          <path id="패스_855939" data-name="패스 855939" d="M433.68,300.109a56.094,56.094,0,0,0,2.934,18.709v.009c.625,1.564,1.109,2.829,1.241,3.366.28,1.1,1.545,12.192,1.849,14.869a2.893,2.893,0,0,0,.421,1.228,2.31,2.31,0,0,0,2.323,1.247,5.577,5.577,0,0,0,1.01-.2,7.443,7.443,0,0,0,1.289-.521.969.969,0,0,0,.531-.9c-.085-2.868-.46-15.448-.7-17.017a94.647,94.647,0,0,1-1.867-12.736,7.642,7.642,0,0,1,.317-3.038,8.137,8.137,0,0,0,.081-4.94l-.744.28c.014-.673.042-.976.042-.976l-.242,0-8.755.185Z" transform="translate(-417.456 -260.833)" fill="#0085ce"/>
          <path id="패스_855940" data-name="패스 855940" d="M442.2,305.418c-.261,2.493,2.583,13.57,2.882,16.415s1.223,17.505,1.223,17.505h0a7.444,7.444,0,0,0,1.289-.521.969.969,0,0,0,.531-.9c-.085-2.868-.46-15.448-.7-17.017a94.66,94.66,0,0,1-1.867-12.736,7.642,7.642,0,0,1,.317-3.038,8.137,8.137,0,0,0,.081-4.94l-.744.28c.014-.673.042-.976.042-.976l-.242,0c-1.588.877-2.934,1.716-2.934,1.716A14.8,14.8,0,0,1,442.2,305.418Z" transform="translate(-420.311 -260.833)" fill="#0c85ce"/>
          <path id="패스_855941" data-name="패스 855941" d="M440.526,298.788a5.345,5.345,0,0,1,.14.682.334.334,0,0,1-.14.326,9.621,9.621,0,0,1-1.888.9,9.771,9.771,0,0,1-4.025.427,27.574,27.574,0,0,1-8.219-2.941,2.165,2.165,0,0,1-.964-2.187l0-.017C425.529,295.406,440.526,298.788,440.526,298.788Z" transform="translate(-414.819 -259.655)" fill="#fff"/>
          <path id="패스_855942" data-name="패스 855942" d="M425.635,273.373c.015.534.032,1.073.047,1.611a17.729,17.729,0,0,1-.263,3.589c-.177,1-.39,2.236-.528,3.128-.275,1.768.2,3.053,1.086,3.584a.036.036,0,0,1,.019.009,24.057,24.057,0,0,0,7.869,2.887,8.376,8.376,0,0,0,.849.114,7.351,7.351,0,0,0,1.825-.076,5.974,5.974,0,0,0,.739-.161l.227-.071a3.2,3.2,0,0,0,.764-.354,2.271,2.271,0,0,0,1.327-1.951,12.405,12.405,0,0,0-.651-3.507c-.716-3.5,1.081-6.621,2.074-9.844.46-1.494.906-3,1.277-4.514a9.229,9.229,0,0,0,.461-2.963c0-.02-.005-.041-.009-.061a4.481,4.481,0,0,0-.161-.687,5.227,5.227,0,0,0-1.441-1.782,16.444,16.444,0,0,0-1.943-1.479c-.024-.015-.043-.029-.066-.043a15.206,15.206,0,0,0-1.488-.863c-.5-.251-1.143-.54-2.048-.9-.323-.128-.654-.242-.991-.346-.621-.189-1.256-.346-1.9-.478-.99-.209-2-.37-2.958-.555q-.249,0-.5.014a24,24,0,0,0-3.466.714s-1.045,1.953-1.622,3.1C423.248,263.312,425.121,270.047,425.635,273.373Z" transform="translate(-414.331 -247.07)" fill="#fff"/>
          <path id="패스_855943" data-name="패스 855943" d="M444.24,264.7c-1.474-2.526-5.157-3.762-5.8-3.971-1.978,2.912-4.267,2.98-4.267,2.98l-.1-1.251-.631.46-.427,6.745-.73-1.693.56-5.735,2.147-2.745,2.37-.284c.337.1.668.218.991.346a18.82,18.82,0,0,1,2.829,1.321l.062.037c.078.046.153.092.227.138l.258.162.16.1c.023.014.042.028.066.043a16.444,16.444,0,0,1,1.943,1.479v0a5.174,5.174,0,0,1,1.441,1.777c.012.035.025.074.038.119a5.311,5.311,0,0,1,.123.568h0C445.846,267.338,444.667,267.29,444.24,264.7Z" transform="translate(-417.085 -247.577)" fill="#e8ecf7"/>
          <path id="패스_855944" data-name="패스 855944" d="M432.6,261.374a6.775,6.775,0,0,0-.888.957c-.262.344-.441.734-.681,1.086a4.884,4.884,0,0,1-.045-1.1,7.441,7.441,0,0,1,.082-1.172,5.5,5.5,0,0,1,.788-2.075c.119.1.128.28.183.427.089.236.31.406.389.646s-.007.534.075.786" transform="translate(-416.656 -247.533)" fill="#e8ecf7"/>
          <path id="패스_855945" data-name="패스 855945" d="M438.14,254.4v2.665s-2.727,1.967-4.175,1.683c-.623-.123-.951-.92-.82-2.046l1.318-.266Z" transform="translate(-417.358 -245.998)" fill="#eaa9a9"/>
          <path id="패스_855946" data-name="패스 855946" d="M433.134,259.671l-1.551,1.82a5.475,5.475,0,0,1,.978-3.3c1.009-1.086,1.051-.148,1.051-.148S432.658,259.145,433.134,259.671Z" transform="translate(-416.854 -247.071)" fill="#fff"/>
          <path id="패스_855947" data-name="패스 855947" d="M429.356,247.231a15.391,15.391,0,0,0,.239,4.271c.461,2.04.6,2.5,1.423,2.863s1.563.4,2.945-.487a6.949,6.949,0,0,0,2.139-2.336s.2.13.69-.427a2.98,2.98,0,0,0,.922-2.493,8.258,8.258,0,0,0-1.218-4.22c-.921-1.547-3.751-1.053-5.034-.4A4.24,4.24,0,0,0,429.356,247.231Z" transform="translate(-416.103 -242.369)" fill="#ffcbcb"/>
          <path id="패스_855948" data-name="패스 855948" d="M427.567,246.836c1.412,2.5,4.934.853,4.934.853.261,1.085,1.019,1.185,1.384,1.384s.441,1.251.441,1.251h.332a7.568,7.568,0,0,1,.18-1.583.933.933,0,0,1,1.645-.161c.446.692-.066,1.465-.36,2.038a2.608,2.608,0,0,0,.091,1.289,4.331,4.331,0,0,0,.9-1.616,11.2,11.2,0,0,0,0-5.793,2.635,2.635,0,0,0-.289-.7c-1.081-1.825-4.162-2.181-5.37-1.768-1.043.356-3.626,1.531-4.11,3.2A2.034,2.034,0,0,0,427.567,246.836Z" transform="translate(-415.433 -241.875)" fill="#212121"/>
          <path id="패스_855949" data-name="패스 855949" d="M427.561,323.494c.019.133.038.26.057.384Q427.589,323.65,427.561,323.494Z" transform="translate(-415.53 -268.73)" fill="#3a3a3a"/>
          <path id="패스_855950" data-name="패스 855950" d="M427.483,323c0,.019,0,.034.009.052C427.488,323.018,427.483,323,427.483,323Z" transform="translate(-415.505 -268.567)" fill="#3a3a3a"/>
          <path id="패스_855951" data-name="패스 855951" d="M443.16,274.543a16.889,16.889,0,0,0,.466-3.777c-.079-1.5-.908-.158-.988,1.066a28.886,28.886,0,0,1-.8,3.871" transform="translate(-420.228 -251.163)" fill="#efefef" opacity="0.39"/>
          <path id="패스_855952" data-name="패스 855952" d="M438.62,257.972a2.588,2.588,0,0,1,.3.552,5.55,5.55,0,0,1,.189.619,7.211,7.211,0,0,1-4.179,3.282l-.349-2.479A7.3,7.3,0,0,0,438.62,257.972Z" transform="translate(-417.839 -247.172)" fill="#fff"/>
          <path id="패스_855953" data-name="패스 855953" d="M439.349,284.058c-.062-.3-.1-.472-.1-.472l1.873-2.034s.309,3.2.419,4.265,1.412,4.445,1.353,5.63-3.788,1.834-3.788,1.834a13.3,13.3,0,0,0,.954-4.39,21.737,21.737,0,0,0-.379-3.108c-.1-.594-.123-2.41-.911-2.442a1.639,1.639,0,0,0-.59.123c-1.01.346-2.413,1.92-3.407,2.313-.916.362-2.275,1.61-3.056.709.8-1.063,3.2-3.816,3.4-4.143.246-.413,3.683-8.285,4.281-9.3.386,2.323.7,5.193,1.09,7.516" transform="translate(-416.897 -252.132)" fill="#e8ecf7"/>
          <path id="패스_855954" data-name="패스 855954" d="M433.8,260.829l.25,1.77-.878.709-.911-.292-.049-1.035,1.13-1.326A.77.77,0,0,0,433.8,260.829Z" transform="translate(-417.06 -248.054)" fill="#0085ce"/>
          <path id="패스_855955" data-name="패스 855955" d="M431.948,264.86c0-.132.008-.264.013-.4l-.91-.294c.023.007-.629,3.477-.671,3.739-.521,3.242-.983,6.5-1.424,9.751-.2,1.512-.36,2.668-.417,3.129a.867.867,0,0,0,.048.426l.924,2.422a12.541,12.541,0,0,0,2.266-2.393C431.747,280.775,431.808,269.291,431.948,264.86Zm-2.013,6.112.012,0C429.936,271.01,429.93,271.02,429.935,270.972Z" transform="translate(-415.849 -249.211)" fill="#0085ce"/>
          <path id="패스_855956" data-name="패스 855956" d="M427.567,247.779c1.412,2.5,4.934.853,4.934.853.261,1.085,1.019,1.185,1.384,1.384s.441,1.251.441,1.251h.332a7.568,7.568,0,0,1,.18-1.583.933.933,0,0,1,1.645-.161c.446.692-.066,1.465-.36,2.038a2.608,2.608,0,0,0,.091,1.289,4.331,4.331,0,0,0,.9-1.616,11.2,11.2,0,0,0,0-5.793,2.635,2.635,0,0,0-.289-.7,17.288,17.288,0,0,1-4.077,2.636c-2.214.929-3.929.73-4.483.256a2.154,2.154,0,0,1-.915-1.455l0,0A2.034,2.034,0,0,0,427.567,247.779Z" transform="translate(-415.433 -242.818)" fill="#212121"/>
          <path id="패스_855957" data-name="패스 855957" d="M436.745,271.236c-1.144,3.447-2.055,7.015-3.958,10.411-3.506,2.833-6.087,5.912-8.86,8.533.531,1,.517,1.582,1.048,2.58.807-.194,7.733-5.081,10.626-6.955s3.743-3.549,5.075-6.729a28.741,28.741,0,0,0,2.075-10.787" transform="translate(-414.335 -250.566)" fill="#fff"/>
          <path id="패스_855958" data-name="패스 855958" d="M443.106,268.289l-1.048.131c-.01,3.111-1.514,7.976-2.636,10.656-1.331,3.179-2.182,4.855-5.075,6.729-2.269,1.469-7.007,4.784-9.34,6.243a6.239,6.239,0,0,0,.323.712c.807-.194,7.733-5.081,10.626-6.955s3.743-3.549,5.075-6.729A28.74,28.74,0,0,0,443.106,268.289Z" transform="translate(-414.69 -250.566)" fill="#e8ecf7"/>
          <path id="패스_855959" data-name="패스 855959" d="M416.383,305.266a9.2,9.2,0,0,0,1.13-.494,6.964,6.964,0,0,1,1.4-.344.6.6,0,0,1-.335.826,8.817,8.817,0,0,0-.871.5,4.713,4.713,0,0,1-2.185,1.884" transform="translate(-411.569 -262.454)" fill="#ffcbcb"/>
          <path id="패스_855960" data-name="패스 855960" d="M418.578,305.663a8.817,8.817,0,0,0-.871.5,4.713,4.713,0,0,1-2.185,1.884" transform="translate(-411.569 -262.863)" fill="none" stroke="#eaa9a9" stroke-miterlimit="10" stroke-width="0.25"/>
          <path id="패스_855961" data-name="패스 855961" d="M416.931,305.183c.1.088.5-.093.582-.133s1.25-.452,1.25-.452" transform="translate(-412.033 -262.513)" fill="none" stroke="#eaa9a9" stroke-miterlimit="10" stroke-width="0.25"/>
        </g>
        <g id="그룹_461113" data-name="그룹 461113" transform="translate(0 15.679)">
          <path id="패스_855962" data-name="패스 855962" d="M409.855,307.959l.761-.126s.5.33.595.633a3.282,3.282,0,0,1-.046,1.649l-2.628.35" transform="translate(-381.686 -279.256)" fill="#efefef"/>
          <path id="패스_855963" data-name="패스 855963" d="M377.642,293.832s6.012,7.238,7.32,7.489,13.676,1.9,13.676,1.9a1.222,1.222,0,0,1,.774.935,4.811,4.811,0,0,1-.364,1.785s-12.982,1.533-14.144,1.227-12.056-9.667-12.056-9.667" transform="translate(-370.179 -274.649)" fill="#0c85ce"/>
          <path id="패스_855964" data-name="패스 855964" d="M398.051,388.667a24.161,24.161,0,0,0,.45-4.2c.06-2.418-.542-5-3.238-5.426-4.218-.672-8.7-.12-12.889.538-3.47.544-7.993.541-10.817,2.9-4.339,3.625,1.276,8.236,4.3,10.311,5.789,3.976,14.177,9.03,19.693,1.731A14.344,14.344,0,0,0,398.051,388.667Z" transform="translate(-369.232 -302.583)" fill="#9be0e8" opacity="0.13"/>
          <path id="패스_855965" data-name="패스 855965" d="M376.912,392.464v.038a.214.214,0,0,0,.006.044.152.152,0,0,1,.013.056,1.6,1.6,0,0,0,1.42,1.064c.063.012.132.019.2.025a.38.38,0,0,0,.081.013,6.578,6.578,0,0,0,.8.012c.088-.006.176-.012.263-.025a6.284,6.284,0,0,0,2.529-1.378c.05-.044.075-.068.075-.068v-.219s.77-.513,1.052-.682c.858-.507,2.091-.939,3.268-1.521a3.457,3.457,0,0,0,.826-.557c.038-.038.075-.081.113-.113a.677.677,0,0,0,.069-.069c.025-.031.044-.068.068-.1.05-.068.094-.132.132-.188.019-.038.038-.068.05-.094l.044-.087a.532.532,0,0,0,.032-.094v-.007a1.534,1.534,0,0,0,.069-.444v-.77l-7.168,2.936-3.919,1.465Z" transform="translate(-371.515 -305.402)" fill="#212121"/>
          <path id="패스_855966" data-name="패스 855966" d="M381.09,386.705a28.37,28.37,0,0,0,3.157-.389c1.957-.335,3.307-.431,3.559.179.246.592.3,1.226-1.446,2.422s-3.1,1.321-4.5,2.448a4.9,4.9,0,0,1-3.014,1.105,2.04,2.04,0,0,1-1.975-.754,4.87,4.87,0,0,1,.019-2.858" transform="translate(-371.427 -304.991)" fill="#212121"/>
          <path id="패스_855967" data-name="패스 855967" d="M387.418,395.912l-.006.971a.91.91,0,0,0,.493.839,1.36,1.36,0,0,0,.423.119,14.844,14.844,0,0,0,3.08-.15v-.359s.664-.074,2.623-.317a11.687,11.687,0,0,0,4.055-1.208.88.88,0,0,0,.468-.779l0-.711-7.7,1.359Z" transform="translate(-374.97 -307.711)" fill="#212121"/>
          <path id="패스_855968" data-name="패스 855968" d="M392.748,391.61a3.131,3.131,0,0,0,1.865.807c1.008,0,2.974-.025,3.478.327a.826.826,0,0,1,.394.63,1.275,1.275,0,0,1-.268.782c-.378.554-2.924,1.386-4.84,1.537a28.428,28.428,0,0,0-2.923.277,4.467,4.467,0,0,1-2.423-.06c-.988-.489-1.056-1.981-.451-2.964S392.748,391.61,392.748,391.61Z" transform="translate(-374.898 -306.821)" fill="#212121"/>
          <path id="패스_855969" data-name="패스 855969" d="M378.871,280.248l-.157.363.238,1.2,3.831,1.928.225-.032.613-.075.964-.125v-1.327a1.74,1.74,0,0,1,1-1.614.322.322,0,0,1,.044-.019,1.867,1.867,0,0,0,.651-.439l.056-.056c.738-.782,1.4-2.541,1.208-6.391a7.4,7.4,0,0,0-.495-2.429c-.557-1.07-1.74-1.778-4.182-1.108-4.069,1.127-5.847,2.973-6.054,4.569S378.871,280.248,378.871,280.248Z" transform="translate(-371.478 -266.763)" fill="#ffcbcb"/>
          <path id="패스_855970" data-name="패스 855970" d="M387.933,288.758V287.43a1.74,1.74,0,0,1,1-1.614c-.2.087-.818.384-1.64.824-.329.176-.319,1.235-.319,2.243Z" transform="translate(-374.824 -272.012)" fill="#ffcbcb"/>
          <g id="그룹_461112" data-name="그룹 461112" transform="translate(19.283 11.303)">
            <g id="그룹_461111" data-name="그룹 461111">
              <path id="패스_855971" data-name="패스 855971" d="M397.608,294.386l8.121,4.173,3.7-11.857a.9.9,0,0,0-.43-1.056l-6.792-3.486a.644.644,0,0,0-.911.407Z" transform="translate(-397.608 -282.089)" fill="#fff"/>
              <path id="패스_855972" data-name="패스 855972" d="M398.4,294.371l7.236,3.739,3.449-11.011c.135-.5.111-.722-.4-.974l-6.337-3.274a.285.285,0,0,0-.4.18Z" transform="translate(-397.867 -282.329)" fill="#9be0e8"/>
              <path id="패스_855973" data-name="패스 855973" d="M405.823,288.926l2.242,1.157a.108.108,0,0,0,.153-.068l.618-2.049a.117.117,0,0,0-.056-.138l-2.242-1.157a.108.108,0,0,0-.153.068l-.618,2.049A.117.117,0,0,0,405.823,288.926Zm-1.648,5.184,1.737.9a.084.084,0,0,0,.118-.053l1.361-4.355a.091.091,0,0,0-.044-.107l-1.737-.9a.084.084,0,0,0-.118.053L404.131,294A.091.091,0,0,0,404.175,294.109Zm-1.013-3.9,1.331.687a.064.064,0,0,0,.091-.041l.021-.085a.069.069,0,0,0-.033-.082L403.24,290a.065.065,0,0,0-.091.041l-.02.085A.069.069,0,0,0,403.161,290.206Zm1.1,1.128a.114.114,0,0,0,.16-.072l.036-.152a.122.122,0,0,0-.058-.144l-2.358-1.217a.114.114,0,0,0-.161.072l-.036.151a.123.123,0,0,0,.059.145m-.134.439,2.358,1.217a.113.113,0,0,0,.16-.072l.037-.152a.123.123,0,0,0-.059-.144l-2.358-1.217a.113.113,0,0,0-.16.072l-.037.152A.123.123,0,0,0,401.77,290.557Zm-.133.44L404,292.213a.113.113,0,0,0,.16-.072l.036-.151a.123.123,0,0,0-.059-.145l-2.358-1.217a.114.114,0,0,0-.16.072l-.036.151A.123.123,0,0,0,401.638,291Zm-.134.439,2.358,1.217a.114.114,0,0,0,.16-.072l.037-.152a.123.123,0,0,0-.059-.144l-2.358-1.217a.113.113,0,0,0-.16.072l-.037.151A.124.124,0,0,0,401.5,291.436Zm-.134.439,2.358,1.217a.114.114,0,0,0,.161-.072l.036-.152a.122.122,0,0,0-.059-.144l-2.358-1.217a.114.114,0,0,0-.16.072l-.036.152A.122.122,0,0,0,401.371,291.876Zm1.317-4.31,2.46,1.269a.119.119,0,0,0,.168-.075l.678-2.247a.129.129,0,0,0-.062-.151l-2.459-1.269a.119.119,0,0,0-.168.074l-.678,2.248A.127.127,0,0,0,402.688,287.566Z" transform="translate(-398.825 -283.073)" fill="#fff"/>
            </g>
            <path id="패스_855974" data-name="패스 855974" d="M407.125,300.421l1.31,1.09.247.207a4.284,4.284,0,0,1,.83-1.732,3.407,3.407,0,0,1,1.015-.458.816.816,0,0,0,.435-.292,3.233,3.233,0,0,0,.435-2.45,1.472,1.472,0,0,0-.17-.552.016.016,0,0,1,0-.009c-.162-.278-.364-.269-.364-.269s-.884.629-1.14.817c-.211.157-.48.462-.686.234-.112-.117.534-.933.713-1.306s-.166-.776-.319-.633A9.048,9.048,0,0,0,408,297.32C407.636,298.281,407.125,300.421,407.125,300.421Z" transform="translate(-400.739 -286.349)" fill="#ffcbcb"/>
            <path id="패스_855975" data-name="패스 855975" d="M408.629,301.16l.3.933.247.207a4.284,4.284,0,0,1,.83-1.732,3.406,3.406,0,0,1,1.014-.458.816.816,0,0,0,.435-.292,3.232,3.232,0,0,0,.435-2.45,1.472,1.472,0,0,0-.17-.552.016.016,0,0,1,0-.009s-.009.229-.373.552a9.091,9.091,0,0,1-1.153.776,3.489,3.489,0,0,0-.889,1.337C409.056,300.065,408.629,301.16,408.629,301.16Z" transform="translate(-401.234 -286.931)" fill="#fdbbbb"/>
            <path id="패스_855976" data-name="패스 855976" d="M408.905,303.786l.229-.731a.578.578,0,0,0-.029-.422,3.446,3.446,0,0,0-.6-.925.9.9,0,0,0-1.1-.178,1.608,1.608,0,0,0-.284.553,1.847,1.847,0,0,0-.056.653c.019.049.486.717.54.776A12.539,12.539,0,0,0,408.905,303.786Z" transform="translate(-400.718 -288.447)" fill="#efefef"/>
          </g>
          <path id="패스_855977" data-name="패스 855977" d="M373.647,337.038c.908,4.958,1.559,11.1,1.559,11.1s-1.515,12.314.188,23.037a2.95,2.95,0,0,0,.9,2,2.44,2.44,0,0,0,2.1-.012c.032-.019.062-.032.094-.05,2.542-1.39,2.273-3.193,2.642-4.375-.006-4.77-.507-16.507.507-19.087l.908-10.4-.332-7.437h-9.1v.026l-.044-.026S372.295,333.807,373.647,337.038Z" transform="translate(-370.179 -287.145)" fill="url(#linear-gradient-14)"/>
          <path id="패스_855978" data-name="패스 855978" d="M379.048,335.391a14.588,14.588,0,0,0,1.966,4.757c.175.263.331.532.482.8.032.125.476,1.791,1.027,4.025s1.221,5.04,1.7,7.424c-.263,2.993-1,13.472.407,22.548a1.662,1.662,0,0,0,1.2,1.352,2.977,2.977,0,0,0,1,.107,2.528,2.528,0,0,0,.839-.2c1.49-.626,2.566-3.011,2.566-3.011s.038-15.074.82-19.03a17.545,17.545,0,0,0,.275-2.285c.144-2.423.407-6.843.488-8.689a75.85,75.85,0,0,0,.056-7.956l-7.455.094Z" transform="translate(-372.218 -288.271)" fill="#fff"/>
          <path id="패스_855979" data-name="패스 855979" d="M370.879,297.961c1.2,3.65,1.878,9.647,1.152,12.151a45.34,45.34,0,0,0-1.152,6.054c.682,1.878,7.043,5.947,10.592,6.26a5.326,5.326,0,0,0,1.3-.05c3.124-.463,6.054-3.236,6.054-3.236s-.676-10.279-1.1-16.852a37.864,37.864,0,0,0-1.334-8.425,10.006,10.006,0,0,0-.337-.989,14.8,14.8,0,0,0-2.923-2.273.113.113,0,0,1-.032-.013c-.958-.638-2.047-1.314-3.143-1.959h-.006c-1.459-.863-2.929-1.671-4.106-2.26q-.206-.1-.395-.188a9.413,9.413,0,0,0-1.809-.739c-1.671-.313-3.912.57-4.589,3.6S369.683,294.305,370.879,297.961Z" transform="translate(-368.869 -271.869)" fill="#0c85ce"/>
          <path id="패스_855980" data-name="패스 855980" d="M388.7,313.915c.213,2.8-.213,9.8-.376,12.307,3.124-.463,6.054-3.236,6.054-3.236s-.676-10.279-1.1-16.852a37.865,37.865,0,0,0-1.334-8.425c-.337-.388-.557-.633-.557-.633h-4.119s-2.141.438-1.365,5.315S388.441,310.473,388.7,313.915Z" transform="translate(-374.419 -275.716)" fill="#0c85ce"/>
          <path id="패스_855981" data-name="패스 855981" d="M418.213,275" transform="translate(-385.105 -268.453)" fill="#ccc"/>
          <path id="패스_855982" data-name="패스 855982" d="M378.515,288.111a7.082,7.082,0,0,0,6.26,2.416,3,3,0,0,1,1.415.451.113.113,0,0,0,.032.013.019.019,0,0,0,.012.006l-.613-.933-.714-.457s-1.045-.382-1.277-.488a2.667,2.667,0,0,0-.582-.1h-.006c-.619-.075-1.508-.138-1.647-.156a19.814,19.814,0,0,1-1.877-1.177c-.038-.026-.357-.551-.582-.927q-.206-.1-.395-.188A1.2,1.2,0,0,0,378.515,288.111Z" transform="translate(-371.954 -272.26)" fill="#0c85ce"/>
          <path id="패스_855983" data-name="패스 855983" d="M375.179,273.319c.35,2.091,2.122,5.377,3.017,5.678a5.237,5.237,0,0,0,1.477.282,1.41,1.41,0,0,0,1.452-1.152,6.712,6.712,0,0,1,.607-1.89c.626-1.159,1.446-1.765,1.859-1.547s.369.957.369.957l.269-.006s.026-.238.063-.557.062-.714.081-1.021a3.549,3.549,0,0,1,.72-2.166,8.6,8.6,0,0,0,1-1.846,3.38,3.38,0,0,0,.25-1.653v-.007a3.428,3.428,0,0,0-1.446-2.723c-2.025-1.482-6.26,1.271-7.825,2.585a5.394,5.394,0,0,0-1.753,2.491v.007A5.375,5.375,0,0,0,375.179,273.319Z" transform="translate(-370.916 -265.242)" fill="#212121"/>
          <path id="패스_855984" data-name="패스 855984" d="M378.937,286.245l.388-.36a9.01,9.01,0,0,0,5.868,2.9,5,5,0,0,1,1.175,1.993l-.533-.345a2.392,2.392,0,0,0-.923-.359c-.209-.033-.674-.056-.674-.056-2.09-.028-4.171-1.488-5.259-2.389A.917.917,0,0,1,378.937,286.245Z" transform="translate(-372.085 -272.034)" fill="#fff"/>
          <path id="패스_855985" data-name="패스 855985" d="M409.631,303.631" transform="translate(-382.281 -277.873)" fill="none" stroke="#381e1e" stroke-miterlimit="10" stroke-width="0.697"/>
          <path id="패스_855986" data-name="패스 855986" d="M415.5,289.528" transform="translate(-384.212 -273.233)" fill="none" stroke="#381e1e" stroke-miterlimit="10" stroke-width="0.697"/>
          <path id="패스_855987" data-name="패스 855987" d="M393.117,389.822a1.038,1.038,0,0,1-.132.189C393.038,389.943,393.083,389.878,393.117,389.822Z" transform="translate(-376.804 -306.232)" fill="#474747"/>
          <path id="패스_855988" data-name="패스 855988" d="M392.85,390.2c.027-.03.044-.067.068-.1-.04.053-.083.107-.138.168A.749.749,0,0,0,392.85,390.2Z" transform="translate(-376.737 -306.325)" fill="#474747"/>
          <path id="패스_855989" data-name="패스 855989" d="M387.281,299.952c.395,2.3,4.789,9.008,4.971,9.277a32.386,32.386,0,0,0,2.2,3.137h.006a4.075,4.075,0,0,0,1.365,1.283,1.369,1.369,0,0,0,.175.044,2.363,2.363,0,0,0,2.773-1.546,48.645,48.645,0,0,0,2.291-5.008,46.615,46.615,0,0,0,1.308-5.1,1.54,1.54,0,0,0-.157-1.127c-.019-.025-.031-.056-.05-.082-.244-.407-.582-.864-.883-.914-.551-.081-.657.063-.657.063s-1.008,1.621-1.81,2.873a23.7,23.7,0,0,0-1.6,3.38c-.075.213-.125.338-.125.338-1.453-3.374-3.349-7.518-4.119-9.252a3.13,3.13,0,0,0-5.24-.783.622.622,0,0,1-.062.075,1.257,1.257,0,0,0-.207.419l-.006-.006-.013.013C387.369,297.135,386.912,297.8,387.281,299.952Z" transform="translate(-374.88 -275.18)" fill="#0c85ce"/>
          <path id="패스_855990" data-name="패스 855990" d="M375.179,274.866c.35,2.091,2.122,5.377,3.017,5.678a5.237,5.237,0,0,0,1.477.282,1.41,1.41,0,0,0,1.452-1.152,6.712,6.712,0,0,1,.607-1.89c.626-1.159,1.446-1.765,1.859-1.547s.369.957.369.957l.269-.006s.026-.238.063-.557.062-.714.081-1.021a3.549,3.549,0,0,1,.72-2.166,8.6,8.6,0,0,0,1-1.847,3.38,3.38,0,0,0,.25-1.653,9.252,9.252,0,0,1-6.6,5.428c-4.92,1.033-4.457-2.874-4.426-3.074A5.375,5.375,0,0,0,375.179,274.866Z" transform="translate(-370.916 -266.79)" fill="#212121"/>
        </g>
      </g>
    </g>
  </g>
</svg>
