<svg xmlns="http://www.w3.org/2000/svg" width="109" height="109" viewBox="0 0 109 109"><g transform="translate(-0.199 0.199)"><rect width="109" height="109" transform="translate(0.199 -0.199)" fill="#fff"/><g transform="translate(0)"><rect width="109" height="109" transform="translate(0.199 -0.199)" fill="#fff"/><g transform="translate(2.161 2.791)"><path d="M625.156,772.98,603.279,751.1l-3.158,3.158L620.8,774.94c4.771,4.772,9.07,10.12,11.8,16.289a5.859,5.859,0,0,0,2.195,2.55,5.795,5.795,0,1,0,5.788-10.03A62.273,62.273,0,0,1,625.156,772.98Z" transform="translate(-538.812 -714.583)" fill="#fff"/><path d="M603.279,750.354a.748.748,0,0,1,.53.22l21.877,21.876c3.84,3.841,8.543,7.121,15.247,10.635a6.548,6.548,0,0,1,.491,11.311,6.507,6.507,0,0,1-7.036.012,6.629,6.629,0,0,1-2.472-2.876c-2.363-5.331-6.173-10.585-11.648-16.062l-20.678-20.678a.75.75,0,0,1,0-1.061l3.158-3.158A.748.748,0,0,1,603.279,750.354ZM637.9,793.935a4.93,4.93,0,0,0,2.707-.794,5.09,5.09,0,0,0,2.308-3.738,5.048,5.048,0,0,0-2.675-4.989,83.375,83.375,0,0,1-8.211-4.853,50.351,50.351,0,0,1-7.4-6.051l-21.346-21.345-2.1,2.1,20.147,20.148c5.608,5.609,9.52,11.012,11.959,16.515a5.134,5.134,0,0,0,1.917,2.225A4.923,4.923,0,0,0,637.9,793.935Z" transform="translate(-538.812 -714.583)" fill="#0d0d0d"/><path d="M7.267,0H43.415a7.267,7.267,0,0,1,7.267,7.267v2.3a0,0,0,0,1,0,0H0a0,0,0,0,1,0,0v-2.3A7.267,7.267,0,0,1,7.267,0Z" transform="translate(8.135 83.307)" fill="#fff"/><path d="M7.267-.75H43.415a8.026,8.026,0,0,1,8.017,8.017v2.3a.75.75,0,0,1-.75.75H0a.75.75,0,0,1-.75-.75v-2.3A8.026,8.026,0,0,1,7.267-.75ZM49.933,8.816V7.267A6.525,6.525,0,0,0,43.415.75H7.267A6.525,6.525,0,0,0,.75,7.267V8.816Z" transform="translate(8.135 83.307)" fill="#0d0d0d"/><path d="M6.022,0H60.93a6.022,6.022,0,0,1,6.022,6.022V9.566a0,0,0,0,1,0,0H0a0,0,0,0,1,0,0V6.022A6.022,6.022,0,0,1,6.022,0Z" transform="translate(0 92.873)" fill="#fff"/><path d="M6.022-.75H60.93A6.779,6.779,0,0,1,67.7,6.022V9.566a.75.75,0,0,1-.75.75H0a.75.75,0,0,1-.75-.75V6.022A6.779,6.779,0,0,1,6.022-.75ZM66.2,8.816V6.022A5.278,5.278,0,0,0,60.93.75H6.022A5.278,5.278,0,0,0,.75,6.022V8.816Z" transform="translate(0 92.873)" fill="#0d0d0d"/><rect width="41.428" height="27.833" transform="translate(34.029 38.535) rotate(-45)" fill="#00c9d8"/><rect width="7.863" height="38.243" rx="2.987" transform="translate(24.788 40.414) rotate(-45)" fill="#fff"/><path d="M2.987-.75h1.89A3.741,3.741,0,0,1,8.613,2.987v32.27a3.741,3.741,0,0,1-3.737,3.737H2.987A3.741,3.741,0,0,1-.75,35.257V2.987A3.741,3.741,0,0,1,2.987-.75Zm1.89,38.243a2.239,2.239,0,0,0,2.237-2.237V2.987A2.239,2.239,0,0,0,4.876.75H2.987A2.239,2.239,0,0,0,.75,2.987v32.27a2.239,2.239,0,0,0,2.237,2.237Z" transform="translate(24.788 40.414) rotate(-45)" fill="#0d0d0d"/><rect width="7.863" height="38.243" rx="2.987" transform="translate(59.642 5.56) rotate(-45)" fill="#fff"/><path d="M2.987-.75h1.89A3.741,3.741,0,0,1,8.613,2.987v32.27a3.741,3.741,0,0,1-3.737,3.737H2.987A3.741,3.741,0,0,1-.75,35.257V2.987A3.741,3.741,0,0,1,2.987-.75Zm1.89,38.243a2.239,2.239,0,0,0,2.237-2.237V2.987A2.239,2.239,0,0,0,4.876.75H2.987A2.239,2.239,0,0,0,.75,2.987v32.27a2.239,2.239,0,0,0,2.237,2.237Z" transform="translate(59.642 5.56) rotate(-45)" fill="#0d0d0d"/><path d="M0,6.636a.746.746,0,0,1-.374-.1A.75.75,0,0,1-.65,5.511l3.4-5.886A.75.75,0,0,1,3.773-.65.75.75,0,0,1,4.048.375L.65,6.261A.75.75,0,0,1,0,6.636Z" transform="translate(35.425 66.543)" fill="#0d0d0d"/><path d="M0,5.556a.748.748,0,0,1-.53-.22.75.75,0,0,1,0-1.061L4.276-.53a.75.75,0,0,1,1.061,0,.75.75,0,0,1,0,1.061L.53,5.336A.748.748,0,0,1,0,5.556Z" transform="translate(26.592 60.846)" fill="#0d0d0d"/><path d="M0,4.149a.75.75,0,0,1-.65-.375A.75.75,0,0,1-.375,2.749L5.511-.65a.75.75,0,0,1,1.025.275A.75.75,0,0,1,6.261.65L.375,4.048A.747.747,0,0,1,0,4.149Z" transform="translate(19.815 53.42)" fill="#0d0d0d"/></g></g></g></svg>