<svg xmlns="http://www.w3.org/2000/svg" width="109" height="109" viewBox="0 0 109 109"><g transform="translate(-0.199)"><rect width="109" height="109" transform="translate(0.199)" fill="#fff"/><g transform="translate(2.154 7.948)"><rect width="104.517" height="73.847" rx="3.942" transform="translate(0 0)" fill="#fff"/><path d="M3.942-.75h96.633a4.7,4.7,0,0,1,4.692,4.692V69.905a4.7,4.7,0,0,1-4.692,4.692H3.942A4.7,4.7,0,0,1-.75,69.905V3.942A4.7,4.7,0,0,1,3.942-.75ZM100.575,73.1a3.2,3.2,0,0,0,3.192-3.192V3.942A3.2,3.2,0,0,0,100.575.75H3.942A3.2,3.2,0,0,0,.75,3.942V69.905A3.2,3.2,0,0,0,3.942,73.1Z" transform="translate(0 0)" fill="#0d0d0d"/><rect width="58.806" height="89.476" transform="translate(96.996 7.521) rotate(90)" fill="#fff"/><path d="M0-.75H58.806a.75.75,0,0,1,.75.75V89.476a.75.75,0,0,1-.75.75H0a.75.75,0,0,1-.75-.75V0A.75.75,0,0,1,0-.75ZM58.056.75H.75V88.726H58.056Z" transform="translate(96.996 7.521) rotate(90)" fill="#0d0d0d"/><rect width="28.749" height="19.081" transform="translate(37.884 73.847)" fill="#00c9d8" style="mix-blend-mode:darken;isolation:isolate"/><path d="M48.129.75H0A.75.75,0,0,1-.75,0,.75.75,0,0,1,0-.75H48.129a.75.75,0,0,1,.75.75A.75.75,0,0,1,48.129.75Z" transform="translate(28.194 92.928)" fill="#0d0d0d"/><rect width="7.978" height="38.227" transform="translate(21.303 17.81)" fill="#00c9d8" style="mix-blend-mode:darken;isolation:isolate"/><rect width="7.978" height="18.379" transform="translate(34.786 37.658)" fill="#00c9d8" style="mix-blend-mode:darken;isolation:isolate"/><rect width="7.978" height="27.693" transform="translate(48.269 28.344)" fill="#00c9d8" style="mix-blend-mode:darken;isolation:isolate"/><rect width="7.978" height="12.524" transform="translate(61.753 43.513)" fill="#00c9d8" style="mix-blend-mode:darken;isolation:isolate"/><rect width="7.978" height="38.227" transform="translate(75.236 17.81)" fill="#00c9d8" style="mix-blend-mode:darken;isolation:isolate"/><path d="M73.911.75H0A.75.75,0,0,1-.75,0,.75.75,0,0,1,0-.75H73.911a.75.75,0,0,1,.75.75A.75.75,0,0,1,73.911.75Z" transform="translate(15.303 56.037)" fill="#0d0d0d"/></g></g></svg>