<svg xmlns="http://www.w3.org/2000/svg" xmlns:xlink="http://www.w3.org/1999/xlink" width="1760" height="756" viewBox="0 0 1760 756"><defs><linearGradient id="a" x1="0.716" y1="0.282" x2="-0.016" y2="1" gradientUnits="objectBoundingBox"><stop offset="0" stop-color="#00a2be"/><stop offset="1" stop-color="#003daa"/></linearGradient><clipPath id="b"><rect width="1760" height="490" rx="5" transform="translate(-10596 -24620)" fill="url(#a)"/></clipPath><linearGradient id="d" y1="0.5" x2="1" y2="0.5" gradientUnits="objectBoundingBox"><stop offset="0" stop-color="#009ead"/><stop offset="0.522" stop-color="#0090a9"/><stop offset="1" stop-color="#1b4692"/></linearGradient><linearGradient id="e" x1="0.795" y1="0.11" x2="0.255" y2="1.2" gradientUnits="objectBoundingBox"><stop offset="0" stop-color="#009ead"/><stop offset="0.532" stop-color="#0090a9"/><stop offset="1" stop-color="#1b4692"/></linearGradient><linearGradient id="f" x1="0.766" y1="-0.016" x2="0.322" y2="0.845" gradientUnits="objectBoundingBox"><stop offset="0" stop-color="#009ead"/><stop offset="0.483" stop-color="#0090a9"/><stop offset="1" stop-color="#1b4692"/></linearGradient><linearGradient id="h" x1="-0.155" y1="0.885" x2="0.565" y2="0.239" xlink:href="#e"/><linearGradient id="i" y1="0.5" x2="1" y2="0.5" gradientUnits="objectBoundingBox"><stop offset="0.006" stop-color="#b4b3c9"/><stop offset="1" stop-color="#e2ebfa"/></linearGradient><clipPath id="j"><path d="M1700.711,328l-21.969-48.494-72.984-4.146,9.469,103.052h0a12.717,12.717,0,0,0,.442,11.8c1.7,3.137,4.707,6.084,9,8.564,7.129,4.111,16.473,6.172,25.811,6.172s18.688-2.061,25.816-6.172c4.293-2.481,7.306-5.428,9-8.564a12.923,12.923,0,0,0,1.607-7.707l.078,0Z" transform="translate(-1605.759 -275.362)" fill="none"/></clipPath><linearGradient id="k" x1="-7.373" y1="20.297" x2="-6.359" y2="20.297" gradientUnits="objectBoundingBox"><stop offset="0" stop-color="#012336"/><stop offset="0.166" stop-color="#02273c"/><stop offset="1" stop-color="#0c3c59"/></linearGradient><linearGradient id="l" x1="-11.091" y1="98.883" x2="-10.091" y2="98.883" xlink:href="#k"/><linearGradient id="m" x1="-2.003" y1="18.098" x2="-1.003" y2="18.098" gradientUnits="objectBoundingBox"><stop offset="0" stop-color="#fccf04"/><stop offset="0.294" stop-color="#f6be0f"/><stop offset="0.645" stop-color="#f3b217"/><stop offset="1" stop-color="#f2af1a"/></linearGradient><linearGradient id="n" x1="-130.559" y1="-16.187" x2="-129.541" y2="-16.187" gradientUnits="objectBoundingBox"><stop offset="0.011" stop-color="#ffb870"/><stop offset="0.066" stop-color="#fdb56d"/><stop offset="0.363" stop-color="#f7ae67"/><stop offset="1" stop-color="#f6ac66"/></linearGradient><linearGradient id="o" x1="-426.623" y1="-51.071" x2="-425.609" y2="-51.071" gradientUnits="objectBoundingBox"><stop offset="0" stop-color="#ed54a4"/><stop offset="0.416" stop-color="#f058a7"/><stop offset="0.839" stop-color="#f964b2"/><stop offset="1" stop-color="#ff6bb9"/></linearGradient><linearGradient id="p" x1="-277.341" y1="-25.554" x2="-275.183" y2="-25.554" xlink:href="#n"/><linearGradient id="q" x1="9.928" y1="-12.172" x2="13.617" y2="-12.172" gradientUnits="objectBoundingBox"><stop offset="0" stop-color="#7bcbf2"/><stop offset="1" stop-color="#92dff5"/></linearGradient><linearGradient id="r" x1="0" y1="0.5" x2="1" y2="0.5" xlink:href="#q"/><linearGradient id="s" y1="0.5" x2="1" y2="0.5" gradientUnits="objectBoundingBox"><stop offset="0" stop-color="#e2e7f0"/><stop offset="1" stop-color="#f6f7f9"/></linearGradient><linearGradient id="u" x1="-1.795" y1="0.5" x2="-0.795" y2="0.5" xlink:href="#s"/><linearGradient id="v" y1="0.5" x2="1" y2="0.5" gradientUnits="objectBoundingBox"><stop offset="0" stop-color="#eb6c34"/><stop offset="0.994" stop-color="#f6ac66"/></linearGradient><linearGradient id="w" y1="0.5" x2="1" y2="0.5" gradientUnits="objectBoundingBox"><stop offset="0" stop-color="#f6f7f9"/><stop offset="0.565" stop-color="#f3f5f8"/><stop offset="0.828" stop-color="#eceff4"/><stop offset="1" stop-color="#e2e7f0"/></linearGradient><radialGradient id="ac" cx="0.5" cy="0.5" r="0.505" gradientTransform="matrix(0.624, 0.784, -0.747, 0.588, 1.185, 1.106)" gradientUnits="objectBoundingBox"><stop offset="0" stop-color="#fff"/><stop offset="0.072" stop-color="#d4d3d3"/><stop offset="0.164" stop-color="#a3a2a2"/><stop offset="0.262" stop-color="#787676"/><stop offset="0.363" stop-color="#545252"/><stop offset="0.468" stop-color="#373434"/><stop offset="0.578" stop-color="#201d1d"/><stop offset="0.697" stop-color="#100c0c"/><stop offset="0.828" stop-color="#070303"/><stop offset="1" stop-color="#040000"/></radialGradient></defs><g transform="translate(-80 97)"><g transform="translate(10676 24726)" clip-path="url(#b)"><rect width="1760" height="490" transform="translate(-10596 -24620)" fill="url(#a)"/><path d="M3124.29,781.057a.384.384,0,0,1-.077.309" transform="translate(-12419.019 -25292.705)" fill="none"/><ellipse cx="52.786" cy="52.786" rx="52.786" ry="52.786" transform="translate(-10561.638 -24595.551)" fill="#0090a9" opacity="0.2"/><g transform="translate(-9158.771 -24676.203)" opacity="0.1"><path d="M3338.993,96.81a106.535,106.535,0,0,1-41.729-8.425A106.838,106.838,0,0,1,3263.19,65.41a106.838,106.838,0,0,1-22.974-34.075,106.529,106.529,0,0,1-8.425-41.729,106.526,106.526,0,0,1,8.425-41.728A106.836,106.836,0,0,1,3263.19-86.2a106.838,106.838,0,0,1,34.075-22.974,106.535,106.535,0,0,1,41.729-8.425,106.533,106.533,0,0,1,41.729,8.425A106.842,106.842,0,0,1,3414.8-86.2a106.851,106.851,0,0,1,22.974,34.076,106.526,106.526,0,0,1,8.425,41.728,106.529,106.529,0,0,1-8.425,41.729A106.854,106.854,0,0,1,3414.8,65.41a106.843,106.843,0,0,1-34.075,22.975A106.533,106.533,0,0,1,3338.993,96.81Zm0-213.281A106.2,106.2,0,0,0,3232.916-10.394,106.2,106.2,0,0,0,3338.993,95.684,106.2,106.2,0,0,0,3445.071-10.394,106.2,106.2,0,0,0,3338.993-116.471Z" transform="translate(-3231.791 117.597)" fill="#1b4692"/></g><g transform="translate(-9705.069 -24442.83)" opacity="0.3"><path d="M512.15,2237.608a124.082,124.082,0,1,1,87.739-36.342A123.27,123.27,0,0,1,512.15,2237.608Zm0-245.752a121.671,121.671,0,1,0,121.672,121.671A121.809,121.809,0,0,0,512.15,1991.856Z" transform="translate(-388.068 -1989.445)" fill="#009ead"/></g><ellipse cx="204.196" cy="204.197" rx="204.196" ry="204.197" transform="translate(-9217.197 -24235.66) rotate(-79)" opacity="0.3" fill="url(#d)"/><path d="M1291.8,2435.1c-77.653,86.513-210.732,93.7-297.245,16.044l281.2-313.288C1362.272,2215.505,1369.455,2348.585,1291.8,2435.1Z" transform="translate(-10948.555 -26417.313)" opacity="0.2" fill="url(#e)"/><path d="M9.068,1242.446c-111.48,0-201.853,90.372-201.853,201.852S-102.413,1646.15,9.068,1646.15,210.92,1555.778,210.92,1444.3,120.547,1242.446,9.068,1242.446Zm0,293.1a91.25,91.25,0,1,1,91.25-91.25A91.25,91.25,0,0,1,9.068,1535.548Z" transform="translate(-10368.851 -25828.723)" opacity="0.2" fill="url(#f)"/><path d="M36.476,0A36.476,36.476,0,1,0,72.951,36.476,36.475,36.475,0,0,0,36.476,0Zm0,52.965A16.489,16.489,0,1,1,52.965,36.476,16.489,16.489,0,0,1,36.476,52.965Z" transform="matrix(0.391, -0.921, 0.921, 0.391, -9220.219, -24223.174)" opacity="0.2" fill="url(#f)"/><g transform="translate(-10222.743 -23901.684)" opacity="0.5"><path d="M1258.028,2680.279a2.244,2.244,0,1,1-3.174-.012A2.243,2.243,0,0,1,1258.028,2680.279Z" transform="translate(-1244.567 -2640.239)" fill="#fcfdfc"/><path d="M1230.314,2652.363a2.243,2.243,0,1,1-3.173-.011A2.245,2.245,0,0,1,1230.314,2652.363Z" transform="translate(-1226.479 -2622.018)" fill="#fcfdfc"/><path d="M1285.74,2708.2a2.243,2.243,0,1,1-3.172-.011A2.242,2.242,0,0,1,1285.74,2708.2Z" transform="translate(-1262.657 -2658.462)" fill="#fcfdfc"/><path d="M1286.727,2651.791a2.244,2.244,0,1,1-3.172-.012A2.244,2.244,0,0,1,1286.727,2651.791Z" transform="translate(-1263.302 -2621.644)" fill="#fcfdfc"/><path d="M1314.44,2679.707a2.243,2.243,0,1,1-3.173-.011A2.242,2.242,0,0,1,1314.44,2679.707Z" transform="translate(-1281.39 -2639.866)" fill="#fcfdfc"/><path d="M1315.433,2623.3a2.244,2.244,0,1,1-3.173-.012A2.244,2.244,0,0,1,1315.433,2623.3Z" transform="translate(-1282.037 -2603.046)" fill="#fcfdfc"/><path d="M1343.144,2651.215a2.243,2.243,0,1,1-3.175-.011A2.243,2.243,0,0,1,1343.144,2651.215Z" transform="translate(-1300.125 -2621.269)" fill="#fcfdfc"/><path d="M1259.015,2623.873a2.243,2.243,0,1,1-3.171-.013A2.241,2.241,0,0,1,1259.015,2623.873Z" transform="translate(-1245.213 -2603.421)" fill="#fcfdfc"/><path d="M1287.716,2595.381a2.243,2.243,0,1,1-3.173-.011A2.243,2.243,0,0,1,1287.716,2595.381Z" transform="translate(-1263.946 -2584.824)" fill="#fcfdfc"/><path d="M1344.131,2594.809a2.244,2.244,0,1,1-3.174-.013A2.245,2.245,0,0,1,1344.131,2594.809Z" transform="translate(-1300.769 -2584.45)" fill="#fcfdfc"/><path d="M1371.844,2622.726a2.244,2.244,0,1,1-3.172-.011A2.243,2.243,0,0,1,1371.844,2622.726Z" transform="translate(-1318.859 -2602.673)" fill="#fcfdfc"/><path d="M1312.025,2734.677a2.243,2.243,0,1,1-3.172-.013A2.241,2.241,0,0,1,1312.025,2734.677Z" transform="translate(-1279.813 -2675.744)" fill="#fcfdfc"/><path d="M1340.726,2706.186a2.244,2.244,0,1,1-3.173-.013A2.241,2.241,0,0,1,1340.726,2706.186Z" transform="translate(-1298.547 -2657.148)" fill="#fcfdfc"/><path d="M1369.426,2677.693a2.244,2.244,0,1,1-3.173-.01A2.242,2.242,0,0,1,1369.426,2677.693Z" transform="translate(-1317.28 -2638.551)" fill="#fcfdfc"/><path d="M1398.126,2649.2a2.244,2.244,0,1,1-3.173-.011A2.243,2.243,0,0,1,1398.126,2649.2Z" transform="translate(-1336.013 -2619.956)" fill="#fcfdfc"/><path d="M1316.417,2566.891a2.243,2.243,0,1,1-3.172-.012A2.241,2.241,0,0,1,1316.417,2566.891Z" transform="translate(-1282.681 -2566.228)" fill="#fcfdfc"/></g><g transform="translate(-9579.255 -24523.814)" opacity="0.4"><g transform="translate(0.001 0)"><path d="M1549,1522.975a3.248,3.248,0,1,1-3.261,3.235A3.245,3.245,0,0,1,1549,1522.975Z" transform="translate(-1525.974 -1461.937)" fill="#fcfdfc"/><path d="M1499.8,1522.8a3.245,3.245,0,1,1-3.26,3.233A3.248,3.248,0,0,1,1499.8,1522.8Z" transform="translate(-1496.536 -1461.833)" fill="#fcfdfc"/><path d="M1598.207,1523.161a3.246,3.246,0,1,1-3.257,3.234A3.241,3.241,0,0,1,1598.207,1523.161Z" transform="translate(-1555.413 -1462.048)" fill="#fcfdfc"/><path d="M1549.187,1472.4a3.247,3.247,0,1,1-3.261,3.234A3.248,3.248,0,0,1,1549.187,1472.4Z" transform="translate(-1526.083 -1431.678)" fill="#fcfdfc"/><path d="M1598.391,1472.576a3.246,3.246,0,1,1-3.257,3.235A3.244,3.244,0,0,1,1598.391,1472.576Z" transform="translate(-1555.523 -1431.785)" fill="#fcfdfc"/><path d="M1549.375,1421.8a3.248,3.248,0,1,1-3.259,3.234A3.248,3.248,0,0,1,1549.375,1421.8Z" transform="translate(-1526.197 -1401.409)" fill="#fcfdfc"/><path d="M1598.576,1421.989a3.246,3.246,0,1,1-3.26,3.235A3.243,3.243,0,0,1,1598.576,1421.989Z" transform="translate(-1555.632 -1401.521)" fill="#fcfdfc"/><path d="M1499.983,1472.217a3.245,3.245,0,1,1-3.259,3.231A3.245,3.245,0,0,1,1499.983,1472.217Z" transform="translate(-1496.648 -1431.57)" fill="#fcfdfc"/><path d="M1500.171,1421.625a3.247,3.247,0,1,1-3.257,3.237A3.245,3.245,0,0,1,1500.171,1421.625Z" transform="translate(-1496.762 -1401.303)" fill="#fcfdfc"/><path d="M1549.561,1371.223a3.247,3.247,0,1,1-3.26,3.233A3.247,3.247,0,0,1,1549.561,1371.223Z" transform="translate(-1526.308 -1371.15)" fill="#fcfdfc"/><path d="M1598.766,1371.4a3.247,3.247,0,1,1-3.257,3.235A3.249,3.249,0,0,1,1598.766,1371.4Z" transform="translate(-1555.747 -1371.257)" fill="#fcfdfc"/><path d="M1644.875,1523.332a3.246,3.246,0,1,1-3.258,3.235A3.245,3.245,0,0,1,1644.875,1523.332Z" transform="translate(-1583.332 -1462.15)" fill="#fcfdfc"/><path d="M1645.064,1472.75a3.247,3.247,0,1,1-3.259,3.233A3.245,3.245,0,0,1,1645.064,1472.75Z" transform="translate(-1583.444 -1431.889)" fill="#fcfdfc"/><path d="M1645.25,1422.158a3.246,3.246,0,1,1-3.257,3.237A3.244,3.244,0,0,1,1645.25,1422.158Z" transform="translate(-1583.557 -1401.622)" fill="#fcfdfc"/><path d="M1645.435,1371.572a3.247,3.247,0,1,1-3.259,3.235A3.245,3.245,0,0,1,1645.435,1371.572Z" transform="translate(-1583.666 -1371.359)" fill="#fcfdfc"/><path d="M1500.355,1371.041a3.246,3.246,0,1,1-3.257,3.234A3.245,3.245,0,0,1,1500.355,1371.041Z" transform="translate(-1496.872 -1371.041)" fill="#fcfdfc"/></g></g><g transform="translate(-8964.228 -24582.1)" opacity="0.4"><g transform="translate(-45 89)"><path d="M1548.562,1522.975a2.808,2.808,0,1,1-2.819,2.8A2.805,2.805,0,0,1,1548.562,1522.975Z" transform="translate(-1528.654 -1470.212)" fill="#fcfdfc"/><path d="M1499.354,1522.8a2.805,2.805,0,1,1-2.818,2.794A2.808,2.808,0,0,1,1499.354,1522.8Z" transform="translate(-1496.536 -1470.099)" fill="#fcfdfc"/><path d="M1597.765,1523.161a2.806,2.806,0,1,1-2.815,2.8A2.8,2.8,0,0,1,1597.765,1523.161Z" transform="translate(-1560.773 -1470.333)" fill="#fcfdfc"/><path d="M1548.744,1472.4a2.807,2.807,0,1,1-2.819,2.8A2.808,2.808,0,0,1,1548.744,1472.4Z" transform="translate(-1528.773 -1437.198)" fill="#fcfdfc"/><path d="M1597.949,1472.576a2.806,2.806,0,1,1-2.815,2.8A2.8,2.8,0,0,1,1597.949,1472.576Z" transform="translate(-1560.893 -1437.315)" fill="#fcfdfc"/><path d="M1548.933,1421.8a2.807,2.807,0,1,1-2.817,2.8A2.807,2.807,0,0,1,1548.933,1421.8Z" transform="translate(-1528.898 -1404.174)" fill="#fcfdfc"/><path d="M1598.135,1421.989a2.806,2.806,0,1,1-2.818,2.8A2.8,2.8,0,0,1,1598.135,1421.989Z" transform="translate(-1561.012 -1404.296)" fill="#fcfdfc"/><path d="M1499.541,1472.217a2.805,2.805,0,1,1-2.817,2.793A2.8,2.8,0,0,1,1499.541,1472.217Z" transform="translate(-1496.659 -1437.081)" fill="#fcfdfc"/><path d="M1499.729,1421.625a2.807,2.807,0,1,1-2.816,2.8A2.8,2.8,0,0,1,1499.729,1421.625Z" transform="translate(-1496.782 -1404.058)" fill="#fcfdfc"/><path d="M1549.119,1371.223a2.807,2.807,0,1,1-2.818,2.795A2.806,2.806,0,0,1,1549.119,1371.223Z" transform="translate(-1529.019 -1371.16)" fill="#fcfdfc"/><path d="M1598.324,1371.4a2.807,2.807,0,1,1-2.815,2.8A2.808,2.808,0,0,1,1598.324,1371.4Z" transform="translate(-1561.138 -1371.276)" fill="#fcfdfc"/><path d="M1644.434,1523.332a2.806,2.806,0,1,1-2.816,2.8A2.806,2.806,0,0,1,1644.434,1523.332Z" transform="translate(-1591.234 -1470.445)" fill="#fcfdfc"/><path d="M1644.622,1472.75a2.806,2.806,0,1,1-2.817,2.795A2.8,2.8,0,0,1,1644.622,1472.75Z" transform="translate(-1591.356 -1437.429)" fill="#fcfdfc"/><path d="M1644.808,1422.158a2.806,2.806,0,1,1-2.815,2.8A2.8,2.8,0,0,1,1644.808,1422.158Z" transform="translate(-1591.479 -1404.406)" fill="#fcfdfc"/><path d="M1644.993,1371.572a2.807,2.807,0,1,1-2.817,2.8A2.8,2.8,0,0,1,1644.993,1371.572Z" transform="translate(-1591.599 -1371.388)" fill="#fcfdfc"/><path d="M1499.913,1371.041a2.806,2.806,0,1,1-2.815,2.8A2.805,2.805,0,0,1,1499.913,1371.041Z" transform="translate(-1496.903 -1371.041)" fill="#fcfdfc"/></g></g><g transform="translate(-9710.941 -24519.521) rotate(45)" opacity="0.4"><path d="M1548.562,1522.975a2.808,2.808,0,1,1-2.819,2.8A2.805,2.805,0,0,1,1548.562,1522.975Z" transform="translate(-1528.654 -1470.212)" fill="#fcfdfc"/><path d="M1499.354,1522.8a2.805,2.805,0,1,1-2.818,2.794A2.808,2.808,0,0,1,1499.354,1522.8Z" transform="translate(-1496.536 -1470.099)" fill="#fcfdfc"/><path d="M1597.765,1523.161a2.806,2.806,0,1,1-2.815,2.8A2.8,2.8,0,0,1,1597.765,1523.161Z" transform="translate(-1560.773 -1470.333)" fill="#fcfdfc"/><path d="M1548.744,1472.4a2.807,2.807,0,1,1-2.819,2.8A2.808,2.808,0,0,1,1548.744,1472.4Z" transform="translate(-1528.773 -1437.198)" fill="#fcfdfc"/><path d="M1597.949,1472.576a2.806,2.806,0,1,1-2.815,2.8A2.8,2.8,0,0,1,1597.949,1472.576Z" transform="translate(-1560.893 -1437.315)" fill="#fcfdfc"/><path d="M1548.933,1421.8a2.807,2.807,0,1,1-2.817,2.8A2.807,2.807,0,0,1,1548.933,1421.8Z" transform="translate(-1528.898 -1404.174)" fill="#fcfdfc"/><path d="M1598.135,1421.989a2.806,2.806,0,1,1-2.818,2.8A2.8,2.8,0,0,1,1598.135,1421.989Z" transform="translate(-1561.012 -1404.296)" fill="#fcfdfc"/><path d="M1499.541,1472.217a2.805,2.805,0,1,1-2.817,2.793A2.8,2.8,0,0,1,1499.541,1472.217Z" transform="translate(-1496.659 -1437.081)" fill="#fcfdfc"/><path d="M1499.729,1421.625a2.807,2.807,0,1,1-2.816,2.8A2.8,2.8,0,0,1,1499.729,1421.625Z" transform="translate(-1496.782 -1404.058)" fill="#fcfdfc"/><path d="M1549.119,1371.223a2.807,2.807,0,1,1-2.818,2.795A2.806,2.806,0,0,1,1549.119,1371.223Z" transform="translate(-1529.019 -1371.16)" fill="#fcfdfc"/><path d="M1598.324,1371.4a2.807,2.807,0,1,1-2.815,2.8A2.808,2.808,0,0,1,1598.324,1371.4Z" transform="translate(-1561.138 -1371.276)" fill="#fcfdfc"/><path d="M1644.434,1523.332a2.806,2.806,0,1,1-2.816,2.8A2.806,2.806,0,0,1,1644.434,1523.332Z" transform="translate(-1591.234 -1470.445)" fill="#fcfdfc"/><path d="M1644.622,1472.75a2.806,2.806,0,1,1-2.817,2.795A2.8,2.8,0,0,1,1644.622,1472.75Z" transform="translate(-1591.356 -1437.429)" fill="#fcfdfc"/><path d="M1644.808,1422.158a2.806,2.806,0,1,1-2.815,2.8A2.8,2.8,0,0,1,1644.808,1422.158Z" transform="translate(-1591.479 -1404.406)" fill="#fcfdfc"/><path d="M1644.993,1371.572a2.807,2.807,0,1,1-2.817,2.8A2.8,2.8,0,0,1,1644.993,1371.572Z" transform="translate(-1591.599 -1371.388)" fill="#fcfdfc"/><path d="M1499.913,1371.041a2.806,2.806,0,1,1-2.815,2.8A2.805,2.805,0,0,1,1499.913,1371.041Z" transform="translate(-1496.903 -1371.041)" fill="#fcfdfc"/></g><g transform="matrix(0.819, 0.574, -0.574, 0.819, -9755.614, -24351.219)"><path d="M1627.9,1373.252l15.037,26.046h-30.075l15.038-26.046m0-2.778-1.2,2.084L1611.66,1398.6l-1.2,2.084h34.887l-1.2-2.084-15.038-26.046-1.2-2.084Z" transform="translate(-1449.161 -1450.453)" fill="#fff"/></g><g transform="translate(-9181.008 -24349.107) rotate(-51)"><path d="M12.388,1.973l10.679,18.5H1.709l10.679-18.5m0-1.973-.854,1.48L.854,19.976,0,21.456H24.775l-.854-1.48L13.243,1.48,12.388,0Z" transform="translate(0 0)" fill="#fff"/></g><g transform="translate(-9953.313 -24526.129)" opacity="0.4"><path d="M1906.239,258.8l10.118,17.526h-20.236l10.118-17.526m0-1.869-.81,1.4-10.118,17.526-.809,1.4h23.474l-.809-1.4-10.119-17.526-.81-1.4Z" transform="translate(-1894.502 -256.929)" fill="#d9ebff"/></g><g transform="translate(-9958.205 -24499.186)" opacity="0.4"><path d="M1897.043,337.161l14.337,24.831h-28.672l14.335-24.831m0-2.649L1895.9,336.5,1881.56,361.33l-1.146,1.987h33.259l-1.145-1.987L1898.191,336.5l-1.148-1.986Z" transform="translate(-1880.414 -334.512)" fill="#d9ebff"/></g><g transform="translate(-9812.313 -24267.133)"><path d="M839.426,1802.661l15.038,26.046H824.389l15.037-26.046m0-2.778-1.2,2.084-15.037,26.046-1.2,2.084H856.87l-1.2-2.084-15.037-26.046-1.2-2.084Z" transform="translate(-821.983 -1799.883)" fill="#fff"/></g><path d="M1511.929-377.229c-79.845,84.493-76.077,217.714,8.416,297.558l289.142-305.975C1724.995-465.49,1591.774-461.722,1511.929-377.229Z" transform="translate(-11561.795 -24410.309)" opacity="0.327" fill="url(#h)"/><ellipse cx="199.523" cy="115.349" rx="199.523" ry="115.349" transform="translate(-9514.252 -24421.014)" fill="#003daa" opacity="0.4"/><g transform="translate(-9193.81 -24514.15)"><path d="M1686.313,562.948a27.036,27.036,0,0,1-4.671,3.36c-8.7,5.024-20.951,6.751-32.088,5.173a44.532,44.532,0,0,1-15.9-5.173c-13.251-7.648-13.251-20.053,0-27.7a44.537,44.537,0,0,1,15.9-5.173c11.137-1.574,23.388.149,32.088,5.173a27.036,27.036,0,0,1,4.671,3.36C1693.337,548.349,1693.337,556.567,1686.313,562.948Z" transform="translate(-1610.965 -349.999)" fill="#bac3dd" opacity="0.5"/><g transform="translate(1.523 108.516)"><path d="M1694.308,428.167,1684.873,521c0,3.6-1.734,7.2-5.191,10.347a26.478,26.478,0,0,1-4.607,3.316,37,37,0,0,1-5.416,2.539,48.424,48.424,0,0,1-9.876,2.507,57.609,57.609,0,0,1-16.353.055,43.988,43.988,0,0,1-15.676-5.1c-6.532-3.774-9.8-8.719-9.8-13.664L1607.9,428.167Z" transform="translate(-1607.904 -428.167)" fill="#c3d6d5"/><path d="M1694.308,428.167,1684.873,521c0,3.6-1.734,7.2-5.191,10.347a26.478,26.478,0,0,1-4.607,3.316,37,37,0,0,1-5.416,2.539,48.424,48.424,0,0,1-9.876,2.507,57.609,57.609,0,0,1-16.353.055,43.988,43.988,0,0,1-15.676-5.1c-6.532-3.774-9.8-8.719-9.8-13.664L1607.9,428.167Z" transform="translate(-1607.904 -428.167)" fill="#212121"/></g><path d="M1694.306,417.988v.437c-.135,4.5-2.374,8.983-6.7,12.917a34.51,34.51,0,0,1-5.948,4.282,47.751,47.751,0,0,1-6.993,3.278,62.536,62.536,0,0,1-12.752,3.236,74.377,74.377,0,0,1-21.115.071,56.693,56.693,0,0,1-20.241-6.585c-16.875-9.74-16.875-25.533,0-35.273a56.7,56.7,0,0,1,20.241-6.585c14.181-2.008,29.78.189,40.859,6.585a34.766,34.766,0,0,1,5.948,4.276C1692.073,408.685,1694.3,413.34,1694.306,417.988Z" transform="translate(-1606.379 -309.472)" fill="#fff"/><path d="M1688.656,425.9c-1.7,3.137-4.708,6.084-9,8.564-7.129,4.111-16.473,6.172-25.816,6.172s-18.682-2.061-25.811-6.172c-4.294-2.481-7.306-5.428-9-8.564-3.951-7.246-.951-15.492,9-21.239,7.128-4.117,16.473-6.178,25.811-6.178s18.688,2.062,25.816,6.178C1689.607,410.409,1692.608,418.655,1688.656,425.9Z" transform="translate(-1609.116 -311.048)" fill="url(#i)"/><g transform="translate(0 0)"><g clip-path="url(#j)"><g transform="translate(10.044 43.729)"><path d="M1621.2,345.431l2.942-.527,6.178,14.673-9.82,1.76Z" transform="translate(-1620.075 -339.247)" fill="#fff"/><path d="M1651.819,485.05,1630.306,365c-.207-1.155-2.571-1.7-5.284-1.212a10.918,10.918,0,0,0-1.452.36c-1.947.624-3.25,1.674-3.082,2.611L1642,486.809Z" transform="translate(-1620.069 -344.669)" fill="#003daa"/><path d="M0,0H2.989a0,0,0,0,1,0,0V4.252A1.495,1.495,0,0,1,1.495,5.747h0A1.495,1.495,0,0,1,0,4.252V0A0,0,0,0,1,0,0Z" transform="translate(4.063 5.657) rotate(169.841)" fill="url(#k)"/><ellipse cx="4.988" cy="2.12" rx="4.988" ry="2.12" transform="matrix(0.984, -0.176, 0.176, 0.984, 21.559, 140.051)" fill="#fff"/><ellipse cx="2.174" cy="0.589" rx="2.174" ry="0.589" transform="matrix(0.984, -0.176, 0.176, 0.984, 24.599, 141.061)" fill="url(#l)"/><ellipse cx="4.988" cy="2.311" rx="4.988" ry="2.311" transform="matrix(0.982, -0.187, 0.187, 0.982, 0, 19.87)" fill="#fff"/></g><g transform="translate(27.458 22.524)"><path d="M1647.673,315.236l2.989-.067,3.84,15.451-9.974.223Z" transform="translate(-1644.454 -309.423)" fill="#fff"/><path d="M1657.222,458.035,1654.5,336.1c-.026-1.172-2.278-2.074-5.033-2.013a10.956,10.956,0,0,0-1.49.132c-2.02.316-3.469,1.152-3.448,2.1l2.724,121.932Z" transform="translate(-1644.453 -314.907)" fill="#9be0e8"/><path d="M0,0H2.989a0,0,0,0,1,0,0V4.252A1.495,1.495,0,0,1,1.495,5.747h0A1.495,1.495,0,0,1,0,4.252V0A0,0,0,0,1,0,0Z" transform="translate(6.208 5.746) rotate(178.72)" fill="#9be0e8"/><ellipse cx="4.988" cy="2.12" rx="4.988" ry="2.12" transform="translate(2.751 141.229) rotate(-1.28)" fill="#fff"/><ellipse cx="2.174" cy="0.589" rx="2.174" ry="0.589" transform="translate(5.598 142.697) rotate(-1.28)" fill="url(#m)"/><ellipse cx="4.988" cy="2.311" rx="4.988" ry="2.311" transform="translate(0 19.161) rotate(-1.875)" fill="#fff"/></g><g transform="translate(20.559 58.898)"><path d="M1638.97,546.356l-2.936-.564-.5-15.913,9.8,1.884Z" transform="translate(-1634.949 -408.03)" fill="url(#n)"/><path d="M1658.56,361.227,1635.534,481c-.222,1.152,1.79,2.508,4.5,3.027a10.91,10.91,0,0,0,1.485.185c2.04.116,3.634-.4,3.814-1.33l23.026-119.769Z" transform="translate(-1634.943 -359.147)" fill="#0085ce"/><path d="M0,0H2.989a0,0,0,0,1,0,0V4.252A1.495,1.495,0,0,1,1.495,5.747h0A1.495,1.495,0,0,1,0,4.252V0A0,0,0,0,1,0,0Z" transform="translate(1.085 137.762) rotate(10.882)" fill="url(#o)"/><ellipse cx="2.12" cy="4.988" rx="2.12" ry="4.988" transform="translate(23.212 4.164) rotate(-79.117)" fill="#fff"/><ellipse cx="0.589" cy="2.174" rx="0.589" ry="2.174" transform="translate(26.265 3.192) rotate(-79.117)" fill="#0c85ce"/><ellipse cx="2.311" cy="4.988" rx="2.311" ry="4.988" transform="translate(0.165 124.173) rotate(-79.713)" fill="url(#p)"/></g><g transform="translate(49.176 32.19)"><path d="M1696.922,328.744l2.975.29,1.972,15.8-9.929-.967Z" transform="translate(-1679.914 -323.024)" fill="#fff"/><path d="M1685.22,471.7l11.821-121.389c.114-1.168-2.014-2.331-4.757-2.6a11.009,11.009,0,0,0-1.495-.047c-2.042.073-3.582.731-3.674,1.678l-11.821,121.388Z" transform="translate(-1675.089 -328.508)" fill="#9be0e8"/><path d="M0,0H2.989a0,0,0,0,1,0,0V4.252A1.495,1.495,0,0,1,1.495,5.747h0A1.495,1.495,0,0,1,0,4.252V0A0,0,0,0,1,0,0Z" transform="matrix(-0.995, -0.097, 0.097, -0.995, 19.984, 6.01)" fill="#9be0e8"/><ellipse cx="2.12" cy="4.988" rx="2.12" ry="4.988" transform="translate(0 144.337) rotate(-84.438)" fill="#fff"/><ellipse cx="0.589" cy="2.174" rx="0.589" ry="2.174" transform="translate(2.949 143.086) rotate(-84.438)" fill="url(#q)"/><ellipse cx="2.311" cy="4.988" rx="2.311" ry="4.988" transform="translate(11.821 23.194) rotate(-85.033)" fill="#fff"/></g></g></g></g><g transform="translate(-9375.628 -24566.615)"><g transform="translate(-0.001 60.886)"><path d="M1437.73,313.742l-83.567-48.247c-2.446-1.412-4.428-5.2-4.428-8.462V243.1c0-3.261,1.983-4.759,4.428-3.348L1437.73,288c2.446,1.413,4.428,5.2,4.428,8.462v13.936C1442.159,313.654,1440.176,315.154,1437.73,313.742Z" transform="translate(-1349.735 -239.218)" fill="#003daa"/><ellipse cx="4.995" cy="8.652" rx="4.995" ry="8.652" transform="translate(4.517 13.455) rotate(-30)" fill="#fff"/><line x2="42.28" y2="24.41" transform="translate(23.757 17.5)" fill="none" stroke="#fff" stroke-miterlimit="10" stroke-width="1"/><line x2="6.687" y2="3.86" transform="translate(23.757 22.209)" fill="none" stroke="#fff" stroke-miterlimit="10" stroke-width="1"/><line x2="36.404" y2="21.018" transform="translate(33.261 27.696)" fill="none" stroke="#fff" stroke-miterlimit="10" stroke-width="1"/><line x2="21.019" y2="12.135" transform="translate(64.789 50.608)" fill="none" stroke="#fff" stroke-miterlimit="10" stroke-width="1"/><line x2="9.504" y2="5.487" transform="translate(23.757 26.918)" fill="none" stroke="#fff" stroke-miterlimit="10" stroke-width="1"/><line x2="24.347" y2="14.057" transform="translate(35.892 33.924)" fill="none" stroke="#fff" stroke-miterlimit="10" stroke-width="1"/><line x2="23.243" y2="13.419" transform="translate(23.757 31.628)" fill="none" stroke="#fff" stroke-miterlimit="10" stroke-width="1"/><line x2="4.728" y2="2.73" transform="translate(50.658 47.159)" fill="none" stroke="#fff" stroke-miterlimit="10" stroke-width="1"/></g><g transform="translate(22.659 43.523)"><path d="M1469.638,289.292l-83.566-48.247c-2.446-1.412-4.429-5.2-4.429-8.462V218.648c0-3.261,1.983-4.76,4.429-3.348l83.566,48.247c2.446,1.412,4.429,5.2,4.429,8.461v13.936C1474.067,289.205,1472.084,290.7,1469.638,289.292Z" transform="translate(-1381.643 -214.768)" fill="#9be0e8"/><ellipse cx="4.995" cy="8.652" rx="4.995" ry="8.652" transform="translate(4.517 13.455) rotate(-30)" fill="#fff"/><line x2="42.28" y2="24.41" transform="translate(23.757 17.5)" fill="none" stroke="#fff" stroke-miterlimit="10" stroke-width="1"/><line x2="6.687" y2="3.86" transform="translate(23.757 22.209)" fill="none" stroke="#fff" stroke-miterlimit="10" stroke-width="1"/><line x2="36.404" y2="21.018" transform="translate(33.261 27.696)" fill="none" stroke="#fff" stroke-miterlimit="10" stroke-width="1"/><line x2="21.019" y2="12.135" transform="translate(64.789 50.608)" fill="none" stroke="#fff" stroke-miterlimit="10" stroke-width="1"/><line x2="9.504" y2="5.487" transform="translate(23.757 26.918)" fill="none" stroke="#fff" stroke-miterlimit="10" stroke-width="1"/><line x2="24.347" y2="14.057" transform="translate(35.892 33.924)" fill="none" stroke="#fff" stroke-miterlimit="10" stroke-width="1"/><line x2="23.243" y2="13.419" transform="translate(23.757 31.628)" fill="none" stroke="#fff" stroke-miterlimit="10" stroke-width="1"/><line x2="4.728" y2="2.73" transform="translate(50.658 47.159)" fill="none" stroke="#fff" stroke-miterlimit="10" stroke-width="1"/></g><g transform="translate(-0.001 0)"><path d="M1437.73,228l-83.567-48.247c-2.446-1.412-4.428-5.2-4.428-8.462V157.361c0-3.261,1.983-4.76,4.428-3.348l83.567,48.247c2.446,1.412,4.428,5.2,4.428,8.462v13.936C1442.159,227.918,1440.176,229.417,1437.73,228Z" transform="translate(-1349.735 -153.481)" fill="#0085ce"/><ellipse cx="4.995" cy="8.652" rx="4.995" ry="8.652" transform="translate(4.517 13.455) rotate(-30)" fill="#fff"/><line x2="42.28" y2="24.41" transform="translate(23.757 17.5)" fill="none" stroke="#fff" stroke-miterlimit="10" stroke-width="1"/><line x2="6.687" y2="3.86" transform="translate(23.757 22.209)" fill="none" stroke="#fff" stroke-miterlimit="10" stroke-width="1"/><line x2="36.404" y2="21.018" transform="translate(33.261 27.696)" fill="none" stroke="#fff" stroke-miterlimit="10" stroke-width="1"/><line x2="21.019" y2="12.135" transform="translate(64.789 50.608)" fill="none" stroke="#fff" stroke-miterlimit="10" stroke-width="1"/><line x2="9.504" y2="5.487" transform="translate(23.757 26.918)" fill="none" stroke="#fff" stroke-miterlimit="10" stroke-width="1"/><line x2="24.347" y2="14.057" transform="translate(35.892 33.924)" fill="none" stroke="#fff" stroke-miterlimit="10" stroke-width="1"/><line x2="23.243" y2="13.419" transform="translate(23.757 31.628)" fill="none" stroke="#fff" stroke-miterlimit="10" stroke-width="1"/><line x2="4.728" y2="2.73" transform="translate(50.658 47.159)" fill="none" stroke="#fff" stroke-miterlimit="10" stroke-width="1"/></g></g><g transform="translate(-9534.298 -24461.967)"><g transform="translate(3.919 54.403)"><path d="M1233.129,596.526l-101.3-57.673,137.312-73.721,96.714,51.161Z" transform="translate(-1131.826 -436.951)" fill="#bac3dd"/><path d="M1233.583,610.209l-91.917-53.068V539.111l91.917,53.068Z" transform="translate(-1134.678 -458.394)" fill="#ededed"/><path d="M1233.583,594.514l-91.917-53.068v-2.334l91.917,53.068Z" transform="translate(-1134.678 -458.394)" fill="#dedede"/><g transform="translate(6.988 83.965)"><path d="M1233.583,596.877l-91.917-53.068v-.125l91.917,53.068Z" transform="translate(-1141.666 -543.684)" fill="#ddd"/><path d="M1233.583,598.348l-91.917-53.068v-.125l91.917,53.068Z" transform="translate(-1141.666 -544.111)" fill="#ddd"/><path d="M1233.583,599.82l-91.917-53.068v-.125l91.917,53.068Z" transform="translate(-1141.666 -544.537)" fill="#ddd"/><path d="M1233.583,601.291l-91.917-53.068V548.1l91.917,53.068Z" transform="translate(-1141.666 -544.963)" fill="#ddd"/><path d="M1233.583,602.762l-91.917-53.068v-.125l91.917,53.068Z" transform="translate(-1141.666 -545.39)" fill="#ddd"/><path d="M1233.583,604.233l-91.917-53.068v-.125l91.917,53.068Z" transform="translate(-1141.666 -545.816)" fill="#ddd"/><path d="M1233.583,605.7l-91.917-53.068v-.125l91.917,53.068Z" transform="translate(-1141.666 -546.243)" fill="#ddd"/><path d="M1233.583,607.175l-91.917-53.068v-.125l91.917,53.068Z" transform="translate(-1141.666 -546.669)" fill="#ddd"/><path d="M1233.583,608.646l-91.917-53.068v-.125l91.917,53.068Z" transform="translate(-1141.666 -547.095)" fill="#ddd"/><path d="M1233.583,610.118l-91.917-53.068v-.125l91.917,53.068Z" transform="translate(-1141.666 -547.522)" fill="#ddd"/><path d="M1233.583,611.589l-91.917-53.068V558.4l91.917,53.068Z" transform="translate(-1141.666 -547.948)" fill="#ddd"/><path d="M1233.583,613.06l-91.917-53.068v-.125l91.917,53.068Z" transform="translate(-1141.666 -548.375)" fill="#ddd"/><path d="M1233.583,614.531l-91.917-53.068v-.125l91.917,53.068Z" transform="translate(-1141.666 -548.801)" fill="#ddd"/><path d="M1233.583,616l-91.917-53.068v-.125l91.917,53.068Z" transform="translate(-1141.666 -549.227)" fill="#ddd"/></g><path d="M1235,557.915l-96.714-55.838,132.723-76.627,96.714,55.838Z" transform="translate(-1133.699 -425.45)" fill="#00a2be"/><path d="M1232.6,608.513V590.484l-91.916-53.068-2.4-1.385v-2.77L1235,589.1v23.569l-96.714-55.838v-2.77l2.4,1.385Z" transform="translate(-1133.699 -456.698)" fill="#9be0e8"/><path d="M1407.2,527.568,1274.474,604.2V580.662L1407.2,504.034Z" transform="translate(-1173.172 -448.227)" fill="#9be0e8"/><g transform="translate(57.268 132.87)"><path d="M1230.484,612.55l6.34,3.781s-6.513,2.559-9.426,11.639-8.832,11.284-8.832,11.284l-.364-4.531-5.734.26s6.856-3.8,7.868-10.048S1230.484,612.55,1230.484,612.55Z" transform="translate(-1212.468 -612.55)" fill="url(#r)"/></g></g><g transform="translate(0 20.185)"><path d="M1221.6,562.024l-91.917-53.068V490.927L1221.6,544Z" transform="translate(-1127.286 -410.21)" fill="url(#s)"/><path d="M1221.6,546.33l-91.917-53.068v-2.334L1221.6,544Z" transform="translate(-1127.286 -410.21)" fill="#dedede"/><g transform="translate(2.399 83.965)"><path d="M1221.6,548.693l-91.917-53.068V495.5l91.917,53.068Z" transform="translate(-1129.685 -495.5)" fill="#ddd"/><path d="M1221.6,550.164,1129.685,497.1v-.125l91.917,53.068Z" transform="translate(-1129.685 -495.927)" fill="#ddd"/><path d="M1221.6,551.635l-91.917-53.068v-.125L1221.6,551.51Z" transform="translate(-1129.685 -496.353)" fill="#ddd"/><path d="M1221.6,553.107l-91.917-53.068v-.125l91.917,53.068Z" transform="translate(-1129.685 -496.779)" fill="#ddd"/><path d="M1221.6,554.578l-91.917-53.068v-.125l91.917,53.068Z" transform="translate(-1129.685 -497.206)" fill="#ddd"/><path d="M1221.6,556.049l-91.917-53.068v-.125l91.917,53.068Z" transform="translate(-1129.685 -497.632)" fill="#ddd"/><path d="M1221.6,557.52l-91.917-53.068v-.125l91.917,53.068Z" transform="translate(-1129.685 -498.059)" fill="#ddd"/><path d="M1221.6,558.991l-91.917-53.068V505.8l91.917,53.068Z" transform="translate(-1129.685 -498.485)" fill="#ddd"/><path d="M1221.6,560.462l-91.917-53.068v-.125l91.917,53.068Z" transform="translate(-1129.685 -498.911)" fill="#ddd"/><path d="M1221.6,561.933l-91.917-53.068v-.125l91.917,53.068Z" transform="translate(-1129.685 -499.338)" fill="#ddd"/><path d="M1221.6,563.4l-91.917-53.068v-.125l91.917,53.068Z" transform="translate(-1129.685 -499.764)" fill="#ddd"/><path d="M1221.6,564.876l-91.917-53.068v-.125l91.917,53.068Z" transform="translate(-1129.685 -500.191)" fill="#ddd"/><path d="M1221.6,566.347l-91.917-53.068v-.125l91.917,53.068Z" transform="translate(-1129.685 -500.617)" fill="#ddd"/><path d="M1221.6,567.818l-91.917-53.068v-.125l91.917,53.068Z" transform="translate(-1129.685 -501.043)" fill="#ddd"/></g><path d="M1223.021,509.731l-96.714-55.837,132.723-76.627,96.714,55.838Z" transform="translate(-1126.307 -377.266)" fill="#003daa"/><path d="M1220.623,560.329V542.3l-91.917-53.068-2.4-1.385v-2.77l96.714,55.838v23.569l-96.714-55.838v-2.77l2.4,1.385Z" transform="translate(-1126.307 -408.514)" fill="#003daa"/><path d="M1395.217,479.384l-132.724,76.628V532.477l132.724-76.628Z" transform="translate(-1165.78 -400.043)" fill="#003086"/></g><g transform="translate(20.226 0)"><path d="M1250.083,533.6l-91.916-53.068V462.5l91.916,53.068Z" transform="translate(-1155.768 -381.787)" fill="url(#s)"/><path d="M1250.083,517.906l-91.916-53.068V462.5l91.916,53.068Z" transform="translate(-1155.768 -381.787)" fill="#dedede"/><g transform="translate(2.399 83.965)"><path d="M1250.083,520.27,1158.167,467.2v-.125l91.916,53.068Z" transform="translate(-1158.167 -467.077)" fill="#ddd"/><path d="M1250.083,521.741l-91.916-53.068v-.125l91.916,53.068Z" transform="translate(-1158.167 -467.503)" fill="#ddd"/><path d="M1250.083,523.212l-91.916-53.068v-.125l91.916,53.068Z" transform="translate(-1158.167 -467.93)" fill="#ddd"/><path d="M1250.083,524.683l-91.916-53.068v-.125l91.916,53.068Z" transform="translate(-1158.167 -468.356)" fill="#ddd"/><path d="M1250.083,526.155l-91.916-53.068v-.125l91.916,53.068Z" transform="translate(-1158.167 -468.783)" fill="#ddd"/><path d="M1250.083,527.626l-91.916-53.068v-.125l91.916,53.068Z" transform="translate(-1158.167 -469.209)" fill="#ddd"/><path d="M1250.083,529.1l-91.916-53.068V475.9l91.916,53.068Z" transform="translate(-1158.167 -469.635)" fill="#ddd"/><path d="M1250.083,530.568,1158.167,477.5v-.125l91.916,53.068Z" transform="translate(-1158.167 -470.062)" fill="#ddd"/><path d="M1250.083,532.039l-91.916-53.068v-.125l91.916,53.068Z" transform="translate(-1158.167 -470.488)" fill="#ddd"/><path d="M1250.083,533.51l-91.916-53.068v-.125l91.916,53.068Z" transform="translate(-1158.167 -470.915)" fill="#ddd"/><path d="M1250.083,534.981l-91.916-53.068v-.125l91.916,53.068Z" transform="translate(-1158.167 -471.341)" fill="#ddd"/><path d="M1250.083,536.453l-91.916-53.068v-.125l91.916,53.068Z" transform="translate(-1158.167 -471.767)" fill="#ddd"/><path d="M1250.083,537.924l-91.916-53.068v-.125l91.916,53.068Z" transform="translate(-1158.167 -472.194)" fill="#ddd"/><path d="M1250.083,539.395l-91.916-53.068V486.2l91.916,53.068Z" transform="translate(-1158.167 -472.62)" fill="#ddd"/></g><path d="M1251.5,481.308l-96.714-55.838,132.723-76.627,96.714,55.838Z" transform="translate(-1154.789 -348.843)" fill="#9be0e8"/><path d="M1249.1,531.906V513.876l-91.917-53.068-2.4-1.385v-2.77l96.714,55.837V536.06l-96.714-55.837v-2.77l2.4,1.385Z" transform="translate(-1154.789 -380.091)" fill="#00a2be"/><path d="M1423.7,450.961l-132.724,76.628V504.054L1423.7,427.427Z" transform="translate(-1194.261 -371.62)" fill="#00a2be"/><path d="M1178.679,439.408l-3.695-2.088L1308.567,360.2l3.695,2.088Z" transform="translate(-1160.642 -352.133)" fill="#fff"/><path d="M1178.679,470.885V473.6l-3.695-2.171V468.8Z" transform="translate(-1160.642 -383.611)" fill="#e5e5e5"/></g></g><g transform="translate(-9292.361 -24559.717)"><path d="M1568.961,257.61l-77.132-44.532c-4.188-2.417-7.991-2.428-10.811-.5l0-.006-6,3.458.822.617,1.929-.126a19.483,19.483,0,0,0-1.676,8.452V437.584c0,11.588,7.045,25.051,15.737,30.069l77.132,44.532a15.2,15.2,0,0,0,3.25,1.427l-1.38.345,1.719,2.946,6.347-3.694a7.826,7.826,0,0,0,.744-.433l.061-.035,0-.006c3.075-2.054,5-6.394,5-12.447V287.68C1584.7,276.091,1577.653,262.628,1568.961,257.61Z" transform="translate(-1469.313 -211.194)" fill="#9be0e8"/><path d="M1559.854,517.716l-77.132-44.532c-8.692-5.018-15.737-18.48-15.737-30.069V230.508c0-11.588,7.046-16.915,15.737-11.9l77.132,44.532c8.692,5.018,15.737,18.48,15.737,30.069V505.819C1575.591,517.408,1568.546,522.734,1559.854,517.716Z" transform="translate(-1466.985 -212.796)" fill="url(#u)"/><path d="M1470.376,446V232.975c0-9.938,6.043-14.506,13.5-10.2l76.8,44.339c7.454,4.3,13.5,15.849,13.5,25.786V505.92c0,9.938-6.042,14.506-13.5,10.2l-76.8-44.339C1476.419,467.481,1470.376,455.936,1470.376,446Z" transform="translate(-1467.968 -214.08)" fill="#fff"/><path d="M1561.3,273.37l-9.169-5.294c-.894-.516-1.619-.1-1.619.934h0c0,3.851-2.7,5.412-6.038,3.487l-41.133-23.748a13.347,13.347,0,0,1-6.038-10.458h0a3.577,3.577,0,0,0-1.618-2.8l-9.169-5.294c-5.793-3.345-10.489-.633-10.489,6.055V451.77c0,6.688,4.7,14.822,10.489,18.166l74.784,43.176c5.792,3.344,10.488.633,10.488-6.055V291.536C1571.79,284.848,1567.094,276.714,1561.3,273.37Z" transform="translate(-1469.606 -216.286)" fill="#212121"/><ellipse cx="1.255" cy="2.174" rx="1.255" ry="2.174" transform="translate(64.293 43.984) rotate(-30)" fill="#9be0e8"/><path d="M1546.843,267.313l-12.5-7.219a1.813,1.813,0,0,1-.757-1.447h0c0-.557.339-.814.757-.572l12.5,7.219a1.815,1.815,0,0,1,.757,1.447h0C1547.6,267.3,1547.26,267.554,1546.843,267.313Z" transform="translate(-1486.287 -224.756)" fill="#9be0e8"/><path d="M1551.072,593.684l-25.459-14.7a2.008,2.008,0,0,1-.839-1.6h0c0-.617.376-.9.839-.633l25.459,14.7a2.006,2.006,0,0,1,.838,1.6h0C1551.91,593.668,1551.535,593.951,1551.072,593.684Z" transform="translate(-1483.735 -317.119)" fill="#fff"/><g transform="translate(19.067 140.131)"><path d="M1556.067,520.073l-49.223-28.418c-3.22-1.86-5.831-6.847-5.831-11.141V425.759c0-4.294,2.611-6.267,5.831-4.408l49.223,28.419c3.22,1.859,5.831,6.847,5.831,11.141v54.754C1561.9,519.959,1559.287,521.932,1556.067,520.073Z" transform="translate(-1495.915 -412.035)" fill="url(#v)" style="mix-blend-mode:multiply;isolation:isolate"/><path d="M1524.661,478.942V441.675l30.8,36.418Z" transform="translate(-1502.769 -418.128)" fill="#fff"/><path d="M1554.869,437.636l-49.222-28.419a3.789,3.789,0,0,0-3.7-.371h0l-.034.019-5.033,2.821,2.934,11.936v44.757c0,4.294,2.61,9.282,5.831,11.141l40.965,23.651,7.045,7.89,4.587-2.615c1.485-.552,2.457-2.3,2.457-4.915V448.777C1560.7,444.483,1558.09,439.5,1554.869,437.636Z" transform="translate(-1494.718 -408.518)" fill="#00a2be"/><path d="M1548.889,511.955l-49.223-28.419c-3.221-1.859-5.831-6.847-5.831-11.141V417.641c0-4.294,2.611-6.267,5.831-4.408l49.223,28.419c3.22,1.859,5.83,6.847,5.83,11.141v54.754C1554.719,511.841,1552.108,513.814,1548.889,511.955Z" transform="translate(-1493.834 -409.682)" fill="#9be0e8"/><path d="M1517.483,482.959V445.691l30.8,36.418Z" transform="translate(-1500.688 -419.292)" fill="#fff"/></g><g transform="translate(53.22 82.95)"><path d="M1579.5,362.964a3.027,3.027,0,0,1,.231,1.581,2.54,2.54,0,0,1-.626,1.6,1.272,1.272,0,0,1-1.594.218,1.848,1.848,0,0,1-.557-.911,4.487,4.487,0,0,1-.33-1.95c.066-.618.515-1.594,1.226-1.682A1.949,1.949,0,0,1,1579.5,362.964Z" transform="translate(-1554.548 -354.021)" fill="#003daa"/><path d="M1563.781,447.605c-.05.435.778.769,1.254,1.212s1.555,0,1.555,0l5.953-3.444a10.3,10.3,0,0,0,.334-1.446,3.236,3.236,0,0,0-.268-1.5,9.6,9.6,0,0,0-.418-.928h-2.441s-.761.727-1.739,1.689A46.277,46.277,0,0,0,1563.781,447.605Z" transform="translate(-1552.444 -367.086)" fill="#ffcbcb"/><path d="M1575.75,452.543c-.05.794.744,1.446,1.379,1.739a2.135,2.135,0,0,0,2.258-.644c.744-.7.878-5.927.878-5.927a2.42,2.42,0,0,0,.125-.727,2.84,2.84,0,0,0-.059-.811,11.743,11.743,0,0,1,.134-2.976,1.785,1.785,0,0,0-1.63-1.1c-1.346-.15-1.4,1.664-1.4,1.664l.05,2.115a1.994,1.994,0,0,0-.36,1.4s-.067.217-.167.56v.008C1576.6,449.065,1575.792,451.924,1575.75,452.543Z" transform="translate(-1554.407 -367.182)" fill="#ffcbcb"/><g transform="translate(0.822 9.967)"><path d="M1572.839,367.52s-.4-3.325-2.429-3.095-1.9,3.732-1.583,7.106.584,7.83.584,7.83a1.348,1.348,0,0,0,1.836.955c1.4-.573,1.847-1.973,1.847-4.329S1572.839,367.52,1572.839,367.52Z" transform="translate(-1554.065 -364.413)" fill="#ffcbcb"/><path d="M1568.909,379.334s2.04-.573,2.061,1.119a3.247,3.247,0,0,1-2.573,3.031c-1.026.148-9.226.855-9.226.855s-1.127-.308-.985-1.2a1.3,1.3,0,0,1,.81-1.092,58.269,58.269,0,0,0,6.006-1.311A25.52,25.52,0,0,0,1568.909,379.334Z" transform="translate(-1552.348 -366.845)" fill="#ffcbcb"/><path d="M1558.173,384.668l-4.016,1.4-2.49-.508a2.136,2.136,0,0,1-.448-1.288c.106-.542.966-1.093.966-1.093l5.67-.581Z" transform="translate(-1551.205 -367.395)" fill="#ffcbcb"/></g><path d="M1566.429,396.031s-.161,10.841.713,15.847c0,0,.238,2.464,1.907,2.464s2.781.159,3.1-1.589,1.165-14.861,1.165-14.861-.313-4.592-3.449-4.053C1569.865,393.838,1567.623,392.9,1566.429,396.031Z" transform="translate(-1552.877 -359.25)" fill="#ffcbcb"/><path d="M1572.227,396.838s1.057,15.259,2.039,18.2,2.967,1.907,3.524.794,2.384-8.935,2.384-8.935,1.351-6.562.318-9.185c0,0-2.464-3.656-4.53-3.1A9.634,9.634,0,0,0,1572.227,396.838Z" transform="translate(-1553.83 -359.389)" fill="#ffcbcb"/><path d="M1568.207,416.931a5.262,5.262,0,0,1,.863,2.963c0,1.816,1.43,17.472,1.43,17.472s.476,1.351,1.43.874a1.781,1.781,0,0,0,.954-1.51s.343-7.062.688-9.094.425-6.562-.449-8.469a22.8,22.8,0,0,1-1.192-5.723s-1.351-1.669-2.623-.635S1567.742,414.139,1568.207,416.931Z" transform="translate(-1553.136 -362.327)" fill="#ffcbcb"/><path d="M1575.471,419.294a9.3,9.3,0,0,1,.957,3.771c.132,2.321.876,15.763.876,15.763s.219,1.094,1.094.963a2.068,2.068,0,0,0,1.927-1.521c.263-1.019,1-10.52,1-10.52s.492-4.827-1.171-8.456a29.547,29.547,0,0,1-.259-6.528s-2.413-1.618-3.814-.059S1574.628,416.593,1575.471,419.294Z" transform="translate(-1554.27 -362.254)" fill="#ffcbcb"/><path d="M1577.39,388.846a21.006,21.006,0,0,1,2.487,11.469,6.805,6.805,0,0,1-3.129,1.582c-1.474.118-10.342-5.232-10.342-5.232a29.616,29.616,0,0,1,1.323-10.757s1.326-1.588,5.817,0S1577.39,388.846,1577.39,388.846Z" transform="translate(-1552.866 -357.855)" fill="#0085ce"/><path d="M1580.184,368.2a3.819,3.819,0,0,1,1.473,4.382c-.956,2.81-3.26,6.575-3.541,8.6s-.609,3.8,0,5.222a4.922,4.922,0,0,1-3.99.229c-2.136-.843-5.86-2.552-6.386-3.5l.878-7.35a6.57,6.57,0,0,1-.224-5.339,32.771,32.771,0,0,1,1.687-4.5,1.845,1.845,0,0,1,2.7-1.349C1575.081,365.45,1580.184,368.2,1580.184,368.2Z" transform="translate(-1553.094 -354.447)" fill="#fff"/><g transform="translate(19.847 8.891)"><path d="M1578.233,366.459a3.372,3.372,0,0,1-.53-3.332,4.49,4.49,0,0,1-3.741,1.992v0a5.328,5.328,0,0,1,.247,3.133A8.622,8.622,0,0,0,1578.233,366.459Z" transform="translate(-1573.961 -363.127)" fill="#ffcbcb" fill-rule="evenodd"/><path d="M1573.961,365.119v0a4.888,4.888,0,0,0,3.536-.3,2.876,2.876,0,0,1,.206-1.7A4.489,4.489,0,0,1,1573.961,365.119Z" transform="translate(-1573.961 -363.127)" fill="#eaa9a9"/></g><path d="M1571.839,359.072a13.511,13.511,0,0,1,.825-3.462c.005,0,.017,0,.016.007a3.339,3.339,0,0,1,2.978-2.2c2.988-.178,4.871,1.528,4.571,4.734a8.274,8.274,0,0,1-.132.884,4.708,4.708,0,0,1-.911,1.342c-.346.353-.746.649-1.124.968-.627.532-1.2,1.13-1.8,1.684a4.682,4.682,0,0,1-3.25.38C1571.979,363.037,1571.634,361.168,1571.839,359.072Z" transform="translate(-1553.757 -352.642)" fill="#ffcbcb"/><path d="M1575.336,366.539l.193.006A.276.276,0,0,1,1575.336,366.539Z" transform="translate(-1554.339 -354.795)" fill="none"/><path d="M1575.75,453.5c-.05.794.744,1.446,1.379,1.739a2.135,2.135,0,0,0,2.258-.644c.744-.7.878-5.928.878-5.928a2.419,2.419,0,0,0,.125-.727,5.188,5.188,0,0,0-.736,1.522,11.135,11.135,0,0,1-.937,2.508c-.192.3-.56.6-.869.426a.727.727,0,0,1-.218-.234,5.6,5.6,0,0,1-.669-3.369C1576.6,450.026,1575.792,452.885,1575.75,453.5Z" transform="translate(-1554.407 -368.143)" fill="#fff"/><path d="M1563.781,447.787c-.05.435.778.769,1.254,1.212s1.555,0,1.555,0l5.953-3.444a10.3,10.3,0,0,0,.334-1.446,3.235,3.235,0,0,0-.268-1.5c-.485.234-.995.794-1.354.995a16,16,0,0,1-3.72,1.455c.142-.443.276-.895.41-1.338a.871.871,0,0,0,.067-.351A46.271,46.271,0,0,0,1563.781,447.787Z" transform="translate(-1552.444 -367.268)" fill="#fff"/><path d="M1579.76,408.654a1.681,1.681,0,0,1-.882,1.563,7.1,7.1,0,0,1-1.995,1.124c-1.738.531-3.567-.32-5.183-1.148l-4.4-2.256a2.563,2.563,0,0,1-.844-.589,2.536,2.536,0,0,1-.415-1.5q-.257-4.446-.133-8.9a16.556,16.556,0,0,1,1.031-6.179,1.251,1.251,0,0,1,.451-.614,1.215,1.215,0,0,1,.667-.114,10.642,10.642,0,0,1,6.228,2.938c1.18,1,2.273,2.107,3.468,3.1.911.753,1.875,1.137,2.056,2.369A42.559,42.559,0,0,1,1579.76,408.654Z" transform="translate(-1552.786 -358.648)" fill="#0085ce"/><path d="M1578.122,361.887a18.286,18.286,0,0,1,1.771-2.178c.866-1.122.742-1.747.759-3.165a3.873,3.873,0,0,0-1.965-3.521,5.921,5.921,0,0,0-5.062.16,3.13,3.13,0,0,0-1.148,3.21,6.951,6.951,0,0,0,2.548-1.344,7.171,7.171,0,0,0,.79,2.641,31.931,31.931,0,0,0,2.433,4.321l-.813-.885" transform="translate(-1553.856 -352.492)" fill="#003daa" fill-rule="evenodd"/><g transform="translate(0 8.779)"><path d="M1579.607,374.079s3.344-.173,3.252-2.213-3.594-2.149-6.982-2.061-7.852.05-7.852.05a1.349,1.349,0,0,0-1.078,1.767c.477,1.435,1.844,1.976,4.194,2.135S1579.607,374.079,1579.607,374.079Z" transform="translate(-1552.949 -364.106)" fill="#ffcbcb"/><path d="M1567.818,369.357s2.016.647,1.1,2.07a3.246,3.246,0,0,1-3.818,1.108c-.936-.442-8.165-4.377-8.165-4.377s-.771-.878-.159-1.546a1.3,1.3,0,0,1,1.279-.464,58.3,58.3,0,0,0,5.732,2.22A25.547,25.547,0,0,0,1567.818,369.357Z" transform="translate(-1551.258 -363.506)" fill="#ffcbcb"/><path d="M1556.141,367.542l-4.12-1.05-1.8-1.8a2.135,2.135,0,0,1,.337-1.321,2.448,2.448,0,0,1,1.409-.38l5.05,2.643Z" transform="translate(-1550.222 -362.993)" fill="#ffcbcb"/></g></g></g><g transform="translate(-9414.638 -24397.143)"><path d="M1315.94,553.443a16.4,16.4,0,0,1,4.02,3.085,2.041,2.041,0,0,0,1.039.571s3.552,0,3.6-1.049-1.2-1.4-1.2-1.4l-.852-1.028-4.041-4.882h-3.355l-.156.416v.01c-.291.779-.872,2.368-.987,2.877C1313.852,552.716,1314.787,553.028,1315.94,553.443Z" transform="translate(-1294.06 -460.757)" fill="#ffcbcb"/><path d="M1309.955,466.348a3.839,3.839,0,0,1,1.154,1.473,3.756,3.756,0,0,1,.159,1.288,5.42,5.42,0,0,1-.909,3.453c-.087.106-.226.216-.347.151a.318.318,0,0,1-.119-.164l-1.057-2.445a14.894,14.894,0,0,1-1.275-3.9c-.082-.626-.181-1.2.612-1A4.566,4.566,0,0,1,1309.955,466.348Z" transform="translate(-1294.312 -463.995)" fill="#212121"/><g transform="translate(12.885 13.523)"><path d="M1307.495,481.869s-1.18-3.99,1.248-4.725,4.005,3.321,5.3,7.326,3.19,9.221,3.19,9.221.255,1.957-1.624,1.993-3.078-1.343-4.238-4.03S1307.495,481.869,1307.495,481.869Z" transform="translate(-1307.208 -477.057)" fill="#ffcbcb"/><path d="M1315.49,491.37s-2.413-1.053-2.728,1.026a4.033,4.033,0,0,0,2.651,4.167c1.237.356,7.5,1.9,7.5,1.9s1.44-.187,1.417-1.312a1.615,1.615,0,0,0-.812-1.482s-.3-.5-3.457-1.913A31.552,31.552,0,0,1,1315.49,491.37Z" transform="translate(-1306.994 -476.513)" fill="#ffcbcb"/><path d="M1322.4,498l4.7,2.4,3.151-.2s.81-.824.771-1.508-1-1.51-1-1.51l-6.879-1.682Z" transform="translate(-1306.62 -476.343)" fill="#ffcbcb"/></g><path d="M1298.363,506.052a6.073,6.073,0,0,1,7.552,1.382c3.754,4.3,10.722,12.416,12,14.9,1.76,3.426-.884,4.293-2.356,3.82s-10.008-5.644-10.008-5.644-7-4.5-8.434-7.7c0,0-1.107-5.364,1.182-6.715Z" transform="translate(-1294.725 -462.44)" fill="#0085ce"/><path d="M1302.233,505.37a6.072,6.072,0,0,1,7.632-.837c4.828,3.043,13.827,8.827,15.757,10.837,2.667,2.779.382,4.367-1.163,4.336s-11.2-2.544-11.2-2.544-8-2.307-10.285-4.96c0,0-2.6-4.822-.79-6.773Z" transform="translate(-1294.543 -462.507)" fill="#0085ce"/><path d="M1298.872,501s-2.213,3.69-2.016,10.275a3.72,3.72,0,0,0,1.9,3.121,5.056,5.056,0,0,0,1.965.688c1.767.145,11.317-7.486,11.317-7.486s.553-4.114-1.586-10.25c0,0-1.589-1.971-6.972,0S1298.872,501,1298.872,501Z" transform="translate(-1294.725 -462.782)" fill="#0085ce"/><path d="M1298.521,480.208a4.748,4.748,0,0,0-2.595,5.126c.672,3.625,2.833,8.666,2.816,11.2s.068,4.781-.934,6.42a6.113,6.113,0,0,0,4.865,1c2.776-.654,7.66-2.089,8.476-3.156l.234-9.195s1.951-2.256,1.231-6.523a40.651,40.651,0,0,0-1.271-5.829,2.294,2.294,0,0,0-3.074-2.141C1305.286,477.735,1298.521,480.208,1298.521,480.208Z" transform="translate(-1294.763 -463.535)" fill="#fff"/><g transform="translate(7.683 11.317)"><path d="M1302.2,478.934a4.193,4.193,0,0,0,1.248-4,5.579,5.579,0,0,0,4.244,3.118h0a6.625,6.625,0,0,0-.863,3.808A10.723,10.723,0,0,1,1302.2,478.934Z" transform="translate(-1302.2 -474.933)" fill="#ffcbcb" fill-rule="evenodd"/><path d="M1307.648,478.051h0a6.068,6.068,0,0,1-4.293-1,3.579,3.579,0,0,0,.05-2.121A5.578,5.578,0,0,0,1307.648,478.051Z" transform="translate(-1302.155 -474.933)" fill="#ffcbcb"/></g><path d="M1310.723,473.258a16.83,16.83,0,0,0-.4-4.4c-.007,0-.021,0-.021.005a4.151,4.151,0,0,0-3.269-3.233c-3.642-.753-6.262,1.009-6.466,5a10.034,10.034,0,0,0,.005,1.11,5.819,5.819,0,0,0,.879,1.813c.363.5.8.931,1.208,1.392.676.765,1.268,1.6,1.917,2.391a5.81,5.81,0,0,0,3.927,1.049C1309.841,478.109,1310.6,475.871,1310.723,473.258Z" transform="translate(-1294.581 -463.983)" fill="#ffcbcb"/><path d="M1305.988,478.756l-.238-.028A.338.338,0,0,0,1305.988,478.756Z" transform="translate(-1294.38 -463.469)" fill="none"/><path d="M1307.026,471.357c-.521.308-1.1.5-1.627.808a2.3,2.3,0,0,0-1.159,1.334,4.159,4.159,0,0,0,.1,1.587,5.55,5.55,0,0,1-3.966,6.118c-.274.079-.621.114-.8-.111a.775.775,0,0,1-.1-.5l.163-7.783a22.924,22.924,0,0,1,.273-3.661,7.761,7.761,0,0,1,.684-2.13,5.49,5.49,0,0,1,3.368-2.808,4.772,4.772,0,0,1,4.253.878C1310.214,466.758,1308.978,470.2,1307.026,471.357Z" transform="translate(-1294.623 -464.038)" fill="#212121"/><path d="M1303.316,471.54a.427.427,0,0,0-.26-.032.41.41,0,0,0-.212.184,1.693,1.693,0,0,0-.215,1.267,2.744,2.744,0,0,0,.587,1.167,3.206,3.206,0,0,0,1.079.884c-.033-.016.036-1.9.019-2.14A1.583,1.583,0,0,0,1303.316,471.54Z" transform="translate(-1294.502 -463.749)" fill="#ffcbcb"/><path d="M1313.6,521.164a2.833,2.833,0,0,1,4.3,2.1,7,7,0,0,1,.032,1.391c-.183,1.652-.483,16.4.719,24.907,0,0-.556,1.226-1.555,1.3a3.136,3.136,0,0,1-1.974-.827l-2.1-14.227s-1.8-6.986-.738-12.729a2.855,2.855,0,0,1,1.316-1.912Z" transform="translate(-1294.14 -461.842)" fill="#0085ce"/><path d="M1315.94,553.427a16.394,16.394,0,0,1,4.02,3.085,2.041,2.041,0,0,0,1.039.571s3.552,0,3.6-1.049-1.2-1.4-1.2-1.4l-.852-1.028a1.835,1.835,0,0,1-.966.54,1.871,1.871,0,0,1-.675.094,2.371,2.371,0,0,1-1-.364,11.511,11.511,0,0,1-4.716-4.383,3.588,3.588,0,0,0-.2-.343c-.291.779-.872,2.368-.987,2.877C1313.852,552.7,1314.787,553.012,1315.94,553.427Z" transform="translate(-1294.06 -460.742)" fill="#fff"/><path d="M1324.091,546.995a16.383,16.383,0,0,1,4.02,3.085,2.042,2.042,0,0,0,1.039.571s3.553,0,3.6-1.049-1.2-1.4-1.2-1.4l-.852-1.028-4.041-4.882H1323.3l-.156.416v.01c-.291.779-.873,2.368-.987,2.877C1322,546.267,1322.938,546.579,1324.091,546.995Z" transform="translate(-1293.745 -461.007)" fill="#ffcbcb"/><path d="M1321.748,514.714a2.833,2.833,0,0,1,4.3,2.1,7,7,0,0,1,.033,1.391c-.183,1.653-.484,16.4.718,24.908,0,0-.556,1.226-1.555,1.3a3.137,3.137,0,0,1-1.975-.826l-2.1-14.228s-1.8-6.987-.737-12.73a2.855,2.855,0,0,1,1.316-1.912Z" transform="translate(-1293.824 -462.091)" fill="#0085ce"/><path d="M1324.091,546.979a16.386,16.386,0,0,1,4.02,3.085,2.041,2.041,0,0,0,1.039.571s3.553,0,3.6-1.049-1.2-1.4-1.2-1.4l-.852-1.028a1.835,1.835,0,0,1-.966.54,1.865,1.865,0,0,1-.675.094,2.368,2.368,0,0,1-1-.364,11.508,11.508,0,0,1-4.716-4.383,3.681,3.681,0,0,0-.2-.343c-.291.779-.873,2.368-.987,2.877C1322,546.252,1322.938,546.563,1324.091,546.979Z" transform="translate(-1293.745 -460.991)" fill="#fff"/><path d="M1317.317,506.019l1.605-11.5,7.315-1.661-1.8,11.873Z" transform="translate(-1293.932 -462.922)" fill="#fff"/><path d="M1324.168,504.9l1.8-11.873,5.289-4.574L1329.408,500Z" transform="translate(-1293.666 -463.092)" fill="#fff"/><g transform="translate(0.001 17.227)"><path d="M1294.869,485.15s-.608-4.115,1.9-4.5,3.5,3.851,4.22,8,1.861,9.577,1.861,9.577-.023,1.974-1.889,1.745-2.858-1.762-3.628-4.586S1294.869,485.15,1294.869,485.15Z" transform="translate(-1294.804 -480.622)" fill="#ffcbcb"/><path d="M1301.514,495.037s-2.233-1.392-2.847.618a4.035,4.035,0,0,0,2.016,4.51c1.172.533,10.706,4.227,10.706,4.227s1.452.025,1.593-1.091a1.615,1.615,0,0,0-.587-1.585,72.483,72.483,0,0,1-6.708-3.651A31.594,31.594,0,0,1,1301.514,495.037Z" transform="translate(-1294.661 -480.082)" fill="#ffcbcb"/><path d="M1310.817,503.813l4.3,3.062,3.147.26s.921-.7.982-1.38-.772-1.64-.772-1.64l-6.56-2.665Z" transform="translate(-1294.184 -479.816)" fill="#ffcbcb"/></g></g><g transform="translate(-9360.888 -24310.541)"><path d="M1384.846,642.837l-14.355-8.288,14.355-8.288,14.355,8.288Z" transform="translate(-1370.491 -580.673)" fill="#bac3dd" opacity="0.5"/><path d="M1391.255,624.5l-.929-.536-.929.536.929.536Z" transform="translate(-1375.971 -580.007)" fill="#323c58"/><path d="M1391.634,640.143l-.929.536V625.254l.929-.536Z" transform="translate(-1376.35 -580.226)" fill="#c7c7e3"/><path d="M1389.4,640.143l.929.536V625.254l-.929-.536Z" transform="translate(-1375.971 -580.226)" fill="#e9e9f4"/><path d="M1407.286,615.243l-.929-.536-.929.536.929.536Z" transform="translate(-1380.618 -577.324)" fill="#323c58"/><path d="M1407.665,630.886l-.929.536V616l.929-.536Z" transform="translate(-1380.997 -577.543)" fill="#c7c7e3"/><path d="M1405.428,630.886l.929.536V616l-.929-.536Z" transform="translate(-1380.618 -577.543)" fill="#e9e9f4"/><path d="M1375.223,615.238l-.929-.536-.929.536.929.536Z" transform="translate(-1371.325 -577.323)" fill="#323c58"/><path d="M1375.6,630.881l-.929.536V615.993l.929-.536Z" transform="translate(-1371.704 -577.542)" fill="#c7c7e3"/><path d="M1373.366,630.881l.929.536V615.993l-.929-.536Z" transform="translate(-1371.325 -577.542)" fill="#e9e9f4"/><path d="M1385.679,619.674l-12.314-7.109,12.313-7.109,12.314,7.109Z" transform="translate(-1371.325 -574.643)" fill="#eddde3"/><path d="M1385.679,617.368l-12.314-7.109,12.313-7.109,12.314,7.109Z" transform="translate(-1371.325 -573.974)" fill="url(#w)"/><path d="M1390.7,620.269v1.638l12.314-7.109V613.16Z" transform="translate(-1376.35 -576.876)" fill="#e9e9f4"/><path d="M1373.366,613.16V614.8l12.314,7.109v-1.638Z" transform="translate(-1371.325 -576.876)" fill="#e9e9f4"/><path d="M1414.5,631.408a12.588,12.588,0,0,0-3.627,1.741,2.939,2.939,0,0,1-.9.622,1.56,1.56,0,0,1-1.278-.214,4.661,4.661,0,0,1-.983-.912.926.926,0,0,1-.175-.266.755.755,0,0,1,.04-.48,14.357,14.357,0,0,1,.48-1.427,2.912,2.912,0,0,1,.362-.643c.3-.4.582-.34,1.055-.327.795.021,1.584.041,2.381.05.763.02,1.526.033,2.29.048a2.4,2.4,0,0,1,.826.114.825.825,0,0,1,.548.6C1415.6,630.847,1415.006,631.216,1414.5,631.408Z" transform="translate(-1381.221 -581.61)" fill="#ffcbcb"/><path d="M1414.5,631.432a12.589,12.589,0,0,0-3.627,1.741,2.939,2.939,0,0,1-.9.622,1.56,1.56,0,0,1-1.278-.214,4.656,4.656,0,0,1-.983-.912.923.923,0,0,1-.175-.266.755.755,0,0,1,.04-.48,14.336,14.336,0,0,1,.48-1.427,1.382,1.382,0,0,0,.438.473,2.162,2.162,0,0,0,3.347-1.3.372.372,0,0,0,.014-.089c.763.02,1.526.033,2.29.048a2.408,2.408,0,0,1,.826.114.825.825,0,0,1,.548.6C1415.6,630.871,1415.006,631.241,1414.5,631.432Z" transform="translate(-1381.221 -581.634)" fill="#212121"/><path d="M1404.76,623.039a2.522,2.522,0,0,1-.592.568,14.6,14.6,0,0,0-2.168,2.108,2.341,2.341,0,0,1-1.2.96,2.044,2.044,0,0,1-.743-.018,1.285,1.285,0,0,1-.81-.344,1.342,1.342,0,0,1-.139-1.106,5.833,5.833,0,0,1,.182-.9.963.963,0,0,1,.5-.6c.586-.26,1.184-.435,1.752-.743a1.373,1.373,0,0,0,.126-.067,4.348,4.348,0,0,1,2.519-.949.825.825,0,0,1,.617.315A.758.758,0,0,1,1404.76,623.039Z" transform="translate(-1378.772 -579.419)" fill="#ffcbcb"/><path d="M1404.76,623.039a2.522,2.522,0,0,1-.592.568,14.6,14.6,0,0,0-2.168,2.108,2.341,2.341,0,0,1-1.2.96,2.044,2.044,0,0,1-.743-.018,1.285,1.285,0,0,1-.81-.344,1.342,1.342,0,0,1-.139-1.106,5.833,5.833,0,0,1,.182-.9.5.5,0,0,0,.229.175,1.965,1.965,0,0,0,1.516.024,1.173,1.173,0,0,0,.81-1.039.462.462,0,0,0-.127-.338c-.06-.055-.139-.1-.175-.169a1.373,1.373,0,0,0,.126-.067,4.348,4.348,0,0,1,2.519-.949.825.825,0,0,1,.617.315A.758.758,0,0,1,1404.76,623.039Z" transform="translate(-1378.772 -579.419)" fill="#212121"/><path d="M1398.853,600.686a6.976,6.976,0,0,0-1.725,3.791c0,1.862,1.619,11.55,1.574,13.624,0,0,.565,1.149,1.259.73a2.517,2.517,0,0,0,.968-1.146s-.253-7.562-.054-9.9a14.941,14.941,0,0,1,.6-4.1c.332-.778,1.1-3.422-.629-3.526S1398.853,600.686,1398.853,600.686Z" transform="translate(-1378.212 -573.107)" fill="#003daa"/><path d="M1406.882,604.688s-1.7,1-1.764,4,1.879,10.477,2.081,14.4c0,0,.088,1.484,1.271,1.263s1.409.152,1.266-1.61-1.316-10.47-.624-13.528.51-4.243-.384-4.684A2.08,2.08,0,0,0,1406.882,604.688Z" transform="translate(-1380.527 -574.329)" fill="#003daa"/><path d="M1384.453,610.384s7.824-5.765,10.464-6.506,2.723-3.132.63-3.664-9.744,2.707-12.426,3.817-3.676,2.617-2.437,4.13S1381.878,610.695,1384.453,610.384Z" transform="translate(-1373.293 -573.107)" fill="#003daa"/><path d="M1399.053,603.4a6.392,6.392,0,0,1,2.631.311,3.236,3.236,0,0,1,1.519,1.025,1.593,1.593,0,0,1-.43,2.407,3.367,3.367,0,0,1-1.474.452c-2.194.225-6.787,2.435-10.411,4.019-.38.167-.748.322-1.1.474-3.738,1.574-4.6-2-4.6-2s-1.989-3.049.96-4.215l.007,0C1389.107,604.709,1397.129,603.54,1399.053,603.4Z" transform="translate(-1374.56 -574.043)" fill="#003daa"/><g transform="translate(4.74 9.391)"><path d="M1377.322,577.946s.314-2.827,2.039-2.648,1.643,3.155,1.4,6.024-.436,6.656-.436,6.656a1.145,1.145,0,0,1-1.552.825c-1.194-.476-1.583-1.662-1.6-3.663S1377.322,577.946,1377.322,577.946Z" transform="translate(-1377.167 -575.29)" fill="#ffcbcb"/><path d="M1380.372,591.278s-.125-1.795-1.485-1.328a2.758,2.758,0,0,0-1.687,2.926c.175.862,1.957,7.622,1.957,7.622s.569.814,1.243.444a1.1,1.1,0,0,0,.642-.961,49.364,49.364,0,0,1-.671-5.178A21.668,21.668,0,0,1,1380.372,591.278Z" transform="translate(-1377.167 -579.517)" fill="#ffcbcb"/><path d="M1380.159,604.446l.033,3.612,1.119,1.846a1.816,1.816,0,0,0,1.158-.01c.4-.24.6-1.086.6-1.086l-1.157-4.7Z" transform="translate(-1378.034 -583.643)" fill="#ffcbcb"/></g><path d="M1391.6,607.191v.007a3.541,3.541,0,0,1-.156,1.271c-.479,1.115-2.029,1.8-3.734,2.038a5.283,5.283,0,0,1-2.629-.433l-.019-.007a6.1,6.1,0,0,0-1.858-.448,3.793,3.793,0,0,1-3.6-3.117c-.3-1.477,1.086-6.362,1.367-7.564.185-.809.369-1.347.369-1.347l8.375,1.41s.013.078.033.205C1389.849,599.913,1391.6,605.629,1391.6,607.191Z" transform="translate(-1373.119 -572.363)" fill="#003daa"/><path d="M1390.021,588.481c.113.98.419,2.663.717,4.2-.014.021-.028.036-.042.057a4.252,4.252,0,0,1-3,1.527,10.568,10.568,0,0,1-3.43-.348,10.867,10.867,0,0,1-4.346-1.8,13.613,13.613,0,0,0,.284-3.153,73.13,73.13,0,0,0-1.214-7.506s-1.946-4.517,1.541-6.114l9.332,2.791s.271,1.129.6,2.592S1389.779,586.336,1390.021,588.481Z" transform="translate(-1372.799 -565.917)" fill="#fff"/><g transform="translate(14.938 11.578)"><path d="M1391.527,581.207s.034-2.844,1.768-2.836,1.946,2.978,1.986,5.856.224,6.666.224,6.666a1.146,1.146,0,0,1-1.464.974c-1.235-.356-1.739-1.5-1.955-3.487S1391.527,581.207,1391.527,581.207Z" transform="translate(-1391.527 -578.371)" fill="#ffcbcb"/><path d="M1395.812,594.169s-.3-1.773-1.609-1.175a2.759,2.759,0,0,0-1.391,3.078c.26.841,2.7,7.392,2.7,7.392s.646.753,1.281.319a1.1,1.1,0,0,0,.544-1.02,49.659,49.659,0,0,1-1.179-5.086A21.648,21.648,0,0,1,1395.812,594.169Z" transform="translate(-1391.876 -582.574)" fill="#ffcbcb"/><path d="M1396.812,607.312l.389,3.59,1.3,1.727a1.815,1.815,0,0,0,1.152-.125c.377-.278.488-1.139.488-1.139l-1.616-4.564Z" transform="translate(-1393.059 -586.611)" fill="#ffcbcb"/></g><path d="M1387.462,571.2a1.323,1.323,0,0,0,1.192-1.41c-.042-1.293-.139-5.985-2.066-6.6s-3.75-.423-4.835.954a3.7,3.7,0,0,0,.594,5.088A8.449,8.449,0,0,0,1387.462,571.2Z" transform="translate(-1373.537 -562.297)" fill="#ffcbcb"/><path d="M1387.349,575.855a.31.31,0,0,1,.036.233.287.287,0,0,1-.164.132,3.3,3.3,0,0,1-2.512.03,3.554,3.554,0,0,1-1.844-1.719,1.409,1.409,0,0,0,.574-1.128,11.341,11.341,0,0,0,.1-1.4.32.32,0,0,1,.049-.206.3.3,0,0,1,.249-.072,3.656,3.656,0,0,1,1.416.449c.4.2.786.4,1.17.622.3.172.7.2.721.575.02.412-.13.832-.1,1.261A3.932,3.932,0,0,0,1387.349,575.855Z" transform="translate(-1374.078 -564.867)" fill="#f2d9c2"/><path d="M1387.069,564.764c-.349.351-.869.489-1.22.837a2.081,2.081,0,0,0,.172,2.673,3.238,3.238,0,0,1,.593.843c.28.757-.286,1.6-.111,2.39.169.759.957,1.212,1.3,1.907a2.459,2.459,0,0,1-.5,2.6,3.756,3.756,0,0,1-4.763.661,4.254,4.254,0,0,0-1.045-.634,7.452,7.452,0,0,0-1.478-.065,2.094,2.094,0,0,1-1.608-3.14c.34-.582.941-.971,1.3-1.54a3.988,3.988,0,0,0,.237-2.955,8.114,8.114,0,0,1-.354-3,3.767,3.767,0,0,1,1.718-2.474,5.537,5.537,0,0,1,2.953-.8C1385.444,562.059,1388.807,563.021,1387.069,564.764Z" transform="translate(-1372.706 -562.067)" fill="#212121"/><g transform="translate(13.426 26.897)"><path d="M1391.255,600.478l-.929-.536-.929.536.929.536Z" transform="translate(-1389.397 -599.942)" fill="#323c58"/><g transform="translate(0.929 0.536)"><path d="M1391.634,616.121l-.929.536V601.233l.929-.536Z" transform="translate(-1390.705 -600.697)" fill="#c7c7e3"/></g><g transform="translate(0 0.536)"><path d="M1389.4,616.121l.929.536V601.233l-.929-.536Z" transform="translate(-1389.397 -600.697)" fill="#e9e9f4"/></g></g><path d="M1375.223,591.217l-.929-.536-.929.536.929.536Z" transform="translate(-1371.325 -570.36)" fill="#323c58"/><path d="M1375.6,606.86l-.929.536V591.972l.929-.536Z" transform="translate(-1371.704 -570.579)" fill="#c7c7e3"/><path d="M1373.366,606.86l.929.536V591.972l-.929-.536Z" transform="translate(-1371.325 -570.579)" fill="#e9e9f4"/><path d="M1385.679,598.548l-12.314-7.112v8.312l12.314,7.112Z" transform="translate(-1371.325 -570.579)" fill="url(#s)"/><path d="M1373.366,591.217l12.314,7.112.929-.536-12.314-7.113Z" transform="translate(-1371.325 -570.36)" fill="url(#w)"/></g><g transform="translate(-9326.195 -24295.486)"><path d="M1433.7,669.378l-14.355-8.288L1433.7,652.8l14.355,8.288Z" transform="translate(-1419.343 -603.428)" fill="#bac3dd" opacity="0.5"/><path d="M1428.022,602.822s.689-1.658,2.72-.17,5.855,9.635,5.855,9.635.741,1.6-.432,2.372-2.838-.4-2.838-.4l-5.306-7.095A3.684,3.684,0,0,1,1428.022,602.822Z" transform="translate(-1421.644 -588.712)" fill="#212121"/><path d="M1438.48,616.61l7.186-5.848s1.224-.765.56-1.479-1.224-.561-1.988-.306-7.545,4.13-7.545,4.13a2.1,2.1,0,0,0-1.05,3.1A1.666,1.666,0,0,0,1438.48,616.61Z" transform="translate(-1423.959 -590.664)" fill="#323c58"/><path d="M1448.315,607.821l2.917-2.043,2.565-.619.663,2.256-2.654,1.725-2.421.577s-1.162.352-1.25-.533A2.109,2.109,0,0,1,1448.315,607.821Z" transform="translate(-1427.679 -589.619)" fill="#f2d9c2"/><path d="M1445.591,652.818a.874.874,0,0,0,.054.5.808.808,0,0,0,.358.3,3.97,3.97,0,0,0,1.258.408,1.247,1.247,0,0,0,1.1-.247c.345-.364.229-.955.39-1.431a1.646,1.646,0,0,1,.8-.877,4.385,4.385,0,0,1,1.148-.382,1.651,1.651,0,0,0,.768-.312,1.4,1.4,0,0,0,.316-.482,5.69,5.69,0,0,0,.436-1.456,1,1,0,0,0-.016-.512.805.805,0,0,0-.569-.443,2.388,2.388,0,0,0-1.662.311,8.818,8.818,0,0,1-1.552.756c-.673.192-1.889.014-2.236.755A9.892,9.892,0,0,0,1445.591,652.818Z" transform="translate(-1426.948 -601.987)" fill="#fff"/><path d="M1458.847,657.141a2.148,2.148,0,0,0,.467,1.416,1.64,1.64,0,0,0,1.9.383c.635-.311,1.008-1.011,1.637-1.334a3.292,3.292,0,0,1,.843-.256l2.1-.435a2.38,2.38,0,0,0,1.376-.616,1.733,1.733,0,0,0,.361-1.094,1.162,1.162,0,0,0-.3-.918,1.211,1.211,0,0,0-.6-.243c-1.672-.291-3.344.418-5.037.536a6.712,6.712,0,0,0-1.576.176C1458.937,655.1,1458.847,656.16,1458.847,657.141Z" transform="translate(-1430.793 -603.768)" fill="#fff"/><path d="M1453.863,631s-2.37.453-1.653,3.814,4.455,14.169,4.455,14.169a1.617,1.617,0,0,0,1.691.717,4.14,4.14,0,0,0,2.492-2.664c.1-.973-.7-2.1-1.58-6.147a46.677,46.677,0,0,1-1.044-6.608c-.1-.922-.805-4.013-2.8-3.647S1453.863,631,1453.863,631Z" transform="translate(-1428.83 -596.995)" fill="#003daa"/><path d="M1448.328,627.263s-2.069-.177-2.493,3.213-.189,14.029-.189,14.029.236,1.148,1.163,1.118a2.58,2.58,0,0,0,2.4-1.27c.376-.9.058-2.185.558-6.27a54.224,54.224,0,0,1,1.133-6.57c.194-.906.549-4.034-1.19-4.2S1448.328,627.263,1448.328,627.263Z" transform="translate(-1426.948 -596.014)" fill="#003daa"/><path d="M1440.107,653.016l-.929-.536-.928.536.928.536Z" transform="translate(-1424.823 -603.334)" fill="#323c58"/><path d="M1440.486,668.66l-.929.536V653.772l.929-.536Z" transform="translate(-1425.202 -603.553)" fill="#c7c7e3"/><path d="M1438.25,668.66l.928.536V653.772l-.928-.536Z" transform="translate(-1424.823 -603.553)" fill="#e9e9f4"/><path d="M1456.139,643.76l-.929-.536-.929.536.929.536Z" transform="translate(-1429.47 -600.651)" fill="#323c58"/><path d="M1456.518,659.4l-.929.536V644.515l.929-.536Z" transform="translate(-1429.849 -600.87)" fill="#c7c7e3"/><path d="M1454.281,659.4l.929.536V644.515l-.929-.536Z" transform="translate(-1429.47 -600.87)" fill="#e9e9f4"/><path d="M1424.076,643.756l-.928-.536-.929.536.929.536Z" transform="translate(-1420.177 -600.65)" fill="#323c58"/><path d="M1424.455,659.4l-.929.536V644.511l.929-.536Z" transform="translate(-1420.556 -600.869)" fill="#c7c7e3"/><path d="M1422.218,659.4l.929.536V644.511l-.929-.536Z" transform="translate(-1420.177 -600.869)" fill="#e9e9f4"/><path d="M1434.532,648.191l-12.314-7.109,12.314-7.109,12.314,7.109Z" transform="translate(-1420.177 -597.97)" fill="#eddde3"/><path d="M1434.532,645.885l-12.314-7.109,12.314-7.109,12.314,7.109Z" transform="translate(-1420.177 -597.302)" fill="url(#w)"/><path d="M1439.558,648.787v1.638l12.313-7.109v-1.638Z" transform="translate(-1425.202 -600.203)" fill="#e9e9f4"/><path d="M1422.218,641.677v1.638l12.314,7.109v-1.638Z" transform="translate(-1420.177 -600.203)" fill="#e9e9f4"/><path d="M1434.163,637.583s-.867,3.121,1.85,4.335a5.736,5.736,0,0,0,6.127-.636c1.214-.983,8.555-5.723,8.555-5.723s1.561-1.272,1.445-2.2.116-2.312-1.329-2.6a7.251,7.251,0,0,0-4.277.347c-.809.52-9.479,4.335-9.479,4.335S1434.568,636.369,1434.163,637.583Z" transform="translate(-1423.601 -596.995)" fill="#003daa"/><path d="M1427.815,634.037s-.867,3.121,1.85,4.335a5.733,5.733,0,0,0,6.126-.636c1.214-.983,8.555-5.722,8.555-5.722s1.56-1.271,1.445-2.2.115-2.312-1.329-2.6a7.251,7.251,0,0,0-4.277.347c-.81.521-9.479,4.336-9.479,4.336S1428.22,632.823,1427.815,634.037Z" transform="translate(-1421.761 -595.967)" fill="#003daa"/><path d="M1441.431,635.522v2.056s-.671,6.131-5.563,4.289a38.538,38.538,0,0,1-7.452-3.583,15.984,15.984,0,0,1-.728-4.244c.063-1.727.23-2.986.23-2.986s.639-2.137,3.46-1.273S1441.431,635.522,1441.431,635.522Z" transform="translate(-1421.761 -596.695)" fill="#003daa"/><path d="M1438.818,605.456a5.557,5.557,0,0,1,2.7,5.139c-.159,3.655-1.033,8.548-.795,10.551s.728,5.139.8,6.47a7.722,7.722,0,0,1-2.708,1.491c-1.351.318-8.342-3.257-10.805-5.959a18.7,18.7,0,0,1,.636-2.887,30.394,30.394,0,0,0,.159-8.474,41.525,41.525,0,0,1-.635-6.568c0-1.774.953-3.363,3.5-2.806Z" transform="translate(-1421.856 -588.79)" fill="#212121"/><path d="M1459.055,600.866l.281-9.26s.223-1.426-.75-1.392-1.225.558-1.533,1.3-1.817,8.408-1.817,8.408a2.1,2.1,0,0,0,1.658,2.824A1.666,1.666,0,0,0,1459.055,600.866Z" transform="translate(-1429.715 -585.287)" fill="#ffcbcb"/><path d="M1458.05,589.164l.364-3.543,1.211-2.345,2.14.975-.432,3.135-1.149,2.209s-.494,1.109-1.221.6A2.112,2.112,0,0,1,1458.05,589.164Z" transform="translate(-1430.562 -583.276)" fill="#ffcbcb"/><path d="M1439.584,599.365a1.322,1.322,0,0,0,1.292-1.317c.054-1.293.305-5.979-1.571-6.734s-3.708-.7-4.893.593a3.7,3.7,0,0,0,.215,5.117A8.447,8.447,0,0,0,1439.584,599.365Z" transform="translate(-1423.443 -585.464)" fill="#ffcbcb"/><path d="M1439.151,603.923a.315.315,0,0,1,.018.235.284.284,0,0,1-.173.119,3.3,3.3,0,0,1-2.507-.156,3.559,3.559,0,0,1-1.712-1.851,1.409,1.409,0,0,0,.657-1.082,11.469,11.469,0,0,0,.206-1.383.323.323,0,0,1,.064-.2.3.3,0,0,1,.253-.054,3.642,3.642,0,0,1,1.379.553c.381.224.754.461,1.12.707.289.193.685.251.676.626-.011.413-.191.821-.189,1.251A3.918,3.918,0,0,0,1439.151,603.923Z" transform="translate(-1423.817 -587.991)" fill="#ffcbcb"/><path d="M1439.108,590.007a1.736,1.736,0,0,1,1.031.57,1.835,1.835,0,0,1-.142,1.975,6.161,6.161,0,0,0-.978,1.846c-.1.517-.017,1.143-.422,1.478-.247.2-.6.222-.876.388-.711.43-.645,1.658-1.409,1.984a1.107,1.107,0,0,1-.917-.073,3.047,3.047,0,0,1-.742-.588,5.33,5.33,0,0,1-1.4-1.939,5.448,5.448,0,0,1-.233-1.549,3.737,3.737,0,0,1,.129-1.433,2.689,2.689,0,0,1,.347-.64,4.325,4.325,0,0,1,2.387-1.653A6.632,6.632,0,0,1,1439.108,590.007Z" transform="translate(-1423.304 -585.201)" fill="#212121"/><g transform="translate(13.427 32.087)"><path d="M1440.107,629l-.929-.536-.928.536.928.536Z" transform="translate(-1438.25 -628.459)" fill="#323c58"/><g transform="translate(0.929 0.536)"><path d="M1440.486,644.638l-.929.536V629.75l.929-.536Z" transform="translate(-1439.558 -629.214)" fill="#c7c7e3"/></g><g transform="translate(0 0.536)"><path d="M1438.25,644.638l.928.536V629.75l-.928-.536Z" transform="translate(-1438.25 -629.214)" fill="#e9e9f4"/></g></g><path d="M1424.076,619.734l-.928-.536-.929.536.929.536Z" transform="translate(-1420.177 -593.688)" fill="#323c58"/><path d="M1424.455,635.378l-.929.536V620.489l.929-.536Z" transform="translate(-1420.556 -593.907)" fill="#c7c7e3"/><path d="M1422.218,635.378l.929.536V620.489l-.929-.536Z" transform="translate(-1420.177 -593.907)" fill="#e9e9f4"/><path d="M1434.532,627.066l-12.314-7.113v8.312l12.314,7.112Z" transform="translate(-1420.177 -593.907)" fill="url(#s)"/><path d="M1422.218,619.734l12.314,7.112.929-.536-12.313-7.113Z" transform="translate(-1420.177 -593.688)" fill="url(#w)"/><path d="M1442.63,610.557s-1.536-.93.24-2.714,10.4-4.346,10.4-4.346,1.693-.492,2.28.783-.821,2.745-.821,2.745l-7.81,4.183A3.682,3.682,0,0,1,1442.63,610.557Z" transform="translate(-1425.914 -589.11)" fill="#212121"/></g><g transform="translate(-9384.235 -24229.139)"><path d="M1389.59,742.109l51.975-30.008-51.975-30.008L1337.615,712.1Z" transform="translate(-1337.616 -678.265)" fill="#003daa" opacity="0.335"/><path d="M1405.9,749.7l48.178-27.815v-6.021L1405.9,743.682Z" transform="translate(-1357.407 -688.054)" fill="#00a2be"/><path d="M1338.053,721.887l48.178,27.815v-6.021l-48.178-27.815Z" transform="translate(-1337.743 -688.054)" fill="#fff"/><path d="M1386.23,732.333l48.178-27.815L1386.231,676.7l-48.178,27.815Z" transform="translate(-1337.743 -676.702)" fill="#9be0e8"/><path d="M1388.4,718.922a24.346,24.346,0,0,0,4.68,1.119l1.483,3.261h4.9l1.483-3.261a24.339,24.339,0,0,0,4.679-1.119l5.042,1.7,3.466-2-2.945-2.911a8.091,8.091,0,0,0,1.937-2.7l5.649-.857v-2.829l-5.649-.856a8.09,8.09,0,0,0-1.937-2.7l2.945-2.911-3.466-2-5.042,1.7a24.379,24.379,0,0,0-4.679-1.118l-1.483-3.261h-4.9l-1.483,3.261a24.4,24.4,0,0,0-4.68,1.118l-5.041-1.7-3.466,2,2.945,2.911a8.092,8.092,0,0,0-1.937,2.7l-5.649.856v2.83l5.649.856a8.1,8.1,0,0,0,1.937,2.7l-2.945,2.91,3.466,2Zm5.391-6.323c-1.78-1.028-1.78-2.694,0-3.721a7.124,7.124,0,0,1,6.445,0c1.779,1.028,1.779,2.694,0,3.721A7.123,7.123,0,0,1,1393.794,712.6Z" transform="translate(-1348.526 -682.926)" fill="#fff"/></g><g transform="translate(-9441.387 -24262.068)"><path d="M1309.112,695.737l51.975-30.008-51.975-30.008-51.975,30.008Z" transform="translate(-1257.138 -631.893)" fill="#003daa" opacity="0.518"/><path d="M1305.341,685.962l48.178-27.815-48.177-27.815-48.178,27.815Z" transform="translate(-1257.146 -630.331)" fill="#9be0e8"/><path d="M1325.009,703.331l48.178-27.815v-6.021l-48.178,27.815Z" transform="translate(-1276.81 -641.682)" fill="#00a2be"/><path d="M1257.164,675.516l48.178,27.815V697.31l-48.178-27.815Z" transform="translate(-1257.146 -641.682)" fill="#fff"/><path d="M1317.864,666.018v2.029h-1.415V678h6.246v-9.957h-1.416v-2.029c7.237-.489,12.857-4.036,12.857-8.346,0-4.645-6.521-8.409-14.565-8.409s-14.564,3.764-14.564,8.409C1305.007,661.982,1310.626,665.528,1317.864,666.018Zm1.707-1.706c-6.352,0-11.5-2.973-11.5-6.64s5.15-6.641,11.5-6.641,11.5,2.973,11.5,6.641S1325.923,664.312,1319.571,664.312Z" transform="translate(-1271.013 -635.818)" fill="#fff"/></g><g transform="translate(-9262.774 -24251.92)"><path d="M1686.489,672.7c-.014,0-.028,0-.042,0l-149.363-23.677h0v-.005l-.047,0a1.2,1.2,0,0,0-.409.026l-19.249,1.234-5.21-.826a1.854,1.854,0,0,0-.58,3.662l5.209.826,17.881,7.109a1.2,1.2,0,0,0,.469.187l149.407,23.684h0c1.434.223,3.028-2.327,3.563-5.7S1687.923,672.928,1686.489,672.7Z" transform="translate(-1509.048 -645.895)" fill="#bac3dd" opacity="0.5"/><path d="M1518.562,649.561l.58-3.662,19.706-1.263-1.937,12.221Z" transform="translate(-1511.522 -644.627)" fill="#ffcbcb"/><path d="M1695.007,668.321,1545.6,644.637c-1.437-.228-3.036,2.32-3.571,5.7a13.529,13.529,0,0,0-.169,1.848c-.063,2.535.637,4.489,1.8,4.674l149.407,23.684Z" transform="translate(-1518.274 -644.623)" fill="#fff"/><path d="M0,0H3.708a0,0,0,0,1,0,0V5.274A1.854,1.854,0,0,1,1.854,7.128h0A1.854,1.854,0,0,1,0,5.274V0A0,0,0,0,1,0,0Z" transform="translate(7.621 1.273) rotate(99.008)" fill="#fff"/><ellipse cx="6.187" cy="2.629" rx="6.187" ry="2.629" transform="matrix(0.157, -0.988, 0.988, 0.157, 172.197, 35.502)" fill="#fff"/><ellipse cx="2.697" cy="0.731" rx="2.697" ry="0.731" transform="matrix(0.157, -0.988, 0.988, 0.157, 174.618, 32.352)" fill="#eee"/></g></g><path d="M2309.753,857.284c-161.216,127.676-397.941,97.292-528.74-67.868-130.781-165.152-106.124-402.539,55.114-530.225,161.223-127.668,397.959-97.285,528.738,67.867C2495.663,492.227,2470.977,729.617,2309.753,857.284Z" transform="translate(-752.026 -277.24)" opacity="0.5" fill="url(#ac)" style="mix-blend-mode:color-dodge;isolation:isolate"/></g></svg>