<svg xmlns="http://www.w3.org/2000/svg" xmlns:xlink="http://www.w3.org/1999/xlink" width="1500" height="609" viewBox="0 0 1500 609"><defs><filter id="a" x="584" y="1" width="332" height="149" filterUnits="userSpaceOnUse"><feOffset dy="3" input="SourceAlpha"/><feGaussianBlur stdDeviation="10" result="b"/><feFlood flood-color="#014753" flood-opacity="0.102"/><feComposite operator="in" in2="b"/><feComposite in="SourceGraphic"/></filter><filter id="c" x="876" y="1" width="332" height="149" filterUnits="userSpaceOnUse"><feOffset dy="3" input="SourceAlpha"/><feGaussianBlur stdDeviation="10" result="d"/><feFlood flood-color="#014753" flood-opacity="0.102"/><feComposite operator="in" in2="d"/><feComposite in="SourceGraphic"/></filter><filter id="e" x="1168" y="0" width="332" height="149" filterUnits="userSpaceOnUse"><feOffset dy="3" input="SourceAlpha"/><feGaussianBlur stdDeviation="10" result="f"/><feFlood flood-color="#014753" flood-opacity="0.102"/><feComposite operator="in" in2="f"/><feComposite in="SourceGraphic"/></filter><filter id="g" x="292" y="0" width="332" height="149" filterUnits="userSpaceOnUse"><feOffset dy="3" input="SourceAlpha"/><feGaussianBlur stdDeviation="10" result="h"/><feFlood flood-color="#014753" flood-opacity="0.102"/><feComposite operator="in" in2="h"/><feComposite in="SourceGraphic"/></filter><filter id="i" x="0" y="0" width="332" height="149" filterUnits="userSpaceOnUse"><feOffset dy="3" input="SourceAlpha"/><feGaussianBlur stdDeviation="10" result="j"/><feFlood flood-color="#014753" flood-opacity="0.102"/><feComposite operator="in" in2="j"/><feComposite in="SourceGraphic"/></filter><filter id="k" x="30" y="109" width="302" height="155" filterUnits="userSpaceOnUse"><feOffset dy="3" input="SourceAlpha"/><feGaussianBlur stdDeviation="10" result="l"/><feFlood flood-color="#014753" flood-opacity="0.102"/><feComposite operator="in" in2="l"/><feComposite in="SourceGraphic"/></filter><filter id="m" x="30" y="224" width="302" height="155" filterUnits="userSpaceOnUse"><feOffset dy="3" input="SourceAlpha"/><feGaussianBlur stdDeviation="10" result="n"/><feFlood flood-color="#014753" flood-opacity="0.102"/><feComposite operator="in" in2="n"/><feComposite in="SourceGraphic"/></filter><filter id="o" x="30" y="339" width="302" height="155" filterUnits="userSpaceOnUse"><feOffset dy="3" input="SourceAlpha"/><feGaussianBlur stdDeviation="10" result="p"/><feFlood flood-color="#014753" flood-opacity="0.102"/><feComposite operator="in" in2="p"/><feComposite in="SourceGraphic"/></filter><filter id="q" x="1198" y="109" width="302" height="155" filterUnits="userSpaceOnUse"><feOffset dy="3" input="SourceAlpha"/><feGaussianBlur stdDeviation="10" result="r"/><feFlood flood-color="#014753" flood-opacity="0.102"/><feComposite operator="in" in2="r"/><feComposite in="SourceGraphic"/></filter><filter id="s" x="906" y="109" width="302" height="155" filterUnits="userSpaceOnUse"><feOffset dy="3" input="SourceAlpha"/><feGaussianBlur stdDeviation="10" result="t"/><feFlood flood-color="#014753" flood-opacity="0.102"/><feComposite operator="in" in2="t"/><feComposite in="SourceGraphic"/></filter><filter id="u" x="906" y="224" width="302" height="155" filterUnits="userSpaceOnUse"><feOffset dy="3" input="SourceAlpha"/><feGaussianBlur stdDeviation="10" result="v"/><feFlood flood-color="#014753" flood-opacity="0.102"/><feComposite operator="in" in2="v"/><feComposite in="SourceGraphic"/></filter><filter id="w" x="906" y="339" width="302" height="155" filterUnits="userSpaceOnUse"><feOffset dy="3" input="SourceAlpha"/><feGaussianBlur stdDeviation="10" result="x"/><feFlood flood-color="#014753" flood-opacity="0.102"/><feComposite operator="in" in2="x"/><feComposite in="SourceGraphic"/></filter><filter id="y" x="614" y="109" width="302" height="155" filterUnits="userSpaceOnUse"><feOffset dy="3" input="SourceAlpha"/><feGaussianBlur stdDeviation="10" result="z"/><feFlood flood-color="#014753" flood-opacity="0.102"/><feComposite operator="in" in2="z"/><feComposite in="SourceGraphic"/></filter><filter id="aa" x="614" y="224" width="302" height="155" filterUnits="userSpaceOnUse"><feOffset dy="3" input="SourceAlpha"/><feGaussianBlur stdDeviation="10" result="ab"/><feFlood flood-color="#014753" flood-opacity="0.102"/><feComposite operator="in" in2="ab"/><feComposite in="SourceGraphic"/></filter><filter id="ac" x="614" y="339" width="302" height="155" filterUnits="userSpaceOnUse"><feOffset dy="3" input="SourceAlpha"/><feGaussianBlur stdDeviation="10" result="ad"/><feFlood flood-color="#014753" flood-opacity="0.102"/><feComposite operator="in" in2="ad"/><feComposite in="SourceGraphic"/></filter><filter id="ae" x="614" y="454" width="302" height="155" filterUnits="userSpaceOnUse"><feOffset dy="3" input="SourceAlpha"/><feGaussianBlur stdDeviation="10" result="af"/><feFlood flood-color="#014753" flood-opacity="0.102"/><feComposite operator="in" in2="af"/><feComposite in="SourceGraphic"/></filter><filter id="ag" x="322" y="109" width="302" height="155" filterUnits="userSpaceOnUse"><feOffset dy="3" input="SourceAlpha"/><feGaussianBlur stdDeviation="10" result="ah"/><feFlood flood-color="#014753" flood-opacity="0.102"/><feComposite operator="in" in2="ah"/><feComposite in="SourceGraphic"/></filter><filter id="ai" x="322" y="224" width="302" height="155" filterUnits="userSpaceOnUse"><feOffset dy="3" input="SourceAlpha"/><feGaussianBlur stdDeviation="10" result="aj"/><feFlood flood-color="#014753" flood-opacity="0.102"/><feComposite operator="in" in2="aj"/><feComposite in="SourceGraphic"/></filter><filter id="ak" x="322" y="339" width="302" height="155" filterUnits="userSpaceOnUse"><feOffset dy="3" input="SourceAlpha"/><feGaussianBlur stdDeviation="10" result="al"/><feFlood flood-color="#014753" flood-opacity="0.102"/><feComposite operator="in" in2="al"/><feComposite in="SourceGraphic"/></filter></defs><g transform="translate(-210 -1671)"><path d="M1050.445-15204.5h-20.5V-15522h1v316.5h19.5Z" transform="translate(-775.445 17289)" fill="#cacaca"/><path d="M1039.445-15314.5h-19v-1h19Z" transform="translate(-765 17284.5)" fill="#cacaca"/><path d="M1039.445-15314.5h-19v-1h19Z" transform="translate(-765 17171)" fill="#cacaca"/><path d="M1050.445-15204.5h-20.5V-15522h1v316.5h19.5Z" transform="translate(-483.445 17289)" fill="#cacaca"/><path d="M1050.445-15432.5h-20.5v-89.5h1v88.5h19.5Z" transform="translate(392.555 17289)" fill="#cacaca"/><path d="M1050.445-15089h-20.5v-433h1v432h19.5Z" transform="translate(-191.445 17289)" fill="#cacaca"/><path d="M1050.445-15204.5h-20.5V-15522h1v316.5h19.5Z" transform="translate(100.555 17289)" fill="#cacaca"/><path d="M1041.445-15314.5h-21v-1h21Z" transform="translate(-473.445 17284.5)" fill="#cacaca"/><path d="M1041.445-15314.5h-21v-1h21Z" transform="translate(-181.445 17284.5)" fill="#cacaca"/><path d="M1041.445-15314.5h-21v-1h21Z" transform="translate(-181.445 17399.5)" fill="#cacaca"/><path d="M1041.445-15314.5h-21v-1h21Z" transform="translate(110.555 17284.5)" fill="#cacaca"/><path d="M1041.445-15314.5h-21v-1h21Z" transform="translate(-473.445 17171)" fill="#cacaca"/><path d="M1041.445-15314.5h-21v-1h21Z" transform="translate(-181.445 17171)" fill="#cacaca"/><path d="M1041.445-15314.5h-21v-1h21Z" transform="translate(110.555 17171)" fill="#cacaca"/><g transform="matrix(1, 0, 0, 1, 210, 1671)" filter="url(#a)"><path d="M5,0H267a5,5,0,0,1,5,5V84a5,5,0,0,1-5,5H5a5,5,0,0,1-5-5V5A5,5,0,0,1,5,0Z" transform="translate(614 28)" fill="#00a2be"/></g><g transform="matrix(1, 0, 0, 1, 210, 1671)" filter="url(#c)"><path d="M5,0H267a5,5,0,0,1,5,5V84a5,5,0,0,1-5,5H5a5,5,0,0,1-5-5V5A5,5,0,0,1,5,0Z" transform="translate(906 28)" fill="#00a2be"/></g><g transform="matrix(1, 0, 0, 1, 210, 1671)" filter="url(#e)"><path d="M5,0H267a5,5,0,0,1,5,5V84a5,5,0,0,1-5,5H5a5,5,0,0,1-5-5V5A5,5,0,0,1,5,0Z" transform="translate(1198 27)" fill="#00a2be"/></g><g transform="matrix(1, 0, 0, 1, 210, 1671)" filter="url(#g)"><path d="M5,0H267a5,5,0,0,1,5,5V84a5,5,0,0,1-5,5H5a5,5,0,0,1-5-5V5A5,5,0,0,1,5,0Z" transform="translate(322 27)" fill="#00a2be"/></g><g transform="matrix(1, 0, 0, 1, 210, 1671)" filter="url(#i)"><path d="M5,0H267a5,5,0,0,1,5,5V84a5,5,0,0,1-5,5H5a5,5,0,0,1-5-5V5A5,5,0,0,1,5,0Z" transform="translate(30 27)" fill="#00a2be"/></g><path d="M-72.928-13.3v1.972h15.564V-13.3h-2.8v-3.224h2.917v-1.964h-15.8v1.964h2.917V-13.3Zm5.4,0v-3.224h4.757V-13.3Zm-7.243,5.362h19.3V-10h-19.3Zm16.9,6.456V-6.506H-72.506v1.89h12.058v1.334H-72.481V1.9H-57.3V-.041h-12.63V-1.483ZM-38.387-11.7v6.92h2.478v-14.3h-2.478v5.271H-40.6v-4.881h-2.428V-6.564H-40.6V-11.7Zm-5.727,2.271a33.333,33.333,0,0,1-6.489.58v-2.436h5.494v-6.265h-8.055v2.1h5.544v2.271H-53.13V-6.8h1.442a36.164,36.164,0,0,0,7.823-.588Zm2.254,3.68h-2.61V-5.3c-.017,2.412-2.718,4.691-6.97,5.254L-50.4,1.972c3.307-.489,5.917-1.989,7.235-4.086,1.3,2.1,3.912,3.6,7.235,4.086L-34.881-.05c-4.285-.564-6.986-2.843-6.978-5.254Zm19.517-4.89h6.481v-2.1h-2.8v-3.622h2.917v-2.1h-15.8v2.1h2.917v3.622h-2.8v2.1h6.464v1.956h-8.312v2.064h19.3V-8.685h-8.37Zm1.069-5.727v3.622H-26.03v-3.622Zm4.964,18.191v-6.8H-30.994v6.8Zm-2.536-4.765v2.66h-9.58v-2.66Zm27.7-7.964H6.58V-18.53H4.152V1.094H6.58V-8.793H8.859V2.072H11.37V-19.094H8.859ZM-6.008-16.442v2.113H-.191c-.373,4.235-2.287,7.583-6.8,10.169l1.508,1.815c6.008-3.439,7.815-8.362,7.831-14.1Zm36.655-2.652H28.028V-8.262h2.619V-12.7H33.6v-2.122H30.646Zm-8.478.928v2.693H17.229v-2.693H14.652v9.232H24.771v-9.232ZM17.229-11v-2.494h4.939V-11ZM30.646-1.865V-7.409H16.782v2.03H28.044v1.624H16.815V1.9H31.309V-.174H19.384V-1.865ZM45.622-9.713H51.5v-8.594H48.9v2.312H39.754v-2.312H37.177v8.594h5.834v1.948H34.682v2.1h19.3v-2.1H45.622ZM48.9-13.981v2.188H39.754v-2.188ZM37.061-4.293V1.674H51.8V-.439H39.68V-4.293ZM69.8-18.257v2.6H60.323v-2.6H57.754v9.273h14.66v-9.273ZM60.323-11.08V-13.6H69.8v2.519ZM55.409-6.771v2.064h8.337V2.072h2.577V-4.707h8.453V-6.771Z" transform="translate(960 1752)" fill="#fff"/><path d="M-65.71-10.956v-8.138h-2.577V2.122h2.577V-8.793h3.265v-2.163ZM-78.829-9.265h7.11v-7.989h-9.738v2.113h7.135v3.8h-7.094v8.47h1.74a53.275,53.275,0,0,0,10-.746l-.24-2.1a50.819,50.819,0,0,1-8.917.671Zm32.279-9.829V2.122h2.627V-19.094Zm-8.785,1.533c-3.215.008-5.544,2.909-5.536,7.483-.008,4.608,2.32,7.508,5.536,7.5,3.174.008,5.511-2.892,5.511-7.5C-49.823-14.652-52.16-17.552-55.334-17.561Zm0,2.354c1.773,0,2.992,1.9,2.992,5.13,0,3.257-1.218,5.146-2.992,5.146-1.807,0-3.025-1.89-3.025-5.146C-58.359-13.309-57.141-15.207-55.334-15.207ZM-39.149-8.3v2.072H-23.2V-8.3h-3.025v-6.738h3.108v-2.1H-39.215v2.1h3.066V-8.3Zm5.594,0v-6.738H-28.8V-8.3ZM-40.8-.472h19.367v-2.18H-40.8ZM-5.047,2.122H-2.42V-19.094H-5.047ZM-16.119-15.041h7.6V-17.18h-10.21V-2.992h1.79a52.844,52.844,0,0,0,10.251-.7l-.249-2.146a50.108,50.108,0,0,1-9.182.622ZM17.3-10.856v-8.238h-2.61V2.072H17.3V-8.669h3.265v-2.188ZM8.3-14.867h4.425v-2.138H1.077v2.138H5.693v1.782C5.685-9.555,3.63-5.586.257-3.994L1.79-1.939A10.975,10.975,0,0,0,7.028-8.511a10.364,10.364,0,0,0,5.1,6.041l1.459-2.055A9.674,9.674,0,0,1,8.3-13.086Zm28.177-4.21V-3.771h2.61V-19.077ZM27.547-7.086c3.224.008,5.7-2.18,5.7-5.312,0-3.083-2.478-5.287-5.7-5.287s-5.718,2.2-5.71,5.287C21.829-9.265,24.323-7.077,27.547-7.086ZM24.381-12.4a2.951,2.951,0,0,1,3.166-3.017A2.962,2.962,0,0,1,30.688-12.4a2.954,2.954,0,0,1-3.141,3.041A2.943,2.943,0,0,1,24.381-12.4ZM27.7-5.329H25.077v7h14.61V-.439H27.7ZM57.845-19.094V-3.232h2.478V-19.094ZM56.08-3.854V-18.729H53.6v4.657H50.76v2.13H53.6v8.088ZM52.666-8.619a6.541,6.541,0,0,1-3.92-6.141v-2.892H46.218v2.892a7.424,7.424,0,0,1-4.16,6.688L43.5-6.083a8.051,8.051,0,0,0,4-4.508A7.337,7.337,0,0,0,51.215-6.6ZM48.738-5.13h-2.6v6.8H60.9V-.439H48.738Zm29.4-6.315h-3.97v2.1h3.97V2.122h2.586V-19.094H78.133ZM66.539-9.282h6.456v-2.064H66.539v-3.8h7.285v-2.113h-9.9V-2.776h1.657a61.619,61.619,0,0,0,9.588-.6L74.9-5.494a49.5,49.5,0,0,1-8.362.58Z" transform="translate(1252 1752)" fill="#fff"/><path d="M-46.409-13.442v2.3h-5.047v2.1h5.047V-6.7h2.6V-19.077h-2.6v3.572h-4.26a12.3,12.3,0,0,0,.174-2.1h-9.721v2.122h6.887c-.414,3.149-3.058,5.66-8.006,7.011L-60.3-6.423c4.616-1.285,7.715-3.646,9.05-7.019Zm-4.409,6.978c-4.343,0-7.193,1.608-7.185,4.2-.008,2.61,2.843,4.243,7.185,4.235,4.293.008,7.144-1.624,7.152-4.235C-43.674-4.856-46.525-6.464-50.818-6.464Zm0,6.365c-2.851,0-4.591-.762-4.583-2.163-.008-1.4,1.732-2.171,4.583-2.155,2.8-.017,4.533.754,4.55,2.155C-46.285-.862-48.017-.1-50.818-.1Zm15.9-7.566A5.677,5.677,0,0,0-30.729-9.34h5.072v2.693h2.6V-19.094h-2.6v2.884H-30.7a5.662,5.662,0,0,0-4.218-1.7c-3.191-.008-5.6,2.13-5.586,5.13C-40.525-9.8-38.113-7.649-34.923-7.666Zm-3.108-5.113a2.831,2.831,0,0,1,3.108-2.892,2.823,2.823,0,0,1,3.066,2.892,2.852,2.852,0,0,1-3.066,2.9A2.86,2.86,0,0,1-38.03-12.779Zm12.373,1.343h-3.9a5.051,5.051,0,0,0,.182-1.343,5.113,5.113,0,0,0-.182-1.351h3.9Zm-4.566,5.246c-4.442-.008-7.218,1.517-7.21,4.127-.008,2.6,2.768,4.127,7.21,4.119C-25.773,2.064-23,.539-23-2.064S-25.773-6.2-30.224-6.191Zm0,6.2c-2.95.008-4.666-.729-4.649-2.072-.017-1.384,1.7-2.122,4.649-2.122,2.992,0,4.682.738,4.682,2.122C-25.541-.721-27.232.017-30.224.008ZM-8.66-11.362h3.754V-3.6h2.6V-19.077h-2.6v5.61H-8.66Zm-4.89.414A8.247,8.247,0,0,0-8.586-6.53l1.3-2.064a6.769,6.769,0,0,1-4.981-6.265v-.588h4.384v-2.1H-19.334v2.1h4.417v.572A7.093,7.093,0,0,1-20.1-8.188l1.343,2.113A8.576,8.576,0,0,0-13.55-10.948Zm-.05,5.983h-2.6V1.674H-1.773V-.439H-13.6ZM20.362-16.011H17.42v-3.066H14.8V-6.215H17.42V-9.373h2.942v-2.138H17.42v-2.354h2.942ZM13.086-9.87a52.413,52.413,0,0,1-8.959.638V-11.61h7.061v-6.265h-9.7v2.1H8.635v2.171h-7.1v6.514H3.265a55.153,55.153,0,0,0,10.086-.688ZM14.8-3.108V2.055H17.42V-5.2H3.3v2.1ZM32.4-9.713h5.876v-8.594H35.677v2.312H26.528v-2.312H23.95v8.594h5.834v1.948H21.456v2.1h19.3v-2.1H32.4Zm3.282-4.268v2.188H26.528v-2.188ZM23.834-4.293V1.674H38.577V-.439H26.453V-4.293ZM56.577-18.257v2.6H47.1v-2.6H44.528v9.273h14.66v-9.273ZM47.1-11.08V-13.6h9.481v2.519ZM42.182-6.771v2.064h8.337V2.072H53.1V-4.707H61.55V-6.771Z" transform="translate(1544 1751)" fill="#fff"/><path d="M-36.174-19.094V2.122h2.627V-19.094Zm-13.89,1.981V-3.066h10.086V-17.113Zm7.55,2.039v9.928H-47.47v-9.928Zm27.845,4.11h-2.387V-18.7h-2.4V1.019h2.4V-8.859h2.387V2.072h2.47V-19.094h-2.47Zm-12.6,1.906H-21.8v-7.89h-8.022v2.122h5.511v3.68h-5.486v8.412h1.45a44.943,44.943,0,0,0,7.807-.58l-.191-2.1a41.3,41.3,0,0,1-6.547.489Zm28.989-2.3H5.47V-3.6h2.6V-19.077H5.47v5.61H1.715Zm-4.89.414A8.247,8.247,0,0,0,1.79-6.53l1.3-2.064A6.769,6.769,0,0,1-1.89-14.859v-.588H2.494v-2.1H-8.959v2.1h4.417v.572a7.093,7.093,0,0,1-5.18,6.688l1.343,2.113A8.576,8.576,0,0,0-3.174-10.948Zm-.05,5.983h-2.6V1.674H8.6V-.439H-3.224ZM30.738-16.011H27.8v-3.066H25.177V-6.215H27.8V-9.373h2.942v-2.138H27.8v-2.354h2.942ZM23.461-9.87a52.413,52.413,0,0,1-8.959.638V-11.61h7.061v-6.265h-9.7v2.1h7.144v2.171h-7.1v6.514h1.732a55.153,55.153,0,0,0,10.086-.688Zm1.715,6.762V2.055H27.8V-5.2H13.674v2.1Zm21.68-15.986V-8.287h2.577V-19.094Zm-8.445,6.05A8.246,8.246,0,0,0,43.591-8.7l1.285-2.022c-3.365-1-5.155-3.522-5.138-6.232V-18.58H37.044v1.624a6.986,6.986,0,0,1-5.229,6.588L33.124-8.32A8.457,8.457,0,0,0,38.412-13.044ZM38.006-1.815H49.467v-5.5H35.4v2.03h11.47v1.533H35.47V1.9H50.1V-.174h-12.1Z" transform="translate(668 1751)" fill="#fff"/><path d="M-64.144,0V-7.218h7.9V0h3.058V-16.972h-3.058v7.193h-7.9v-7.193h-3.041V0Zm27.075,0-3.68-6.729a4.809,4.809,0,0,0,3.058-4.815c0-3.24-2.08-5.428-5.983-5.428h-6.348V0h3.041V-6.224h3.166L-40.483,0Zm-7.069-14.42c2.3,0,3.331,1.069,3.331,2.876S-41.834-8.76-44.122-8.76h-2.859v-5.66ZM-29.2-16.972h-5.851V0H-29.3c5.171,0,8.221-3.2,8.221-8.5C-21.083-13.79-24.133-16.972-29.2-16.972ZM-32.006-2.644V-14.329h2.644c3.456,0,5.254,1.931,5.254,5.826s-1.8,5.859-5.345,5.859ZM3.058-10.79v-8.3H.448V2.072h2.61V-8.577H6.323V-10.79Zm-9.025-6.6h-2.6v3.39c-.017,3.9-1.956,7.956-5.37,9.564l1.608,2.1A10.748,10.748,0,0,0-7.243-8.826,10.227,10.227,0,0,0-2.4-2.735L-.812-4.823c-3.273-1.583-5.171-5.412-5.155-9.182Zm28.326,3.133H18.53a5.258,5.258,0,0,0-5.436-3.9c-3.24-.008-5.6,2.08-5.586,4.972C7.492-10.26,9.854-8.18,13.094-8.18a5.244,5.244,0,0,0,5.445-3.994h3.82v4.45h2.6v-11.37h-2.6Zm-9.265,3.887a2.83,2.83,0,0,1-3.108-2.818,2.8,2.8,0,0,1,3.108-2.793,2.78,2.78,0,0,1,3.066,2.793A2.813,2.813,0,0,1,13.094-10.376ZM13.575-4.5V-6.746H11V1.823H24.961V-6.746h-2.6V-4.5Zm0,4.21V-2.47h8.785V-.29ZM38.909-9.713h5.876v-8.594H42.191v2.312H33.041v-2.312H30.464v8.594H36.3v1.948H27.97v2.1h19.3v-2.1H38.909Zm3.282-4.268v2.188H33.041v-2.188ZM30.348-4.293V1.674H45.091V-.439H32.967V-4.293ZM63.091-18.257v2.6H53.61v-2.6H51.041v9.273H65.7v-9.273ZM53.61-11.08V-13.6h9.481v2.519ZM48.7-6.771v2.064h8.337V2.072H59.61V-4.707h8.453V-6.771Z" transform="translate(376 1751)" fill="#fff"/><g transform="matrix(1, 0, 0, 1, 210, 1671)" filter="url(#k)"><path d="M5,0H237a5,5,0,0,1,5,5V90a5,5,0,0,1-5,5H5a5,5,0,0,1-5-5V5A5,5,0,0,1,5,0Z" transform="translate(60 136)" fill="#fff"/></g><g transform="matrix(1, 0, 0, 1, 210, 1671)" filter="url(#m)"><path d="M5,0H237a5,5,0,0,1,5,5V90a5,5,0,0,1-5,5H5a5,5,0,0,1-5-5V5A5,5,0,0,1,5,0Z" transform="translate(60 251)" fill="#fff"/></g><g transform="matrix(1, 0, 0, 1, 210, 1671)" filter="url(#o)"><path d="M5,0H237a5,5,0,0,1,5,5V90a5,5,0,0,1-5,5H5a5,5,0,0,1-5-5V5A5,5,0,0,1,5,0Z" transform="translate(60 366)" fill="#fff"/></g><path d="M-64.144,0V-7.218h7.9V0h3.058V-16.972h-3.058v7.193h-7.9v-7.193h-3.041V0Zm27.075,0-3.68-6.729a4.809,4.809,0,0,0,3.058-4.815c0-3.24-2.08-5.428-5.983-5.428h-6.348V0h3.041V-6.224h3.166L-40.483,0Zm-7.069-14.42c2.3,0,3.331,1.069,3.331,2.876S-41.834-8.76-44.122-8.76h-2.859v-5.66ZM-29.2-16.972h-5.851V0H-29.3c5.171,0,8.221-3.2,8.221-8.5C-21.083-13.79-24.133-16.972-29.2-16.972ZM-32.006-2.644V-14.329h2.644c3.456,0,5.254,1.931,5.254,5.826s-1.8,5.859-5.345,5.859ZM3.058-10.956v-8.138H.448V2.072h2.61V-8.768H6.323v-2.188Zm-5.809,7.79V-17.039H-12.8V-3.166Zm-2.6-11.826v9.738h-4.881v-9.738ZM23.022,2.072h2.461V-19.094H23.022Zm-7.11-13.036a21.313,21.313,0,0,0,.7-5.71H8.32v2.113h5.735a14.76,14.76,0,0,1-.439,2.76l-6.34.365L7.591-9.2l5.3-.539A12.942,12.942,0,0,1,7.21-3.994L8.685-2.2a14.6,14.6,0,0,0,6.464-6.663h3.4V1.086H21V-18.58H18.547v7.616Zm27.083-8.113V-6.166H45.6V-19.077ZM40.948-9.936a51.808,51.808,0,0,1-9.174.522V-11.47h6.994v-2.039H31.773v-2h7.608v-2.08H29.155V-7.309h1.79A59.159,59.159,0,0,0,41.2-7.873ZM38.461-5.867c-4.517,0-7.243,1.459-7.243,3.961,0,2.519,2.727,3.97,7.243,3.961,4.45.008,7.243-1.442,7.251-3.961C45.7-4.409,42.912-5.867,38.461-5.867Zm0,5.917c-3,0-4.649-.68-4.649-1.956,0-1.243,1.649-1.939,4.649-1.939,2.942,0,4.649.7,4.649,1.939C43.11-.63,41.4.05,38.461.05ZM63.746-6.489h2.611V-19.077H63.746ZM61.7-10.2a51.527,51.527,0,0,1-9.174.547v-2.088h6.994v-2.03H52.525v-1.981h7.608v-2.1H49.906V-7.583H51.7a55.193,55.193,0,0,0,10.26-.572ZM66.356,1.823V-5.569H52.309V1.823ZM63.8-3.53V-.282H54.878V-3.53Z" transform="translate(359 1850)" fill="#212121"/><path d="M-74.519,0V-7.218h7.9V0h3.058V-16.972h-3.058v7.193h-7.9v-7.193h-3.041V0Zm27.075,0-3.68-6.729a4.809,4.809,0,0,0,3.058-4.815c0-3.24-2.08-5.428-5.983-5.428H-60.4V0h3.041V-6.224h3.166L-50.859,0Zm-7.069-14.42c2.3,0,3.331,1.069,3.331,2.876S-52.21-8.76-54.5-8.76h-2.859v-5.66Zm14.942-2.552h-5.851V0h5.743c5.171,0,8.221-3.2,8.221-8.5C-31.459-13.79-34.508-16.972-39.572-16.972ZM-42.381-2.644V-14.329h2.644c3.456,0,5.254,1.931,5.254,5.826s-1.8,5.859-5.345,5.859Zm28.11-7.334c4.575,0,7.583-1.649,7.591-4.318-.008-2.669-3.017-4.334-7.591-4.343-4.566.008-7.608,1.674-7.6,4.343C-21.878-11.627-18.837-9.978-14.271-9.978Zm0-6.588c2.925,0,4.807.812,4.807,2.271,0,1.409-1.881,2.221-4.807,2.221-2.909,0-4.807-.812-4.79-2.221C-19.077-15.754-17.18-16.566-14.271-16.566ZM-23.934-6.547h8.528v3.9h2.644v-3.9h8.2v-2.08H-23.934Zm2.37,1.931v6.29H-6.7V-.464h-12.24V-4.616ZM2.718-7.666A5.677,5.677,0,0,0,6.912-9.34h5.072v2.693h2.6V-19.094h-2.6v2.884H6.936a5.662,5.662,0,0,0-4.218-1.7c-3.191-.008-5.6,2.13-5.586,5.13C-2.884-9.8-.472-7.649,2.718-7.666ZM-.39-12.779a2.831,2.831,0,0,1,3.108-2.892,2.823,2.823,0,0,1,3.066,2.892,2.852,2.852,0,0,1-3.066,2.9A2.86,2.86,0,0,1-.39-12.779Zm12.373,1.343h-3.9a5.051,5.051,0,0,0,.182-1.343,5.113,5.113,0,0,0-.182-1.351h3.9ZM7.417-6.191C2.975-6.2.2-4.674.207-2.064.2.539,2.975,2.064,7.417,2.055c4.45.008,7.227-1.517,7.227-4.119S11.867-6.2,7.417-6.191Zm0,6.2C4.467.017,2.751-.721,2.768-2.064c-.017-1.384,1.7-2.122,4.649-2.122,2.992,0,4.682.738,4.682,2.122C12.1-.721,10.409.017,7.417.008Zm27.066-19.1H31.831v15.87h2.652v-7.086h2.743V-12.5H34.483Zm-5.577,9.058a33.794,33.794,0,0,0,.514-6.232v-1.26H18.63v2.146h8.238a28.494,28.494,0,0,1-.53,5.113Zm1.682,1c-2.064.3-4.309.464-6.506.555V-12.7H21.5v4.3c-1.483.033-2.884.041-4.127.041L17.6-6.265a79,79,0,0,0,13.127-.878ZM20.528-4.649V1.674H35.163V-.439H23.146v-4.21ZM53.4,2.122H56V-19.094H53.4ZM42.2-9.307h7.276v-7.948H39.5v2.113h7.326v3.762H39.514V-2.9H41.37a59.191,59.191,0,0,0,10.575-.754l-.232-2.13a56.415,56.415,0,0,1-9.514.738ZM74.122-6.489h2.611V-19.077H74.122ZM72.075-10.2a51.527,51.527,0,0,1-9.174.547v-2.088H69.9v-2.03H62.9v-1.981h7.608v-2.1H60.282V-7.583h1.79a55.193,55.193,0,0,0,10.26-.572ZM76.732,1.823V-5.569H62.685V1.823ZM74.18-3.53V-.282H65.254V-3.53Z" transform="translate(369 1965)" fill="#212121"/><path d="M-59.776,2.122h2.627V-19.094h-2.627ZM-70.848-15.041h7.6V-17.18h-10.21V-2.992h1.79a52.844,52.844,0,0,0,10.251-.7l-.249-2.146a50.108,50.108,0,0,1-9.182.622ZM-39.025,2.072H-36.4V-19.094h-2.627Zm-7-16.939H-41.4v-2.138H-53.345v2.138h4.666v1.782c-.017,3.613-2.1,7.558-5.445,9.091l1.5,2.055a10.823,10.823,0,0,0,5.312-6.53A10.082,10.082,0,0,0-42-2.47l1.417-2.055a9.373,9.373,0,0,1-5.445-8.561Zm30.489,7.061V-19.094h-2.594v4.624h-3.646V-12.4h3.646v4.591Zm-6.075-3.1a49.3,49.3,0,0,1-8.039.464v-1.782h6.539V-14.2h-6.539v-1.616h7.16v-2.08h-9.746v9.53h1.616a57.045,57.045,0,0,0,9.2-.481Zm-5.254,9.273h11.329V-6.97H-29.5v2.022h11.37V-3.53H-29.478V1.9h14.619V-.124H-26.867ZM9.771-10.956v-8.138H7.16V2.072h2.61V-8.768h3.265v-2.188ZM3.961-3.166V-17.039H-6.083V-3.166Zm-2.6-11.826v9.738H-3.522v-9.738ZM29.735,2.072H32.2V-19.094H29.735ZM22.624-10.964a21.313,21.313,0,0,0,.7-5.71H15.033v2.113h5.735a14.759,14.759,0,0,1-.439,2.76l-6.34.365L14.3-9.2l5.3-.539a12.942,12.942,0,0,1-5.677,5.743L15.4-2.2a14.6,14.6,0,0,0,6.464-6.663h3.4V1.086h2.453V-18.58H25.26v7.616Zm27.083-8.113V-6.166h2.61V-19.077ZM47.66-9.936a51.808,51.808,0,0,1-9.174.522V-11.47h6.994v-2.039H38.486v-2h7.608v-2.08H35.867V-7.309h1.79a59.159,59.159,0,0,0,10.26-.564ZM45.174-5.867c-4.517,0-7.243,1.459-7.243,3.961,0,2.519,2.727,3.97,7.243,3.961,4.45.008,7.243-1.442,7.251-3.961C52.417-4.409,49.624-5.867,45.174-5.867Zm0,5.917c-3,0-4.649-.68-4.649-1.956,0-1.243,1.649-1.939,4.649-1.939,2.942,0,4.649.7,4.649,1.939C49.823-.63,48.116.05,45.174.05ZM70.459-6.489h2.611V-19.077H70.459ZM68.412-10.2a51.527,51.527,0,0,1-9.174.547v-2.088h6.994v-2.03H59.238v-1.981h7.608v-2.1H56.619V-7.583h1.79a55.193,55.193,0,0,0,10.26-.572ZM73.069,1.823V-5.569H59.022V1.823ZM70.517-3.53V-.282H61.591V-3.53Z" transform="translate(365 2080)" fill="#212121"/><path d="M9.195-8.46A24.712,24.712,0,0,1,8.769-3.2l1.054.126a27,27,0,0,0,.435-5.385V-9.814h-8.6v.89H9.195ZM7.329-5.511H6.275v4H4.312v-4H3.239v4H.493v.9h11.08v-.9H7.329Zm10.8-.6c2.64.01,4.293-.86,4.293-2.32s-1.653-2.33-4.293-2.32c-2.64-.01-4.3.86-4.3,2.32S15.489-6.1,18.128-6.11Zm0-3.78c1.953-.01,3.2.551,3.2,1.46s-1.247,1.479-3.2,1.479-3.2-.561-3.191-1.479C14.928-9.34,16.166-9.9,18.128-9.891Zm5.55,4.709H12.6v.88h2.939v1.547H13.826v.86h7.4V1.112h1.083V-2.756H20.72V-4.3h2.959ZM16.61-2.756V-4.3h3.055v1.547Zm17.5-3.432v-4.854H33.037V1.112H34.11V-5.269h2.03v-.919Zm-3.3,4.206V-9.814H25.206v7.831ZM29.74-8.953v6.091H26.25V-8.953ZM46.186,1.112h1.025V-11.041H46.186ZM41.681-6.236A11.068,11.068,0,0,0,42.164-9.6H37.456v.89h3.66a9.179,9.179,0,0,1-.324,1.939l-3.925.256.155.948,3.471-.358a7.7,7.7,0,0,1-3.606,3.742l.619.764a8.479,8.479,0,0,0,3.829-3.925h2.3V.493h1.025V-10.713H43.634v4.477Zm16.195-4.8V-3.5h1.073v-7.532ZM56.445-5.6a30.834,30.834,0,0,1-5.743.329v-1.6h4.409v-.87H50.7V-9.272h4.747v-.87h-5.83V-4.38H50.6a33.458,33.458,0,0,0,5.956-.338ZM54.907-3.326c-2.572-.01-4.109.8-4.109,2.195,0,1.412,1.537,2.214,4.109,2.214,2.533,0,4.1-.8,4.1-2.214C59.007-2.523,57.441-3.336,54.907-3.326Zm0,3.558c-1.9,0-3.046-.5-3.046-1.363,0-.831,1.141-1.344,3.046-1.344,1.866,0,3.036.512,3.036,1.344C57.943-.271,56.773.232,54.907.232Zm6.787-1.16-.754,3.722h1.015L63.01-.928ZM77.5,1.112h1.025V-11.041H77.5Zm-4.5-7.773v.88h2.05V.474h1.015V-10.751H75.057v4.09Zm-1.3-2.059h2.224v-.89H68.327v.89h2.349V-7.58A6.385,6.385,0,0,1,68-2.127l.677.8a6.367,6.367,0,0,0,2.533-3.863,5.914,5.914,0,0,0,2.475,3.573l.648-.793a5.953,5.953,0,0,1-2.62-5.173Zm14.6-.967v-1.421H85.247v1.421H80.829v.87h9.852v-.87ZM85.779-4.1c2.475,0,3.964-.725,3.964-2.011s-1.489-2.011-3.964-2.011-3.974.715-3.964,2.011C81.805-4.825,83.294-4.1,85.779-4.1Zm0-3.2c1.8.01,2.852.435,2.862,1.189-.01.744-1.064,1.18-2.862,1.18s-2.862-.435-2.852-1.18C82.917-6.865,83.971-7.29,85.779-7.3Zm-5.53,4.022v.89h2.9V1.131h1.073V-2.388h3.142V1.131h1.073V-2.388h2.939v-.89Zm21.909-2.988h2.707v4.254h1.073v-9.021h-1.073v3.867h-2.707Zm.019-3.8H96.733v.89h4.312a5.288,5.288,0,0,1-.324,1.445l-4.6.218.184.89,4.027-.329a7.278,7.278,0,0,1-4.143,2.833l.435.86C100.543-4.564,102.167-6.923,102.177-10.065ZM99.344-2.91H98.261V.841h8.025v-.89H99.344Zm18.7-1.847v-6.285H116.97v2.233h-2.707v.89h2.707v3.162ZM111.6-7.691a5.011,5.011,0,0,0,2.954,2.664l.58-.841A4.054,4.054,0,0,1,112.106-9.5v-1.151h-1.054V-9.5a4.259,4.259,0,0,1-3.094,3.916l.58.86A5.034,5.034,0,0,0,111.6-7.691Zm-.353,6.444h6.8V-4.138h-7.88v.86h6.816v1.209h-6.787V.948H118.5V.077h-7.251Zm17.79-9.785V-3.5h1.073v-7.532ZM127.6-5.6a30.834,30.834,0,0,1-5.743.329v-1.6h4.409v-.87h-4.409V-9.272h4.747v-.87h-5.83V-4.38h.986a33.458,33.458,0,0,0,5.956-.338Zm-1.537,2.272c-2.572-.01-4.109.8-4.109,2.195,0,1.412,1.537,2.214,4.109,2.214,2.533,0,4.1-.8,4.1-2.214C130.167-2.523,128.6-3.336,126.068-3.326Zm0,3.558c-1.9,0-3.046-.5-3.046-1.363,0-.831,1.141-1.344,3.046-1.344,1.866,0,3.036.512,3.036,1.344C129.1-.271,127.934.232,126.068.232Z" transform="translate(290 1879)" fill="#212121"/><path d="M9.195-8.46A24.712,24.712,0,0,1,8.769-3.2l1.054.126a27,27,0,0,0,.435-5.385V-9.814h-8.6v.89H9.195ZM7.329-5.511H6.275v4H4.312v-4H3.239v4H.493v.9h11.08v-.9H7.329Zm10.8-.6c2.64.01,4.293-.86,4.293-2.32s-1.653-2.33-4.293-2.32c-2.64-.01-4.3.86-4.3,2.32S15.489-6.1,18.128-6.11Zm0-3.78c1.953-.01,3.2.551,3.2,1.46s-1.247,1.479-3.2,1.479-3.2-.561-3.191-1.479C14.928-9.34,16.166-9.9,18.128-9.891Zm5.55,4.709H12.6v.88h2.939v1.547H13.826v.86h7.4V1.112h1.083V-2.756H20.72V-4.3h2.959ZM16.61-2.756V-4.3h3.055v1.547ZM37.224-6.894H34.343v.88h2.881V1.131h1.064V-11.041H37.224ZM32.486-9.988H31.4v2.214A6.436,6.436,0,0,1,28.2-2.32l.686.86a6.846,6.846,0,0,0,3.065-4.114,6.577,6.577,0,0,0,3.065,3.892l.648-.87a6,6,0,0,1-3.181-5.221Zm16.775-1.054V1.131h1.073V-11.041Zm-8.238,1.035v8.2h5.753v-8.2H45.713V-6.8H42.1v-3.21ZM42.1-5.936h3.616v3.229H42.1Zm15.832-1.6a6.737,6.737,0,0,0,4.549,3.515l.5-.9c-2.117-.4-4.5-2.253-4.5-4.331v-.938H57.363v.938c-.01,2.088-2.369,3.925-4.477,4.331l.493.9A6.767,6.767,0,0,0,57.929-7.537Zm-5.506,7H63.551v-.9H52.423ZM73.568-5.859c2.6,0,4.283-.928,4.283-2.427s-1.682-2.436-4.283-2.446c-2.591.01-4.293.938-4.283,2.446C69.275-6.787,70.977-5.859,73.568-5.859Zm0-3.993c1.9,0,3.152.6,3.152,1.566,0,.948-1.257,1.547-3.152,1.547s-3.152-.6-3.142-1.547C70.416-9.253,71.682-9.852,73.568-9.852Zm-5.55,5.878h5.115v2.485h1.083V-3.974h4.931v-.89H68.018Zm1.441,1.267V.841h8.45V-.068H70.532v-2.64ZM83.488-4.554a3.19,3.19,0,0,0,2.465-1.025h3.191v1.74h1.073v-7.2H89.144v1.76H85.953a3.19,3.19,0,0,0-2.465-1.025,2.9,2.9,0,0,0-3.152,2.881A2.9,2.9,0,0,0,83.488-4.554ZM81.36-7.425a1.959,1.959,0,0,1,2.127-1.953A1.959,1.959,0,0,1,85.6-7.425a1.97,1.97,0,0,1-2.108,1.953A1.97,1.97,0,0,1,81.36-7.425Zm7.783.957H86.47a2.923,2.923,0,0,0,.16-.957,2.915,2.915,0,0,0-.164-.977h2.678Zm-2.959,2.91c-2.523,0-4.08.851-4.07,2.32-.01,1.47,1.547,2.32,4.07,2.32s4.07-.851,4.07-2.32S88.7-3.558,86.185-3.558Zm0,3.78c-1.866,0-3.026-.551-3.017-1.46-.01-.928,1.151-1.479,3.017-1.479s3.026.551,3.026,1.479C89.211-.329,88.051.222,86.185.222ZM104.72-11.041v6.981h1.054v-6.981Zm-8.325.793v4.941h5.7v-4.941Zm1.054,4.09v-3.22h3.6v3.22ZM106.093-2.4v-.831h-3.635V-4.419h-1.064v1.189H97.778V-2.4h3.6c0,1.218-2.011,2.4-4.1,2.63l.387.841a6.148,6.148,0,0,0,4.264-2.248,6.087,6.087,0,0,0,4.215,2.248l.377-.841c-2.088-.261-4.041-1.441-4.041-2.63Zm14.8-8.644h-1.083V-1.9H120.9V-6.169h1.779v-.919H120.9Zm-3.1,5.182a18.576,18.576,0,0,0,.319-3.6V-10.1h-6.062v.9h5a16.353,16.353,0,0,1-.334,3.258Zm1.189.735c-1.262.174-2.654.271-4,.329v-2.61h-1.064v2.644c-.938.024-1.827.029-2.61.034l.106.89a48.79,48.79,0,0,0,7.638-.493Zm-5.8,2.4V.841h8.112v-.89h-7.039V-2.727Zm19.269,3.858h1.064V-11.041h-1.064Zm-7.164-6.72h4.535V-9.91h-5.656v.89h4.573v2.552h-4.554v4.651H125.2a36.9,36.9,0,0,0,6.178-.445l-.106-.9a35.85,35.85,0,0,1-5.985.445Z" transform="translate(290 1994)" fill="#212121"/><path d="M9.465-4.95c0-3.133-1.847-5.086-4.38-5.086S.706-8.083.706-4.95,2.543.135,5.086.135,9.465-1.818,9.465-4.95Zm-1.2,0c0,2.552-1.392,3.935-3.181,3.935S1.9-2.4,1.9-4.95,3.3-8.885,5.086-8.885,8.267-7.5,8.267-4.95Zm3.742.493a1.82,1.82,0,0,1,1.876-2.011,1.621,1.621,0,0,1,1.682,1.837V0h1.18V-4.718c0-1.885-1.006-2.8-2.514-2.8a2.184,2.184,0,0,0-2.166,1.267h-.1v-1.17H10.829V0h1.18Zm6.256-.319v1.083h4.341V-4.776ZM24.124-9.9V0H25.3V-9.9ZM27.5-8.653a.807.807,0,0,0,.822-.783.807.807,0,0,0-.822-.783.81.81,0,0,0-.831.783A.81.81,0,0,0,27.5-8.653ZM28.079,0V-7.425H26.9V0Zm2.775-4.457A1.82,1.82,0,0,1,32.73-6.468a1.621,1.621,0,0,1,1.682,1.837V0h1.18V-4.718c0-1.885-1.006-2.8-2.514-2.8a2.184,2.184,0,0,0-2.166,1.267h-.1v-1.17H29.675V0h1.18Zm12.55.648c0-2.756-1.644-3.713-3.21-3.713-2.011,0-3.355,1.586-3.355,3.867S38.164.155,40.31.155a2.9,2.9,0,0,0,2.978-1.9H42.031A1.881,1.881,0,0,1,40.31-.89a2.226,2.226,0,0,1-2.287-2.427H43.4Zm-5.381-.512A2.195,2.195,0,0,1,40.2-6.478a1.988,1.988,0,0,1,2,2.156ZM56.844-6.188v-4.854H55.771V1.112h1.073V-5.269h2.03v-.919Zm-3.3,4.206V-9.814H47.94v7.831ZM52.474-8.953v6.091h-3.49V-8.953ZM68.64,1.112h1.025V-11.041H68.64ZM64.135-6.236A11.068,11.068,0,0,0,64.618-9.6H59.91v.89h3.66a9.179,9.179,0,0,1-.324,1.939l-3.925.256.155.948,3.471-.358a7.7,7.7,0,0,1-3.606,3.742l.619.764a8.479,8.479,0,0,0,3.829-3.925h2.3V.493h1.025V-10.713H66.088v4.477Zm15.915-4.8V-3.5h1.073v-7.532ZM78.619-5.6a30.834,30.834,0,0,1-5.743.329v-1.6h4.409v-.87H72.875V-9.272h4.747v-.87h-5.83V-4.38h.986a33.458,33.458,0,0,0,5.956-.338ZM77.081-3.326c-2.572-.01-4.109.8-4.109,2.195,0,1.412,1.537,2.214,4.109,2.214,2.533,0,4.1-.8,4.1-2.214C81.181-2.523,79.614-3.336,77.081-3.326Zm0,3.558c-1.9,0-3.046-.5-3.046-1.363,0-.831,1.141-1.344,3.046-1.344,1.866,0,3.036.512,3.036,1.344C80.117-.271,78.947.232,77.081.232Zm6.507-1.16-.754,3.722H83.85L84.9-.928ZM96.68-7.406c-.048-1.508-1.431-2.63-3.355-2.63s-3.4,1.1-3.4,2.775c0,1.344.967,2.137,2.523,2.581l1.209.338c1.044.29,1.963.657,1.963,1.624,0,1.073-1.025,1.779-2.388,1.779-1.18,0-2.214-.522-2.311-1.634H89.651C89.767-.928,91.092.174,93.229.174c2.291,0,3.587-1.257,3.587-2.872,0-1.847-1.74-2.456-2.794-2.727l-1-.271c-.744-.193-1.9-.58-1.9-1.624,0-.938.86-1.624,2.166-1.624,1.189,0,2.088.561,2.195,1.537ZM104.947-9.9v7.725h-.1L99.485-9.9H98.3V0h1.228V-7.706h.1L104.976,0h1.18V-9.9Zm9.717,2.494c-.048-1.508-1.431-2.63-3.355-2.63s-3.4,1.1-3.4,2.775c0,1.344.967,2.137,2.523,2.581l1.209.338c1.044.29,1.963.657,1.963,1.624,0,1.073-1.025,1.779-2.388,1.779-1.18,0-2.214-.522-2.311-1.634h-1.267c.116,1.644,1.441,2.746,3.577,2.746C113.5.174,114.8-1.083,114.8-2.7c0-1.847-1.74-2.456-2.794-2.727l-1-.271c-.744-.193-1.9-.58-1.9-1.624,0-.938.86-1.624,2.166-1.624,1.189,0,2.088.561,2.195,1.537Zm1.692,6.478L115.6,2.794h1.015l1.054-3.722ZM126.423,0c2.34,0,3.316-1.141,3.316-2.63a2.314,2.314,0,0,0-2-2.475v-.1a1.984,1.984,0,0,0,1.615-2.069c0-1.46-.977-2.63-3.046-2.63h-3.481V0Zm-2.369-8.808H126.3c1.3,0,1.876.686,1.876,1.547a1.749,1.749,0,0,1-1.914,1.7h-2.2Zm0,4.312h2.417a1.92,1.92,0,0,1,2.088,1.856c0,.86-.6,1.547-2.146,1.547h-2.359Zm7.01-5.4V0h1.18V-9.9ZM136.875.155c2.021,0,3.374-1.528,3.374-3.829,0-2.32-1.354-3.848-3.374-3.848s-3.384,1.528-3.384,3.848C133.491-1.373,134.854.155,136.875.155Zm0-1.044c-1.508,0-2.2-1.305-2.2-2.785s.7-2.8,2.2-2.8,2.195,1.325,2.195,2.8S138.374-.89,136.875-.89Zm7.639,3.829c1.808,0,3.22-.822,3.22-2.736V-7.425h-1.141v1.18h-.106a2.3,2.3,0,0,0-2.166-1.276c-1.866,0-3.171,1.421-3.171,3.713,0,2.33,1.354,3.693,3.152,3.693a2.254,2.254,0,0,0,2.166-1.257h.1V.135c0,1.228-.783,1.779-2.05,1.779-1.054,0-1.76-.377-1.914-1.141h-1.238C141.5,2.156,142.715,2.939,144.514,2.939Zm-.039-4.1c-1.412,0-2.137-1.073-2.137-2.61,0-1.5.706-2.7,2.137-2.7,1.373,0,2.108,1.1,2.108,2.7C146.583-2.137,145.829-1.16,144.475-1.16Zm13.711-8.856v-1.2h-1.064v1.2h-4.428v.851h9.852v-.851Zm0,4.815c2.185-.082,3.4-.672,3.4-1.721,0-1.151-1.421-1.74-3.945-1.74s-3.945.59-3.945,1.74c0,1.049,1.233,1.644,3.423,1.721v.948h-5.008v.87h11.08v-.87h-5.008ZM154.85-6.923c-.01-.638,1.015-.986,2.794-.986s2.8.348,2.8.986c0,.609-1.015.957-2.8.957S154.84-6.314,154.85-6.923Zm2.794,4.293c-2.688,0-4.2.648-4.2,1.876,0,1.209,1.508,1.837,4.2,1.837,2.669,0,4.177-.628,4.186-1.837C161.821-1.982,160.313-2.63,157.644-2.63Zm0,2.9c-1.972.01-3.094-.358-3.094-1.025,0-.686,1.122-1.064,3.094-1.064s3.094.377,3.094,1.064C160.738-.087,159.617.28,157.644.271ZM170-3.964h3.7v-6.217H172.64v2.195h-6.314v-2.195h-1.073v6.217h3.684v2.62h-5v.9h11.128v-.9H170Zm2.639-3.142v2.262h-6.314V-7.106Z" transform="translate(290 2109)" fill="#212121"/><g transform="matrix(1, 0, 0, 1, 210, 1671)" filter="url(#q)"><path d="M5,0H237a5,5,0,0,1,5,5V90a5,5,0,0,1-5,5H5a5,5,0,0,1-5-5V5A5,5,0,0,1,5,0Z" transform="translate(1228 136)" fill="#fff"/></g><path d="M15.845-13.442v2.3H10.8v2.1h5.047V-6.7h2.6V-19.077h-2.6v3.572h-4.26a12.3,12.3,0,0,0,.174-2.1H2.039v2.122H8.925C8.511-12.34,5.867-9.829.92-8.478L1.956-6.423c4.616-1.285,7.715-3.646,9.05-7.019ZM11.436-6.464c-4.343,0-7.193,1.608-7.185,4.2C4.243.348,7.094,1.981,11.436,1.972c4.293.008,7.144-1.624,7.152-4.235C18.58-4.856,15.729-6.464,11.436-6.464Zm0,6.365C8.586-.1,6.845-.862,6.854-2.262c-.008-1.4,1.732-2.171,4.583-2.155,2.8-.017,4.533.754,4.55,2.155C15.97-.862,14.238-.1,11.436-.1Zm15.9-7.566A5.677,5.677,0,0,0,31.525-9.34H36.6v2.693h2.6V-19.094H36.6v2.884H31.55a5.662,5.662,0,0,0-4.218-1.7c-3.191-.008-5.6,2.13-5.586,5.13C21.729-9.8,24.141-7.649,27.331-7.666Zm-3.108-5.113a2.831,2.831,0,0,1,3.108-2.892A2.823,2.823,0,0,1,30.4-12.779a2.852,2.852,0,0,1-3.066,2.9A2.86,2.86,0,0,1,24.224-12.779ZM36.6-11.436H32.7a5.051,5.051,0,0,0,.182-1.343A5.113,5.113,0,0,0,32.7-14.13h3.9ZM32.03-6.191c-4.442-.008-7.218,1.517-7.21,4.127-.008,2.6,2.768,4.127,7.21,4.119,4.45.008,7.227-1.517,7.227-4.119S36.481-6.2,32.03-6.191Zm0,6.2c-2.95.008-4.666-.729-4.649-2.072-.017-1.384,1.7-2.122,4.649-2.122,2.992,0,4.682.738,4.682,2.122C36.713-.721,35.022.017,32.03.008ZM57.207,2.072h2.627V-19.094H57.207Zm-7-16.939h4.624v-2.138H42.887v2.138h4.666v1.782c-.017,3.613-2.1,7.558-5.445,9.091l1.5,2.055A10.823,10.823,0,0,0,48.92-8.47a10.082,10.082,0,0,0,5.312,6l1.417-2.055A9.373,9.373,0,0,1,50.2-13.086ZM73.956-4.906h4.152V-3.05h2.619V-19.077H78.108V-6.713H73.956ZM69.771-10.84c3.091,0,5.262-1.442,5.279-3.713-.017-2.238-2.188-3.762-5.279-3.754-3.141-.008-5.3,1.517-5.3,3.754C64.475-12.282,66.638-10.84,69.771-10.84Zm0-5.544c1.624-.008,2.776.68,2.793,1.831-.017,1.152-1.169,1.815-2.793,1.815-1.691,0-2.834-.663-2.818-1.815C66.936-15.7,68.08-16.392,69.771-16.384ZM71.329-3.638V-7.707c1.79-.133,3.6-.323,5.345-.613l-.157-1.873a119.9,119.9,0,0,1-13.649.638l.315,2.08c1.666,0,3.555-.008,5.528-.091v3.928ZM68.287-4.6h-2.61V1.674H81.215V-.439H68.287Zm30.448-1.89h2.611V-19.077H98.735ZM96.688-10.2a51.527,51.527,0,0,1-9.174.547v-2.088h6.994v-2.03H87.514v-1.981h7.608v-2.1H84.9V-7.583h1.79a55.193,55.193,0,0,0,10.26-.572Zm4.657,12.025V-5.569H87.3V1.823ZM98.793-3.53V-.282H89.867V-3.53Z" transform="translate(1458 1850)" fill="#212121"/><path d="M9.9-6.13H8.238V-10.78H7.222V.493H8.238v-5.7H9.9V1.112h1.035V-11.041H9.9ZM4.09-8.7H6.343v-.89H.657v.89h2.4v.977c0,2.465-.938,4.535-2.688,5.5l.677.822A5.8,5.8,0,0,0,3.6-5.173,5.386,5.386,0,0,0,6.1-1.818l.638-.831A5.471,5.471,0,0,1,4.09-7.725Zm9.93-1.663v4.728h8.247v-4.728Zm1.054,3.887V-9.485H21.2v3.007Zm-2.494,2.5v.88h5.008V1.1h1.054v-4.2h5.066v-.88ZM25.38-.928l-.754,3.722h1.015L26.695-.928Zm15.344,2.04H41.8V-11.041H40.724ZM36.431-9.543v-1.489H35.358v1.489h-3.2v.87H39.6v-.87Zm0,6.028c1.445-.164,2.388-1,2.388-2.2,0-1.373-1.189-2.262-2.949-2.262s-2.92.89-2.91,2.262c-.01,1.218.938,2.05,2.4,2.209v1.32c-1.233.039-2.422.048-3.461.058l.164.909a51.919,51.919,0,0,0,7.948-.474l-.087-.822c-1.122.145-2.311.237-3.49.29Zm-2.465-2.2c-.01-.851.783-1.421,1.9-1.421,1.141,0,1.924.57,1.924,1.421s-.783,1.392-1.924,1.383C34.749-4.322,33.956-4.873,33.965-5.714ZM53.312,1.112h1.025V-11.041H53.312ZM49-7.657a10.064,10.064,0,0,0,.164-1.837h-4.7v.9H48.1a7.9,7.9,0,0,1-4.177,6.3l.648.773a8.913,8.913,0,0,0,4.22-5.25h2.055v2.156H48.594v.89h2.253V.493h1.035V-10.713H50.847v3.055ZM56.715-.928l-.754,3.722h1.015L58.03-.928Zm15.412-10.1v8.885H73.2v-8.885ZM66.635-4.215A2.974,2.974,0,0,0,69.816-7.2a2.983,2.983,0,0,0-3.181-2.978A2.991,2.991,0,0,0,63.445-7.2,2.982,2.982,0,0,0,66.635-4.215ZM64.5-7.2a2.018,2.018,0,0,1,2.137-2.04A2.034,2.034,0,0,1,68.772-7.2a2.03,2.03,0,0,1-2.137,2.05A2.014,2.014,0,0,1,64.5-7.2Zm1.924,4.148H65.349v3.9h8.228v-.89H66.423ZM84.677-6.11v-4.931H83.6V1.112h1.073V-5.182h2.03V-6.11ZM79.349-9.988H78.286v2.214A6.425,6.425,0,0,1,75.1-2.349l.677.86a6.87,6.87,0,0,0,3.06-4.061,6.608,6.608,0,0,0,2.992,3.829l.667-.86a6.1,6.1,0,0,1-3.142-5.192Zm8.7,9.059L87.3,2.794h1.015L89.366-.928ZM103.5-8.054H100.63v-2.359H99.566v1.885H96.182v-1.885H95.109v5.559h5.521V-7.145H103.5v2.736h1.073v-6.633H103.5Zm-7.319,2.32V-7.677h3.384v1.943ZM97.816-2.32V-3.809H96.743V.938h7.822V-3.809H103.5V-2.32Zm0,2.369V-1.47H103.5V.048Zm10.21-10.413v4.728h8.247v-4.728Zm1.054,3.887V-9.485h6.13v3.007Zm-2.494,2.5v.88h5.008V1.1h1.054v-4.2h5.066v-.88Zm12.8,3.046-.754,3.722h1.015L120.7-.928Zm7.435-4.728c2.006-.213,3.809-.943,4.549-2.166.735,1.223,2.538,1.953,4.559,2.166l.329-.841c-2.282-.208-4.211-1.131-4.3-2.485h3.824v-.87H131.9V-11.07h-1.054v1.218h-3.867v.87h3.8c-.1,1.354-2.026,2.277-4.3,2.485Zm5.076-.609h-1.054v1.518h-5.008v.89h11.08v-.89H131.9Zm-.532,3.326c-2.639,0-4.2.706-4.2,2.011s1.557,2.011,4.2,2.011,4.177-.706,4.186-2.011C135.543-2.233,134.006-2.939,131.366-2.939Zm0,3.191c-1.963.01-3.113-.416-3.1-1.18-.01-.764,1.141-1.2,3.1-1.2s3.1.435,3.113,1.2C134.47-.164,133.319.261,131.366.251Zm8-10.616v4.728h8.247v-4.728Zm1.054,3.887V-9.485h6.13v3.007Zm-2.494,2.5v.88h5.008V1.1h1.054v-4.2h5.066v-.88Z" transform="translate(1458 1879)" fill="#212121"/><g transform="matrix(1, 0, 0, 1, 210, 1671)" filter="url(#s)"><path d="M5,0H237a5,5,0,0,1,5,5V90a5,5,0,0,1-5,5H5a5,5,0,0,1-5-5V5A5,5,0,0,1,5,0Z" transform="translate(936 136)" fill="#fff"/></g><g transform="matrix(1, 0, 0, 1, 210, 1671)" filter="url(#u)"><path d="M5,0H237a5,5,0,0,1,5,5V90a5,5,0,0,1-5,5H5a5,5,0,0,1-5-5V5A5,5,0,0,1,5,0Z" transform="translate(936 251)" fill="#fff"/></g><g transform="matrix(1, 0, 0, 1, 210, 1671)" filter="url(#w)"><path d="M5,0H237a5,5,0,0,1,5,5V90a5,5,0,0,1-5,5H5a5,5,0,0,1-5-5V5A5,5,0,0,1,5,0Z" transform="translate(936 366)" fill="#fff"/></g><path d="M17.3-10.956v-8.138H14.718V2.122H17.3V-8.793h3.265v-2.163ZM4.177-9.265h7.11v-7.989H1.55v2.113H8.685v3.8H1.591v8.47h1.74a53.275,53.275,0,0,0,10-.746l-.24-2.1a50.819,50.819,0,0,1-8.917.671Zm32.279-9.829V2.122h2.627V-19.094Zm-8.785,1.533c-3.215.008-5.544,2.909-5.536,7.483-.008,4.608,2.32,7.508,5.536,7.5,3.174.008,5.511-2.892,5.511-7.5C33.182-14.652,30.845-17.552,27.671-17.561Zm0,2.354c1.773,0,2.992,1.9,2.992,5.13,0,3.257-1.218,5.146-2.992,5.146-1.807,0-3.025-1.89-3.025-5.146C24.646-13.309,25.865-15.207,27.671-15.207ZM43.856-8.3v2.072H59.8V-8.3H56.776v-6.738h3.108v-2.1H43.79v2.1h3.066V-8.3Zm5.594,0v-6.738h4.757V-8.3ZM42.207-.472H61.575v-2.18H42.207ZM77.959,2.122h2.627V-19.094H77.959ZM66.887-15.041h7.6V-17.18H64.276V-2.992h1.79a52.844,52.844,0,0,0,10.251-.7l-.249-2.146a50.108,50.108,0,0,1-9.182.622ZM100.3-10.856v-8.238h-2.61V2.072h2.61V-8.669h3.265v-2.188Zm-8.992-4.011h4.425v-2.138H84.083v2.138H88.7v1.782c-.008,3.53-2.064,7.5-5.436,9.091L84.8-1.939a10.975,10.975,0,0,0,5.238-6.572,10.364,10.364,0,0,0,5.1,6.041L96.6-4.525a9.674,9.674,0,0,1-5.287-8.561Zm28.177-4.21V-3.771h2.61V-19.077ZM110.552-7.086c3.224.008,5.7-2.18,5.7-5.312,0-3.083-2.478-5.287-5.7-5.287s-5.718,2.2-5.71,5.287C104.834-9.265,107.329-7.077,110.552-7.086ZM107.387-12.4a2.951,2.951,0,0,1,3.166-3.017,2.962,2.962,0,0,1,3.141,3.017,2.954,2.954,0,0,1-3.141,3.041A2.943,2.943,0,0,1,107.387-12.4Zm3.323,7.069h-2.627v7h14.61V-.439H110.71Zm29.644-3.464v5.254h2.6V-19.077h-2.6v3.083H135.3a5.606,5.606,0,0,0-4.21-1.823,5.354,5.354,0,0,0-5.586,5.436,5.339,5.339,0,0,0,5.586,5.412,5.582,5.582,0,0,0,4.218-1.823Zm-12.373-3.588a2.949,2.949,0,0,1,3.108-3.108,2.956,2.956,0,0,1,3.066,3.108,2.961,2.961,0,0,1-3.066,3.108A2.954,2.954,0,0,1,127.981-12.381ZM140.354-10.9h-3.912a5.726,5.726,0,0,0,.2-1.483,5.572,5.572,0,0,0-.207-1.508h3.92ZM131.66-5.122h-2.6v6.8h14.428V-.439H131.66Zm30.68-3.655a35.153,35.153,0,0,0,.564-7.144v-1.89H148.251v2.1h12.058a32.519,32.519,0,0,1-.6,6.936h-13.74v2.122h8.262V2.1h2.627v-8.76h8.412V-8.776Zm13.939-3.754A11.066,11.066,0,0,0,184.2-7.019l1.127-2.171c-4.467-.713-7.674-3.878-7.666-7.069v-1.55H174.9v1.55c-.017,3.182-3.182,6.356-7.624,7.069L168.4-7.019A10.971,10.971,0,0,0,176.279-12.53Zm1.309,4.972H175v4.914h-8.287v2.1h19.367v-2.1h-8.494Z" transform="translate(1166 1850)" fill="#212121"/><path d="M17.3-10.79v-8.3h-2.61V2.072H17.3V-8.577h3.265V-10.79ZM8.271-17.4h-2.6v3.39C5.652-10.1,3.713-6.05.3-4.442l1.608,2.1A10.748,10.748,0,0,0,6.994-8.826a10.227,10.227,0,0,0,4.848,6.091l1.583-2.088c-3.273-1.583-5.171-5.412-5.155-9.182ZM36.6-14.262H32.768a5.258,5.258,0,0,0-5.436-3.9c-3.24-.008-5.6,2.08-5.586,4.972-.017,2.934,2.345,5.014,5.586,5.014a5.244,5.244,0,0,0,5.445-3.994H36.6v4.45h2.6v-11.37H36.6Zm-9.265,3.887a2.83,2.83,0,0,1-3.108-2.818,2.8,2.8,0,0,1,3.108-2.793A2.78,2.78,0,0,1,30.4-13.193,2.813,2.813,0,0,1,27.331-10.376ZM27.812-4.5V-6.746H25.235V1.823H39.2V-6.746H36.6V-4.5Zm0,4.21V-2.47H36.6V-.29ZM57.265,2.072h2.627V-19.094H57.265Zm-13.84-18.92v2.064h7.5c-.464,4.823-3.033,8.4-8.577,11.03l1.367,2.088c7.409-3.522,9.854-8.876,9.862-15.182ZM71.262-17.4v-1.823h-2.6V-17.4H63.713v1.914H76.235V-17.4ZM77.992-4.815h2.635V-19.044H77.992ZM76.525-7.939c-1.682.215-3.472.356-5.262.448V-8.627c2.378-.3,3.92-1.409,3.936-3.075-.017-1.956-2.122-3.2-5.213-3.191-3.166-.008-5.238,1.235-5.221,3.191-.017,1.657,1.492,2.776,3.9,3.066v1.243c-2,.058-3.92.066-5.61.066l.348,2a82.355,82.355,0,0,0,13.318-.837ZM67.26-11.7c0-.928,1.061-1.434,2.727-1.434,1.616,0,2.71.506,2.718,1.434-.008.878-1.1,1.384-2.718,1.376C68.32-10.318,67.26-10.823,67.26-11.7Zm10.732,9.8V2.072h2.635v-6H66.05v2.022ZM98.735-6.489h2.611V-19.077H98.735ZM96.688-10.2a51.527,51.527,0,0,1-9.174.547v-2.088h6.994v-2.03H87.514v-1.981h7.608v-2.1H84.9V-7.583h1.79a55.193,55.193,0,0,0,10.26-.572Zm4.657,12.025V-5.569H87.3V1.823ZM98.793-3.53V-.282H89.867V-3.53Z" transform="translate(1166 1965)" fill="#212121"/><path d="M8.262-5.039C8.254-3.232,7.434-2.287,5.95-2.287A2.141,2.141,0,0,1,3.622-4.5H.588C.58-1.384,2.859.232,5.834.232,9.108.232,11.3-1.757,11.3-5.039V-16.972H8.262ZM19.873.249c3.721,0,6.091-2.627,6.091-6.564s-2.37-6.58-6.091-6.58-6.1,2.635-6.1,6.58S16.152.249,19.873.249Zm.008-2.387c-2.072,0-3.091-1.856-3.091-4.185s1.019-4.21,3.091-4.21c2.039,0,3.058,1.881,3.058,4.21S21.92-2.138,19.881-2.138ZM31.367,0V-2.006h.174A3.846,3.846,0,0,0,35.188.224c3,0,5.254-2.387,5.254-6.572,0-4.243-2.312-6.547-5.262-6.547a3.792,3.792,0,0,0-3.638,2.262h-.116v-6.34H28.442V0Zm-.017-6.365c0-2.478,1.077-4.077,3.017-4.077,2.006,0,3.033,1.7,3.033,4.077,0,2.4-1.052,4.144-3.033,4.144C32.445-2.221,31.351-3.887,31.351-6.365ZM48.646,0H51.58V-11.718h.141L56.436-.05h2.188l4.707-11.627h.157V0h2.934V-16.972H62.685L57.63-4.641h-.2L52.384-16.972H48.646ZM74.619-12.9c-3.191,0-5.13,1.641-5.345,3.8h2.892a2.167,2.167,0,0,1,2.37-1.517c1.5,0,2.3.729,2.3,1.981l.008,1.028c-.555.025-2.37.108-3.257.166-2.362.157-4.74.994-4.74,3.87,0,2.5,1.84,3.829,4.268,3.829a3.946,3.946,0,0,0,3.738-2.006h.1V0h2.859V-8.511C79.815-11.9,77.03-12.9,74.619-12.9ZM73.881-1.939c-1.251,0-2.146-.572-2.146-1.674s.9-1.707,2.32-1.815c.6-.058,2.254-.166,2.793-.191l.008,1.052A2.729,2.729,0,0,1,73.881-1.939Zm13.964-.4c-.762-.017-1.367-.265-1.367-1.492v-6.6h2.5v-2.3h-2.5v-3.05H83.494v3.05H81.688v2.3h1.807v7.094c-.008,2.4,1.724,3.506,3.97,3.506A10.6,10.6,0,0,0,89.155.05V-2.4C88.782-2.37,88.193-2.329,87.845-2.337ZM96.713.249c3.191,0,5.229-1.9,5.436-4.583H99.307a2.49,2.49,0,0,1-2.569,2.146c-1.89,0-3.108-1.558-3.108-4.177,0-2.577,1.243-4.127,3.108-4.127a2.509,2.509,0,0,1,2.569,2.155h2.843c-.2-2.743-2.362-4.558-5.461-4.558-3.721,0-6.075,2.693-6.075,6.58C90.613-2.461,92.909.249,96.713.249ZM107.4-7.459a2.652,2.652,0,0,1,2.76-2.909,2.393,2.393,0,0,1,2.511,2.718V0h2.983V-8.1c0-3.083-1.749-4.79-4.384-4.79a3.729,3.729,0,0,0-3.779,2.329h-.157v-6.406H104.42V0H107.4Zm12.6-7.086a1.681,1.681,0,0,0,1.724-1.616,1.682,1.682,0,0,0-1.724-1.624,1.681,1.681,0,0,0-1.74,1.624A1.68,1.68,0,0,0,120.008-14.544ZM121.492,0V-12.729h-2.983V0Zm5.859-7.459a2.623,2.623,0,0,1,2.7-2.909,2.4,2.4,0,0,1,2.486,2.718V0h2.983V-8.1c0-3.05-1.732-4.79-4.359-4.79a3.8,3.8,0,0,0-3.787,2.329h-.157v-2.163h-2.851V0h2.983Zm16.55,12.5c3.456,0,5.967-1.575,5.967-4.831V-12.729h-2.942v2.1h-.149a3.842,3.842,0,0,0-3.663-2.262c-2.95,0-5.262,2.246-5.262,6.431,0,4.144,2.3,6.282,5.254,6.282a3.779,3.779,0,0,0,3.663-2.1h.149V.133c0,1.873-1.16,2.652-2.967,2.652-1.517,0-2.561-.522-2.776-1.649h-2.983C138.4,3.539,140.536,5.039,143.9,5.039Zm.025-7.566c-1.981,0-3.033-1.541-3.033-3.9,0-2.32,1.028-4.019,3.033-4.019,1.939,0,3.017,1.6,3.017,4.019C146.942-3.978,145.848-2.528,143.925-2.528Zm23.113-3.961h2.611V-19.077h-2.611ZM164.992-10.2a51.527,51.527,0,0,1-9.174.547v-2.088h6.994v-2.03h-6.994v-1.981h7.608v-2.1H153.2V-7.583h1.79a55.193,55.193,0,0,0,10.26-.572Zm4.657,12.025V-5.569H155.6V1.823ZM167.1-3.53V-.282h-8.925V-3.53Z" transform="translate(1166 2080)" fill="#212121"/><path d="M6.787-6.265H9.494v4.254h1.073v-9.021H9.494v3.867H6.787Zm.019-3.8H1.363v.89H5.675A5.287,5.287,0,0,1,5.352-7.73l-4.6.218.184.89,4.027-.329A7.278,7.278,0,0,1,.822-4.119l.435.86C5.173-4.564,6.8-6.923,6.807-10.065ZM3.974-2.91H2.891V.841h8.025v-.89H3.974ZM21.9-11.032v9.108h1.015v-9.108ZM20.555-2.243V-10.78H19.521v3.2H17.877v.87h1.644v4.467Zm-2.2-2.92a19.456,19.456,0,0,1-4.148.319V-6.613h3.1v-.851H14.2V-9.146h3.6v-.89H13.169v6.081h.764a21.34,21.34,0,0,0,4.535-.338ZM16.079-2.939H14.986V.841h8.305v-.89H16.079Zm9.727-.454A6.172,6.172,0,0,0,30.248-6.42a6.144,6.144,0,0,0,4.433,3.026l.435-.87C32.805-4.68,30.794-6.188,30.794-8.2h3.964v-.88H30.775v-1.673H29.721v1.673H25.738v.88h3.974c-.01,2.011-2.03,3.519-4.331,3.935ZM24.7-.454H35.831v-.9H24.7ZM49.648-6.14H47.956v-4.573H46.941V.5h1.015V-5.25h1.692V1.112h1.044V-11.041H49.648ZM40.791-9.465v.89H44.5a7.474,7.474,0,0,1-4.172,6.314l.628.764a8.492,8.492,0,0,0,4.593-7.967Zm21.135-1.576H60.854v6.285h1.073V-7.512h1.827V-8.4H61.927Zm-4.39.512v1.75H54v-1.75H52.945V-5.24H58.6v-5.289ZM54-6.11V-7.938h3.539V-6.11Zm7.928,4.863V-4.186H54.173v.86h6.691v1.267H54.2V.977h8.17V.1H55.256V-1.247ZM65.2-.928,64.45,2.794h1.015L66.519-.928ZM81.157-11.041H80.084v7.29h1.073V-6.99h1.827v-.89H81.157Zm-3.316.9H72.2v.89h4.481C76.468-7.14,74.6-5.458,71.673-4.6l.445.87C75.656-4.776,77.841-7.048,77.841-10.142Zm-.522,6.526c-2.427,0-3.993.89-3.983,2.349-.01,1.47,1.557,2.349,3.983,2.349S81.293.2,81.293-1.267,79.756-3.616,77.319-3.616Zm0,3.838c-1.789,0-2.93-.58-2.92-1.489-.01-.919,1.131-1.489,2.92-1.479,1.779-.01,2.93.561,2.93,1.479S79.1.222,77.319.222ZM92.653-11.041V1.131h1.073V-11.041Zm-4.921.89c-1.914,0-3.287,1.16-3.278,2.852-.01,1.692,1.363,2.852,3.278,2.852S91-5.608,91.01-7.3C91-8.992,89.646-10.152,87.732-10.152Zm0,.938A2.006,2.006,0,0,1,89.956-7.3a2.006,2.006,0,0,1-2.224,1.914A2,2,0,0,1,85.508-7.3,2,2,0,0,1,87.732-9.214ZM83.971-1.547a44.06,44.06,0,0,0,7.967-.532l-.087-.793a56.145,56.145,0,0,1-8.025.406ZM96.54-.928l-.754,3.722H96.8L97.855-.928Zm12.743-5.337h2.707v4.254h1.073v-9.021H111.99v3.867h-2.707Zm.019-3.8h-5.443v.89h4.312a5.288,5.288,0,0,1-.324,1.445l-4.6.218.184.89,4.027-.329a7.278,7.278,0,0,1-4.143,2.833l.435.86C107.669-4.564,109.293-6.923,109.3-10.065ZM106.47-2.91h-1.083V.841h8.025v-.89H106.47Zm18.7-1.847v-6.285H124.1v2.233h-2.707v.89H124.1v3.162Zm-6.444-2.934a5.011,5.011,0,0,0,2.954,2.664l.58-.841A4.054,4.054,0,0,1,119.232-9.5v-1.151h-1.054V-9.5a4.259,4.259,0,0,1-3.094,3.916l.58.86A5.034,5.034,0,0,0,118.724-7.691Zm-.353,6.444h6.8V-4.138h-7.88v.86H124.1v1.209h-6.787V.948h8.305V.077h-7.251Zm17.79-9.785V-3.5h1.073v-7.532ZM134.731-5.6a30.834,30.834,0,0,1-5.743.329v-1.6H133.4v-.87h-4.409V-9.272h4.747v-.87H127.9V-4.38h.986a33.458,33.458,0,0,0,5.956-.338Zm-1.537,2.272c-2.572-.01-4.109.8-4.109,2.195,0,1.412,1.537,2.214,4.109,2.214,2.533,0,4.1-.8,4.1-2.214C137.293-2.523,135.727-3.336,133.193-3.326Zm0,3.558c-1.9,0-3.046-.5-3.046-1.363,0-.831,1.141-1.344,3.046-1.344,1.866,0,3.036.512,3.036,1.344C136.229-.271,135.059.232,133.193.232ZM145.279-7.3V-9.659h7.242v-.89h-8.305V-6.42H152.6V-7.3ZM142.814-4.36H153.9v-.9h-11.09Zm5.53,1.064c-2.62,0-4.2.793-4.2,2.195s1.576,2.185,4.2,2.185S152.521.3,152.53-1.1C152.521-2.5,150.954-3.3,148.344-3.3Zm0,3.529c-1.943,0-3.113-.483-3.1-1.334-.01-.851,1.16-1.344,3.1-1.354,1.934.01,3.1.5,3.113,1.354C151.448-.251,150.278.232,148.344.232Z" transform="translate(1166 1879)" fill="#212121"/><path d="M9.9-6.11v-4.931H8.827V1.112H9.9V-5.182h2.03V-6.11ZM4.573-9.988H3.51v2.214A6.425,6.425,0,0,1,.319-2.349L1-1.489A6.87,6.87,0,0,0,4.056-5.55,6.608,6.608,0,0,0,7.048-1.721l.667-.86A6.1,6.1,0,0,1,4.573-7.773ZM21.6-8.131H19.047a2.919,2.919,0,0,0-3.1-2.34,2.856,2.856,0,0,0-3.152,2.8,2.863,2.863,0,0,0,3.152,2.814,2.921,2.921,0,0,0,3.108-2.388H21.6v2.717h1.073v-6.517H21.6ZM15.943-5.762a1.951,1.951,0,0,1-2.127-1.9,1.927,1.927,0,0,1,2.127-1.9,1.921,1.921,0,0,1,2.108,1.9A1.945,1.945,0,0,1,15.943-5.762Zm-.029,3.394V-3.906H14.841V.948h7.831V-3.906H21.6v1.537Zm0,2.436V-1.508H21.6V.068ZM33.675,1.112h1.073V-11.041H33.675ZM25.419-9.717v.87h4.641c-.237,2.9-1.914,5.24-5.2,6.8l.58.88c4.08-1.963,5.7-5.057,5.714-8.547ZM41.391-9.93v-1.189H40.318V-9.93H37.272v.822h7.174V-9.93Zm4.36,7.019h1.073v-8.1H45.751ZM44.736-4.535c-1.068.145-2.209.232-3.345.29v-.807c1.441-.126,2.378-.778,2.388-1.774-.01-1.122-1.18-1.818-2.91-1.808-1.76-.01-2.91.686-2.9,1.808-.01.991.9,1.644,2.349,1.774V-4.2c-1.233.039-2.427.044-3.461.044l.164.86a49.994,49.994,0,0,0,7.793-.474ZM38.983-6.826c0-.657.744-1.064,1.885-1.054,1.122-.01,1.876.4,1.876,1.054,0,.628-.754,1.044-1.876,1.035C39.728-5.782,38.983-6.2,38.983-6.826Zm6.768,5.347V1.112h1.073V-2.34h-8.2v.86Zm3.838.551-.754,3.722h1.015L50.9-.928Zm15.856-5.26v-4.854H64.373V1.112h1.073V-5.269h2.03v-.919Zm-3.3,4.206V-9.814H56.541v7.831ZM61.076-8.953v6.091h-3.49V-8.953ZM77.522,1.112h1.025V-11.041H77.522ZM73.017-6.236A11.068,11.068,0,0,0,73.5-9.6H68.791v.89h3.66a9.179,9.179,0,0,1-.324,1.939L68.2-6.517l.155.948,3.471-.358a7.7,7.7,0,0,1-3.606,3.742l.619.764a8.479,8.479,0,0,0,3.829-3.925h2.3V.493h1.025V-10.713H74.97v4.477Zm16.195-4.8V-3.5h1.073v-7.532ZM87.78-5.6a30.834,30.834,0,0,1-5.743.329v-1.6h4.409v-.87H82.037V-9.272h4.747v-.87h-5.83V-4.38h.986A33.458,33.458,0,0,0,87.9-4.718ZM86.243-3.326c-2.572-.01-4.109.8-4.109,2.195,0,1.412,1.537,2.214,4.109,2.214,2.533,0,4.1-.8,4.1-2.214C90.343-2.523,88.776-3.336,86.243-3.326Zm0,3.558c-1.9,0-3.046-.5-3.046-1.363,0-.831,1.141-1.344,3.046-1.344,1.866,0,3.036.512,3.036,1.344C89.279-.271,88.109.232,86.243.232ZM93.03-.928l-.754,3.722h1.015L94.345-.928ZM105.01-5.859c2.6,0,4.283-.928,4.283-2.427s-1.682-2.436-4.283-2.446c-2.591.01-4.293.938-4.283,2.446C100.717-6.787,102.419-5.859,105.01-5.859Zm0-3.993c1.9,0,3.152.6,3.152,1.566,0,.948-1.257,1.547-3.152,1.547s-3.152-.6-3.142-1.547C101.858-9.253,103.124-9.852,105.01-9.852ZM99.46-3.974h5.115v2.485h1.083V-3.974h4.931v-.89H99.46ZM100.9-2.707V.841h8.45V-.068h-7.377v-2.64ZM114.93-4.554A3.19,3.19,0,0,0,117.4-5.579h3.191v1.74h1.073v-7.2h-1.073v1.76H117.4a3.19,3.19,0,0,0-2.465-1.025,2.9,2.9,0,0,0-3.152,2.881A2.9,2.9,0,0,0,114.93-4.554ZM112.8-7.425a1.959,1.959,0,0,1,2.127-1.953,1.959,1.959,0,0,1,2.108,1.953,1.97,1.97,0,0,1-2.108,1.953A1.97,1.97,0,0,1,112.8-7.425Zm7.783.957h-2.673a2.923,2.923,0,0,0,.16-.957,2.915,2.915,0,0,0-.164-.977h2.678Zm-2.959,2.91c-2.523,0-4.08.851-4.07,2.32-.01,1.47,1.547,2.32,4.07,2.32s4.07-.851,4.07-2.32S120.141-3.558,117.627-3.558Zm0,3.78c-1.866,0-3.026-.551-3.017-1.46-.01-.928,1.151-1.479,3.017-1.479s3.026.551,3.026,1.479C120.653-.329,119.493.222,117.627.222Z" transform="translate(1166 1994)" fill="#212121"/><path d="M9.456-11.041v6.236h1.073v-6.236ZM7.087-7.9c-.01-1.586-1.334-2.688-3.152-2.7C2.1-10.587.773-9.485.773-7.9S2.1-5.221,3.935-5.221C5.753-5.221,7.077-6.314,7.087-7.9Zm-5.26,0A1.883,1.883,0,0,1,3.935-9.688,1.893,1.893,0,0,1,6.043-7.9,1.9,1.9,0,0,1,3.935-6.1,1.89,1.89,0,0,1,1.827-7.9ZM3.7-1.286h6.826v-2.93H2.62v.87H9.465V-2.1H2.659V.948h8.305V.077H3.7Zm18.3-4.844v-4.912H20.932V1.112h1.073V-5.211h2.03V-6.13ZM16.707-8.9h2.736v-.9H12.83v.9h2.823v1.586A6.364,6.364,0,0,1,12.4-2.079l.648.851A6.991,6.991,0,0,0,16.19-5.274a6.5,6.5,0,0,0,3.06,3.747l.619-.851a5.878,5.878,0,0,1-3.162-4.931ZM33.675,1.131h1.064V-11.041H33.675Zm-7.164-6.72h4.535V-9.91H25.39v.89h4.573v2.552H25.409v4.651h1.015A36.9,36.9,0,0,0,32.6-2.262l-.106-.9a35.85,35.85,0,0,1-5.985.445Zm23.311-5.453H48.749v6.285h1.073V-7.512h1.827V-8.4H49.822Zm-4.39.512v1.75H41.894v-1.75H40.84V-5.24H46.5v-5.289ZM41.894-6.11V-7.938h3.539V-6.11Zm7.928,4.863V-4.186H42.068v.86h6.691v1.267H42.1V.977h8.17V.1H43.151V-1.247ZM63.551-6.633H61.835a15.187,15.187,0,0,0,.256-3.133v-.773H53.834v.87h7.193a14.229,14.229,0,0,1-.271,3.036H52.423v.851h5V-4.2H53.747v.86h7.319V-2.05h-7.3V.967h8.673V.1h-7.6V-1.276h7.29V-4.2H58.485V-5.782h5.066ZM65.2-.928,64.45,2.794h1.015L66.519-.928Zm15.827-5.3h-1.7V-10.78H78.305V.493H79.33v-5.82h1.7V1.112h1.035V-11.041H81.032ZM76.758-2.166V-9.62H72.1v7.454ZM75.743-8.76v5.733h-2.63V-8.76ZM87.664-6.8a4.92,4.92,0,0,0,3.142,2.562l.512-.841C89.5-5.6,88.167-6.961,88.167-8.5v-.164h2.794v-.87H88.186v-1.518H87.1v1.518H84.3v.87h2.8V-8.5A4.154,4.154,0,0,1,84-4.767l.541.841A5.015,5.015,0,0,0,87.664-6.8Zm5.057-4.235v7.454h1.073v-7.454ZM89.733-3.326c-2.562-.01-4.109.8-4.109,2.195,0,1.412,1.547,2.214,4.109,2.214,2.543,0,4.09-.8,4.1-2.214C93.823-2.523,92.276-3.336,89.733-3.326Zm0,3.558c-1.9,0-3.026-.5-3.026-1.363,0-.831,1.131-1.344,3.026-1.344s3.036.512,3.036,1.344C92.769-.271,91.619.232,89.733.232Zm12.1-7.532V-9.659h7.242v-.89h-8.305V-6.42h8.383V-7.3ZM99.373-4.36h11.09v-.9H99.373ZM104.9-3.3c-2.62,0-4.2.793-4.2,2.195s1.576,2.185,4.2,2.185S109.08.3,109.09-1.1C109.08-2.5,107.514-3.3,104.9-3.3Zm0,3.529c-1.943,0-3.113-.483-3.1-1.334-.01-.851,1.16-1.344,3.1-1.354,1.934.01,3.1.5,3.113,1.354C108.007-.251,106.837.232,104.9.232Z" transform="translate(1166 2109)" fill="#212121"/><g transform="matrix(1, 0, 0, 1, 210, 1671)" filter="url(#y)"><path d="M5,0H237a5,5,0,0,1,5,5V90a5,5,0,0,1-5,5H5a5,5,0,0,1-5-5V5A5,5,0,0,1,5,0Z" transform="translate(644 136)" fill="#fff"/></g><g transform="matrix(1, 0, 0, 1, 210, 1671)" filter="url(#aa)"><path d="M5,0H237a5,5,0,0,1,5,5V90a5,5,0,0,1-5,5H5a5,5,0,0,1-5-5V5A5,5,0,0,1,5,0Z" transform="translate(644 251)" fill="#fff"/></g><g transform="matrix(1, 0, 0, 1, 210, 1671)" filter="url(#ac)"><path d="M5,0H237a5,5,0,0,1,5,5V90a5,5,0,0,1-5,5H5a5,5,0,0,1-5-5V5A5,5,0,0,1,5,0Z" transform="translate(644 366)" fill="#fff"/></g><g transform="matrix(1, 0, 0, 1, 210, 1671)" filter="url(#ae)"><path d="M5,0H237a5,5,0,0,1,5,5V90a5,5,0,0,1-5,5H5a5,5,0,0,1-5-5V5A5,5,0,0,1,5,0Z" transform="translate(644 481)" fill="#fff"/></g><path d="M2.552-13.3v1.972H18.116V-13.3h-2.8v-3.224h2.917v-1.964H2.436v1.964H5.354V-13.3Zm5.4,0v-3.224H12.7V-13.3ZM.7-7.939h19.3V-10H.7ZM17.6-1.483V-6.506H2.975v1.89H15.033v1.334H3V1.9H18.182V-.041H5.552V-1.483ZM37.094-11.7v6.92h2.478v-14.3H37.094v5.271H34.881v-4.881H32.453V-6.564h2.428V-11.7ZM31.367-9.431a33.333,33.333,0,0,1-6.489.58v-2.436h5.494v-6.265H22.318v2.1h5.544v2.271H22.351V-6.8h1.442a36.164,36.164,0,0,0,7.823-.588Zm2.254,3.68h-2.61V-5.3c-.017,2.412-2.718,4.691-6.97,5.254l1.044,2.022C28.392,1.483,31-.017,32.32-2.113c1.3,2.1,3.912,3.6,7.235,4.086L40.6-.05C36.315-.613,33.613-2.892,33.622-5.3Zm19.517-4.89h6.481v-2.1h-2.8v-3.622h2.917v-2.1h-15.8v2.1h2.917v3.622h-2.8v2.1h6.464v1.956H42.207v2.064h19.3V-8.685h-8.37Zm1.069-5.727v3.622H49.45v-3.622ZM59.171,1.823v-6.8H44.486v6.8ZM56.635-2.942v2.66h-9.58v-2.66Zm27.7-7.964H82.061V-18.53H79.633V1.094h2.428V-8.793H84.34V2.072h2.511V-19.094H84.34ZM69.472-16.442v2.113H75.29C74.917-10.094,73-6.746,68.494-4.16L70-2.345c6.008-3.439,7.815-8.362,7.831-14.1Zm36.655-2.652h-2.619V-8.262h2.619V-12.7h2.959v-2.122h-2.959Zm-8.478.928v2.693H92.71v-2.693H90.133v9.232h10.119v-9.232ZM92.71-11v-2.494h4.939V-11Zm13.417,9.133V-7.409H92.262v2.03h11.262v1.624H92.3V1.9H106.79V-.174H94.865V-1.865Zm19.061-4.624h2.61V-19.077h-2.61ZM123.141-10.2a51.527,51.527,0,0,1-9.174.547v-2.088h6.994v-2.03h-6.994v-1.981h7.608v-2.1H111.348V-7.583h1.79a55.193,55.193,0,0,0,10.26-.572ZM127.8,1.823V-5.569H113.751V1.823ZM125.246-3.53V-.282H116.32V-3.53Z" transform="translate(874 1850)" fill="#212121"/><path d="M15.878-12.249H11.445v2.1h4.434V2.122h2.586V-19.094H15.878ZM8.528-17.4H5.884v3.39C5.867-10.061,3.945-5.975.5-4.367L2.138-2.254a10.7,10.7,0,0,0,5.08-6.58,10.181,10.181,0,0,0,4.989,6.191l1.583-2.08c-3.381-1.492-5.262-5.354-5.262-9.282Zm27.928-1.7V2.122h2.627V-19.094ZM22.566-17.37V-2.884H32.884V-17.37H30.307v5.3h-5.13v-5.3Zm2.61,7.334h5.13v5.014h-5.13Zm26.6-2.387a11.056,11.056,0,0,0,7.84,5.735l1.169-2.171c-4.434-.779-7.641-4.061-7.633-7.343V-17.76H50.387V-16.2c-.017,3.265-3.224,6.547-7.591,7.343l1.144,2.171A11.236,11.236,0,0,0,51.779-12.423ZM42.207-.613H61.575V-2.768H42.207ZM83.718,2.072h2.627V-19.094H83.718Zm-13.84-18.92v2.064h7.5c-.464,4.823-3.033,8.4-8.577,11.03l1.367,2.088c7.409-3.522,9.854-8.876,9.862-15.182ZM97.715-17.4v-1.823h-2.6V-17.4H90.166v1.914h12.522V-17.4Zm6.729,12.588h2.635V-19.044h-2.635Zm-1.467-3.124c-1.682.215-3.472.356-5.262.448V-8.627c2.378-.3,3.92-1.409,3.936-3.075-.017-1.956-2.122-3.2-5.213-3.191C93.273-14.9,91.2-13.657,91.218-11.7c-.017,1.657,1.492,2.776,3.9,3.066v1.243c-2,.058-3.92.066-5.61.066l.348,2a82.355,82.355,0,0,0,13.318-.837ZM93.713-11.7c0-.928,1.061-1.434,2.727-1.434,1.616,0,2.71.506,2.718,1.434-.008.878-1.1,1.384-2.718,1.376C94.773-10.318,93.713-10.823,93.713-11.7Zm10.732,9.8V2.072h2.635v-6H92.5v2.022Zm20.743-4.583h2.61V-19.077h-2.61ZM123.141-10.2a51.527,51.527,0,0,1-9.174.547v-2.088h6.994v-2.03h-6.994v-1.981h7.608v-2.1H111.348V-7.583h1.79a55.193,55.193,0,0,0,10.26-.572ZM127.8,1.823V-5.569H113.751V1.823ZM125.246-3.53V-.282H116.32V-3.53Z" transform="translate(874 1965)" fill="#212121"/><path d="M15.729-19.077V-3.771h2.61V-19.077ZM6.8-7.086c3.224.008,5.7-2.18,5.7-5.312,0-3.083-2.478-5.287-5.7-5.287s-5.718,2.2-5.71,5.287C1.077-9.265,3.572-7.077,6.8-7.086ZM3.63-12.4A2.951,2.951,0,0,1,6.8-15.414,2.962,2.962,0,0,1,9.936-12.4,2.954,2.954,0,0,1,6.8-9.356,2.943,2.943,0,0,1,3.63-12.4ZM6.953-5.329H4.326v7h14.61V-.439H6.953ZM37.79-10.7a19.835,19.835,0,0,0,.6-5.644V-18.1H23.7v2.064H35.785a19.133,19.133,0,0,1-.564,5.08Zm-6.265-2.644H28.948v3.837H21.5v2.113H40.724V-9.506h-9.2Zm-.53,7.492c-4.566.008-7.492,1.459-7.492,3.97,0,2.47,2.925,3.945,7.492,3.936C35.6,2.064,38.5.588,38.519-1.881,38.5-4.392,35.6-5.843,30.994-5.851Zm0,5.9c-3.058,0-4.906-.68-4.89-1.931-.017-1.285,1.831-2.006,4.89-2.014,3.075.008,4.923.729,4.931,2.014C35.917-.63,34.069.05,30.994.05ZM57.207,2.072h2.627V-19.094H57.207Zm-7-16.939h4.624v-2.138H42.887v2.138h4.666v1.782c-.017,3.613-2.1,7.558-5.445,9.091l1.5,2.055A10.823,10.823,0,0,0,48.92-8.47a10.082,10.082,0,0,0,5.312,6l1.417-2.055A9.373,9.373,0,0,1,50.2-13.086Zm17.859,1.276v-5.138H65.47v7.243H80.088v-2.1Zm-5.1,6.257H82.293V-9.456H62.959ZM72.58-5.8c-4.6,0-7.376,1.409-7.376,3.9s2.776,3.9,7.376,3.9c4.583,0,7.334-1.4,7.343-3.9C79.914-4.392,77.163-5.8,72.58-5.8Zm0,5.793c-3.075,0-4.74-.671-4.724-1.9-.017-1.251,1.649-1.848,4.724-1.865,3.041.017,4.724.613,4.74,1.865C77.3-.68,75.622-.008,72.58-.008ZM98.735-6.489h2.611V-19.077H98.735ZM96.688-10.2a51.527,51.527,0,0,1-9.174.547v-2.088h6.994v-2.03H87.514v-1.981h7.608v-2.1H84.9V-7.583h1.79a55.193,55.193,0,0,0,10.26-.572Zm4.657,12.025V-5.569H87.3V1.823ZM98.793-3.53V-.282H89.867V-3.53Z" transform="translate(874 2080)" fill="#212121"/><path d="M16.475,2.072h2.5V-19.094h-2.5ZM10.1-11.122c-.3-3.961-2.047-6.373-4.608-6.365C2.718-17.494.912-14.6.92-9.945c-.008,4.682,1.8,7.591,4.575,7.591,2.61,0,4.384-2.528,4.624-6.671h2.03V1.061h2.478v-19.79H12.149v7.608ZM5.494-4.848c-1.359.008-2.18-1.782-2.163-5.1-.017-3.3.8-5.1,2.163-5.088,1.392-.008,2.238,1.79,2.238,5.088C7.732-6.63,6.887-4.84,5.494-4.848Zm21.141-6.746v-4.351H38.229v-2.1H23.975v8.594H38.461v-2.138Zm-5.2,4.475v2.1h4.707V2.072h2.61V-5.014h4.8V2.072h2.627V-5.014H40.8v-2.1Zm36.53,9.191h2.511V-19.094H57.961ZM50.983-11.262v2.1H53.6V1.061h2.436V-18.68H53.6v7.417Zm-5.594,2.3h4.55v-2.006H45.39V-14.6h5.428v-2.072H42.912V-2.735H44.3a38.538,38.538,0,0,0,7.641-.514l-.232-2.1a35.878,35.878,0,0,1-6.323.506Zm19.193-1.84.34,2.1L77.4-9.323a36.891,36.891,0,0,1-.812,4.972l2.6.232a45.982,45.982,0,0,0,.945-10.492v-2.528H65.2v2.113H77.586v.414c-.008,1.086-.008,2.18-.058,3.323ZM62.959-.613h19.3V-2.751h-19.3Zm41.594-8.18v5.254h2.6V-19.077h-2.6v3.083H99.5a5.606,5.606,0,0,0-4.21-1.823A5.354,5.354,0,0,0,89.7-12.381,5.339,5.339,0,0,0,95.287-6.97a5.582,5.582,0,0,0,4.218-1.823ZM92.18-12.381a2.949,2.949,0,0,1,3.108-3.108,2.956,2.956,0,0,1,3.066,3.108,2.961,2.961,0,0,1-3.066,3.108A2.954,2.954,0,0,1,92.18-12.381ZM104.552-10.9h-3.912a5.726,5.726,0,0,0,.2-1.483,5.572,5.572,0,0,0-.207-1.508h3.92ZM95.859-5.122h-2.6v6.8h14.428V-.439H95.859Zm30.68-3.655a35.153,35.153,0,0,0,.564-7.144v-1.89H112.45v2.1h12.058a32.519,32.519,0,0,1-.6,6.936h-13.74v2.122h8.262V2.1h2.627v-8.76h8.412V-8.776Zm13.939-3.754A11.066,11.066,0,0,0,148.4-7.019l1.127-2.171c-4.467-.713-7.674-3.878-7.666-7.069v-1.55h-2.768v1.55c-.017,3.182-3.182,6.356-7.624,7.069L132.6-7.019A10.971,10.971,0,0,0,140.478-12.53Zm1.309,4.972H139.2v4.914h-8.287v2.1h19.367v-2.1h-8.494Z" transform="translate(874 2195)" fill="#212121"/><path d="M9.5-6.894H6.623v.88H9.5V1.131h1.064V-11.041H9.5ZM4.767-9.988H3.684v2.214A6.436,6.436,0,0,1,.483-2.32l.686.86A6.846,6.846,0,0,0,4.235-5.574,6.577,6.577,0,0,0,7.3-1.682l.648-.87A6,6,0,0,1,4.767-7.773Zm16.775-1.054V1.131h1.073V-11.041ZM13.3-10.007v8.2h5.753v-8.2H17.993V-6.8H14.377v-3.21Zm1.073,4.07h3.616v3.229H14.377Zm15.832-1.6a6.737,6.737,0,0,0,4.549,3.515l.5-.9c-2.117-.4-4.5-2.253-4.5-4.331v-.938H29.644v.938c-.01,2.088-2.369,3.925-4.477,4.331l.493.9A6.767,6.767,0,0,0,30.209-7.537Zm-5.506,7H35.831v-.9H24.7ZM45.848-5.859c2.6,0,4.283-.928,4.283-2.427s-1.682-2.436-4.283-2.446c-2.591.01-4.293.938-4.283,2.446C41.555-6.787,43.257-5.859,45.848-5.859Zm0-3.993c1.9,0,3.152.6,3.152,1.566,0,.948-1.257,1.547-3.152,1.547s-3.152-.6-3.142-1.547C42.7-9.253,43.963-9.852,45.848-9.852ZM40.3-3.974h5.115v2.485H46.5V-3.974h4.931v-.89H40.3Zm1.441,1.267V.841h8.45V-.068H42.812v-2.64ZM55.768-4.554a3.19,3.19,0,0,0,2.465-1.025h3.191v1.74H62.5v-7.2H61.424v1.76H58.233a3.19,3.19,0,0,0-2.465-1.025,2.9,2.9,0,0,0-3.152,2.881A2.9,2.9,0,0,0,55.768-4.554ZM53.641-7.425a1.959,1.959,0,0,1,2.127-1.953,1.959,1.959,0,0,1,2.108,1.953,1.97,1.97,0,0,1-2.108,1.953A1.97,1.97,0,0,1,53.641-7.425Zm7.783.957H58.751a2.923,2.923,0,0,0,.16-.957,2.915,2.915,0,0,0-.164-.977h2.678Zm-2.959,2.91c-2.523,0-4.08.851-4.07,2.32-.01,1.47,1.547,2.32,4.07,2.32s4.07-.851,4.07-2.32S60.979-3.558,58.465-3.558Zm0,3.78c-1.866,0-3.026-.551-3.017-1.46-.01-.928,1.151-1.479,3.017-1.479s3.026.551,3.026,1.479C61.492-.329,60.331.222,58.465.222ZM65.2-.928,64.45,2.794h1.015L66.519-.928ZM80.6,1.131H81.67V-11.041H80.6ZM75.975-9.988H74.9v2.214A6.327,6.327,0,0,1,71.586-2.32l.677.9a6.786,6.786,0,0,0,3.186-4.09A6.636,6.636,0,0,0,78.6-1.663l.657-.851a6.075,6.075,0,0,1-3.287-5.26ZM89.264-7.537a6.737,6.737,0,0,0,4.549,3.515l.5-.9c-2.117-.4-4.5-2.253-4.5-4.331v-.938H88.7v.938c-.01,2.088-2.369,3.925-4.477,4.331l.493.9A6.767,6.767,0,0,0,89.264-7.537Zm-5.506,7H94.887v-.9H83.758Zm21.406-3.181h1.015v-7.319h-1.015Zm-1.344-.106v-7h-1.035v2.843h-1.644v.89h1.644v3.268Zm-2.2-1.837a20.805,20.805,0,0,1-4.148.319V-7h3.1v-.851h-3.1v-1.5h3.6v-.9H96.434v5.772H97.2a22.069,22.069,0,0,0,4.535-.329ZM106.18.948v-4.1H98.155v4.1Zm-1.044-3.229V.068H99.218V-2.282ZM120.808-6.14h-1.692v-4.573H118.1V.5h1.015V-5.25h1.692V1.112h1.044V-11.041h-1.044Zm-8.856-3.326v.89h3.708a7.474,7.474,0,0,1-4.172,6.314l.628.764a8.492,8.492,0,0,0,4.593-7.967Zm21.135-1.576h-1.073v6.285h1.073V-7.512h1.827V-8.4h-1.827Zm-4.389.512v1.75h-3.539v-1.75H124.1V-5.24h5.656v-5.289ZM125.159-6.11V-7.938H128.7V-6.11Zm7.928,4.863V-4.186h-7.754v.86h6.691v1.267h-6.662V.977h8.17V.1h-7.116V-1.247Z" transform="translate(874 1879)" fill="#212121"/><path d="M9.5-6.894H6.623v.88H9.5V1.131h1.064V-11.041H9.5ZM4.767-9.988H3.684v2.214A6.436,6.436,0,0,1,.483-2.32l.686.86A6.846,6.846,0,0,0,4.235-5.574,6.577,6.577,0,0,0,7.3-1.682l.648-.87A6,6,0,0,1,4.767-7.773Zm16.775-1.054V1.131h1.073V-11.041ZM13.3-10.007v8.2h5.753v-8.2H17.993V-6.8H14.377v-3.21Zm1.073,4.07h3.616v3.229H14.377Zm15.832-1.6a6.737,6.737,0,0,0,4.549,3.515l.5-.9c-2.117-.4-4.5-2.253-4.5-4.331v-.938H29.644v.938c-.01,2.088-2.369,3.925-4.477,4.331l.493.9A6.767,6.767,0,0,0,30.209-7.537Zm-5.506,7H35.831v-.9H24.7ZM49.29,1.112h1.073V-11.041H49.29ZM41.033-9.717v.87h4.641c-.237,2.9-1.914,5.24-5.2,6.8l.58.88c4.08-1.963,5.7-5.057,5.714-8.547ZM57.006-9.93v-1.189H55.932V-9.93H52.887v.822h7.174V-9.93ZM61.366-2.91h1.073v-8.1H61.366ZM60.351-4.535c-1.068.145-2.209.232-3.345.29v-.807c1.441-.126,2.378-.778,2.388-1.774-.01-1.122-1.18-1.818-2.91-1.808-1.76-.01-2.91.686-2.9,1.808-.01.991.9,1.644,2.349,1.774V-4.2c-1.233.039-2.427.044-3.461.044l.164.86a49.994,49.994,0,0,0,7.793-.474ZM54.6-6.826c0-.657.744-1.064,1.885-1.054,1.122-.01,1.876.4,1.876,1.054,0,.628-.754,1.044-1.876,1.035C55.343-5.782,54.6-6.2,54.6-6.826Zm6.768,5.347V1.112h1.073V-2.34h-8.2v.86ZM65.2-.928,64.45,2.794h1.015L66.519-.928ZM80.6,1.131H81.67V-11.041H80.6ZM73.529-8.982h4.7v-.9H72.446v8h.986a32.056,32.056,0,0,0,5.946-.425l-.116-.909a29.62,29.62,0,0,1-5.733.406ZM93.166-6.13v-4.912H92.093V1.112h1.073V-5.211H95.2V-6.13ZM87.867-8.9H90.6v-.9H83.99v.9h2.823v1.586a6.364,6.364,0,0,1-3.258,5.231l.648.851A6.991,6.991,0,0,0,87.35-5.274a6.5,6.5,0,0,0,3.06,3.747l.619-.851a5.878,5.878,0,0,1-3.162-4.931Zm16.959-2.137v8.885H105.9v-8.885ZM99.334-4.215A2.974,2.974,0,0,0,102.515-7.2a2.983,2.983,0,0,0-3.181-2.978A2.991,2.991,0,0,0,96.144-7.2,2.982,2.982,0,0,0,99.334-4.215ZM97.2-7.2a2.018,2.018,0,0,1,2.137-2.04,2.034,2.034,0,0,1,2.137,2.04,2.03,2.03,0,0,1-2.137,2.05A2.014,2.014,0,0,1,97.2-7.2Zm1.924,4.148H98.048v3.9h8.228v-.89H99.122Z" transform="translate(874 1994)" fill="#212121"/><path d="M9.436,1.112H10.51V-11.041H9.436ZM4.844-8.9H7.735v-.9H.89v.9H3.761v1.586A6.327,6.327,0,0,1,.493-2.079l.638.851A6.915,6.915,0,0,0,4.317-5.25,6.363,6.363,0,0,0,7.532-1.528l.6-.851A5.73,5.73,0,0,1,4.844-7.309ZM15.18-7.638V-10.8H14.116v4.041h8.3v-.88ZM12.6-4.448h11.09v-.89H12.6Zm5.53,1.093c-2.62,0-4.2.793-4.2,2.2s1.576,2.2,4.2,2.2,4.177-.793,4.186-2.2C22.305-2.562,20.739-3.355,18.128-3.355Zm0,3.568c-1.943,0-3.113-.512-3.1-1.363-.01-.86,1.16-1.344,3.1-1.354,1.934.01,3.1.493,3.113,1.354C21.232-.3,20.062.213,18.128.213Zm16-6.081v-5.173H33.057V1.112H34.13V-4.96h1.943v-.909ZM28.977-9.552v-1.47H27.9v1.47H24.771v.87H32.1v-.87Zm0,6.043a2.335,2.335,0,0,0,2.359-2.2c-.01-1.373-1.189-2.262-2.891-2.262-1.721,0-2.881.89-2.872,2.262-.01,1.209.914,2.035,2.33,2.2v1.339c-1.2.034-2.364.039-3.355.044l.184.909A46.661,46.661,0,0,0,32.39-1.7l-.077-.812c-1.059.155-2.2.247-3.336.3Zm-2.4-2.2c0-.851.744-1.421,1.866-1.421s1.856.57,1.856,1.421-.744,1.392-1.856,1.383C27.323-4.322,26.579-4.873,26.579-5.714Zm22.75-1.18H46.448v.88h2.881V1.131h1.064V-11.041H49.329ZM44.591-9.988H43.508v2.214a6.436,6.436,0,0,1-3.2,5.453l.686.86a6.846,6.846,0,0,0,3.065-4.114,6.577,6.577,0,0,0,3.065,3.892l.648-.87a6,6,0,0,1-3.181-5.221Zm16.775-1.054V1.131h1.073V-11.041Zm-8.238,1.035v8.2h5.753v-8.2H57.818V-6.8H54.2v-3.21ZM54.2-5.936h3.616v3.229H54.2Zm15.832-1.6a6.737,6.737,0,0,0,4.549,3.515l.5-.9c-2.117-.4-4.5-2.253-4.5-4.331v-.938H69.468v.938c-.01,2.088-2.369,3.925-4.477,4.331l.493.9A6.767,6.767,0,0,0,70.034-7.537Zm-5.506,7H75.656v-.9H64.528Zm16.707-4.09a6.276,6.276,0,0,0,4.452-2.557A6.251,6.251,0,0,0,90.11-4.631l.4-.87c-2.175-.29-4.293-1.624-4.293-3.142v-.01h3.935v-.88H86.2v-1.518H85.151v1.518H81.215v.88h3.935v.01C85.141-7.116,83-5.791,80.838-5.5Zm-1.093.938v.9h5.008V1.131H86.2V-2.794h5.018v-.9Zm21.068-7.338v8.914h1.073v-8.914ZM96.1-6.647a5.079,5.079,0,0,0,3.084,2.76l.551-.851a4.138,4.138,0,0,1-3.113-3.7v-.706h2.794v-.88H92.7v.88h2.843v.706A4.4,4.4,0,0,1,92.421-4.5l.561.86A5.253,5.253,0,0,0,96.1-6.647Zm-.6,3.679H94.432V.841h8.228v-.89H95.506Z" transform="translate(874 2109)" fill="#212121"/><path d="M1.566-7.464v.831h8.9v-.831H8.644V-9.823H10.51v-.841H1.528v.841H3.4v2.359Zm2.9,0V-9.823h3.1v2.359ZM.493-4.738h11.08v-.87H.493Zm9.649,3.732V-3.655H1.837v.812H9.088v1.054H1.866V.977H10.51V.145H2.92V-1.006Zm11.2-5.956v4.215h1.015v-8.286H21.339v3.181H19.628V-10.8H18.622v7h1.006V-6.961ZM17.907-5.24a20.588,20.588,0,0,1-4.264.377V-6.691h3.529v-3.394h-4.6v.89h3.577V-7.5H12.6V-4h.793a21.509,21.509,0,0,0,4.631-.377Zm.928,1.914H17.762v.319c-.01,1.6-2.059,2.9-4.177,3.22l.435.841a6.012,6.012,0,0,0,4.278-2.6,5.983,5.983,0,0,0,4.278,2.6l.435-.841c-2.127-.319-4.177-1.615-4.177-3.22Zm10.81-2.988h3.916V-7.2H31.734V-9.765H33.6v-.88H24.618v.88h1.876V-7.2H24.656v.89h3.916V-4.9H23.583v.87h11.08V-4.9H29.645ZM30.66-9.765V-7.2h-3.1V-9.765ZM33.3.948V-2.862H24.937V.948ZM32.256-2.021V.068H26V-2.021ZM35.8-.928l-.754,3.722h1.015L37.12-.928Zm14.688,2.04h1.044V-11.041H50.493ZM45.369-6.4v.9h2.659V.474h1.025V-10.751H48.027V-6.4ZM42.652-8.653H46.19v-.89H41.607v7.725h.773a21.357,21.357,0,0,0,4.544-.358l-.106-.909a18.3,18.3,0,0,1-4.167.358Zm18.97-2.388V1.131H62.7V-11.041Zm-5.385.938c-1.818.01-3.1,1.653-3.1,4.235s1.286,4.235,3.1,4.235c1.8,0,3.1-1.644,3.1-4.235S58.035-10.094,56.237-10.1Zm0,.957c1.218.01,2.059,1.305,2.059,3.278s-.841,3.278-2.059,3.278-2.069-1.3-2.069-3.278S55.018-9.137,56.237-9.146Zm17,2.7H70.663v.89h2.572V1.131H74.3V-11.041H73.235Zm-7.367.812h4.051v-.87H65.867V-9.04H70.46v-.89H64.784V-1.8h.928a32.918,32.918,0,0,0,5.608-.377l-.126-.89a28,28,0,0,1-5.327.367ZM76.445-.928l-.754,3.722h1.015L77.76-.928Zm14.272,2.04h1.073V-11.041H90.718ZM86.125-8.9h2.891v-.9H82.171v.9h2.872v1.586a6.327,6.327,0,0,1-3.268,5.231l.638.851A6.915,6.915,0,0,0,85.6-5.25a6.363,6.363,0,0,0,3.215,3.722l.6-.851a5.73,5.73,0,0,1-3.287-4.931ZM95.9-7.638V-10.8H94.837v4.041h8.3v-.88ZM93.319-4.448h11.09v-.89H93.319Zm5.53,1.093c-2.62,0-4.2.793-4.2,2.2s1.576,2.2,4.2,2.2,4.177-.793,4.186-2.2C103.026-2.562,101.46-3.355,98.85-3.355Zm0,3.568c-1.943,0-3.113-.512-3.1-1.363-.01-.86,1.16-1.344,3.1-1.354,1.934.01,3.1.493,3.113,1.354C101.953-.3,100.783.213,98.85.213Zm15.441-6.081v-5.173h-1.073V1.112h1.073V-4.96h1.943v-.909Zm-5.153-3.684v-1.47h-1.073v1.47h-3.133v.87h7.329v-.87Zm0,6.043a2.335,2.335,0,0,0,2.359-2.2c-.01-1.373-1.189-2.262-2.891-2.262-1.721,0-2.881.89-2.872,2.262-.01,1.209.914,2.035,2.33,2.2v1.339c-1.2.034-2.364.039-3.355.044l.184.909a46.661,46.661,0,0,0,7.657-.483l-.077-.812c-1.059.155-2.2.247-3.336.3Zm-2.4-2.2c0-.851.744-1.421,1.866-1.421s1.856.57,1.856,1.421-.744,1.392-1.856,1.383C107.484-4.322,106.74-4.873,106.74-5.714Zm21.63-1.18h-2.881v.88h2.881V1.131h1.064V-11.041H128.37Zm-4.738-3.094H122.55v2.214a6.436,6.436,0,0,1-3.2,5.453l.686.86A6.846,6.846,0,0,0,123.1-5.574a6.577,6.577,0,0,0,3.065,3.892l.648-.87a6,6,0,0,1-3.181-5.221Zm16.215-1.054V1.131h1.073V-11.041Zm-8.238,1.035v8.2h5.753v-8.2H136.3V-6.8h-3.616v-3.21Zm1.073,4.07H136.3v3.229h-3.616Zm15.272-1.6A6.737,6.737,0,0,0,152.5-4.022l.5-.9c-2.117-.4-4.5-2.253-4.5-4.331v-.938h-1.122v.938c-.01,2.088-2.369,3.925-4.477,4.331l.493.9A6.767,6.767,0,0,0,147.955-7.537Zm-5.506,7h11.128v-.9H142.449Zm23.5-4.8V-2.05h1.073v-8.982h-1.073v1.9h-3.162a3.172,3.172,0,0,0-2.494-1.141,3,3,0,0,0-3.152,3.046,2.982,2.982,0,0,0,3.152,3.036A3.144,3.144,0,0,0,162.8-5.337Zm-7.783-1.885a2.042,2.042,0,0,1,2.127-2.088A2.049,2.049,0,0,1,162.4-7.222a2.037,2.037,0,0,1-2.108,2.088A2.031,2.031,0,0,1,158.162-7.222Zm7.783,1h-2.673a3.184,3.184,0,0,0,.16-1,3.147,3.147,0,0,0-.164-1.015h2.678Zm-5.656,3.239h-1.073V.841h8.141v-.89h-7.068Zm17.462-2.04a19.354,19.354,0,0,0,.348-4.157v-1.064h-8.218v.89h7.155v.174a17.966,17.966,0,0,1-.377,4.157h-8.17v.89h4.979V1.131h1.073V-4.138h5.028v-.89ZM189.364-6.14h-1.692v-4.573h-1.015V.5h1.015V-5.25h1.692V1.112h1.044V-11.041h-1.044Zm-8.856-3.326v.89h3.708a7.474,7.474,0,0,1-4.172,6.314l.628.764a8.492,8.492,0,0,0,4.593-7.967Zm20.575-1.576h-1.073v6.285h1.073V-7.512h1.827V-8.4h-1.827Zm-4.389.512v1.75h-3.539v-1.75H192.1V-5.24h5.656v-5.289ZM193.154-6.11V-7.938h3.539V-6.11Zm7.928,4.863V-4.186h-7.754v.86h6.691v1.267h-6.662V.977h8.17V.1h-7.116V-1.247Z" transform="translate(874 2224)" fill="#212121"/><g transform="matrix(1, 0, 0, 1, 210, 1671)" filter="url(#ag)"><path d="M5,0H237a5,5,0,0,1,5,5V90a5,5,0,0,1-5,5H5a5,5,0,0,1-5-5V5A5,5,0,0,1,5,0Z" transform="translate(352 136)" fill="#fff"/></g><g transform="matrix(1, 0, 0, 1, 210, 1671)" filter="url(#ai)"><path d="M5,0H237a5,5,0,0,1,5,5V90a5,5,0,0,1-5,5H5a5,5,0,0,1-5-5V5A5,5,0,0,1,5,0Z" transform="translate(352 251)" fill="#fff"/></g><g transform="matrix(1, 0, 0, 1, 210, 1671)" filter="url(#ak)"><path d="M5,0H237a5,5,0,0,1,5,5V90a5,5,0,0,1-5,5H5a5,5,0,0,1-5-5V5A5,5,0,0,1,5,0Z" transform="translate(352 366)" fill="#fff"/></g><path d="M7.434-16.972H1.583V0H7.326c5.171,0,8.221-3.2,8.221-8.5C15.547-13.79,12.5-16.972,7.434-16.972ZM4.624-2.644V-14.329H7.268c3.456,0,5.254,1.931,5.254,5.826s-1.8,5.859-5.345,5.859Zm17.4-11.76V0h3.033V-14.4H30.3v-2.569H16.782V-14.4Zm17.5,6.729c3.53-.439,6.273-1.956,7.649-4.019,1.384,2.039,4.1,3.58,7.608,4.019l.945-2.055c-4.218-.514-6.978-2.7-7.235-4.79h6.539v-2.072h-6.58v-2.494H45.87v2.494H39.323v2.072h6.53c-.265,2.113-3.041,4.276-7.268,4.79Zm-2,1.293v2.138H45.87V2.1h2.586V-4.243h8.378V-6.381Zm35.776-12.7V-3.7H75.92V-19.077Zm-8.254,8.2A8.357,8.357,0,0,0,70.169-6.5L71.5-8.544c-3.373-1.028-5.171-3.613-5.171-6.249v-.6H70.79v-2.1H59.13v2.1h4.558v.6a7.119,7.119,0,0,1-5.246,6.655l1.351,2.055A8.7,8.7,0,0,0,65.055-10.881Zm-.522,5.76H61.906v6.8h14.61V-.439H64.533ZM94.061-6.489h2.61V-19.077h-2.61ZM92.014-10.2a51.527,51.527,0,0,1-9.174.547v-2.088h6.994v-2.03H82.84v-1.981h7.608v-2.1H80.221V-7.583h1.79a55.193,55.193,0,0,0,10.26-.572ZM96.671,1.823V-5.569H82.624V1.823ZM94.119-3.53V-.282H85.193V-3.53Z" transform="translate(582 1850)" fill="#212121"/><path d="M2.718-11.809,15-12.34A24.172,24.172,0,0,1,14.561-9.5l2.569.215a31.656,31.656,0,0,0,.6-6.994v-1.931H2.95v2.088h12.2c0,.6-.008,1.21-.025,1.831l-12.738.315Zm8.047.9H8.146V-8.1H.746v2.064H19.972V-8.1H10.765ZM3.05-4.55v6.3H18.133v-2.1H5.66V-4.55ZM37.094-19.077V-3.249h2.478V-19.077ZM35.4-3.762V-18.671H32.917v5.436H30.53v2.08h2.387v7.392ZM31.218-8.992a34.136,34.136,0,0,1-6.373.472v-2.445H29.6v-2H24.845v-2.37h5.561v-2.1H22.343V-6.406h1.4a40.207,40.207,0,0,0,7.732-.53ZM28.135-4.981H25.508V1.674H40.144V-.439H28.135Zm15.912-.671c3.638-.6,6.423-2.354,7.815-4.79,1.384,2.436,4.177,4.185,7.823,4.79L60.7-7.732c-4.583-.671-7.326-3.3-7.492-6.149h6.613v-2.1H53.155v-2.727H50.577v2.727H43.923v2.1h6.613C50.354-11.03,47.6-8.4,43.044-7.732Zm-1.84,5.18H61.575V-2.61H42.207ZM84.34-10.906H82.061V-18.53H79.633V1.094h2.428V-8.793H84.34V2.072h2.511V-19.094H84.34ZM69.472-16.442v2.113H75.29C74.917-10.094,73-6.746,68.494-4.16L70-2.345c6.008-3.439,7.815-8.362,7.831-14.1Zm36.655-2.652h-2.619V-8.262h2.619V-12.7h2.959v-2.122h-2.959Zm-8.478.928v2.693H92.71v-2.693H90.133v9.232h10.119v-9.232ZM92.71-11v-2.494h4.939V-11Zm13.417,9.133V-7.409H92.262v2.03h11.262v1.624H92.3V1.9H106.79V-.174H94.865V-1.865Zm19.061-4.624h2.61V-19.077h-2.61ZM123.141-10.2a51.527,51.527,0,0,1-9.174.547v-2.088h6.994v-2.03h-6.994v-1.981h7.608v-2.1H111.348V-7.583h1.79a55.193,55.193,0,0,0,10.26-.572ZM127.8,1.823V-5.569H113.751V1.823ZM125.246-3.53V-.282H116.32V-3.53Z" transform="translate(582 1965)" fill="#212121"/><path d="M6.58-7.666A5.677,5.677,0,0,0,10.773-9.34h5.072v2.693h2.6V-19.094h-2.6v2.884H10.8a5.662,5.662,0,0,0-4.218-1.7c-3.191-.008-5.6,2.13-5.586,5.13C.978-9.8,3.39-7.649,6.58-7.666ZM3.472-12.779A2.831,2.831,0,0,1,6.58-15.671a2.823,2.823,0,0,1,3.066,2.892,2.852,2.852,0,0,1-3.066,2.9A2.86,2.86,0,0,1,3.472-12.779Zm12.373,1.343h-3.9a5.051,5.051,0,0,0,.182-1.343,5.113,5.113,0,0,0-.182-1.351h3.9ZM11.279-6.191C6.837-6.2,4.061-4.674,4.069-2.064c-.008,2.6,2.768,4.127,7.21,4.119,4.45.008,7.227-1.517,7.227-4.119S15.729-6.2,11.279-6.191Zm0,6.2C8.329.017,6.613-.721,6.63-2.064c-.017-1.384,1.7-2.122,4.649-2.122,2.992,0,4.682.738,4.682,2.122C15.961-.721,14.271.017,11.279.008Zm26.892-19.1H35.552V-6.431h2.619v-5.354H41.13v-2.171H38.171ZM27.7-11.76a8.063,8.063,0,0,0,4.848,4.285l1.392-2.03a6.588,6.588,0,0,1-4.981-6.224v-2.246h-2.6v2.006a7.308,7.308,0,0,1-5.138,7.036l1.409,2.055A8.445,8.445,0,0,0,27.7-11.76Zm3.58,5.8c-4.425-.008-7.177,1.475-7.169,3.994C24.1.6,26.851,2.064,31.276,2.055c4.376.008,7.086-1.459,7.086-4.019C38.362-4.483,35.652-5.967,31.276-5.959Zm0,5.967C28.367,0,26.7-.663,26.71-1.964,26.7-3.207,28.367-3.92,31.276-3.92S35.8-3.207,35.8-1.964C35.8-.663,34.177,0,31.276.008ZM63.588-10.906H61.309V-18.53H58.881V1.094h2.428V-8.793h2.279V2.072H66.1V-19.094H63.588ZM48.721-16.442v2.113h5.818c-.373,4.235-2.287,7.583-6.8,10.169l1.508,1.815c6.008-3.439,7.815-8.362,7.831-14.1Zm36.655-2.652H82.757V-8.262h2.619V-12.7h2.959v-2.122H85.376Zm-8.478.928v2.693H71.959v-2.693H69.381v9.232H79.5v-9.232ZM71.959-11v-2.494H76.9V-11ZM85.376-1.865V-7.409H71.511v2.03H82.773v1.624H71.544V1.9H86.039V-.174H74.113V-1.865Zm19.061-4.624h2.61V-19.077h-2.61ZM102.389-10.2a51.527,51.527,0,0,1-9.174.547v-2.088h6.994v-2.03H93.215v-1.981h7.608v-2.1H90.6V-7.583h1.79a55.193,55.193,0,0,0,10.26-.572Zm4.657,12.025V-5.569H93V1.823ZM104.494-3.53V-.282H95.569V-3.53Z" transform="translate(582 2080)" fill="#212121"/><path d="M2.32,0V-3.191L3.558-4.583,6.961,0h1.5L4.322-5.434,8.46-9.9h-1.6L2.446-5.008H2.32V-9.9H1.093V0ZM7.846-5.492v1.083h4.341V-5.492ZM17.061-9.9h-3.2V0h3.075c3.017,0,4.718-1.876,4.718-4.97C21.653-8.044,19.952-9.9,17.061-9.9ZM15.088-1.093V-8.808h1.9c2.3,0,3.471,1.45,3.471,3.838,0,2.407-1.17,3.877-3.6,3.877Zm8.528-7.561a.807.807,0,0,0,.822-.783.807.807,0,0,0-.822-.783.81.81,0,0,0-.831.783A.81.81,0,0,0,23.616-8.653ZM24.2,0V-7.425h-1.18V0Zm4.612,2.939c1.808,0,3.22-.822,3.22-2.736V-7.425H30.888v1.18h-.106a2.3,2.3,0,0,0-2.166-1.276c-1.866,0-3.171,1.421-3.171,3.713,0,2.33,1.354,3.693,3.152,3.693a2.254,2.254,0,0,0,2.166-1.257h.1V.135c0,1.228-.783,1.779-2.05,1.779-1.054,0-1.76-.377-1.914-1.141H25.657C25.792,2.156,27.011,2.939,28.809,2.939Zm-.039-4.1c-1.412,0-2.137-1.073-2.137-2.61,0-1.5.706-2.7,2.137-2.7,1.373,0,2.108,1.1,2.108,2.7C30.878-2.137,30.124-1.16,28.77-1.16Zm5.453-7.493a.807.807,0,0,0,.822-.783.807.807,0,0,0-.822-.783.81.81,0,0,0-.831.783A.81.81,0,0,0,34.224-8.653ZM34.8,0V-7.425h-1.18V0Zm4.255-1.025c-.5,0-.977-.155-.977-1.112v-4.3h1.566v-.986H38.082V-9.2H36.9v1.779H35.781v.986H36.9v4.612A1.906,1.906,0,0,0,38.933.1a5.472,5.472,0,0,0,.822-.058V-1.054C39.58-1.044,39.271-1.025,39.058-1.025Zm4.641-6.5c-1.644,0-2.8.831-2.949,2.03h1.218A1.582,1.582,0,0,1,43.642-6.5c1.122,0,1.682.551,1.682,1.489v.6c-.329.01-1.528.077-2.011.111-1.286.1-2.785.483-2.785,2.185A2.3,2.3,0,0,0,43.061.174a2.339,2.339,0,0,0,2.2-1.18h.058V0h1.17V-4.892A2.477,2.477,0,0,0,43.7-7.522ZM43.255-.87c-.9,0-1.547-.4-1.547-1.18,0-.812.677-1.189,1.75-1.257.353-.024,1.518-.111,1.866-.131v.749A1.886,1.886,0,0,1,43.255-.87ZM48.089-9.9V0h1.18V-9.9Zm14.523-1.131v8.885h1.073v-8.885ZM57.121-4.215A2.974,2.974,0,0,0,60.3-7.2a2.983,2.983,0,0,0-3.181-2.978A2.991,2.991,0,0,0,53.93-7.2,2.982,2.982,0,0,0,57.121-4.215ZM54.984-7.2a2.018,2.018,0,0,1,2.137-2.04A2.034,2.034,0,0,1,59.257-7.2a2.03,2.03,0,0,1-2.137,2.05A2.014,2.014,0,0,1,54.984-7.2Zm1.924,4.148H55.835v3.9h8.228v-.89H56.908ZM74.476-9.224H72.049v.87h2.427V-6.71H72.049v.88h2.427v2.262h1.073v-7.464H74.476ZM71.952-5.308A25.109,25.109,0,0,1,67.06-5V-6.884h4.177V-10.3H65.968v.87h4.206v1.711H66v3.587h.861a29.308,29.308,0,0,0,5.2-.29ZM74.476-2.03V1.131h1.073V-2.91H67.36v.88ZM88.6-9.2H86.8v-1.837H85.73v7.213H86.8V-5.714h1.8v-.909H86.8V-8.315h1.8Zm-4.689,1.75a2.914,2.914,0,0,0-3.191-2.852,2.9,2.9,0,0,0-3.191,2.852,2.921,2.921,0,0,0,3.191,2.862A2.932,2.932,0,0,0,83.913-7.454Zm-5.327,0A1.96,1.96,0,0,1,80.722-9.4a1.979,1.979,0,0,1,2.146,1.943A1.992,1.992,0,0,1,80.722-5.5,1.973,1.973,0,0,1,78.585-7.454Zm4.322,3.993c-2.485.01-4.032.841-4.032,2.282,0,1.421,1.547,2.262,4.032,2.262s4-.841,4-2.262C86.91-2.62,85.382-3.452,82.907-3.461Zm0,3.674C81.07.213,79.939-.3,79.949-1.18c-.01-.88,1.122-1.4,2.959-1.4s2.959.522,2.959,1.4S84.744.213,82.907.213ZM99.2-3.838v-7.2H98.126v2.6H95.419v.89h2.707v3.713ZM92.794-7.2a5.011,5.011,0,0,0,2.925,2.77l.6-.841A4.175,4.175,0,0,1,93.3-9.127v-1.218H92.238v1.257a4.472,4.472,0,0,1-3.123,4.157l.58.87A5.183,5.183,0,0,0,92.794-7.2ZM95.167-3.49c-2.533,0-4.08.841-4.07,2.3-.01,1.45,1.537,2.272,4.07,2.272s4.07-.822,4.07-2.272S97.691-3.49,95.167-3.49Zm0,3.713c-1.866,0-3.017-.532-3.007-1.412-.01-.909,1.141-1.45,3.007-1.45s3.007.541,3.007,1.45C98.174-.309,97.024.222,95.167.222Zm15.19-6.333v-4.931h-1.073V1.112h1.073V-5.182h2.03V-6.11ZM105.03-9.988h-1.064v2.214a6.425,6.425,0,0,1-3.191,5.424l.677.86a6.87,6.87,0,0,0,3.06-4.061A6.608,6.608,0,0,0,107.5-1.721l.667-.86a6.1,6.1,0,0,1-3.142-5.192Zm16.746,1.856h-2.552a2.919,2.919,0,0,0-3.1-2.34,2.856,2.856,0,0,0-3.152,2.8,2.863,2.863,0,0,0,3.152,2.814,2.921,2.921,0,0,0,3.108-2.388h2.548v2.717h1.073v-6.517h-1.073ZM116.12-5.762a1.951,1.951,0,0,1-2.127-1.9,1.927,1.927,0,0,1,2.127-1.9,1.921,1.921,0,0,1,2.108,1.9A1.945,1.945,0,0,1,116.12-5.762Zm-.029,3.394V-3.906h-1.073V.948h7.831V-3.906h-1.073v1.537Zm0,2.436V-1.508h5.685V.068Zm9.185-1-.754,3.722h1.015l1.054-3.722ZM134.965-9.9h-3.2V0h3.075c3.017,0,4.718-1.876,4.718-4.97C139.557-8.044,137.856-9.9,134.965-9.9Zm-1.972,8.808V-8.808h1.9c2.3,0,3.471,1.45,3.471,3.838,0,2.407-1.17,3.877-3.6,3.877Zm10.249-7.715V0h1.238V-8.808h3.1V-9.9h-7.454v1.093Zm14.881,1.827h2.456V-3.8h1.073v-7.242h-1.073V-7.87h-2.456Zm-2.838-.039a5.044,5.044,0,0,0,2.954,2.765l.561-.86a4.152,4.152,0,0,1-3-3.7v-.445h2.717v-.89h-6.546v.89h2.746v.454a4.512,4.512,0,0,1-3.094,4.041l.561.851A5.267,5.267,0,0,0,155.284-7.019Zm2.335,3.6c-2.533,0-4.08.831-4.07,2.262-.01,1.431,1.537,2.253,4.07,2.262,2.523-.01,4.07-.831,4.07-2.262S160.143-3.423,157.619-3.423Zm0,3.664c-1.866.01-3.017-.522-3.007-1.4-.01-.89,1.141-1.421,3.007-1.421s3.007.532,3.007,1.421S159.476.251,157.619.242Zm14.387-10.78v1.682h-6.13v-1.682h-1.064v5.231h8.267v-5.231Zm-6.13,4.36V-7.986h6.13v1.808Zm-2.494,2.349v.87h5.008v4.07h1.054v-4.07h5.066v-.87ZM184.634-6.11v-4.931h-1.073V1.112h1.073V-5.182h2.03V-6.11Zm-5.327-3.877h-1.064v2.214a6.425,6.425,0,0,1-3.191,5.424l.677.86a6.87,6.87,0,0,0,3.06-4.061,6.608,6.608,0,0,0,2.992,3.829l.667-.86a6.1,6.1,0,0,1-3.142-5.192Zm16.746,1.856H193.5a2.919,2.919,0,0,0-3.1-2.34,2.856,2.856,0,0,0-3.152,2.8A2.863,2.863,0,0,0,190.4-4.854a2.921,2.921,0,0,0,3.108-2.388h2.548v2.717h1.073v-6.517h-1.073ZM190.4-5.762a1.951,1.951,0,0,1-2.127-1.9,1.927,1.927,0,0,1,2.127-1.9,1.921,1.921,0,0,1,2.108,1.9A1.945,1.945,0,0,1,190.4-5.762Zm-.029,3.394V-3.906h-1.073V.948h7.831V-3.906h-1.073v1.537Zm0,2.436V-1.508h5.685V.068Z" transform="translate(582 1879)" fill="#212121"/><path d="M1.518-7.986l.155.919,7.4-.348a15.665,15.665,0,0,1-.28,1.924l1.064.1a18.585,18.585,0,0,0,.338-4.032v-1.025H1.818v.88H9.127v.145c0,.382,0,.778-.015,1.2ZM6.1-6.372H5.018v1.789H.5v.88H11.564v-.88H6.1Zm-4.186,3.7V.919h8.557V.039H2.988V-2.669ZM21.9-11.032v9.108h1.015v-9.108ZM20.555-2.243V-10.78H19.521v3.2H17.877v.87h1.644v4.467Zm-2.2-2.92a19.456,19.456,0,0,1-4.148.319V-6.613h3.1v-.851H14.2V-9.146h3.6v-.89H13.169v6.081h.764a21.34,21.34,0,0,0,4.535-.338ZM16.079-2.939H14.986V.841h8.305v-.89H16.079Zm9.727-.454A6.172,6.172,0,0,0,30.248-6.42a6.144,6.144,0,0,0,4.433,3.026l.435-.87C32.805-4.68,30.794-6.188,30.794-8.2h3.964v-.88H30.775v-1.673H29.721v1.673H25.738v.88h3.974c-.01,2.011-2.03,3.519-4.331,3.935ZM24.7-.454H35.831v-.9H24.7ZM49.29,1.112h1.073V-11.041H49.29ZM41.033-9.717v.87h4.641c-.237,2.9-1.914,5.24-5.2,6.8l.58.88c4.08-1.963,5.7-5.057,5.714-8.547ZM57.006-9.93v-1.189H55.932V-9.93H52.887v.822h7.174V-9.93ZM61.366-2.91h1.073v-8.1H61.366ZM60.351-4.535c-1.068.145-2.209.232-3.345.29v-.807c1.441-.126,2.378-.778,2.388-1.774-.01-1.122-1.18-1.818-2.91-1.808-1.76-.01-2.91.686-2.9,1.808-.01.991.9,1.644,2.349,1.774V-4.2c-1.233.039-2.427.044-3.461.044l.164.86a49.994,49.994,0,0,0,7.793-.474ZM54.6-6.826c0-.657.744-1.064,1.885-1.054,1.122-.01,1.876.4,1.876,1.054,0,.628-.754,1.044-1.876,1.035C55.343-5.782,54.6-6.2,54.6-6.826Zm6.768,5.347V1.112h1.073V-2.34h-8.2v.86ZM65.2-.928,64.45,2.794h1.015L66.519-.928ZM80.983-6.14H79.291v-4.573H78.276V.5h1.015V-5.25h1.692V1.112h1.044V-11.041H80.983ZM72.127-9.465v.89h3.708a7.474,7.474,0,0,1-4.172,6.314l.628.764a8.492,8.492,0,0,0,4.593-7.967Zm21.135-1.576H92.189v6.285h1.073V-7.512H95.09V-8.4H93.262Zm-4.39.512v1.75H85.334v-1.75H84.28V-5.24h5.656v-5.289ZM85.334-6.11V-7.938h3.539V-6.11Zm7.928,4.863V-4.186H85.508v.86H92.2v1.267H85.537V.977h8.17V.1H86.591V-1.247Zm3.278.319-.754,3.722H96.8L97.855-.928Zm11.979-4.931c2.6,0,4.283-.928,4.283-2.427s-1.682-2.436-4.283-2.446c-2.591.01-4.293.938-4.283,2.446C104.227-6.787,105.928-5.859,108.519-5.859Zm0-3.993c1.9,0,3.152.6,3.152,1.566,0,.948-1.257,1.547-3.152,1.547s-3.152-.6-3.142-1.547C105.367-9.253,106.634-9.852,108.519-9.852Zm-5.55,5.878h5.115v2.485h1.083V-3.974H114.1v-.89H102.97Zm1.441,1.267V.841h8.45V-.068h-7.377v-2.64Zm14.029-1.847A3.19,3.19,0,0,0,120.9-5.579H124.1v1.74h1.073v-7.2H124.1v1.76H120.9a3.19,3.19,0,0,0-2.465-1.025,2.9,2.9,0,0,0-3.152,2.881A2.9,2.9,0,0,0,118.439-4.554Zm-2.127-2.872a1.959,1.959,0,0,1,2.127-1.953,1.959,1.959,0,0,1,2.108,1.953,1.97,1.97,0,0,1-2.108,1.953A1.97,1.97,0,0,1,116.312-7.425Zm7.783.957h-2.673a2.923,2.923,0,0,0,.16-.957,2.915,2.915,0,0,0-.164-.977H124.1Zm-2.959,2.91c-2.523,0-4.08.851-4.07,2.32-.01,1.47,1.547,2.32,4.07,2.32s4.07-.851,4.07-2.32S123.651-3.558,121.137-3.558Zm0,3.78c-1.866,0-3.026-.551-3.017-1.46-.01-.928,1.151-1.479,3.017-1.479s3.026.551,3.026,1.479C124.163-.329,123,.222,121.137.222Z" transform="translate(582 1994)" fill="#212121"/><path d="M3.838-4.554A3.19,3.19,0,0,0,6.3-5.579H9.494v1.74h1.073v-7.2H9.494v1.76H6.3a3.19,3.19,0,0,0-2.465-1.025A2.9,2.9,0,0,0,.686-7.425,2.9,2.9,0,0,0,3.838-4.554ZM1.711-7.425A1.959,1.959,0,0,1,3.838-9.378,1.959,1.959,0,0,1,5.946-7.425,1.97,1.97,0,0,1,3.838-5.472,1.97,1.97,0,0,1,1.711-7.425Zm7.783.957H6.821a2.923,2.923,0,0,0,.16-.957A2.915,2.915,0,0,0,6.816-8.4H9.494ZM6.536-3.558c-2.523,0-4.08.851-4.07,2.32-.01,1.47,1.547,2.32,4.07,2.32s4.07-.851,4.07-2.32S9.05-3.558,6.536-3.558Zm0,3.78C4.67.222,3.51-.329,3.519-1.238,3.51-2.166,4.67-2.717,6.536-2.717s3.026.551,3.026,1.479C9.562-.329,8.4.222,6.536.222ZM22.1-11.041H21.029v7.4H22.1V-6.971H23.93v-.9H22.1ZM16.161-7.222A5.034,5.034,0,0,0,19.1-4.457l.58-.851a4.2,4.2,0,0,1-3.017-3.771v-1.334H15.6v1.257A4.511,4.511,0,0,1,12.55-4.979l.58.86A5.2,5.2,0,0,0,16.161-7.222Zm2.045,3.887c-2.5,0-4.032.812-4.032,2.2,0,1.412,1.528,2.214,4.032,2.214s4-.8,4-2.214C22.209-2.523,20.7-3.336,18.206-3.336Zm0,3.568c-1.837-.01-2.968-.5-2.959-1.363-.01-.831,1.122-1.344,2.959-1.344s2.959.512,2.959,1.344C21.164-.271,20.043.222,18.206.232ZM29.238-7.986l.155.919,7.4-.348a15.665,15.665,0,0,1-.28,1.924l1.064.1a18.584,18.584,0,0,0,.338-4.032v-1.025H29.537v.88h7.309v.145c0,.382,0,.778-.015,1.2ZM33.82-6.372H32.738v1.789H28.222v.88H39.283v-.88H33.82Zm-4.186,3.7V.919h8.557V.039H30.707V-2.669Zm19.985-8.363v9.108h1.015v-9.108ZM48.275-2.243V-10.78H47.24v3.2H45.6v.87H47.24v4.467Zm-2.2-2.92a19.456,19.456,0,0,1-4.148.319V-6.613h3.1v-.851h-3.1V-9.146h3.6v-.89H40.888v6.081h.764a21.34,21.34,0,0,0,4.535-.338ZM43.8-2.939H42.706V.841h8.305v-.89H43.8Zm9.727-.454A6.172,6.172,0,0,0,57.968-6.42,6.144,6.144,0,0,0,62.4-3.394l.435-.87C60.525-4.68,58.514-6.188,58.514-8.2h3.964v-.88H58.494v-1.673H57.441v1.673H53.457v.88h3.974C57.421-6.188,55.4-4.68,53.1-4.264Zm-1.1,2.939H63.551v-.9H52.423ZM68.733-6.207a4.386,4.386,0,0,0,3.142-1.9,4.341,4.341,0,0,0,3.113,1.769l.387-.793c-1.668-.256-2.963-1.059-2.988-2.059H75.1V-10H72.388V-11.07H71.334V-10h-2.7v.812h2.7c-.024,1.049-1.31,1.919-2.978,2.195Zm8.789-4.834H76.449v6.913h1.073V-7.222H79.34v-.89H77.522Zm-1.847,5.3c-1.044.14-2.171.227-3.287.28V-6.768H71.334v1.349c-1.184.039-2.33.044-3.307.044l.126.841a46.144,46.144,0,0,0,7.6-.454ZM77.522-.986V-3.6H69.6v.812h6.855V-1.76H69.633V.977h8.354V.145H70.7V-.986Zm5.965-3.568a3.19,3.19,0,0,0,2.465-1.025h3.191v1.74h1.073v-7.2H89.144v1.76H85.953a3.19,3.19,0,0,0-2.465-1.025,2.9,2.9,0,0,0-3.152,2.881A2.9,2.9,0,0,0,83.488-4.554ZM81.36-7.425a1.959,1.959,0,0,1,2.127-1.953A1.959,1.959,0,0,1,85.6-7.425a1.97,1.97,0,0,1-2.108,1.953A1.97,1.97,0,0,1,81.36-7.425Zm7.783.957H86.47a2.923,2.923,0,0,0,.16-.957,2.915,2.915,0,0,0-.164-.977h2.678Zm-2.959,2.91c-2.523,0-4.08.851-4.07,2.32-.01,1.47,1.547,2.32,4.07,2.32s4.07-.851,4.07-2.32S88.7-3.558,86.185-3.558Zm0,3.78c-1.866,0-3.026-.551-3.017-1.46-.01-.928,1.151-1.479,3.017-1.479s3.026.551,3.026,1.479C89.211-.329,88.051.222,86.185.222ZM92.924-.928,92.17,2.794h1.015L94.239-.928Zm16.523-1.064v-9.05h-1.073v2.32h-2.088v.89h2.088v1.4h-2.088v.909h2.088v3.529ZM106.6-5.057c-.527.058-1.078.106-1.644.145V-9.175h1.238v-.88H99.74v.88h1.228v4.4c-.556.01-1.083.015-1.566.015l.135.919a50.461,50.461,0,0,0,7.106-.416Zm-2.678-4.119v4.322c-.638.029-1.281.053-1.9.063V-9.175ZM102.7-2.746h-1.083V.841h8.16v-.89H102.7Zm17.742-1.721h1.073v-6.575h-1.073Zm-5.119-2.867a4.988,4.988,0,0,0,3.118,2.683l.541-.841a4.019,4.019,0,0,1-3.123-3.548v-.309h2.794v-.88h-6.72v.88h2.843v.309a4.2,4.2,0,0,1-3.142,3.751l.551.851A5.089,5.089,0,0,0,115.321-7.334ZM114.7-2.4v-1.47h-1.054V.948h7.87V-3.867H120.45V-2.4Zm0,2.465v-1.6h5.753v1.6Zm9.562-1-.754,3.722h1.015l1.054-3.722Zm11.955-6.666a6.625,6.625,0,0,0,4.6,3.389l.483-.89c-2.127-.367-4.525-2.156-4.525-4.186v-.938h-1.122v.938c-.01,2.04-2.378,3.819-4.506,4.186l.483.89A6.631,6.631,0,0,0,136.215-7.595Zm.527,3.253h-1.054v2.968h-4.979v.89h11.128v-.89h-5.1Zm15.035-6.691V-3.78h1.073v-7.251Zm-5.187,3.626a5.184,5.184,0,0,0,3.079,2.872l.541-.86a4.3,4.3,0,0,1-3.094-3.916v-1.17h-1.093v1.17a4.629,4.629,0,0,1-3.094,4.235l.561.86A5.372,5.372,0,0,0,146.589-7.406ZM148.818-3.5c-2.552,0-4.109.841-4.109,2.291s1.557,2.282,4.109,2.282c2.523,0,4.09-.841,4.09-2.282S151.341-3.5,148.818-3.5Zm0,3.713c-1.885,0-3.046-.522-3.046-1.421s1.16-1.431,3.046-1.441c1.866.01,3.036.532,3.036,1.441S150.684.213,148.818.213Z" transform="translate(582 2109)" fill="#212121"/></g></svg>