<svg xmlns="http://www.w3.org/2000/svg" xmlns:xlink="http://www.w3.org/1999/xlink" width="80" height="80" viewBox="0 0 80 80"><defs><clipPath id="a"><rect width="80" height="80" transform="translate(433 2107)" fill="#fff" stroke="#707070" stroke-width="1"/></clipPath></defs><g transform="translate(-433 -2107)" clip-path="url(#a)"><g transform="translate(432 2107)"><path d="M0,0H80.4V80.4H0Z" fill="none"/><rect width="80.398" height="80.398" fill="none"/><g transform="translate(-549.549 -1247.095)"><g transform="translate(562.698 1271.487)"><rect width="70.099" height="46.637" transform="translate(-8)" fill="#fff"/><path d="M0-1H70.1a1,1,0,0,1,1,1V46.637a1,1,0,0,1-1,1H0a1,1,0,0,1-1-1V0A1,1,0,0,1,0-1ZM69.1,1H1V45.637H69.1Z" transform="translate(-8)"/><path d="M578.732,1275.543a1,1,0,0,1,.5.134l8.1,4.676a1,1,0,0,1,0,1.732l-8.1,4.673a1,1,0,0,1-1.5-.866v-9.348a1,1,0,0,1,1-1Zm6.1,5.675-5.1-2.943v5.884Z" transform="translate(-554.461 -1261.172)"/><path d="M59,1H0A1,1,0,0,1-1,0,1,1,0,0,1,0-1H59a1,1,0,0,1,1,1A1,1,0,0,1,59,1Z" transform="translate(-2.45 40.637)" fill="#00a2be"/><path d="M577.754,1298.7a1,1,0,0,1-1-1v-3.506a1,1,0,0,1,2,0v3.506A1,1,0,0,1,577.754,1298.7Z" transform="translate(-564.964 -1255.307)" fill="#00a2be"/><g transform="translate(13.582 10.393)"><rect width="26.936" height="19.304" rx="5" fill="#00a2be"/><path d="M5-1H21.936a6.007,6.007,0,0,1,6,6v9.3a6.007,6.007,0,0,1-6,6H5a6.007,6.007,0,0,1-6-6V5A6.007,6.007,0,0,1,5-1ZM21.936,18.3a4,4,0,0,0,4-4V5a4,4,0,0,0-4-4H5A4,4,0,0,0,1,5v9.3a4,4,0,0,0,4,4Z" fill="#212121"/><path d="M898.243,657.6l-3.651,2.211-3.651,2.211v-8.844l3.651,2.211Z" transform="translate(-880.302 -647.949)" fill="#fff"/><path d="M890.942,652.179a1,1,0,0,1,.518.145l7.3,4.422a1,1,0,0,1,0,1.711l-7.3,4.422a1,1,0,0,1-1.518-.855v-8.844a1,1,0,0,1,1-1Zm5.371,5.422-4.371-2.647v5.295Z" transform="translate(-880.302 -647.949)" fill="#212121"/></g></g><g transform="translate(579.469 1256.465)"><path d="M3.139,6.05a1,1,0,0,1-.85-.472L-.849.528A1,1,0,0,1-.528-.849,1,1,0,0,1,.849-.528l3.138,5.05A1,1,0,0,1,3.139,6.05Z" transform="translate(0 1.078)"/><path d="M0,5.711A1,1,0,0,1-.64,5.48,1,1,0,0,1-.768,4.071L3.156-.64A1,1,0,0,1,4.565-.768,1,1,0,0,1,4.693.64L.768,5.351A1,1,0,0,1,0,5.711Z" transform="translate(17.675 2.05)"/><path d="M0,5.711h-.05A1,1,0,0,1-1,4.662L-.767-.049A1,1,0,0,1,.281-1,1,1,0,0,1,1.231.049L1,4.76A1,1,0,0,1,0,5.711Z" transform="translate(10.796)"/></g></g></g></g></svg>