<svg xmlns="http://www.w3.org/2000/svg" xmlns:xlink="http://www.w3.org/1999/xlink" width="80" height="80" viewBox="0 0 80 80"><defs><clipPath id="a"><rect width="80" height="80" transform="translate(1087 1746)" fill="#fff" stroke="#707070" stroke-width="1"/></clipPath></defs><g transform="translate(-1087 -1746)" clip-path="url(#a)"><g transform="translate(137.576 1203.521)"><g transform="translate(957.424 561.309)"><path d="M1017.764,604.834c0,2.156-1.746,3.122-3.9,3.122H967.541c-2.155,0-3.9-.966-3.9-3.122v-37.9a3.9,3.9,0,0,1,3.9-3.9h46.321a3.9,3.9,0,0,1,3.9,3.9Z" transform="translate(-958.775 -563.03)" fill="#fff"/><path d="M1013.863,608.956H967.541c-2.978,0-4.9-1.618-4.9-4.122v-37.9a4.908,4.908,0,0,1,4.9-4.9h46.321a4.908,4.908,0,0,1,4.9,4.9v37.9C1018.764,607.338,1016.84,608.956,1013.863,608.956ZM967.541,564.03a2.906,2.906,0,0,0-2.9,2.9v37.9c0,1.846,1.818,2.122,2.9,2.122h46.321c1.083,0,2.9-.276,2.9-2.122v-37.9a2.905,2.905,0,0,0-2.9-2.9Z" transform="translate(-958.775 -563.03)"/><g transform="translate(0 39.993)"><path d="M995.171,614.132h26.108v4.639a3.9,3.9,0,0,1-.306,1.518,3.9,3.9,0,0,1-2.078,2.078,3.892,3.892,0,0,1-1.519.306h-56.05a3.9,3.9,0,0,1-3.9-3.9v-4.639h37.747Z" transform="translate(-957.424 -614.132)" fill="#9be0e8"/><path d="M957.424,613.132h63.855a1,1,0,0,1,1,1v4.639a4.881,4.881,0,0,1-.385,1.907,4.9,4.9,0,0,1-2.609,2.61,4.87,4.87,0,0,1-1.909.385h-56.05a4.9,4.9,0,0,1-4.9-4.9v-4.639A1,1,0,0,1,957.424,613.132Zm62.855,2H958.424v3.639a2.862,2.862,0,0,0,.226,1.127,2.894,2.894,0,0,0,2.676,1.775h56.05a2.88,2.88,0,0,0,1.129-.227,2.9,2.9,0,0,0,1.548-1.549,2.888,2.888,0,0,0,.226-1.127Z" transform="translate(-957.424 -614.132)"/></g><g transform="translate(11.209 20.852)"><path d="M3.346,1H0V-1H3.346Z"/><path d="M16.313,1H0V-1H16.313Z" transform="translate(7.111)"/></g><g transform="translate(11.209 28.799)"><path d="M3.346,1H0V-1H3.346Z"/><path d="M16.313,1H0V-1H16.313Z" transform="translate(7.111)"/></g><path d="M1024.246,583.056l-15.816-2.6,6.6,14.6,2.365-3.083,10.634,8.158,4.482-5.844-10.632-8.158Z" transform="translate(-968.513 -566.819)" fill="#00a2be"/><path d="M1008.43,579.46a1,1,0,0,1,.162.013l15.816,2.6a1,1,0,0,1,.631,1.6l-1.756,2.289,9.838,7.549a1,1,0,0,1,.185,1.4l-4.481,5.844a1,1,0,0,1-1.4.185l-9.841-7.549-1.757,2.29a1,1,0,0,1-1.7-.2l-6.6-14.6a1,1,0,0,1,.911-1.412Zm14.006,4.312-12.325-2.023,5.144,11.382,1.349-1.758a1,1,0,0,1,1.4-.185l9.84,7.549,3.265-4.257-9.839-7.549a1,1,0,0,1-.185-1.4Z" transform="translate(-968.513 -566.819)"/></g><path d="M991.954,555.114H977.528a3.112,3.112,0,0,0-3.111,3.112v9.059a3.112,3.112,0,0,0,3.111,3.112h4.757l2.457,3.3,2.454-3.3h4.758a3.111,3.111,0,0,0,3.111-3.112v-9.059A3.111,3.111,0,0,0,991.954,555.114Z" transform="translate(-3.694 0)" fill="#9be0e8"/><path d="M977.528,554.114h14.427a4.116,4.116,0,0,1,4.111,4.112v9.059a4.116,4.116,0,0,1-4.111,4.112H987.7l-2.957,3.98-2.96-3.98h-4.255a4.116,4.116,0,0,1-4.111-4.112v-9.059A4.116,4.116,0,0,1,977.528,554.114ZM991.954,569.4a2.114,2.114,0,0,0,2.111-2.112v-9.059a2.114,2.114,0,0,0-2.111-2.112H977.528a2.114,2.114,0,0,0-2.111,2.112v9.059a2.114,2.114,0,0,0,2.111,2.112h5.26l1.954,2.627,1.952-2.627Z" transform="translate(-3.694 0)"/><path d="M4.628,1H0V-1H4.628Z" transform="translate(986.965 605.935)"/></g></g></svg>