<svg xmlns="http://www.w3.org/2000/svg" xmlns:xlink="http://www.w3.org/1999/xlink" width="80" height="80" viewBox="0 0 80 80"><defs><clipPath id="a"><rect width="80" height="80" transform="translate(549 1878)" fill="#fff" stroke="#707070" stroke-width="1"/></clipPath></defs><g transform="translate(-549 -1878)" clip-path="url(#a)"><g transform="translate(754.767 1274.079)"><g transform="translate(-202 617.748)"><path d="M-178.16,688.242h20.823l-2.51-9.112h-15.8Z" transform="translate(196.924 -632.762)" fill="#fff"/><path d="M-156.024,689.242h-23.448l3.061-11.112h17.325Zm-20.823-2h18.2l-1.959-7.112h-14.278Z" transform="translate(196.924 -632.762)"/><path d="M-150.23,620.219h-45.192A6.581,6.581,0,0,0-202,626.8v29.724h58.351V626.8A6.58,6.58,0,0,0-150.23,620.219Z" transform="translate(202 -620.219)" fill="#9be0e8"/><path d="M-195.421,619.219h45.192a7.589,7.589,0,0,1,7.581,7.58v29.724a1,1,0,0,1-1,1H-202a1,1,0,0,1-1-1V626.8A7.588,7.588,0,0,1-195.421,619.219Zm50.772,36.3V626.8a5.587,5.587,0,0,0-5.581-5.58h-45.192A5.586,5.586,0,0,0-201,626.8v28.724Z" transform="translate(202 -620.219)"/><path d="M-202,666.343v3.487a6.579,6.579,0,0,0,6.579,6.578h45.192a6.578,6.578,0,0,0,6.581-6.578v-3.487Z" transform="translate(202 -630.039)" fill="#fff"/><path d="M-202,665.343h58.351a1,1,0,0,1,1,1v3.487a7.588,7.588,0,0,1-7.581,7.578h-45.192A7.587,7.587,0,0,1-203,669.83v-3.487A1,1,0,0,1-202,665.343Zm57.351,2H-201v2.487a5.584,5.584,0,0,0,5.579,5.578h45.192a5.586,5.586,0,0,0,5.581-5.578Z" transform="translate(202 -630.039)"/></g><g transform="translate(-159.787 621.937)"><g transform="translate(1.065 15.834)"><path d="M-147.014,645.658v15.9a3.845,3.845,0,0,0,3.847,3.846h21.495a3.845,3.845,0,0,0,3.846-3.846v-15.9Z" transform="translate(147.014 -645.658)" fill="#00a2be"/><path d="M-147.014,644.658h29.187a1,1,0,0,1,1,1v15.9a4.851,4.851,0,0,1-4.846,4.846h-21.495a4.852,4.852,0,0,1-4.847-4.846v-15.9A1,1,0,0,1-147.014,644.658Zm28.187,2h-27.187v14.9a2.849,2.849,0,0,0,2.847,2.846h21.495a2.849,2.849,0,0,0,2.846-2.846Z" transform="translate(147.014 -645.658)"/><g transform="translate(7.702 6.928)"><path d="M14.524,1H0V-1H14.524Z"/><path d="M14.524,1H0V-1H14.524Z" transform="translate(0 5.487)"/></g></g><g transform="translate(0 0)"><path d="M-143.106,632.961l-2.579.819a3.844,3.844,0,0,0-2.5,4.83l.819,2.579.342,1.077,6.872-2.184,3.61-1.147-6.116-6.116Z" transform="translate(148.368 -627.091)" fill="#fff"/><path d="M-142.659,631.819a1,1,0,0,1,.707.293l6.116,6.116a1,1,0,0,1,.264.944,1,1,0,0,1-.669.716l-10.482,3.331a1,1,0,0,1-.763-.065,1,1,0,0,1-.493-.586l-1.161-3.655a4.815,4.815,0,0,1,.315-3.7,4.811,4.811,0,0,1,2.837-2.39l3.024-.961A1,1,0,0,1-142.659,631.819Zm4.246,6.66-4.523-4.523-2.446.777a2.825,2.825,0,0,0-1.666,1.4,2.829,2.829,0,0,0-.185,2.171l.858,2.7Z" transform="translate(148.368 -627.091)"/><path d="M-124.3,634.619l-6.116-6.115-3.194,1.014-7.5,2.383,6.116,6.116,4.337-1.378Z" transform="translate(146.824 -626.172)" fill="#00a2be"/><path d="M-135,639.016a1,1,0,0,1-.707-.293l-6.116-6.116a1,1,0,0,1-.264-.944,1,1,0,0,1,.669-.716l10.7-3.4a1,1,0,0,1,1.01.246l6.116,6.115a1,1,0,0,1,.265.944,1,1,0,0,1-.669.716l-10.7,3.4A1,1,0,0,1-135,639.016Zm-4.247-6.661,4.523,4.523,8.549-2.716-4.524-4.523Z" transform="translate(146.824 -626.172)"/><path d="M-119.82,633.482l5.049-1.6-1.161-3.654a3.84,3.84,0,0,0-.582-1.129,3.845,3.845,0,0,0-4.249-1.373l-2.011.64-4.754,1.51,6.116,6.116Z" transform="translate(143.93 -625.541)" fill="#fff"/><path d="M-121.41,634.988a1,1,0,0,1-.707-.293l-6.116-6.116a1,1,0,0,1-.265-.944,1,1,0,0,1,.669-.716l6.765-2.15a4.837,4.837,0,0,1,1.466-.228,4.868,4.868,0,0,1,3.889,1.957,4.843,4.843,0,0,1,.732,1.423l1.161,3.654a1,1,0,0,1-.065.763,1,1,0,0,1-.585.493l-6.639,2.109A1,1,0,0,1-121.41,634.988Zm-4.247-6.66,4.524,4.523,5.107-1.622-.858-2.7a2.847,2.847,0,0,0-.431-.836,2.86,2.86,0,0,0-2.283-1.15,2.838,2.838,0,0,0-.86.134Z" transform="translate(143.93 -625.541)"/></g></g><g transform="translate(-755.493 388.868)"><g transform="translate(561.727 237.832)"><rect width="9.077" height="7.835" fill="#00a2be"/><path d="M0-1H9.077a1,1,0,0,1,1,1V7.835a1,1,0,0,1-1,1H0a1,1,0,0,1-1-1V0A1,1,0,0,1,0-1ZM8.077,1H1V6.835H8.077Z"/><g transform="translate(14.081 1.61)"><path d="M15.506,1H0V-1H15.506Z"/><path d="M15.506,1H0V-1H15.506Z" transform="translate(0 4.615)"/></g></g><g transform="translate(561.727 250.373)"><rect width="9.077" height="7.835" fill="#00a2be"/><path d="M0-1H9.077a1,1,0,0,1,1,1V7.835a1,1,0,0,1-1,1H0a1,1,0,0,1-1-1V0A1,1,0,0,1,0-1ZM8.077,1H1V6.835H8.077Z"/><g transform="translate(14.081 1.61)"><path d="M15.506,1H0V-1H15.506Z"/><path d="M15.506,1H0V-1H15.506Z" transform="translate(0 4.615)"/></g></g></g></g></g></svg>