<svg xmlns="http://www.w3.org/2000/svg" width="101" height="101" viewBox="0 0 101 101"><g transform="translate(-377 -1637)"><path d="M50.5,0A50.5,50.5,0,1,1,0,50.5,50.5,50.5,0,0,1,50.5,0Z" transform="translate(377 1637)" fill="none"/><g transform="translate(398.455 1646.247)"><ellipse cx="26.513" cy="28.196" rx="26.513" ry="28.196" transform="translate(5.066 12.917)" fill="#fff"/><path d="M480.185,460.054c-11.728,2.034-20.6,11.657-20.6,24.017,0,2.382.541,4.471-.294,6.78-.4,1.108-3.623,7.669-5.115,10.7-.427.878-.326,1.542.314,1.573,1.987.093,6.079.291,6.331.358s.027,5.924.013,6.382c-.231,10.525,5.2,7.411,11.191,7.411V528.22h26.139V511.747a19.878,19.878,0,0,1,2.323-1.9,35.139,35.139,0,0,0,5.13-5.89c2.711-3.951,4.331-7.449,4.857-11.883" transform="translate(-453.915 -445.714)" fill="#fff" stroke="#000" stroke-linecap="round" stroke-linejoin="round" stroke-width="2"/><path d="M487.108,487.753c.534-.034,1.948-.066,2.622-.066.5-2.326-.073-4.743,1.424-6.689,1.372-1.792,3.186-3.216,4.341-5.179A11.412,11.412,0,0,0,491.04,459.9a12.061,12.061,0,0,0-11.453,0,11.418,11.418,0,0,0-4.451,15.917c1.159,1.963,2.975,3.387,4.351,5.179,1.487,1.946.916,4.363,1.411,6.689.681,0,2.093.032,2.622.066Z" transform="translate(-440.389 -446.816)" fill="#9be0e8" stroke="#000" stroke-linecap="round" stroke-linejoin="round" stroke-width="2"/><line x1="3.746" y1="3.75" transform="translate(33.629 3.471)" fill="none" stroke="#000" stroke-linecap="round" stroke-linejoin="round" stroke-width="2"/><line y1="3.748" x2="3.753" transform="translate(53.447 3.335)" fill="none" stroke="#000" stroke-linecap="round" stroke-linejoin="round" stroke-width="2"/><line y1="5.304" transform="translate(45.844 0)" fill="none" stroke="#000" stroke-linecap="round" stroke-linejoin="round" stroke-width="2"/><path d="M.628,0H8.412a.631.631,0,0,1,.631.631V6.257a.629.629,0,0,1-.629.629H.631A.631.631,0,0,1,0,6.256V.628A.628.628,0,0,1,.628,0Z" transform="translate(40.417 40.936)" fill="none" stroke="#000" stroke-linecap="round" stroke-linejoin="round" stroke-width="2"/></g></g></svg>