<svg xmlns="http://www.w3.org/2000/svg" width="101" height="101" viewBox="0 0 101 101"><g transform="translate(-377 -1637)"><path d="M50.5,0A50.5,50.5,0,1,1,0,50.5,50.5,50.5,0,0,1,50.5,0Z" transform="translate(377 1637)" fill="none"/><g transform="translate(384.166 1652.996)"><rect width="42.397" height="69.008" transform="translate(7.478 0)" fill="#fff" stroke="#000" stroke-linecap="round" stroke-linejoin="round" stroke-width="2"/><rect width="29.313" height="50.123" transform="translate(49.876 18.885)" fill="#fff" stroke="#000" stroke-linecap="round" stroke-linejoin="round" stroke-width="2"/><line x2="86.667" transform="translate(0 69.008)" fill="none" stroke="#000" stroke-linecap="round" stroke-linejoin="round" stroke-width="2"/><rect width="4.258" height="5.583" transform="translate(13.846 7.32)" fill="#9be0e8" stroke="#000" stroke-linecap="round" stroke-linejoin="round" stroke-width="2"/><rect width="4.258" height="5.583" transform="translate(22.313 7.32)" fill="#9be0e8" stroke="#000" stroke-linecap="round" stroke-linejoin="round" stroke-width="2"/><rect width="4.258" height="5.583" transform="translate(30.782 7.32)" fill="#9be0e8" stroke="#000" stroke-linecap="round" stroke-linejoin="round" stroke-width="2"/><rect width="4.258" height="5.583" transform="translate(39.25 7.32)" fill="#9be0e8" stroke="#000" stroke-linecap="round" stroke-linejoin="round" stroke-width="2"/><rect width="4.258" height="5.583" transform="translate(13.846 17.982)" fill="#9be0e8" stroke="#000" stroke-linecap="round" stroke-linejoin="round" stroke-width="2"/><rect width="4.258" height="5.583" transform="translate(22.313 17.982)" fill="#9be0e8" stroke="#000" stroke-linecap="round" stroke-linejoin="round" stroke-width="2"/><rect width="4.258" height="5.583" transform="translate(30.782 17.982)" fill="#9be0e8" stroke="#000" stroke-linecap="round" stroke-linejoin="round" stroke-width="2"/><rect width="4.258" height="5.583" transform="translate(39.25 17.982)" fill="#9be0e8" stroke="#000" stroke-linecap="round" stroke-linejoin="round" stroke-width="2"/><rect width="4.258" height="5.583" transform="translate(13.846 28.645)" fill="#9be0e8" stroke="#000" stroke-linecap="round" stroke-linejoin="round" stroke-width="2"/><rect width="4.258" height="5.583" transform="translate(22.313 28.645)" fill="#9be0e8" stroke="#000" stroke-linecap="round" stroke-linejoin="round" stroke-width="2"/><rect width="4.258" height="5.583" transform="translate(30.782 28.645)" fill="#9be0e8" stroke="#000" stroke-linecap="round" stroke-linejoin="round" stroke-width="2"/><rect width="4.258" height="5.583" transform="translate(39.25 28.645)" fill="#9be0e8" stroke="#000" stroke-linecap="round" stroke-linejoin="round" stroke-width="2"/><rect width="4.258" height="5.583" transform="translate(13.846 39.307)" fill="#9be0e8" stroke="#000" stroke-linecap="round" stroke-linejoin="round" stroke-width="2"/><rect width="4.258" height="5.583" transform="translate(22.313 39.307)" fill="#9be0e8" stroke="#000" stroke-linecap="round" stroke-linejoin="round" stroke-width="2"/><rect width="4.258" height="5.583" transform="translate(30.782 39.307)" fill="#9be0e8" stroke="#000" stroke-linecap="round" stroke-linejoin="round" stroke-width="2"/><rect width="4.258" height="5.583" transform="translate(39.25 39.307)" fill="#9be0e8" stroke="#000" stroke-linecap="round" stroke-linejoin="round" stroke-width="2"/><rect width="17.134" height="3.625" transform="translate(55.965 25.019)" fill="#00a2be" stroke="#000" stroke-linecap="round" stroke-linejoin="round" stroke-width="2"/><rect width="17.134" height="3.625" transform="translate(55.965 34.504)" fill="#00a2be" stroke="#000" stroke-linecap="round" stroke-linejoin="round" stroke-width="2"/><rect width="17.134" height="3.625" transform="translate(55.965 43.989)" fill="#00a2be" stroke="#000" stroke-linecap="round" stroke-linejoin="round" stroke-width="2"/><rect width="17.134" height="3.625" transform="translate(55.965 53.473)" fill="#00a2be" stroke="#000" stroke-linecap="round" stroke-linejoin="round" stroke-width="2"/></g></g></svg>