<svg xmlns="http://www.w3.org/2000/svg" width="101" height="101" viewBox="0 0 101 101"><g transform="translate(-377 -1637)"><path d="M50.5,0A50.5,50.5,0,1,1,0,50.5,50.5,50.5,0,0,1,50.5,0Z" transform="translate(377 1637)" fill="none"/><g transform="translate(395.298 1651.617)"><g transform="translate(0 46.103)"><path d="M293.228,1090.142a4.352,4.352,0,0,0-6.091-.871l-13.522,10.187h-9.5a4.094,4.094,0,0,0,4.071-4.515,4.254,4.254,0,0,0-4.3-3.671H239.749v19.063h27.889a17.884,17.884,0,0,0,10.754-3.593l13.966-10.51A4.35,4.35,0,0,0,293.228,1090.142Z" transform="translate(-229.694 -1087.973)" fill="#fff" stroke="#000" stroke-linejoin="bevel" stroke-width="2"/><line x1="16.296" transform="translate(18.12 11.485)" fill="#fff" stroke="#000" stroke-linejoin="bevel" stroke-width="2"/><rect width="10.054" height="25.663" fill="#00a2be" stroke="#000" stroke-linejoin="bevel" stroke-width="2"/></g><g transform="translate(15.818 0)"><g transform="translate(15.566 15.563)"><circle cx="5.787" cy="5.787" r="5.787" transform="translate(0 11.574) rotate(-89.859)" fill="#00a2be" stroke="#000" stroke-miterlimit="10" stroke-width="2"/><path d="M276.29,1066.58l-1.15-.136q.586.4,1.15.824Z" transform="translate(-249.123 -1064.85)" fill="#00a2be" stroke="#000" stroke-miterlimit="10" stroke-width="2"/></g><path d="M261.352,1096.35H269.5l.606-5.124a16.95,16.95,0,0,0,3.505-1.441l4.044,3.184,5.759-5.762-3.187-4.04a16.755,16.755,0,0,0,1.442-3.5l5.124-.613v-8.14l-5.124-.61a17.056,17.056,0,0,0-.775-2.139h0l0-.006c-.1-.222-.2-.444-.3-.662-.115-.234-.233-.467-.36-.694l3.187-4.047L277.654,1057l-4.047,3.187a16.76,16.76,0,0,0-3.505-1.443l-.606-5.121h-8.144l-.607,5.121a16.691,16.691,0,0,0-3.5,1.443L253.2,1057l-5.759,5.758,3.185,4.046a16.944,16.944,0,0,0-1.442,3.5l-5.122.61v8.14l.879.106h0l4.243.507a16.913,16.913,0,0,0,1.442,3.5l-3.185,4.044,5.759,5.762,4.048-3.184a16.8,16.8,0,0,0,3.5,1.441Zm-1.715-21.367a5.787,5.787,0,1,1,5.787,5.787A5.787,5.787,0,0,1,259.637,1074.983Z" transform="translate(-244.057 -1053.619)" fill="#9be0e8" stroke="#000" stroke-width="2"/></g></g></g></svg>