<svg xmlns="http://www.w3.org/2000/svg" width="18.823" height="18.824" viewBox="0 0 18.823 18.824">
    <path fill="#6b6b6b" d="M9.412 0c-2.557 0-2.876.012-3.88.056a6.94 6.94 0 0 0-2.285.438A4.609 4.609 0 0 0 1.58 1.58 4.592 4.592 0 0 0 .494 3.247a6.92 6.92 0 0 0-.438 2.285C.009 6.536 0 6.855 0 9.412s.012 2.876.056 3.88a6.944 6.944 0 0 0 .438 2.285 4.616 4.616 0 0 0 1.086 1.667 4.6 4.6 0 0 0 1.667 1.085 6.949 6.949 0 0 0 2.285.438c1 .047 1.323.056 3.88.056s2.876-.012 3.88-.056a6.965 6.965 0 0 0 2.285-.438 4.81 4.81 0 0 0 2.753-2.753 6.944 6.944 0 0 0 .438-2.285c.047-1 .056-1.323.056-3.88s-.012-2.876-.056-3.88a6.96 6.96 0 0 0-.438-2.285 4.619 4.619 0 0 0-1.086-1.666A4.586 4.586 0 0 0 15.576.494a6.924 6.924 0 0 0-2.284-.438C12.288.009 11.969 0 9.412 0zm0 1.694c2.512 0 2.812.013 3.8.056a5.185 5.185 0 0 1 1.747.325 3.1 3.1 0 0 1 1.787 1.786 5.2 5.2 0 0 1 .324 1.747c.045.993.055 1.291.055 3.8s-.012 2.812-.058 3.8a5.3 5.3 0 0 1-.33 1.747 2.988 2.988 0 0 1-.705 1.084 2.936 2.936 0 0 1-1.082.7 5.235 5.235 0 0 1-1.753.324c-1 .045-1.293.055-3.811.055s-2.813-.012-3.811-.058a5.337 5.337 0 0 1-1.754-.33 2.915 2.915 0 0 1-1.082-.705 2.858 2.858 0 0 1-.706-1.082 5.341 5.341 0 0 1-.326-1.743c-.035-.988-.048-1.293-.048-3.8s.013-2.813.048-3.813a5.335 5.335 0 0 1 .329-1.752 2.79 2.79 0 0 1 .706-1.083 2.784 2.784 0 0 1 1.082-.7 5.209 5.209 0 0 1 1.742-.33c1-.035 1.294-.047 3.811-.047l.035.024zm0 2.885a4.833 4.833 0 1 0 4.833 4.833 4.833 4.833 0 0 0-4.833-4.833zm0 7.97a3.137 3.137 0 1 1 3.137-3.137 3.136 3.136 0 0 1-3.137 3.137zm6.154-8.161a1.129 1.129 0 1 1-1.13-1.128 1.13 1.13 0 0 1 1.129 1.128z"/>
</svg>
