<svg xmlns="http://www.w3.org/2000/svg" width="19.782" height="18.255" viewBox="0 0 19.782 18.255">
    <path fill="#6b6b6b" stroke="rgba(0,0,0,0)" stroke-miterlimit="10" d="M3.8 17.255a.175.175 0 0 1-.144-.064.456.456 0 0 1-.018-.383c.084-.336.444-1.687.708-2.673l.032-.12.073-.274a8.637 8.637 0 0 1-3.23-2.649 6.607 6.607 0 0 1-.9-1.74A5.979 5.979 0 0 1 0 7.424a6.065 6.065 0 0 1 .738-2.89 7.575 7.575 0 0 1 2.012-2.36A9.793 9.793 0 0 1 5.736.584a11.74 11.74 0 0 1 7.311 0 9.794 9.794 0 0 1 2.985 1.591 7.57 7.57 0 0 1 2.012 2.36 6.025 6.025 0 0 1 0 5.78 7.563 7.563 0 0 1-2.012 2.36 9.783 9.783 0 0 1-2.985 1.591 11.483 11.483 0 0 1-3.655.584 11.945 11.945 0 0 1-1.743-.128l-.252.171-.675.459-.291.2c-1.07.728-2.283 1.553-2.4 1.628a.437.437 0 0 1-.231.075zm10.14-9.39L15.214 9.6a.255.255 0 0 0 .215.1.5.5 0 0 0 .15-.026.839.839 0 0 0 .281-.163c.156-.136.292-.355.163-.523l-1.351-1.781.027-.029c.6-.647 1.046-1.117 1.254-1.324l.009-.01.016-.025c.069-.137-.1-.392-.3-.543l-.033-.024-.008-.005a.436.436 0 0 0-.226-.086.143.143 0 0 0-.111.039c-.224.222-1.638 1.639-1.643 1.642s.005-.394.005-.8c0-.225 0-.44-.006-.606-.006-.193-.251-.281-.476-.281a.649.649 0 0 0-.442.142.223.223 0 0 0-.069.161V5.943c0 .527 0 1.489-.011 2.78v.687c0 .2.254.291.49.292h.009c.238 0 .494-.092.494-.292V8.1l.292-.233zM6.564 8.8h1.768s-.007 0-.007.032a2.254 2.254 0 0 0 .181.615.379.379 0 0 0 .375.245H8.9a.637.637 0 0 0 .471-.229.364.364 0 0 0 .069-.319v-.019a.064.064 0 0 1 0-.011c-.076-.2-.206-.553-.356-.96l-.01-.027C8.681 7.1 8.164 5.7 8.042 5.44v-.015a.5.5 0 0 0-.24-.191h-.085a1 1 0 0 0-.28-.05h-.031a.762.762 0 0 0-.28.049h-.014a.492.492 0 0 0-.175.126h-.046c-.12.263-.39 1.005-.678 1.79v.016C5.9 8 5.622 8.77 5.481 9.094a.35.35 0 0 0 .043.359.641.641 0 0 0 .493.243.358.358 0 0 0 .352-.215l.195-.681zm3.723-3.65a.471.471 0 0 0-.524.445c0 .783.005 3.288.005 3.533v.009a.773.773 0 0 0 0 .085c0 .169.053.452.389.452H12.098a.279.279 0 0 0 .2-.085.57.57 0 0 0 .136-.4c0-.233-.108-.484-.342-.484h-1.283V5.592a.471.471 0 0 0-.522-.442zm-7.45-.019a.4.4 0 0 0-.291.114.5.5 0 0 0-.133.35.428.428 0 0 0 .426.463h.966V9.33a.273.273 0 0 0 .068.18.594.594 0 0 0 .441.162.6.6 0 0 0 .415-.139.269.269 0 0 0 .081-.2V6.088h.961a.444.444 0 0 0 .451-.473.443.443 0 0 0-.45-.473c-.665 0-2.929-.019-2.94-.019zM8 7.914H6.883l.582-1.684L8 7.914z" transform="translate(0.5 0.5)"/>
</svg>
