<svg xmlns="http://www.w3.org/2000/svg" width="19" height="19" viewBox="0 0 19 19"><g transform="translate(0.118)"><rect width="19" height="19" transform="translate(-0.118)" fill="none"/><g transform="translate(0 0.784)"><g transform="translate(0 0)"><path d="M529.561,223.2a.648.648,0,1,0,.648.648A.648.648,0,0,0,529.561,223.2Z" transform="translate(-525.453 -216.76)" fill="#6b6b6b"/><path d="M577.384,222.694a.7.7,0,1,0,.7.7A.7.7,0,0,0,577.384,222.694Z" transform="translate(-566.874 -216.319)" fill="#6b6b6b"/><path d="M519.2,174.752H505.412a2.518,2.518,0,0,0-2.518,2.518v8.183a2.518,2.518,0,0,0,2.518,2.518h4.87l1.656,3.9s.114.338.39.338h0c.276,0,.39-.338.39-.338l1.656-3.9H519.2a2.518,2.518,0,0,0,2.518-2.518V177.27A2.518,2.518,0,0,0,519.2,174.752Zm-10.392,7.233a1.559,1.559,0,0,1-1.554,1.539,1.292,1.292,0,0,1-.936-.4v.27h-1.126v-4.645s-.005,0,0,0v0c.07.011,1.126,0,1.126,0v1.777c.265-.452,1.031-.444,1.031-.444A1.65,1.65,0,0,1,508.808,181.985Zm1.983-1.761v3.181h-1.1v-3.149c0-.428-.531-.547-.531-.547V178.6A1.524,1.524,0,0,1,510.791,180.225Zm2.613,3.3a1.707,1.707,0,1,1,1.848-1.7A1.779,1.779,0,0,1,513.4,183.526Zm6.04,0a1.573,1.573,0,0,1-1.626,1.616h-.5V184.1h.3s.69.063.682-1c0,0-.135.43-1.1.43a1.454,1.454,0,0,1-1.372-1.438v-.508a1.568,1.568,0,0,1,1.539-1.5,1.122,1.122,0,0,1,.96.428v-.341h1.118Z" transform="translate(-502.894 -174.752)" fill="#6b6b6b"/><path d="M609.728,222.814a.682.682,0,1,0,.682.682A.682.682,0,0,0,609.728,222.814Z" transform="translate(-594.931 -216.423)" fill="#6b6b6b"/></g></g></g></svg>