<svg xmlns="http://www.w3.org/2000/svg" xmlns:xlink="http://www.w3.org/1999/xlink" width="335" height="160" viewBox="0 0 335 160"><defs><linearGradient id="a" x1="0.99" y1="0.021" x2="0.012" y2="0.977" gradientUnits="objectBoundingBox"><stop offset="0" stop-color="#00a2be"/><stop offset="1" stop-color="#003daa"/></linearGradient><clipPath id="b"><rect width="335" height="160" rx="5" transform="translate(227)" fill="url(#a)"/></clipPath><linearGradient id="d" x1="0" y1="0.5" x2="1" y2="0.5" xlink:href="#a"/><linearGradient id="e" x1="0.795" y1="0.11" x2="0.255" y2="1.2" gradientUnits="objectBoundingBox"><stop offset="0" stop-color="#009ead"/><stop offset="0.532" stop-color="#0090a9"/><stop offset="1" stop-color="#1b4692"/></linearGradient><linearGradient id="f" x1="0.766" y1="-0.016" x2="0.322" y2="0.845" gradientUnits="objectBoundingBox"><stop offset="0" stop-color="#009ead"/><stop offset="0.483" stop-color="#0090a9"/><stop offset="1" stop-color="#1b4692"/></linearGradient><linearGradient id="h" x1="-0.155" y1="0.885" x2="0.565" y2="0.239" xlink:href="#e"/></defs><g transform="translate(-227)" clip-path="url(#b)"><rect width="335" height="160" transform="translate(227)" fill="url(#a)"/><path d="M3124.236,781.057a.117.117,0,0,1-.023.094" transform="translate(-2653.509 -756.324)" fill="none"/><ellipse cx="11.388" cy="11.388" rx="11.388" ry="11.388" transform="translate(199.204 26.636)" fill="#0090a9" opacity="0.2"/><g transform="translate(502.152 -18.293)" opacity="0.1"><path d="M3269.465-42.247a37.439,37.439,0,0,1-14.665-2.961,37.548,37.548,0,0,1-11.975-8.074,37.547,37.547,0,0,1-8.074-11.975,37.436,37.436,0,0,1-2.961-14.665,37.435,37.435,0,0,1,2.961-14.665,37.546,37.546,0,0,1,8.074-11.975,37.548,37.548,0,0,1,11.975-8.074,37.439,37.439,0,0,1,14.665-2.961,37.438,37.438,0,0,1,14.665,2.961,37.552,37.552,0,0,1,11.976,8.074,37.554,37.554,0,0,1,8.074,11.975,37.439,37.439,0,0,1,2.961,14.665,37.44,37.44,0,0,1-2.961,14.665,37.555,37.555,0,0,1-8.074,11.975,37.552,37.552,0,0,1-11.976,8.074A37.437,37.437,0,0,1,3269.465-42.247Zm0-74.954a37.322,37.322,0,0,0-37.279,37.279,37.322,37.322,0,0,0,37.279,37.279,37.321,37.321,0,0,0,37.279-37.279A37.321,37.321,0,0,0,3269.465-117.2Z" transform="translate(-3231.79 117.597)" fill="#1b4692"/></g><g transform="translate(353.348 127.743)" opacity="0.3"><path d="M411.208,2035.725a23.14,23.14,0,1,1,16.362-6.778A22.988,22.988,0,0,1,411.208,2035.725Zm0-45.83a22.69,22.69,0,1,0,22.69,22.69A22.716,22.716,0,0,0,411.208,1989.894Z" transform="translate(-388.069 -1989.445)" fill="#009ead"/></g><ellipse cx="42.604" cy="42.604" rx="42.604" ry="42.604" transform="translate(515.126 95.311) rotate(-79)" opacity="0.3" fill="url(#d)"/><path d="M1058.685,2201.98a45.41,45.41,0,0,1-64.127,3.461l60.666-67.588A45.41,45.41,0,0,1,1058.685,2201.98Z" transform="translate(-705.867 -2033.464)" opacity="0.2" fill="url(#e)"/><path d="M-149.744,1242.446a43.041,43.041,0,0,0-43.041,43.041,43.041,43.041,0,0,0,43.041,43.041,43.041,43.041,0,0,0,43.041-43.041A43.041,43.041,0,0,0-149.744,1242.446Zm0,62.5a19.457,19.457,0,0,1-19.457-19.458,19.457,19.457,0,0,1,19.457-19.457,19.457,19.457,0,0,1,19.457,19.457A19.457,19.457,0,0,1-149.744,1304.945Z" transform="translate(360.436 -1169.21)" opacity="0.2" fill="url(#f)"/><path d="M34.435,0A34.435,34.435,0,1,0,68.87,34.435,34.435,34.435,0,0,0,34.435,0Zm0,50A15.567,15.567,0,1,1,50,34.435,15.567,15.567,0,0,1,34.435,50Z" transform="matrix(0.391, -0.921, 0.921, 0.391, 505.274, 169.126)" opacity="0.2" fill="url(#f)"/><g transform="translate(265.906 149.326)" opacity="0.5"><g transform="translate(-0.001 0)"><path d="M1255.019,2679.759a.484.484,0,1,1-.685,0A.484.484,0,0,1,1255.019,2679.759Z" transform="translate(-1252.115 -2671.121)" fill="#fcfdfc"/><path d="M1227.306,2651.844a.484.484,0,1,1-.684,0A.484.484,0,0,1,1227.306,2651.844Z" transform="translate(-1226.479 -2645.297)" fill="#fcfdfc"/><path d="M1282.732,2707.678a.484.484,0,1,1-.684,0A.483.483,0,0,1,1282.732,2707.678Z" transform="translate(-1277.752 -2696.948)" fill="#fcfdfc"/><path d="M1283.72,2651.271a.484.484,0,1,1-.684,0A.484.484,0,0,1,1283.72,2651.271Z" transform="translate(-1278.666 -2644.766)" fill="#fcfdfc"/><path d="M1311.432,2679.188a.484.484,0,1,1-.684,0A.483.483,0,0,1,1311.432,2679.188Z" transform="translate(-1304.302 -2670.592)" fill="#fcfdfc"/><path d="M1312.424,2622.777a.484.484,0,1,1-.685,0A.484.484,0,0,1,1312.424,2622.777Z" transform="translate(-1305.219 -2618.408)" fill="#fcfdfc"/><path d="M1340.135,2650.7a.484.484,0,1,1-.685,0A.484.484,0,0,1,1340.135,2650.7Z" transform="translate(-1330.855 -2644.234)" fill="#fcfdfc"/><path d="M1256.007,2623.353a.484.484,0,1,1-.684,0A.484.484,0,0,1,1256.007,2623.353Z" transform="translate(-1253.029 -2618.941)" fill="#fcfdfc"/><path d="M1284.708,2594.861a.484.484,0,1,1-.684,0A.484.484,0,0,1,1284.708,2594.861Z" transform="translate(-1279.58 -2592.583)" fill="#fcfdfc"/><path d="M1341.123,2594.288a.484.484,0,1,1-.685,0A.485.485,0,0,1,1341.123,2594.288Z" transform="translate(-1331.768 -2592.053)" fill="#fcfdfc"/><path d="M1368.837,2622.206a.484.484,0,1,1-.684,0A.484.484,0,0,1,1368.837,2622.206Z" transform="translate(-1357.406 -2617.879)" fill="#fcfdfc"/><path d="M1309.017,2734.155a.484.484,0,1,1-.685,0A.483.483,0,0,1,1309.017,2734.155Z" transform="translate(-1302.068 -2721.441)" fill="#fcfdfc"/><path d="M1337.718,2705.665a.484.484,0,1,1-.684,0A.483.483,0,0,1,1337.718,2705.665Z" transform="translate(-1328.619 -2695.085)" fill="#fcfdfc"/><path d="M1366.418,2677.173a.484.484,0,1,1-.685,0A.484.484,0,0,1,1366.418,2677.173Z" transform="translate(-1355.168 -2668.729)" fill="#fcfdfc"/><path d="M1395.117,2648.684a.484.484,0,1,1-.685,0A.484.484,0,0,1,1395.117,2648.684Z" transform="translate(-1381.717 -2642.374)" fill="#fcfdfc"/><path d="M1313.41,2566.371a.484.484,0,1,1-.684,0A.484.484,0,0,1,1313.41,2566.371Z" transform="translate(-1306.132 -2566.228)" fill="#fcfdfc"/></g></g><g transform="translate(284.507 117.28)" opacity="0.4"><g transform="translate(0 0)"><path d="M1546.351,1522.975a.606.606,0,1,1-.608.6A.605.605,0,0,1,1546.351,1522.975Z" transform="translate(-1542.056 -1511.592)" fill="#fcfdfc"/><path d="M1497.144,1522.8a.605.605,0,1,1-.608.6A.606.606,0,0,1,1497.144,1522.8Z" transform="translate(-1496.536 -1511.432)" fill="#fcfdfc"/><path d="M1595.557,1523.161a.605.605,0,1,1-.607.6A.6.6,0,0,1,1595.557,1523.161Z" transform="translate(-1587.577 -1511.764)" fill="#fcfdfc"/><path d="M1546.533,1472.4a.605.605,0,1,1-.608.6A.606.606,0,0,1,1546.533,1472.4Z" transform="translate(-1542.225 -1464.803)" fill="#fcfdfc"/><path d="M1595.741,1472.576a.605.605,0,1,1-.607.6A.605.605,0,0,1,1595.741,1472.576Z" transform="translate(-1587.747 -1464.969)" fill="#fcfdfc"/><path d="M1546.724,1421.8a.606.606,0,1,1-.608.6A.605.605,0,0,1,1546.724,1421.8Z" transform="translate(-1542.401 -1417.999)" fill="#fcfdfc"/><path d="M1595.924,1421.989a.605.605,0,1,1-.608.6A.6.6,0,0,1,1595.924,1421.989Z" transform="translate(-1587.916 -1418.172)" fill="#fcfdfc"/><path d="M1497.332,1472.217a.605.605,0,1,1-.608.6A.605.605,0,0,1,1497.332,1472.217Z" transform="translate(-1496.71 -1464.637)" fill="#fcfdfc"/><path d="M1497.521,1421.625a.605.605,0,1,1-.607.6A.605.605,0,0,1,1497.521,1421.625Z" transform="translate(-1496.885 -1417.835)" fill="#fcfdfc"/><path d="M1546.909,1371.223a.605.605,0,1,1-.608.6A.605.605,0,0,1,1546.909,1371.223Z" transform="translate(-1542.573 -1371.209)" fill="#fcfdfc"/><path d="M1596.116,1371.4a.605.605,0,1,1-.607.6A.606.606,0,0,1,1596.116,1371.4Z" transform="translate(-1588.094 -1371.375)" fill="#fcfdfc"/><path d="M1642.225,1523.332a.605.605,0,1,1-.608.6A.605.605,0,0,1,1642.225,1523.332Z" transform="translate(-1630.748 -1511.922)" fill="#fcfdfc"/><path d="M1642.413,1472.75a.605.605,0,1,1-.608.6A.6.6,0,0,1,1642.413,1472.75Z" transform="translate(-1630.921 -1465.13)" fill="#fcfdfc"/><path d="M1642.6,1422.158a.605.605,0,1,1-.607.6A.6.6,0,0,1,1642.6,1422.158Z" transform="translate(-1631.095 -1418.328)" fill="#fcfdfc"/><path d="M1642.784,1371.572a.606.606,0,1,1-.608.6A.605.605,0,0,1,1642.784,1371.572Z" transform="translate(-1631.265 -1371.532)" fill="#fcfdfc"/><path d="M1497.705,1371.041a.605.605,0,1,1-.607.6A.605.605,0,0,1,1497.705,1371.041Z" transform="translate(-1497.056 -1371.041)" fill="#fcfdfc"/></g></g><g transform="translate(527.705 21.735)" opacity="0.4"><g transform="translate(0 0)"><path d="M1546.351,1522.975a.606.606,0,1,1-.608.6A.605.605,0,0,1,1546.351,1522.975Z" transform="translate(-1542.056 -1511.592)" fill="#fcfdfc"/><path d="M1497.144,1522.8a.605.605,0,1,1-.608.6A.606.606,0,0,1,1497.144,1522.8Z" transform="translate(-1496.536 -1511.432)" fill="#fcfdfc"/><path d="M1595.557,1523.161a.605.605,0,1,1-.607.6A.6.6,0,0,1,1595.557,1523.161Z" transform="translate(-1587.577 -1511.764)" fill="#fcfdfc"/><path d="M1546.533,1472.4a.605.605,0,1,1-.608.6A.606.606,0,0,1,1546.533,1472.4Z" transform="translate(-1542.225 -1464.803)" fill="#fcfdfc"/><path d="M1595.741,1472.576a.605.605,0,1,1-.607.6A.605.605,0,0,1,1595.741,1472.576Z" transform="translate(-1587.747 -1464.969)" fill="#fcfdfc"/><path d="M1546.724,1421.8a.606.606,0,1,1-.608.6A.605.605,0,0,1,1546.724,1421.8Z" transform="translate(-1542.401 -1417.999)" fill="#fcfdfc"/><path d="M1595.924,1421.989a.605.605,0,1,1-.608.6A.6.6,0,0,1,1595.924,1421.989Z" transform="translate(-1587.916 -1418.172)" fill="#fcfdfc"/><path d="M1497.332,1472.217a.605.605,0,1,1-.608.6A.605.605,0,0,1,1497.332,1472.217Z" transform="translate(-1496.71 -1464.637)" fill="#fcfdfc"/><path d="M1497.521,1421.625a.605.605,0,1,1-.607.6A.605.605,0,0,1,1497.521,1421.625Z" transform="translate(-1496.885 -1417.835)" fill="#fcfdfc"/><path d="M1546.909,1371.223a.605.605,0,1,1-.608.6A.605.605,0,0,1,1546.909,1371.223Z" transform="translate(-1542.573 -1371.209)" fill="#fcfdfc"/><path d="M1596.116,1371.4a.605.605,0,1,1-.607.6A.606.606,0,0,1,1596.116,1371.4Z" transform="translate(-1588.094 -1371.375)" fill="#fcfdfc"/><path d="M1642.225,1523.332a.605.605,0,1,1-.608.6A.605.605,0,0,1,1642.225,1523.332Z" transform="translate(-1630.748 -1511.922)" fill="#fcfdfc"/><path d="M1642.413,1472.75a.605.605,0,1,1-.608.6A.6.6,0,0,1,1642.413,1472.75Z" transform="translate(-1630.921 -1465.13)" fill="#fcfdfc"/><path d="M1642.6,1422.158a.605.605,0,1,1-.607.6A.6.6,0,0,1,1642.6,1422.158Z" transform="translate(-1631.095 -1418.328)" fill="#fcfdfc"/><path d="M1642.784,1371.572a.606.606,0,1,1-.608.6A.605.605,0,0,1,1642.784,1371.572Z" transform="translate(-1631.265 -1371.532)" fill="#fcfdfc"/><path d="M1497.705,1371.041a.605.605,0,1,1-.607.6A.605.605,0,0,1,1497.705,1371.041Z" transform="translate(-1497.056 -1371.041)" fill="#fcfdfc"/></g></g><g transform="translate(388.473 27.685) rotate(45)" opacity="0.4"><g transform="translate(0 0)"><path d="M.608,0A.606.606,0,1,1,0,.6.605.605,0,0,1,.608,0Z" transform="translate(3.687 11.383)" fill="#fcfdfc"/><path d="M.608,0A.605.605,0,1,1,0,.6.606.606,0,0,1,.608,0Z" transform="translate(0 11.37)" fill="#fcfdfc"/><path d="M.607,0A.605.605,0,1,1,0,.6.6.6,0,0,1,.607,0Z" transform="translate(7.373 11.397)" fill="#fcfdfc"/><path d="M.608,0A.605.605,0,1,1,0,.6.606.606,0,0,1,.608,0Z" transform="translate(3.7 7.594)" fill="#fcfdfc"/><path d="M.607,0A.605.605,0,1,1,0,.6.6.6,0,0,1,.607,0Z" transform="translate(7.387 7.607)" fill="#fcfdfc"/><path d="M.608,0A.606.606,0,1,1,0,.6.606.606,0,0,1,.608,0Z" transform="translate(3.715 3.803)" fill="#fcfdfc"/><path d="M.608,0A.605.605,0,1,1,0,.6.6.6,0,0,1,.608,0Z" transform="translate(7.401 3.817)" fill="#fcfdfc"/><path d="M.608,0A.605.605,0,1,1,0,.6.605.605,0,0,1,.608,0Z" transform="translate(0.014 7.58)" fill="#fcfdfc"/><path d="M.607,0A.605.605,0,1,1,0,.6.605.605,0,0,1,.607,0Z" transform="translate(0.028 3.79)" fill="#fcfdfc"/><path d="M.608,0A.606.606,0,1,1,0,.6.605.605,0,0,1,.608,0Z" transform="translate(3.728 0.014)" fill="#fcfdfc"/><path d="M.607,0A.605.605,0,1,1,0,.6.606.606,0,0,1,.607,0Z" transform="translate(7.415 0.027)" fill="#fcfdfc"/><path d="M.607,0A.605.605,0,1,1,0,.6.605.605,0,0,1,.607,0Z" transform="translate(10.87 11.41)" fill="#fcfdfc"/><path d="M.608,0A.605.605,0,1,1,0,.6.605.605,0,0,1,.608,0Z" transform="translate(10.884 7.62)" fill="#fcfdfc"/><path d="M.607,0A.605.605,0,1,1,0,.6.6.6,0,0,1,.607,0Z" transform="translate(10.898 3.83)" fill="#fcfdfc"/><path d="M.608,0A.606.606,0,1,1,0,.6.605.605,0,0,1,.608,0Z" transform="translate(10.911 0.04)" fill="#fcfdfc"/><path d="M.607,0A.605.605,0,1,1,0,.6.605.605,0,0,1,.607,0Z" transform="translate(0.042 0)" fill="#fcfdfc"/></g></g><g transform="matrix(0.819, 0.574, -0.574, 0.819, 269.644, 47.4)"><path d="M3.763.6,7.007,6.218H.519L3.763.6m0-.6L3.5.45.26,6.069,0,6.518H7.526l-.259-.45L4.023.45,3.763,0Z" transform="translate(0 0)" fill="#fff"/></g><g transform="translate(505.273 74.111) rotate(-51)"><path d="M3.763.6,7.007,6.218H.519L3.763.6m0-.6L3.5.45.26,6.069,0,6.518H7.526l-.259-.449L4.023.45,3.763,0Z" transform="translate(0 0)" fill="#fff"/></g><g transform="translate(324.032 14.61)" opacity="0.4"><path d="M1897.034,257.332l2.183,3.781h-4.366l2.183-3.781m0-.4-.175.3-2.183,3.781-.175.3h5.064l-.175-.3-2.183-3.781-.175-.3Z" transform="translate(-1894.502 -256.929)" fill="#d9ebff"/></g><g transform="translate(322.976 20.422)" opacity="0.4"><path d="M1884,335.083l3.093,5.357h-6.186l3.093-5.357m0-.571-.247.429-3.093,5.357-.247.429h7.175l-.247-.429-3.093-5.357-.248-.429Z" transform="translate(-1880.414 -334.512)" fill="#d9ebff"/></g><g transform="translate(340.759 124.484)"><path d="M825.746,1800.482l3.244,5.619H822.5l3.244-5.619m0-.6-.26.449-3.244,5.619-.26.45h7.526l-.26-.45-3.244-5.619-.26-.449Z" transform="translate(-821.983 -1799.883)" fill="#fff"/></g><path d="M1466.832-428.927a45.41,45.41,0,0,0,1.816,64.195l62.379-66.01A45.41,45.41,0,0,0,1466.832-428.927Z" transform="translate(-1174.98 398.298)" opacity="0.327" fill="url(#h)"/><rect width="216.111" height="151.278" transform="translate(250.321 -25.525)" fill="none"/></g></svg>