<svg xmlns="http://www.w3.org/2000/svg" xmlns:xlink="http://www.w3.org/1999/xlink" width="1760" height="380" viewBox="0 0 1760 380"><defs><linearGradient id="a" x1="0.99" y1="0.021" x2="0.012" y2="0.977" gradientUnits="objectBoundingBox"><stop offset="0" stop-color="#00a2be"/><stop offset="1" stop-color="#003daa"/></linearGradient><clipPath id="b"><rect width="1760" height="380" rx="5" transform="translate(-12429 -23661)" fill="url(#a)"/></clipPath><linearGradient id="d" x1="0" y1="0.5" x2="1" y2="0.5" xlink:href="#a"/><linearGradient id="e" x1="0.795" y1="0.11" x2="0.255" y2="1.2" gradientUnits="objectBoundingBox"><stop offset="0" stop-color="#009ead"/><stop offset="0.532" stop-color="#0090a9"/><stop offset="1" stop-color="#1b4692"/></linearGradient><linearGradient id="f" x1="0.766" y1="-0.016" x2="0.322" y2="0.845" gradientUnits="objectBoundingBox"><stop offset="0" stop-color="#009ead"/><stop offset="0.483" stop-color="#0090a9"/><stop offset="1" stop-color="#1b4692"/></linearGradient><linearGradient id="h" x1="-0.155" y1="0.885" x2="0.565" y2="0.239" xlink:href="#e"/></defs><g transform="translate(12429 23661)" clip-path="url(#b)"><rect width="1760" height="380" transform="translate(-12429 -23661)" fill="url(#a)"/><path d="M3124.3,781.057a.421.421,0,0,1-.085.338" transform="translate(-14387.486 -24412.77)" fill="none"/><ellipse cx="40.999" cy="40.999" rx="40.999" ry="40.999" transform="translate(-12240.719 -23624.859)" fill="#0090a9" opacity="0.2"/><g transform="translate(-11150.049 -23786.613)" opacity="0.1"><path d="M3367.427,153.676a134.789,134.789,0,0,1-52.8-10.659,135.174,135.174,0,0,1-43.113-29.068,135.216,135.216,0,0,1-39.727-95.909,135.217,135.217,0,0,1,39.727-95.909,135.173,135.173,0,0,1,43.113-29.068,136.077,136.077,0,0,1,105.592,0,135.18,135.18,0,0,1,43.114,29.068,135.22,135.22,0,0,1,39.727,95.909,135.218,135.218,0,0,1-39.727,95.909,135.182,135.182,0,0,1-43.114,29.068A134.786,134.786,0,0,1,3367.427,153.676Zm0-269.849c-74.005,0-134.213,60.208-134.213,134.212s60.208,134.213,134.213,134.213,134.213-60.208,134.213-134.213S3441.432-116.173,3367.427-116.173Z" transform="translate(-3231.79 117.597)" fill="#1b4692"/></g><g transform="translate(-11685.777 -23260.855)" opacity="0.3"><path d="M471.376,2156.061a83.308,83.308,0,1,1,58.907-24.4A82.763,82.763,0,0,1,471.376,2156.061Zm0-165a81.689,81.689,0,1,0,81.69,81.689A81.782,81.782,0,0,0,471.376,1991.063Z" transform="translate(-388.068 -1989.445)" fill="#009ead"/></g><ellipse cx="153.383" cy="153.383" rx="153.383" ry="153.383" transform="translate(-11103.342 -23377.617) rotate(-79)" opacity="0.3" fill="url(#d)"/><path d="M1225.427,2368.722a163.486,163.486,0,0,1-230.869,12.461l218.408-243.329A163.486,163.486,0,0,1,1225.427,2368.722Z" transform="translate(-12913.109 -25482.785)" opacity="0.2" fill="url(#e)"/><path d="M-37.828,1242.446A154.957,154.957,0,0,0-192.785,1397.4,154.957,154.957,0,0,0-37.828,1552.359,154.957,154.957,0,0,0,117.128,1397.4,154.957,154.957,0,0,0-37.828,1242.446Zm0,225.007a70.051,70.051,0,0,1-70.051-70.051,70.051,70.051,0,0,1,70.051-70.05,70.051,70.051,0,0,1,70.051,70.05A70.051,70.051,0,0,1-37.828,1467.453Z" transform="translate(-12161.537 -24699.535)" opacity="0.2" fill="url(#f)"/><path d="M39.893,0A39.893,39.893,0,1,0,79.786,39.893,39.893,39.893,0,0,0,39.893,0Zm0,57.927A18.034,18.034,0,1,1,57.928,39.893,18.034,18.034,0,0,1,39.893,57.927Z" transform="matrix(0.391, -0.921, 0.921, 0.391, -11181.697, -23316.211)" opacity="0.2" fill="url(#f)"/><g transform="translate(-12000.586 -23183.152)" opacity="0.5"><path d="M1257.172,2680.131a1.743,1.743,0,1,1-2.465-.009A1.742,1.742,0,0,1,1257.172,2680.131Z" transform="translate(-1246.716 -2649.032)" fill="#fcfdfc"/><path d="M1229.458,2652.215a1.742,1.742,0,1,1-2.464-.009A1.743,1.743,0,0,1,1229.458,2652.215Z" transform="translate(-1226.479 -2628.647)" fill="#fcfdfc"/><path d="M1284.883,2708.05a1.742,1.742,0,1,1-2.464-.008A1.741,1.741,0,0,1,1284.883,2708.05Z" transform="translate(-1266.955 -2669.421)" fill="#fcfdfc"/><path d="M1285.871,2651.643a1.743,1.743,0,1,1-2.464-.01A1.743,1.743,0,0,1,1285.871,2651.643Z" transform="translate(-1267.676 -2628.228)" fill="#fcfdfc"/><path d="M1313.583,2679.559a1.742,1.742,0,1,1-2.464-.008A1.741,1.741,0,0,1,1313.583,2679.559Z" transform="translate(-1287.914 -2648.615)" fill="#fcfdfc"/><path d="M1314.576,2623.149a1.743,1.743,0,1,1-2.465-.009A1.743,1.743,0,0,1,1314.576,2623.149Z" transform="translate(-1288.637 -2607.42)" fill="#fcfdfc"/><path d="M1342.287,2651.067a1.742,1.742,0,1,1-2.466-.009A1.742,1.742,0,0,1,1342.287,2651.067Z" transform="translate(-1308.875 -2627.807)" fill="#fcfdfc"/><path d="M1258.158,2623.725a1.742,1.742,0,1,1-2.463-.01A1.741,1.741,0,0,1,1258.158,2623.725Z" transform="translate(-1247.438 -2607.84)" fill="#fcfdfc"/><path d="M1286.859,2595.233a1.742,1.742,0,1,1-2.464-.009A1.742,1.742,0,0,1,1286.859,2595.233Z" transform="translate(-1268.398 -2587.033)" fill="#fcfdfc"/><path d="M1343.275,2594.661a1.742,1.742,0,1,1-2.465-.01A1.744,1.744,0,0,1,1343.275,2594.661Z" transform="translate(-1309.596 -2586.615)" fill="#fcfdfc"/><path d="M1370.988,2622.578a1.743,1.743,0,1,1-2.464-.009A1.742,1.742,0,0,1,1370.988,2622.578Z" transform="translate(-1329.835 -2607.002)" fill="#fcfdfc"/><path d="M1311.168,2734.528a1.742,1.742,0,1,1-2.464-.01A1.74,1.74,0,0,1,1311.168,2734.528Z" transform="translate(-1286.15 -2688.756)" fill="#fcfdfc"/><path d="M1339.869,2706.037a1.743,1.743,0,1,1-2.464-.01A1.741,1.741,0,0,1,1339.869,2706.037Z" transform="translate(-1307.109 -2667.95)" fill="#fcfdfc"/><path d="M1368.57,2677.545a1.743,1.743,0,1,1-2.465-.008A1.741,1.741,0,0,1,1368.57,2677.545Z" transform="translate(-1328.068 -2647.144)" fill="#fcfdfc"/><path d="M1397.27,2649.056a1.743,1.743,0,1,1-2.464-.009A1.742,1.742,0,0,1,1397.27,2649.056Z" transform="translate(-1349.026 -2626.339)" fill="#fcfdfc"/><path d="M1315.561,2566.743a1.742,1.742,0,1,1-2.464-.009A1.74,1.74,0,0,1,1315.561,2566.743Z" transform="translate(-1289.358 -2566.228)" fill="#fcfdfc"/></g><g transform="translate(-11933.615 -23298.523)" opacity="0.4"><g transform="translate(0 0)"><path d="M1547.932,1522.975a2.181,2.181,0,1,1-2.189,2.172A2.179,2.179,0,0,1,1547.932,1522.975Z" transform="translate(-1532.47 -1481.994)" fill="#fcfdfc"/><path d="M1498.724,1522.8a2.179,2.179,0,1,1-2.189,2.17A2.181,2.181,0,0,1,1498.724,1522.8Z" transform="translate(-1496.536 -1481.868)" fill="#fcfdfc"/><path d="M1597.137,1523.161a2.18,2.18,0,1,1-2.187,2.171A2.176,2.176,0,0,1,1597.137,1523.161Z" transform="translate(-1568.405 -1482.13)" fill="#fcfdfc"/><path d="M1548.115,1472.4a2.18,2.18,0,1,1-2.19,2.171A2.181,2.181,0,0,1,1548.115,1472.4Z" transform="translate(-1532.603 -1445.058)" fill="#fcfdfc"/><path d="M1597.321,1472.576a2.179,2.179,0,1,1-2.187,2.172A2.178,2.178,0,0,1,1597.321,1472.576Z" transform="translate(-1568.539 -1445.189)" fill="#fcfdfc"/><path d="M1548.3,1421.8a2.18,2.18,0,1,1-2.188,2.172A2.18,2.18,0,0,1,1548.3,1421.8Z" transform="translate(-1532.743 -1408.11)" fill="#fcfdfc"/><path d="M1597.505,1421.989a2.179,2.179,0,1,1-2.189,2.172A2.177,2.177,0,0,1,1597.505,1421.989Z" transform="translate(-1568.672 -1408.247)" fill="#fcfdfc"/><path d="M1498.912,1472.217a2.179,2.179,0,1,1-2.188,2.169A2.179,2.179,0,0,1,1498.912,1472.217Z" transform="translate(-1496.673 -1444.927)" fill="#fcfdfc"/><path d="M1499.1,1421.625a2.18,2.18,0,1,1-2.187,2.173A2.178,2.178,0,0,1,1499.1,1421.625Z" transform="translate(-1496.812 -1407.981)" fill="#fcfdfc"/><path d="M1548.489,1371.223a2.18,2.18,0,1,1-2.188,2.171A2.18,2.18,0,0,1,1548.489,1371.223Z" transform="translate(-1532.878 -1371.174)" fill="#fcfdfc"/><path d="M1597.7,1371.4a2.18,2.18,0,1,1-2.186,2.172A2.181,2.181,0,0,1,1597.7,1371.4Z" transform="translate(-1568.813 -1371.304)" fill="#fcfdfc"/><path d="M1643.8,1523.332a2.179,2.179,0,1,1-2.187,2.172A2.179,2.179,0,0,1,1643.8,1523.332Z" transform="translate(-1602.485 -1482.255)" fill="#fcfdfc"/><path d="M1643.993,1472.75a2.18,2.18,0,1,1-2.188,2.171A2.178,2.178,0,0,1,1643.993,1472.75Z" transform="translate(-1602.622 -1445.316)" fill="#fcfdfc"/><path d="M1644.18,1422.158a2.179,2.179,0,1,1-2.187,2.173A2.178,2.178,0,0,1,1644.18,1422.158Z" transform="translate(-1602.759 -1408.37)" fill="#fcfdfc"/><path d="M1644.364,1371.572a2.18,2.18,0,1,1-2.188,2.172A2.178,2.178,0,0,1,1644.364,1371.572Z" transform="translate(-1602.893 -1371.429)" fill="#fcfdfc"/><path d="M1499.285,1371.041a2.179,2.179,0,1,1-2.187,2.171A2.179,2.179,0,0,1,1499.285,1371.041Z" transform="translate(-1496.947 -1371.041)" fill="#fcfdfc"/></g></g><g transform="translate(-11058.055 -23642.504)" opacity="0.4"><g transform="translate(0 0)"><path d="M1547.932,1522.975a2.181,2.181,0,1,1-2.189,2.172A2.179,2.179,0,0,1,1547.932,1522.975Z" transform="translate(-1532.47 -1481.994)" fill="#fcfdfc"/><path d="M1498.724,1522.8a2.179,2.179,0,1,1-2.189,2.17A2.181,2.181,0,0,1,1498.724,1522.8Z" transform="translate(-1496.536 -1481.868)" fill="#fcfdfc"/><path d="M1597.137,1523.161a2.18,2.18,0,1,1-2.187,2.171A2.176,2.176,0,0,1,1597.137,1523.161Z" transform="translate(-1568.405 -1482.13)" fill="#fcfdfc"/><path d="M1548.115,1472.4a2.18,2.18,0,1,1-2.19,2.171A2.181,2.181,0,0,1,1548.115,1472.4Z" transform="translate(-1532.603 -1445.058)" fill="#fcfdfc"/><path d="M1597.321,1472.576a2.179,2.179,0,1,1-2.187,2.172A2.178,2.178,0,0,1,1597.321,1472.576Z" transform="translate(-1568.539 -1445.189)" fill="#fcfdfc"/><path d="M1548.3,1421.8a2.18,2.18,0,1,1-2.188,2.172A2.18,2.18,0,0,1,1548.3,1421.8Z" transform="translate(-1532.743 -1408.11)" fill="#fcfdfc"/><path d="M1597.505,1421.989a2.179,2.179,0,1,1-2.189,2.172A2.177,2.177,0,0,1,1597.505,1421.989Z" transform="translate(-1568.672 -1408.247)" fill="#fcfdfc"/><path d="M1498.912,1472.217a2.179,2.179,0,1,1-2.188,2.169A2.179,2.179,0,0,1,1498.912,1472.217Z" transform="translate(-1496.673 -1444.927)" fill="#fcfdfc"/><path d="M1499.1,1421.625a2.18,2.18,0,1,1-2.187,2.173A2.178,2.178,0,0,1,1499.1,1421.625Z" transform="translate(-1496.812 -1407.981)" fill="#fcfdfc"/><path d="M1548.489,1371.223a2.18,2.18,0,1,1-2.188,2.171A2.18,2.18,0,0,1,1548.489,1371.223Z" transform="translate(-1532.878 -1371.174)" fill="#fcfdfc"/><path d="M1597.7,1371.4a2.18,2.18,0,1,1-2.186,2.172A2.181,2.181,0,0,1,1597.7,1371.4Z" transform="translate(-1568.813 -1371.304)" fill="#fcfdfc"/><path d="M1643.8,1523.332a2.179,2.179,0,1,1-2.187,2.172A2.179,2.179,0,0,1,1643.8,1523.332Z" transform="translate(-1602.485 -1482.255)" fill="#fcfdfc"/><path d="M1643.993,1472.75a2.18,2.18,0,1,1-2.188,2.171A2.178,2.178,0,0,1,1643.993,1472.75Z" transform="translate(-1602.622 -1445.316)" fill="#fcfdfc"/><path d="M1644.18,1422.158a2.179,2.179,0,1,1-2.187,2.173A2.178,2.178,0,0,1,1644.18,1422.158Z" transform="translate(-1602.759 -1408.37)" fill="#fcfdfc"/><path d="M1644.364,1371.572a2.18,2.18,0,1,1-2.188,2.172A2.178,2.178,0,0,1,1644.364,1371.572Z" transform="translate(-1602.893 -1371.429)" fill="#fcfdfc"/><path d="M1499.285,1371.041a2.179,2.179,0,1,1-2.187,2.171A2.179,2.179,0,0,1,1499.285,1371.041Z" transform="translate(-1496.947 -1371.041)" fill="#fcfdfc"/></g></g><g transform="translate(-11559.316 -23621.082) rotate(45)" opacity="0.4"><path d="M2.189,0A2.181,2.181,0,1,1,0,2.172,2.179,2.179,0,0,1,2.189,0Z" transform="translate(13.273 40.981)" fill="#fcfdfc"/><path d="M2.189,0A2.179,2.179,0,1,1,0,2.17,2.181,2.181,0,0,1,2.189,0Z" transform="translate(0 40.934)" fill="#fcfdfc"/><path d="M2.187,0A2.18,2.18,0,1,1,0,2.171,2.176,2.176,0,0,1,2.187,0Z" transform="translate(26.545 41.031)" fill="#fcfdfc"/><path d="M2.19,0A2.18,2.18,0,1,1,0,2.171,2.181,2.181,0,0,1,2.19,0Z" transform="translate(13.322 27.339)" fill="#fcfdfc"/><path d="M2.187,0A2.179,2.179,0,1,1,0,2.172,2.178,2.178,0,0,1,2.187,0Z" transform="translate(26.595 27.387)" fill="#fcfdfc"/><path d="M2.188,0A2.18,2.18,0,1,1,0,2.172,2.18,2.18,0,0,1,2.188,0Z" transform="translate(13.373 13.692)" fill="#fcfdfc"/><path d="M2.189,0A2.179,2.179,0,1,1,0,2.172,2.177,2.177,0,0,1,2.189,0Z" transform="translate(26.644 13.742)" fill="#fcfdfc"/><path d="M2.188,0A2.179,2.179,0,1,1,0,2.169,2.178,2.178,0,0,1,2.188,0Z" transform="translate(0.051 27.29)" fill="#fcfdfc"/><path d="M2.187,0A2.18,2.18,0,1,1,0,2.173,2.178,2.178,0,0,1,2.187,0Z" transform="translate(0.102 13.644)" fill="#fcfdfc"/><path d="M2.188,0A2.18,2.18,0,1,1,0,2.171,2.18,2.18,0,0,1,2.188,0Z" transform="translate(13.423 0.049)" fill="#fcfdfc"/><path d="M2.186,0A2.18,2.18,0,1,1,0,2.172,2.181,2.181,0,0,1,2.186,0Z" transform="translate(26.696 0.097)" fill="#fcfdfc"/><path d="M2.187,0A2.179,2.179,0,1,1,0,2.172,2.179,2.179,0,0,1,2.187,0Z" transform="translate(39.133 41.077)" fill="#fcfdfc"/><path d="M2.188,0A2.18,2.18,0,1,1,0,2.171,2.178,2.178,0,0,1,2.188,0Z" transform="translate(39.183 27.434)" fill="#fcfdfc"/><path d="M2.187,0A2.179,2.179,0,1,1,0,2.173,2.178,2.178,0,0,1,2.187,0Z" transform="translate(39.234 13.788)" fill="#fcfdfc"/><path d="M2.188,0A2.18,2.18,0,1,1,0,2.172,2.178,2.178,0,0,1,2.188,0Z" transform="translate(39.283 0.143)" fill="#fcfdfc"/><path d="M2.187,0A2.179,2.179,0,1,1,0,2.171,2.179,2.179,0,0,1,2.187,0Z" transform="translate(0.152 0)" fill="#fcfdfc"/></g><g transform="matrix(0.819, 0.574, -0.574, 0.819, -12030.949, -23570.104)"><path d="M13.549,2.158l11.679,20.23H1.869l11.68-20.23m0-2.158-.935,1.618L.934,21.848,0,23.466H27.1l-.934-1.618L14.483,1.618,13.549,0Z" transform="translate(0 0)" fill="#fff"/></g><g transform="translate(-10983.814 -23424.941) rotate(-51)"><path d="M13.549,2.158l11.679,20.23H1.869l11.68-20.23m0-2.158-.935,1.618L.934,21.848,0,23.466H27.1l-.934-1.618L14.483,1.618,13.549,0Z" transform="translate(0 0)" fill="#fff"/></g><g transform="translate(-11791.32 -23668.156)" opacity="0.4"><path d="M1903.618,258.381l7.859,13.612h-15.718l7.859-13.612m0-1.452-.629,1.089-7.859,13.612-.628,1.089h18.232l-.628-1.089-7.859-13.612-.629-1.089Z" transform="translate(-1894.502 -256.929)" fill="#d9ebff"/></g><g transform="translate(-11795.121 -23647.23)" opacity="0.4"><path d="M1893.33,336.569l11.135,19.286H1882.2l11.134-19.286m0-2.057-.891,1.543L1881.3,355.341l-.89,1.543h25.832l-.89-1.543-11.135-19.286-.891-1.543Z" transform="translate(-1880.414 -334.512)" fill="#d9ebff"/></g><g transform="translate(-11731.098 -23272.59)"><path d="M835.531,1802.041l11.68,20.23H823.852l11.679-20.23m0-2.158-.935,1.618-11.679,20.23-.934,1.618h27.1l-.935-1.618-11.679-20.23-.935-1.618Z" transform="translate(-821.983 -1799.883)" fill="#fff"/></g><path d="M1499.089-391.949a163.486,163.486,0,0,0,6.536,231.113L1730.2-398.486A163.486,163.486,0,0,0,1499.089-391.949Z" transform="translate(-13406.264 -23439.074)" opacity="0.327" fill="url(#h)"/><rect width="778.04" height="544.628" transform="translate(-12056.697 -23812.648)" fill="none"/></g></svg>