<svg xmlns="http://www.w3.org/2000/svg" width="60" height="27" viewBox="0 0 60 27"><g transform="translate(-1126 -355)"><rect width="60" height="27" rx="5" transform="translate(1126 355)" fill="#fff" opacity="0.2"/><path d="M-15.851-9.834V0h1.718V-9.834h3.519v-1.481h-8.768v1.481Zm12.923,5.5C-2.928-7.4-4.768-8.6-6.7-8.6c-2.359,0-3.923,1.8-3.923,4.409,0,2.635,1.541,4.359,4.044,4.359a3.368,3.368,0,0,0,3.541-2.3H-4.729a1.965,1.965,0,0,1-1.84.934,2.328,2.328,0,0,1-2.4-2.541h6.039Zm-6.033-.657A2.288,2.288,0,0,1-6.68-7.227a2.086,2.086,0,0,1,2.11,2.238ZM2.061-8.6c-2,0-3.315,1.022-3.47,2.425H.254A1.623,1.623,0,0,1,2-7.249c1.138,0,1.729.552,1.729,1.508v.691c-.365.011-1.657.077-2.232.116-1.525.11-3.171.608-3.171,2.536A2.58,2.58,0,0,0,1.193.188,2.649,2.649,0,0,0,3.7-1.16h.066V0H5.392V-5.635C5.392-8.1,3.414-8.6,2.061-8.6Zm-.5,7.453c-.934,0-1.6-.414-1.6-1.232,0-.834.685-1.249,1.773-1.326.4-.028,1.619-.11,2-.133v.773A1.989,1.989,0,0,1,1.564-1.144ZM9.077,0V-5.227a1.806,1.806,0,0,1,1.735-1.928A1.453,1.453,0,0,1,12.359-5.63V0h1.652V-5.409a1.615,1.615,0,0,1,1.7-1.746A1.471,1.471,0,0,1,17.3-5.525V0h1.669V-5.691c0-1.939-1.088-2.906-2.624-2.906A2.636,2.636,0,0,0,13.8-7.1h-.088a2.287,2.287,0,0,0-2.282-1.5A2.318,2.318,0,0,0,9.116-7.1h-.1V-8.486h-1.6V0Z" transform="translate(1156 374)" fill="#fff"/></g></svg>