<svg xmlns="http://www.w3.org/2000/svg" width="48" height="27" viewBox="0 0 48 27"><g transform="translate(-726 -345)"><rect width="48" height="27" rx="5" transform="translate(726 345)" fill="#fff" opacity="0.2"/><path d="M-5.05-8.337C-5.094-10.155-6.7-11.47-9-11.47c-2.282,0-4.022,1.293-4.022,3.254,0,1.58,1.127,2.5,2.95,2.994l1.331.359c1.21.32,2.138.718,2.144,1.713-.006,1.1-1.05,1.829-2.5,1.829-1.315,0-2.409-.586-2.508-1.812h-1.724c.11,2.055,1.7,3.32,4.238,3.32C-6.42.188-4.9-1.21-4.9-3.133c0-2.033-1.807-2.829-3.254-3.182l-1.1-.287c-.9-.221-2.061-.641-2.055-1.713,0-.961.878-1.669,2.265-1.669,1.293,0,2.215.6,2.326,1.646ZM4.138-4.331C4.138-7.4,2.3-8.6.365-8.6c-2.359,0-3.923,1.8-3.923,4.409C-3.558-1.552-2.017.171.486.171a3.368,3.368,0,0,0,3.541-2.3H2.337A1.965,1.965,0,0,1,.5-1.2,2.328,2.328,0,0,1-1.9-3.74H4.138ZM-1.9-4.989A2.288,2.288,0,0,1,.387-7.227,2.086,2.086,0,0,1,2.5-4.989ZM5.79-11.315V0H7.459V-11.315Zm7.221.912a5.092,5.092,0,0,1,.7.055v-1.387a5.874,5.874,0,0,0-1.133-.11,2.256,2.256,0,0,0-2.53,2.381v.978H8.735v1.331H10.05V0h1.669V-7.155h1.818V-8.486H11.718v-.74C11.718-10.05,12.127-10.4,13.011-10.4Z" transform="translate(750 364)" fill="#fff"/></g></svg>